<svg width="110" height="165" viewBox="0 0 110 165" fill="none" xmlns="http://www.w3.org/2000/svg">
<path d="M50 164.22C43.76 164.22 37.64 163.14 31.64 160.98C25.76 158.82 20.42 155.46 15.62 150.9C10.94 146.46 7.22 140.88 4.46 134.16C1.7 127.32 0.32 119.34 0.32 110.22C0.32 99.9 1.88 91.02 5 83.58C8.24 76.02 12.5 69.84 17.78 65.04C23.06 60.12 28.94 56.46 35.42 54.06C41.9 51.66 48.38 50.46 54.86 50.46C58.7 50.46 62.36 50.76 65.84 51.36C69.32 51.84 72.56 52.56 75.56 53.52C75.92 44.76 76.34 35.94 76.82 27.06C77.42 18.18 78.08 9.41999 78.8 0.77999L109.04 2.76C108.08 12.72 107.24 23.46 106.52 34.98C105.8 46.38 105.26 58.02 104.9 69.9C104.66 81.78 104.54 93.36 104.54 104.64C104.54 115.2 104.66 125.28 104.9 134.88C105.26 144.36 105.68 153 106.16 160.8L75.02 163.14C74.9 160.86 74.84 158.64 74.84 156.48C71.36 158.76 67.52 160.62 63.32 162.06C59.24 163.5 54.8 164.22 50 164.22ZM29.3 108.6C29.3 114.84 30.5 119.76 32.9 123.36C35.3 126.84 38.24 129.3 41.72 130.74C45.2 132.18 48.56 132.9 51.8 132.9C55.64 132.9 59.48 132.06 63.32 130.38C67.16 128.7 70.76 125.76 74.12 121.56C74.12 120.12 74.12 118.74 74.12 117.42C74.12 107.7 74.24 97.74 74.48 87.54C68.84 82.62 62.72 80.16 56.12 80.16C53.36 80.16 50.42 80.58 47.3 81.42C44.18 82.26 41.24 83.76 38.48 85.92C35.84 87.96 33.62 90.84 31.82 94.56C30.14 98.16 29.3 102.84 29.3 108.6Z" fill="black"/>
</svg>
