<svg width="114" height="115" viewBox="0 0 114 115" fill="none" xmlns="http://www.w3.org/2000/svg">
<path d="M58 114.4C46.48 114.4 36.34 112.12 27.58 107.56C18.94 103.12 12.16 96.88 7.24 88.84C2.44 80.8 0.0400002 71.5 0.0400002 60.94C0.0400002 54.58 1.12 47.92 3.28 40.96C5.44 33.88 8.92 27.28 13.72 21.16C18.52 15.04 24.82 10.06 32.62 6.22C40.54 2.37999 50.14 0.459994 61.42 0.459994C69.58 0.459994 76.42 1.35999 81.94 3.15999C87.58 4.96 92.14 7.3 95.62 10.18C99.22 13.06 101.92 16.12 103.72 19.36C105.64 22.6 106.9 25.72 107.5 28.72C108.22 31.6 108.58 34 108.58 35.92C108.58 47.56 103.66 56.56 93.82 62.92C84.1 69.16 70.3 72.28 52.42 72.28C48.34 72.28 44.44 72.1 40.72 71.74C37.12 71.38 33.76 70.96 30.64 70.48C32.92 76.48 36.7 80.92 41.98 83.8C47.26 86.56 52.72 87.94 58.36 87.94C66.52 87.94 73.72 86.5 79.96 83.62C86.2 80.62 92.08 76.06 97.6 69.94L113.62 92.98C109.78 96.1 105.46 99.34 100.66 102.7C95.98 106.06 90.22 108.82 83.38 110.98C76.54 113.26 68.08 114.4 58 114.4ZM61.96 27.46C54.88 27.46 48.64 29.26 43.24 32.86C37.84 36.46 33.88 41.2 31.36 47.08C34.36 47.56 37.3 47.98 40.18 48.34C43.18 48.58 46.12 48.7 49 48.7C51.64 48.7 54.64 48.46 58 47.98C61.48 47.5 64.84 46.78 68.08 45.82C71.44 44.86 74.2 43.66 76.36 42.22C78.52 40.66 79.6 38.86 79.6 36.82C79.6 35.86 79.12 34.66 78.16 33.22C77.2 31.78 75.46 30.46 72.94 29.26C70.42 28.06 66.76 27.46 61.96 27.46Z" fill="black"/>
</svg>
