<svg width="101" height="158" viewBox="0 0 101 158" fill="none" xmlns="http://www.w3.org/2000/svg">
<path d="M1.3411e-07 157.42C1.3411e-07 150.1 1.3411e-07 140.74 1.3411e-07 129.34C0.12 117.82 0.24 105.04 0.36 91C0.6 76.96 0.9 62.2 1.26 46.72C1.74 31.24 2.28 15.76 2.88 0.279996L33.48 0.099988C33 6.93999 32.52 15.28 32.04 25.12C31.56 34.96 31.14 45.52 30.78 56.8C39.06 49.12 48.54 45.28 59.22 45.28C66.54 45.28 72.6 46.6 77.4 49.24C82.32 51.88 86.28 55.36 89.28 59.68C92.28 63.88 94.56 68.5 96.12 73.54C97.68 78.58 98.76 83.56 99.36 88.48C99.96 93.28 100.26 97.54 100.26 101.26C100.26 109.18 100.2 117.04 100.08 124.84C99.96 132.64 99.84 139.48 99.72 145.36C99.72 151.24 99.72 155.38 99.72 157.78L68.22 157.96C68.7 153.28 69 147.88 69.12 141.76C69.36 135.64 69.48 129.34 69.48 122.86C69.6 116.26 69.66 110.02 69.66 104.14C69.66 84.7 65.1 74.98 55.98 74.98C53.22 74.98 50.16 75.7 46.8 77.14C43.44 78.58 40.2 80.86 37.08 83.98C34.08 87.1 31.68 91.24 29.88 96.4C29.76 104.32 29.7 112 29.7 119.44C29.7 126.28 29.76 132.7 29.88 138.7C30.12 144.58 30.3 150.52 30.42 156.52L1.3411e-07 157.42Z" fill="black"/>
</svg>
