<svg width="36" height="160" viewBox="0 0 36 160" fill="none" xmlns="http://www.w3.org/2000/svg">
<path d="M2.1 30.72C2.1 29.64 2.04 28.56 1.92 27.48C1.92 26.28 1.92 24.96 1.92 23.52C1.92 19.68 2.04 15.6 2.28 11.28C2.52 6.96 2.76 3.29999 3 0.29999L35.04 0.839993C34.68 4.91999 34.26 9.53999 33.78 14.7C33.42 19.86 33.18 25.2 33.06 30.72H2.1ZM1.38 159.6C1.02 152.16 0.78 144.24 0.66 135.84C0.54 127.32 0.48 118.8 0.48 110.28C0.48 99.12 0.6 88.26 0.84 77.7C1.08 67.14 1.38 57.54 1.74 48.9L32.7 48.72C32.22 54.24 31.92 61.08 31.8 69.24C31.68 77.28 31.62 85.74 31.62 94.62C31.62 103.38 31.68 112.02 31.8 120.54C31.92 129.06 32.04 136.8 32.16 143.76C32.4 150.6 32.58 155.88 32.7 159.6H1.38Z" fill="black"/>
</svg>
