<svg width="107" height="162" viewBox="0 0 107 162" fill="none" xmlns="http://www.w3.org/2000/svg">
<path d="M1.9 160.14C1.42 154.38 1 147 0.64 138C0.4 129 0.280001 119.22 0.280001 108.66C0.280001 99.3 0.340001 89.64 0.46 79.68C0.7 69.72 1 59.94 1.36 50.34C1.84 40.62 2.32 31.56 2.8 23.16C3.4 14.64 4.06 7.19999 4.78 0.839993L36.1 3C34.42 15.24 33.1 27.66 32.14 40.26C31.3 52.74 30.76 65.46 30.52 78.42C37.24 73.74 45.04 68.82 53.92 63.66C62.92 58.38 73.72 52.44 86.32 45.84L103.24 74.1C90.28 78.18 78.82 82.86 68.86 88.14C58.9 93.3 50.74 98.52 44.38 103.8C43.18 104.64 42.4 105.24 42.04 105.6C41.68 105.96 41.5 106.2 41.5 106.32C41.5 107.04 43.48 108.36 47.44 110.28C52.72 113.04 58.18 115.74 63.82 118.38C69.46 121.02 75.76 123.72 82.72 126.48C89.68 129.12 97.66 131.94 106.66 134.94L94.24 161.58C83.32 158.34 72.4 154.26 61.48 149.34C50.56 144.42 40.66 139.44 31.78 134.4C31.9 138.48 32.08 142.62 32.32 146.82C32.68 151.02 32.98 155.22 33.22 159.42L1.9 160.14Z" fill="black"/>
</svg>
