<svg width="151" height="115" viewBox="0 0 151 115" fill="none" xmlns="http://www.w3.org/2000/svg">
<path d="M1.64 114.04C1.52 112.24 1.4 109.24 1.28 105.04C1.16 100.96 1.04 96.04 0.920001 90.28C0.8 84.52 0.74 78.34 0.74 71.74C0.74 65.02 0.74 58.3 0.74 51.58C0.74 44.14 0.74 37.06 0.74 30.34C0.860001 23.62 0.920001 17.8 0.920001 12.88C1.04 7.95999 1.1 4.41999 1.1 2.25999L31.52 1.72C31.28 5.08 31.1 9.16 30.98 13.96C34.1 9.76 37.7 6.46 41.78 4.05999C45.86 1.65999 50.54 0.459994 55.82 0.459994C62.18 0.459994 67.4 2.32 71.48 6.04C75.68 9.76 79.1 14.62 81.74 20.62C90.38 7.18 101 0.459994 113.6 0.459994C120.68 0.459994 126.5 2.02 131.06 5.14C135.74 8.14 139.4 12.22 142.04 17.38C144.68 22.54 146.6 28.36 147.8 34.84C149.12 41.32 149.96 47.98 150.32 54.82C150.68 61.66 150.86 68.26 150.86 74.62C150.86 82.18 150.74 89.08 150.5 95.32C150.26 101.56 150.2 107.5 150.32 113.14H119.18C119.18 110.26 119.18 106.6 119.18 102.16C119.18 97.84 119.18 93.46 119.18 89.02C119.3 84.46 119.36 80.56 119.36 77.32C119.36 73.96 119.36 71.98 119.36 71.38C119.36 64.18 119.18 57.4 118.82 51.04C118.46 44.68 117.56 39.52 116.12 35.56C114.68 31.6 112.34 29.62 109.1 29.62C105.98 29.62 103.22 31.12 100.82 34.12C98.42 37.12 96.26 41.02 94.34 45.82C92.54 50.62 90.98 55.72 89.66 61.12C89.9 65.8 90.08 70.48 90.2 75.16C90.32 79.72 90.38 84.16 90.38 88.48C90.38 93.4 90.32 97.66 90.2 101.26C90.2 104.98 90.2 108.94 90.2 113.14H59.96C59.96 103.42 59.9 94.84 59.78 87.4C59.66 79.96 59.42 72.76 59.06 65.8C58.46 53.32 57.14 44.2 55.1 38.44C53.18 32.56 50.48 29.62 47 29.62C43.16 29.62 39.92 31.96 37.28 36.64C34.64 41.2 32.48 46.78 30.8 53.38C30.92 62.98 31.16 73 31.52 83.44C31.88 93.88 32.36 103.96 32.96 113.68L1.64 114.04Z" fill="black"/>
</svg>
