<svg width="117" height="152" viewBox="0 0 117 152" fill="none" xmlns="http://www.w3.org/2000/svg">
<path d="M52.34 116.48C46.7 116.48 40.82 115.46 34.7 113.42C28.7 111.5 23.12 108.32 17.96 103.88C12.8 99.56 8.6 93.86 5.36 86.78C2.12 79.7 0.5 71.06 0.5 60.86C0.5 51.5 2.3 43.22 5.9 36.02C9.62 28.82 14.36 22.76 20.12 17.84C26 12.92 32.24 9.26 38.84 6.86C45.56 4.34 51.92 3.07999 57.92 3.07999C68 3.07999 76.88 5.35999 84.56 9.91999C84.92 6.8 85.22 3.74 85.46 0.739993L116.06 3.97999C113.9 19.22 112.28 35.42 111.2 52.58C110.24 69.74 109.76 86.36 109.76 102.44C109.76 120.32 110.3 136.28 111.38 150.32L80.96 151.94C80.6 146.42 80.3 140.48 80.06 134.12C79.94 127.88 79.88 121.46 79.88 114.86C79.88 113.18 79.88 111.5 79.88 109.82C75.2 112.58 70.46 114.38 65.66 115.22C60.86 116.06 56.42 116.48 52.34 116.48ZM30.38 62.3C30.38 69.98 32.48 75.98 36.68 80.3C41 84.5 46.94 86.6 54.5 86.6C60.5 86.6 65.6 85.88 69.8 84.44C74 82.88 77.6 80.96 80.6 78.68C80.96 67.04 81.5 55.28 82.22 43.4C76.7 36.44 69.2 32.96 59.72 32.96C54.08 32.96 49.04 34.22 44.6 36.74C40.16 39.26 36.68 42.74 34.16 47.18C31.64 51.62 30.38 56.66 30.38 62.3Z" fill="black"/>
</svg>
