<svg width="126" height="119" viewBox="0 0 126 119" fill="none" xmlns="http://www.w3.org/2000/svg">
<path d="M24.7 118.3L2.02 98.68C7.78 91.96 13.96 85.18 20.56 78.34C27.16 71.38 33.94 64.48 40.9 57.64C32.5 50.32 24.64 43.78 17.32 38.02C10.12 32.14 4.54 28 0.58 25.6L18.58 1.83999C25.06 6.52 32.08 11.86 39.64 17.86C47.2 23.86 54.82 30.22 62.5 36.94C69.58 30.46 76.54 24.16 83.38 18.04C90.22 11.8 96.76 5.91999 103 0.399991L123.88 22C120.04 24.76 114.58 29.32 107.5 35.68C100.42 41.92 92.74 48.88 84.46 56.56C92.38 63.76 99.82 70.9 106.78 77.98C113.86 84.94 120.1 91.42 125.5 97.42L103.54 117.4C101.38 114.76 98.26 111.34 94.18 107.14C90.1 102.94 85.36 98.26 79.96 93.1C74.68 87.94 69.04 82.66 63.04 77.26C57.28 82.9 51.82 88.36 46.66 93.64C41.62 98.92 37.18 103.66 33.34 107.86C29.5 112.18 26.62 115.66 24.7 118.3Z" fill="black"/>
</svg>
