<svg xmlns="http://www.w3.org/2000/svg" width="780" height="540"><path d="M220.723 63.383c9.626 3.966 9.626 3.966 11.277 5.617 1.253 22.318 1.253 22.318-4.562 29.938-3.485 3.57-7.7 5.609-12.438 7.062h-3c1.623 4.352 3.252 8.696 5 13l2-1c2.884-.072 5.742-.093 8.625-.062l2.43.013q2.972.02 5.945.049l-2 5 7 3v2h-4l1.313 1.46c.556.633 1.113 1.264 1.687 1.915l1.688 1.898C243 135 243 135 243 137l-5 2v2h17v1l7 1v2l8 1 1 3a106 106 0 0 0 7.375 3.75c7.791 3.749 15.157 7.856 22.063 13.102 12.437 9.367 25.955 10.687 40.998 8.85 34.043-5.023 67.383-22.143 97.276-38.442 9.487-5.124 18.171-8.527 29.058-5.487 3.174 1.252 6.181 2.694 9.23 4.227l2.026.993C498.577 145.617 516.952 157.439 534 171l1.647 1.296C550.834 184.342 564.601 198.326 576 214l1.938 2.594c25.108 34.525 32.702 75.385 26.626 117.303-2.276 13.998-5.468 27.687-9.11 41.384-2.017 7.742-2.658 15.063-2.704 23.031l-.062 2.686c-.065 11.016 3.088 19.653 10.312 28.002 7.347 6.856 14.71 9.66 24.773 9.418 6.307-.817 10.385-3.99 15.29-7.793 2.49-3.374 2.339-5.528 1.937-9.625l4 1 2-4h2l2 3c2.207.364 2.207.364 4.625.188l2.477-.083L664 421c3.614 7.122 6.519 13.96 4.492 22.02-3.66 9.007-13.014 13.518-21.43 17.293-12.338 4.911-28.113 9.442-41.125 4.062-2.03-1.121-2.03-1.121-3.937-2.375l-2.031-1.285c-13.498-9.32-21.096-23.79-24.305-39.586-3.735-21.5 2.085-45.113 6.004-66.309 5.624-30.657 12.028-73.524-6.668-100.82-4.224-5.274-8.647-9.87-14-14l-.715 2.027c-1.62 3.747-3.674 7.088-5.847 10.536l-1.348 2.145c-4.04 6.354-8.51 12.32-13.09 18.292-16.55 20.878-16.55 20.878-23.965 45.3 1.277 4.895 3.703 7.549 7.09 11.2l1.688 1.895c3.405 3.79 6.952 7.419 10.592 10.983 1.658 1.686 3.194 3.441 4.72 5.247 3.848 4.479 8.038 8.593 12.256 12.72 2.44 2.401 4.673 4.725 6.78 7.436 1.837 2.217 2.932 3.06 5.589 4.031L568 373v2l-3 1 2 1.875c2 2.125 2 2.125 2 4.125h-4l-.262 2.516c-2.139 18.76-5.163 37.4-10.676 55.484l-.943 3.123c-3.214 10.066-7.404 22.99-16.994 28.69-11.166 5.291-27.485 3.013-39.125.187l-2.66-.437c-5.426-.895-9.073-2.043-13.34-5.563-2.713-4.07-2.64-7.22-2-12 1.547-4.482 3.016-7.344 7-10 9.178-1.69 15.998-.75 24.336 3.07 3.155 1.101 5.957 1.312 9.289 1.493 3.413.19 6.127.354 9.375 1.437l2-4 1.375 1.5c1.501 1.726 1.501 1.726 3.625 1.5 8.124-14.83 10.161-28.702 10.313-45.375l.087-3.21c.063-7.915-.637-15.969-5.953-22.25-1.74-1.55-3.513-2.867-5.447-4.165l-1.798-1.271a237 237 0 0 0-5.89-3.916 3438 3438 0 0 1-4.69-3.09l-2.642-1.742c-6.065-4.032-12.082-8.137-18.105-12.231l-3.83-2.602L489 343c.899 3.38 1.822 6.753 2.75 10.125l.766 2.883c2.168 7.805 5.332 12.736 10.484 18.992l-5 1 2 5-5-1 .625 2.938c.012 3.025-.542 3.967-2.57 6.285-2.626 2.34-5.313 4.573-8.055 6.777a482 482 0 0 0-4.187 3.625l-1.731 1.477c-5.535 5.047-10.48 10.326-14.957 16.336l-1.553 2.078c-4.825 6.598-8.853 13.522-12.64 20.755-.824 1.53-1.723 3.018-2.631 4.499-3.622 6.141-3.25 10.377-2.395 17.363C445 465 445 465 443 468.188c-6.615 3.996-13.24 4.191-20.79 4.402l-3.094.094q-3.225.093-6.45.169a832 832 0 0 0-9.861.329q-3.141.082-6.282.158l-2.97.125c-4.68.071-6.813.093-10.648-2.799-3.103-4.344-3.468-8.454-2.905-13.666 1.385-3.496 2.805-6.87 6-9q3-.063 6 0l3-2c2.5.375 2.5.375 5 1h3q2.003.154 4 .375c.68.07 1.361.14 2.063.21C411 448 411 448 414 450c1.99.39 3.99.732 6 1l-1-5h3v-3l5 2v2h2l.68-2.48c1.634-4.356 3.918-7.945 6.445-11.832l1.571-2.454c1.762-2.749 3.533-5.491 5.304-8.234q3.114-4.837 6.22-9.678 2.038-3.175 4.083-6.34A907 907 0 0 0 459 397l2.008-3.185 1.922-3.147 1.73-2.808c2.44-5.209 2.463-10.288 1.34-15.86-4.44-10.594-18.28-18.31-27.434-24.512-7.07-4.86-13.786-10.234-20.566-15.488-.947-.73-1.895-1.46-2.871-2.21a578 578 0 0 1-4.34-3.384 160 160 0 0 0-3.516-2.687c-4.555-3.5-7.01-7.353-9.023-12.719-.79-6.325.195-11.71 1.875-17.75l.665-2.46c2.474-9.01 5.315-17.907 8.21-26.79l-2.133 1.688a147 147 0 0 1-20.64 13.39c-5.579 3.323-9.517 6.536-12.352 12.547l-1.5 3.168c-1.294 3.018-2.425 6.043-3.5 9.144-1.806 5.165-3.786 8.523-8.25 11.813-2.893 1.378-5.454 1.881-8.625 2.25l1 2-14 2v2l-7 1v1q-2.156.039-4.312.063l-2.426.035C323 326 323 326 320 325l1.5 2.75C323 331 323 331 323 335h-5l1.563 2.313L321 340l-1 3v5h-2l.375 2.188c-.481 3.608-1.976 4.157-4.73 6.292-10.114 9.345-12.132 29.937-15.04 42.867-1.656 7.196-3.78 14.244-5.885 21.319-2.471 8.354-4.71 16.756-6.854 25.2l-.702 2.751-.61 2.425C284 453 284 453 283 455c-.15 4.985-.15 4.985-.166 9.97-.088 2.872-.247 5.285-2.065 7.593-7.735 6.715-17.091 6.7-26.832 6.75l-2.792.016c-5.468-.057-10.479-.695-15.812-1.877-4.596-.89-9.246-.752-13.915-.815-4.263-.794-5.711-2.33-8.418-5.637-2.24-4.48-1.745-10.736-.21-15.398 1.629-3.347 3.291-6.226 6.21-8.602 1.973-.441 1.973-.441 4.063-.562 3.939-.023 3.939-.023 5.937-2.438 4.098-.559 5.769-.137 9.375 2l2.625 2 1-1c4.667-.838 7.128.532 10.938 3 4.393 2.832 6.904 3.673 12.062 3 3.415-6.606 4.161-13.375 5.125-20.687l.512-3.647c1.875-13.663 2.574-27.08 2.603-40.856.01-2.804.041-5.608.072-8.412.1-16.881-1.976-29.932-14-42.586-4.951-4.77-10.364-8.397-16.312-11.812l.656 1.95c3.245 10.53 4.15 21.806-.656 32.05-1.543 1.773-1.543 1.773-3 3h-1l-1 4-3-2v5l-3-2-1 3-3.043.297c-26.9 2.842-47.177 15.8-64.785 35.777-2.617 3.28-2.617 3.28-2.91 7.317.742 2.623 1.691 4.995 2.8 7.484 1.717 4.276 2.815 7.477 1.938 12.125-2.209 3.363-4.869 6.147-8.078 8.566-2.992 3.79-3.22 7.99-3.922 12.684-1.221 8.039-2.451 15.455-8.625 21.188-3.852 2.534-6.799 3.409-11.375 2.562-8.53-3.461-15.289-8.418-19-17-.686-5.878.064-9.179 3.43-14.035 2.589-3.24 5.334-6.357 8.57-8.965h2l.83-2.67c1.081-3.078 2.331-5.747 3.893-8.603l1.617-2.975 1.722-3.127 1.78-3.244q1.767-3.219 3.54-6.435a622 622 0 0 0 4.055-7.516c11.938-22.247 28.751-40.718 49.094-55.582 2.483-1.767 2.483-1.767 4.469-3.848 0-6.808-3.376-11.439-7-17l-3.562-5.625L185 316c-8.435-13.281-16.31-27.578-17.203-43.652-.236-3.75-.499-6.817-1.797-10.348-3.016-2.31-5.787-3.587-9.348-4.887L154 256c-1.19-3.57-1.184-6.846-1.187-10.562l-.038-2.077c-.005-1.788.103-3.576.225-5.361l2-2 .734 1.758c5.252 12.24 13.057 20.35 24.016 27.742l1.933 1.313c3.458 2.26 6.268 3.519 10.317 4.187l.06-2.152c.096-3.262.205-6.524.315-9.786l.094-3.384c.228-6.499.947-12.375 2.531-18.678.255-2.835.255-2.835 0-5l-1-1a64 64 0 0 1-.125-4.437l-.008-2.434C194 222 194 222 195 220c.555-6.956-2.434-11.26-6-17l-1.605-2.71c-3.018-4.547-3.018-4.547-7.711-7.02-8.144-.472-15.174 3.502-21.309 8.542L156 204l-2-8q2.342-1.19 4.688-2.375l2.636-1.336c2.524-1.216 5.063-2.282 7.676-3.289l1-10c-5.585.199-5.585.199-10 3l6 4-2 1-1.875-1c-2.027-1.163-2.027-1.163-4.062-.875-3.432 1.456-6.378 3.506-8.063 6.875-2.562.625-2.562.625-5 1l1 5-1.145-1.473c-2.535-2.087-4.291-1.894-7.542-1.964-7.1-.413-11.511-2.695-17.313-6.563l-.812 1.875C118 192 118 192 115 194c-2.187-.375-2.187-.375-4-1l2.875-1.75c3.562-2.487 3.562-2.487 5.125-6.25.078-2.332.09-4.668 0-7l-2.344-1.066c-6.793-3.22-12.318-6.628-17.656-11.934l-1.75.938c-2.093.988-3.995 1.579-6.25 2.062l-1.687-2.23C84.667 159.829 80.686 155.525 74 152l.973-1.84c1.146-2.158 1.146-2.158 1.465-4.722.629-2.728 1.438-3.683 3.562-5.438l-3-2c5.694-3.678 7.52-4.065 15-5l6-16h-3v-2l-4 1v-5l-2-.562c-4.236-2.03-8.118-4.69-11-8.438-1.08-9.242 4.034-20.354 9-28 3.318-3.962 6.087-6.747 11.313-7.437 6.808 2.654 12.401 7.265 17.71 12.226 5.256 5.152 5.256 5.152 11.957 7.621 2.467-.254 4.664-.649 7.02-1.41v-2l4 1v-3h3v2l1.504-.84c4.59-2.447 8.312-3.728 13.496-4.16v4l3.84-.035 5.097-.028 2.518-.025c4.241-.016 8.199.164 12.385.87 3.36.41 3.839.441 6.762-1.59l2.023-2.63 2.246-2.785L194 73c8.303-10.034 13.724-14.446 26.723-9.617" fill="#F7B321"/><path d="M539 193c5.415.27 8.134 2.39 12.07 5.82 1.879 1.43 1.879 1.43 4.172.86L557 199c2 3 2 3 2.563 6.438 1.244 5.347 4.61 8.988 7.937 13.238 13.128 17.067 23.875 38.936 26.5 60.324l3 1q.074 8.346.11 16.693.015 2.829.04 5.658c.133 14.58.175 28.853-5.15 42.649h-4l-5 30 3 2c-.24 6.123-.24 6.123-2.367 8.578C579.523 389 579.523 389 578 389c-.23-7.535.37-14.521 1.75-21.922q.55-3.125 1.096-6.252l.575-3.256c3.563-20.426 5.997-39.823 4.579-60.57l-.183-2.904c-1.358-19.743-5.204-35.84-19.817-50.096a204 204 0 0 0-5-4l-.715 2.027c-1.62 3.747-3.674 7.088-5.847 10.536l-1.348 2.145c-4.04 6.354-8.51 12.32-13.09 18.292-16.55 20.878-16.55 20.878-23.965 45.3 1.277 4.895 3.703 7.549 7.09 11.2l1.688 1.895c3.405 3.79 6.952 7.419 10.592 10.983 1.658 1.686 3.194 3.441 4.72 5.247 3.848 4.479 8.038 8.593 12.256 12.72 2.44 2.401 4.673 4.725 6.78 7.436 1.837 2.217 2.932 3.06 5.589 4.031L568 373v2l-3 1 2 1.875c2 2.125 2 2.125 2 4.125h-4l-.262 2.516c-2.139 18.76-5.163 37.4-10.676 55.484l-.943 3.123c-3.214 10.066-7.404 22.99-16.994 28.69-11.166 5.291-27.485 3.013-39.125.187l-2.66-.437c-5.426-.895-9.073-2.043-13.34-5.563-2.713-4.07-2.64-7.22-2-12 1.547-4.482 3.016-7.344 7-10 9.178-1.69 15.998-.75 24.336 3.07 3.155 1.101 5.957 1.312 9.289 1.493 3.413.19 6.127.354 9.375 1.437l2-4 1.375 1.5c1.501 1.726 1.501 1.726 3.625 1.5 8.124-14.83 10.161-28.702 10.313-45.375l.087-3.21c.063-7.915-.637-15.969-5.953-22.25-1.74-1.55-3.513-2.867-5.447-4.165l-1.798-1.271a237 237 0 0 0-5.89-3.916 3438 3438 0 0 1-4.69-3.09l-2.642-1.742c-6.065-4.032-12.082-8.137-18.105-12.231l-3.83-2.602L489 343c.899 3.38 1.822 6.753 2.75 10.125l.766 2.883c2.168 7.805 5.332 12.736 10.484 18.992l-5 1 2 5-5-1 .625 2.938c.012 3.025-.542 3.967-2.57 6.285-2.626 2.34-5.313 4.573-8.055 6.777a482 482 0 0 0-4.187 3.625l-1.731 1.477c-5.535 5.047-10.48 10.326-14.957 16.336l-1.553 2.078c-4.825 6.598-8.853 13.522-12.64 20.755-.824 1.53-1.723 3.018-2.631 4.499-3.622 6.141-3.25 10.377-2.395 17.363C445 465 445 465 443 468.188c-6.615 3.996-13.24 4.191-20.79 4.402l-3.094.094q-3.225.093-6.45.169a832 832 0 0 0-9.861.329q-3.141.082-6.282.158l-2.97.125c-4.68.071-6.813.093-10.648-2.799-3.103-4.344-3.468-8.454-2.905-13.666 1.385-3.496 2.805-6.87 6-9q3-.063 6 0l3-2c2.5.375 2.5.375 5 1h3q2.003.154 4 .375c.68.07 1.361.14 2.063.21C411 448 411 448 414 450c1.99.39 3.99.732 6 1l-1-5h3v-3l5 2v2h2l.68-2.48c1.634-4.356 3.918-7.945 6.445-11.832l1.571-2.454c1.762-2.749 3.533-5.491 5.304-8.234q3.114-4.837 6.22-9.678 2.038-3.175 4.083-6.34A907 907 0 0 0 459 397l2.008-3.185 1.922-3.147 1.73-2.808c2.44-5.209 2.463-10.288 1.34-15.86-4.44-10.594-18.28-18.31-27.434-24.512-7.07-4.86-13.786-10.234-20.566-15.488-.947-.73-1.895-1.46-2.871-2.21a578 578 0 0 1-4.34-3.384 160 160 0 0 0-3.516-2.687c-4.555-3.5-7.01-7.353-9.023-12.719-.79-6.325.195-11.71 1.875-17.75l.665-2.46c2.474-9.01 5.315-17.907 8.21-26.79l-2.133 1.688a147 147 0 0 1-20.64 13.39c-5.579 3.323-9.517 6.536-12.352 12.547l-1.5 3.168c-1.294 3.018-2.425 6.043-3.5 9.144-1.806 5.165-3.786 8.523-8.25 11.813-2.893 1.378-5.454 1.881-8.625 2.25l1 2-14 2v2l-7 1v1q-2.156.039-4.312.063l-2.426.035C323 326 323 326 320 325l1.5 2.75C323 331 323 331 323 335h-5l1.563 2.313L321 340l-1 3v5h-2l.375 2.188c-.481 3.608-1.976 4.157-4.73 6.292-10.114 9.345-12.132 29.937-15.04 42.867-1.656 7.196-3.78 14.244-5.885 21.319-2.471 8.354-4.71 16.756-6.854 25.2l-.702 2.751-.61 2.425C284 453 284 453 283 455c-.15 4.985-.15 4.985-.166 9.97-.088 2.872-.247 5.285-2.065 7.593-7.735 6.715-17.091 6.7-26.832 6.75l-2.792.016c-5.468-.057-10.479-.695-15.812-1.877-4.596-.89-9.246-.752-13.915-.815-4.263-.794-5.711-2.33-8.418-5.637-2.24-4.48-1.745-10.736-.21-15.398 1.629-3.347 3.291-6.226 6.21-8.602 1.973-.441 1.973-.441 4.063-.562 3.939-.023 3.939-.023 5.937-2.438 4.098-.559 5.769-.137 9.375 2l2.625 2 1-1c4.667-.838 7.128.532 10.938 3 4.393 2.832 6.904 3.673 12.062 3 3.415-6.606 4.161-13.375 5.125-20.687l.512-3.647c1.875-13.663 2.574-27.08 2.603-40.856.01-2.804.041-5.608.072-8.412.1-16.881-1.976-29.932-14-42.586-4.951-4.77-10.364-8.397-16.312-11.812l.656 1.95c3.245 10.53 4.15 21.806-.656 32.05-1.543 1.773-1.543 1.773-3 3h-1l-1 4-3-2v5l-3-2-1 3-3.043.297c-26.9 2.842-47.177 15.8-64.785 35.777-2.617 3.28-2.617 3.28-2.91 7.317.742 2.623 1.691 4.995 2.8 7.484 1.717 4.276 2.815 7.477 1.938 12.125-2.209 3.363-4.869 6.147-8.078 8.566-2.992 3.79-3.22 7.99-3.922 12.684-1.221 8.039-2.451 15.455-8.625 21.188-3.852 2.534-6.799 3.409-11.375 2.562-8.53-3.461-15.289-8.418-19-17-.686-5.878.064-9.179 3.43-14.035 2.589-3.24 5.334-6.357 8.57-8.965h2l.83-2.67c1.081-3.078 2.331-5.747 3.893-8.603l1.617-2.975 1.722-3.127 1.78-3.244q1.767-3.219 3.54-6.435a622 622 0 0 0 4.055-7.516c11.938-22.247 28.751-40.718 49.094-55.582 2.483-1.767 2.483-1.767 4.469-3.848 0-6.808-3.376-11.439-7-17l-3.562-5.625L185 316c-8.435-13.281-16.31-27.578-17.203-43.652-.236-3.75-.499-6.817-1.797-10.348-3.016-2.31-5.787-3.587-9.348-4.887L154 256c-1.19-3.57-1.184-6.846-1.187-10.562l-.038-2.077c-.005-1.788.103-3.576.225-5.361l2-2 .734 1.758c5.252 12.24 13.057 20.35 24.016 27.742l1.933 1.313c3.458 2.26 6.268 3.519 10.317 4.187l.06-2.152c.096-3.262.205-6.524.315-9.786l.094-3.384c.228-6.499.947-12.375 2.531-18.678.255-2.835.255-2.835 0-5l-1-1c-.168-1.926-.168-1.926-.187-4.312l-.043-2.364c.25-2.527.966-4.141 2.23-6.324 3.392.593 5.21 1.767 7.75 4.063l1.86 1.66L207 225c-1.444 3.65-2.962 7.264-4.5 10.875-4.528 10.992-6.658 21.354-2.55 32.876 1.803 3.861 4.476 6.781 7.363 9.874l3.363 3.727 1.658 1.81c2.62 2.891 5.14 5.864 7.666 8.838l3-5c1.938.375 1.938.375 4 1 1.373 2.746 1.124 4.959 1 8l-1 3c8.98 9.186 17.884 18.066 28 26 22.765 18.565 22.765 18.565 25 29l.51 1.781c5.253 23.8-1.538 52.334-5.078 76.022-.462 3.418-.53 6.688-.495 10.135l.028 3.464L275 449c3.294-2.64 4.326-6.005 5.625-9.875l.754-2.196c5.589-16.515 10.896-33.157 14.938-50.123 1.852-7.724 4.207-15.262 6.683-22.806h-3l1-6h3l1 2 2.313-2.875c1.842-2.291 3.155-3.437 5.687-5.125-1.112-3.335-2.474-4.637-5-7h6l-1.75-3.36-2.25-4.39-1.156-2.21-1.094-2.15-1.016-1.967C306 329 306 329 306 325c3.95 1.167 6.784 2.448 10 5-2.007-5.17-4.1-10.249-6.5-15.25-2.93-6.383-4.801-12.948-6.5-19.75l-.691-2.738c-1.812-8.35-1.488-16.768-1.309-25.262 2.986 2.986 2.746 6.596 3.25 10.625 1.746 12.272 5.195 28.74 15.543 36.766 5.88 3.56 10.538 3.72 17.207 3.609l-1-5 3.105.105q2.042.043 4.082.082l2.042.077c4.495.065 7.213-.5 10.771-3.264 4.021-4.197 6.86-9.408 9.813-14.375 7.376-12.05 17.119-20.138 28.187-28.625l-2-2c.337-3.37 1.888-5.43 4-8l5 1 1 3a913 913 0 0 0 6.668-5.21C411 254 411 254 414 252.124c2.697-2.866 2.6-5.164 2.664-9.004.427-2.696 1.308-3.344 3.336-5.121a172 172 0 0 1 7.625-3.937l2.18-1.067a976 976 0 0 1 4.273-2.07c1.594-.768 3.18-1.55 4.766-2.336 4.145-1.98 7.462-3.372 12.156-2.59 1.875 1.25 1.875 1.25 3 3v4l4-1v16l-3 1c-2.399 4.327-2.399 4.327-2.75 9.125L453 260c1.316 4.385 1.316 4.385-.187 7.313C451 269 451 269 447 269l-1-4c-2.657 9.33-.877 18.274 3 27 1.537 2.273 1.537 2.273 3 4l4-1c2.354 2.55 2.983 3.71 3.188 7.25L459 305l1.77.844c2.104 1.09 3.967 2.315 5.918 3.656 4.241 2.708 8.38 3.735 13.312 4.5l2-5h4v4c1.774-.93 3.544-1.87 5.313-2.812l2.988-1.583c2.316-1.377 3.935-2.6 5.699-4.605l-1-1a100 100 0 0 1 0-5l4-2 1 5c5.502-5.239 10.298-10.66 14.75-16.812l1.805-2.478C541.926 252.637 541.926 252.637 547 218c-1.566-5.23-3.7-9.982-6.656-14.57-2.02-3.654-1.553-6.317-1.344-10.43" fill="#B45104"/><path d="M539 193c5.415.27 8.134 2.39 12.07 5.82 1.879 1.43 1.879 1.43 4.172.86L557 199c2 3 2 3 2.563 6.438 1.244 5.347 4.61 8.988 7.937 13.238 13.128 17.067 23.875 38.936 26.5 60.324l3 1q.074 8.346.11 16.693.015 2.829.04 5.658c.133 14.58.175 28.853-5.15 42.649h-4l-5 30 3 2c-.24 6.123-.24 6.123-2.367 8.578C579.523 389 579.523 389 578 389c-.23-7.535.37-14.521 1.75-21.922q.55-3.125 1.096-6.252l.575-3.256c3.563-20.426 5.997-39.823 4.579-60.57l-.183-2.904c-1.358-19.743-5.204-35.84-19.817-50.096a204 204 0 0 0-5-4l-.715 2.027c-1.62 3.747-3.674 7.088-5.847 10.536l-1.348 2.145c-4.04 6.354-8.51 12.32-13.09 18.292-16.55 20.878-16.55 20.878-23.965 45.3 1.277 4.895 3.703 7.549 7.09 11.2l1.688 1.895c3.405 3.79 6.952 7.419 10.592 10.983 1.658 1.686 3.194 3.441 4.72 5.247 3.848 4.479 8.038 8.593 12.256 12.72 2.44 2.401 4.673 4.725 6.78 7.436 1.837 2.217 2.932 3.06 5.589 4.031L568 373v2l-3 1 2 1.875c2 2.125 2 2.125 2 4.125h-4l-.262 2.516c-2.139 18.76-5.163 37.4-10.676 55.484l-.943 3.123c-3.214 10.066-7.404 22.99-16.994 28.69-11.166 5.291-27.485 3.013-39.125.187l-2.66-.437c-5.426-.895-9.073-2.043-13.34-5.563-2.713-4.07-2.64-7.22-2-12 1.547-4.482 3.016-7.344 7-10 9.178-1.69 15.998-.75 24.336 3.07 3.155 1.101 5.957 1.312 9.289 1.493 3.413.19 6.127.354 9.375 1.437l2-4 1.375 1.5c1.501 1.726 1.501 1.726 3.625 1.5 5.875-10.724 8.986-20.835 10-33l2 3q1.045-5.947 2.081-11.896.352-2.017.707-4.035c1.292-7.344 2.503-14.644 3.212-22.069l4 1-2-7h-2l-1-4-3.07-.332-4.055-.48-2.016-.213c-4.5-.552-7.927-1.74-11.859-3.975v-2l-3 1c-1.935-.918-1.935-.918-4.148-2.402l-2.515-1.675-2.712-1.86c-.93-.63-1.86-1.26-2.82-1.908-9.367-6.41-18.358-13.288-27.325-20.242-3.902-3.01-7.845-5.963-11.793-8.913l-2.067-1.547L471 323l1-4h-3l-1 2q-5.655-4.325-11.29-8.68a1873 1873 0 0 0-4.483-3.449c-18.27-14.264-18.27-14.264-19.532-24.293-.623-12.68 5.28-24.347 10.219-35.712 2.289-5.383 3.682-10.02 4.086-15.866-5.002-.379-7.694.572-11.937 3.188l-3.137 1.921A172 172 0 0 0 422 245v-6l-2-1q7.983-4.034 16-8l2.855-1.422C443 226.61 446.311 225.218 451 226c1.875 1.25 1.875 1.25 3 3v4l4-1v16l-3 1c-2.399 4.327-2.399 4.327-2.75 9.125L453 260c1.316 4.385 1.316 4.385-.187 7.313C451 269 451 269 447 269l-1-4c-2.657 9.33-.877 18.274 3 27 1.537 2.273 1.537 2.273 3 4l4-1c2.354 2.55 2.983 3.71 3.188 7.25L459 305l1.77.844c2.104 1.09 3.967 2.315 5.918 3.656 4.241 2.708 8.38 3.735 13.312 4.5l2-5h4v4c1.774-.93 3.544-1.87 5.313-2.812l2.988-1.583c2.316-1.377 3.935-2.6 5.699-4.605l-1-1a100 100 0 0 1 0-5l4-2 1 5c5.502-5.239 10.298-10.66 14.75-16.812l1.805-2.478C541.926 252.637 541.926 252.637 547 218c-1.566-5.23-3.7-9.982-6.656-14.57-2.02-3.654-1.553-6.317-1.344-10.43" fill="#DD8A11"/><path d="M98.313 66.563c6.808 2.654 12.401 7.265 17.71 12.226 5.256 5.152 5.256 5.152 11.957 7.621 2.467-.254 4.664-.649 7.02-1.41v-2l4 1v-3h3v2l1.504-.84c4.59-2.447 8.312-3.728 13.496-4.16v4h19l-4 2c-.812 2.555-.812 2.555-1 5 1.985-.267 1.985-.267 4-1l1-3c7.199 2.37 12.58 4.58 18 10l1-1a100 100 0 0 1 5 0v5h4l-1 8 4 2-2 2v3h2l2-2c8.328 14.276 8.328 14.276 9 21h8l1 2-3.055 1.555c-4.412 2.52-7.617 5.89-11.07 9.57-6.787 7.229-6.787 7.229-11.875 8.875l-.875 1.875c-1.761 3.327-4.761 4.727-8.125 6.125-2.326.381-4.66.725-7 1l-2 2c-4.738.733-8.842.545-13.187-1.5-5.794-5.15-11.067-10.176-12.184-18.148-.167-6.862.792-10.2 5.371-15.352l9 1-3.937-1.437c-2.215-1.075-2.215-1.075-4.063-2.563-1.003-3.018-1.108-5.837-1-9l-4 1-1 7-3.114-.016q-5.805-.026-11.608-.039-2.496-.008-4.992-.02c-9.482-.049-18.845.035-28.286 1.075l-1-6h-2l-2 8 2.41-.437c9.906-1.526 19.713-1.761 29.715-1.75l2.083-.003c12.542.002 12.542.002 18.792 1.19v2l-10 2c-.973 4.867-.763 7.92-.059 12.695C148 148 148 148 146 151c-5.875-.875-5.875-.875-7-2-6.446-1.293-12.887-1.113-19.437-1.062l-3.374.013q-4.095.018-8.189.049.424-2.125.867-4.246l.488-2.389c.968-3.55 2.671-6.272 4.645-9.365l-8 1 .777 2.02c.333 4.455-1.865 7.006-4.215 10.667-3.465 5.689-5.351 9.574-4.628 16.38C98 164 98 164 96.25 166.686 94 168 94 168 92.094 167.88c-2.93-1.23-4.006-3.061-5.844-5.629-3.641-4.777-6.98-7.427-12.25-10.25l.973-1.84c1.146-2.158 1.146-2.158 1.465-4.722.629-2.728 1.438-3.683 3.562-5.438l-3-2c5.694-3.678 7.52-4.065 15-5l6-16h-3v-2l-4 1v-5l-2-.562c-4.236-2.03-8.118-4.69-11-8.438-1.08-9.242 4.034-20.354 9-28 3.318-3.962 6.087-6.747 11.313-7.437" fill="#F5B223"/><path d="M220.723 63.383c9.626 3.966 9.626 3.966 11.277 5.617 1.253 22.318 1.253 22.318-4.562 29.938-3.485 3.57-7.7 5.609-12.438 7.062h-3c1.623 4.352 3.252 8.696 5 13l2-1c2.884-.072 5.742-.093 8.625-.062l2.43.013q2.972.02 5.945.049l-2 5 7 3v2h-4l1.313 1.46c.556.633 1.113 1.264 1.687 1.915l1.688 1.898C243 135 243 135 243 137l-5 2v2l5 1c-1.053 2.268-2.035 4.04-3.687 5.938-1.607 2.046-1.607 2.046-1 4.812L239 155c-1.875 1.063-1.875 1.063-4 2l-2-1-.707 2.473c-4.167 11.367-11.367 23.933-22.23 29.84-7.718 3.444-14.65 3.965-23.063 3.687v2h-3v-2c-12.297 1.925-12.297 1.925-23 8l-3 2.313-2 1.687-2-8q2.342-1.19 4.688-2.375l2.636-1.336c2.524-1.216 5.063-2.282 7.676-3.289l1-10c-5.585.199-5.585.199-10 3l6 4-2 1-1.875-1c-2.027-1.163-2.027-1.163-4.062-.875-3.432 1.456-6.378 3.506-8.063 6.875-2.562.625-2.562.625-5 1l1 5-1.145-1.473c-2.535-2.087-4.291-1.894-7.542-1.964-7.1-.413-11.511-2.695-17.313-6.563l-.812 1.875C118 192 118 192 115 194c-2.187-.375-2.187-.375-4-1l2.875-1.75c3.562-2.487 3.562-2.487 5.125-6.25.078-2.332.09-4.668 0-7l-2.309-1.031C109.67 173.673 102.966 170.122 98 164c-1.592-4.591-1.211-9.384.836-13.806a122 122 0 0 1 3.227-5.381c3.155-4.978 3.155-4.978 3.937-10.813l-2-2h10c-1 4-1 4-2.437 6.313-1.822 3.132-2.671 6.188-3.563 9.687l1.914-.492c4.17-.686 8.243-.653 12.461-.633l2.5-.012c6.382.01 12.393.066 18.125 3.137h3c1.526-3.053.838-5.758.563-9.125l-.31-3.883L146 134c4.264-2.806 6.87-3.302 12-3v-2q-7.711-.037-15.424-.055-2.62-.008-5.24-.02c-2.52-.013-5.039-.018-7.559-.023l-2.343-.015c-4.573 0-8.905.387-13.434 1.113-1.645.06-3.292.088-4.937.063l-2.34-.028L105 130c-.25-5.625-.25-5.625 2-9l3 1v6l2.104-.43c8.294-1.557 16.285-1.84 24.709-1.757l3.85.001c5.894.028 11.504.261 17.337 1.186l-.125-3.375C158 120 158 120 160 118c2.125.375 2.125.375 4 1l-.062 1.828c.067 2.602.24 4.696 1.062 7.172 2.452 1.975 5.02 3.03 8 4-3.283 1.642-6.425.519-10 0-3.987 4.61-4.638 8.194-4.375 14.258 1.025 7.495 4.882 11.683 10.57 16.394 3.01 2.248 4.964 2.532 8.68 2.598l2.617.078c2.989-.39 4.19-1.473 6.508-3.328q3.499-.509 7-1c3.73-1.714 3.73-1.714 5.938-5 1.062-2 1.062-2 3.722-3.223 4.072-2.167 6.706-4.884 9.84-8.214 3.917-4.136 7.63-7.578 12.5-10.563h-9l-.277-3.035c-.609-4.259-2.275-7.64-4.286-11.403l-.998-1.927A538 538 0 0 0 209 113l-4 2c-.625-1.875-.625-1.875-1-4l2-2-3-2 1-8h-4v-5l-7 2-2-2.25c-3.978-3.989-9.414-6.845-15-7.75-1.646 1.396-1.646 1.396-3 3h-2l1-5-2-1 2.965.352c7.788.686 7.788.686 14.789-2.297 2.272-2.584 4.275-5.236 6.246-8.055 8.246-10.073 13.769-14.43 26.723-9.617" fill="#DD8B13"/><path d="M224 197h4c1.333 5.333 1.333 5.333-.187 8.375C226 207 226 207 222 207l-.344 2.566c-.928 4.86-2.743 9.286-4.5 13.899-1.166 3.566-1.899 6.791-2.156 10.535l2 2c.125 3.125.125 3.125 0 6l-5 2c.289 13.09 4.877 23.847 13 34l1.734 2.23c9.6 11.59 22.748 19.705 35.389 27.583a182 182 0 0 1 4.861 3.21c4.79 3.169 8.315 4.639 14.106 4.48 2.473-.652 3.342-1.49 4.91-3.503 4.548-9.145 6.228-19.849 6-30h-3v-4l4 1 1-10-4-2v-6l5-1 .297-1.687c1.116-5.694 2.925-10.22 5.703-15.313h4l1 36h-2l-2-10c-.767 19.78 3.464 37.62 13.117 54.984C316 326 316 326 316 330l-10-5c2.178 6.405 4.54 12.191 8 18v2l-5 1 5 4c-1.506 3.833-3.803 5.504-7 8-1.763 2.126-1.763 2.126-3 4l-2-4-2 6h3c-4.766 22.013-11.056 43.584-18 65l-.92 2.859a594 594 0 0 1-2.392 7.204l-.66 2.018c-1.347 3.844-2.93 6.27-6.028 8.919-1.733-1.733-1.19-3.994-1.215-6.36.07-9.06 1.39-17.932 2.652-26.89q.522-3.795 1.04-7.592.32-2.34.647-4.678c1.417-10.173 2.085-20.07 2.126-30.355l.063-3.934c.042-10.545-.46-20.23-8.102-28.097L270 340l-2.773-2.656c-5.346-5.038-10.887-9.721-16.664-14.258-4.544-3.699-8.814-7.679-13.068-11.701-1.474-1.366-2.994-2.68-4.515-3.994-6.802-6.128-6.802-6.128-7.34-9.946.298-2.445.298-2.445.887-4.632.707-1.894.707-1.894-.527-3.813l-3-1-2 6c-3.683-2.765-6.52-5.643-9.375-9.25-2.725-3.425-5.49-6.7-8.5-9.875-5.736-6.588-6.748-13.76-6.547-22.332 1.115-9.364 4.898-18.334 9.422-26.543l-4-5 2.313-2.25c4.32-4.075 4.32-4.075 5.875-9.5L210 207h2v2a609 609 0 0 0 4.875-3.75l2.742-2.11c2.233-2.006 3.303-3.383 4.383-6.14" fill="#DE8A11"/><path d="M423 271c.11 6.698-.04 13.358-1 20l-1 1a59 59 0 0 0-.062 4.063L421 300l2.297-.262C426 300 426 300 427.64 301.73l1.609 2.457c5.426 7.323 12.762 12.254 20.09 17.551 3.026 2.3 3.61 2.97 4.285 6.887L454 332l2.578-.89c3.822-.123 4.134.08 6.781 2.53a165 165 0 0 1 3.391 3.61l1.746 1.816c6.638 6.98 6.638 6.98 7.129 12.622l.227 2.449L476 356l5-1c3.26 5.508 5.97 10.907 8 17h-3l1.063 1.563c1.347 3.504 1.38 6.027-.063 9.437-6.963 9.321-6.963 9.321-12 11a118 118 0 0 0-2 4 118 118 0 0 1-3.812 4.125c-12.784 13.941-24.993 30.186-28.563 49-1.181 5.747-2.155 9.043-6.625 12.875-6.418 3.547-14.339 3.205-21.5 3.25-1.224.03-1.224.03-2.473.063-5.45.034-9.166-.83-14.027-3.313-.125-6.625-.125-6.625 1-10l-7 13h-2c-.185-9.41-.185-9.41 1-14-2.227 3.34-2.271 4.533-2.25 8.438l-.016 2.87c.274 2.77.683 4.412 2.266 6.692 3.06.816 3.06.816 6 1v1c-7.984.783-7.984.783-12-2.312-3.218-4.325-3.567-8.433-3-13.688 1.385-3.496 2.805-6.87 6-9q3-.063 6 0l3-2c2.5.375 2.5.375 5 1h3q2.003.154 4 .375c.68.07 1.361.14 2.063.21C411 448 411 448 414 450c1.99.39 3.99.732 6 1l-1-5h3v-3l5 2v2h2l.68-2.48c1.634-4.356 3.918-7.945 6.445-11.832l1.571-2.454c1.762-2.749 3.533-5.491 5.304-8.234q3.114-4.837 6.22-9.678 2.038-3.175 4.083-6.34A907 907 0 0 0 459 397l2.008-3.185 1.922-3.147 1.73-2.808c2.44-5.209 2.463-10.288 1.34-15.86-4.44-10.594-18.28-18.31-27.434-24.512-7.07-4.86-13.786-10.234-20.566-15.488-.947-.73-1.895-1.46-2.871-2.21a578 578 0 0 1-4.34-3.384 160 160 0 0 0-3.516-2.687c-4.555-3.5-7.01-7.353-9.023-12.719-.599-4.79-.386-9.315.75-14l1 4h2l1.063-3.625C411.882 271 411.882 271 423 271" fill="#C66303"/><path d="M177 282c5.931.334 9.022 2.1 13.125 6.188l1.512 1.423c8.883 8.5 8.883 8.5 10.3 14.077.733 3.56.733 3.56 4 5L209 310c1.875 2.188 1.875 2.188 3 4h-2l2 11c3.113-.669 3.113-.669 4.188-3.062L217 320c6.87 6.724 14.764 17.961 15.098 27.918l-.036 3.27-.027 3.292L232 357h-3l-2-3-1.312 1.5C224 357 224 357 221 357l-2 5h-2l1-5-13 5-1-2c-3.93.575-3.93.575-7 3l-.562 2.688C193.7 371.996 186.895 375.768 181 379v-7l-3 2c-.417 2.5-.417 2.5 0 5l2 2c-3.516 3.614-7.059 7.087-10.937 10.313-6.092 5.246-12.673 11.618-13.313 19.937.045 3.808.045 3.808 1.75 7.25 1.721 4.016 2.182 6.18 1.5 10.5-2.41 4.169-4.987 7.325-9 10-4.31.622-7.981.477-11.937-1.375C136 436 136 436 134 434c-.125-2.625-.125-2.625 0-5l-2-1c.63-1.125 1.258-2.25 1.906-3.41l2.594-4.652 1.383-2.476c2.12-3.81 4.222-7.624 6.21-11.505C151.297 391.905 160.529 379.781 171 368l1.875-2.133c6.298-6.72 13.974-11.998 21.35-17.46 1.755-1.391 3.332-2.692 4.775-4.407.178-6.899-3.604-11.825-7.25-17.437l-1.738-2.737c-3.248-5.11-3.248-5.11-6.584-10.162l-1.412-2.137-1.257-1.855C180 308 180 308 181 305c-.726-2.313-.726-2.313-1.875-4.75-1.777-4.179-2.733-7.74-3.125-12.25h2z" fill="#C56203"/><path d="M98.313 66.563c6.84 2.666 12.364 7.348 17.816 12.19l1.58 1.384a323 323 0 0 1 4.37 3.957c3.558 2.322 5.752 2.28 9.921 1.906-3.75 3-3.75 3-6 3l.125 2.375C126 94 126 94 124 96c-2.437.125-2.437.125-5 0h-3c-2.15 2.452-2.15 2.452-4.187 5.5-.716 1.02-1.431 2.042-2.168 3.094L108 107h3l2 3-1 3c-2 .043-4 .04-6 0l-1-1c-4.54 8.55-4.54 8.55-6 18l4-1 2-7c1.43 2.862.6 4.934 0 8l2.41-.437c9.906-1.526 19.713-1.761 29.715-1.75l2.083-.003c12.542.002 12.542.002 18.792 1.19v2l-10 2c-.973 4.867-.763 7.92-.059 12.695C148 148 148 148 146 151c-5.875-.875-5.875-.875-7-2-6.446-1.293-12.887-1.113-19.437-1.062l-3.374.013q-4.095.018-8.189.049.424-2.125.867-4.246l.488-2.389c.968-3.55 2.671-6.272 4.645-9.365l-8 1 .777 2.02c.333 4.455-1.865 7.006-4.215 10.667-3.465 5.689-5.351 9.574-4.628 16.38C98 164 98 164 96.25 166.686 94 168 94 168 92.094 167.88c-2.93-1.23-4.006-3.061-5.844-5.629-3.641-4.777-6.98-7.427-12.25-10.25l.973-1.84c1.146-2.158 1.146-2.158 1.465-4.722.629-2.728 1.438-3.683 3.562-5.438l-3-2c5.694-3.678 7.52-4.065 15-5l6-16h-3v-2l-4 1v-5l-2-.562c-4.236-2.03-8.118-4.69-11-8.438-1.08-9.242 4.034-20.354 9-28 3.318-3.962 6.087-6.747 11.313-7.437" fill="#DD8C16"/><path d="M163.98 178.734c2.009.015 4.016.135 6.02.266v10l-3.625 1.813-2.2 1.101q-2.801 1.396-5.613 2.774c-2.432 1.08-2.432 1.08-3.562 2.312l2 6 1.504-1.426c6.407-5.871 12.204-9.467 21.148-9.09 3.467.762 4.808 2.207 6.832 5.051L188 200l2.14 3.371q1.125 1.842 2.235 3.691l1.086 1.786c2.217 3.88 3.017 6.703 2.539 11.152l-1 2a70 70 0 0 0-.125 4.563l-.008 2.44C194.78 231 194.78 231 196 232c-.086 1.89-.086 1.89-.375 4.25l-.273 2.328a68 68 0 0 1-.856 4.733c-.507 2.748-.686 5.346-.777 8.138l-.114 3.069-.21 6.375-.114 3.056-.092 2.792C193 269 193 269 192 271c-5.65-.416-9.299-2.024-13.75-5.375l-1.82-1.341c-8.482-6.407-16.35-13.257-20.43-23.284l-1.75-3.5L153 235h-2c1.029-5.446 2.246-10.118 5-15h-3c.645-3.485 2.101-6.028 4-9l-1.5-1.875C154 207 154 207 154 205c-2.167.833-2.167.833-3 3l-3.187-1.187c-3.717-1.202-3.717-1.202-6.5.5L139 209c-4.04 1.274-8.056 1.11-12.25 1.063l-2.258-.014q-2.745-.02-5.492-.049v-1l3.613-.586 4.7-.789 2.38-.383 2.295-.39c.697-.116 1.393-.23 2.11-.35 2.21-.474 2.21-.474 4.902-2.502v-4l-2.738-1.023-3.575-1.352-3.55-1.336C126 195 126 195 123 193c-3.492.35-6.087 2.139-9 4l-3-3 3.375-1.312c3.8-1.387 3.8-1.387 5.625-4.688 2.685 1.027 5.102 2.062 7.563 3.563 4.312 1.803 8.189 1.938 12.828 2.128C143 194 143 194 145 196v-3l5-1 1-3c2.75-2.75 2.75-2.75 6-5 2.875.188 2.875.188 5 1l-3-2c1.259-2.518 2.096-3.879 4.98-4.266" fill="#FEEDDC"/><path d="M439 243c-.575 4.91-1.617 9.268-3.25 13.93l-1.344 3.91q-1.051 3.025-2.113 6.048c-4.665 12.086-4.665 12.086-4.719 24.757 7.713 15.02 22.82 24.772 36.59 33.728 2.541 1.656 5.073 3.328 7.606 4.999a479 479 0 0 0 5.683 3.64c6.694 4.34 11.46 7.947 13.547 15.988l.634 2.077a237 237 0 0 1 1.678 5.986c1.906 6.617 4.409 11.312 9.688 15.937l-1 2h-4l2 5-5-1 .625 2.938c.012 3.025-.542 3.967-2.57 6.285-2.626 2.34-5.313 4.573-8.055 6.777a482 482 0 0 0-4.187 3.625l-1.731 1.477c-5.535 5.047-10.48 10.326-14.957 16.336l-1.553 2.078c-4.825 6.598-8.853 13.522-12.64 20.755-.824 1.53-1.723 3.018-2.631 4.499-3.622 6.141-3.25 10.377-2.395 17.363C445 465 445 465 443 468.188c-6.503 3.929-12.789 4.14-20.203 4.183-.96.01-1.92.018-2.908.027q-3.025.022-6.051.028c-3.093.012-6.183.06-9.276.111q-2.945.015-5.89.022l-2.803.059c-2.394-.017-4.538-.073-6.869-.618-3.614-4.119-3.492-8.063-3.371-13.328.533-3.842 1.86-5.768 4.371-8.672l1 2-.875 2.563c-1.354 4.138-1.76 8.116-2.125 12.437 3.42-3.013 4.85-6.642 6.719-10.723C396 454 396 454 399 452l-1 2.063c-1.173 3.445-1.142 6.321-1 9.937 5.217 2.124 9.778 2.303 15.313 2.25l2.435.023c7.22-.023 15.476-.516 21.252-5.273 2.404-4.178 3.513-7.894 4.313-12.625 3.48-16.942 14.974-30.292 25.687-43.375l2.215-2.812c3.46-4.355 6.835-8.41 11.098-12 3.302-2.794 5.844-5.181 7.687-9.188.015-3.082-.383-5.984-1-9h3l-1.812-2.5c-2.997-4.474-4.498-9.429-6.188-14.5l-5 2-1-1v-3.937c-.646-6.755-5.387-10.514-10-15.063l-1.496-1.777c-1.265-1.595-1.265-1.595-3.504-3.223-3.2.143-3.2.143-6 1-1-1-1-1-1.254-4.285-.906-4.512-2.048-5.455-5.683-8.152l-3.004-2.301L441 316c-9.93-7.528-9.93-7.528-12.812-12L426 301c-2.67-.502-2.67-.502-5 0-1-1-1-1-1.133-2.812l.008-2.188-.008-2.187C420 292 420 292 421 291c.226-1.484.394-2.978.535-4.473l.264-2.724.264-2.865.275-2.877q.337-3.53.662-7.061c-5.594 1.959-7.994 3.53-11.062 8.813-.33.56-.658 1.121-.997 1.7-3.553 6.235-6.303 12.822-8.941 19.487h-2c-.667-7.934 1.744-14.703 4.188-22.187l1.173-3.811 1.182-3.67 1.063-3.321c2.242-4.843 6.096-7.887 10.171-11.202l2.057-1.674 2.103-1.697 2.092-1.71C434.8 243 434.8 243 439 243" fill="#A03901"/><path d="M576 398h4l-1 10 3 1-.14 2.605c-.272 8.884 1.046 16.079 4.14 24.395 2.048-.674 2.048-.674 4-2 .552-2.093.552-2.093.5-4.437.293-4.335.293-4.335 2.375-6.625C595 422 595 422 598 422c1.29 1.54 1.29 1.54 2.625 3.625 4.306 6.056 10.332 10.048 17.375 12.375 10.6 1.304 16.847-1.004 25.063-7.375 2.49-3.374 2.339-5.528 1.937-9.625l4 1 2-4h2l2 3c2.207.364 2.207.364 4.625.188l2.477-.083L664 421c3.614 7.122 6.519 13.96 4.492 22.02-3.66 9.007-13.014 13.518-21.43 17.293-12.338 4.911-28.113 9.442-41.125 4.062-2.03-1.121-2.03-1.121-3.937-2.375l-2.031-1.285c-13.496-9.317-20.977-23.71-24.32-39.453-1.29-7.325-1.157-14.864-.649-22.262z" fill="#703706"/><path d="m391 261 2 1v3l2 2-2.344 1.941a1529 1529 0 0 0-6.484 5.41 302 302 0 0 1-5.469 4.485c-8.636 7.082-14.184 16.686-19.746 26.219-2.723 4.098-5.214 7.364-9.957 8.945-2.395.07-4.792.084-7.187.063l-3.856-.028L337 314l.563 1.938L338 318c-1 1-1 1-4.437 1.313-6.006-.108-11.645-1.973-16.356-5.75C309.297 305.104 304 290.409 304 279a241 241 0 0 1 4.375.813l2.46.457C313 281 313 281 315 284c2.5.417 2.5.417 5 0l2-2c1.948-.303 1.948-.303 4.332-.379l2.654-.102 2.827-.082q2.859-.106 5.718-.218l2.824-.106c5.226-.224 10.435-.659 15.645-1.113l1 6 4-1v-8a760 760 0 0 1 5.875-2.062l3.305-1.16C373 273 373 273 375 274l.59-1.738c1.98-3.175 4.805-4.632 7.973-6.45 3.942-2.114 3.942-2.114 7.437-4.812" fill="#E3B773"/><path d="M556 422h1c.584 6.924-1.536 12.787-3.687 19.313l-1.03 3.263c-3.268 10.086-6.885 21.243-16.158 27.236-11.166 5.292-27.485 3.014-39.125.188l-2.66-.437c-5.426-.895-9.073-2.043-13.34-5.563-2.713-4.07-2.64-7.22-2-12 1.547-4.482 3.016-7.344 7-10 9.178-1.69 15.998-.75 24.336 3.07 3.155 1.101 5.957 1.312 9.289 1.493 3.413.19 6.127.354 9.375 1.437l2-4 1.375 1.5c1.501 1.726 1.501 1.726 3.625 1.5 4.842-9.174 4.842-9.174 8-19 2 2 2 2 2.195 4.602l-.07 3.023-.055 3.04L546 443c4.257-3.458 5.282-7.102 6.688-12.187 2.222-7.723 2.222-7.723 3.312-8.813" fill="#B55103"/><path d="M539 193c5.415.27 8.134 2.39 12.07 5.82 1.879 1.43 1.879 1.43 4.172.86L557 199c2 3 2 3 2.563 6.438 1.244 5.347 4.61 8.988 7.937 13.238 13.128 17.067 23.875 38.936 26.5 60.324l3 1q.074 8.346.11 16.693.015 2.829.04 5.658c.261 28.826.261 28.826-3.15 35.649l-5-2 .027-2.07q.12-9.75.18-19.5.03-5.01.095-10.02c.049-3.859.071-7.716.089-11.574l.062-3.56c.002-7.561-1.2-13.995-3.525-21.193-1.22-4.05-1.583-7.878-1.928-12.083l-1-3-3 1q-2.19-2.655-4.375-5.312l-2.46-2.989C571 243 571 243 569 240h2c-.55-6.14-.55-6.14-4-11l-2.402-.703c-3.662-1.828-4.276-4.03-5.91-7.734-3.16-6.86-7.01-12.609-11.688-18.563 0 3.303.605 4.489 2.152 7.344l1.354 2.527 1.432 2.629q1.39 2.577 2.777 5.156l1.254 2.307c2.64 5.214 2.675 10.317 2.031 16.037-1.14 3.373-2.986 6.078-5 9l-2.395 3.52a895 895 0 0 1-4.148 6.018c-5.353 7.69-10.407 15.57-15.457 23.462l-1-2h-4l-.148 1.793c-.56 5.91-1.514 10.2-4.852 15.207l-9-1c2.182-3.857 4.697-7.37 7.328-10.925C541.584 253.47 541.584 253.47 547 218c-1.566-5.23-3.7-9.982-6.656-14.57-2.02-3.654-1.553-6.317-1.344-10.43" fill="#DD8A11"/><path d="M545 200c4.067 2.923 6.438 5.837 9 10.125l1.042 1.722c2.548 4.271 4.717 8.65 6.657 13.227 1.719 2.544 3.443 2.958 6.301 3.926 2.767 2.576 2.989 3.782 3.188 7.625L571 240c0 3.07 1.845 4.275 3.875 6.5l2.18 2.406A155 155 0 0 0 581 253h2c2.2 3.3 2.257 5.422 2.585 9.282.463 3.03 1.411 5.633 2.435 8.523 3.103 10.645 2.442 21.515 2.293 32.507q-.018 3.26-.03 6.518a4159 4159 0 0 1-.067 9.191c-.08 5.726-.494 11.297-1.216 16.979l4 2v6l-5 1-5 30 3 2c-.24 6.123-.24 6.123-2.367 8.578C579.523 389 579.523 389 578 389c-.23-7.535.37-14.521 1.75-21.922q.55-3.125 1.096-6.252l.575-3.256c3.563-20.426 5.997-39.823 4.579-60.57l-.183-2.904c-1.358-19.743-5.204-35.84-19.817-50.096a204 204 0 0 0-5-4l-.715 2.027c-1.62 3.747-3.674 7.088-5.847 10.536l-1.348 2.145c-4.04 6.354-8.51 12.32-13.09 18.292-16.55 20.878-16.55 20.878-23.965 45.3 1.277 4.895 3.703 7.549 7.09 11.2l1.688 1.895c3.405 3.79 6.952 7.419 10.592 10.983 1.658 1.686 3.194 3.441 4.72 5.247 3.848 4.479 8.038 8.593 12.256 12.72 2.44 2.401 4.673 4.725 6.78 7.436 1.837 2.217 2.932 3.06 5.589 4.031L568 373v1c-2.57.934-2.57.934-6 1-2.71-1.929-4.734-4.409-6.875-6.937q-1.858-2.094-3.719-4.184l-1.785-2.043c-4.144-4.694-8.62-9.013-13.371-13.086-20.03-17.309-20.03-17.309-25.25-27.75-.07-2.04-.084-4.083-.062-6.125l.027-3.32L511 309l-3-1 1-5c3 1 3 1 4 3q2.475-3.902 4.938-7.812l1.42-2.237 1.357-2.158 1.254-1.984c1.554-2.727 2.034-4.664 1.968-7.809.063-3 .063-3 2.063-6l5 1 .883-1.478c5.15-8.594 10.307-17.034 16.328-25.05 5.069-7.005 9.374-13.284 9.34-22.062-1.032-6.39-4.376-11.827-7.47-17.439a304 304 0 0 1-3.347-6.272l-1.008-1.93C545 203 545 203 545 200" fill="#B65304"/><path d="M447 232c1.488 4.649.277 7.857-1.5 12.188l-.815 2.079A972 972 0 0 1 442 253q-1.446 3.651-2.879 7.308a736 736 0 0 1-1.848 4.663c-3.212 8.132-5.54 17.681-1.898 26.091 6.204 10.547 17.24 17.719 26.965 24.725 1.358.992 2.682 2.03 3.996 3.08 1.645 1.392 1.645 1.392 3.914.82L472 319l.278 2.311c.853 3.175 1.625 3.857 4.273 5.712l2.276 1.632 2.486 1.72a4308 4308 0 0 1 5.23 3.73l2.736 1.94c3.5 2.515 6.924 5.123 10.349 7.738 7.158 5.458 14.398 10.73 21.935 15.654l2.146 1.415c3.834 2.52 3.834 2.52 8.291 3.148l1.25 1.375c4.15 3.853 10.324 3.89 15.734 4.184 2.512.55 3.455 1.43 5.016 3.441v2h2c2 3 2 3 2 7h-3l-7 43h-1l-.028-2.947c-.04-3.659-.107-7.317-.18-10.975q-.041-2.361-.063-4.722c.322-14.971.322-14.971-6.156-27.793-4.26-3.77-8.882-6.92-13.643-10.016l-4.798-3.162-2.535-1.668c-4.467-2.953-8.902-5.953-13.34-8.951l-2.76-1.863-8.372-5.653-11.18-7.547-2.671-1.803a2686 2686 0 0 0-14.157-9.49c-36.96-24.598-36.96-24.598-41.117-39.41.222-9.061 3.606-17.348 6.563-25.812q1.174-3.376 2.333-6.757.717-2.092 1.453-4.177C437.49 248.93 438 246.57 438 243h-12c5.21-5.906 12.682-12.313 21-11" fill="#B34F02"/><path d="M231.75 443.625c3.989.46 6.092 1.969 9.25 4.375l1-1c5.66-1.016 9.02 1.572 13.535 4.59 2.539 1.452 4.587 2.005 7.465 2.41l-2 2 .25 2.688c-.313 4.145-1.552 5.732-4.348 8.699-4.39 3.724-9.392 5.79-15.152 6.05-3.807-.444-5.764-1.085-8.75-3.437l-1-2 1 9c-2.4-.033-4.79-.1-7.187-.187l-2.042-.018c-3.926-.172-5.638-.685-8.697-3.22-3.94-4.89-3.684-9.46-3.074-15.575 1.415-4.301 3.45-8.11 7-11 1.973-.441 1.973-.441 4.063-.562 4.222-.47 4.805-2.284 8.687-2.813" fill="#B25004"/><path d="m137.313 127.75 2.067.003c6.317.02 12.398.072 18.62 1.247v2l-10 2c-.973 4.867-.763 7.92-.059 12.695C148 148 148 148 146 151c-5.875-.875-5.875-.875-7-2-6.446-1.293-12.887-1.113-19.437-1.062l-3.374.013q-4.095.018-8.189.049.424-2.125.867-4.246l.488-2.389c.968-3.55 2.671-6.272 4.645-9.365l-8 1 .626 2.23c.438 3.246-.026 4.3-1.646 7.09l-1.35 2.371-1.442 2.434-1.409 2.457c-1.846 3.206-3.726 6.339-5.779 9.418-1.875-.312-1.875-.312-4-1-2.446-3.669-2.236-5.672-2-10l1-2h-5v-2l5-2-.937-1.875L87 136l10 1 2-4c10.215-6.81 26.446-5.279 38.313-5.25" fill="#F7B221"/><path d="M576 398h4l-1 10 3 1-.14 2.605c-.272 8.884 1.046 16.079 4.14 24.395 2.048-.674 2.048-.674 4-2 .552-2.093.552-2.093.5-4.437.293-4.335.293-4.335 2.375-6.625C595 422 595 422 598 422c1.29 1.54 1.29 1.54 2.625 3.625 3.372 4.767 7.423 7.413 12.375 10.375l3 2c0 4 0 4-.625 6.5-.437 2.914.082 4.05 1.625 6.5l-6 4 2 7-3 3c-10.23-1.959-18.022-9.802-24-18-9.207-15.032-12.2-30.517-11-48z" fill="#6B3003"/><path d="m381 268 2 1-1.215 1.145c-3.647 3.53-6.93 7.2-10.098 11.168-8.13 10.02-15.464 18.593-28.687 20.687-10.598.544-19.627.67-28.172-6.227-4.6-4.462-7.343-9.312-7.828-15.773 2.875.313 2.875.313 6 1l2 3c2.5.417 2.5.417 5 0l2-2c1.948-.303 1.948-.303 4.332-.379l2.654-.102 2.827-.082q2.859-.106 5.718-.218l2.824-.106c5.226-.224 10.435-.659 15.645-1.113l1 6 4-1v-8a760 760 0 0 1 5.875-2.062l3.305-1.16C373 273 373 273 375 274l.75-1.875c1.47-2.498 2.536-3.192 5.25-4.125" fill="#FDEBD9"/><path d="M419 239h3l1 5 3-2c2.918-.195 2.918-.195 6.188-.125l3.292.055 2.52.07a1850 1850 0 0 1-11.875 9.438l-1.777 1.408c-3.007 2.369-6.041 4.668-9.168 6.877-3.102 2.09-3.102 2.09-5.18 4.277-4.973 3.574-10.21 6.755-15.437 9.938A4954 4954 0 0 0 388 278l-2.844 1.715c-10.037 6.424-13.38 14.993-16.883 26.086-2.12 5.329-5.094 8.733-10.273 11.199-3.312.688-3.312.688-6 1l1 2-14 2v2l-7 1v1h-13l-1-4a98 98 0 0 0-2.75-4.5c-4.485-7.323-8.691-14.731-8.25-23.5 2.492 3.737 4.31 7.74 6.17 11.818 3.063 6.377 7.202 9.367 13.693 11.655 3.446.85 6.603.716 10.137.527l-1-5 3.105.105q2.042.043 4.082.082l2.042.077c4.495.065 7.213-.5 10.771-3.264 4.021-4.197 6.86-9.408 9.813-14.375 7.376-12.05 17.119-20.138 28.187-28.625l-2-2c.337-3.37 1.888-5.43 4-8l5 1 1 3a913 913 0 0 0 6.668-5.21C411 254 411 254 414 252.124c2.711-2.88 2.64-5.243 2.762-9.102C417 241 417 241 419 239" fill="#BA6B0D"/><path d="M588 344h5l-3 14h4c2.284 2.692 2.955 4.622 3.375 8.125-.409 4.223-1.389 7.983-2.621 12.031-1.77 6.68-1.965 13.293-2.004 20.156l-.062 2.686c-.038 6.478 1.156 11.912 3.312 18.002l1 3-2.375.938c-3.019 2.372-3.026 2.952-3.625 6.562l-.25 2.344c-1.067 3.068-2.93 3.746-5.75 5.156-3.336-9.8-4.565-17.664-4-28l-2-1 1-10h-4c-.09-5.152.153-9.92 1-15h1l1 5c2.584-1.548 2.584-1.548 5-4 .89-3.642.89-3.642 1-7l-3-2q1.033-6.383 2.081-12.762.356-2.172.707-4.345.506-3.117 1.02-6.233l.62-3.793C587 345 587 345 588 344" fill="#F3AF23"/><path d="m477 135 2.235 1.122c24.643 12.44 24.643 12.44 26.644 16.788 1.583 2.952 3.765 4.235 6.496 6.153a150 150 0 0 1 13.25 10.75l1.54 1.38c2.592 2.394 4.527 4.506 5.835 7.807-5.17-1.824-9.424-4.358-13.234-8.328-3.12-3.014-6.385-5.267-10.016-7.61l-2-1.316a576 576 0 0 0-8.66-5.586l-2.402-1.535-2.051-1.273c-1.915-1.581-2.685-3.081-3.637-5.352l-2.22.613c-3.196.445-4.402.012-7.249-1.414l-2.48-1.213-2.551-1.298q-2.515-1.246-5.031-2.489l-2.356-1.174A80 80 0 0 0 462 138v-3h-3v3l-3.121.813c-17.843 4.827-32.714 12.9-48.064 23.099C406 163 406 163 403 164l.125-3.375c.286-3.669.286-3.669-2.125-5.625l1.993-.943c12.064-5.717 24.095-11.446 35.815-17.846 13.613-7.355 24.031-8.355 38.192-1.211" fill="#FBCC30"/><path d="M134 152c5.393.431 8.855 1.447 13 5 .836 2.398.836 2.398 1 5-3.545 6.745-11.159 12.07-18 15-7.519 1.411-14.017.439-20.637-3.375-10.241-7.042-10.241-7.042-12.422-12.062C97 159 97 159 99.067 156.373c3.611-2.922 5.323-2.971 9.913-2.896l1.982.014c2.077.021 4.15.078 6.225.134q2.11.024 4.217.043c10.201.135 10.201.135 12.596 1.332z" fill="#593422"/><path d="M148 158c7.816 1.181 14.032 6.198 18.914 12.254 1.554 2.5 1.944 4.837 2.086 7.746h-5l-1-2c-2.994 2.056-2.994 2.056-5 5l-3 1-.898 1.86c-1.426 2.77-3.109 3.744-5.727 5.39l-2.477 1.578L144 192l-3-2v3c-6.245.65-10.143-.096-15.371-3.613C124 188 124 188 122 185a98 98 0 0 1 0-7l3.313-.562c8.48-2.14 17.081-7.897 21.687-15.438.66-2.123.66-2.123 1-4" fill="#FBEADA"/><path d="M293 162c3.706 1.318 6.415 2.955 9.5 5.375 12.603 8.878 27.266 9.279 41.992 6.754 8.853-1.671 8.853-1.671 17.508-4.129a65 65 0 0 1 4.188-.062L370 170c-.754 1.967-.754 1.967-2 4-2.118.288-4.242.556-6.375.704-4.737.534-9.134 2.192-13.625 3.733l-2.887.948c-4.902 1.242-4.902 1.242-8.113 4.615l4 1 1-3 4 1v4l12 5v2c-6.755 3.378-17.313 1.195-24.125-1.062l-3.07-1.16c-3.057-.848-4.793-.655-7.805.222l-1.312-2.562c-2.724-4.144-6.743-6.244-10.934-8.727-2.772-1.722-5.247-3.627-7.754-5.711l-1 4c-1.875-.312-1.875-.312-4-1-2-3-2-3-1.375-6.437L297 168c-1.834-2.335-1.834-2.335-4-4z" fill="#DD8C15"/><path d="M154 236c2.101 2.101 2.638 3.4 3.688 6.125C162.974 254.271 175.515 263.996 187 270c2.703.71 2.703.71 5 1v-2c3.258 1.086 3.67 1.546 5.566 4.21l1.457 2.009 1.54 2.156c4.453 6.095 9.06 11.757 14.226 17.266a153 153 0 0 1 5.399 6.109c4.309 5 9.1 9.555 13.834 14.147l1.943 1.908 1.77 1.718C239 320 239 320 239 322c-12.726-3.68-22.72-13.974-32-23l-1.525-1.463c-4.676-4.49-9.165-8.954-13.037-14.162C186.125 274.973 178.18 268.98 169 264l-1 7h-1l.203-1.758c.056-2.814-.095-4.634-1.203-7.242-2.995-2.026-5.962-3.36-9.312-4.71L154 256c-1.192-3.577-1.146-6.842-1.125-10.562l-.012-2.077c.01-5.108.01-5.108 1.137-7.361" fill="#BA6A0D"/><path d="M132 444c-.158 6.187-1.287 10.243-4.941 15.273-1.32 1.816-1.32 1.816-1.059 4.727l1-3a281 281 0 0 1 5-5q1.23-1.586 2.438-3.187c2.823-3.1 4.455-4.114 8.562-4.813 2.184.969 2.184.969 4 2 .546 15.726.546 15.726-3 22l-1.062 2.875C142 477 142 477 140 478c-7.123 1.06-12.157-2.147-18-6-2.812-2.312-2.812-2.312-4-5-.1-8.2 5.392-15.889 10.598-21.82C130 444 130 444 132 444" fill="#C76403"/><path d="M225 69c3 2 3 2 3.469 4.031.088 7-1.571 12.139-5.469 17.969-3.903 3.903-7.681 5.818-13.187 6.25C207 97 207 97 205 95c-.125-3.625-.125-3.625 0-7l-4 1 1-2h-6c2.448-7.343 6.782-12.775 13.32-16.902 5.033-2.062 10.358-1.865 15.68-1.098" fill="#C55306"/><path d="M97 164c2.824 1.316 5.138 2.802 7.563 4.75 4.814 3.695 10.06 6.463 15.437 9.25.294 4.998.202 8.05-3 12-2.737 2.476-4.62 3.986-8.39 4.023A72 72 0 0 1 102 193v-2l-4-1-1 3-.187-1.875c-.642-2.403-.642-2.403-3.376-3.375L91 187l-3 3-2-1 2-2.375c2.202-2.34 2.202-2.34 2-4.625l-2-1c2.153-11.133 2.153-11.133 5.625-14.687L96 165z" fill="#F5E5D4"/><path d="M243 142c-1.053 2.268-2.035 4.04-3.687 5.938-1.607 2.046-1.607 2.046-1 4.812L239 155c-1.875 1.063-1.875 1.063-4 2l-2-1-.707 2.473c-4.167 11.367-11.367 23.933-22.23 29.84-7.718 3.444-14.65 3.965-23.063 3.687v2h-3v-2c-12.297 1.925-12.297 1.925-23 8l-3 2.313-2 1.687-2-8q2.342-1.19 4.688-2.375l2.636-1.336c9.894-4.766 20.12-6.372 30.988-6.789 10.65-.196 10.65-.196 19.61-5.324 8.904-10.489 16.07-23.05 22.738-35.051 2.255-3.576 4.371-3.23 8.34-3.125" fill="#BB5E02"/><path d="M615 438h20l1 4-2 3c.267 1.985.267 1.985 1 4 1.1 3.412.943 6.2.563 9.75l-.31 2.984L635 464c-5.47 1.845-10.188 2.253-15.937 2.125l-2.362-.027c-1.9-.024-3.8-.06-5.701-.098v-7a69 69 0 0 0-1-4l6-4-1-2.75c-1.196-3.886-1.289-6.384 0-10.25" fill="#642902"/><path d="M244.625 446.313c4.305.877 7.283 2.853 10.91 5.277 2.539 1.452 4.587 2.005 7.465 2.41l-2 2 .25 2.688c-.313 4.145-1.552 5.732-4.348 8.699-4.39 3.724-9.392 5.79-15.152 6.05-3.807-.444-5.764-1.085-8.75-3.437-1.614-3.228-1.4-5.406-1-9 1.7-3.238 3.8-6.087 6-9l2-3.062c2-1.938 2-1.938 4.625-2.625" fill="#DF8B13"/><path d="M584 256h1l.25 3.625c.415 4.014 1.435 7.395 2.777 11.191 3.097 10.64 2.435 21.51 2.285 32.497q-.016 3.259-.029 6.517a4159 4159 0 0 1-.067 9.191c-.08 5.726-.494 11.297-1.216 16.979l4 2v6l-5 1-5 30 3 2c-.24 6.123-.24 6.123-2.367 8.578C579.523 389 579.523 389 578 389c-.23-7.535.37-14.521 1.75-21.922q.55-3.125 1.096-6.252l.575-3.256c3.563-20.426 5.997-39.823 4.579-60.57l-.183-2.904c-.995-16.143-.995-16.143-5.934-31.303C579 261 579 261 579.375 258.75L580 257l3 3z" fill="#B45205"/><path d="m162 216-.08 1.813c-.745 19.513-.745 19.513 7.58 36.812 3.488 3.314 5.634 5.337 10.563 5.438 3.821-1.383 5.051-3.646 6.937-7.063 1.322-2.832 2.484-5.716 3.625-8.625q.892-2.24 1.79-4.477l.779-1.979c.85-2.022 1.805-3.968 2.806-5.919q-.215 2.094-.437 4.188l-.247 2.355C195 241 195 241 194.498 243.313c-.51 2.748-.688 5.344-.78 8.136l-.113 3.069-.21 6.375-.114 3.056-.092 2.792C193 269 193 269 192 271c-5.65-.416-9.299-2.024-13.75-5.375l-1.82-1.341c-8.482-6.407-16.35-13.257-20.43-23.284l-1.75-3.5L153 235h-2c1.029-5.446 2.246-10.118 5-15h-3v-2c6.75-2 6.75-2 9-2" fill="#E5B975"/><path d="M163.98 178.734c2.009.015 4.016.135 6.02.266v10l-3.625 1.813-2.2 1.101q-2.801 1.396-5.613 2.774c-2.432 1.08-2.432 1.08-3.562 2.312.09 1.525.245 3.047.438 4.563l.308 2.503L156 206h-4l-1 2-3.187-1.187c-3.717-1.202-3.717-1.202-6.5.5L139 209c-4.04 1.274-8.056 1.11-12.25 1.063l-2.258-.014q-2.745-.02-5.492-.049v-1l3.613-.586 4.7-.789 2.38-.383 2.295-.39c.697-.116 1.393-.23 2.11-.35 2.21-.474 2.21-.474 4.902-2.502v-4l-2.738-1.023-3.575-1.352-3.55-1.336C126 195 126 195 123 193c-3.492.35-6.087 2.139-9 4l-3-3 3.375-1.312c3.8-1.387 3.8-1.387 5.625-4.688 2.685 1.027 5.102 2.062 7.563 3.563 4.312 1.803 8.189 1.938 12.828 2.128C143 194 143 194 145 196v-3l5-1 1-3c2.75-2.75 2.75-2.75 6-5 2.875.188 2.875.188 5 1l-3-2c1.259-2.518 2.096-3.879 4.98-4.266" fill="#DCB38F"/><path d="M227 222c1 2 1 2 .457 4.018l-.867 2.459c-1.696 5.389-2.094 10.273-2.028 15.898l.026 2.78c.298 12.018 3.997 20.467 11.412 29.845l1.352 1.777c2.094 2.656 4.321 4.826 6.96 6.91L247 288v3l3.25.688c4.122 1.442 5.394 2.731 7.75 6.312-4.685-.507-7.808-2.64-11.5-5.375l-1.838-1.344C218.846 272.174 218.846 272.174 216 258v-4l4-1v-4h-4c-.629-9.851 3.125-17.26 9-25z" fill="#FBCC2F"/><path d="M419 239h3l1 5 3-2c2.918-.195 2.918-.195 6.188-.125l3.292.055 2.52.07a1850 1850 0 0 1-11.875 9.438l-1.777 1.408c-3.007 2.369-6.041 4.668-9.168 6.877-3.102 2.09-3.102 2.09-5.18 4.277-6.068 4.36-12.506 8.19-18.887 12.07a112 112 0 0 0-6.32 4.235L382 282l-3-1c4.491-5.53 9.121-9.969 15-14l-2-2c.337-3.37 1.888-5.43 4-8l5 1 1 3a913 913 0 0 0 6.668-5.21C411 254 411 254 414 252.124c2.711-2.88 2.64-5.243 2.762-9.102C417 241 417 241 419 239" fill="#B96A0E"/><path d="M577 383h1l1 5 6-4-1 21 3-2h4l1.059 3.395 1.379 4.418.697 2.236A491 491 0 0 0 597 422l-2.375.938c-3.019 2.372-3.026 2.952-3.625 6.562l-.25 2.344c-1.067 3.068-2.93 3.746-5.75 5.156-3.336-9.8-4.565-17.664-4-28l-2-1 1-10h-4c-.09-5.152.153-9.92 1-15" fill="#DB8811"/><path d="M98.375 66.625c5.104 1.936 9.608 4.658 13.625 8.375.723 2.059.723 2.059 1 4a206 206 0 0 0 2 5c-5.902-.587-8.96-4.215-13.184-8.066-2.693-2.136-2.693-2.136-5.957-2.485-2.954.288-2.954.288-4.722 2.45l-1.45 2.476-1.488 2.46c-1.827 3.298-2.406 5.318-2.511 9.103l-.114 2.652c.217 2.503.217 2.503 2.055 4.152 2.886 1.531 5.391 1.99 8.621 2.445l3.266.481L102 100c-.684 3.95-1.788 6.635-4 10q-3.205-1.068-6.406-2.14a360 360 0 0 0-5.125-1.657l-2.406-.766-2.215-.69C80 104 80 104 78 102c-.837-10.046 4.436-22.55 10.852-30.21 3.142-3.07 5.097-4.673 9.523-5.165" fill="#F7B325"/><path d="M146 158h2c-.284 3.654-.643 5.577-3.04 8.414-2.62 2.241-5.254 4.448-7.96 6.586l-1.762 1.465C129.86 178.27 123.234 177.84 117 177c-7.685-2.372-13.329-7.48-19-13l1-4 1.719.941c2.302 1.069 4.291 1.549 6.781 1.996 4.255.864 4.255.864 6.5 2.688 2.82 1.939 5.232 1.782 8.586 1.871 2.628-.382 2.628-.382 5.246-2.387 3.475-2.314 6.453-3.255 10.48-4.297 4.158-.782 4.158-.782 7.688-2.812" fill="#3C2013"/><path d="m504.875 445.988 2.125.325 2.125.3C511 447 511 447 513 448c2.204.23 4.414.41 6.625.563l3.602.253L526 449v1h-10l3.063 3.063c2.507 2.928 2.925 3.59 3.062 7.625-1.794 5.28-1.794 5.28-5.125 7.312-6.288.964-11.506.14-17-3-2.702-2.44-2.965-3.73-3.437-7.375.512-4.248 3.174-11.605 8.312-11.637" fill="#DE8A12"/><path d="M531 283c-.627 3.002-1.609 5.328-3.145 7.977l-1.297 2.268c-.452.785-.905 1.57-1.37 2.38-7.78 12.414-7.78 12.414-8.188 26.375 1.774 2.756 3.9 5.102 6.125 7.5l1.688 1.895c3.405 3.79 6.952 7.419 10.592 10.983 1.658 1.686 3.194 3.441 4.72 5.247 3.848 4.479 8.038 8.593 12.256 12.72 2.44 2.401 4.673 4.725 6.78 7.436 1.837 2.217 2.932 3.06 5.589 4.031L568 373v1c-2.57.934-2.57.934-6 1-2.71-1.929-4.734-4.409-6.875-6.937q-1.858-2.094-3.719-4.184l-1.785-2.043c-4.144-4.694-8.62-9.013-13.371-13.086-20.03-17.309-20.03-17.309-25.25-27.75-.07-2.04-.084-4.083-.062-6.125l.027-3.32L511 309l-3-1 1-5c3 1 3 1 4 3l1.977-3.254 2.648-4.308 1.293-2.135C527.133 283 527.133 283 531 283" fill="#B85707"/><path d="m606 433 10 4-.5 1.75c-1.025 4.61-.07 7.933 1.5 12.25l-6 4 2 7-3 3c-6.603-1.264-11.068-4.49-16-9l-2-3c5.143-5.571 5.143-5.571 9-6l1-8 5-1z" fill="#DC8811"/><path d="M97.313 74.375c5.49 3.32 9.977 8.43 13.687 13.625v2h-4l1 4c-3.416 3.165-5.912 3.407-10.5 3.375l-3.406.023c-3.36-.432-4.727-1.02-7.094-3.398-1.676-4.831-.925-7.785 1.188-12.25 1.989-3.87 4.266-8.163 9.124-7.375" fill="#C55406"/><path d="M642.813 432.938C645 434 645 434 646.188 436.438L647 439l2 2c.224 2.763.004 4.984-.625 7.688L648 451l2 2c.125 3.125.125 3.125 0 6q-3.468 1.252-6.937 2.5l-1.999.723C636.114 464 636.114 464 635 464l.07-2.992.055-3.883.07-3.867c.161-3.344.161-3.344-2.195-5.258.313-1.812.313-1.812 1-4 .73-2.563.73-2.563 1-5l-2-2c6.153-3.981 6.153-3.981 9.813-4.062" fill="#F4B122"/><path d="M501.375 444.5 503 446l-2.25 1.375c-3.828 3.654-5.018 7.716-6.75 12.625q-.989 2.505-2 5h-3l1 4c-2.187.313-2.187.313-5 0-2.75-2.437-2.75-2.437-5-5l-1-1c-.854-6.398.217-11.724 4-17 4.956-3.304 13.113-4.823 18.375-1.5" fill="#903D02"/><path d="M136 128c3.503 3.503 4.264 6.45 4.375 11.25-.067 4.442-.067 4.442-2.375 6.75-2.43.227-2.43.227-5.445.195l-3.262-.02-3.418-.05-3.441-.027q-4.218-.036-8.434-.098c1.164-6.637 4.825-10.46 10.031-14.625 3.901-2.64 7.162-4.577 11.969-3.375" fill="#FBCE30"/><path d="M120 192c7.017.658 13.837 4.84 20 8-.125 2.313-.125 2.313-1 5-6.312 4.11-12.73 4.125-20 4v-2l-5 1-1-3 1-2-3-1c2.275-4.55 3.488-6.406 8-9z" fill="#FEEDDB"/><path d="m471 228 2 1-1.758 2.535c-9.639 14.236-14.43 27.182-14.367 44.528l-.012 3.26.008 6.001c.128 2.653.539 5.09 1.129 7.676l-4 1q-.974-2.842-1.937-5.687l-1.09-3.2c-1.596-5.106-2.452-9.746-1.973-15.113a349 349 0 0 1 4-5c-.186-2.538-.812-4.48-1.672-6.855-.436-2.853.36-4.322 1.61-6.895l1.152-2.422L455 247l3 1-.723-1.695C457 244 457 244 458.441 241.633l2.122-2.508 2.222-2.64A142 142 0 0 1 471 228" fill="#FBCC2F"/><path d="M615 438h20l1 4-2 3c.267 1.985.267 1.985 1 4l1 4h-22l2-4c-.85-2.033-.85-2.033-2-4 0-4 0-4 1-7" fill="#703604"/><path d="M587 332h2v4l4 2v6l-5 1-5 30 3 2c-.24 6.123-.24 6.123-2.367 8.578C579.523 389 579.523 389 578 389c-.186-7.374.273-14.354 1.46-21.629.152-.956.302-1.913.457-2.898q.476-2.997.964-5.992c.498-3.065.977-6.133 1.455-9.202q.467-2.922.937-5.845l.433-2.781.424-2.561.364-2.255C585 334 585 334 587 332" fill="#AC550C"/><path d="M232 69c.48 19.787.48 19.787-2 26-1.89 1.188-1.89 1.188-4 2l-3 1.688c-3 1.312-3 1.312-5.375 1L216 99l7-7a110 110 0 0 0 2.125-5.625l1.07-3.04L227 81h2c.285-3.38.407-6.627 0-10-2.691-3.05-5.661-3.255-9.562-3.562C211.77 67.633 205.23 71.846 199 76c.117-3.87 1.526-5.932 4.063-8.687 9.302-8.642 19.282-4.4 28.937 1.687" fill="#F6B223"/><path d="M666 433h3c.448 6.274-.011 10.95-4 16-4.83 4.273-9.46 8.157-16 9l.125-2.25c-.129-2.838-.696-4.338-2.125-6.75 4.36-3.787 8.92-7.055 13.73-10.254 2.351-1.639 2.351-1.639 3.883-3.96z" fill="#662B05"/><path d="M586 236c1.982 1.793 3.204 3.35 4.563 5.688L592 244h2c8.684 17.757 15.083 40.183 11 60l-3-1q-.508-5.437-1-10.875c-.095-1.013-.19-2.026-.29-3.07-.571-6.373-.838-12.658-.71-19.055h-2l-.848-3.191c-2.503-9.109-5.588-17.474-9.797-25.93C586 238 586 238 586 236" fill="#FAC935"/><path d="M223 69v1l-2.012.262c-4.282.681-7.426 1.378-11.113 3.738-2.614 4.182-2.856 8.178-1.875 13 1.236 1.836 1.236 1.836 3 3 6.007.809 9.13-.82 14-4-1.356 4.44-3.168 6.416-7 9-3.758 1.927-6.788 2.374-11 2-2-2-2-2-2.125-5.625L205 88l-4 1 1-2h-6c2.484-7.452 6.836-12.71 13.441-16.91 4.444-1.893 8.83-1.567 13.559-1.09" fill="#BB3E03"/><path d="m235 444 2 1c-.238 3.807-1.533 5.83-3.875 8.688-3.497 4.397-4.86 8.897-6.125 14.312-2.375.625-2.375.625-5 1-2.418-2.418-2.348-3.168-2.437-6.5.11-5.906 2.074-10.676 5.437-15.5 3.39-3.035 5.451-3.396 10-3" fill="#DE8B13"/><path d="m587 373 .75 1.875c1.456 2.476 2.628 3.076 5.25 4.125v-3l2 1-.402 1.738c-1.944 9.35-2.223 18.748-2.598 28.262l-1-4-7 2c-.41-21.749-.41-21.749 2-31z" fill="#F5B327"/><path d="M120 188c2.685 1.027 5.102 2.062 7.563 3.563 3.601 1.506 5.54 1.47 9.374 1.437 4.08.208 5.529.442 8.395 3.434C150 203.744 150 203.744 150 207l-2.687-.687c-3.967-.375-5.1.49-8.313 2.687-4.045 1.264-8.054 1.11-12.25 1.063l-2.258-.014q-2.745-.02-5.492-.049v-1l3.613-.586 4.7-.789 2.38-.383 2.295-.39c.697-.116 1.393-.23 2.11-.35 2.21-.474 2.21-.474 4.902-2.502v-4l-2.738-1.023-3.575-1.352-3.55-1.336C126 195 126 195 123 193c-3.492.35-6.087 2.139-9 4l-3-3 3.375-1.312c3.8-1.387 3.8-1.387 5.625-4.688" fill="#E0B792"/><path d="M148 158c4.75.75 4.75.75 7 3l-1.812.125c-2.47.7-2.47.7-3.438 3.5-3.937 7.593-11.026 11.338-18.527 14.918-2.391 1.255-2.391 1.255-3.04 3.633L128 185c3.692 3.538 7.094 3.591 12 4l1 4c-6.245.65-10.143-.096-15.371-3.613C124 188 124 188 122 185a98 98 0 0 1 0-7l3.313-.562c8.48-2.14 17.081-7.897 21.687-15.438.66-2.123.66-2.123 1-4" fill="#DFB793"/><path d="M160 118c2.125.375 2.125.375 4 1l-.062 1.828c.067 2.602.24 4.696 1.062 7.172 2.452 1.975 5.02 3.03 8 4-2.813 1.406-4.152.528-7.125-.375-9.072-2.75-17.938-2.784-27.339-2.755q-3.145.005-6.292-.007-2.03 0-4.06.004l-3.67.004c-3.57.131-6.988.583-10.514 1.129-1.645.06-3.292.088-4.937.063l-2.34-.028L105 130c-.25-5.625-.25-5.625 2-9l3 1v6l2.104-.43c8.294-1.557 16.285-1.84 24.709-1.757l3.85.001c5.894.028 11.504.261 17.337 1.186l-.125-3.375C158 120 158 120 160 118" fill="#C96705"/><path d="M244 148c18.015-.842 33.23 2.928 47 15 1.984 1.943 3.421 3.685 5 6l-1 3-2.352-1.941C278.192 158.382 263.704 151.85 245 151z" fill="#FBCC2F"/><path d="M576 398h4l-1 10 3 1-.14 2.605c-.288 9.409.886 17.887 5.14 26.395h-6q-1.224-3.843-2.437-7.687l-.698-2.186c-2.196-6.971-3.025-13.07-2.99-20.377l-.012-2.508c.01-6.115.01-6.115 1.137-7.242" fill="#BC5F0E"/><path d="m606 433 10 4-.5 1.75c-1.025 4.61-.07 7.933 1.5 12.25-3 2-3 2-6.375 1.813-6.203-1.39-6.203-1.39-8.625-3.813-.424-3.37-.285-6.621 0-10l5-1z" fill="#F4B122"/><path d="m163 174 1 4h6v1l-3.875.375c-3.473.315-3.473.315-6.125 2.625l6 4-2 1-1.875-1c-2.027-1.163-2.027-1.163-4.062-.875-3.432 1.456-6.378 3.506-8.063 6.875-2.562.625-2.562.625-5 1l1 5-1.145-1.473c-2.535-2.087-4.291-1.894-7.542-1.964-7.1-.413-11.511-2.695-17.313-6.563l-.812 1.875C118 192 118 192 115 194c-2.187-.375-2.187-.375-4-1l2.875-1.75c3.584-2.48 3.584-2.48 5.125-6.25.145-2.69.09-5.3 0-8h9v1h-6c.35 4.018.732 7.67 3.598 10.676 4.875 3.286 9.59 4.176 15.402 4.324l-1-5 4 3q2.474-1.68 4.938-3.375l2.777-1.898c2.369-1.525 2.369-1.525 3.285-3.727l-2-1h5v-2l-2-2 2.938-.375L162 176z" fill="#7A5130"/><path d="M132 444c-.158 6.187-1.287 10.243-4.941 15.273-1.32 1.816-1.32 1.816-1.059 4.727l2-3-1 12c-5-1-5-1-7.437-3-1.956-3.754-1.713-5.465-.602-9.453C120.939 455.698 125.893 444 132 444" fill="#C36104"/><path d="M499 443c2.375 1.5 2.375 1.5 4 3l-2.25 1.375c-3.828 3.654-5.018 7.716-6.75 12.625q-.989 2.505-2 5h-4c-1.975-5.925-1.869-11.911.875-17.562 2.514-4.628 4.94-4.853 10.125-4.438" fill="#DE8B14"/><path d="M647 448c2.89 3.78 3.142 6.34 3 11q-3.468 1.252-6.937 2.5l-1.999.723C636.114 464 636.114 464 635 464a888 888 0 0 1-.062-5.375l-.036-3.023C635 453 635 453 636 451c1.996-.852 1.996-.852 4.438-1.625.803-.26 1.606-.52 2.433-.79C645 448 645 448 647 448" fill="#DD8A11"/><path d="M446 264h1v5l3 1-.121 3.02c.125 4.127.912 7.736 2.058 11.668l1.09 3.886L454 292c.34 1.331.679 2.664 1 4h-4c-5.991-6.899-7.34-15.57-7.3-24.457.33-2.79 1.15-4.99 2.3-7.543" fill="#F7B321"/><path d="M450 132v2l-2.937 1.434C432.35 142.666 418.293 150.372 405 160l-4-5 1.993-.943c12.206-5.785 24.358-11.619 36.254-18.021l2.183-1.173 1.882-1.022C445.55 132.726 447.483 132 450 132" fill="#F9B92C"/><path d="M458 242v6l-3 1c-2.399 4.327-2.399 4.327-2.75 9.125L453 260c1.316 4.385 1.316 4.385-.187 7.313C451 269 451 269 447 269c-2.01-2.956-2.253-5.236-1.605-8.73 3.695-13.852 3.695-13.852 8.152-17.16C456 242 456 242 458 242" fill="#F1AD20"/><path d="M476.688 210.125C479 211 479 211 481 213c.047 2.059.047 2.059-.25 4.438l-.266 2.37C480 222 480 222 478 225c-3.823-.26-5.58-.612-8.437-3.25C468 219 468 219 467.938 216.438c1.769-4.059 4.18-6.526 8.75-6.313" fill="#753B04"/><path d="M126.313 440.188 128 441c-.296 4.744-2.657 7.473-5.527 11.035-2.483 3.313-3.686 6.095-4.098 10.215L118 466c-3.055-2.922-3.925-4.273-4.375-8.625.082-6.465 3.955-10.678 7.938-15.437C124 440 124 440 126.313 440.188" fill="#C56405"/><path d="m219 447 1 2h2c-1.875 5.75-1.875 5.75-3 8-.238 3.277-.383 6.553-.523 9.836-.5 3.315-1.238 4.733-3.477 7.164-3.433-4.148-3.499-8.045-3.36-13.207.733-5.688 3.224-9.906 7.36-13.793" fill="#DD8C1A"/><path d="m179 189 1 3-2.633.734c-8.744 2.525-8.744 2.525-16.367 7.266l-2.875 2.25L156 204l-2-8q2.342-1.19 4.688-2.375l2.636-1.336c12.033-5.797 12.033-5.797 17.676-3.289" fill="#C37F0D"/><path d="M590.563 343.938 593 344l-.77 2.902c-2.591 9.963-4.57 19.94-6.23 30.098l-4-2q1.033-6.383 2.081-12.762.356-2.172.707-4.345.506-3.117 1.02-6.233l.62-3.793c.768-3.847.768-3.847 4.135-3.93" fill="#DE8A11"/><path d="M146 158h2c-.279 3.712-.647 5.59-3.11 8.45l-2.64 2.238-2.61 2.261C133.138 176 133.138 176 130 176c.416-4.851 2.505-6.774 6-10v-1l-5-1c3.012-2.008 5.154-2.688 8.625-3.562 3.483-.658 3.483-.658 6.375-2.438" fill="#3E2215"/><path d="M592 409h1l.621 2.082.817 2.73.808 2.708A215 215 0 0 0 597 422l-2.375 1.188c-2.977 2.055-3.613 3.409-4.625 6.812-2.066-3.099-2.747-5.35-3.625-8.937-.26-1.04-.52-2.081-.79-3.153C585 415 585 415 585 411h7z" fill="#F5B225"/><path d="M97 164c2.824 1.316 5.138 2.802 7.563 4.75 4.814 3.695 10.06 6.463 15.437 9.25.294 4.998.202 8.05-3 12-2.737 2.476-4.62 3.986-8.39 4.023A72 72 0 0 1 102 193l-1-3 3-1v2q2.44-.425 4.875-.875l2.742-.492c2.548-.463 2.548-.463 4.383-2.633.834-3.371.834-3.371 0-7-1.772-1.598-3.6-2.616-5.7-3.746-2.373-1.294-4.457-2.751-6.612-4.379l-1.926-1.445c-1.721-1.397-3.299-2.764-4.762-4.43z" fill="#DBB491"/><path d="M97 75c4.048 1.589 6.376 4.306 9.25 7.5l1.39 1.512C111 87.74 111 87.74 111 90h-4l1 4c-3.44 3.203-6 3.406-10.625 3.375l-3.477.023L91 97l-2-3 2.555-.184 3.32-.254c1.09-.08 2.181-.162 3.305-.246 2.767-.146 2.767-.146 4.82-1.316.425-6.167-.037-8.988-4-14z" fill="#BD4104"/><path d="M465 130c13.836 4.22 28.417 12.443 40 21l-1 3-2.21-1.398c-22.37-14.32-22.37-14.32-47.79-20.602 3.81-2.54 6.6-2.667 11-2" fill="#F9B92C"/><path d="M223 69v1l-2.012.262c-4.278.68-7.34 1.283-10.925 3.8-2.64 3.76-3.881 7.529-5.063 11.938-3.153.7-5.727 1-9 1 2.484-7.452 6.836-12.71 13.441-16.91 4.444-1.893 8.83-1.567 13.559-1.09" fill="#AC3903"/><path d="m151 189 2 1v4l1.5 3.438c1.382 3.283 1.816 5.087 1.5 8.562h-4l-1 2c-3.53-5.014-5.615-8.835-6-15l5-1z" fill="#C8A37E"/><path d="m390 450 1 2-.875 2.563c-1.354 4.138-1.76 8.116-2.125 12.437 3.42-3.013 4.85-6.642 6.719-10.723C396 454 396 454 399 452l-.937 2.313c-1.614 4.08-2.297 7.507-2.625 11.875l-.254 3.292L395 472c-2.883.113-2.883.113-6 0-3.136-3.031-3.261-6.268-3.437-10.437.117-5.117 1.117-7.724 4.437-11.563" fill="#9A3500"/><path d="M328 223c3.297.33 4.623.623 7 3 .474 2.977.535 5.058-.98 7.727-1.27 1.648-1.27 1.648-4.02 4.273h-4q-.079-3.187-.125-6.375l-.07-3.586C326 225 326 225 328 223" fill="#713704"/><path d="M196 218c2.682.383 4.098 1.072 6.313 2.688C204 223 204 223 204.063 226c-1.29 3.64-2.895 4.888-6.063 7l-4-2a268 268 0 0 1-.125-4.25l-.07-2.39c.212-2.567.908-4.152 2.195-6.36" fill="#6E3405"/><path d="M245 207c2.712 4.068 2.307 6.165 2 11l-2 2c-3.842-.303-6.094-1.525-9-4 .295-3.545.776-4.782 3.375-7.312C242 207 242 207 245 207" fill="#763B05"/><path d="M602 307h3c2.54 9.528.538 19.471-1 29l-2-1-3 9h-1c.964-9.41.964-9.41 2-14l3-1-.496-1.95c-.657-3.978-.61-7.838-.567-11.863l.014-2.388q.02-2.9.049-5.799" fill="#F9C231"/><path d="M501.125 207.688C504 208 504 208 505 209c.459 7.11.459 7.11-1.062 10.063-3.08 1.49-5.687.612-8.938-.063-.359-6.222-.359-6.222 1.125-9.437 1.875-1.563 1.875-1.563 5-1.875" fill="#723704"/><path d="m158.25 131.25 1.75.75-1.48 1.453c-2.223 3.725-1.92 7.042-1.833 11.297l-.01 2.344c.05 5.265.873 9.845 2.323 14.906l-5-2-.148-3.36-.227-4.39c-.03-.73-.062-1.46-.094-2.21-.21-3.842-.595-6.708-2.531-10.04.164-3.282.81-4.751 2.813-7.375C156 131 156 131 158.25 131.25" fill="#B54F01"/><path d="M404 157c-.456 4.652-.847 8.412-4 12-3.062.438-3.062.438-6 0-2-2-2-2-2.062-4.312C394.05 159.344 398.442 157 404 157" fill="#743A04"/><path d="m488 265 4 2c.287 4.884.325 8.217-3 12-2.625.375-2.625.375-5 0-1-1-1-1-1.375-4.187.487-4.952 1.968-6.32 5.375-9.813" fill="#723804"/><path d="m237 446 3 2c-.629 3.451-1.992 5.71-4 8.563-3.045 4.34-4.132 7.304-4.062 12.625l.027 2.73L232 474l-2-1a109 109 0 0 1-1-7h-2c.319-6.214 3.542-10.101 7-15a250 250 0 0 0 3-5" fill="#923D01"/><path d="M576 398h4l-1 10 3 1v9l-4 1c-2.067-3.1-2.245-3.73-2.195-7.23l.02-2.432.05-2.526.027-2.56A931 931 0 0 1 576 398" fill="#8A3A01"/><path d="m415 247 2 1c-1.542 4.4-5.014 6.596-8.625 9.25l-1.852 1.39A731 731 0 0 1 402 262c-1.46-2.647-2-3.894-2-7q3.68-2.044 7.375-4.062l2.117-1.182c1.804-.98 3.654-1.875 5.508-2.756" fill="#E3B56F"/><path d="M182 291c3.38 1.449 5.73 3.082 8 6 .315 3.145.42 5.16-1 8-2.312.313-2.312.313-5 0-2.658-2.933-3.188-5.412-3.25-9.25C181 292 181 292 182 291" fill="#5C1F00"/><path d="M311 249c3 .188 3 .188 6 1 2 3 2 3 1.875 5-1.165 2.662-2.343 3.593-4.875 5-2.687.25-2.687.25-5 0l-1-1c.603-7.603.603-7.603 3-10" fill="#753B04"/><path d="M211 232c2.468 1.152 4.048 2.048 6 4 .313 3 .313 3 0 6-3.224 2.15-4.267 2.383-8 2-2-2-2-2-2.375-4.875.45-3.75 1.501-4.79 4.375-7.125" fill="#672B01"/><path d="M417 242v6l-2.312.625c-5.19 1.935-9.889 4.63-14.688 7.375l-2.777 1.566c-2.339 1.242-2.339 1.242-3.223 3.434l-3-1c5.26-5.103 10.857-9.438 16.938-13.5l2.008-1.35C414.74 242 414.74 242 417 242" fill="#DB8B16"/><path d="M360.125 253.188C362 254 362 254 363 256c.134 2.672.043 5.323 0 8-2.732 1.366-4.982 1.128-8 1l-1-1c.462-7.154.462-7.154 2.313-10.062 1.687-.938 1.687-.938 3.812-.75" fill="#733904"/><path d="M316 273c1.875.313 1.875.313 4 1 2.302 3.452 2.345 4.947 2 9-2 2-2 2-4.5 2.25C315 285 315 285 313 283c-.38-3.503-.402-5.363 1.5-8.375z" fill="#773D08"/><path d="M388 198c2.27.391 3.834.887 5.75 2.188 1.831 2.655 1.584 4.668 1.25 7.812-2 2-2 2-4.5 2.25C388 210 388 210 386 208c-.315-4.336-.449-6.327 2-10" fill="#743A04"/><path d="m594 450 1.25 1.172C600.549 455.95 605.663 460 613 460c-.812 1.938-.812 1.938-2 4-3 1-3 1-6.687-.5-4.704-2.478-8.472-5.863-12.313-9.5z" fill="#B75708"/><path d="M488.188 444.375 490 445l-3 1c-3.885 6.33-3.294 12.762-3 20h-3c-2.713-4.07-2.64-7.22-2-12 3.65-10.574 3.65-10.574 9.188-9.625" fill="#DF8E1A"/><path d="M160 118c2.125.375 2.125.375 4 1l-.062 1.828c.067 2.602.24 4.696 1.062 7.172 2.452 1.975 5.02 3.03 8 4-3.234 1.617-6.306.009-9.625-.937l-2.14-.592A912 912 0 0 1 156 129l2-1-.125-3.875c-.07-2.18-.07-2.18.125-4.125z" fill="#C66E12"/><path d="M579 374c5.875 1.875 5.875 1.875 7 3-.115 5.984-.115 5.984-2.371 8.574C579.536 389 579.536 389 578 389q-.04-2.625-.062-5.25l-.036-2.953c.086-2.455.39-4.459 1.098-6.797" fill="#571C01"/><path d="m123 150.875 2.926.027q3.537.036 7.074.098l1 4h-29l-1-2c6.465-1.936 12.276-2.246 19-2.125" fill="#8E7465"/><path d="M584 256h1l.148 1.758c.452 4.715 1.318 8.744 2.852 13.242.125 2.875.125 2.875 0 5h-2l-2 2-.586-2.703-.789-3.547-.773-3.516c-.714-2.71-1.596-4.767-2.852-7.234.375-2.25.375-2.25 1-4l3 3z" fill="#B55707"/><path d="m202 229 1 2a108 108 0 0 1-2.75 4.813c-4.623 8.783-5.239 18.437-6.25 28.187h-1c-.813-26.819-.813-26.819 4.535-32.684 1.653-1.129 1.653-1.129 4.465-2.316" fill="#DD8B17"/><path d="m370 227 7 1 1 7c-3.222 2.148-4.278 2.294-8 2-1-1-1-1-1.125-4.437C369 229 369 229 370 227" fill="#733804"/><path d="m360 200 3 1c.325 7.147.325 7.147-2 10-3.125.75-3.125.75-6 1-.75-2.125-.75-2.125-1-5 3.093-5.547 3.093-5.547 6-7" fill="#783E05"/><path d="M119 177h9v1h-6c.306 4.436.735 7.855 4.137 10.934 2.243 1.468 4.49 2.82 6.863 4.066l-2 1c-1.84-.707-1.84-.707-3.937-1.812l-2.09-1.083c-1.705-.955-3.347-2.021-4.973-3.105l-.812 1.875C118 192 118 192 115 194c-2.187-.375-2.187-.375-4-1l2.875-1.75c3.584-2.48 3.584-2.48 5.125-6.25.145-2.69.09-5.3 0-8" fill="#986036"/><path d="M272 150c5.169 1.514 9.634 3.77 14.313 6.375l2.205 1.172 2.095 1.164 1.9 1.04c1.91 1.604 2.016 2.849 2.487 5.249 1.479 1.73 1.479 1.73 3 3l-2 4-1.187-2.187C289.307 161.27 280.62 154.973 271 152z" fill="#F7B729"/><path d="M458 232c.492 7.262.492 7.262-2 11l-2 2-4-1c.257-4.37.6-6.518 3.438-9.937C456 232 456 232 458 232" fill="#723704"/><path d="M267 259c5.75.75 5.75.75 8 3-.187 3-.187 3-1 6l-3 2-4-1z" fill="#733804"/><path d="m480 368 4 2c.25 7.625.25 7.625-2 11-1.937-.562-1.937-.562-4-2-.937-3.375-.937-3.375-1-7 1.438-2.437 1.438-2.437 3-4" fill="#622300"/><path d="M291 361c.432 6.26-.073 9.09-4 14l-3-1c.806-13 .806-13 7-13" fill="#6C2F02"/><path d="M278 223c1.875.313 1.875.313 4 1 2.29 3.435 2.178 4.985 2 9-2.312.688-2.312.688-5 1-1.875-1.062-1.875-1.062-3-3 .245-2.998.653-5.307 2-8" fill="#763C05"/><path d="M261 221c.18 5.22-.03 9.073-2 14l-4-1c-.467-8.089-.467-8.089 1.313-11.562C258 221 258 221 261 221" fill="#753B04"/><path d="m297 189 4 1c.362 6.39.362 6.39-1.187 9-1.813 1-1.813 1-4.5.688L293 199c.48-4.22 1.166-6.797 4-10" fill="#733904"/><path d="M582 438c2.258.164 2.258.164 5 1 2.055 2.398 2.055 2.398 3.875 5.375l1.867 2.96C594 450 594 450 593 453c-4.05-1.505-5.525-3.887-7.75-7.5l-1.86-2.969C582 440 582 440 582 438" fill="#591E03"/><path d="m440 206 3 1c-.468 4.056-.88 7.466-3 11h-5c.415-5.288 1.352-8.117 5-12" fill="#753A04"/><path d="M189.125 162.313C191 163 191 163 192 164c.188 2.438.188 2.438 0 5-2 2-2 2-4.5 2.25C185 171 185 171 183 169c.188-2.5.188-2.5 1-5 3-2 3-2 5.125-1.687" fill="#733804"/><path d="M534 178c3.692.692 3.692.692 5 2 .273 5.736.273 5.736 0 8l-2 2h-3c-1.19-2.38-1.133-3.915-1.125-6.562l-.008-2.442C533 179 533 179 534 178" fill="#723704"/><path d="m107 121 3 1v6l2.5-.5c3.913-.559 7.552-.568 11.5-.5-5.656 3.77-12.417 3.134-19 3-.25-5.625-.25-5.625 2-9" fill="#C8741D"/><path d="M564 228c2.624.362 3.82.827 5.75 2.688 1.577 2.916 1.473 5.045 1.25 8.312-2.312-.187-2.312-.187-5-1-1.875-2.25-1.875-2.25-3-5 .313-2.812.313-2.812 1-5" fill="#642701"/><path d="M564 376a105 105 0 0 1 5 4v2h-4l-.367 3.43-.508 4.445-.238 2.262c-.66 5.636-.66 5.636-2.887 7.863q-.04-4.437-.062-8.875l-.026-2.55-.01-2.442-.016-2.254C561 382 561 382 562 380h3z" fill="#C16511"/><path d="M584 357c1.225 3.597.821 6.414.188 10.125l-.52 3.195C583 373 583 373 581 375l-2-1 2-16z" fill="#BB5F10"/><path d="M383 177c2.125.375 2.125.375 4 1 .125 7.75.125 7.75-1 10l-5-1c-.195-6.055-.195-6.055 0-8z" fill="#703603"/><path d="m104 132 7 1c-.415 5.39-3.52 9.061-6.562 13.313l-1.577 2.244A828 828 0 0 1 99 154l-1-2c1.593-3.006 3.321-5.877 5.107-8.77 2.07-3.453 2.893-5.1 2.893-9.23z" fill="#B85202"/><path d="M422 290h4c.25 7.625.25 7.625-2 11l-4-1c-.195-6.055-.195-6.055 0-8z" fill="#5B1E00"/><path d="m204 224 3 1c-1.444 3.65-2.962 7.264-4.5 10.875-1.816 4.339-3.36 8.565-4.5 13.125h-2l-1 2c.257-6.677 2.462-11.272 5.566-17.145 1.644-3.273 2.626-6.298 3.434-9.855" fill="#BD5B05"/><path d="M322 199h3c1.381 2.763 1.19 4.947 1 8l-2 2c-2.625-.375-2.625-.375-5-1 .75-6.75.75-6.75 3-9" fill="#7C4006"/><path d="M286 316h3c2.302 3.452 2.345 4.947 2 9l-2 2c-2.125-.375-2.125-.375-4-1q-.04-2.22-.062-4.437l-.036-2.497C285 317 285 317 286 316" fill="#662A01"/><path d="M223 288c1.938.375 1.938.375 4 1 1.37 2.74 1.126 4.97 1 8l-1 2c-3.875-.875-3.875-.875-5-2-.237-6.525-.237-6.525 1-9" fill="#692C01"/><path d="M434 315c.25 7.625.25 7.625-2 11l-4-1c-.227-3.328-.322-5.418 1.313-8.375C431 315 431 315 434 315" fill="#5E2000"/><path d="M523.563 214.938 526 215c1.125 5.75 1.125 5.75 0 8-2.375.125-2.375.125-5 0l-2-2c.728-5.969.728-5.969 4.563-6.062" fill="#793E05"/><path d="M385 458h1l.148 1.828.227 2.422c.07.789.14 1.578.21 2.39.44 2.507 1.012 4.236 2.415 6.36 3.06.816 3.06.816 6 1v1q-2.156.079-4.312.125l-2.426.07C386 473 386 473 383 471c-.363-2.023-.363-2.023-.312-4.375l.011-2.336c.325-2.469 1.07-4.14 2.301-6.289" fill="#A84608"/><path d="M220 447h5c-.5 2.604-1.188 4.316-2.562 6.625-2.476 5.812-2.057 12.303-.438 18.375-2.676-2.444-3.794-4.291-4.238-7.98-.206-6.104 1.172-9.751 4.238-15.02h-2z" fill="#793102"/><path d="M438 282c2.867.573 3.861.861 6 3 .188 2.563.188 2.563 0 5-1 1-1 1-3.5 1.125C438 291 438 291 437 290c-.235-5.53-.235-5.53 1-8" fill="#6A2E02"/><path d="m308 209 3 1c-.507 3.719-1.116 6.735-3 10l-4-1c.615-6.523.615-6.523 2.563-8.937z" fill="#7B4006"/><path d="M224 197h4c.688 2.75.688 2.75 1 6-1.437 2.375-1.437 2.375-3 4l-4-1c.875-6.75.875-6.75 2-9" fill="#743904"/><path d="M587 403h4l1 8c-5.75.125-5.75.125-8-1 .75-4.75.75-4.75 3-7" fill="#713604"/><path d="m326 302 5 1c.125 6.75.125 6.75-1 9-3.875-.875-3.875-.875-5-2-.235-5.53-.235-5.53 1-8" fill="#6B3209"/><path d="m396 257 5 1c-.312 2.375-.312 2.375-1 5-3.228 2.152-4.284 2.2-8 2 .6-3.356 1.846-5.378 4-8" fill="#682D06"/><path d="M251 245c2.9.468 3.867.867 6 3-.375 2.625-.375 2.625-1 5l-6 1c-.098-6.152-.098-6.152 0-8z" fill="#793E05"/><path d="m234 175 4 1c.125 6.75.125 6.75-1 9l-5-1c-.25-5.625-.25-5.625 2-9" fill="#733904"/><path d="M204 359c.368 3.312.298 4.606-1.75 7.313C200 368 200 368 196 368c-.312-2.25-.312-2.25 0-5 2.78-2.78 4.011-4 8-4" fill="#5C1E00"/><path d="M265 188c3.875 1.875 3.875 1.875 5 3 .141 2.67.042 5.324 0 8-1.875-.25-1.875-.25-4-1-2.098-2.937-2.288-5.452-2-9z" fill="#743A04"/><path d="m486 182 3 1c.25 6.625.25 6.625-2 10h-3c-1.354-6.4-1.354-6.4.438-9.437z" fill="#753B04"/><path d="M465 163h2c1.753 2.68 2.013 3.869 1.688 7.125C468 173 468 173 467 175h-3c-1.39-2.78-1.185-4.919-1-8 1-2.375 1-2.375 2-4" fill="#793E05"/><path d="M155 79h2v3h19v1c-5.173 1.063-10.124 1.117-15.375 1.063l-2.52-.014q-3.053-.02-6.105-.049c1.875-3.875 1.875-3.875 3-5" fill="#E79D25"/><path d="M493 460h1l.367 1.715.508 2.223.492 2.214c.463 2.055.463 2.055 2.633 2.848l-1 3-10-2 3-1-1-4h3z" fill="#B95A0C"/><path d="m237 336 2 1q.039 2.156.063 4.313l.035 2.425C239 346 239 346 238 349l-4-2c.114-1.46.242-2.917.375-4.375.07-.812.14-1.624.21-2.46C235 338 235 338 237 336" fill="#561A00"/><path d="M358 277h3c1.381 2.763 1.19 4.947 1 8l-2 2c-2.125-.375-2.125-.375-4-1-.25-5.625-.25-5.625 2-9" fill="#763E0F"/><path d="M337 273c2.125.375 2.125.375 4 1 .93 2.606 1.15 3.642.063 6.25L340 282l-5-1c-.125-2.875-.125-2.875 0-6z" fill="#743904"/><path d="M97 75c4.048 1.589 6.376 4.306 9.25 7.5l1.39 1.512C111 87.74 111 87.74 111 90h-5l-1.207-2.266-1.606-2.984-1.582-2.953A54 54 0 0 0 97 75" fill="#A23903"/><path d="M137 165c-1.452 3.387-3.37 5.452-6 8l-2 3c-2.055-4.353-2.055-4.353-1.812-7.187 1.995-4.451 5.588-4 9.812-3.813" fill="#160703"/><path d="M155 140h1l.148 2.781c.405 6.648.936 12.833 2.852 19.219l-5-2a1304 1304 0 0 1-.062-6.625l-.036-3.727c.09-3.325.461-6.388 1.098-9.648" fill="#BD5B06"/><path d="M602 307h3c1.323 4.96 1.089 9.911 1 15l-4 1z" fill="#FBCD3C"/><path d="m354 298 3 1c.37 5.415.37 5.415-1.5 8.375L354 309l-3-1c.75-6.625.75-6.625 3-10" fill="#6E350C"/><path d="M213 273c3 1 3 1 5 4 .125 2.688.125 2.688 0 5l-5 1c-1.491-2.982-1.12-5.716-1-9z" fill="#662B01"/><path d="M278 180c4.706.706 4.706.706 6 2 .04 1.666.043 3.334 0 5-2.375.625-2.375.625-5 1-2-2-2-2-2.187-4.562C277 181 277 181 278 180" fill="#723804"/><path d="M150 93c.625 2.313.625 2.313 1 5l-2 3c-3.125.188-3.125.188-6 0 .37-2.741.686-4.586 2.375-6.812C147 93 147 93 150 93" fill="#763C05"/><path d="M450 260c2.125.375 2.125.375 4 1-.75 5.75-.75 5.75-3 8h-4c.75-6.75.75-6.75 3-9" fill="#B88015"/><path d="m249 152 3 1q.57 2.988 1 6l-1 1a177 177 0 0 1-7-1c.564-3.27 1.5-4.826 4-7" fill="#793E05"/><path d="M233 129q2.514.428 5 1c.125 2.375.125 2.375 0 5l-2 2c-2.625-.375-2.625-.375-5-1 .875-5.875.875-5.875 2-7" fill="#773B04"/><path d="M482 309h3c.25 6.625.25 6.625-2 10l-4-1c.498-3.735.875-5.812 3-9" fill="#713503"/><path d="M164 168c3.672 3.08 4.568 5.248 5 10h-5l-1-2h-3z" fill="#DBB18B"/><path d="M517 340c3.692.692 3.692.692 5 2a177 177 0 0 1-1 7c-3.875-.875-3.875-.875-5-2-.125-3-.125-3 0-6z" fill="#6D3002"/><path d="M419 239h3l-1 10h-4c-.195-6.055-.195-6.055 0-8z" fill="#6A2D02"/><path d="M354 223h3c-.615 6.523-.615 6.523-2.562 8.938-.475.35-.95.7-1.438 1.062l-3-1c.524-3.776 1.327-6.224 4-9" fill="#7A3F06"/><path d="m501 446 2 1-1.875 2.188c-3.542 4.687-4.378 8.279-4.25 14.125l.055 3.238L497 469c-2-1-2-1-3-4-.86-6.228.15-10.216 3.71-15.371C499 448 499 448 501 446" fill="#712F02"/><path d="M129 443c0 3.782-1.141 4.875-3.375 7.875-3.9 5.248-5.72 9.644-6.625 16.125h-1c-.777-8.028 1.22-12.574 6-19 1.59-1.833 3.176-3.39 5-5" fill="#6A2600"/><path d="M577 383h1l1 5 2-1-1 11h-4c-.09-5.152.153-9.92 1-15" fill="#BB6416"/><path d="m281 293 5 1v7l-4 2c-1-1-1-1-1.098-3.066l.036-2.497.027-2.503z" fill="#713704"/><path d="M247 281c3.875 1.75 3.875 1.75 5 4 .04 2 .043 4 0 6-4.875-1.875-4.875-1.875-6-3-.125-3-.125-3 0-6z" fill="#733904"/><path d="M511 187h3c-.875 7.75-.875 7.75-2 10h-4c.75-6.625.75-6.625 3-10" fill="#783D05"/><path d="m297 170 5 1v8c-1.875-.312-1.875-.312-4-1-2-3-2-3-1.625-5.687z" fill="#6F3503"/><path d="M273 345c1.938.375 1.938.375 4 1 1.354 2.709 1.065 5.01 1 8l-4 1c-1.607-3.215-1.057-6.436-1-10" fill="#531900"/><path d="M463 274c2.875-.125 2.875-.125 6 0 2 2 2 2 2.125 4.625L471 281c-2.741-.37-4.586-.686-6.812-2.375C463 277 463 277 463 274" fill="#763C05"/><path d="m393 237 3 2c.188 3.125.188 3.125 0 6a88 88 0 0 1-5 1c-1-1-1-1-1.25-3.375.25-2.625.25-2.625 1.75-4.437z" fill="#7A3F05"/><path d="M450 132v2a5059 5059 0 0 1-7.812 3.938l-2.237 1.13-2.158 1.084-1.984 1C434 142 434 142 431 143l-2-2q4.684-2.257 9.375-4.5l2.695-1.3 2.578-1.231 2.38-1.143C448 132 448 132 450 132" fill="#F9BF3B"/><path d="M614 462c2.95-.22 5.684-.28 8.625-.187l2.43.04c1.982.036 3.963.09 5.945.147l-1 3h-18z" fill="#4F1600"/><path d="M451 343h3c2.152 3.228 2.2 4.284 2 8l-4 1c-1.62-2.572-2.044-3.677-1.625-6.75z" fill="#622300"/><path d="M526 278h4c-.75 6.75-.75 6.75-3 9h-3c-.25-5.625-.25-5.625 2-9" fill="#672A01"/><path d="m336 248 3 1-1 7-5 1c.75-6.75.75-6.75 3-9" fill="#743904"/><path d="M534 221h3c.25 5.625.25 5.625-2 9l-4-1c.75-5.75.75-5.75 3-8" fill="#793E05"/><path d="M556 422h1c.402 6.166-1.032 11.177-3 17l-3-1q.68-2.876 1.375-5.75l.773-3.234c.727-2.575 1.555-4.692 2.852-7.016" fill="#BC5C09"/><path d="M547 395h1v16h2l-2 14h-1z" fill="#BC5C07"/><path d="M290 383h2q.039 2.438.063 4.875l.035 2.742C292 393 292 393 291 395l-3-1c-.25-7.625-.25-7.625 2-11" fill="#682C01"/><path d="M202 300c2.468 1.152 4.048 2.048 6 4v4c-2.375.188-2.375.188-5 0-2-3-2-3-1.625-5.687z" fill="#5D1E00"/><path d="M126 457c1 2 1 2 1 4l.563 1.625c.66 3.586-.023 6.777-.563 10.375h-3c-1.02-6.214-1.63-10.484 2-16" fill="#AA4901"/><path d="M585 365h3l-2 12-4-2 1-8h2z" fill="#CC7B0E"/><path d="m253 313 4 2v8h-3c-1.85-3.123-2.294-5.38-2-9z" fill="#6C2F02"/><path d="m582 375 4 2c-.25 3.313-.25 3.313-1 7l-4 3zm-44-20 4 2v6c-1.937.563-1.937.563-4 1-1-1-1-1-1.125-4.5C537 356 537 356 538 355" fill="#6D3002"/><path d="M454 324h3c1.354 2.709 1.065 5.01 1 8-1.937.563-1.937.563-4 1-1-1-1-1-1.125-3.937C453 326 453 326 454 324" fill="#571A00"/><path d="M253.688 192.375 256 193c-1.875 3.875-1.875 3.875-3 5-1.666.04-3.334.043-5 0v-4c3-2 3-2 5.688-1.625" fill="#7B4006"/><path d="M203.938 153.875C207 154 207 154 209 155v3c-2.709 1.354-5.01 1.065-8 1-.562-1.937-.562-1.937-1-4 1-1 1-1 3.938-1.125" fill="#743804"/><path d="m390 450 1 2-.937 2.375c-1.525 5.201-1.22 10.242-1.063 15.625-2.216-1.757-2.94-2.657-3.434-5.488-.008-6.177.345-9.784 4.434-14.512" fill="#620"/><path d="M478 293h3c.125 6.75.125 6.75-1 9l-4-1c.875-6.875.875-6.875 2-8" fill="#763B05"/><path d="m117 94 2 1c-1.436 3.187-3.203 5.622-5.5 8.25l-1.844 2.14C110 107 110 107 108 107c1.52-5.405 5.274-8.985 9-13" fill="#F8BD27"/><path d="m635 457 1 4 2.3-.91 3.013-1.152 2.988-1.16C647 457 647 457 650 458c-2.636 2.636-5.062 3.077-8.625 4.125l-3.602 1.07L635 464z" fill="#B55C0B"/><path d="M560 401h1c.195 6.158.12 12.135-2 18l-2 1c.516-6.499 1.467-12.662 3-19" fill="#BC5D0A"/><path d="M527 242h2c1.125 6.75 1.125 6.75 0 9l-4-1c-.125-2.875-.125-2.875 0-6z" fill="#783E05"/><path d="m179 189 1 3c-2.829 1.414-4.874 1.319-8 1-1.875-2-1.875-2-3-4 6.848-1.4 6.848-1.4 10 0" fill="#B77407"/><path d="M489 147c1.938.625 1.938.625 4 2 .75 3.125.75 3.125 1 6h-4c-2-3-2-3-1.625-5.687z" fill="#824707"/><path d="M210 315c3.875 1.75 3.875 1.75 5 4 .04 2 .043 4 0 6h-3c-1.604-3.508-2.22-6.144-2-10" fill="#581D00"/><path d="M291 260h3c1.354 2.709 1.065 5.01 1 8l-5-1c-.043-2-.04-4 0-6z" fill="#733804"/><path d="m345 215-1 7-4 1c-.687-2.312-.687-2.312-1-5 1.918-2.781 2.544-3 6-3" fill="#783E05"/><path d="M194 199c2.125.375 2.125.375 4 1v5l-5 1c-.625-2.375-.625-2.375-1-5z" fill="#733904"/><path d="M119 101q2.514.428 5 1l1 5h-6a88 88 0 0 1-1-5z" fill="#773D05"/><path d="m476 348 3 1c.625 2.313.625 2.313 1 5l-2 3-3-1q-.062-3.5 0-7z" fill="#5D1E00"/><path d="M455 295c2.063 1.75 2.063 1.75 4 4-.25 2.25-.25 2.25-1 4h-4c-.625-2.312-.625-2.312-1-5z" fill="#753904"/><path d="M382 257h3v7c-1.937.563-1.937.563-4 1-1-1-1-1-1.187-3.437C380 259 380 259 382 257" fill="#743A04"/><path d="M555 199c3 1 3 1 4 3 .04 2 .043 4 0 6h-3c-2.148-3.222-2.294-4.278-2-8z" fill="#743904"/><path d="M398 452c0 3 0 3-.937 5.063-1.528 4.224-1.734 8.479-2.063 12.937-2.372-2.372-2.32-3.006-2.375-6.25.091-5.147 1.722-8.097 5.375-11.75" fill="#5E1B00"/><path d="M517 263c-.25 2.875-.25 2.875-1 6-2.062 1.375-2.062 1.375-4 2-.687-2.312-.687-2.312-1-5 1.918-2.781 2.544-3 6-3" fill="#7A3F05"/><path d="M514 238v6l-5 1c-.687-1.812-.687-1.812-1-4 1.951-2.732 2.553-3 6-3" fill="#793E05"/><path d="m214 234 3 2c.188 3.125.188 3.125 0 6l-5 2z" fill="#743904"/><path d="M154 182v3c-2.187 1.824-2.187 1.824-5 3.688l-2.812 1.886L144 192l-2-1c1-3 1-3 3.25-4.352l2.75-1.273c3.226-1.352 3.226-1.352 6-3.375" fill="#D3AD8C"/><path d="M389 162a785 785 0 0 1-6.812 3.563l-1.948 1.037c-1.71.877-3.473 1.645-5.24 2.4l-3-1c12.429-8.286 12.429-8.286 17-6" fill="#E59A26"/><path d="m464 193 3 1v5l-5 1c-.687-1.812-.687-1.812-1-4 1.438-1.75 1.438-1.75 3-3" fill="#743A04"/><path d="M303 277h1q.757 3.124 1.5 6.25l.844 3.516C307 290 307 290 307 294l-4 1z" fill="#BA630B"/><path d="m219 183 4 1-1 5-4 1c-.625-1.812-.625-1.812-1-4z" fill="#773C05"/><path d="M138 207c-.988 1.488-.988 1.488-3 3a72 72 0 0 1-8.187.188l-2.272-.042A466 466 0 0 1 119 210v-1q4.185-.792 8.375-1.562l2.406-.46c5.992-1.091 5.992-1.091 8.219.022" fill="#E5BE98"/><path d="M170 83h10l-2 1v2h-2l-1.5 1.5L173 89h-2l1-5z" fill="#BD7613"/><path d="m589 336 4 2v6l-3 1c-1.478-2.957-1.06-5.742-1-9" fill="#692D02"/><path d="m484 231-1 7-4 1c-.366-4.517-.366-4.517 1.375-6.812C482 231 482 231 484 231" fill="#793E05"/><path d="M235 263h3c.625 2.375.625 2.375 1 5l-2 2h-3c-.043-2-.04-4 0-6z" fill="#773D05"/><path d="m248 171 3 2c.188 2.625.188 2.625 0 5h-4c-.625-1.812-.625-1.812-1-4z" fill="#864B08"/><path d="M121 91c2.625.375 2.625.375 5 1l-2 4h-5c0-3 0-3 2-5" fill="#773D05"/><path d="m180 371 2 1-1 6-4 1c-.37-4.554-.37-4.554 1.5-6.812z" fill="#5C1F00"/><path d="m295 335 4 1-1 5h-4z" fill="#6D3002"/><path d="m599 323 4 1 1 5h-4c-1-1-1-1-1.062-3.562z" fill="#9E640E"/><path d="m593 299 4 1v6l-3 1c-1.354-2.709-1.065-5.01-1-8" fill="#672C02"/><path d="m199 255 4 2v6l-4-1z" fill="#662A01"/><path d="m442 169 3 1v6h-4c-.043-2-.04-4 0-6z" fill="#763B05"/><path d="M452 150h2c.125 6.75.125 6.75-1 9h-3c.875-6.75.875-6.75 2-9" fill="#7D4206"/><path d="m162 91 4 1 1 4c-1.875.625-1.875.625-4 1l-2-2c.375-2.125.375-2.125 1-4" fill="#793E05"/><path d="M339 292h3v7h-4c-.043-2-.04-4 0-6z" fill="#763E10"/><path d="M473 249h2l-1 7h-4c.75-4.75.75-4.75 3-7" fill="#753A04"/><path d="m83 145 3 1v5h-4c-.625-1.875-.625-1.875-1-4z" fill="#7B3E05"/><path d="M578 409h2v9h-3c-.098-6.152-.098-6.152 0-8z" fill="#511700"/><path d="M553 375h3c2 3 2 3 2 7l-4-1z" fill="#6C2E02"/><path d="m196 174 5 1-1 4-5-1z" fill="#814205"/><path d="m494 166 2 1v5l-4 1c-.687-1.812-.687-1.812-1-4 1.438-1.75 1.438-1.75 3-3" fill="#793E05"/><path d="M590 358h4l1 6-4-1z" fill="#733904"/><path d="M258 298c2.063.438 2.063.438 4 1v5l-4-1c-.562-1.937-.562-1.937-1-4z" fill="#7D4206"/><path d="m217 248 4 1-1 5-4-1z" fill="#B77E14"/><path d="M361 180q2.514.428 5 1l-2 4-4-1c0-3 0-3 1-4" fill="#7F4307"/><path d="m182 177 4 1v5h-4z" fill="#783B04"/><path d="m271 171 4 2-1 4h-4a100 100 0 0 1 0-5z" fill="#7B4006"/><path d="M161 119h2v2h-2l2 2c-.375 2.625-.375 2.625-1 5l-3-1c-.125-2.875-.125-2.875 0-6z" fill="#2A1908"/><path d="M107 121h2v2h-2l2 2c-.375 2.625-.375 2.625-1 5h-3c-.25-5.625-.25-5.625 2-9" fill="#271706"/><path d="M105 110c.93 2.551 1.086 3.74.223 6.36l-1.16 2.39-1.153 2.422L102 123h-1c.44-5.196.883-8.663 4-13" fill="#F9BF28"/><path d="M564 376a105 105 0 0 1 5 4v2h-4l-2 4-1-6h3z" fill="#C5701D"/><path d="m409 297 3 1c-.312 2.375-.312 2.375-1 5l-3 2q-.062-3.5 0-7z" fill="#632400"/><path d="M501 296h2v6l-4 1c-.125-2.375-.125-2.375 0-5z" fill="#783D05"/><path d="M415 193h2v6l-4 1c-.125-2.375-.125-2.375 0-5z" fill="#793E05"/><path d="m425 150 3 1v6h-3a129 129 0 0 1-1-6z" fill="#7B4006"/><path d="m403 160 1 2c-.937 2.625-.937 2.625-2 5h-6c2.22-2.908 3.93-4.953 7-7" fill="#B07813"/><path d="M104 142h2c-1.557 4.671-4.084 8.087-7 12l-1-2c1.145-2.383 1.145-2.383 2.813-5.125l1.644-2.758c.51-.698 1.018-1.397 1.543-2.117" fill="#C05F05"/><path d="m302 357 2 1v5l-4 1c.875-5.875.875-5.875 2-7" fill="#703302"/><path d="M515 293h2v5l-4 2c-.125-2.375-.125-2.375 0-5z" fill="#6B2F02"/><path d="m209 191 3 1-1 6h-2a129 129 0 0 1-1-6z" fill="#864A08"/><path d="M222 137h4l-1 5-4-1z" fill="#743803"/><path d="m218 127 4 1v4l-5-1z" fill="#7A3F05"/><path d="m197 119 4 2-2 4-3-1z" fill="#834808"/><path d="M132 112h4l-1 5-4-1z" fill="#723804"/><path d="M589 373h3l1 6-4-1z" fill="#7A3F05"/><path d="M581 253h2c1.354 2.709 1.065 5.01 1 8-2.062-1.75-2.062-1.75-4-4 .25-2.25.25-2.25 1-4" fill="#652701"/><path d="m163 174 1 4h6v1c-9.41.185-9.41.185-14-1v-1l2.938-.375L162 176z" fill="#5E4631"/><path d="m425 173 3 1-1 5h-3a100 100 0 0 1 0-5zm-20-3 3 1-1 5h-3a100 100 0 0 1 0-5z" fill="#7C4106"/><path d="M240 141h7a707 707 0 0 1-2.875 3.438l-1.617 1.933C241 148 241 148 239 149a56.5 56.5 0 0 1 4-7z" fill="#E79F1F"/><path d="m106 167 6 1 2 6a962 962 0 0 1-4-2.937l-2.25-1.653L106 168z" fill="#190904"/><path d="m159 107 4 1v3l-7 1z" fill="#673D1F"/><path d="M544 430c2 2 2 2 2.195 4.383l-.07 2.742-.055 2.758L546 442h-1l-.437-2.312c-.526-2.77-.526-2.77-1.563-5.688.438-2.187.438-2.187 1-4" fill="#C1650D"/><path d="m586 275 3 2c.188 3.125.188 3.125 0 6h-2c-1.354-2.709-1.065-5.01-1-8" fill="#531800"/><path d="M449 261h1v8h-3c.875-6.875.875-6.875 2-8" fill="#814707"/><path d="m323 186 3 1-2 5-3-2z" fill="#743704"/><path d="m403 157-10 5c.188-1.875.188-1.875 1-4 3.436-1.95 5.295-2.098 9-1" fill="#E7A727"/><path d="M198 137h5l-1 4-4-1z" fill="#7C4106"/><path d="m198 82 1 3 6-1-1 3h-8z" fill="#923803"/><path d="M487 445h3c-1.118 3.354-2.748 5.312-5 8 .875-6.875.875-6.875 2-8" fill="#AC4C02"/><path d="M576 398h4l-1 5-3-1z" fill="#5B1E00"/><path d="m226 321 4 2v4h-3z" fill="#5A1C00"/><path d="m509 303 3 1v4h-4z" fill="#7A3A04"/><path d="M297 300h3v5l-4-1z" fill="#6F3202"/><path d="M423 290h3v7h-2z" fill="#491000"/><path d="M425 267h2v5l-4 1c.506-2.169 1-4 2-6" fill="#521400"/><path d="M210 207h2v2l2 1-3 2z" fill="#D08512"/><path d="M154 196h2c1.625 2 1.625 2 3 4l-2 4c-1.945-2.918-2.453-4.625-3-8" fill="#9F680B"/><path d="m120 188 2 1-2 1zm-3 6-3 3-3-3c3.75-1.125 3.75-1.125 6 0" fill="#DCB18B"/><path d="m159 178 3 1-2 3h-4l-1 2v-2l-2-1h5z" fill="#A37653"/><path d="m370 170-2 4-4-1v-2c2-1 2-1 6-1" fill="#783B05"/><path d="M273 158h3l-1 5h-3z" fill="#7B4006"/><path d="M109 107h2l2 3-1 3-5-2z" fill="#6E431F"/><path d="m279 250 3 1v4l-4-1z" fill="#753A04"/><path d="M424 218h3l-1 5-3-1z" fill="#884C09"/><path d="m489 147 4 2-1 3h-3c-.562-1.937-.562-1.937-1-4z" fill="#B67D15"/></svg>