<svg xmlns="http://www.w3.org/2000/svg" width="780" height="540"><path d="M393 45c2.706 1.353 2.67 2.544 3.625 5.375C401.676 63.382 412.293 73.445 423 82c4 4.54 4 4.54 4 7h2l-1-7c3.452 1.426 5.101 3.097 7.25 6.125l1.578 2.195L438 92l2.875-2.5C443.75 87 443.75 87 446 87l.664 1.574c2.358 5.185 4.73 8.077 9.336 11.426l-.25-3.5c.017-4.873 1.394-8.56 4.25-12.5 4.347-3.46 8.155-5.384 13.79-5.277C486.51 80.318 497.84 87.346 506 97c1.915 2.563 3.523 5.164 5 8l.969 1.824c3.067 6.773 3.374 14.956 1.129 22.012-.942 2.125-1.934 4.153-3.098 6.164 6.92 5.828 14.215 8.94 22.69 11.895 6.002 2.199 11.254 5.026 15.31 10.105.715 2.723.715 2.723 1 5h-3l1.172 1.25c4.633 5.138 8.572 10.173 9.078 17.25L556 183l-4-2 1 3c1.069 14.029-.844 24.831-10.105 35.969A77.5 77.5 0 0 1 530 231.063c-2.305 1.836-2.305 1.836-2.437 5 .251 3.12.251 3.12 2.437 5.937l-5-1-.297 1.758c-1.314 6.866-3.295 11.799-9.203 15.93-4.323 2.537-8.804 3.477-13.656 4.574-4.868 1.263-8.536 3.024-11.656 7.113L489 273l-1.254 2.508c-1.1 5.15.575 9.053 2.129 13.992 4.402 15.292 4.796 30.963 1.125 46.5l1.848-1.488C495 333 495 333 497.438 332.812c6.034 2.797 8.314 10.564 10.667 16.403 3.996 12.441 5.643 28.27.832 40.66-5.102 9.88-13.2 15.96-21.876 22.555-6.032 4.595-12.01 9.262-17.978 13.94q-1.974 1.545-3.955 3.081C458.64 434.5 452.698 439.475 449 447v2l2.309-1.094c12.288-5.523 12.288-5.523 18.691-3.906 2.547 1.434 3.97 2.813 6 5v2l3.625-.312c3.577.012 4.46.364 7.688 2.375 4.83 5.28 6.273 10.3 6.039 17.316-.978 7.288-4.126 13.516-9.352 18.621-4.512 3.43-6.862 4.175-12.5 3.813-3.33-.156-4.918-.214-7.691 1.695-1.71 1.763-3.25 3.597-4.809 5.492-2.93 1.465-5.678 1.021-8.906.938-2.154-.083-2.154-.083-4.094 1.062-2.99.03-5.968-.067-8.957-.16-3.152.166-5.168.93-8.043 2.16-6.417.99-11.736-.204-17-4-2.285-2.144-4.36-4.321-6-7v-3l-2.484-.184-3.266-.253-3.234-.247c-2.465-.258-4.63-.707-7.016-1.316-3.732-.12-7.082-.167-10.75.5-3.25.5-3.25.5-6.078.25-3.239-.255-5.977-.366-9.172.25-2.12 2.076-3.313 4.136-4.727 6.734-1.877 3.34-3.816 4.67-7.273 6.266a67 67 0 0 1-7.633.727c-2.379.134-2.379.134-4.328 1.28-2.619 1.275-4.638 1.259-7.539 1.243l-2.844.016c-2.696-.27-4.345-.893-6.656-2.266l-1 1c-4.643.169-6.92-.143-10.613-3.074a182 182 0 0 1-5.09-4.992C303.99 493.57 303.99 493.57 300 494l-2.469.996c-2.647 1.05-4.215 1.184-7.031 1.067a113 113 0 0 0-11.57.292l-2.764.194q-2.735.196-5.465.447c-8.169.549-14.049-1.822-20.514-6.746-5.99-5.642-7.437-10.657-7.687-18.875-.048-5.794.91-8.808 4.5-13.375 2-2 2-2 4.383-2.195l2.742.07 2.758.055L259 456l.938-2.937C261 450 261 450 262 449l-2.535-.445c-23.071-4.446-45.462-16.74-59.356-36.203-6.01-9.716-7.967-19.122-5.41-30.45 3.037-8.749 8.066-16.435 12.89-24.285 3.778-6.169 7.362-12.44 10.911-18.742l1.78-3.122c7.658-12.608 7.658-12.608 8.72-26.753-1.6-3.652-3.327-7.026-6-10-3.763-1.37-6.175-.892-9.875.438-4.227 1.354-7.647 2.165-12.125 1.562-5.865-3.098-7.231-5.523-9.125-11.625-2.142-9.535-.8-15.628 3.813-24.297 1.421-3.334 1.722-5.493 1.312-9.078l-2-2c8.836.145 15.516 3.545 21.809 9.797 1.379 1.64 1.379 1.64 3.191 4.203l3-1c2.283 3.424 2.217 4.85 2.313 8.875.266 5.044.266 5.044 3.312 9.063L231 287c-.085 3.57-.996 4.994-3 8 .306 4.001 1.78 6.4 4.063 9.625 3.429 5.66 4.264 9.87 2.937 16.375-3.673 11.242-9.914 21.134-16.059 31.164C212.481 362.727 207.091 372.9 204 385l-.566 2.121c-2.23 9.665 1.632 16.856 6.566 24.879 9.64 13.51 30.74 21.449 46.5 24.375a171 171 0 0 0 4.5.625l-2.937-2.687C249.205 425.365 243.888 416.224 241 404l-.526-1.874c-3.875-17.384.097-39.567 8.526-55.126 3.49-4.745 3.49-4.745 6-6 2.101-.123 4.207-.176 6.313-.187l3.425-.043c3.194.225 5.39.867 8.262 2.23l-.656-2.133C265.55 316.778 275.624 298.67 287 278l-2.562-.883c-9.602-3.47-17.353-6.964-22.438-16.117l-1-3-4 3-.297-2.117-.453-2.758-.422-2.742c-.606-2.441-.606-2.441-2.414-3.613-4.046-1.29-8.21-1.882-12.394-2.538-5.697-.97-11.278-2.506-15.02-7.232-2.618-7.853-.31-13.79 3-21h-5l1.5-1.562c2.075-3.372 1.82-5.509 1.5-9.438-1.058-2.549-2.107-4.8-3.437-7.187-3.997-7.4-5.673-13.331-4.563-21.813 4.42-12.968 12.62-19.734 24.438-25.75L246 152l-3-5 2.273-.078c6.535-.362 11.8-1.37 17.766-4.082C265 142 265 142 267 142l-1.312-1.695c-5.098-7.34-5.843-13.51-4.688-22.305 2.38-10.402 10.188-20.109 19-26 9.606-5.316 16.914-7.983 28-7 3.563 1.688 3.563 1.688 6 4l2.375 2.125c2.384 4.218 1.956 8.136 1.625 12.875l2.746-2.16 1.776-1.396 3.847-3.03a484 484 0 0 1 10.756-8.227C343.584 84.12 345.667 78.89 347 71a159 159 0 0 1 6 5v2h2l1-8h4c1.687-1.024 1.687-1.024 3.313-2.5 3.852-3.07 7.886-5.269 12.25-7.5 7.254-3.756 13.623-7.373 17.437-15" fill="#772600"/><path d="M195 254c8.836.145 15.516 3.545 21.809 9.797 1.379 1.64 1.379 1.64 3.191 4.203l3-1c2.283 3.424 2.217 4.85 2.313 8.875.266 5.044.266 5.044 3.312 9.063L231 287c-.085 3.57-.996 4.994-3 8 .306 4.001 1.78 6.4 4.063 9.625 3.429 5.66 4.264 9.87 2.937 16.375-3.673 11.242-9.914 21.134-16.059 31.164C212.481 362.727 207.091 372.9 204 385l-.566 2.121c-2.23 9.665 1.632 16.856 6.566 24.879 9.64 13.51 30.74 21.449 46.5 24.375a171 171 0 0 0 4.5.625l-2.937-2.687C249.205 425.365 243.888 416.224 241 404l-.526-1.874c-3.875-17.384.097-39.567 8.526-55.126 3.49-4.745 3.49-4.745 6-6 2.101-.123 4.207-.176 6.313-.187l3.425-.043c3.194.225 5.39.867 8.262 2.23l-.656-2.133C265.55 316.778 275.624 298.67 287 278l-2-2 3.516.402 4.734.536 2.481.283c4.672.524 9.326.932 14.019 1.216 4.338.367 7.763.735 11.25 3.563.875 3.688.875 3.688 1 7l5-2 .563 3.125c1.43 4.815 4.199 7.317 8.437 9.875 7.465 3.318 15.345 4.706 23.324 6.23 9.4 1.969 21.586 4.995 27.43 13.247 1.685 3.411 1.643 5.756 1.246 9.523-1.5 3.438-1.5 3.438-3 6 6.446-2.848 10.124-6.55 13.938-12.375 7.422-11.313 14.805-16.034 28.222-18.842l3.277-.658c14.954-3.237 29.899-7.189 42.563-16.125l2.813-1.812c3.243-3.244 5.141-7.114 7.187-11.188 4.84 4.334 5.738 8.724 7.25 14.875l.795 3.216c3.292 14.414 3.364 29.482-.045 43.909l1.848-1.488C495 333 495 333 497.438 332.812c6.034 2.797 8.314 10.564 10.667 16.403 3.996 12.441 5.643 28.27.832 40.66-5.102 9.88-13.2 15.96-21.876 22.555-6.032 4.595-12.01 9.262-17.978 13.94q-1.974 1.545-3.955 3.081C458.64 434.5 452.698 439.475 449 447v2l2.309-1.094c12.288-5.523 12.288-5.523 18.691-3.906 2.547 1.434 3.97 2.813 6 5v2l3.625-.312c3.577.012 4.46.364 7.688 2.375 4.83 5.28 6.273 10.3 6.039 17.316-.978 7.288-4.126 13.516-9.352 18.621-4.512 3.43-6.862 4.175-12.5 3.813-3.33-.156-4.918-.214-7.691 1.695-1.71 1.763-3.25 3.597-4.809 5.492-2.93 1.465-5.678 1.021-8.906.938-2.154-.083-2.154-.083-4.094 1.062-2.99.03-5.968-.067-8.957-.16-3.152.166-5.168.93-8.043 2.16-6.417.99-11.736-.204-17-4-2.285-2.144-4.36-4.321-6-7v-3l-2.484-.184-3.266-.253-3.234-.247c-2.465-.258-4.63-.707-7.016-1.316-3.732-.12-7.082-.167-10.75.5-3.25.5-3.25.5-6.078.25-3.239-.255-5.977-.366-9.172.25-2.12 2.076-3.313 4.136-4.727 6.734-1.877 3.34-3.816 4.67-7.273 6.266a67 67 0 0 1-7.633.727c-2.379.134-2.379.134-4.328 1.28-2.619 1.275-4.638 1.259-7.539 1.243l-2.844.016c-2.696-.27-4.345-.893-6.656-2.266l-1 1c-4.643.169-6.92-.143-10.613-3.074a182 182 0 0 1-5.09-4.992C303.99 493.57 303.99 493.57 300 494l-2.469.996c-2.647 1.05-4.215 1.184-7.031 1.067a113 113 0 0 0-11.57.292l-2.764.194q-2.735.196-5.465.447c-8.169.549-14.049-1.822-20.514-6.746-5.99-5.642-7.437-10.657-7.687-18.875-.048-5.794.91-8.808 4.5-13.375 2-2 2-2 4.383-2.195l2.742.07 2.758.055L259 456l.938-2.937C261 450 261 450 262 449l-2.535-.445c-23.071-4.446-45.462-16.74-59.356-36.203-6.01-9.716-7.967-19.122-5.41-30.45 3.037-8.749 8.066-16.435 12.89-24.285 3.778-6.169 7.362-12.44 10.911-18.742l1.78-3.122c7.658-12.608 7.658-12.608 8.72-26.753-1.6-3.652-3.327-7.026-6-10-3.763-1.37-6.175-.892-9.875.438-4.227 1.354-7.647 2.165-12.125 1.562-5.865-3.098-7.231-5.523-9.125-11.625-2.142-9.535-.8-15.628 3.813-24.297 1.421-3.334 1.722-5.493 1.312-9.078z" fill="#E36E08"/><path d="M391 49c0 4.204-1.721 5.628-4.469 8.68-4.24 3.887-9.062 6.854-13.91 9.925-7.082 4.41-7.082 4.41-11.496 11.207L360 82l-3-2-1 5-4-3-1.074 1.617c-3.637 5.09-7.467 8.752-12.488 12.383-6.17 4.48-10.046 9.215-13.438 16-.097 1.748-.13 3.5-.125 5.25l.008 3.008c.033 2.832.033 2.832.867 5.867.39 4.496-1.716 7.946-3.75 11.875l-5-3c-1.569 6.985-1.569 6.985-3 14l-6-2v6l-3.937-.48c-20.244-2.226-38.83.084-56.063 11.48a406 406 0 0 0-5 5h-2l-.812 1.625C239 173 239 173 237.375 175.688c-2.398 5.777-2.057 10.88.125 16.687 2.228 5.969 2.52 12.563.5 18.625 3.95-1.167 6.784-2.448 10-5l.297 2.09c1.936 12.167 6.328 22.201 16.453 29.66 4.901 3.245 11.185 7.25 17.25 7.25l-1-2c-1.28-14.347 5.504-25.975 14-37 2.375-2.687 2.375-2.687 5-5 .565-.518 1.13-1.036 1.71-1.57 4.906-4.191 10.184-7.055 15.978-9.805l2.196-1.048c4.036-1.85 7.654-3.085 12.116-3.577-2.46-4.51-5.603-8.185-9-12 5.402 1.31 9.088 5.433 12 10-1 3-1 3-2.683 3.948l-2.184.814-2.42.94-2.588.986C314.139 194.096 302.571 199.858 297 211l5-1-1.277 2.23-1.66 2.958-1.653 2.917c-1.316 2.702-1.983 4.939-2.41 7.895l2.875-1.5c4.64-2.03 9.149-1.77 14.125-1.5l-1 1.875c-1.142 2.035-1.142 2.035-1 4.125l1.977.367 2.648.508 2.602.492c2.773.633 2.773.633 5.68 1.696 3.478 1.054 6.343 1.136 9.968 1.062l3.492-.055L339 233v1l-7 1 2.492 1.617c8.459 5.604 15.909 11.738 22.363 19.66 3.006 2.415 5.1 2.125 8.895 1.973l3.547-.11L372 258l-2 5 1.75-1c2.25-1 2.25-1 6.25-1l1 6 1.426-1.715 1.887-2.223 1.863-2.214C386 259 386 259 389 258l2 5 2-4c5.75.875 5.75.875 8 2l-1-6c5.273.445 10.018 1.084 15 3l-2-6 3.5-1.312c5.034-2.495 7.46-6.318 10.563-10.875 2.684-3.897 5.729-7.345 8.937-10.813l1.5-1.73c6.533-7.138 17.786-15.775 27.5-17.27 5.016-.216 9.984-.176 15 0l-4-7c3.735.498 5.812.875 9 3-1.453-5.327-5.081-8.364-9-12 2.49-.687 4.379-1 7-1-6.665-4.084-6.665-4.084-13.562-7.75C467 184 467 184 466 182c9.979 1.919 18.768 6.29 26.14 13.297 1.858 1.701 3.774 3.046 5.86 4.453 5.729 4.197 11.802 11.06 13 18.25 6.985-4.6 11.491-12.461 13.676-20.48 1.054-8.19 1.803-16.017-3.192-22.97-1.684-1.759-3.498-3.145-5.484-4.55 9.911-.894 18.685 1.457 27 7-5.547-9.646-9.838-15.989-20-21l-2-1c-1.977-.062-3.956-.06-5.934-.027l-3.658.037q-3.793.051-7.586.117c-12.204.11-24.861-.532-34.197-9.377L468 144l-2.062-.312C464 143 464 143 462.313 139.813c-1.225-3.22-1.895-6.387-2.313-9.813l-1.715 1.969-2.223 2.531-2.214 2.531L452 139h-1l.14-3c.574-8.289.574-8.289-2.14-15.875-3.793-5.957-2.277-14.358-2-21.125a393 393 0 0 0-3.812 1.813l-2.145 1.019c-2.38 1.242-2.38 1.242-5.043 4.168l-3-13-2 7h-2l-9-18h3c4 4.343 4 4.343 4 7h2l-1-7c3.452 1.426 5.101 3.097 7.25 6.125l1.578 2.195L438 92l2.875-2.5C443.75 87 443.75 87 446 87l.664 1.574c2.358 5.185 4.73 8.077 9.336 11.426l-.25-3.5c.017-4.873 1.394-8.56 4.25-12.5 4.347-3.46 8.155-5.384 13.79-5.277C486.51 80.318 497.84 87.346 506 97c1.915 2.563 3.523 5.164 5 8l.969 1.824c3.067 6.773 3.374 14.956 1.129 22.012-.942 2.125-1.934 4.153-3.098 6.164 6.92 5.828 14.215 8.94 22.69 11.895 6.002 2.199 11.254 5.026 15.31 10.105.715 2.723.715 2.723 1 5h-3l1.172 1.25c4.633 5.138 8.572 10.173 9.078 17.25L556 183l-4-2 1 3c1.069 14.029-.844 24.831-10.105 35.969A77.5 77.5 0 0 1 530 231.063c-2.305 1.836-2.305 1.836-2.437 5 .251 3.12.251 3.12 2.437 5.937l-5-1-.297 1.758c-1.314 6.866-3.295 11.799-9.203 15.93-4.323 2.537-8.804 3.477-13.656 4.574-4.915 1.276-8.556 3.063-11.719 7.176-1.115 2.54-1.733 4.82-2.125 7.562l-4-3-1.18 1.941c-11.536 17.837-33.593 23.176-53.277 27.613l-4.615.98c-9.484 2.03-16.52 4.548-22.115 12.841A580 580 0 0 0 400 323c-3.697 5.683-7.568 10.349-14 13l-2-1 1.5-2.562c2.055-4.709 2.066-8.314.75-13.25-1.51-2.644-2.52-2.946-5.25-4.188l-2.27-1.148c-9.952-4.801-20.374-7.202-31.168-9.352-8.418-1.784-13.875-4.055-19.433-10.719-1.217-1.92-1.705-3.56-2.129-5.781l-4 1-.687-3.375c-.89-3.727-.89-3.727-3.58-4.819-2.668-.787-4.99-1.156-7.76-1.333l-2.88-.206-3.03-.204c-29.469-2.336-29.469-2.336-39.063-13.125-1.788-2.626-3.026-4.927-4-7.938l-4 3-.297-2.117-.453-2.758-.422-2.742c-.606-2.441-.606-2.441-2.414-3.613-4.046-1.29-8.21-1.882-12.394-2.538-5.697-.97-11.278-2.506-15.02-7.232-2.618-7.853-.31-13.79 3-21h-5l1.5-1.562c2.075-3.372 1.82-5.509 1.5-9.438-1.058-2.549-2.107-4.8-3.437-7.187-3.997-7.4-5.673-13.331-4.563-21.813 4.42-12.968 12.62-19.734 24.438-25.75L246 152l-3-5 2.273-.078c6.535-.362 11.8-1.37 17.766-4.082C265 142 265 142 267 142l-1.312-1.695c-5.098-7.34-5.843-13.51-4.688-22.305 2.38-10.402 10.188-20.109 19-26 9.606-5.316 16.914-7.983 28-7 3.563 1.688 3.563 1.688 6 4l2.375 2.125c2.384 4.218 1.956 8.136 1.625 12.875l2.746-2.16 1.776-1.396 3.847-3.03a484 484 0 0 1 10.756-8.227C343.584 84.12 345.667 78.89 347 71a159 159 0 0 1 6 5v2h2l1-8h4c1.687-1.024 1.687-1.024 3.313-2.5 3.833-3.057 7.838-5.228 12.187-7.437 5.884-3.013 10.841-6.3 15.5-11.063" fill="#581600"/><path d="M195 254c8.836.145 15.516 3.545 21.809 9.797 1.379 1.64 1.379 1.64 3.191 4.203l3-1c2.283 3.424 2.217 4.85 2.313 8.875.266 5.044.266 5.044 3.312 9.063L231 287c-.085 3.57-.996 4.994-3 8 .306 4.001 1.78 6.4 4.063 9.625 3.429 5.66 4.264 9.87 2.937 16.375-3.673 11.242-9.914 21.134-16.059 31.164C212.481 362.727 207.091 372.9 204 385l-.566 2.121c-2.23 9.665 1.632 16.856 6.566 24.879 9.64 13.51 30.74 21.449 46.5 24.375a171 171 0 0 0 4.5.625l-2.937-2.687C249.205 425.365 243.888 416.224 241 404l-.526-1.874c-3.875-17.384.097-39.567 8.526-55.126 3.49-4.745 3.49-4.745 6-6 2.08-.15 4.165-.221 6.25-.25l3.39-.078c3.931.384 6.121 1.052 9.36 3.328a51 51 0 0 1 3.125 7.438c5.987 15.947 15.757 29.855 25.867 43.449 2.665 3.595 5.156 7.286 7.62 11.021 1.844 2.779 3.773 5.495 5.7 8.217C325.72 427.615 334.85 441.399 337 458l-3-1c-3.438-.52-6.579-.679-10 0-2.548 2.002-4.284 4.266-6 7l-2-1v-2c-3.287-.67-3.287-.67-7 0-5.208 5.656-6.303 11.832-6.215 19.273.394 5 2.114 7.734 5.777 11.04 2.302 1.678 2.302 1.678 4.438 2.687l-.048-1.817a926 926 0 0 1-.14-8.245l-.076-2.858c-.06-5.846.523-9.893 3.264-15.08l1 2-1 3c-.48 5.894-.838 11.2 1.688 16.625 3.71 3.811 6.345 5.531 11.687 5.813 4.867-.163 7.686-1.624 11.625-4.438 2.53-3.794 2.468-6.616 2-11-1.242-6.115-2.88-12.129-5-18 2.969 2.545 4.362 5.49 6 9 3.662-3.311 4.84-7.07 6.5-11.625l.934-2.544c2.876-8.153 4.374-16.294 5.566-24.831l.526-2.616c.617-4.406.597-8.714.572-13.157l-.005-2.8c-.005-2.934-.018-5.868-.03-8.802q-.009-2.994-.014-5.988-.017-7.32-.049-14.637c2.346 2.346 2.7 3.823 3.563 7l.753 2.688c1.846 8.945 1.87 17.977 1.87 27.08.001 2.096.02 4.193.039 6.29.03 7.263-.407 14.184-1.764 21.342-.628 3.543-.762 6.876-.774 10.475l-.05 3.68c.56 5.307 2.026 8.284 6.062 11.789 3.814 1.913 6.936 2.271 11.113 2.156l2.136-.041c5.656-.224 10.546-.878 15.052-4.459 6.975-8.242 6.714-17.68 6-28-.413-2.891-.967-5.754-1.5-8.625-1.85-10.393-1.81-20.791-1.812-31.312l-.01-2.587c-.006-2.46.004-4.919.021-7.378l-.002-2.249c.055-4.048.509-7.203 2.303-10.849h1l.06 2.54c-.871 42.744-.871 42.744 11.94 82.46 1.891 1.155 1.891 1.155 4 1 1.784-1.18 1.784-1.18 3.25-2.937l1.578-1.715L424 459l2 1-1.207 1.215c-5.407 5.801-7.88 11.573-8.106 19.535.133 3.445.564 6.213 2.313 9.25 4.253 2.835 8.01 2.75 13 2 4.328-2.855 6.11-6.534 7.574-11.375.796-4.907.113-9.734-.574-14.625 4.453 4.453 4.586 11.22 5.438 17.195.523 2.613 1.244 4.51 2.562 6.805h6c2.798-4.72 3.413-8.556 3.25-13.937l-.016-2.053c-.067-4.424-.53-8.655-1.234-13.01 6.696 6.696 5.676 20.082 6 29h6c2.24-8.4 4.037-17.543.125-25.687-1.74-3.333-1.74-3.333-4.125-4.313a128 128 0 0 0-4.375.25c-2.457.047-2.457.047-4.625-.25a210 210 0 0 1-4-5c-3.978-.642-6.39-.985-9.852 1.133-1.85 1.49-1.85 1.49-4.148 3.867l-7-3c2.13-18.944 8.977-33.129 19.478-48.72 2.997-4.488 5.84-9.073 8.708-13.643 2.57-4.092 5.154-8.173 7.802-12.215 8.964-13.766 16.61-28.202 23.735-43 1.632-3.095 3.276-4.635 6.277-6.422 2.5-.25 2.5-.25 5 1 10.858 12.772 12.016 30.532 11.238 46.453-1.002 10.717-7.198 18.347-15.168 24.988-2.967 2.378-5.982 4.688-9.009 6.99-6.032 4.594-12.01 9.261-17.978 13.938q-1.974 1.545-3.955 3.082C458.64 434.5 452.698 439.475 449 447v2l2.309-1.094c12.288-5.523 12.288-5.523 18.691-3.906 2.547 1.434 3.97 2.813 6 5v2l3.625-.312c3.577.012 4.46.364 7.688 2.375 4.83 5.28 6.273 10.3 6.039 17.316-.978 7.288-4.126 13.516-9.352 18.621-4.512 3.43-6.862 4.175-12.5 3.813-3.33-.156-4.918-.214-7.691 1.695-1.71 1.763-3.25 3.597-4.809 5.492-2.93 1.465-5.678 1.021-8.906.938-2.154-.083-2.154-.083-4.094 1.062-2.99.03-5.968-.067-8.957-.16-3.152.166-5.168.93-8.043 2.16-6.417.99-11.736-.204-17-4-2.285-2.144-4.36-4.321-6-7v-3l-2.484-.184-3.266-.253-3.234-.247c-2.465-.258-4.63-.707-7.016-1.316-3.732-.12-7.082-.167-10.75.5-3.25.5-3.25.5-6.078.25-3.239-.255-5.977-.366-9.172.25-2.12 2.076-3.313 4.136-4.727 6.734-1.877 3.34-3.816 4.67-7.273 6.266a67 67 0 0 1-7.633.727c-2.379.134-2.379.134-4.328 1.28-2.619 1.275-4.638 1.259-7.539 1.243l-2.844.016c-2.696-.27-4.345-.893-6.656-2.266l-1 1c-4.643.169-6.92-.143-10.613-3.074a182 182 0 0 1-5.09-4.992C303.99 493.57 303.99 493.57 300 494l-2.469.996c-2.647 1.05-4.215 1.184-7.031 1.067a113 113 0 0 0-11.57.292l-2.764.194q-2.735.196-5.465.447c-8.169.549-14.049-1.822-20.514-6.746-5.99-5.642-7.437-10.657-7.687-18.875-.048-5.794.91-8.808 4.5-13.375 2-2 2-2 4.383-2.195l2.742.07 2.758.055L259 456l.938-2.937C261 450 261 450 262 449l-2.535-.445c-23.071-4.446-45.462-16.74-59.356-36.203-6.01-9.716-7.967-19.122-5.41-30.45 3.037-8.749 8.066-16.435 12.89-24.285 3.778-6.169 7.362-12.44 10.911-18.742l1.78-3.122c7.658-12.608 7.658-12.608 8.72-26.753-1.6-3.652-3.327-7.026-6-10-3.763-1.37-6.175-.892-9.875.438-4.227 1.354-7.647 2.165-12.125 1.562-5.865-3.098-7.231-5.523-9.125-11.625-2.142-9.535-.8-15.628 3.813-24.297 1.421-3.334 1.722-5.493 1.312-9.078z" fill="#B33301"/><path d="M338 127c6.166.316 10.206 3.44 15 7l2.477 1.777c3.049 2.686 5.109 5.601 7.336 8.973l1.232 1.824A695 695 0 0 1 367 151l3-1 6 11 1.813-5.312c1.242-3.64 2.21-6.188 5.187-8.688l2 4 .996-1.469c5.779-8.143 12.634-13.981 21.192-19.031l1.763-1.062c3.831-2.162 6.676-3.143 11.049-2.438 10.367 6.778 17.75 17.543 22 29v2l-6 2v2h6v2l-2.312 2.125c-3.297 3.526-4.22 6.319-5.688 10.875l2.422.113c16.51.989 34.333 5.512 47.578 15.887-2.49.687-4.379 1-7 1l1.46 1.426c.633.622 1.264 1.245 1.915 1.887l1.898 1.863C484 201 484 201 486 204l-1 3-6-3-1 1 2 5-2.93.078c-18.281.797-31.004 9.025-43.566 22.008-3.31 3.851-6.028 7.944-8.652 12.285-2.621 3.721-5.228 6.196-9.664 7.379L413 252l2 6-15-3 1 6-8-2-1 6c-2.36-2.36-2.491-3.779-3-7a2696 2696 0 0 0-3.812 3.313l-2.145 1.863A101 101 0 0 0 378 268v-7l-9 3 2-5-2.45.176-3.238.137-3.199.175c-4.166-.653-5.402-2.33-8.113-5.488-6.335-6.836-12.438-11.859-20.508-16.406L331 236v-2l-3.625-.375c-3.673-.456-6.866-1.432-10.375-2.625-3.32-.735-6.656-1.379-10-2l5-6q-3.126.465-6.25.938l-3.516.527c-2.465.408-4.828.874-7.234 1.535.385-6.165 2.47-9.986 6-15h-4c2.413-8.848 10.965-13.653 18.355-18.066 5.935-3.275 12.29-5.614 18.645-7.934-1.341-4.102-2.983-6.268-6.25-9.062l-2.418-2.07c-2.683-2.149-5.442-4.015-8.332-5.868v-1l7-1-3-1.625c-3-2.375-3-2.375-3.336-5.207C318.753 148.901 327.726 139.806 334 132l2.305-2.883z" fill="#FE9710"/><path d="M195 254c8.836.145 15.516 3.545 21.809 9.797 1.379 1.64 1.379 1.64 3.191 4.203l3-1c2.283 3.424 2.217 4.85 2.313 8.875.266 5.044.266 5.044 3.312 9.063L231 287c-.085 3.57-.996 4.994-3 8 .306 4.001 1.78 6.4 4.063 9.625 3.429 5.66 4.264 9.87 2.937 16.375-3.673 11.242-9.914 21.134-16.059 31.164C212.481 362.727 207.091 372.9 204 385l-.566 2.121c-2.23 9.665 1.632 16.856 6.566 24.879 9.64 13.51 30.74 21.449 46.5 24.375a171 171 0 0 0 4.5.625l-2.937-2.687C249.205 425.365 243.888 416.224 241 404l-.526-1.874c-3.875-17.384.097-39.567 8.526-55.126 3.49-4.745 3.49-4.745 6-6 2.143-.123 4.29-.176 6.438-.187l3.496-.043C268 341 268 341 271 343v3a159 159 0 0 0 3.367 7.422l1.072 2.233q1.132 2.353 2.275 4.701a951 951 0 0 1 3.364 7.03C285.96 377.537 291.581 386.76 298 396c8.947 13.596 16.992 26.71 17.313 43.438l.113 3.87c-.582 5.041-2.778 7.926-6.176 11.567-3.371 1.686-6.559 1.862-10.25 1.125l-4-4c-3.595-.248-3.595-.248-7 1-1.844 2.461-1.844 2.461-3 5h-2c-1.508-2.187-1.508-2.187-3.125-5l-1.633-2.812L277 448c0 1.773 1.357 3.122 2.313 4.563 4.802 7.694 6.712 14.271 5.687 23.437-1.617 4.68-3.663 7.548-8 10-4.696.85-8.05.484-12.312-1.687-2.639-2.27-4.724-4.442-6.688-7.313v-2h-2l-1-10v19l-4 1c-4.875-5.75-4.875-5.75-6-8l-2 2a364 364 0 0 1-.25-7.125l-.102-2.016c-.1-5.148 1.167-7.884 4.352-11.859 2-2 2-2 4.383-2.195l2.742.07 2.758.055L259 456l.938-2.937C261 450 261 450 262 449l-2.535-.445c-23.071-4.446-45.462-16.74-59.356-36.203-6.01-9.716-7.967-19.122-5.41-30.45 3.037-8.749 8.066-16.435 12.89-24.285 3.778-6.169 7.362-12.44 10.911-18.742l1.78-3.122c7.658-12.608 7.658-12.608 8.72-26.753-1.6-3.652-3.327-7.026-6-10-3.763-1.37-6.175-.892-9.875.438-4.227 1.354-7.647 2.165-12.125 1.562-5.865-3.098-7.231-5.523-9.125-11.625-2.142-9.535-.8-15.628 3.813-24.297 1.421-3.334 1.722-5.493 1.312-9.078z" fill="#B75203"/><path d="M312 284c2.833.306 4.561.624 6.75 2.5 1.846 3.691 1.997 7.42 2.25 11.5l3-3c1.5 1.375 1.5 1.375 3 3v2l1.719.846q2.24 1.133 4.435 2.353c6.493 3.51 12.673 5.097 19.909 6.363 9.34 1.664 18.276 3.4 25.437 10.063.65.59 1.3 1.18 1.969 1.79 2.772 2.87 2.853 5.413 2.832 9.343-.514 3.83-2.344 6.958-4.301 10.242 10.928-2.977 18.595-6.67 24.563-16.562C410.056 313.698 419.34 310.916 431 308c4.622-1.058 9.26-2.049 13.895-3.048 9.557-2.137 18.386-5.465 27.105-9.952-.672 3.806-1.727 7.352-3 11h-2l-.664 2.781c-1.942 7.516-3.946 13.464-9.336 19.219l-1.672 1.941c-4.518 4.934-9.578 8.24-15.24 11.684-4.451 2.774-7.652 5.74-10.756 9.941L428 353h-3l-1.187 2.188c-3.237 5.021-8.534 7.255-13.875 9.625-7.169 3.492-11.36 10.318-14.938 17.187h-1l-1-9-1.758 2.59-2.367 3.348-1.148 1.708c-2.051 2.854-3.428 4.25-6.774 5.416-4.438-.093-6.019-1.99-9.117-4.945C368.919 377.753 366 373.6 366 369h-2l-.375 2.438L363 374l-2 1-4-14-2 4-1.215-2.781c-5.243-11.514-11.553-17.53-22.62-23.766-3.044-2.044-4.312-4.34-6.165-7.453h-3c-5.096-5.503-5.472-11.85-6-19l-3 3c-2.716-8.148-1.666-17.362 2-25l-5 3c.875-6.75.875-6.75 2-9" fill="#FEF7B9"/><path d="M297 288c4.757 4.363 5.766 10.24 7.375 16.25q.926 3.27 1.86 6.54l.915 3.227c3.538 12.421 8.206 22.746 14.95 33.814 10.52 17.284 18.043 34.65 18.15 55.169l.063 2.984c.05 9.23.05 9.23-3.313 13.016-3.55 1.376-5.786 1.507-9.328.027C300.87 403.9 280.39 368.77 272 340l-.797-2.559c-1.812-6.672-1.379-13.584-1.203-20.441l2 2 1.102-3.148C283.626 286.395 283.626 286.395 297 288" fill="#FE9811"/><path d="M497.5 332.75c5.955 2.978 8.24 10.596 10.605 16.465 3.996 12.441 5.643 28.27.832 40.66-5.102 9.88-13.2 15.96-21.876 22.555-6.032 4.595-12.01 9.262-17.978 13.94q-1.974 1.545-3.955 3.081C458.64 434.5 452.698 439.475 449 447v2l2.309-1.094c12.288-5.523 12.288-5.523 18.691-3.906 2.547 1.434 3.97 2.813 6 5v2l3.625-.312c3.577.012 4.46.364 7.688 2.375 4.905 5.36 6.187 10.333 5.992 17.425-.467 3.85-1.734 6.977-3.305 10.512-6.152.098-6.152.098-8 0-2.073-2.073-1.372-6.38-1.5-9.25-.308-6.927-.308-6.927-1.5-13.75l.25 3.688c-.006 3.259-.244 4.301-1.937 7.25-2.57 2.291-3.993 2.539-7.313 3.062l-.77-2.117-1.043-2.758-1.019-2.742c-1.064-2.677-1.064-2.677-4.168-4.383-2.157-.055-2.157-.055-4.437.188-2.43.074-2.43.074-4.563-.188a210 210 0 0 1-4-5c-3.978-.642-6.39-.985-9.852 1.133-1.85 1.49-1.85 1.49-4.148 3.867l-7-3c2.13-18.944 8.977-33.129 19.478-48.72 2.997-4.488 5.84-9.073 8.708-13.643 2.57-4.092 5.154-8.173 7.802-12.215 8.964-13.766 16.61-28.202 23.735-43 2.026-3.841 4.356-6.23 8.777-6.672" fill="#B85304"/><path d="M338 127c6.192.318 10.168 3.46 15 7l2.938 2.125c2.05 1.863 3.056 3.315 4.062 5.875-4.345-1.658-8.33-3.744-12.402-5.977-3.16-1.245-5.227-1.48-8.598-1.023-6.36 4.539-12.156 11.312-13.562 19.125.77 3.943 2.494 5.365 5.562 7.875l2.125 1c3.579 1.909 4.576 5.027 5.727 8.773A323 323 0 0 1 341 180l3.938-.437L359 178c-2.372 1.234-4.757 2.323-7.22 3.371-5.59 2.386-11.055 5.04-16.533 7.672q-2.006.96-4.015 1.914-2.924 1.389-5.841 2.793l-3.5 1.672c-2.474 1.35-4.088 2.453-5.891 4.578h3c-1.383 2.869-2.921 5.56-4.625 8.25l-1.352 2.14L312 212l2.5.063c4.319 1.156 6.398 3.194 9.57 6.246 3.663 3.21 6.332 3.944 11.18 3.816l2.703-.055L340 222l1-2-10-1v-1l11 1-.21-3.875c-.598-15.405-.598-15.405 2.647-19.812 1.645-1.68 1.645-1.68 3.563-3.313l2.262-2.133c3.433-3.167 6.975-6.1 10.738-8.867l2 1-1.496 1.426-1.942 1.887-1.933 1.863c-1.851 1.83-1.851 1.83-2.629 4.824l2 1c-2.769 2.974-5.523 4.932-9 7-1.496 2.992-1.427 4.642-1 8 4.306 9.039 12.324 15.64 21.547 19.332 5.543 1.51 11.382 2.074 16.715-.367 2.134-1.506 3.906-3.103 5.738-4.965l2.055-2.086c4.067-4.374 7.415-8.91 10.425-14.066 2.34-2.846 5.034-3.58 8.582-4.22 4.181-.142 5.503.011 8.875 2.81L423 207l1 1c-.39 4.966-1.177 8.864-4 13-2.912.954-5.206 1.5-8.187 1.875l-2.272.352c-1.843.281-3.692.53-5.541.773q2.342-.508 4.688-1l2.636-.562c2.613-.428 5.034-.514 7.676-.438-2.784 5.076-6.408 9.483-10 14l3.375.313L416 237c2 3 2 3 2 6.5-1 3.5-1 3.5-3.812 5.375-2.401.847-4.691 1.645-7.188 2.125v3l-7 1 1 6-8-2-1 6c-2.36-2.36-2.491-3.779-3-7a2696 2696 0 0 0-3.812 3.313l-2.145 1.863A101 101 0 0 0 378 268v-7l-9 3 2-5-2.45.176-3.238.137-3.199.175c-4.166-.653-5.402-2.33-8.113-5.488-6.335-6.836-12.438-11.859-20.508-16.406L331 236v-2l-3.625-.375c-3.673-.456-6.866-1.432-10.375-2.625-3.32-.735-6.656-1.379-10-2l5-6q-3.126.465-6.25.938l-3.516.527c-2.465.408-4.828.874-7.234 1.535.385-6.165 2.47-9.986 6-15h-4c2.413-8.848 10.965-13.653 18.355-18.066 5.935-3.275 12.29-5.614 18.645-7.934-1.341-4.102-2.983-6.268-6.25-9.062l-2.418-2.07c-2.683-2.149-5.442-4.015-8.332-5.868v-1l7-1-3-1.625c-3-2.375-3-2.375-3.336-5.207C318.753 148.901 327.726 139.806 334 132l2.305-2.883z" fill="#E06C08"/><path d="M547 176c6.75-.125 6.75-.125 9 1v6l-4-2 1 3c1.069 14.029-.844 24.831-10.105 35.969A77.5 77.5 0 0 1 530 231.063c-2.305 1.836-2.305 1.836-2.437 5 .251 3.12.251 3.12 2.437 5.937l-5-1-.297 1.758c-1.314 6.866-3.295 11.799-9.203 15.93-4.323 2.537-8.804 3.477-13.656 4.574-4.915 1.276-8.556 3.063-11.719 7.176-1.115 2.54-1.733 4.82-2.125 7.562l-4-3-1.18 1.941c-11.536 17.837-33.593 23.176-53.277 27.613l-4.615.98c-9.484 2.03-16.52 4.548-22.115 12.841A580 580 0 0 0 400 323c-3.697 5.683-7.568 10.349-14 13l-2-1 1.5-2.562c2.055-4.709 2.066-8.314.75-13.25-1.51-2.644-2.52-2.946-5.25-4.188l-2.27-1.148c-9.952-4.801-20.374-7.202-31.168-9.352-8.418-1.784-13.875-4.055-19.433-10.719-1.217-1.92-1.705-3.56-2.129-5.781l-4 1-.687-3.375c-.89-3.727-.89-3.727-3.58-4.819-2.668-.787-4.99-1.156-7.76-1.333l-2.88-.206-3.03-.204c-29.469-2.336-29.469-2.336-39.063-13.125-1.788-2.626-3.026-4.927-4-7.938l-4 3-.297-2.117-.453-2.758-.422-2.742c-.606-2.441-.606-2.441-2.414-3.613-4.046-1.29-8.21-1.882-12.394-2.538-5.23-.891-9.553-2.423-13.895-5.607-1.555-2.246-1.341-3.96-1.125-6.625l2.012 1.969c3.66 2.487 6.536 2.537 10.8 2.531 6.372.193 10.894.794 16.188 4.5 1.195 2.137 1.195 2.137 2 4l3-8a107 107 0 0 1 3.41 5.418c6.843 11.47 15.405 18.813 28.27 22.691 5.595 1.337 11.26 1.247 16.986 1.282 5.929.163 9.478 1.136 14.334 4.609 2 3 2 3 2 7l1.875-1.875L331 275l1.434 2.414C338.129 286.541 343.53 292.041 354 295c2.569.342 5.11.63 7.688.875C373.957 297.29 382.51 300.613 391 310c1.627 2.304 2.8 4.436 4 7a725 725 0 0 0 3.375-5.125l1.898-2.883c1.88-2.897 1.88-2.897 2.391-6.172C404 300 404 300 405.806 299.005c5.27-1.854 10.675-2.666 16.194-3.38 17.12-2.493 35.25-6.938 47-20.625 2.167-3.26 4.134-6.629 5.995-10.072.927-1.686 1.958-3.314 3.005-4.928h3l3 6 2-3c4.285-6.428 9.963-8.51 17.188-10.437 4.458-1.274 6.974-2.75 9.812-6.563 2.848-5.966 2.78-12.706 1-19 4.75.75 4.75.75 7 3l.996-1.54c2.777-4.018 5.338-6.921 9.504-9.523 8.717-5.47 13.017-13.178 16.129-22.902 1.173-6.435.784-13.678-.629-20.035" fill="#440F02"/><path d="M420 127c10.367 6.778 17.75 17.543 22 29v2l-6 2v2h6v2l-2.312 2.125c-2.459 2.63-3.227 3.817-4.356 7.055l-.77 2.171L434 177l-3.758-.184c-16.076-.766-32.156-1.308-48.242-1.816v-1l15-1c-16.104-.347-16.104-.347-32 2l-1 1 13-1v1c-6.119 1.117-12.166 2.072-18.375 2.5-4.204.301-7.645 1.078-11.625 2.5-3.25.313-3.25.313-6 0-1.985-2.977-2.683-5.075-3.562-8.5-.746-2.873-1.499-5.683-2.438-8.5l-2.25-.875c-3.542-1.449-5.373-3.136-7.75-6.125-.82-3.277-.456-5.108 1.074-8.102 1.519-2.42 3.159-4.652 4.926-6.898l1.863-2.39c4.591-5.263 4.591-5.263 8.297-6.094 5.622.277 9.961 2.985 14.578 6.011 2.174 1.503 2.174 1.503 4.383 2.407 2.392 1.357 3.257 2.828 4.629 5.191l1.297 2.195L367 151l3-1 6 11 1.813-5.312c1.242-3.64 2.21-6.188 5.187-8.688l2 4 .996-1.469c5.779-8.143 12.634-13.981 21.192-19.031l1.763-1.062c3.831-2.162 6.676-3.143 11.049-2.438" fill="#FC9611"/><path d="M484.125 298.875c2.749 1.65 3.565 3.193 4.875 6.125.397 2.673.728 5.314 1 8l.252 2.408c1.011 10.557 1.84 20.004-3.243 29.666-1.214 2.316-2.347 4.667-3.49 7.02-6.649 13.422-14.464 25.861-22.797 38.288a224 224 0 0 0-4.652 7.407l-1.333 2.207a289 289 0 0 0-2.33 3.959C449.689 408.473 446.38 412.02 442 415c-3.125.75-3.125.75-6 0-5.362-5.24-7.24-10.08-7.38-17.535.048-22.026 9.11-35.925 24.032-51.176 9.921-10.425 15.648-22.303 21.116-35.449 4.984-11.649 4.984-11.649 10.357-11.965" fill="#FE9811"/><path d="M264 348c4.354 4.388 6.386 8.71 8.375 14.5l.882 2.483c17.882 50.939 17.882 50.939 13.555 64.83-2.508 4.41-4.921 7.557-9.812 9.187-6.174.605-9.802-1.063-15-4l-2.094-1.004c-8.409-4.394-14.173-14.478-17.082-23.125L242 408l-1.082-3.66c-1.23-5.051-1.3-10.036-1.293-15.215v-3.035c.167-11.012 1.985-21.927 6.375-32.09l2 1 2.25-2.875c4.224-4.99 7.201-5.963 13.75-4.125" fill="#CB7207"/><path d="M490.715 84.32c8.821 4.975 15.6 11.684 20.285 20.68l.969 1.824c3.005 6.636 3.351 14.682 1.304 21.649-2.388 5.193-5.721 8.315-10.937 10.793-9.828 3.267-19.076 3.124-29.336 2.734l2-6-10 2-.332-2.16c-.946-5.716-2.122-10.632-4.668-15.84l-1.937 3-2.063 3h-1a440 440 0 0 1-.562-4.687l-.317-2.637c-.125-2.766.311-4.978.879-7.676q.027-2.563-.062-5.125c-.055-8.11.31-16.67 6.062-22.875 9.874-6.862 19.6-3.599 29.715 1.32" fill="#E16E0A"/><path d="M311.563 86.688 314 89l2.313 2.063c3.246 5.65 2.745 12.311 2.625 18.687-.054 3.005.192 4.662 1.125 7.625 1.298 5.022.619 9.532-.063 14.625-2.43-2.274-3.428-3.683-4-7h-2c-1.72 5.98-3.312 11.808-4 18l-6.055-.781c-1.95-.256-1.95-.256-3.945-.219l2 5c-26.973 1.114-26.973 1.114-35-5-4.955-5.012-6.368-10.048-6.625-17 .633-12.718 6.733-21.667 15.875-30.25 9.463-7.688 23.57-13.625 35.313-8.062" fill="#E06C08"/><path d="M312 284c2.833.306 4.561.624 6.75 2.5 1.846 3.691 1.997 7.42 2.25 11.5l3-3c1.5 1.375 1.5 1.375 3 3v2l1.719.846q2.24 1.133 4.435 2.353c6.493 3.51 12.673 5.097 19.909 6.363 9.34 1.664 18.276 3.4 25.437 10.063.65.59 1.3 1.18 1.969 1.79 2.772 2.87 2.853 5.413 2.832 9.343-.514 3.83-2.344 6.958-4.301 10.242 10.928-2.977 18.595-6.67 24.563-16.562C410.056 313.698 419.34 310.916 431 308c4.622-1.058 9.26-2.049 13.895-3.048 9.557-2.137 18.386-5.465 27.105-9.952-.672 3.806-1.727 7.352-3 11h-2l-.664 2.781c-1.942 7.516-3.946 13.464-9.336 19.219l-1.672 1.941c-4.518 4.934-9.578 8.24-15.24 11.684-4.451 2.774-7.652 5.74-10.756 9.941L428 353h-3l-1.187 2.188c-3.237 5.021-8.534 7.255-13.875 9.625-7.169 3.492-11.36 10.318-14.938 17.187h-1l-1-9-1.758 2.59-2.367 3.348-1.148 1.708c-2.051 2.854-3.428 4.25-6.774 5.416-4.438-.093-6.019-1.99-9.117-4.945C368.919 377.753 366 373.6 366 369h-2l-.375 2.438L363 374l-2 1-4-14-2 4-1.215-2.781c-5.243-11.514-11.553-17.53-22.62-23.766-3.044-2.044-4.312-4.34-6.165-7.453h-3c-5.096-5.503-5.472-11.85-6-19l-3 3c-2.716-8.148-1.666-17.362 2-25l-5 3c.875-6.75.875-6.75 2-9m10 22c-.32 3.288-.32 3.288-.25 7l-.016 3.813c-.072 3.28-.072 3.28 2.266 5.187l1-6h2l.125 3c1.402 8.89 9.16 14.046 15.677 19.41 5.059 4.252 8.836 8.877 12.198 14.59 2.277-2.815 2.277-2.815 2-6h2l.25 3.438c.596 4.97 2.538 9.117 4.75 13.562 1.746-3.216 2.204-5.32 2-9h2l.445 1.652c2.122 7.134 5.211 14.119 11.555 18.348 2.981.547 2.981.547 6 0 1.994-1.922 1.994-1.922 3.438-4.562C392.708 365.32 396.42 359.79 402 357l-.691 1.61-.872 2.14-.878 2.11c-.637 2.44-.361 3.78.441 6.14l1.031-1.793c3.98-6.487 8.007-10.307 15.153-13.043 4.348-1.708 4.348-1.708 6.843-5.496q.718-2.644 1.32-5.316c.826-2.975 2.214-4.501 4.653-6.352v6h2c1.31-1.79 1.31-1.79 2.625-4.062 4.605-7.131 10.973-11.793 17.809-16.676 1.706-1.196 1.706-1.196 2.566-3.262.626-5.371.626-5.371-1.5-10-6.31-2.524-12.307-.796-18.312 1.625l-2.109.831c-12.938 5.216-22.03 12.126-31.614 22.212-2.43 2.3-4.523 3.652-7.527 5.082l-2.536 1.234c-3.84 1.624-6.988 2.14-11.152 2.079l-2.422-.028L375 342c.613-2.962 1.254-4.38 3-7 .81-4.973-.663-8.076-3.375-12.105-5.556-6.478-13.474-8.922-21.687-9.707-7.916-.899-15.65-2.943-22.106-7.829-3.293-2.443-5.996-2.195-8.832.641" fill="#FDD379"/><path d="M269 343c2.309.043 2.309.043 5 1 1.271 2.478 2.176 4.699 3.063 7.313 6.026 15.99 15.785 29.935 25.93 43.574 2.664 3.595 5.155 7.286 7.618 11.021 1.845 2.779 3.774 5.495 5.702 8.217C325.72 427.615 334.849 441.399 337 458l-3-1c-3.438-.52-6.579-.679-10 0-2.548 2.002-4.284 4.266-6 7l-2-1v-2c-3.287-.67-3.287-.67-7 0-5.214 5.186-8.126 13.94-8.25 21.188.22 3.343.593 6.529 1.25 9.812-6.011 5.76-17.614 4.432-25.437 4.813l-3.565.232c-9.356.434-15.541-1.159-22.873-6.983-3.97-3.684-6.038-6.299-6.312-11.875L244 475l1.25 1.688L247 479l2 2.75 2 2.25h3l-.032-1.697c-.041-2.538-.067-5.077-.093-7.615l-.05-2.67-.02-2.569-.032-2.364C254 465 254 465 256 462v13h2l1.75 2.75c2.518 3.637 4.283 5.304 8.25 7.25 4.58.793 7.876.646 11.938-1.687 4.162-4.668 4.504-9.375 4.375-15.41-.905-8.4-5.459-15.205-10.313-21.903 3.409 1.398 4.874 2.85 6.75 6l1.297 2.125C283 456 283 456 283 458h2l.813-2.375C287 453 287 453 290 451c2.438-.375 2.438-.375 5 0l1.813 2c2.185 2.384 2.185 2.384 6.125 2.5 4.089-.213 6.216-1.487 9.062-4.5 3.988-6.136 2.683-15.46 1.348-22.383-3.557-12.424-9.807-22.988-17.036-33.555-11.13-16.3-19.614-33.926-27.312-52.062" fill="#A63C01"/><path d="m261.438 340.813 3.496-.043C268 341 268 341 271 343v3a159 159 0 0 0 3.367 7.422l1.072 2.233q1.132 2.353 2.275 4.701a951 951 0 0 1 3.364 7.03C285.96 377.537 291.581 386.76 298 396c8.947 13.596 16.992 26.71 17.313 43.438l.113 3.87c-.582 5.041-2.778 7.926-6.176 11.567-3.371 1.686-6.559 1.862-10.25 1.125l-4-4c-3.595-.248-3.595-.248-7 1-1.844 2.461-1.844 2.461-3 5h-2c-1.56-2.44-2.897-4.97-4.27-7.52-2.473-3.546-5.125-5.174-9.355-5.98-2.733-.575-3.702-1.298-5.375-3.5v-2h-2c-4-4.47-4-4.47-4-7 1.993.981 3.96 1.978 5.895 3.07 4.518 2.485 7.83 3.627 13.105 2.93 4.114-1.818 6.477-4.306 9-8 4.654-15.01-3.213-33.81-8-48l-.94-2.807a1743 1743 0 0 0-3.123-9.193l-.995-2.932c-3.24-9.675-3.24-9.675-8.755-18.13-3.392-1.454-5.668-.864-9.187.062-3.384 2.23-5.73 4.655-8 8-.87-5.653 1.403-8.69 4.492-13.145 2.85-3.507 5.627-3.018 9.946-3.043" fill="#B85203"/><path d="M499.43 351.61c5.006 2.708 6.587 8.288 8.57 13.39 3.308 11.297 3.34 19.434-2 30-4.817 7.38-12.371 12.417-19.292 17.675-3.233 2.508-6.328 5.191-9.427 7.864-2.77 1.774-5.042 2.039-8.281 2.461a64 64 0 0 0-3.937 1.563c-3.799 1.48-6.96 1.93-11.063 1.437-2.316-3.474-2.239-5.308-1.645-9.363 2.2-8.995 7.497-15.957 13.33-22.927 7.379-8.974 13.633-18.787 20.092-28.429 9.812-14.635 9.812-14.635 13.653-13.672" fill="#CB7206"/><path d="M384 189c2.917-.081 5.832-.14 8.75-.187l2.5-.077c3.54-.043 6.07-.066 9.29 1.494 2.407 2.917 2.132 5.308 1.952 8.97-1.959 11.146-12.068 22.117-21.015 28.64-5.635 2.64-11.827 2.062-17.61.094C358.66 223.612 350.08 217.577 346 208c-.562-3.125-.562-3.125 0-6 2.552-3.119 5.123-5.708 9-7l3 1v2l1.879-.77c7.927-3.08 15.773-4.743 24.121-6.23z" fill="#3C2013"/><path d="M396 177c5.786 2.55 9.817 7.103 12.2 12.938a133 133 0 0 1 1.78 5.84c.801 2.387.801 2.387 3.024 3.128 2.116.323 2.116.323 3.746-1.344L418 196c3 1 3 1 4.625 4l1.375 3c1.111 1.339 1.111 1.339 3.941 1.098l3.622-.036 3.628-.027L438 204a141 141 0 0 1-5 5h-2v5c4.43.227 7.34-.288 11.336-2.187l2.976-1.368q3.054-1.44 6.102-2.89c5.856-2.683 10.127-4.268 16.586-3.555l2 1-1.375-1.375L465 200c3.215-1.607 6.436-1.057 10-1-5.979-10.044-14.745-14.193-25-19 3.658-1.83 7.69.565 11.406 1.762 8.25 2.843 15.73 5.777 22.594 11.238-2.49.687-4.379 1-7 1l1.46 1.426 1.915 1.887 1.898 1.863C484 201 484 201 486 204l-1 3-6-3-1 1 2 5-2.93.078c-18.281.797-31.004 9.025-43.566 22.008-3.31 3.851-6.028 7.944-8.652 12.285-2.621 3.721-5.228 6.196-9.664 7.379L413 252l2 6q-2.409-.426-4.812-.875l-2.708-.492C405 256 405 256 402 254l5-1-1-3 10-3c1.151-4.59 1.151-4.59-.062-8.937-2.7-1.48-4.914-1.265-7.938-1.063l5-7-1-2 2.438-1.375c2.65-1.372 2.65-1.372 3.562-3.625-6.746.664-13.344 1.719-20 3 2.483-2.483 4.23-2.742 7.625-3.562l3.254-.801c2.631-.537 5.014-.783 7.683-.887L420 220c2.338-3.8 3.939-7.54 3-12-1.977-2.78-3.453-4.722-6.937-5.348-3.812-.05-7.338.56-11.063 1.348l.105-2.555.082-3.32.106-3.305L405 192c-3.021-2.014-3.807-2.268-7.23-2.414l-2.432-.117-2.526-.094-2.56-.117A970 970 0 0 0 384 189v2l2 1c-.589.105-1.178.21-1.785.32-2.719.49-5.436.991-8.152 1.493l-2.807.501c-5.95 1.107-11.573 2.602-17.256 4.686 0-3.113.174-5.108 1-8q3.311-.975 6.625-1.937l3.727-1.09c6.492-1.731 12.47-2.13 19.148-2.098l2.512-.012c4.443.007 8.615.243 12.988 1.137-1.727-3.62-3.477-6.876-6-10" fill="#DF6C08"/><path d="M418 202c2.938 2.438 2.938 2.438 5 5l1 1c-.39 4.966-1.177 8.864-4 13-2.912.954-5.206 1.5-8.187 1.875l-2.272.352c-1.843.281-3.692.53-5.541.773q2.342-.508 4.688-1l2.636-.562c2.613-.428 5.034-.514 7.676-.438-5.083 8.98-12.235 17.201-22.113 20.762-5.38 1.194-8.347-.29-12.95-3.2A191 191 0 0 1 379 236l-.91 2.39c-1.086 2.6-1.915 3.87-4.09 5.61-7.428 2.476-16.656 1.16-23.602-2.293-6.103-3.769-6.103-3.769-7.171-7.168-.295-3.299.2-6.289.773-9.539l5-1v-4c6.703-1.066 10.735 1.858 16.328 5.371 5.565 3.393 11.321 3.454 17.672 2.629 3.258-1.459 5.51-3.469 8-6l2.055-2.086c4.067-4.374 7.415-8.91 10.425-14.066 3.48-4.232 9.376-4.908 14.52-3.848" fill="#FCD077"/><path d="M195 254c8.836.145 15.516 3.545 21.809 9.797 1.379 1.64 1.379 1.64 3.191 4.203l3-1c2.283 3.424 2.217 4.85 2.313 8.875.266 5.044.266 5.044 3.312 9.063L231 287c.079 3.141-.94 4.879-2.312 7.688-3.687 3.172-7.046 3.306-11.786 3.91-3.017.325-3.017.325-6.214 1.527-3.46 1.126-6.068 1.263-9.688.875-5.865-3.098-7.231-5.523-9.125-11.625-2.142-9.535-.8-15.628 3.813-24.297 1.421-3.334 1.722-5.493 1.312-9.078z" fill="#772601"/><path d="m387.938 171.813 2.572-.038 2.455-.005 2.207-.013C397 172 397 172 399 174l-18 1 3 7v4l-3.297.516c-8.122 1.323-15.75 2.877-23.48 5.812C355 193 355 193 353 192l9-10c-4.203 3.077-8.335 6.197-12.312 9.563l-1.926 1.628c-5.01 5.143-5.27 9.742-5.45 16.621l-.103 2.678c-.082 2.17-.147 4.34-.209 6.51h-7l6 1-1 3c-7.546.696-12.058-.274-18-5a335 335 0 0 1-3.25-2.75c-2.45-2.005-3.674-2.895-6.75-3.25 1.557-4.671 4.084-8.087 7-12l-5 1c3.585-3.942 7.114-6.393 11.953-8.664l2-.966q2.082-1.003 4.174-1.991c2.109-.997 4.208-2.01 6.307-3.027 8.248-3.966 16.445-7.88 25.566-9.352h-5c8.303-5.535 19.283-5.18 28.938-5.187" fill="#FE9810"/><path d="m483 274 4 4c-5.396 12.304-14.575 18.585-26.887 23.457-7.292 2.758-14.69 4.473-22.3 6.106-16.845 3.206-16.845 3.206-30.813 12.437a155 155 0 0 0-2.937 4.938c-4.23 7.392-10.07 12.08-18.063 15.062-2.366.533-4.574.798-7 1 .462-2.155.912-3.855 2.063-5.75 1.44-3.458 1.696-6.624.937-10.25-3.106-5.652-8.03-8.915-14-11-4.3-1.16-8.645-2.071-13-3-21.449-4.801-21.449-4.801-29-13l-3-2-3 3-.078-2.047-.172-2.703-.14-2.672c-.789-3.334-1.973-4.418-4.61-6.578-2.732-.799-2.732-.799-5.754-1.012l-3.338-.357-3.47-.318q-3.41-.346-6.817-.7l-3.049-.288C290 282 290 282 287 281v-3l-2-2c1.74.2 1.74.2 3.516.402l4.734.536 2.481.283c4.672.524 9.326.932 14.019 1.216 4.338.367 7.763.735 11.25 3.563.875 3.688.875 3.688 1 7l5-2 .563 3.125c1.43 4.815 4.199 7.317 8.437 9.875 7.465 3.318 15.345 4.706 23.324 6.23 9.4 1.969 21.586 4.995 27.43 13.247 1.685 3.411 1.643 5.756 1.246 9.523-1.5 3.438-1.5 3.438-3 6 6.446-2.848 10.124-6.55 13.938-12.375 7.422-11.313 14.805-16.034 28.222-18.842l3.277-.658c14.954-3.237 29.899-7.189 42.563-16.125l2.813-1.812c3.243-3.244 5.141-7.114 7.187-11.188" fill="#C65F06"/><path d="M339 232h8l-4 1c2.063 5.157 5.652 6.78 10.445 8.996 3.23 1.27 6.09 1.811 9.555 2.004l2.031.152c4.567.213 7.43-.22 10.969-3.152 1.808-2.566 1.808-2.566 3-5 3.067 1.082 5.179 2.142 7.75 4.188 3.818 2.129 5.67 2.174 9.883 1.507 3.428-1.007 6.248-2.774 9.297-4.601 2.895-1.53 4.873-1.763 8.07-1.094 2.438 1.563 2.438 1.563 4 4 .125 3.563.125 3.563-1 7-3.168 2.112-6.27 3.283-10 4v3l-7 1 1 6-8-2-1 6c-2.36-2.36-2.491-3.779-3-7a2696 2696 0 0 0-3.812 3.313l-2.145 1.863A101 101 0 0 0 378 268v-7l-9 3 2-5-2.45.176-3.238.137-3.199.175c-4.166-.653-5.402-2.33-8.113-5.488-7.058-7.617-13.995-12.947-23-18l1-2h7z" fill="#DE6D09"/><path d="M226 296c5.669 6.509 10.086 12.99 9.594 21.883-2.385 12.522-10.106 23.594-16.653 34.281C212.481 362.727 207.091 372.9 204 385l-.566 2.121c-2.23 9.665 1.632 16.856 6.566 24.879 10.1 14.155 30.284 19.802 46 25l-1 4c-14.66 1.543-30.887-8.309-41.926-17.187-2.71-2.369-5.214-4.893-7.664-7.528-1.338-1.51-1.338-1.51-3.41-1.285-1.437-1.977-1.437-1.977-3-4.625l-1.562-2.602c-4.274-8.244-4.777-16.84-2.739-25.87 3.037-8.75 8.066-16.436 12.89-24.286 3.778-6.169 7.362-12.44 10.911-18.742l1.78-3.122c7.67-12.608 7.67-12.608 8.72-26.753-2.132-4.406-4.528-8.528-8-12z" fill="#CC750D"/><path d="M486 93c7.782 3.189 12.024 9.31 15.875 16.5 1.76 5.475 2.123 9.465-.5 14.813-3.514 3.976-6.757 5.495-12.031 6.12l-3.844.005-3.844.058c-4.966-.674-7.934-2.662-11.336-6.285-3.48-5.347-4.501-9.896-3.32-16.211 3.043-8.859 8.358-17.44 19-15m-188 6c4.857 2.698 7.49 6.736 9 12 1.43 12.653 1.43 12.653-1.75 17.688-4.834 4.967-9.057 7.376-16.062 7.687-6.485-.145-10.813-2.356-15.688-6.5-2.26-4.332-2.331-8.094-1.5-12.875 1.31-3.276 3.009-6.097 5-9l1.813-2.75c5.753-5.918 10.97-8.8 19.187-6.25" fill="#BC4300"/><path d="M384 189q4.438-.08 8.875-.125l2.55-.05 2.442-.02 2.254-.032C402 189 402 189 404 191c-.885 3.873-2.375 5.51-5.625 7.563-2.114 1.25-4.15 2.348-6.434 3.253-6.02 2.43-8.325 6.253-11.496 11.82C379 216 379 216 377 217c-4.467.763-6.82-.3-10.437-2.75A1090 1090 0 0 1 362 211c-3.577-2.377-6.465-3.93-10.812-4.5L348 206c-1.437-2.062-1.437-2.062-2-4 5.538-5.846 5.538-5.846 9-7l3 1v2l1.879-.77c7.927-3.08 15.773-4.743 24.121-6.23z" fill="#593523"/><path d="M476 79c13.65 3.384 25.023 10.228 32.875 22.063 4.633 8.135 4.451 14.973 2.125 23.937-2.087 4.054-3.796 6.098-8 8-2.812.188-2.812.188-5 0 .508-4.442 2.158-6.625 5-10 1.865-5.594 1.353-10.653-1-16-3.971-6.943-8.408-12.842-16-16-5.118-.725-9.51-.95-13.937 1.875-2.733 4.14-4.44 8.453-6.063 13.125h-4c-3.162-5.185-2.611-11.14-2-17 2.758-7.038 8.52-11.057 16-10" fill="#FD9713"/><path d="M308 85c3.766 2.962 5.508 6.525 7 11 .12 1.977.175 3.957.188 5.938l.042 3.152c-.226 2.86-.753 4.487-2.23 6.91-1.875-.2-1.875-.2-4-1-1.125-2.145-1.125-2.145-2-4.812-1.427-3.917-2.557-6.633-6-9.188-4.91-1.637-9.501-2.091-14.344.023C279.486 101.468 273.66 107.91 271 116c-.73 4.695-1.081 9.156 1.379 13.352 1.637 2.086 1.637 2.086 3.406 3.894C277 135 277 135 276.684 137.223L276 139c-4.429-.506-6.849-1.849-10-5-4.064-6.447-3.733-13.582-3-21 2.062-8.6 10.147-16.29 17.11-21.187 8.844-5.281 17.424-8.819 27.89-6.813" fill="#FD9813"/><path d="M478 454c3.55 5.326 3.24 11.64 3.563 17.875l.13 2.375q.158 2.875.307 5.75h7c-.784 5.29-3.927 8.19-8.062 11.313-3.29 1.81-5.73 1.744-9.438 1.5-3.33-.156-4.918-.214-7.691 1.695-1.71 1.763-3.25 3.597-4.809 5.492-2.93 1.465-5.678 1.021-8.906.938-2.154-.083-2.154-.083-4.094 1.062-1.54.07-3.083.085-4.625.063l-2.477-.028L437 502c0-3.166.636-5.462 1.5-8.5 2.368-9.272 1.644-18.086.5-27.5 4.453 4.453 4.586 11.22 5.438 17.195.523 2.613 1.244 4.51 2.562 6.805h6c2.798-4.72 3.413-8.556 3.25-13.937l-.016-2.053c-.067-4.424-.53-8.655-1.234-13.01 6.696 6.696 5.676 20.082 6 29h6c1.135-4.66 2.037-9.074 2.25-13.875.207-2.25.207-2.25.75-4.125 2.938-1.875 2.938-1.875 6-3 2.351-3.527 2.214-5.029 2.125-9.187l-.055-3.293z" fill="#AD3301"/><path d="M416 206c2 1.063 2 1.063 3 3v7l-18 5c4.803-1.312 4.803-1.312 9.603-2.633 2.89-.78 5.391-1.367 8.397-1.367-.5 1.875-.5 1.875-2 4-2.652.985-5.205 1.46-8 2l10-1c-1.538 3.247-2.427 4.74-5.75 6.25-3.407.786-6.78 1.334-10.25 1.75h7c-4.844 5.626-10.363 8.515-17.75 9.5-3.822-.588-5.505-1.838-8.25-4.5.344-2.917.616-4.584 2.637-6.773l2.05-1.602c4.955-4.086 8.885-8.419 12.375-13.812 4.3-6.24 7.6-7.641 14.938-6.813" fill="#FCF5B8"/><path d="M413.125 236.063C416 237 416 237 418 240c0 3.5 0 3.5-1 7-3.168 2.112-6.27 3.283-10 4l1 2h-12v3l-3.187-1c-5.247-1.376-7.909-1.666-12.625 1L377 258l-1-4-1.719.484c-4.73 1.07-9.588 1.507-13.844-.984L359 252l1-5 2.45.105 3.238.083 3.199.105c3.531-.332 5.296-1.176 8.113-3.293l2-3c2.56.474 4.083 1.058 6.25 2.563 3.684 1.925 6.735 2.189 10.75 1.437 4.668-1.77 8.796-3.73 12.25-7.375C410 236 410 236 413.125 236.063" fill="#FD9710"/><path d="m195 254 7 1c.622 6.74.087 10.499-3.887 15.973-1.932 3.518-1.519 7.133-1.113 11.027l5 2-.125 2.875c-.225 3.227-.225 3.227 2.125 5.125 3.382.56 6.62.562 10 0 2.678-2.299 2.678-2.299 4-5 3.147.7 6.026 1.76 9 3v-5l4 2c-.511 4.473-1.558 7.039-5 10-3.025.764-6.003 1.204-9.098 1.598-3.017.325-3.017.325-6.214 1.527-3.46 1.126-6.068 1.263-9.688.875-5.865-3.098-7.231-5.523-9.125-11.625-2.142-9.535-.8-15.628 3.813-24.297 1.421-3.334 1.722-5.493 1.312-9.078z" fill="#5F1E07"/><path d="M420 127c10.367 6.778 17.75 17.543 22 29v2l-6 2v2h6v2l-2.312 2.125c-2.459 2.63-3.227 3.817-4.356 7.055l-.77 2.171L434 177l-3.758-.184c-16.076-.766-32.156-1.308-48.242-1.816v-1l3.5-.06c4.297-.076 8.592-.165 12.888-.257q2.786-.058 5.572-.105c2.674-.046 5.347-.104 8.02-.164l2.507-.035c4.237-.108 7.69-.337 11.513-2.379 1.333-1.595 1.333-1.595 2.125-3.562l.965-2.149c1.478-3.719 2.75-7.46 3.91-11.289l1-2.562c0-5.268-4.158-9.49-7.5-13.25-3.478-3.044-5.962-4.906-10.562-5.75-8.85 1.264-16.323 6.445-23.098 12.046C391 146 391 146 388 148c4.29-9.352 13.402-14.11 22-19l2.02-1.23c2.859-1.111 4.937-1.14 7.98-.77" fill="#DA6707"/><path d="M414.96 140.145c5.07 2.127 8.464 7.451 10.478 12.355L426 155c-4.373 1.093-8.51 1-13 1-2.847.434-2.847.434-5 1l.988 1.71c1.113 2.518 1.25 4.182 1.2 6.915l-.02 2.352C410 170 410 170 409 172l-3-1c-1.495-2.99-1.116-5.7-1-9l1-3c-6.624 4.552-6.624 4.552-13 9.438-2 1.562-2 1.562-4 1.562-2.125-4.625-2.125-4.625-1-8h3c1.764-1.89 1.764-1.89 3.5-4.375 13.799-17.972 13.799-17.972 20.46-17.48" fill="#7A2D04"/><path d="m491 338 1 2a82 82 0 0 1-2.812 6.438l-.957 1.996A634 634 0 0 1 485 355l-1.14 2.292c-6.61 13.175-14.252 25.412-22.497 37.61C448.333 414.207 436.334 434.21 435 458l-6-1c2.13-18.944 8.977-33.129 19.478-48.72 2.997-4.488 5.84-9.073 8.708-13.643 2.57-4.092 5.154-8.173 7.802-12.215C478.285 362.108 478.285 362.108 488 340z" fill="#A93E01"/><path d="M349 220c6.703-1.066 10.735 1.858 16.328 5.371 2.627 1.738 2.627 1.738 5.672 2.629v2l4 2c.313 2.75.313 2.75 0 6-2.753 3.269-4.44 3.934-8.687 4.438-6.99-.384-14.413-2.21-19.313-7.438v-3h-4l1-7 5-1z" fill="#FDF5B7"/><path d="M396 177c5.786 2.55 9.817 7.103 12.2 12.938a133 133 0 0 1 1.78 5.84c.801 2.387.801 2.387 3.024 3.128 2.116.323 2.116.323 3.746-1.344L418 196l3 1 1.375 2.938c1.346 3.243 1.346 3.243 4.313 4.437L429 205v1c-4.53.377-4.53.377-6.863-1.496-2.591-1.824-3.944-1.85-7.074-1.754-.835.015-1.669.03-2.528.047-2.576.206-5.014.644-7.535 1.203l.105-2.555.082-3.32.106-3.305L405 192c-3.021-2.014-3.807-2.268-7.23-2.414l-2.432-.117-2.526-.094-2.56-.117A970 970 0 0 0 384 189v2l2 1c-.589.105-1.178.21-1.785.32-2.719.49-5.436.991-8.152 1.493l-2.807.501c-5.95 1.107-11.573 2.602-17.256 4.686 0-3.113.174-5.108 1-8q3.311-.975 6.625-1.937l3.727-1.09c6.492-1.731 12.47-2.13 19.148-2.098l2.512-.012c4.443.007 8.615.243 12.988 1.137-1.727-3.62-3.477-6.876-6-10" fill="#DF6E0A"/><path d="M486 93c6.47 2.651 10.245 7.268 14 13l-1 2-1.687-2.312c-3.35-3.892-5.68-5.484-10.813-6.126-4.097.513-5.613 1.55-8.5 4.438-2.43 3.644-2.299 5.54-2.312 9.875l-.051 3.68c.386 3.665 1.185 5.515 3.363 8.445 3.502 2.594 7.784 2.578 12 3v1c-11.56.617-11.56.617-16.5-1.5-4.581-4.581-7.748-8.72-8.125-15.375.386-6.957 3.436-13.385 8.438-18.25C478.7 92.588 481.656 92.004 486 93" fill="#9F1D00"/><path d="M298 99c4.857 2.698 7.49 6.736 9 12 1.43 12.653 1.43 12.653-1.75 17.688-4.101 4.214-6.878 6.272-12.937 6.375L289 135c3-2 3-2 5.563-3.375 2.726-1.818 3.296-2.616 4.437-5.625.619-5.567 1.312-11.874-1.875-16.75-2.144-2.27-3.047-3.14-6.113-3.453-6.391-.129-9.599.92-14.324 5.39L275 113c2.226-6.491 5.925-10.65 11.781-14.113 3.898-1.558 7.274-1.111 11.219.113" fill="#9F1C00"/><path d="M478 454c3.55 5.326 3.24 11.64 3.563 17.875l.13 2.375q.158 2.875.307 5.75h7c-.581 3.925-2.293 6.15-5 9-5.27 3.75-8.561 4.644-15 4l-3-2 .621-1.871c1.409-4.428 2.492-8.41 2.692-13.067.18-2.222.18-2.222.687-4.062 2.938-1.875 2.938-1.875 6-3 2.351-3.527 2.214-5.029 2.125-9.187l-.055-3.293z" fill="#A73E04"/><path d="M278 319c2.304 3.456 2.621 6.376 3.188 10.375 2.869 17.716 9.322 34.78 19.233 49.775l1.415 2.143 1.322 1.934C304 385 304 385 303 388c-14.695-13.804-25.245-34.113-26.152-54.406-.051-5.02.02-9.687 1.152-14.594" fill="#FFB418"/><path d="m361 181 2 1-1.496 1.426-1.942 1.887-1.933 1.863c-1.851 1.83-1.851 1.83-2.629 4.824l2 1c-2.769 2.974-5.523 4.932-9 7-1.496 2.992-1.427 4.642-1 8 1.763 3.18 3.849 6.074 6 9l2 3-5 1 4 2v2l-29-1v-1l3.246-.148 4.192-.227c.707-.03 1.414-.062 2.142-.094 1.812-.104 3.618-.31 5.42-.531l1-2-10-1v-1l11 1c-.07-1.279-.14-2.558-.21-3.875-.598-15.405-.598-15.405 2.647-19.812 1.645-1.68 1.645-1.68 3.563-3.313l2.262-2.133c3.433-3.167 6.975-6.1 10.738-8.867" fill="#D66A09"/><path d="M340 147c7.472 2.42 13.524 9.18 17.625 15.75 1.43 3.379 1.729 5.622 1.375 9.25l-9-5v2h-2v4h2l1-3c.25 5.625.25 5.625-2 9l-3-1c-1.395-2.79-1.182-4.903-1-8l2-5-11-4q.715-2.938 1.438-5.875l.808-3.305C339 149 339 149 340 147" fill="#7B2E04"/><path d="m203 414 3.063 2.625 1.968 1.672a102 102 0 0 1 3.5 3.156c9.555 8.873 26.55 18.88 39.906 18.922L255 440l1-3c7.448 1.465 7.448 1.465 10 3.938 1 2.062 1 2.062 1 5.062-4.091 2.727-7.2 2.438-12 2-2.988-.602-5.813-1.492-8.687-2.5l-2.354-.811C228.085 438.976 213.98 428.825 203 416z" fill="#A73B05"/><path d="M351.5 466.375c2.5.625 2.5.625 4.75 3.313 3.05 5.772 3.739 11.946 2.29 18.347-.665 1.902-.665 1.902-2.54 4.965-3.062 1.063-3.062 1.063-6 1-2.704-2.704-2.568-4.742-3.062-8.5-.483-4.398-.483-4.398-1.938-8.5-.394-3.622-.452-5.363 1.688-8.375C349 467 349 467 351.5 466.375" fill="#E26C07"/><path d="M291 452c3.613.903 4.95 1.937 7.313 4.875 2.577 4.988 2.512 10.67 1.687 16.125-1.527 2.867-1.527 2.867-3 5-2.25.063-2.25.063-5-1-1.29-2.148-2.176-4.318-3.082-6.652-.94-2.559-.94-2.559-2.73-5.598C285 462 285 462 285 459.438c1.336-3.258 3.405-5.11 6-7.438" fill="#B75102"/><path d="M306 228q3.314.682 6.625 1.375l3.727.773c3.648.852 3.648.852 6.68 1.946 3.42 1.044 6.276 1.104 9.843 1.031l3.492-.055L339 233v1l-7 1 2.492 1.617c8.459 5.604 15.909 11.738 22.363 19.66 3.006 2.415 5.1 2.125 8.895 1.973l3.547-.11L372 258c-1.79 3.906-1.79 3.906-3.687 4.75-8.069.872-8.069.872-12.313-1.25-3.105-2.588-5.555-5.345-8.16-8.418-7.1-8.035-15.921-15.153-26.84-16.082l-1-2c-2.69-.8-5.332-1.495-8.062-2.125l-2.3-.55A906 906 0 0 0 304 231z" fill="#481200"/><path d="M422 124c11.702 6.631 18.48 18.745 23 31l-1 2c-3-1-3-1-4.508-3.809l-1.617-3.629c-3.238-6.901-7.3-12.302-12.875-17.562l-2.398-2.273c-3.217-2.135-4.805-2.243-8.602-1.727-10.31 4.11-18.741 11.796-27 19 2.816-10.325 14.432-15.924 23-21 6.898-3.735 6.898-3.735 12-2" fill="#5F1A00"/><path d="M482 329h1c1.546 18.246-7.572 37.317-18.68 51.328-3.568 4.109-7.349 7.954-11.32 11.672l-2-1 1.434-1.66C466.59 372.367 477.725 350.73 482 329" fill="#FFB418"/><path d="M336 123c5.023 1.182 8.095 2.45 12 6l-2 1-1.812-1c-2.13-1.153-2.13-1.153-4.454-1.023-4.241 1.587-6.101 4.787-8.671 8.398l-1.595 2.19C324.206 145.906 319.202 152.89 318 162l-4-2c.956-14.655 12.543-26.661 22-37" fill="#5B1800"/><path d="M467 211c-2.899 2.299-5.832 4.012-9.125 5.688-12.094 6.514-21.059 15.593-28.969 26.652-7.385 10.306-7.385 10.306-14.906 11.66l-1-3 3.5-1.312c5.034-2.495 7.46-6.318 10.563-10.875 2.684-3.897 5.729-7.345 8.937-10.813l1.5-1.73c6.899-7.538 18.95-16.873 29.5-16.27" fill="#481100"/><path d="m244 475 1.25 1.688L247 479l2 2.75 2 2.25h3v-9c1.544 2.317 2.582 4.248 3.688 6.75 2.527 5.073 6 9.8 11.32 12.129 2.099.642 2.099.642 4.992 1.121v1c-7.762 1.335-13.242 1.259-20-3-4.202-2.992-7.988-6.146-10-11-.187-3.812-.187-3.812 0-7" fill="#A94207"/><path d="m387.938 171.813 2.572-.038 2.455-.005 2.207-.013C397 172 397 172 399 174l-18 1 3 7v4l-14 2c2-6 2-6 6-12l-17 1c8.303-5.535 19.283-5.18 28.938-5.187" fill="#FDD786"/><path d="M346 204c6.406 1.505 11.779 2.908 17 7-3.069 1.534-5.7.55-9 0 2.251 2.453 4.577 4.004 7.438 5.688 4.803 3.105 6.475 6.049 8.562 11.312-8.906-2.11-16.854-8.541-22-16-1.845-3.123-2-4.151-2-8" fill="#402213"/><path d="M418 202c2.938 2.438 2.938 2.438 5 5l1 1c-.39 4.983-1.56 8.65-4 13l-3-1 2-3-3.613 1.129-4.7 1.434-2.38.748-2.295.693-2.11.65C402 222 402 222 399 221q3.872-1.26 7.75-2.5l2.21-.723 2.15-.683 1.967-.635C415 216 415 216 419 216c-.33-5.015-.33-5.015-3-9-5.057-.59-7.006-.656-11.312 2.188-2.407 2.517-3.95 4.832-5.688 7.812l-3 1c1.524-3.229 3.32-6.164 5.313-9.125l1.738-2.633c3.82-4.395 9.368-5.392 14.949-4.242" fill="#E2BE70"/><path d="M478 454c3.537 5.306 2.62 12.77 2 19-1.618 7.052-5.405 12.517-10 18l-3-1 .402-1.652c.967-4.126 1.66-7.985 1.848-12.223.207-2.25.207-2.25.75-4.125 2.938-1.875 2.938-1.875 6-3 2.351-3.527 2.214-5.029 2.125-9.187l-.055-3.293z" fill="#9B3500"/><path d="m287 93-1.723 1.145C277.467 99.712 272.131 106.883 269 116c-.407 2.365-.407 2.365-.562 4.688-.34 4.115-.34 4.115-1.438 6.312l-3-1c-.837-10.048 2.37-18.306 8.875-26 8.527-8.866 8.527-8.866 14.125-7m201-6c7.363.717 11.25 4.58 16 10 4.703 7.57 7.33 14.076 7 23l-1 2h-2l-.297-1.836c-2.142-12.005-6.34-22.887-16.64-30.164L488 88z" fill="#FFC77D"/><path d="m426 153-1 3-2.45-.035-3.238-.028-3.199-.035c-2.837.09-5.357.449-8.113 1.098l.988 1.71c1.113 2.518 1.25 4.182 1.2 6.915l-.02 2.352C410 170 410 170 409 172l-3-1c-1.495-2.99-1.116-5.7-1-9l1-3c-6.624 4.552-6.624 4.552-13 9.438-2 1.562-2 1.562-4 1.562l-1-4 2.242.23c3.547-.296 4.432-1.397 6.883-3.917 8.826-8.2 16.988-10.163 28.875-9.313" fill="#D96A08"/><path d="M395 188v1h-11v2l2 1c-.589.105-1.178.21-1.785.32-2.719.49-5.436.991-8.152 1.493l-2.807.501c-5.95 1.107-11.573 2.602-17.256 4.686.9-3.04 1.376-4.624 4.145-6.293 11.58-3.883 22.671-5.066 34.855-4.707" fill="#6F4023"/><path d="M285 276c1.74.2 1.74.2 3.516.402 8.82 1 17.631 1.938 26.484 2.598l-2 4c-8.895.199-17.33.334-26-2v-3z" fill="#B13303"/><path d="M459 474h1l1 16h6c-2.336 4.671-5.48 8.358-10 11-2.87.487-5.068.309-8 0l1.207-1.32 1.606-1.805 1.582-1.758c3.795-5.005 4.998-9.25 5.293-15.492l.199-3.773z" fill="#B43602"/><path d="m483 274 4 4c-2.658 6.06-5.648 10.951-11 15-2.219.691-2.219.691-4 1-.375-2.687-.375-2.687 0-6 1.407-1.21 2.827-2.413 4.332-3.5 3.15-2.833 4.818-6.743 6.668-10.5" fill="#B23302"/><path d="m206 360 2 4-2.312 3.063c-5.59 7.838-6.853 15.314-6.75 24.75l.013 2.388q.02 2.9.049 5.799c-3.006-3.006-2.596-5.824-3-10h-2c0-11.02 6.355-20.84 12-30" fill="#E59D18"/><path d="M337 159c8.8.88 15.26 5.622 22 11l-1 2-8-5v2h-2v4h2l1-3c.25 5.625.25 5.625-2 9l-3-1c-1.395-2.79-1.182-4.903-1-8l2-5-11-4z" fill="#DD6D08"/><path d="M400 204c-1.153 3.112-2.234 4.18-4.937 6.25-3.783 2.95-4.686 6.238-6.063 10.75-2.18-2.002-2.997-2.99-4-5.875 0-3.125 0-3.125 2.188-5.812L390 207l1.938-1.812c2.766-1.593 4.928-1.402 8.062-1.188" fill="#160702"/><path d="m390 58 2 1-1.906 1.285c-13.447 8.87-13.447 8.87-20.844 22.653L369 85l-2-1c-.51-4.767-.51-7.943 2.188-12 4.462-5.415 10.748-8.663 16.812-12 .75-.425 1.5-.85 2.273-1.29z" fill="#AE4100"/><path d="M354 91c-2.75 2.895-5.817 5.097-9.062 7.402-3.982 3.283-5.49 6.7-6.938 11.598-2-2-2-2-2.375-4.75.6-5.193 3.13-8.126 6.938-11.562C346.443 91 349.39 90.898 354 91" fill="#B14300"/><path d="m420 202 2.125 1.938c3.103 2.226 5.121 2.713 8.875 3.062l-2 2h-4l.125 3.25c-.117 3.506-.496 4.818-2.125 7.75l1 2-3 1a90 90 0 0 0-4 4l1-4c-6.746.664-13.344 1.719-20 3 2.483-2.483 4.23-2.742 7.625-3.562l3.254-.801c2.631-.537 5.014-.783 7.683-.887L420 220c2.382-3.87 3.738-7.45 3-12-1.44-2.17-1.44-2.17-3-4z" fill="#8B5222"/><path d="M274 446c3.409 1.398 4.874 2.85 6.75 6l1.297 2.125C283 456 283 456 283 458h2l1-3c1 2 1 2 .438 4.438-.78 2.794-.78 2.794 1.562 5.562 1.358 6.867 1.12 14.032 1 21h-1l-.48-3.734c-1.895-13.793-5.163-24.894-13.52-36.266" fill="#8C3000"/><path d="M374.219 176.313 376 177c-4.345 10.19-4.345 10.19-8.402 12.176-2.228.46-4.326.758-6.598.824 7.401-14.507 7.401-14.507 13.219-13.687" fill="#FDB519"/><path d="m387.938 171.813 2.572-.038 2.455-.005 2.207-.013C397 172 397 172 399 174l-1.92.06c-15.479.382-15.479.382-30.775 2.538-2.476.432-4.797.469-7.305.402 8.303-5.535 19.283-5.18 28.938-5.187" fill="#F9E0C4"/><path d="m300 210 2 1-1.277 2.012-1.66 2.675-1.653 2.637c-1.532 2.594-1.532 2.594-1.941 5.426L295 226c-2.562 1.313-2.562 1.313-5 2-.894-5.662 1.49-9.151 4.297-13.828 1.784-2.275 2.974-3.262 5.703-4.172" fill="#450F00"/><path d="M354 211c4.24-.424 6.983-.438 10.313 2.25 3.88 3.97 3.88 3.97 4.687 6.75-.375 2.25-.375 2.25-1 4l-1.375-2.125c-3.148-3.448-6.511-5.315-10.578-7.543L354 213z" fill="#170703"/><path d="M476 193c2.83-.058 4.414-.03 7 1 3.8 3.688 7.054 7.698 8 13-4.663-2.041-7.55-4.286-10.875-8.125l-2.367-2.695C476 194 476 194 476 193" fill="#4A1300"/><path d="M208 258c3.993 2.036 7.014 3.714 9.813 7.25L220 268h2v4h-2l-1 4c-.23-.52-.461-1.039-.7-1.574-2.178-4.658-4.412-7.947-8.3-11.426l-2-2z" fill="#9C4414"/><path d="m283 90 2 1c-2.106 2.23-4.275 3.913-6.812 5.625-7.004 5.201-10.525 12.238-13.188 20.375-1.078-1.777-1.078-1.777-2-4 3.429-9.771 11.342-17.598 20-23" fill="#FFAA38"/><path d="M382 176c2.667.152 4.45.494 6.445 2.332C392 182.506 392 182.506 392 185h-8z" fill="#FFB81A"/><path d="M490 85c8.711 2.45 15.168 10.773 20 18l1 3-2 3-.996-2.344c-3.971-8.695-8.534-15.353-17.567-19.156L488 87z" fill="#FFA732"/><path d="M439 466c3.957 3.957 4.293 8.989 4.313 14.375-.07 5.573-.95 9.604-3.313 14.625-1.127-3.381-.736-4.599 0-8 .368-7.046-.15-14.007-1-21" fill="#8B2700"/><path d="m203 414 3.063 2.625 1.945 1.66q1.882 1.619 3.734 3.274c3.695 3.277 7.426 5.875 11.754 8.265L225 431v3c-8.488-3.948-15.94-10.966-22-18z" fill="#B44F0A"/><path d="M414 230a461 461 0 0 1-3.25 3.375l-1.828 1.898c-1.892 1.7-3.604 2.712-5.922 3.727 1.402-4.324 2.097-5.073 6-8h-15v-1a725 725 0 0 1 7.75-1.125l2.21-.34c3.94-.537 6.702-.907 10.04 1.465" fill="#C8AC6B"/><path d="m406 160 4 1q.039 2.188.063 4.375l.035 2.46C410 170 410 170 409 172l-3-1c-1.493-2.986-1.118-5.709-1-9z" fill="#5C544A"/><path d="M471 295c1.136 3.41.867 4.003-.437 7.188l-.872 2.167L469 306h-2l-1 5h-1c-.628-10.12-.628-10.12 1.875-13.625C469 296 469 296 471 295" fill="#F9C76C"/><path d="m347 167 3 1-2 1v4h2l1-3c.25 5.625.25 5.625-2 9l-3-1c-1.386-2.771-1.188-4.933-1-8z" fill="#2F200C"/><path d="m378 261 1 7 2-1-2 4h-2v-7l-1.68.91-2.195 1.152-2.18 1.16L369 268l-2-1c5.846-6 5.846-6 11-6" fill="#491100"/><path d="M295 451c4.9 4.667 7.762 10.193 8.188 17l-.188 2c-1.806-2.71-2.774-4.91-3.875-7.937-1.484-3.822-2.828-6.472-6.125-9.063l-6 2 1-3c2.674-1.337 4.028-1.484 7-1" fill="#892F00"/><path d="M344 225h5l-2 6h9v1c-1.415.197-2.832.382-4.25.563l-2.39.316c-2.365.121-4.111-.183-6.36-.879z" fill="#E2C57B"/><path d="M276 306c-.688 6.192-2.28 12.02-4 18h-1c-.383-11.969-.383-11.969 2-17 2-1 2-1 3-1" fill="#E77915"/><path d="M386 191v1l-1.848.351-8.34 1.587-2.908.552-5.409 1.03c-2.5.481-4.998.978-7.495 1.48 7.314-6.678 16.673-6.39 26-6" fill="#DBD3CF"/><path d="M382 70c0 3 0 3-1.437 5.125C378.456 79.001 378.275 82.65 378 87l-3-2c-.625-3.93-.167-5.707 1.813-9.187 1.646-2.118 3.2-4.025 5.187-5.813" fill="#AD4000"/><path d="M349 220c4.245-.333 6.355-.439 9.938 2l2.062 2c-3 2-3 2-7 2v-2h-5z" fill="#E5C87F"/><path d="M476 203c2.813.188 2.813.188 6 1 1.852 2.408 3 3.927 3 7h-4c-1.484-1.75-1.484-1.75-2.75-4l-1.297-2.25z" fill="#471000"/><path d="m424 459 2 1-1.242 1.39-1.633 1.86-1.617 1.828c-1.568 1.863-1.568 1.863-2.54 4.016-1.388 2.732-3.534 4.113-5.968 5.906 1.301-4.875 3.17-7.723 6.625-11.375l2.477-2.648z" fill="#8F2B01"/><path d="M263 114c1.001 3.31 1.104 6.3 1.063 9.75l-.028 2.984L264 129h-2l-1 3q-.079-3.375-.125-6.75l-.07-3.797c.18-3.181.505-4.818 2.195-7.453" fill="#E87F1E"/><path d="m368 192-1 2c-2.314.73-4.648 1.401-7 2v2l-4 1c1.448-4.586 1.448-4.586 3.75-6.312 2.821-.863 5.318-.821 8.25-.688" fill="#6E4834"/><path d="M338 460c3.181 2.704 5.58 6.081 7 10 .04 2.853-.406 5.18-1 8h-1l-.586-2.414c-1.932-7.873-1.932-7.873-4.414-15.586" fill="#B04A04"/><path d="M270 102c0 3.629-1.07 5.862-2.5 9.188l-1.406 3.292L265 117c-1.105-1.746-1.105-1.746-2-4 .574-2.035.574-2.035 1.688-4.062l1.074-2.036c1.24-1.905 2.573-3.362 4.238-4.902" fill="#FA9B25"/><path d="m407 236 2 2-8 6-1-2c4.75-4.875 4.75-4.875 7-6" fill="#E7740C"/><path d="m404 205 2 1q-1.642 2.727-3.312 5.438l-1.864 3.058C399 217 399 217 396 218c1.468-3.107 3.2-5.905 5.125-8.75l1.633-2.422z" fill="#EEC775"/><path d="M401 379h1v10l-3 1q.21-2.47.438-4.937c.08-.917.162-1.834.246-2.778C400 380 400 380 401 379" fill="#C04002"/><path d="m206 360 2 4-5 7c-1-4-1-4-.223-5.922z" fill="#DF9319"/><path d="M393 259c5.75.875 5.75.875 8 2v3l-8-2z" fill="#440E00"/><path d="M216 427c3.486.646 6.125 1.924 9 4v3c-3.817-1.555-6.192-4.036-9-7" fill="#AD4509"/><path d="M354 222v3h-9l1-3c3.29-1.097 4.713-.8 8 0" fill="#9B8450"/><path d="M406 166h4l-1 6-3-1z" fill="#0A0703"/><path d="M298 204h2c-1.261 3.889-2.453 5.894-6 8h-2v-2a263 263 0 0 1 5-4z" fill="#461000"/><path d="M396 177c4.274 1.583 6.265 4.506 9 8h-2l-1 2-1.312-2.75c-1.393-2.682-2.8-4.911-4.688-7.25" fill="#E87509"/><path d="M505 98c4.875 4.625 4.875 4.625 6 8l-2 3a875 875 0 0 1-2-4.375l-1.125-2.46C505 100 505 100 505 98" fill="#FB9E27"/><path d="m341 220 8 1c-3.435 2.29-4.985 2.178-9 2z" fill="#A15108"/><path d="M414 222h5c-2.625 4.875-2.625 4.875-6 6l1.063-1.875L415 224z" fill="#F9D47F"/></svg>