<?xml version="1.0" encoding="utf-8"?>
<!-- Generator: Adobe Illustrator 27.5.0, SVG Export Plug-In . SVG Version: 6.00 Build 0)  -->
<svg version="1.1" id="Capa_2" xmlns="http://www.w3.org/2000/svg" xmlns:xlink="http://www.w3.org/1999/xlink" x="0px" y="0px"
	 viewBox="0 0 2372 1898" style="enable-background:new 0 0 2372 1898;" xml:space="preserve">
<path style="fill:#0B4454;" d="M2057.736,598.976c-15.738-23.991-35.928-44.745-56.071-65.178
	c-48.538-49.238-125.638-61.844-192.891-44.778c-4.488,1.139-8.959-1.777-9.902-6.31c-3.363-16.17-14.9-48.706-16.576-52.578
	c-18.046-41.656-36.517-76.209-76.664-99.938c-39.621-23.418-89.669-19.815-129.117-44.078
	c-18.219-11.205-33.36-29.921-35.615-50.766c-0.313-2.903-4.148-3.835-5.807-1.432c-25.465,36.885-24.085,88.335-7.691,130.685
	c17.523,45.264,49.38,83.189,78.039,122.363c32.201,44.016,61.46,92.145,74.024,144.796
	c-43.902,55.266-95.265,104.607-152.197,146.341c-14.339,10.511-29.03,20.541-44.043,30.063
	c-15.013,9.521-30.346,18.535-45.97,27.015c-15.624,8.48-31.539,16.425-47.714,23.81c-14.002,6.393-28.207,12.367-42.583,17.906
	c-14.376,5.539-28.926,10.642-43.617,15.291c-7.346,2.325-14.727,4.536-22.14,6.632c-22.24,6.287-44.767,11.535-67.479,15.683
	c-31.077,5.677-62.503,9.258-94.02,10.668c-2.622-6.027-5.48-11.952-8.619-17.726c-2.465-4.533-5.103-8.95-7.891-13.289
	c-1.527-2.377-3.172-4.897-5.542-6.316c-0.987-0.591-2.099-0.992-3.381-1.112c-2.359-0.22-4.663,0.678-6.858,1.569
	c-24.323,9.871-48.132,21.003-71.333,33.283c-71.86-8.297-142.469-29.032-206.898-61.693c-13.716-6.952-27.151-14.441-40.26-22.458
	c-13.109-8.016-25.891-16.562-38.298-25.63c-12.408-9.068-24.442-18.657-36.054-28.761
	C617.43,715.915,560.884,628.94,499.026,547.521c-30-39.487-61.814-78.226-97.733-112.598
	c-11.973-11.457-24.402-22.429-37.372-32.782c-1.84-1.469-4.289-3.501-7.203-5.923c-10.202-8.474-26.117-21.72-41.655-32.276
	c-5.891-4.002-11.691-7.542-17.141-10.365c-2.766-1.432-5.467-2.735-7.99-3.705c-3.748-1.442-7.181-2.317-10.157-2.451
	c-1.488-0.067-2.862,0.051-4.104,0.377c-1.727,0.453-3.269,1.07-4.729,1.758c-0.359,0.169-0.718,0.338-1.062,0.521
	c-1.342,0.712-2.6,1.496-3.718,2.399c-0.248,0.2-0.459,0.432-0.697,0.641c-0.854,0.751-1.641,1.558-2.365,2.416
	c-0.322,0.382-0.653,0.756-0.95,1.157c-0.749,1.01-1.433,2.071-2.034,3.196c-0.3,0.562-0.556,1.157-0.821,1.744
	c-0.321,0.711-0.621,1.439-0.894,2.185c-0.246,0.673-0.504,1.337-0.713,2.036c0,0,0,0.001,0,0.002
	c1.124,0.291,2.255,0.505,3.377,0.833c46.428,13.557,70.28,57.46,83.735,100.706c14.924,47.97,20.167,98.485,36.189,146.122
	c7.699,22.891,18.796,42.39,34.205,61.004c27.16,32.809,65.336,52.084,81.612,92.364c14.94,36.974,23.91,75.935,27.424,115.624
	c2.707,30.574-7.173,61.204,15.54,86.361c14.954,16.564,35.3,28.174,47.668,46.75c25.262,37.941,9.745,92.287,33.617,131.118
	c0.388,0.631,0.826,1.215,1.23,1.831c16.297,45.695,40.503,91.94,67.332,131.662c28.946,42.858,60.931,78.089,89.331,96.826
	c15.856,7.836,32.061,14.981,48.223,22.224c13.761,6.167,28.079,11.967,40.824,20.09c10.621,6.769,20.362,14.744,30.392,22.33
	c9.829,7.434,20.162,14.454,31.561,19.27c12.612,5.329,25.83,6.452,39.071,9.282c24.337,5.201,46.151,16.631,66.516,30.632
	c18.077,12.428,35.736,25.561,53.382,38.595c12.818,9.469,28.932,22.816,45.672,23.148c8.004,0.158,14.806-4.046,17.89-11.522
	c3.666-8.886,1.431-17.901-2.885-26.074c-5.012-9.49-11.591-17.973-18.023-26.52c-7.366-9.787-13.396-20.471-19.88-30.851
	c-14.519-23.241-29.656-46.595-44.674-69.513c-30.308-33.807-61.132-66.873-91.536-100.632
	c-19.064-21.167-37.809-42.498-55.909-64.157c21.041-2.474,41.997-6.157,62.716-10.393c117.915-24.105,231.863-65.5,339.718-118.623
	c53.418-26.312,105.396-55.513,155.907-87.036c22.96-14.329,48.077-27.514,66.277-47.416c0.025-0.027,0.048-0.056,0.073-0.083
	c19.625-21.48,35.899-47.848,51.945-72.037c5.513-8.312,10.669-16.267,15.519-23.948c1.617-2.56,3.199-5.089,4.75-7.591
	c4.077-6.578,7.914-12.951,11.583-19.201c5.19-8.84,10.012-17.415,14.553-25.859c2.016-3.748,3.991-7.479,5.907-11.193
	c3.482-6.748,6.813-13.461,10.045-20.219c1.815-3.794,3.594-7.608,5.356-11.445c1.377-2.997,2.744-6.005,4.099-9.044
	c4.117-9.238,8.15-18.698,12.223-28.572c4.074-9.873,8.187-20.159,12.463-31.048c1.069-2.722,2.148-5.482,3.24-8.283
	c5.456-14.003,11.214-29.022,17.515-45.429c0.315-0.82,0.655-1.746,1.015-2.766c0.226-0.64,0.472-1.377,0.713-2.087
	c35.418-5.396,71.616-5.685,107.085-0.62c37.691,5.381,74.276,16.592,111.518,24.508c37.242,7.916,76.045,12.503,113.271,4.516
	c37.217-7.986,82.705-36.933,87.398-63.344l0.012-0.024C2134.583,610.882,2089.486,647.374,2057.736,598.976z"/>
<path style="fill:#0B4454;" d="M540.865,1222.391c-3.429,4.22-6.422,8.703-8.59,13.682c-2.412,5.544-3.712,11.903-1.392,17.425
	c3.387,8.064,12.983,11.674,21.202,15.524c8.218,3.851,16.894,10.659,15.581,19.301c-0.616,4.055-3.38,7.508-6.05,10.757
	c-60.613,73.777-121.467,147.81-191.951,213.312c-12.353,11.479-31.255,33.421-47.961,38.694
	c-13.146,4.15-25.916-4.785-20.565-22.858c11.247-37.983,28.491-74.442,50.981-107.785c16.95-25.128,37.703-50.946,37.046-80.555
	c-0.297-13.407-4.94-27.634,1.42-39.703c8.922-16.933,33.371-19.272,49.118-30.982c21.352-15.877,22.86-45.023,29.244-69.894
	c1.673-6.518,3.883-12.844,6.384-19.053c-7.969-5.987-15.73-12.255-23.354-18.703c-22.772,23.947-40.534,47.699-50.64,68.709
	c-14.741,30.649-26.606,62.855-43.393,92.373c-0.625,4.314-1.307,8.618-2.143,12.9c-2.913,14.914-9.597,26.24-19.591,37.427
	c-8.656,9.689-17.763,19.051-23.141,31.086c-6.376,14.268-6.498,31.198-8.51,46.491c-2.28,17.323-6.819,33.033-12.927,49.364
	c-5.767,15.421-10.548,30.861-14.777,46.752c-4.746,17.839-10.556,38.064-4.997,56.396c6.9,22.752,31.705,22.119,50.012,14.268
	c3.782-1.622,7.438-3.513,10.996-5.506c87.883-80.784,174.072-169.839,237.951-270.578c8.167-12.879,9.288-28.672,12.478-43.696
	c3.574-16.833,9.674-30.996,22.082-43.195c0.355-0.349,0.727-0.699,1.093-1.047C583.896,1244.274,561.983,1233.976,540.865,1222.391
	z"/>
<path style="fill:#A8C7CE;" d="M622.284,1148.565c-0.404-0.616-0.842-1.2-1.23-1.831c-23.872-38.831-8.355-93.177-33.617-131.118
	c-12.368-18.575-32.714-30.186-47.668-46.75c-22.713-25.157-12.833-55.787-15.54-86.361c-3.514-39.69-12.484-78.65-27.424-115.624
	c-16.275-40.28-54.451-59.555-81.612-92.364c-15.409-18.614-26.507-38.113-34.205-61.004
	c-16.022-47.637-21.265-98.152-36.189-146.122c-13.454-43.246-37.307-87.15-83.735-100.706c-1.122-0.328-2.252-0.542-3.377-0.833
	c-5.467,18.311,1.701,45.23,5.319,60.325c16.382,68.355,5.682,139.802,1.576,209.972c-5.899,100.815,2.321,203.418,34.662,299.086
	c31.943,94.486,85.409,169.383,152.734,226.318c7.624,6.448,15.385,12.715,23.354,18.703c20.765,15.6,42.69,29.604,65.532,42.134
	c21.118,11.584,43.032,21.882,65.606,30.906c26.883,10.746,54.675,19.721,83.145,26.93
	C662.787,1240.505,638.581,1194.26,622.284,1148.565z"/>
<path style="fill:#165260;" d="M1584.253,805.761c-3.794-2.933-9.251-1.267-13.682,0.567
	c-57.084,23.627-110.018,56.173-165.925,82.465c-67.122,31.566-138.313,53.954-211.113,68.424
	c-27.01,5.368-54.241,9.646-81.567,12.899c-98.341,11.705-201.467,9.573-291.782-31.062
	c-101.439-45.64-176.23-134.748-239.817-226.014c-40.679-58.387-78.4-118.894-122.02-175.194
	c-16.772-21.647-34.409-42.647-53.311-62.472c-5.826-6.111-15.991-21.766-26.071-18.548c-11.548,3.687-2.207,23.957,0.063,31.485
	c21.661,71.839,57.099,139.498,103.819,198.213c19.799,24.881,42.22,49.314,50.638,79.977c6.051,22.043,4.969,47.337,19.527,64.961
	c12.95,15.68,34.639,20.619,51.345,32.214c24.945,17.313,36.851,48.103,42.48,77.94c5.63,29.837,6.448,60.714,15.843,89.588
	c18.724,57.543,70.413,100.258,127.698,119.758c57.285,19.5,119.665,18.423,179.58,9.936
	c233.21-33.036,438.487-172.64,609.151-334.973C1584.858,820.457,1590.53,810.614,1584.253,805.761z"/>
<path style="fill:#063B47;" d="M321.871,1617.319c-18.307,7.851-43.112,8.484-50.012-14.268
	c-5.559-18.332,0.251-38.557,4.997-56.396c4.228-15.891,9.009-31.331,14.777-46.752c6.108-16.331,10.648-32.041,12.927-49.364
	c2.013-15.292,2.135-32.223,8.51-46.491c5.378-12.035,14.485-21.397,23.141-31.086c9.995-11.187,16.678-22.513,19.591-37.427
	c0.836-4.282,1.519-8.586,2.143-12.9l0,0c-2.478,4.357-5.056,8.661-7.762,12.893c-2.773,4.335-5.681,8.597-8.777,12.757
	c-12.138,16.312-26.942,31.386-33.954,50.227c-0.644,1.73-1.216,3.477-1.729,5.239c-1.026,3.522-1.816,7.101-2.471,10.713
	c-0.981,5.417-1.658,10.908-2.37,16.391c-0.475,3.655-0.965,7.307-1.571,10.932c-3.171,18.955-9.508,37.121-16.994,54.998
	c-4.492,10.725-9.397,21.347-14.281,31.971c-13.022,28.332-25.889,56.685-30.337,87.102c-2.034,13.911,1.851,31.349,10.663,41.215
	c1.763,1.974,3.722,3.643,5.871,4.922c4.297,2.557,9.351,3.547,15.097,2.26c1.714-0.384,3.341-0.968,4.899-1.7
	c3.116-1.465,5.953-3.519,8.643-5.742c1.345-1.111,2.653-2.265,3.94-3.408c0.051-0.046,0.103-0.092,0.154-0.138
	c7.573-6.725,15.16-13.515,22.746-20.365c0.131-0.118,0.261-0.236,0.392-0.354c7.59-6.855,15.182-13.768,22.762-20.737
	C329.301,1613.812,325.663,1615.693,321.871,1617.319z"/>
<path style="fill:#165260;" d="M439.704,1269.205c-15.747,11.71-40.197,14.049-49.118,30.982
	c-6.359,12.069-1.717,26.296-1.42,39.703c0.657,29.61-20.097,55.428-37.046,80.555c-22.49,33.343-39.735,69.802-50.981,107.785
	c-5.351,18.073,7.419,27.008,20.565,22.858c16.706-5.274,35.608-27.215,47.961-38.694
	c70.484-65.502,131.337-139.535,191.951-213.312c2.67-3.249,5.435-6.702,6.05-10.757c1.313-8.642-7.363-15.45-15.581-19.301
	c-8.219-3.85-17.815-7.46-21.202-15.524c-2.319-5.522-1.02-11.881,1.392-17.425c2.168-4.979,5.161-9.462,8.59-13.682
	c-22.842-12.53-44.767-26.534-65.532-42.134c-2.501,6.209-4.711,12.535-6.384,19.053
	C462.564,1224.182,461.056,1253.328,439.704,1269.205z"/>
<path style="fill:#A8C7CE;" d="M1477.912,1017.304c-50.512,31.523-102.49,60.724-155.907,87.036
	c-107.855,53.123-221.804,94.518-339.718,118.623c-20.719,4.236-41.675,7.919-62.716,10.393c18.1,21.659,36.845,42.99,55.909,64.157
	c128.891-14.751,254.693-58.492,356.955-127.193c80.949-54.385,151.583-123.474,211.828-200.515
	c-0.025,0.027-0.048,0.056-0.073,0.083C1525.988,989.789,1500.872,1002.975,1477.912,1017.304z"/>
<path style="fill:#063B47;" d="M1111.688,1467.657c6.484,10.38,12.514,21.063,19.88,30.851c6.432,8.547,13.011,17.029,18.023,26.52
	c4.316,8.173,6.551,17.188,2.885,26.074c-3.084,7.476-9.885,11.68-17.89,11.522c-16.74-0.331-32.854-13.679-45.672-23.148
	c-17.645-13.034-35.304-26.168-53.382-38.595c-20.365-14-42.179-25.43-66.516-30.632c-13.241-2.83-26.459-3.953-39.071-9.282
	c-11.399-4.816-21.732-11.836-31.561-19.27c-10.03-7.586-19.771-15.561-30.392-22.33c-12.745-8.123-27.062-13.923-40.824-20.09
	c-16.161-7.243-32.368-14.388-48.224-22.224l1.019,0.692c4.634,3.002,9.32,5.933,14.034,8.823c33,20.233,67.406,38.499,95.485,65.52
	c5.494,5.287,10.768,10.924,16.153,16.398c3.59,3.648,7.229,7.224,11.017,10.576c3.788,3.351,7.723,6.477,11.904,9.225
	c2.091,1.374,4.243,2.654,6.469,3.82c4.905,2.57,10.044,4.521,15.294,6.178c8.751,2.763,17.81,4.711,26.608,7.358
	c40.487,12.18,75.257,39.082,112.278,60.068c16.828,9.539,34.122,17.856,52.63,23.012c6.772,1.886,14.605,2.417,22.107,1.538
	c9.003-1.055,17.53-4.138,23.176-9.34c3.764-3.468,6.246-7.877,6.736-13.255c0.122-1.344,0.121-2.749-0.018-4.215
	c-0.164-1.748-0.539-3.437-1.068-5.075c-1.059-3.275-2.74-6.349-4.606-9.298c-0.933-1.474-1.912-2.917-2.884-4.338
	c-4.635-6.781-9.388-13.503-14.22-20.184c-1.692-2.339-3.441-4.65-5.156-6.977c-3.171-4.306-6.344-8.609-9.588-12.877
	c-2.137-2.812-4.32-5.601-6.487-8.398c-2.889-3.728-5.778-7.455-8.717-11.158c-2.417-3.045-4.863-6.076-7.312-9.106
	c-2.729-3.378-5.466-6.753-8.231-10.113c-2.667-3.24-5.35-6.471-8.048-9.695c-2.561-3.061-5.134-6.116-7.721-9.163
	c-2.933-3.456-5.873-6.907-8.836-10.347c-2.295-2.664-4.603-5.321-6.914-7.977c-3.306-3.799-6.613-7.598-9.949-11.382
	c-1.711-1.941-3.433-3.875-5.151-5.812c-3.968-4.474-7.936-8.948-11.935-13.405
	C1082.113,1421.181,1097.093,1444.295,1111.688,1467.657z"/>
<path style="fill:#05303A;" d="M586.193,920.51c2.493,3.189,3.983,7.189,3.831,11.551c-0.344,9.848-8.606,17.554-18.454,17.21
	c-9.848-0.343-17.554-8.605-17.211-18.454c0.036-1.024,0.206-2.007,0.406-2.977c-1.484,2.786-2.44,5.9-2.557,9.268
	c-0.413,11.825,8.839,21.745,20.663,22.157c11.825,0.413,21.745-8.839,22.157-20.663
	C595.285,931.205,591.762,924.555,586.193,920.51z"/>
<path style="fill:#FFFFFF;" d="M586.193,920.51c-3.135-4.012-7.893-6.712-13.38-6.903c-8.825-0.308-16.327,5.864-18.049,14.233
	c-0.199,0.971-0.37,1.954-0.406,2.977c-0.344,9.849,7.362,18.111,17.211,18.454c9.849,0.344,18.111-7.362,18.454-17.21
	C590.176,927.699,588.686,923.699,586.193,920.51z"/>
<path d="M568.665,918.938c-2.728-0.095-5.227,0.848-7.206,2.425c0.701-0.179,1.427-0.242,2.157-0.018
	c2.235,0.687,3.461,3.179,2.739,5.566c-0.722,2.387-3.119,3.765-5.354,3.078c-1.791-0.551-2.879-2.267-2.89-4.154
	c-0.467,1.157-0.781,2.396-0.827,3.716c-0.211,6.074,4.54,11.169,10.614,11.381c6.074,0.212,11.169-4.54,11.381-10.614
	C579.491,924.245,574.739,919.149,568.665,918.938z"/>
<path style="fill:#05303A;" d="M603.669,938.798c-0.112,1.569,1.07,2.933,2.64,3.044c1.57,0.112,2.933-1.07,3.044-2.639
	c0.074-1.031,0.111-2.054,0.111-3.067c0.063-15.071-8.31-28.202-22.955-33.624c-1.474-0.552-3.116,0.196-3.667,1.67
	c-0.551,1.474,0.197,3.116,1.671,3.668v-0.001c12.451,4.714,19.19,15.252,19.253,28.286
	C603.765,937.012,603.733,937.899,603.669,938.798z"/>
<path style="fill:#90B4BA;" d="M456.31,1126.701c1.204-1.014,1.357-2.812,0.343-4.015
	C347.628,993.293,287.605,832.667,287.608,671.798c0-6.849,0.109-13.699,0.327-20.547c0.05-1.573-1.185-2.889-2.758-2.938
	c-1.573-0.05-2.888,1.184-2.938,2.758v0c-0.22,6.909-0.33,13.819-0.33,20.729c0.003,162.291,60.531,324.179,170.386,454.56
	C453.309,1127.561,455.106,1127.715,456.31,1126.701z"/>
<path style="fill:#90B4BA;" d="M285.723,618.006c-0.146,1.567,1.007,2.955,2.574,3.101c1.567,0.146,2.956-1.007,3.101-2.574l0,0
	c2.919-31.452,5.813-63.414,5.814-95.196c0-31.912-2.92-63.653-11.711-94.487c-0.431-1.514-2.008-2.391-3.521-1.959
	c-1.513,0.432-2.391,2.009-1.959,3.522c8.599,30.157,11.493,61.357,11.493,92.925C291.513,554.773,288.642,586.564,285.723,618.006z
	"/>
<path style="fill:#90B4BA;" d="M340.033,539.23c0.34,1.358,1.717,2.182,3.075,1.841c1.358-0.341,2.182-1.717,1.841-3.075
	c-6.899-27.48-13.853-55.188-24.577-81.572c-10.731-26.386-25.441-51.582-46.038-71.034c-1.018-0.961-2.622-0.915-3.583,0.103
	c-0.961,1.017-0.915,2.622,0.103,3.583v-0.001c19.881,18.766,34.28,43.318,44.822,69.258
	C326.225,484.275,333.138,511.75,340.033,539.23z"/>
<path style="fill:#90B4BA;" d="M323.094,560.313c-1.391-0.157-2.646,0.844-2.802,2.235v-0.001
	c-2.402,21.291-3.594,42.713-3.594,64.135c0.001,71.479,13.273,142.958,39.19,209.589c0.508,1.305,1.976,1.951,3.281,1.444
	c1.305-0.507,1.951-1.976,1.444-3.28c-25.686-66.034-38.846-136.901-38.845-207.752c0-21.234,1.181-42.466,3.562-63.566
	C325.485,561.725,324.485,560.471,323.094,560.313z"/>
<path style="fill:#90B4BA;" d="M449.268,752.156c21.615,29.584,28.963,67.359,35.708,104.151c0.253,1.377,1.574,2.287,2.951,2.035
	c1.377-0.253,2.288-1.574,2.035-2.951c-6.78-36.794-14.111-75.37-36.599-106.223c-7.216-9.883-15.703-18.556-23.767-27.36
	c-38.175-41.644-70.669-91.831-74.88-147.547c-0.106-1.396-1.324-2.441-2.719-2.336c-1.396,0.107-2.441,1.324-2.335,2.72
	c4.389,57.494,37.668,108.525,76.196,150.587C434.001,734.114,442.344,742.662,449.268,752.156z"/>
<path style="fill:#90B4BA;" d="M586.699,1167.391c-58.389-30.979-106.002-83.998-141.929-139.772
	c-35.932-55.76-60.185-114.257-72.016-155.917c-0.383-1.346-1.784-2.128-3.13-1.745c-1.346,0.383-2.128,1.785-1.745,3.131
	l-0.001-0.001c11.989,42.187,36.391,101.023,72.631,157.276c36.244,56.239,84.319,109.914,143.814,141.504
	c1.236,0.656,2.771,0.186,3.427-1.05C588.405,1169.58,587.935,1168.046,586.699,1167.391z"/>
<path style="fill:#90B4BA;" d="M549.753,1025.798c12.644,15.106,18.883,33.93,24.253,53.69c5.382,19.742,9.872,40.361,19.463,58.813
	c0.647,1.242,2.177,1.724,3.418,1.078c1.242-0.646,1.725-2.177,1.079-3.418c-9.187-17.634-13.66-37.892-19.069-57.805
	c-5.422-19.896-11.803-39.508-25.255-55.61c-6.175-7.373-13.392-13.459-19.697-20.079c-22.284-23.349-35.06-55.593-35.053-87.859
	c0-2.34,0.067-4.681,0.202-7.018c0.081-1.398-0.987-2.596-2.383-2.677c-1.398-0.081-2.596,0.986-2.677,2.384l-0.001,0
	c-0.141,2.436-0.21,4.873-0.21,7.311c0.007,33.599,13.242,67.015,36.454,91.358C536.844,1012.84,543.966,1018.865,549.753,1025.798z
	"/>
<path style="fill:#90B4BA;" d="M487.343,1143.477c-1.017-0.963-2.621-0.919-3.583,0.098s-0.918,2.621,0.098,3.583v-0.001
	c43.027,40.737,95.218,71.711,151.587,89.965c1.331,0.431,2.76-0.299,3.192-1.63c0.432-1.332-0.299-2.761-1.63-3.192
	C581.363,1214.283,529.813,1183.689,487.343,1143.477z"/>
<path style="fill:#90B4BA;" d="M439.614,883.731c0.31,1.365,1.668,2.219,3.033,1.909c1.365-0.31,2.219-1.668,1.909-3.033
	c-10.471-46.008-21.505-93.657-48.959-132.841c-13.333-18.961-29.972-35.425-38.282-55.971c-0.527-1.297-2.005-1.921-3.302-1.394
	c-1.297,0.527-1.921,2.005-1.395,3.302l0,0c8.9,21.82,25.91,38.492,38.828,56.973C418.165,790.757,429.169,837.722,439.614,883.731z
	"/>
<path style="fill:#90B4BA;" d="M451.007,933.7c-0.499-1.308-1.963-1.964-3.272-1.465c-1.308,0.499-1.964,1.963-1.465,3.271h-0.001
	c17.96,47.107,44.059,91.091,76.799,129.429c0.909,1.064,2.508,1.19,3.573,0.282c1.064-0.909,1.19-2.509,0.281-3.573
	C494.563,1023.751,468.758,980.262,451.007,933.7z"/>
<path style="fill:#90B4BA;" d="M1267.307,1148.183c-0.694-1.215-2.242-1.638-3.458-0.943
	c-91.554,52.296-194.062,85.34-298.922,96.358c-1.392,0.146-2.402,1.394-2.255,2.786c0.146,1.392,1.393,2.402,2.786,2.256l0,0
	c105.565-11.094,208.735-44.351,300.906-96.998C1267.579,1150.947,1268.001,1149.398,1267.307,1148.183z"/>
<path style="fill:#90B4BA;" d="M1318.167,1145.949c-86.143,55.403-183.151,93.861-283.857,112.532
	c-1.377,0.255-2.285,1.578-2.03,2.954c0.255,1.376,1.577,2.285,2.954,2.03l0,0c101.357-18.793,198.972-57.492,285.675-113.253
	c1.177-0.757,1.517-2.325,0.76-3.503C1320.912,1145.532,1319.344,1145.192,1318.167,1145.949z"/>
<path style="fill:#90B4BA;" d="M1454.09,1041.038c-38.643,29.496-79.462,56.139-122.017,79.641
	c-1.226,0.677-1.671,2.218-0.993,3.444c0.676,1.226,2.218,1.67,3.444,0.993h0c42.774-23.622,83.802-50.402,122.642-80.05
	c1.113-0.849,1.326-2.439,0.477-3.552C1456.792,1040.402,1455.202,1040.189,1454.09,1041.038z"/>
<path style="fill:#063B47;" d="M828.491,1244.511c-8.906,8.278-4.447,23.301,2.605,33.204c14.751,20.718,37.27,34.242,56.608,50.76
	c24.716,21.112,44.683,47.751,58.013,77.398c4.219,9.383,8.612,19.954,18.005,24.15c8.544,3.817,18.502,1.047,27.777,2.282
	c16.847,2.245,28.748,16.871,40.823,28.832c14.488,14.351,31.538,26.108,50.103,34.547c9.637,4.381,24.361,8.692,23-5.602
	c-1.126-11.828-12.263-24.631-19.129-33.669c-5.536-7.286-11.17-14.493-16.885-21.636c-29.166-36.45-60.444-71.201-91.558-106.027
	c-17.663-19.772-35.407-39.697-56.269-56.06c-20.862-16.363-45.243-29.137-71.542-32.496
	C842.528,1239.234,834.039,1239.354,828.491,1244.511z"/>
<path style="fill:#165260;" d="M1672.646,364.87c-29.175-15.275-64.168-17.35-92.33-34.42c-15.158-9.187-27.755-22.55-36.035-38.222
	c-9.326-17.654-18.886-13.262-19.199,5.935c-0.457,27.999,13.692,54.262,30.835,76.405c5.552,7.17,11.455,14.066,17.431,20.903
	c12.476,14.274,25.268,28.288,35.832,44.002c13.856,20.611,23.557,43.666,34.629,65.897c8.925,17.92,21.243,37.233,40.937,40.833
	c17.863,3.265,35.801-8.454,45.328-23.913c13.808-22.403,13.3-51.155,5.919-76.416
	C1726.115,412.068,1703.849,381.207,1672.646,364.87z"/>
</svg>
