<svg xmlns="http://www.w3.org/2000/svg" width="780" height="540"><path d="m445 121 3.441.96c29.215 8.737 50.663 28.841 71.559 50.04l2.027-1.312c9.823-5.696 19.486-6.628 30.41-3.797 12.59 4.817 21.629 13.558 27.375 25.672 5.07 12.038 5.7 22.887 1.465 35.44-2.343 5.498-5.3 9.68-10.277 12.997.614 4.163 2.025 7.316 3.992 11.023l.914 1.74a1060 1060 0 0 0 1.951 3.692c1.732 3.267 3.437 6.55 5.143 9.83l1.04 1.997c33.02 63.538 33.02 63.538 26.077 92.386-1.174 3.256-2.53 6.258-4.117 9.332l-1.434 2.863c-6.85 12.625-16.33 24.118-26.152 34.547-1.285 1.38-2.564 2.767-3.782 4.205-3.79 4.474-7.826 8.621-12.01 12.72l-1.755 1.724c-2.415 2.37-4.832 4.738-7.263 7.09-11.698 10.898-11.698 10.898-18.366 25.093.064 5.54.064 5.54 2.762 10.195 1.66.865 3.324 1.72 5.008 2.536 7.497 3.637 7.497 3.637 8.992 7.027-.07 3.387-.38 5.255-2.562 7.875-2.993 1.381-5.193 1.282-8.438 1.035-2.067-.046-2.067-.046-3.945 1.086-2.509 1.226-4.159 1.142-6.93 1.004-3.11-.072-5.032-.032-8 1-6.864 2.196-13.884 1.979-20.437-1.062C487.132 481.548 479.945 464.6 473 450l-1.24-2.596c-1.73-3.621-3.458-7.243-5.172-10.871l-1.193-2.525-1.175-2.488c-1.678-3.465-3.464-6.872-5.265-10.273-1.721-4.05-1.425-7.165.045-11.247 2.357-4.846 5.148-9.433 8-14l-2.029.427q-4.641.976-9.284 1.948l-3.189.672C418.688 406.12 384.352 408.369 350 404l-2.335-.291A700 700 0 0 1 335 402c-.684 6.22-.684 6.22 2.063 11.563L340 416a136 136 0 0 1 3.813 4l1.832 1.938c1.683 2.561 1.74 4.052 1.355 7.062-4.46 4.631-10.75 5.228-16.852 5.656-2.197.239-2.197.239-4.16 1.371-2.27 1.111-3.673 1.153-6.175 1.036L316 437l-1 1c.613 2.91 1.297 5.753 2.063 8.625l.685 2.582c3.618 14.457 3.618 14.457 11.252 26.793 3.095 1.488 3.095 1.488 6.563 2.625 6.25 2.188 6.25 2.188 8.437 4.375.676 6.986.676 6.986-1.625 10.438-2.863 1.883-4.983 2.216-8.375 2.562l-2.312.563c-4.444.723-9.386 1.146-13.731-.192-2.586-.49-3.495.209-5.707 1.567-5.074 2.682-9.15 2.783-14.637 1.507C277.78 493.22 260.66 477.161 246 463l-1.881-1.815C236.214 453.518 228.68 445.777 222 437l-1.509-1.933c-7.358-9.448-13.992-19.172-20.054-29.505-.57-.97-1.142-1.939-1.73-2.938-5.423-9.446-9.423-19.254-12.707-29.624a4996 4996 0 0 0-3.937 11.188l-1.131 3.197-1.084 3.095-1 2.841c-2.129 6.725-3.02 13.69-1.848 20.679 1.803 2.91 3.83 5.258 6.133 7.785 1.77 2.1 2.62 3.375 3.18 6.027C186 431 186 431 184 433.75c-7.75 5.813-17.386 8.446-27 7.25-16.188-4.942-26.4-23.868-33.871-37.828C114.495 386.513 108.19 369.545 105 351l-.625-3.07c-6.727-37.28.794-84.71 13.625-119.93l2-2 .288 1.702C127.065 267.357 139.15 307.984 166 339l2.145 2.547c5.103 5.899 10.611 10.787 16.855 15.453l.078-2.246c2.468-45.828 32.786-93.125 62.626-126.284 1.953-2.215 3.773-4.532 5.608-6.845 4.47-5.515 9.307-10.653 14.197-15.792 2.94-3.093 5.825-6.201 8.593-9.45 4.988-5.744 10.407-11.078 15.785-16.455a1738 1738 0 0 0 5.535-5.574c6.883-6.916 13.875-13.348 21.578-19.354a1855 1855 0 0 0 3.39-2.75C354.735 126.8 403.89 107.71 445 121" fill="#252023"/><path d="m445 121 3.441.96c10.924 3.268 20.633 8.513 30.559 14.04l-1 3 1.434 1.215c19.191 16.498 19.191 16.498 21.191 27.097-.853 3.667-2.52 4.692-5.625 6.688-3.081 1.54-6.31 1.143-9.687 1.125l-2.108.012c-4.494-.009-8.752-.473-13.205-1.137q-3.403-.204-6.812-.25l-3.395-.078c-8.479.733-15.762 4-23.168 8.016l-2.48 1.322a166 166 0 0 0-16.895 10.494C415 195 415 195 412 196l-.078-3.473q-.084-2.295-.172-4.59l-.043-2.279c-.306-7.061-2.443-11.394-7.52-16.47-7.135-4.897-14.791-4.711-23.187-4.188l-1 1 2.781-.14c13.724-.404 13.724-.404 19.219 4.14 2.831 2.852 3.917 4.386 4.46 8.41-.027 1.205-.056 2.41-.085 3.653l-.04 3.66c-.307 3.007-.757 4.747-2.335 7.277h-2l-1.172-2.52-1.578-3.292-1.547-3.27c-1.7-2.911-2.772-4.316-5.703-5.918-9.25-1.801-17.36 2.107-24.875 7.125l-2.117 1.508C363 188 363 188 360.868 188.93c-2.374 1.36-2.805 2.584-3.868 5.07a329 329 0 0 1-3.879 6.098c-2.624 4.452-2.593 8.888-2.121 13.902 1.698 4.735 3.817 7.243 8 10q1.864.778 3.75 1.5c3.25 1.5 3.25 1.5 4.5 3.375C367 231 367 231 365.125 233.75c-3.587 2.583-5.456 3.056-9.781 2.797-5.66-1.32-9.192-5.193-12.844-9.484-2.89-5.576-1.783-12.948-1.5-19.063-1.874 10.652-1.012 17.365 4.625 26.688 3.637 3.54 7.956 5.858 12.375 8.312-2.915 3.419-5.837 6.828-8.824 10.184-7.483 8.462-14.092 17.3-20.176 26.816l-1.797 2.742c-3.968 6.799-4.08 13.545-3.203 21.258 1.504 4.711 3.602 8.99 5.875 13.375 5.262 10.512 9.554 19.578 8.125 31.625-3.78 8.38-12.796 13.952-20.125 19.125-10.488 7.418-19.427 14.41-21.875 27.875-.636 6.86.723 11.838 3.5 18.063a316 316 0 0 1 8.813 23.437l.984 2.926C315.58 459.484 315.58 459.484 315 468l-2-2-1.312 2.375C310 471 310 471 307 473c-8.98.778-14.616-3.379-21.223-8.836-2.66-2.319-5.226-4.725-7.777-7.164l-1.795-1.696C250.902 431.262 231.155 400.922 222 367l-.633-2.322c-5.62-21.646-6.05-48.295-.617-69.99l.534-2.178c5.038-19.992 13.484-38.045 23.811-55.803 1.05-1.867 1.05-1.867 1.905-4.707l-2 1c1.5-3.448 3.504-5.824 6.063-8.562a214 214 0 0 0 9.5-11.063c3.234-4 6.59-7.691 10.32-11.23 1.765-1.788 3.373-3.602 5-5.512 5.063-5.829 10.546-11.249 16.004-16.705a1738 1738 0 0 0 5.535-5.574c6.883-6.916 13.875-13.348 21.578-19.354a1855 1855 0 0 0 3.39-2.75C354.735 126.8 403.89 107.71 445 121" fill="#3A3438"/><path d="m460.125 186.688 3.069.017c17.802.286 35.847 4.842 49.806 16.295l2.219 1.695C537.212 222.585 550.765 255.041 563 280l3-.176c8.004-.325 13.598-.18 20 5.176v1h-7v2l2.75.25c3.724.86 5.028 1.673 7.25 4.75.25 2.75.25 2.75 0 5l-6-1 1.5 2c2.494 4.989 2.105 8.768.691 13.984-8.15 23.58-30.576 40.46-52.273 51.211-16.962 7.995-35.55 13.545-54.328 14.434-4.024.576-7.329 2.371-10.945 4.156-9.43 4.332-19.92 4.032-29.645.715a234 234 0 0 1-6-2.5l-2.109-.907c-16.67-7.22-33.036-15.024-48.641-24.343l-2.453-1.464c-5.168-3.146-10.033-6.56-14.797-10.286l-2.363-1.844C350.087 332.343 341.796 320.387 337 306c-.535-7.04-.41-12.75 3-19l-5 3c.257-4.37.6-6.518 3.438-9.937C341 278 341 278 343 278v-2l-9 1c2.358-4.717 4.055-6.352 9-8 1.95.134 3.902.27 5.851.423 7.283.475 7.283.475 13.883-2.153 2.347-2.626 4.296-5.35 6.266-8.27a580 580 0 0 1 3.718-4.645c5.992-7.43 11.688-15.11 17.448-22.72 18.14-23.922 37.776-45.136 69.959-44.947" fill="#FDFDFD"/><path d="m540 239 2 .813 3 1.187 1.832.8c8.498 3.537 14.814 2.365 23.168-.8l1.469 2.944c3.491 6.993 6.994 13.98 10.531 20.95 7.174 14.166 14.285 28.273 20 43.106l1.441 3.656c6.255 16.579 11.764 35.91 5.496 53.281A133 133 0 0 1 606 371l-1.434 2.863c-6.85 12.625-16.33 24.118-26.152 34.547-1.285 1.38-2.564 2.767-3.782 4.205-3.79 4.474-7.826 8.621-12.01 12.72l-1.755 1.724c-2.415 2.37-4.832 4.738-7.263 7.09-11.698 10.898-11.698 10.898-18.366 25.093.064 5.54.064 5.54 2.762 10.195 1.66.865 3.324 1.72 5.008 2.536 7.497 3.637 7.497 3.637 8.992 7.027-.07 3.387-.38 5.255-2.562 7.875-2.993 1.381-5.193 1.282-8.438 1.035-2.067-.046-2.067-.046-3.945 1.086-2.509 1.226-4.159 1.142-6.93 1.004-3.11-.072-5.032-.032-8 1-6.864 2.196-13.884 1.979-20.437-1.062C487.132 481.548 479.945 464.6 473 450l-1.24-2.596c-1.73-3.621-3.458-7.243-5.172-10.871l-1.193-2.525-1.175-2.488c-1.678-3.465-3.464-6.872-5.265-10.273-1.721-4.05-1.425-7.165.045-11.247 2.357-4.846 5.148-9.433 8-14l-2.029.427q-4.641.976-9.284 1.948l-3.189.672C418.688 406.12 384.352 408.369 350 404l-2.335-.291A700 700 0 0 1 335 402c-.684 6.22-.684 6.22 2.063 11.563L340 416a136 136 0 0 1 3.813 4l1.832 1.938c1.683 2.561 1.74 4.052 1.355 7.062-4.46 4.631-10.75 5.228-16.852 5.656-2.378.38-4.016 1.25-6.148 2.344-4.972.815-4.972.815-8 0-5.809-4.318-9.454-11.03-11-18-.837-8.641-1.224-16.658 4-24 3.968-3.657 8.185-5.57 13.063-7.687 7.863-3.565 14.313-7.72 20.937-13.313.895-.755 1.79-1.51 2.71-2.29 4.72-4.122 8.967-8.408 12.915-13.276L360 357h2c.396 6.605-.973 10.484-5.121 15.633l-2.317 2.492-2.308 2.508a99 99 0 0 1-4.477 4.422c-1.861 2.037-2.392 3.25-2.777 5.945 29.73 11.086 68.75 7.202 99.938 4.688l2.289-.179c18.282-1.461 45.002-3.725 58.226-18.087 2.58-2.372 5.953-3.065 9.235-4.11C532.79 364.209 549.598 354.59 564 342l2.297-2.008c9.351-8.738 18.408-21.003 19.078-34.18-.39-3.961-1.34-6.422-3.375-9.812l6 1c-.113-2.409-.113-2.409-1-5-2.63-1.938-4.901-2.967-8-4v-2l6-1c-6.715-5.24-13.909-4.375-22-4l-.927-1.718c-6.096-11.28-12.266-22.5-18.77-33.553l-1.319-2.249-1.165-1.971C540 240 540 240 540 239" fill="#252023"/><path d="M430.09 229.063c4.474 3.48 6.888 7.381 7.91 12.937 1.276 11.883-1.698 22.441-7 33v2l2.957-1.496 3.856-1.942 1.947-.986c8.43-4.237 17.036-4.896 26.287-2.928C478.365 273.814 486.699 281.25 495 291l1.746 1.664c5.564 5.405 7.34 13.16 9.62 20.364a138 138 0 0 0 1.677 4.843c3.528 10.088 3.058 19.764-1.516 29.418-4.852 8.612-14.276 17.428-23.922 20.465L481 368l1 5c8.42-.388 15.977-1.447 24-4l3.95-1.145c21.418-6.43 39.848-17.543 56.05-32.855l2.191-2.031c7.074-6.765 14.115-15.205 15.02-25.328.061-3.742-.202-7.027-1.211-10.641 2.917 2.79 3.907 4.181 4.375 8.313-.302 15.196-11.865 27.918-22.172 37.894-23.072 20.722-54.648 33.956-85.613 35.422-4.024.576-7.329 2.371-10.945 4.156-9.43 4.332-19.92 4.032-29.645.715a234 234 0 0 1-6-2.5l-2.109-.907c-16.67-7.22-33.036-15.024-48.641-24.343l-2.453-1.464c-5.168-3.146-10.033-6.56-14.797-10.286l-2.363-1.844C350.087 332.343 341.796 320.387 337 306c-.568-7.376-.106-13.271 3-20 1.083 3.411.915 6.262.688 9.813-.073 16.14 9.835 28.614 20.5 39.812 13.574 13.123 30.489 22.07 47 30.938l2.393 1.302c4.152 2.193 7.663 3.703 12.419 4.135l.438-1.875C424 368 424 368 425 366l2.852.14c7.703.553 7.703.553 14.836-1.765 5.849-6.007 5.935-12.35 6.312-20.375l-2.875-.187c-7.043-1.003-13.986-4.995-19.125-9.813l-2-3 .875 1.75L429 339c-6.18.813-10.944-1.706-16-5-3.398-3.186-6.797-6.6-7.203-11.398-.18-11.433 1.337-20.947 9.203-29.602l-2.125.875c-8.114 3.175-13.696 4.752-22 1.188-6.026-3.232-8.893-8.098-11.875-14.063-1.415-11.095 2.416-20.668 8.688-29.687 8.737-11.267 26.015-30.582 42.402-22.25M251.625 79.813l2.914-.043c7.843.522 15.259 2.577 22.649 5.168l2.596.885c4.747 1.69 9.162 3.603 13.571 6.048 14.842 8.169 26.809 9.194 43.587 9.084 7.126.024 14.219.693 21.308 1.358l2.134.198C379.38 104.32 398.96 107.971 416 117v1l-2.329.272C377.238 122.632 346.49 133.108 318 157l-3.02 2.51c-8.42 7.062-16.311 14.538-24.042 22.346a1640 1640 0 0 1-5.698 5.718c-5.958 5.976-11.775 11.99-17.24 18.426q-2.43 2.664-4.875 5.313c-4.082 4.475-7.954 9.07-11.742 13.796a155 155 0 0 1-5.016 5.782C236.072 242.194 228.12 255.105 220 268l-1.442 2.271C201.517 297.216 187.763 325.806 186 358c-16.352-9.897-27.65-25.734-37-42l-1.246-2.146C133.163 288.397 124.901 260.759 120 232l-.617-3.45c-2.528-23.447 4.857-39.456 19.242-57.425 5.352-6.4 11.13-11.976 17.441-17.414 2.772-2.453 5.35-5.062 7.934-7.711l2 1-1.871 2.063c-18.165 20.79-27.746 46.058-26.302 73.74C139.471 243.705 147.764 264.49 162 280l1.996 2.203c5.812 6.118 11.897 10.946 20.379 12.36 3.542-.151 3.542-.151 4.895-2.023l1.14-1.962 1.291-2.209c2.204-4.02 4.289-8.093 6.362-12.182C206.09 260.633 215.538 246.025 226 232l1.225-1.646c8.808-11.775 18.311-22.888 28.306-33.667a208 208 0 0 0 5.719-6.5c7.49-8.631 15.8-16.882 24.531-24.253 3.32-2.893 6.51-5.92 9.719-8.934 4.433-4.157 8.884-8.268 13.484-12.238C323.876 132.85 323.876 132.85 335 118c-.382-2.62-.382-2.62-1-5-6.944-2.466-13.026-3.43-20.375-3.25l-2.787.038c-13.1.228-25.764 1.966-38.647 4.232-1.047.18-2.095.362-3.174.55q-3.135.542-6.264 1.109c-6.32 1.094-12.342 1.56-18.753 1.321l-1-4c7.375-6.9 18.167-8.07 27.71-10.193l2.72-.623 2.445-.546c2.393-.606 2.393-.606 5.125-2.638-.235-3.172-1.15-4.15-3.437-6.437C267.497 84.69 257.438 83.127 245 84c-8.025 1.671-13.912 5.649-20 11l-2-1c8.289-8.069 16.76-14.11 28.625-14.187" fill="#D7D1D4"/><path d="M586 347c5.211 3.407 8.016 7.161 9.563 13.195.556 3.566.621 7.08.625 10.68l.037 2.066c.013 4.715-.746 8.58-2.225 13.059l2 1c-5.53 7.4-11.173 14.51-17.48 21.27-1.323 1.433-2.641 2.873-3.901 4.363-3.785 4.468-7.819 8.608-11.998 12.703l-1.754 1.723a1455 1455 0 0 1-7.263 7.09C539.85 447.223 539.85 447.223 535 465l-2-3-.89 1.531c-2.306 3.34-3.899 5.213-7.97 6.074-6.174.162-10.483-.266-15.14-4.605l-1.922-1.777c-6.107-6.165-9.166-13.157-12.078-21.223l-.74-1.984c-4.06-11.048-6.897-22.466-2.346-33.907 4.636-9.005 11.869-14.5 20.086-20.109l2.292-1.567c6.192-4.212 12.439-8.338 18.708-12.433l2.5-1.64c8.7-5.686 17.499-11.059 26.688-15.923l2.32-1.229c14.115-7.3 14.115-7.3 21.492-6.208m-465-49c2.437-.401 2.437-.401 5 0 5.036 4.397 7.945 11.418 10.875 17.313C142.845 326.948 150.134 336.41 159 346c19.406 21.585 19.406 21.585 21.64 34.055.351 2.15.351 2.15 1.36 4.945-.707 2.172-.707 2.172-1.812 4.75-2.373 6.05-2.979 11.739-3.5 18.16-.688 3.09-.688 3.09-2.625 4.4L172 413l-2 2c-9.216 1.398-17.577-.77-25.043-6.223-7.74-6.43-13.072-14.056-17.957-22.777l-1.453-2.562c-8.056-15.908-10.75-34.304-10.842-51.888a386 386 0 0 0-.062-4.578c-.204-10.582.301-19.888 6.357-28.972" fill="#3A3438"/><path d="M340 286c1.083 3.411.915 6.262.688 9.813-.073 16.14 9.835 28.614 20.5 39.812 13.574 13.123 30.489 22.07 47 30.938l2.393 1.302c4.152 2.193 7.663 3.703 12.419 4.135l.438-1.875C424 368 424 368 425 366l2.852.14c7.703.553 7.703.553 14.836-1.765 5.849-6.007 5.935-12.35 6.312-20.375l-2.875-.187c-6.97-.992-14.11-4.95-19.125-9.813-1.916-2.576-2.886-4.415-3.5-7.562.5-2.438.5-2.438 2.75-4.813C429 320 429 320 431.313 320.25L433 321l-1 2 16.384.573 5.98.208 3.633.127q3 .092 6.003.092l-2-2c4.219-.196 7.17.198 11 2l-2 1v2l4 1v-2c2.867.573 3.861.861 6 3 .623 4.19.657 7.877-1.5 11.563L478 342c8.415.534 13.797-1.35 20.875-5.812 4.705-4.844 5.357-9.308 5.625-15.875-.103-6.436-1.674-11.248-4.504-16.985L499 301l1-2c7.079 12.883 13.21 27.368 9.117 42.2-4.644 12.256-13.16 19.255-24.117 25.8-2.395.754-2.395.754-4 1l1 5c8.42-.388 15.977-1.447 24-4l3.95-1.145c21.418-6.43 39.848-17.543 56.05-32.855l2.191-2.031c7.074-6.765 14.115-15.205 15.02-25.328.061-3.742-.202-7.027-1.211-10.641 2.917 2.79 3.907 4.181 4.375 8.313-.302 15.196-11.865 27.918-22.172 37.894-23.072 20.722-54.648 33.956-85.613 35.422-4.024.576-7.329 2.371-10.945 4.156-9.43 4.332-19.92 4.032-29.645.715a234 234 0 0 1-6-2.5l-2.109-.907c-16.67-7.22-33.036-15.024-48.641-24.343l-2.453-1.464c-5.168-3.146-10.033-6.56-14.797-10.286l-2.363-1.844C350.087 332.343 341.796 320.387 337 306c-.568-7.376-.106-13.271 3-20" fill="#B6ACB1"/><path d="m540.188 165.5 2.25.017c10.832.348 19.792 5.057 27.562 12.483 9.544 10.18 14.594 22.876 14.313 36.777-.864 8.9-3.618 17.999-10.313 24.223-6.553 4.547-12.93 6.993-21 6-10.135-2.838-14.888-8.434-20.25-17.125-7.606-12.302-7.606-12.302-17.969-22.16C512 203 512 203 511.238 199.145q-.02-2.168.075-4.333l.06-2.288c.435-8.593 3.213-14.551 9.502-20.461 5.787-4.928 11.891-6.63 19.313-6.563" fill="#0F0D0E"/><path d="m403 215 1 2a125 125 0 0 1-4 6h-2l-.345 1.767c-.712 2.426-1.652 3.927-3.14 5.963l-1.567 2.16-1.698 2.298-1.74 2.39a446 446 0 0 1-9.194 12.14l-1.78 2.277a376 376 0 0 1-3.396 4.258c-3.285 4.17-5.039 7.537-6.14 12.747l1.875.875C373 271 373 271 375 273l-2.816.113c-9.476.5-9.476.5-18.184 3.887l9 1a93 93 0 0 1-7.062 4.938c-2.662 1.868-4.2 3.36-5.938 6.062l2-1a95 95 0 0 1 5.125-.062l2.758.027L362 288c-2.198 2.198-4.4 4.39-6.625 6.563-2.547 2.613-4.185 4.438-4.875 8.062.888 5.995 4.18 10.319 8.668 14.297 7.078 5.219 16.273 11.204 25.27 11.703 5.303-.93 8.491-3.148 11.652-7.508l1.848-3.242c3.407-5.842 7.102-11.393 11.062-16.875 1 2 1 2 .441 3.96l-.878 2.415c-2.203 7.035-3.112 14.218 0 21.063 4.7 4.94 10.197 9.374 17.25 9.687L428 338l-2.062-2.25C424 333 424 333 424.25 330.688L425 329l1.375 2.625c4.992 7.436 14.316 10.36 22.625 12.375.571 13.074.571 13.074-3 18-4.52 4.08-6.968 5.14-13 5.125l-3.25.008C427 367 427 367 425 366l-2 6c-4.401.233-7.165-.216-11.055-2.273l-2.838-1.485-2.982-1.617-3.095-1.652c-24.796-13.373-53.065-30.61-62.456-58.953-1.194-6.28-.861-12.661-.574-19.02l-5 3c.257-4.37.6-6.518 3.438-9.937C341 278 341 278 343 278v-2l-9 1c2.358-4.717 4.055-6.352 9-8 1.95.134 3.902.27 5.851.423 7.283.475 7.283.475 13.883-2.153 2.347-2.626 4.296-5.35 6.266-8.27a579 579 0 0 1 3.718-4.645c6.017-7.463 11.74-15.173 17.536-22.807A1488 1488 0 0 1 403 215" fill="#D6D0D3"/><path d="M360 357h2c.396 6.605-.973 10.484-5.121 15.633l-2.317 2.492-2.308 2.508a99 99 0 0 1-4.477 4.422c-1.861 2.037-2.392 3.25-2.777 5.945 29.73 11.086 68.75 7.202 99.938 4.688l2.289-.179c18.558-1.483 35.896-4.76 52.156-14.216L502 377l2 1c-3.105 4.28-6.505 7.146-10.75 10.188l-1.966 1.432c-5.456 3.918-11.105 7.488-16.916 10.855-5.328 3.18-8.457 6.836-12.055 11.9L461 414h-2c.523-4.903 2.001-8.184 4.563-12.375.64-1.06 1.28-2.12 1.94-3.21L467 396l-2.029.427q-4.641.976-9.284 1.948l-3.189.672C418.688 406.12 384.352 408.369 350 404l-2.335-.291A700 700 0 0 1 335 402c-.684 6.22-.684 6.22 2.063 11.563L340 416a136 136 0 0 1 3.813 4l1.832 1.938c1.683 2.561 1.74 4.052 1.355 7.062-4.46 4.631-10.75 5.228-16.852 5.656-2.378.38-4.016 1.25-6.148 2.344-4.972.815-4.972.815-8 0-5.809-4.318-9.454-11.03-11-18-.837-8.641-1.224-16.658 4-24 3.968-3.657 8.185-5.57 13.063-7.687 7.863-3.565 14.313-7.72 20.937-13.313l2.71-2.29c4.72-4.122 8.967-8.408 12.915-13.276z" fill="#0C0A0B"/><path d="M502 225c15.633 4.793 28.43 19.41 36.242 33.191 4.666 8.975 6.762 18.326 3.696 28.247-3.93 5.196-8.39 9.327-14.938 10.562-10.177.945-18.282-.655-26.25-7.25-10.603-10.048-16.934-22.93-18.035-37.531-.201-8.75-.045-16.306 5.785-23.156 4.554-3.758 7.662-4.877 13.5-4.063" fill="#3B3539"/><path d="M430.09 229.063c4.474 3.48 6.888 7.381 7.91 12.937 1.44 13.411-2.209 26.982-10 38-7.305 8.685-15.864 16.144-27.562 17.375-5.51-.112-10.019-2.158-14.438-5.375-5.1-5.976-7.438-10.99-7.336-18.8 1.597-15.207 12.334-27.445 23.336-37.2 7.499-5.918 18.59-11.768 28.09-6.937" fill="#3C363A"/><path d="M540 240c2.906 2.56 4.535 5.473 6.398 8.848l.96 1.731q1.005 1.815 2.002 3.634 1.501 2.732 3.015 5.457c3.704 6.698 7.277 13.446 10.625 20.33l3-.176c8.004-.325 13.598-.18 20 5.176v1h-7v2l2.75.25c3.724.86 5.028 1.673 7.25 4.75.25 2.75.25 2.75 0 5l-7-2 1 1.938c2.214 6.78 1.41 12.52-1.77 18.835L580 319l-1.074 2.04c-15.656 26.371-48.546 43.028-77.124 50.538-6.907 1.679-13.676 2.858-20.802 2.422-.625-2.625-.625-2.625 0-6 2.252-1.745 4.634-3.017 7.133-4.383 10.623-5.992 17.509-13.81 20.867-25.617 1.357-10.488-1.558-19.29-5-29q-.912-2.748-1.812-5.5L501 300c9.745 8.96 11.552 23.45 13 36 2.383 2.383 8.759 1.37 12.078 1.39 14.332-.228 28.602-5.04 39.352-14.714 6.248-6.669 7.852-12.777 7.57-21.676l-1-3-3-1c2-2 2-2 5.125-2.125L577 295v-2h-12c1.883-3.767 2.691-4.794 6-7-8.09-.522-13.814 1.407-21 5 1.084-2.252 2.184-4.261 3.625-6.312 2.098-4.102 2.027-7.645.623-12.047-1.058-2.664-2.195-5.278-3.373-7.891l-1.234-2.814c-2.596-5.842-5.366-11.484-8.645-16.975C540 243 540 243 540 240" fill="#D6D0D3"/><path d="M478 137c16.436 5.757 30.053 22.88 42 35-1.003 2.072-2.037 4.06-3.254 6.016-4.534 7.741-4.627 15.24-4.746 23.984l-2.902-1.574C488.818 189.703 465.42 184.109 442.5 189c-11.496 3.57-21.45 10.226-30.5 18a270 270 0 0 1-4 3l3-15 1.753-.347c2.44-.709 4.09-1.684 6.196-3.094l2.297-1.509 2.442-1.613c6.387-4.128 12.793-7.903 19.687-11.125l2.104-.988c6.012-2.725 10.832-3.463 17.396-3.449l3.555-.008c3.592.134 7.014.622 10.57 1.133 2.703.162 5.36.274 8.063.313l2.064.087c5.104.064 7.987-1.133 11.873-4.4 1.177-4.118-.256-6.941-2.187-10.562-4.144-6.554-9.78-11.76-15.374-17.063A241 241 0 0 1 477 138z" fill="#272225"/><path d="M340 286c1.083 3.411.915 6.262.688 9.813-.073 16.14 9.835 28.614 20.5 39.812 13.574 13.123 30.489 22.07 47 30.938l2.393 1.302c4.152 2.193 7.663 3.703 12.419 4.135l.438-1.875C424 368 424 368 425 366l2.852.14c7.703.553 7.703.553 14.836-1.765 4.878-5.01 6.054-10.715 7.312-17.375h1l.148 2.16c.558 8.116.558 8.116 2.852 15.84 2.415 1.467 2.415 1.467 5 2l2 1c1.52.151 3.045.249 4.57.316l2.715.127 2.84.12 2.863.13q3.506.16 7.012.307l1 4c8.42-.388 15.977-1.447 24-4l3.95-1.145c21.418-6.43 39.848-17.543 56.05-32.855l2.191-2.031c7.074-6.765 14.115-15.205 15.02-25.328.061-3.742-.202-7.027-1.211-10.641 2.917 2.79 3.907 4.181 4.375 8.313-.302 15.196-11.865 27.918-22.172 37.894-23.072 20.722-54.648 33.956-85.613 35.422-4.024.576-7.329 2.371-10.945 4.156-9.43 4.332-19.92 4.032-29.645.715a234 234 0 0 1-6-2.5l-2.109-.907c-16.67-7.22-33.036-15.024-48.641-24.343l-2.453-1.464c-5.168-3.146-10.033-6.56-14.797-10.286l-2.363-1.844C350.087 332.343 341.796 320.387 337 306c-.568-7.376-.106-13.271 3-20" fill="#8A8186"/><path d="M391 179c3.443 2.124 4.716 3.149 6 7 .738 11.23.704 21.875-6.187 31.375-7.257 6.773-13.273 8.458-23.27 8.117-5.991-.832-9.486-3.236-13.48-7.617-2.277-4.018-2.503-7.332-2.063-11.875 5.222-12.197 15.104-19.851 26.813-25.562 4.293-1.71 7.591-2.05 12.187-1.438" fill="#F59595"/><path d="M400.926 165.746c4.944 2.989 9.246 7.77 11.074 13.254.846 11.467.897 25.172-6.07 34.887a136 136 0 0 1-5.09 5.183c-2.842 2.78-5.01 5.883-7.27 9.14-5.173 7.427-9.47 12.38-18.57 14.79l-1.98.582c-8.11 1.679-15.122.563-22.082-3.906-6.188-4.334-10.175-9.184-11.938-16.676-.63-6.69.21-13.538 2-20l2-2-.473 3.04c-1.79 12.566-1.79 12.566 2.16 24.21 3.047 3.762 5.524 6.359 10.485 7.055 3.9.216 6.11.185 9.39-2.055 1.797-2.367 1.797-2.367 1.438-6.25l-1.758-.41c-6.2-1.709-9.768-4.131-13.242-9.59-2.068-6.205-1.615-11.37 1.25-17.25 5.563-10.508 15.033-17.05 25.75-21.75 4.627-1.385 9.217-1.643 14-1 5.716 3.281 7.941 7.836 10 14v2l2-1c1.145-3.436 1.24-6.254 1.313-9.875l.113-3.68c-.514-4.159-1.368-5.609-4.426-8.445-5.537-3.155-10.158-3.385-16.437-3.187l-2.506.04c-2.02.036-4.038.09-6.057.147 5.623-5.623 17.987-3.909 24.926-1.254m-45.488 33.066c-3.001 4.803-3.825 8.486-3.438 14.188 2.016 5.41 4.908 8.056 9.715 11.078 6.02 2.429 14.28 2.01 20.316-.176 5.292-2.988 9.194-6.477 11.969-11.902l.96-1.848c2.178-5.182 2.346-10.359 2.415-15.902l.042-2.222c-.04-4.519-.602-7.46-3.417-11.028-12.248-8.165-31.8 7.95-38.562 17.813" fill="#100D0E"/><path d="M409 301c1 2 1 2 .441 3.96l-.878 2.415c-2.203 7.035-3.112 14.218 0 21.063 4.7 4.94 10.197 9.374 17.25 9.687L428 338l-2.062-2.25C424 333 424 333 424.25 330.688L425 329l1.375 2.625c4.992 7.436 14.316 10.36 22.625 12.375.571 13.074.571 13.074-3 18-4.52 4.08-6.968 5.14-13 5.125l-3.25.008C427 367 427 367 425 366l-1 2-1.266-1.328c-1.736-1.674-3.52-3.024-5.484-4.422-8.749-6.538-16.99-15.176-19.25-26.25-1.327-12.292 2.146-23.552 9.61-33.305z" fill="#B7ADB2"/><path d="M567 175c9.062 8.08 15.091 18.976 17 31 .282 5.804.299 11.316-1 17h-3a349 349 0 0 0-4 5c-3.664 2.748-7.606 2.146-12 2v-2l1.875-1.812c3.83-3.944 4.434-7.937 4.5-13.313-.158-9.99-3.485-18.841-10.5-26.062-7.679-4.841-15.9-5.175-24.75-5.31L532 181c-1.437-2.035-1.437-2.035-2-4 3.432-5.516 5.866-8.549 12.125-10.375 9.097-1.757 17.773 3.029 24.875 8.375" fill="#393337"/><path d="M207.98 94.844c2.573 1.473 4.822 3.17 7.02 5.156-1.322 2.956-2.72 4.939-5.09 7.137l-1.86 1.735-1.988 1.816-2.043 1.887c-4.678 4.287-9.475 8.355-14.433 12.316-4.34 3.54-8.46 7.323-12.586 11.109-4.21-3.878-6.587-6.833-7.336-12.578-.143-9.818 2.744-16.443 9.399-23.629 8.717-8.067 18.119-10.245 28.917-4.95" fill="#675D64"/><path d="M553 188c6.368 2.884 10.363 8.651 13.375 14.813 1.177 6 1.414 11.777-.5 17.625-2.83 3.866-5.422 6.171-10.277 6.945-5.712.257-9.192-.49-13.598-4.383-5.95-5.95-8.096-12.313-8.437-20.687.142-4.837 1.129-7.637 4.437-11.313 4.55-4.107 9.148-3.741 15-3" fill="#F69696"/><path d="M431.313 320.25 433 321l-1 2 16.384.573 5.98.208 3.633.127q3 .092 6.003.092l-2-2c4.219-.196 7.17.198 11 2l-2 1v2l4 1v-2c2.867.573 3.861.861 6 3 .438 2.813.438 2.813 0 6-4.427 5.811-10.889 8.888-18 10-13.218.998-24.537-1.64-35-10-2.555-2.618-3.787-5.006-4.562-8.625.562-2.375.562-2.375 2.812-4.75C429 320 429 320 431.313 320.25" fill="#3B3539"/><path d="m341 152 2 1-1.554 1.11C331.05 161.574 321.258 169.167 312 178a373 373 0 0 1-3.812 3.25c-10.342 9-19.75 18.962-28.188 29.75a931 931 0 0 1-2.824 3.414C261.449 233.454 249.79 254.878 239 277c-3.267-9.8 6.507-24.916 10.813-33.762 9.63-19.18 23.558-35.692 38.187-51.238l1.867-1.996c4.97-5.148 10.52-9.582 16.133-14.004l1.95-1.542c9.028-7.118 18.1-13.687 28.05-19.458l2.734-1.773z" fill="#645A61"/><path d="M450 347h1l.148 2.16c.558 8.116.558 8.116 2.852 15.84 2.415 1.467 2.415 1.467 5 2l2 1c1.52.151 3.045.249 4.57.316l2.715.127 2.84.12 2.863.13q3.506.16 7.012.307c-5.614 7.097-11.81 10.832-21 12-12.83.9-23.09-.496-33.54-8.535C425 371 425 371 424 368l1-2 2.852.14c7.703.553 7.703.553 14.836-1.765 4.878-5.01 6.054-10.715 7.312-17.375" fill="#B3A9AE"/><path d="M391 179c3.443 2.124 4.716 3.149 6 7 .738 11.23.704 21.875-6.187 31.375-7.257 6.773-13.273 8.458-23.27 8.117-5.991-.832-9.486-3.236-13.48-7.617-2.257-3.982-2.148-7.391-2.063-11.875h1l.75 3.75c.98 3.789 1.814 6.08 5.25 8.25 6.508 1.142 10.77-.858 16.379-4.156 5.588-3.931 10.402-9.318 12.621-15.844.733-6.35.733-6.35-1.293-12.227-2.503-2.6-5.258-2.992-8.707-3.773 3.595-3.595 8.148-3.7 13-3" fill="#E85858"/><path d="M582 297c2.917 2.79 3.907 4.181 4.375 8.313-.302 15.196-11.865 27.918-22.172 37.894-18.684 16.78-41.458 27.023-65.703 32.73l-2.676.642C489.49 377.973 483.473 378.23 477 378c2.602-3.91 2.602-3.91 6.188-4.723l3.812-.34c6.603-.708 12.667-1.948 19-3.937l1.883-.545C530.11 362.022 549.217 350.861 566 335l2.191-2.031c7.074-6.765 14.115-15.205 15.02-25.328.061-3.742-.202-7.027-1.211-10.641" fill="#8C8287"/><path d="M272 372c20.55 12.613 29.073 43.998 36.313 65.5l.986 2.928c6.28 19.078 6.28 19.078 5.701 27.572-2.466-2.466-3.033-4.514-4.18-7.809l-1.297-3.662-.688-1.957C303.336 439.005 296.954 423.979 290 409l-1.373-2.982c-4.658-10.102-9.501-19.957-15.229-29.498C272 374 272 374 272 372" fill="#645A61"/><path d="M215 100c-1.322 2.956-2.72 4.939-5.09 7.137l-1.86 1.735-1.988 1.816-2.043 1.887c-4.678 4.287-9.475 8.355-14.433 12.316-4.34 3.54-8.46 7.323-12.586 11.109-4.262-3.925-6.655-6.88-7.3-12.719-.04-9.427-.04-9.427 3.3-13.281l2-1 .938 3.438c.691 3.35.691 3.35 2.062 4.562 7.27-.265 12.31-2.2 18.625-5.687l2.445-1.28c4.685-2.52 8.652-5.262 12.533-8.907C213 100 213 100 215 100" fill="#131112"/><path d="m424 325 1.504 1.207c9.894 7.717 20.06 10.194 32.433 10.23l2.653.01c6.86-.127 11.682-1.607 17.41-5.447l3-1c.313 2.188.313 2.188 0 5-4.52 5.79-10.839 8.88-18 10-13.209.997-24.55-1.633-35-10-3.092-3.237-4-5.397-4-10" fill="#141112"/><path d="m547.75 187.813 2.984.082L553 188v1l-2.117.332-2.758.48-2.742.458c-2.727.56-2.727.56-4.383 3.73-.823 7.212-.293 13.528 3 20 2.479 2.898 2.479 2.898 5 5l1 1c2 .2 2 .2 4.313.188l2.363.042c2.56-.253 4.14-.894 6.324-2.23 2.578-3.527 2.578-7.776 3-12h1c.582 12.105.582 12.105-3 17-3.52 3.263-6.304 4.288-11 4.5-6.243-.28-9.345-2.845-13.687-7.187-4.742-6.118-5.891-13.2-5.668-20.793.637-4.521 2.876-7.154 6.136-10.165 2.834-1.73 4.677-1.66 7.969-1.542" fill="#E75A5A"/><path d="M585 381h1c-.51 5.417-1.941 9.71-4.437 14.563l-1.052 2.08c-3.253 6.237-7.186 11.857-11.41 17.466-2.055 2.652-2.055 2.652-3.065 4.866-3.21 6.271-9.2 11.423-14.098 16.4l-1.815 1.902c-5.45 5.529-5.45 5.529-10.123 5.723 1.388-4.2 3.305-6.658 6.375-9.812 6.482-6.958 12.057-14.49 17.625-22.188l1.557-2.152c5.83-8.094 11.495-16.264 16.766-24.735.868-1.386 1.77-2.752 2.677-4.113" fill="#625960"/><path d="M554 168c10.241 4.447 19.16 10.618 24 21 1.696 5.742 1.087 12.054 1 18h-3l-1.125-3.812c-4.32-12.758-10.363-20.549-22.375-26.625A388 388 0 0 0 547 174v-4h7z" fill="#675E64"/><path d="M385 169c-1.34 3.227-2.402 4.563-5.562 6.043l-2.152 1.05-2.286 1.095c-10.907 5.52-20.06 12.234-25 23.812-1.253 4.296-2.213 8.596-3 13l-3-1c-.974-10.336 1.353-16.839 7.559-25.066 1.422-1.711 2.902-3.327 4.441-4.934l2.25-2.562c7.429-6.585 16.65-12.056 26.75-11.438" fill="#665C63"/><path d="m424 369 1.215 1.172c9.773 8.953 20.03 10.441 32.84 9.964 6.893-.483 12.521-3.104 18.156-6.952 1.866-1.235 3.772-2.22 5.789-3.184-.754 4.227-2.458 5.85-5.73 8.477-9.27 6.222-19.557 8.556-30.594 7.078-3.305-.68-6.46-1.538-9.676-2.555l-3.227-1c-2.94-1.094-5.297-2.07-7.773-4-1.194-3.076-1.306-5.735-1-9" fill="#786E74"/><path d="M295 405c6.332 9.498 9.651 21.572 13.25 32.313l.997 2.96C315.58 459.496 315.58 459.496 315 468c-2.566-2.566-3.202-4.916-4.426-8.336l-.695-1.923a1647 1647 0 0 1-2.192-6.116q-1.425-3.983-2.863-7.96l-.71-1.976c-1.5-4.129-3.144-8.17-4.887-12.2-1.862-4.39-2.998-8.195-3.54-12.926l-.425-3.434A78 78 0 0 1 295 405" fill="#524A4F"/><path d="M450 274c-3.3 2.735-6.634 5.057-10.312 7.25C430.65 286.971 425.04 293.627 420 303l-1.812 3.313c-1.144 2.587-1.778 4.896-2.188 7.687l-2-1c-.808-9.295 3.189-16.797 9.016-23.832C430.26 281.253 438.673 273.694 450 274" fill="#F6F3F4"/><path d="M457 137c-3.873 1.29-6.483.238-10.25-.875-14.79-4.298-29.576-3.453-44.75-2.125 13.783-12.15 41.928-7.084 55 3" fill="#635960"/><path d="m202 108 2 1c-7.719 7.288-16.095 14.315-27.125 14.234C175 123 175 123 173 121.5l-1-1.5-1 6h-1c-.562-11.89-.562-11.89 3-16l2-1 .938 3.438c.691 3.35.691 3.35 2.062 4.562 7.504.13 12.616-2.612 18.946-6.293 1.656-.953 3.353-1.836 5.054-2.707" fill="#3A3538"/><path d="M450 347h1l.148 2.16c.558 8.116.558 8.116 2.852 15.84 2.237 1.445 2.237 1.445 5 2l2.688 1.063c4.4 1.245 8.764 1.595 13.312 1.937-2.384 2.384-2.994 2.296-6.25 2.313-3.234-.057-4.644-.257-7.562-1.813-4.042-1.902-7.053-1.662-11.465-1.54-4.674.05-9.308-.195-13.973-.46l-2.602-.145q-3.075-.175-6.148-.355v-1l2.414-.078c8.538-.4 8.538-.4 15.586-4.922 3.018-4.635 3.987-9.64 5-15" fill="#524247"/><path d="M542 472c4.428 1.392 7.152 3.315 10 7 .071 3.56-.3 5.221-2.687 7.875-2.98 1.45-5.035 1.474-8.313 1.125l-3-2c-.371-2.059-.371-2.059-.437-4.437-.213-3.763-.213-3.763-2.625-6.625L533 474c6.625-.25 6.625-.25 10 2 .188 3.125.188 3.125 0 6 1.254-1.038 1.254-1.038 1.188-3.312-.193-2.766-.79-4.328-2.188-6.688" fill="#2C272A"/><path d="M504 254c3.084.33 3.978.977 6.125 3.313 3.18 4.556 4.475 7.92 4.41 13.492-.686 2.813-1.697 3.604-4.035 5.257A64 64 0 0 1 507 278l.652-2.23c.424-3.375-.22-4.312-2.09-7.082-2.758-4.57-3.118-7.409-2.562-12.688z" fill="#746E72"/><path d="m403 215 1 2a125 125 0 0 1-4 6h-2l-.343 1.765c-.718 2.443-1.675 3.953-3.177 6l-1.582 2.176-1.71 2.309-1.752 2.387q-1.809 2.46-3.625 4.912a973 973 0 0 0-5.202 7.123L377.438 254l-1.478 2.048c-2.367 3.191-4.19 5.55-7.96 6.952l-3 2c1.545-3.532 3.668-6.096 6.188-9 4.651-5.454 8.972-11.125 13.25-16.875A924 924 0 0 1 403 215" fill="#D0CACD"/><path d="M332 478c9.677 2.097 9.677 2.097 12 5 .562 4.424.852 6.721-1.625 10.438-2.812 1.85-5.048 2.26-8.375 2.562l-1-2 1-2.062c1.408-4.138.685-7.687 0-11.938h-2z" fill="#2B2629"/><path d="M433 320c3.896-.03 7.792-.047 11.688-.062l3.341-.026 3.233-.01 2.967-.016c2.696.11 5.146.509 7.771 1.114v2l6 2c-3.33 1.11-3.781.834-7 0a203 203 0 0 0-6.953-.316l-2-.063q-3.15-.097-6.297-.183l-4.281-.131q-5.235-.16-10.469-.307z" fill="#979496"/><path d="m360 180 2 1-1.645 1.574c-7.207 6.885-7.207 6.885-10.039 16.18-.725 5.146-2.108 10.195-3.316 15.246l-3-1c-1.057-11.218 2.057-18.399 9.125-27 2.1-2.306 4.252-4.285 6.875-6" fill="#797076"/><path d="M329 421c3.181-.217 5.44-.25 8.375 1.063 2.413 2.876 1.898 5.314 1.625 8.937l4 1c-4.927 1.97-8.78 2.18-14 2l1-2c.142-3.84.178-7.32-1-11" fill="#252324"/><path d="M308.313 479.563c4.1.075 5.395.237 8.875 2.625 1.958 3.038 2.553 4.292 1.812 7.812-1.187 1.813-1.187 1.813-3 3-2.687.188-2.687.188-5 0l.293-6.055L311 485c-3.445-2.296-5.938-2.54-10-3 2.566-2.566 3.745-2.355 7.313-2.437" fill="#50484D"/><path d="M154 425c5.616-.29 9.098-.108 14 3 1.512 3.024 1.173 5.662 1 9-1 2.438-1 2.438-2 4l-6-2 1-9-8-4z" fill="#524A4F"/><path d="m519.375 475.688 3.46-.051c3.402.39 4.784.948 7.165 3.363.51 2.913.44 4.328-1.187 6.813-2.373 1.554-4.033 1.412-6.813 1.187l-1-7-10-2c2.768-2.768 4.517-2.3 8.375-2.312" fill="#52494F"/><path d="m252.25 79.938 3.266.027L258 80v3l-2.457.078C243.075 83.717 234.409 86.728 225 95l-2-1c8.574-8.346 17.026-14.195 29.25-14.062" fill="#DFDADD"/><path d="M167 423c4.992-.294 7.974-.078 12 3 1.35 2.701 1 5.008 1 8l1 2c-2.375 1.063-2.375 1.063-5 2l-2-1c-.356-2.26-.443-4.49-.559-6.773-.535-2.702-1.325-3.516-3.441-5.227z" fill="#524A50"/><path d="M494.688 208.938c4.54 1.456 4.54 1.456 6.312 4.062v2l-1.977.078c-5.946.386-9.366 1.196-14.023 4.922l-2 1c1.55-6.51 4.584-11.942 11.688-12.062" fill="#464044"/><path d="M321 478c5.281.515 8.572 2.255 13 5 .195 6.055.195 6.055 0 8l-2 2c-2.125-.375-2.125-.375-4-1l-.008-1.828c-.122-2.517-.325-4.739-.992-7.172-2.902-2.548-2.902-2.548-6-4z" fill="#51484E"/><path d="M202.438 95 204 96v1l-2.125.078c-7.355.44-13.334 1.389-18.7 6.742A86 86 0 0 0 179 109l-1-2c4.912-8.595 14.04-16.265 24.438-12" fill="#E4E3E4"/><path d="m370 182 2 1c-1.288 3.865-2.885 4.47-6.25 6.688-5.146 3.607-7.877 6.764-10.75 12.312l-2-4c4.452-7.063 10.113-11.392 17-16" fill="#1A1314"/><path d="M318 423c6.483-.367 6.483-.367 8.719 1.219 1.656 2.302 1.59 3.663 1.469 6.469l-.083 2.449L328 435l-5 2 .125-3.187c-.117-3.579-.394-5.716-2.125-8.813l-3-1z" fill="#403A3E"/><path d="M336 479c5.75 1.75 5.75 1.75 8 4 .574 7.234.574 7.234-1.5 10l-1.5 1-2-1c-.344-2.145-.344-2.145-.5-4.812-.212-3.586-.693-6.063-2.5-9.188" fill="#50484D"/><path d="M555 169c9.688 2.236 16.748 9.935 22 18l1 3-2 3-1.687-3.625c-3.745-7.437-9.622-14.18-17.25-17.75L555 171z" fill="#5B5459"/><path d="M520 210c7.915 7.525 15.364 18.064 20 28l-1 2a888 888 0 0 1-12.312-17.812l-1.31-1.92c-2.232-3.326-4.062-6.452-5.378-10.268" fill="#CDC9CB"/><path d="M412 253c2.11.422 2.11.422 4 1 .473 8.193.473 8.193-1.5 11.563L413 267v-3h-3c.313-1.937.313-1.937 1-4l3-1v-2l-5 2c0-3 0-3 1.25-4.75z" fill="#736C71"/><path d="M317 479.313c2 1.687 2 1.687 4 4.687-.453 6.453-.453 6.453-3 9l.25-3.75c-.036-2.877-.196-4.147-1.562-6.75-5.605-3.128-12.627-1.853-18.688-.5 1-2 1-2 2.938-3.125 5.415-1.547 10.853-1.842 16.062.438" fill="#090808"/><path d="m403 215 1 2a125 125 0 0 1-4 6h-2l-.262 1.648c-.98 3.125-2.628 5.33-4.55 7.977l-2.083 2.914c-1.988 2.324-3.29 3.385-6.105 4.461 1.323-2.81 2.808-5.24 4.68-7.715l1.566-2.08 1.629-2.143 1.605-2.13c2.787-3.689 5.61-7.34 8.52-10.932" fill="#C9C4C6"/><path d="M533 474c6.625-.25 6.625-.25 10 2 .431 4.054.3 5.55-2 9h-3l-.25-3.812c-.416-3.526-.416-3.526-2.812-6.188z" fill="#4F464C"/><path d="m505 258 3 1 1 5 2-3c1.607 3.215 1.057 6.436 1 10-1.812-.125-1.812-.125-4-1-2.663-4.09-3.346-7.16-3-12" fill="#0A090A"/><path d="m360 180 2 1-1.504 1.258C353.898 188.243 350.59 195.012 347 203c-1.142-3.624-.72-5.59.918-9.066 3.116-5.569 6.842-10.235 12.082-13.934" fill="#E5E4E5"/><path d="M196 92c7.536.65 12.774 2.171 18 8-1.375 1.5-1.375 1.5-3 3h-2l-.875-2.375c-.974-2.722-.974-2.722-3.125-4.625-2.427-.68-2.427-.68-5.125-1.125l-2.758-.508L195 94z" fill="#474145"/><path d="M504 259h1l.516 2.152.734 2.786.703 2.777c.813 2.477.813 2.477 3.156 3.101L512 270l2-3c.438 2.688.438 2.688 0 6-2.111 2.048-4.459 3.535-7 5l.656-2.219c.423-3.418-.285-4.455-2.156-7.281-2.575-3.89-2.575-3.89-2.156-7.281z" fill="#60575D"/><path d="M542 472c4.428 1.392 7.152 3.315 10 7-.187 3.313-.187 3.313-1 6l-4-1-.25-3.875c-.209-2.178-.209-2.178-.75-4.125-1.92-1.59-1.92-1.59-4-2z" fill="#595257"/><path d="M582 297c2.917 2.79 3.907 4.181 4.375 8.313-.023 6.29-2.947 11.998-5.375 17.687h-1c.757-7.442.757-7.442 2.063-10.437 1.833-5.012 1.377-10.483-.063-15.563" fill="#837A7F"/><path d="M329 421c3.181-.217 5.44-.25 8.375 1.063 2.413 2.876 1.898 5.314 1.625 8.937h-4l-.75-3.875c-.77-3.392-.77-3.392-3.375-5.625z" fill="#3F383C"/><path d="M414 257v2l-3 2-1 3h3c-1.049 2.622-1.65 3.794-4.125 5.25L407 270c-.488-7.193-.488-7.193 1.813-11 2.187-2 2.187-2 5.187-2" fill="#090809"/><path d="m433 216 2 3-1 4-11-3c3.556-3.556 5.038-4.496 10-4" fill="#474246"/><path d="M215 100c-1.55 3.884-4.005 6.03-7.125 8.75l-2.758 2.422L203 113l-1-3c9.714-10 9.714-10 13-10" fill="#1E1C1D"/><path d="M560 175c7.222 2.336 11.227 6.877 15.215 13.035.96 2.403.644 3.57-.215 5.965l-.848-1.723c-2.988-5.756-6.387-9.918-11.152-14.277a400 400 0 0 1-3-3" fill="#D8D5D7"/><path d="M453 367c3.21-.153 5.69-.106 8.75.938 4.367 1.427 8.687 1.72 13.25 2.062-2.384 2.384-2.994 2.296-6.25 2.313-4.277-.083-7.01-1.187-10.75-3.313-2.736-.7-2.736-.7-5-1z" fill="#4E474B"/><path d="m449 359 2 1c.688 3 .688 3 1 6-1 1-1 1-3.562 1.063L446 367c0-3.576 1.088-5.053 3-8" fill="#E35469"/><path d="M182 421c2.672 1.975 3.047 3.188 3.875 6.5.125 3.5.125 3.5-1.367 5.219L183 434l-.148-1.863-.227-2.45c-.07-.8-.14-1.6-.21-2.425-.31-2.534-.31-2.534-2.415-5.262z" fill="#564F54"/><path d="m180 99 2 1-2.437 2.5c-3.118 3.681-3.318 6.764-3.563 11.5l-2-4-2 1c1.51-4.98 4.557-8.243 8-12" fill="#514B4F"/><path d="M193 94c7.429-.286 7.429-.286 11 2v1l-12 1z" fill="#D6D3D5"/><path d="M344 201h1v7l3-1-1 7-3-1z" fill="#5F565C"/><path d="M577 190c3.442 2.66 3.995 5.903 5 10h-2v5h-1l-.184-2.012c-.615-6.537-.615-6.537-1.816-12.988" fill="#433D41"/><path d="m342 422 5 2c.188 2.375.188 2.375 0 5l-3 2z" fill="#373135"/><path d="m422 219 12 3c-3.575.894-5.25 1.026-8.75.563l-2.422-.31L421 222z" fill="#C3BEC1"/><path d="M520 210c3.636 3.434 6.361 6.797 9 11-2.652-.368-3.738-.687-5.484-2.777l-1.266-2.16-1.297-2.153C520 212 520 212 520 210" fill="#C3BFC1"/><path d="m360 180 2 1-7 7-3-1z" fill="#C8C4C7"/><path d="m341 152 2 1a223 223 0 0 1-3.75 3.063l-2.11 1.722C335 159 335 159 332.735 158.684L331 158a546 546 0 0 1 4.875-3.062l2.742-1.723z" fill="#5D545A"/><path d="M542 472c4.875 1.875 4.875 1.875 6 3 .04 2 .043 4 0 6h-1l-.25-2.375c-.478-2.772-.478-2.772-2.812-3.937L542 474z" fill="#433D41"/><path d="m461 413-1 8c-2-2-2-2-2.125-4.625L458 414c2-1 2-1 3-1" fill="#2A2729"/><path d="m413 370 6 2v3l-7-3z" fill="#877E83"/><path d="m190 95 3 1c-2.174 2.5-3.73 3.436-7 4 1.75-3.875 1.75-3.875 4-5" fill="#F2F2F2"/></svg>