<?xml version="1.0" encoding="utf-8"?>
<!-- Generator: Adobe Illustrator 27.5.0, SVG Export Plug-In . SVG Version: 6.00 Build 0)  -->
<svg version="1.1" id="Layer_1" xmlns="http://www.w3.org/2000/svg" xmlns:xlink="http://www.w3.org/1999/xlink" x="0px" y="0px"
	 viewBox="0 0 414.5 189" style="enable-background:new 0 0 414.5 189;" xml:space="preserve">
<g>
	<g>
		<path style="fill:#D48042;" d="M132.636,152.58c0,0,5.988,7.529,18.607,6.549c12.619-0.98,42.273-12.388,48.017-15.793
			c5.743-3.403-5.887-21.121-14.946-25.102C175.254,114.252,132.636,152.58,132.636,152.58z"/>
		<path style="fill:#F9EFEF;" d="M132.636,152.58c0,0,5.988,7.529,18.607,6.549c12.619-0.98,42.273-12.388,48.017-15.793
			c5.743-3.403-5.887-21.121-14.946-25.102C175.254,114.252,132.636,152.58,132.636,152.58z"/>
		<path style="fill:#BFB9B9;" d="M184.313,118.234c-9.059-3.982-51.678,34.346-51.678,34.346s5.988,7.529,18.607,6.549
			c12.619-0.98,42.273-12.388,48.017-15.793C205.002,139.933,193.373,122.215,184.313,118.234z M169.987,145.514
			c-0.36-0.058-0.055-0.514,0.126-0.593c3.143-1.348,5.803-3.396,8.35-5.624c1.54-1.724,2.895-3.662,4.436-5.324
			c0.137-0.146,0.629-0.324,0.605,0.044c-0.166,2.537-0.584,5.099-1.588,7.452c0.003-0.006,1.659-0.626,1.794-0.7
			c0.627-0.342,1.247-0.691,1.856-1.059c1.188-0.717,2.367-1.441,3.59-2.095c0.227-0.121,0.479-0.02,0.415,0.255
			C187.468,147.085,177.483,146.732,169.987,145.514z"/>
		<path style="fill:#B26028;" d="M368.629,74.379c0,0,15.498,8.701,21.262-8.569c4.385-14.111,1.738-25.16,1.738-25.16
			s2.332,1.74,3.02,3.997c0.14-6.456-3.675-10.7-3.061-10.869c0.614-0.169,3.171,1.178,4.484,3.066
			c-0.836-7.115-4.159-16.787-8.569-21.262c6.234-3.306,22.642,18.774,20.471,40.68c-2.172,21.906-9.888,45.537-37.75,37.596
			C371.658,85.854,371.162,79.969,368.629,74.379z"/>
		<path style="opacity:0.4;fill:#B26028;" d="M387.503,15.583c4.41,4.476,7.733,14.147,8.569,21.262
			c-1.313-1.889-3.87-3.236-4.484-3.066c-0.614,0.169,3.2,4.412,3.061,10.869c-0.688-2.258-3.02-3.997-3.02-3.997
			s2.646,11.049-1.738,25.16c-5.764,17.271-21.262,8.569-21.262,8.569c2.533,5.59,3.029,11.476,1.595,19.479
			c27.862,7.94,35.578-15.69,37.75-37.596C410.145,34.357,393.737,12.276,387.503,15.583z M392.842,20.263
			c5.625,4.593,10.142,11.79,7.456,19.187c-0.074,0.206-0.599,0.567-0.7,0.197c-0.878-3.266-1.833-6.502-3.045-9.64
			C395.091,26.922,392.617,20.08,392.842,20.263z M404.372,61.384c-0.092,0.188-0.571,0.431-0.659,0.114
			c-0.258-0.942-0.519-1.833-0.969-2.662c-0.707,6.961-1.974,15.244-6.822,20.491c-3.904,4.227-11.036,8.577-17.01,6.814
			c-0.353-0.104-0.059-0.485,0.127-0.593c3.514-2.045,7.094-4.232,9.217-7.791c-2.206,0.605-4.323,1.351-6.657,1.091
			c-0.432-0.049,0.042-0.568,0.22-0.63c7.439-2.581,12.773-12.492,13.517-20.47c-0.202,0.24-2.253,2.112-2.207,1.761
			c0.545-4.38-0.164-8.733-0.117-13.121c0.004-0.288,0.462-0.567,0.686-0.345c1.72,1.716,2.069,4.162,3.272,6.174
			c0.867-3.703-0.073-7.417-0.693-11.124c-0.045-0.272,0.361-0.645,0.626-0.47C403.475,44.949,408.079,53.79,404.372,61.384z"/>
		<path style="opacity:0.4;fill:#B26028;" d="M378.186,95.326c0.929-3.566,0.778-7.605,0.224-11.04
			c-0.408-2.532-1.088-5.402-2.441-7.766c-4.082-0.318-7.34-2.142-7.34-2.142c2.533,5.59,3.029,11.476,1.595,19.479
			C373.09,94.677,375.73,95.141,378.186,95.326z"/>
		<path style="fill:#D48042;" d="M380.978,113.524c3.348-0.062,3.359-0.064,3.359-0.064s-1.556-6.275-9.003-8.018
			c-5.824-1.925-5.201-3.509-3.078-13.093c2.124-9.584-0.174-27.214-25.444-48.485c-25.271-21.271-55.548-34.458-72.93-16.524
			c-17.381,17.935-92.572,6.005-92.572,6.005s-16.614,23.766-6.528,46.926c10.087,23.16,6.758,25.005,8.427,39.235
			c0,0,4.492,17.251,16.117,21.768c-11.314,4.928-15.598,9.09-23.172,7.874c-7.574-1.214-9.04-4.216-15.535,1.779
			c-3.59-2.793-11.422,0.856-13.508,9.521c-2.084,8.668,0.608,16.123,9.713,13.029c4.144,4.609,12.3,0.977,14.817-0.515
			c0.527,5.391,7.813,5.94,11.243,2.546c11.685,3.383,37.692-2.51,51.796-9.439c8.05-3.209,2.388-6.942,2.388-6.942
			s2.343,1.537,3.978,1.222c1.632-0.32,0.206-10.293,0.206-10.293s16.686,2.795,49.095-3.245c0.067,0.684,0.193,1.381,0.432,2.105
			c0.922,2.809,4.939,6.092,7.857,6.514c1.88,0.272,3.684,0.017,5.402-0.558c2.462,1.067,5.382,1.137,8.397,0.604
			c2.664,0.802,6.197,0.078,8.432-0.349c5.172-0.989,38.082-7.311,44.88-10.115c2.903-0.22,6.129-1.455,7.378-4.031
			c0.335-0.693,0.459-1.349,0.436-1.972c0.305,0.436,0.577,0.928,0.814,1.494c0.184,0.446,0.765-0.045,0.827-0.324
			c0.398-1.803,0.453-3.695,0.163-5.527c0.106,0.03,0.215,0.052,0.325,0.08c0.731,1.163,0.646,2.277,0.734,3.641
			c0.03-0.009,0.056-0.028,0.087-0.034c0.959-0.185,2.018-0.59,2.94-1.165c1.067-1.344,1.897-3.162,2.201-4.111
			c0.069-0.216,0.113-0.436,0.166-0.655c0.259,0.678,0.558,1.329,0.99,1.864c0.001,0.004,0.005,0.004,0.01,0.006
			c0.166-1.604,0.446-3.167,0.811-4.702c0.638-4.37,2.122-8.681,4.49-12.163C386.017,115.651,383.484,114.591,380.978,113.524z"/>
		<path style="fill:#B26028;" d="M380.978,113.524c3.348-0.062,3.359-0.064,3.359-0.064s-1.556-6.275-9.003-8.018
			c-5.824-1.925-5.201-3.509-3.078-13.093c2.124-9.584-0.174-27.214-25.444-48.485c-25.271-21.271-55.548-34.458-72.93-16.524
			c-17.381,17.935-92.572,6.005-92.572,6.005s-16.614,23.766-6.528,46.926c10.087,23.16,6.758,25.005,8.427,39.235
			c0,0,4.492,17.251,16.117,21.768c-11.314,4.928-15.598,9.09-23.172,7.874c-7.574-1.214-9.04-4.216-15.535,1.779
			c-3.59-2.793-11.422,0.856-13.508,9.521c-2.084,8.668,0.608,16.123,9.713,13.029c4.144,4.609,12.3,0.977,14.817-0.515
			c0.527,5.391,7.813,5.94,11.243,2.546c11.685,3.383,37.692-2.51,51.796-9.439c8.05-3.209,2.388-6.942,2.388-6.942
			s2.343,1.537,3.978,1.222c1.632-0.32,0.206-10.293,0.206-10.293s16.686,2.795,49.095-3.245c0.067,0.684,0.193,1.381,0.432,2.105
			c0.922,2.809,4.939,6.092,7.857,6.514c1.88,0.272,3.684,0.017,5.402-0.558c2.462,1.067,5.382,1.137,8.397,0.604
			c2.664,0.802,6.197,0.078,8.432-0.349c5.172-0.989,38.082-7.311,44.88-10.115c2.903-0.22,6.129-1.455,7.378-4.031
			c0.335-0.693,0.459-1.349,0.436-1.972c0.305,0.436,0.577,0.928,0.814,1.494c0.184,0.446,0.765-0.045,0.827-0.324
			c0.398-1.803,0.453-3.695,0.163-5.527c0.106,0.03,0.215,0.052,0.325,0.08c0.731,1.163,0.646,2.277,0.734,3.641
			c0.03-0.009,0.056-0.028,0.087-0.034c0.959-0.185,2.018-0.59,2.94-1.165c1.067-1.344,1.897-3.162,2.201-4.111
			c0.069-0.216,0.113-0.436,0.166-0.655c0.259,0.678,0.558,1.329,0.99,1.864c0.001,0.004,0.005,0.004,0.01,0.006
			c0.166-1.604,0.446-3.167,0.811-4.702c0.638-4.37,2.122-8.681,4.49-12.163C386.017,115.651,383.484,114.591,380.978,113.524z
			 M152.278,164.285c-0.048,0.213-0.501,0.512-0.668,0.264c-0.363-0.537-0.623-1.071-0.76-1.631
			c-0.389,1.079-0.772,2.163-1.106,3.263c-0.063,0.201-0.494,0.519-0.668,0.262c-3.859-5.679,1.936-15.616,8.882-14.823
			c0.26,0.027,0.147,0.343,0.046,0.463C154.961,155.688,153.301,159.723,152.278,164.285z M172.063,161.453
			c-1.626,3.045-4.24,5.852-7.495,7.138c-1.863,0.738-5.202,0.653-6.132-1.514c-0.852-1.987-0.415-4.693,0.448-6.793
			c0.007-0.021,0.013-0.044,0.021-0.065c-0.672,1.111-1.254,2.279-1.963,3.386c-0.097,0.151-0.59,0.456-0.66,0.114
			c-1.048-5.114,1.942-11.576,6.579-14.012c0.171-0.09,0.285-0.067,0.346,0.005c2.504-1.271,5.392-0.735,7.444,2.078
			c0.994,1.361,1.706,3.066,1.852,4.728C172.959,158.124,172.948,159.8,172.063,161.453z M324.346,53.889
			c5.766,2.652,11.363,6.19,15.223,11.333c3.841,5.12,5.693,11.163,6.251,17.491c0.027,0.315-0.406,0.669-0.677,0.421
			c-2.658-2.426-5.459-4.717-8.499-6.61c4.672,5.014,8.467,10.808,8.623,17.953c0.086,3.911-0.747,7.815-1.234,11.69
			c-0.416,3.318-0.866,6.919-2.459,9.916c-1.345,2.524-3.423,4.206-6.374,4.209c-4.195,0.003-8.381-1.411-12.115-3.24
			c-3.688-1.807-7.631-4.112-10.161-7.446c-2.347-3.089-3.149-6.952-3.241-10.776c-0.439,1.738-0.687,3.503-0.683,5.331
			c0.002,0.265-0.482,0.599-0.685,0.346c-8.006-10.013-4.665-22.801-0.754-33.802c-2.079,1.935-3.448,4.399-4.477,7.064
			c-0.094,0.246-0.692,0.569-0.705,0.119c-0.119-3.899-0.286-7.293,0.939-11.021c1.961-6.386,2.275-9.023,4.814-12.405
			C312.083,49.197,319.426,51.626,324.346,53.889z M184.063,166.793c-0.423,1.488-2.016,5.317-4.266,4.525
			c-2.537-0.893-2.913-3.875-2.645-6.334c-0.329,0.525-0.658,1.047-0.998,1.564c-0.12,0.182-0.685,0.457-0.666,0.036
			c0.111-2.444,0.826-4.78,1.273-7.172c-0.04-0.036-0.071-0.084-0.072-0.166c-0.074-3.145,2.798-2.216,4.492-0.757
			C183.503,160.49,184.936,163.71,184.063,166.793z M226.453,153.092c-0.084,0.138-0.497,0.428-0.628,0.179
			c-0.455-0.876-0.713-1.82-1.077-2.727c-3.289,10.114-14.733,12.787-24.32,13.418c-0.191,0.011-0.279-0.138-0.231-0.308
			c0.381-1.341,0.341-2.714,0.17-4.079c-0.758,2.687-2.138,5.137-3.557,7.563c-0.081,0.138-0.5,0.428-0.627,0.179
			c-0.893-1.744-0.791-3.92-1.354-5.789c-0.565-1.881-1.416-3.645-2.026-5.507c-0.827-2.525-1.314-5.341,0.372-7.483
			c-1.806,0.432-3.366,1.459-5.048,2.237c-0.154,0.072-0.462,0.082-0.433-0.172c0.268-2.385,3.021-3.61,4.891-4.592
			c2.818-1.477,5.638-2.844,8.52-4.145c0.031-0.024,0.063-0.048,0.103-0.065c0.526-0.22,1.087-0.489,1.665-0.72
			c0.207-0.091,0.411-0.184,0.619-0.273c0.115-0.05,0.204-0.054,0.271-0.03c0.491-0.135,0.986-0.215,1.48-0.176
			c2.018,0.158,3.942,1.091,5.862,1.68c2.211,0.678,4.586,1.352,6.916,0.975c1.65-0.268,3.308-0.75,4.986-0.827
			c2.786-0.13,4.999,0.838,5.29,3.832C228.518,148.561,227.636,151.147,226.453,153.092z M293.153,70.427
			c-0.251,5.199-0.436,10.613-2.174,15.568c-1.628,4.642-4.178,8.819-6.745,12.983c1.926-1.584,3.841-3.18,5.702-4.84
			c0.181-0.16,0.638-0.14,0.507,0.198c-3.517,9.106-5.28,21.532-16.185,24.563c-10.442,2.905-22.007,1.937-31.447-3.451
			c1.174,2.558,2.759,4.962,3.108,7.805c0.032,0.272-0.28,0.563-0.552,0.498c-5.925-1.396-12.857-5.395-15.812-10.919
			c-4.02-7.516,0.361-16.979,1.088-24.907c-1.84,1.813-2.674,4.361-3.694,6.698c-0.099,0.227-0.711,0.581-0.706,0.12
			c0.194-16.529-4.428-33.36-14.731-46.474c-0.207-0.262,0.277-0.626,0.521-0.563c0.837,0.216,1.662,0.453,2.481,0.708
			c-1.811-2.832-3.82-5.523-6.236-7.883c-0.068-0.067,4.976-1.112,5.534-1.164c3.768-0.356,7.608,0.191,11.355,0.588
			c6.18,0.656,12.34,1.64,18.549,1.997c5.59,0.321,11.345,0.207,16.891-0.649c2.963-0.457,5.99-1.196,8.366-3.125
			c1.907-1.549,3.498-3.4,5.048-5.296c2.583-3.16,5.021-6.294,8.882-7.883c3.199-1.317,6.871-1.624,10.295-1.454
			c7.105,0.352,14.776,2.28,20.642,6.458c0.247,0.176-0.031,0.462-0.198,0.565c-3.003,1.86-6.466,2.24-9.747,3.375
			c-4.392,1.52-7.631,4.845-9.465,9.045c2.365-1.306,4.633-2.74,7.372-3.104c0.3-0.04,0.284,0.319,0.13,0.47
			C293.853,48.273,293.662,59.859,293.153,70.427z M296.716,149.748c0.018,0.236-0.349,0.482-0.559,0.424
			c-2.609-0.749-5.004-2.969-4.919-5.883c0.078-2.699,1.865-4.478,4.262-5.431c3.159-2.361,7.353-3.816,10.736-2.312
			c0.222,0.099,0.018,0.428-0.107,0.509C301.242,140.221,296.215,143.143,296.716,149.748z M307.503,147.752
			c-0.038,0.224-0.383,0.571-0.632,0.394c-0.292-0.21-0.553-0.39-0.791-0.595c-0.151,1.068-0.285,2.138-0.359,3.217
			c-0.016,0.228-0.325,0.491-0.56,0.421c-6.743-2.028-3.034-9.7,1.445-12.196c2.69-1.683,6.064-2.37,9.116-1.695
			c0.23,0.051,0.185,0.337,0.046,0.464C312.338,140.879,308.366,142.745,307.503,147.752z M378.092,123.412
			c-0.724-1.324-1.912-2.055-3.085-2.809c1.61,2.745,2.584,6.109,1.217,8.934c-1.653,3.418-4.345,7.271-7.592,9.345
			c-0.214,0.135-0.595,0.162-0.508-0.199c0.56-2.336,0.801-4.676,0.689-7.014c-0.533,0.996-1.177,1.949-1.849,2.907
			c-0.103,0.148-0.469,0.417-0.628,0.18c-0.579-0.872-0.818-2.076-1.376-2.986c-0.526,6.374-5.531,10.87-11.87,12.109
			c-7.674,1.503-16.008-0.972-23.107,3.156c-0.158,0.091-0.452,0.066-0.434-0.172c0.057-0.732,0.162-1.417,0.328-2.093
			c-0.869,1.201-1.677,2.557-2.98,3.189c-1.598,0.774-3.501,0.698-5.231,0.559c-1.283-0.104-3.971,0.075-4.95-0.977
			c-0.616-0.66-0.42-1.506-0.095-2.28c-1.135,0.789-2.132,1.714-3.021,2.795c-0.14,0.171-0.489,0.29-0.601,0.033
			c-2.012-4.674,4.247-8.91,8.096-9.919c1.864-0.871,3.987-0.951,6.179-1.073c1.834-0.104,3.702-0.233,5.535-0.034
			c2.161,0.235,3.934,1.002,5.98,1.625c4.034,1.227,8.098-0.332,11.756-2.082c3.185-1.521,6.808-3.563,8.059-7.081
			c0.073-0.203,0.607-0.569,0.701-0.195c0.316,1.262,0.418,2.548,0.605,3.828c2.839-4.069,4.729-8.249,4.603-13.376
			c-0.006-0.289,0.471-0.567,0.686-0.346c0.879,0.902,2.074,1.925,3.23,3.044c0.637-2.249,1.066-4.579,0.699-6.894
			c-0.447-2.802-1.563-5.438-2.603-8.061c-0.116-0.298,0.39-0.588,0.624-0.472c6.063,3.006,11.399,8.991,11.628,16.013
			C378.786,123.307,378.249,123.7,378.092,123.412z"/>
		<path style="opacity:0.4;fill:#B26028;" d="M346.293,47.449c4.353,4.858,9.084,9.843,11.916,15.791
			c2.632,5.535,3.5,11.455,3.34,17.542c-0.007,0.234-0.515,0.638-0.686,0.345c-1.735-2.981-4.616-4.617-7.582-6.105
			c6.47,7.156,9.117,16.162,9.325,25.739c0.572-1.827,1.094-3.672,1.734-5.476c0.089-0.255,0.69-0.564,0.706-0.12
			c0.102,2.936,0.596,6.184,2.347,8.638c1.759,2.466,4.096,3.337,6.789,4.45c3.433,1.419,6.591,3.081,9.455,5.224
			c0.691-0.015,0.701-0.016,0.701-0.016s-1.556-6.275-9.003-8.018c-5.824-1.925-5.201-3.509-3.078-13.093
			c2.124-9.584-0.174-27.214-25.444-48.485c-5.292-4.454-10.803-8.545-16.368-12.079C336.126,36.608,341.381,41.967,346.293,47.449z
			"/>
		<path style="opacity:0.4;fill:#B26028;" d="M290.348,146.811c0.006,0.063,0.021,0.126,0.028,0.186
			c0.195-1.182,0.487-2.295,0.932-3.331c0.317-2.347,1.989-3.931,4.192-4.808c2.481-1.854,5.6-3.143,8.464-2.886
			c2.106-0.268,4.269-0.274,6.459-0.1c3.612,0.29,6.76,0.315,10.256-0.749c2.54-0.77,4.974-1.501,7.655-1.361
			c5.554,0.289,11.471,1.458,16.521-1.337c-1.333,0.073-2.677,0.045-4.009-0.037c-4.033-0.253-8.244-0.942-12.077-2.23
			c-8.436-2.842-16.17-8.358-21.803-15.25c-5.876-7.191-8.392-15.91-9.169-25.024c-0.399-4.691-0.52-9.515-0.023-14.248
			c-2.054,7.771-2.555,15.929-1.795,24.013c0.551,5.876,1.419,11.804,3.448,17.367c0.607,1.661,2.365,4.132,1.305,5.899
			c-1.04,1.736-3.378,2.263-4.479,3.992c-0.132,0.208-0.643,0.443-0.665,0.039c-0.072-1.382-0.136-2.763-0.245-4.134
			c-1.157,3.125-3.947,6.109-6.439,7.54c-6.405,3.68-13.653,5.783-21.021,6.27c-6.638,0.439-14.308,0.304-20.496-2.422
			c-6.444-2.836-11.227-8.684-16.155-13.621c0.829,2.333,2.009,4.538,2.564,6.966c0.063,0.277-0.369,0.635-0.624,0.471
			c-2.744-1.771-5.305-3.802-8.043-5.557c3.509,4.548,6.095,9.74,8.652,14.89c2.917,5.87,3.919,12.755,3.083,19.232
			c-0.032,0.249-0.468,0.616-0.685,0.345c-0.632-0.79-1.327-1.513-2.047-2.212c1.094,2.881,1.686,6.092,0.413,8.402
			c-2.385,4.332-8.88,5.832-13.16,7.385c-7.247,2.632-14.628,4.23-22.279,5.141c-2.261,0.268-4.533,0.591-6.805,0.842
			c13.047-0.212,31.352-4.995,42.382-10.415c8.05-3.209,2.388-6.942,2.388-6.942s2.343,1.537,3.978,1.222
			c1.632-0.32,0.206-10.293,0.206-10.293S257.939,152.852,290.348,146.811z"/>
		<path style="fill:#B26028;" d="M66.329,136.928c0,0-3.694,7.277-28.609,5.836c-8.383-3.631-22.848-5.744-28.368-1.014
			c-5.518,4.731-4.203,12.271,0.691,12.409c1.76,3.77,7.321,5.165,10.273,4.954c1.619,4.129,8.924,5.005,17.527,2.153
			c8.604-2.853,34.911,3.095,54.59,1.512c19.679-1.585,23.742-5.813,21.921-13.385C112.533,141.822,66.329,136.928,66.329,136.928z"
			/>
		<g style="opacity:0.5;">
			<path style="fill:#B26028;" d="M114.354,149.393c-1.821-7.571-48.025-12.466-48.025-12.466s-1.893,3.715-12.062,5.31
				c6.8,0.877,7.396,1.729,1.894,3.811c-7.688,2.913-15.764,0.816-20.938,4.773c-4.451,4.179-6.955,9.661-11.829,7.932
				c-4.873-1.73-2.829-13.602,8.432-14.153c-12.104-5.169-15.128,12.144-19.017,9.18c-3.889-2.965,1.813-10.394,9.058-11.518
				c-13.402-1.193-13.489,11.834-14.877,6.795c-0.512-1.861-0.039-3.844,0.762-5.607c-3.563,4.643-2.049,10.589,2.292,10.71
				c1.76,3.77,7.321,5.165,10.273,4.954c1.619,4.129,8.924,5.005,17.527,2.153c8.604-2.853,34.911,3.095,54.59,1.512
				C112.112,161.193,116.175,156.966,114.354,149.393z"/>
		</g>
		<path style="fill:#844B13;" d="M64.109,143.851c-0.045-0.127-0.285,0.2-0.273,0.291c0.186,1.512-0.678,3.782-1.006,5.239
			c-0.69,3.062-1.927,6.021-3.86,8.516c-0.182,0.236-0.381,1.012,0.12,0.574c1.977-1.724,3.073-4.656,3.861-7.085
			c0.453-1.393,0.691-2.82,0.902-4.267C64.002,146.099,64.467,144.855,64.109,143.851z"/>
		<g>
			<path style="fill:#B26028;" d="M22.779,143.043c-2.941-1.086-6.732-0.415-9.188,1.554c-2.712,2.171-3.545,5.354-3.902,8.708
				c-0.043,0.393,0.413-0.142,0.45-0.303c0.863-3.766,1.52-7.09,5.406-8.962c2.215-1.064,4.664-0.983,7.024-0.631
				C22.677,143.426,22.886,143.085,22.779,143.043z"/>
			<path style="fill:#B26028;" d="M32.663,145.341c-3.216-2.65-7.701-0.599-10.227,2.094c-2.856,3.044-3.995,7.614-2.569,11.574
				c0.11,0.309,0.713-0.482,0.675-0.715c-0.643-4.023-0.564-7.738,2.636-10.814c2.703-2.599,5.912-3.155,9.236-1.76
				C32.542,145.774,32.772,145.431,32.663,145.341z"/>
		</g>
		<g>
			<path style="fill:#722808;" d="M199.327,141.274c0.557-0.359,1.144-0.671,1.744-0.956c0.599-0.286,1.204-0.568,1.834-0.788
				c0.314-0.115,0.626-0.23,0.947-0.324c0.32-0.091,0.635-0.208,0.963-0.282l0.976-0.24l0.993-0.182
				c0.332-0.057,0.671-0.068,1.006-0.104c0.336-0.04,0.675-0.045,1.015-0.04c0.34,0.011,0.681-0.023,1.019,0.03l1.018,0.116
				l1.002,0.235c0.339,0.062,0.653,0.21,0.977,0.331c0.32,0.129,0.646,0.24,0.938,0.435l0.892,0.522l-0.546,0.546l-1.199-1.795
				l-1.184-1.806l-0.504-0.767l0.852,0.267c0.33,0.104,0.615,0.221,0.906,0.357c0.293,0.124,0.564,0.29,0.841,0.44
				c0.283,0.143,0.531,0.34,0.794,0.511c0.268,0.167,0.511,0.365,0.751,0.567c0.233,0.207,0.489,0.392,0.696,0.627l0.642,0.683
				c0.224,0.215,0.389,0.483,0.581,0.726l0.54,0.753l-0.641-0.669c-0.212-0.219-0.4-0.462-0.643-0.651l-0.695-0.598
				c-0.221-0.208-0.494-0.354-0.732-0.539c-0.244-0.182-0.49-0.357-0.757-0.5c-0.263-0.148-0.51-0.322-0.787-0.439
				c-0.274-0.125-0.54-0.266-0.822-0.363c-0.274-0.111-0.567-0.206-0.83-0.271l0.346-0.502l1.255,1.759l1.237,1.768l0.997,1.424
				l-1.543-0.879l-0.821-0.469c-0.264-0.176-0.567-0.271-0.861-0.387c-0.294-0.109-0.578-0.256-0.893-0.312l-0.924-0.229
				l-0.95-0.119c-0.314-0.056-0.639-0.038-0.959-0.054c-0.321-0.018-0.642-0.024-0.964,0.006c-0.322,0.025-0.645,0.024-0.966,0.069
				l-0.966,0.113l-0.962,0.171c-0.321,0.053-0.634,0.145-0.954,0.218c-0.319,0.069-0.633,0.161-0.946,0.256
				C201.78,140.297,200.537,140.739,199.327,141.274z"/>
			<path style="fill:#722808;" d="M221.434,114.864c0,0,0.039,0.156,0.146,0.434c0.087,0.286,0.284,0.681,0.498,1.192
				c0.264,0.491,0.535,1.107,0.952,1.757c0.381,0.675,0.875,1.393,1.413,2.178c0.514,0.795,1.197,1.575,1.849,2.443
				c0.717,0.826,1.473,1.693,2.255,2.595c0.766,0.921,1.591,1.834,2.364,2.83c0.743,1.024,1.554,2.033,2.265,3.1
				c0.679,1.086,1.409,2.141,2.033,3.239c0.615,1.104,1.261,2.163,1.804,3.235c0.536,1.074,1.05,2.117,1.499,3.121
				c0.413,1.021,0.803,1.985,1.16,2.878c0.326,0.904,0.56,1.758,0.789,2.502c0.255,0.736,0.367,1.412,0.473,1.962
				c0.205,1.099,0.319,1.727,0.319,1.727s-0.17-0.615-0.47-1.691c-0.146-0.536-0.302-1.19-0.605-1.908
				c-0.277-0.722-0.587-1.536-0.927-2.425c-0.396-0.865-0.821-1.804-1.275-2.796c-0.502-0.968-1.031-1.987-1.58-3.043
				c-0.554-1.051-1.21-2.093-1.83-3.173c-0.633-1.078-1.372-2.109-2.058-3.177c-0.688-1.063-1.464-2.056-2.179-3.074
				c-0.748-0.997-1.567-1.93-2.317-2.858c-0.754-0.902-1.505-1.816-2.18-2.68c-0.625-0.91-1.276-1.727-1.765-2.557
				c-0.254-0.41-0.492-0.804-0.724-1.179c-0.218-0.379-0.394-0.759-0.575-1.105c-0.373-0.686-0.608-1.33-0.835-1.84
				c-0.186-0.532-0.331-0.945-0.396-1.239C221.459,115.022,221.434,114.864,221.434,114.864z"/>
			<path style="fill:#722808;" d="M226.004,116.318c0,0,0.035,0.517,0.048,1.265c0.011,0.372,0.021,0.806,0.033,1.269
				c0.021,0.461,0.023,0.953,0.07,1.435c0.019,0.485,0.085,0.962,0.143,1.407c0.039,0.221,0.077,0.437,0.115,0.641
				c0.049,0.198,0.098,0.388,0.14,0.564c0.12,0.337,0.205,0.639,0.313,0.826c0.091,0.206,0.144,0.324,0.144,0.324
				s-0.1-0.076-0.273-0.227c-0.185-0.144-0.387-0.403-0.606-0.737c-0.202-0.337-0.393-0.763-0.525-1.237
				c-0.051-0.238-0.139-0.482-0.165-0.737c-0.033-0.254-0.075-0.512-0.089-0.771c-0.034-0.518-0.02-1.031,0.027-1.511
				c0.044-0.48,0.124-0.922,0.217-1.292C225.772,116.785,226.004,116.318,226.004,116.318z"/>
			<path style="fill:#722808;" d="M174.654,148.817c0,0,0.314,0.092,0.871,0.219c0.277,0.066,0.611,0.148,0.996,0.243
				c0.386,0.083,0.823,0.178,1.298,0.279c0.477,0.102,0.986,0.233,1.535,0.333c0.549,0.095,1.129,0.191,1.724,0.311
				c0.297,0.059,0.6,0.116,0.907,0.176l0.485,0.093l0.464,0.114c0.622,0.171,1.252,0.266,1.888,0.548l0.944,0.379
				c0.311,0.131,0.587,0.316,0.88,0.471c0.285,0.162,0.581,0.307,0.844,0.494c0.258,0.194,0.512,0.385,0.763,0.574
				c0.524,0.349,0.917,0.819,1.329,1.213c0.416,0.393,0.711,0.855,1.032,1.232c0.321,0.377,0.519,0.796,0.734,1.132
				c0.218,0.338,0.361,0.656,0.481,0.918c0.241,0.521,0.366,0.822,0.366,0.822s-0.184-0.271-0.503-0.744
				c-0.151-0.239-0.335-0.53-0.594-0.829c-0.26-0.298-0.5-0.669-0.837-1.015c-0.344-0.336-0.661-0.754-1.091-1.095
				c-0.428-0.343-0.836-0.752-1.343-1.066c-0.245-0.167-0.493-0.337-0.745-0.511c-0.256-0.165-0.54-0.29-0.81-0.443
				c-0.276-0.141-0.543-0.314-0.831-0.43l-0.87-0.335c-0.552-0.267-1.218-0.386-1.828-0.557l-0.462-0.124l-0.44-0.105
				c-0.307-0.073-0.611-0.146-0.909-0.218c-1.198-0.275-2.297-0.59-3.23-0.9c-0.939-0.275-1.695-0.605-2.227-0.813
				c-0.268-0.099-0.47-0.198-0.608-0.266C174.727,148.852,174.654,148.817,174.654,148.817z"/>
			<path style="fill:#722808;" d="M160.835,150.669c0,0-0.945,1.228-2.126,3.197c-0.602,0.979-1.221,2.167-1.821,3.459
				c-0.296,0.649-0.574,1.33-0.831,2.03c-0.268,0.696-0.481,1.424-0.672,2.153c-0.189,0.729-0.344,1.468-0.437,2.203
				c-0.087,0.734-0.166,1.461-0.148,2.166c0,0.703,0.045,1.384,0.135,2.026c0.09,0.641,0.211,1.245,0.38,1.785
				c0.144,0.553,0.348,1.032,0.495,1.475c0.19,0.423,0.351,0.8,0.502,1.1c0.318,0.595,0.499,0.935,0.499,0.935
				s-0.231-0.311-0.635-0.856c-0.187-0.28-0.393-0.641-0.637-1.049c-0.204-0.427-0.473-0.897-0.654-1.46
				c-0.216-0.548-0.387-1.166-0.53-1.827c-0.141-0.661-0.248-1.374-0.265-2.113c-0.021-0.37-0.021-0.745-0.002-1.128
				c0.001-0.38,0.045-0.764,0.087-1.148c0.089-0.772,0.239-1.546,0.429-2.311c0.207-0.757,0.439-1.508,0.724-2.225
				c0.27-0.724,0.598-1.406,0.922-2.063c0.662-1.305,1.412-2.449,2.082-3.4c0.672-0.951,1.316-1.679,1.764-2.187
				C160.55,150.93,160.835,150.669,160.835,150.669z"/>
			<path style="fill:#722808;" d="M168.917,147.516c0,0,0.431,0.162,1.141,0.546c0.701,0.396,1.709,0.979,2.762,1.899
				c0.268,0.226,0.52,0.49,0.796,0.749c0.26,0.271,0.518,0.57,0.784,0.872c0.491,0.64,0.996,1.345,1.341,2.174
				c0.087,0.205,0.176,0.413,0.263,0.622c0.078,0.214,0.126,0.439,0.19,0.662c0.147,0.443,0.197,0.91,0.241,1.384
				c0.088,0.934-0.041,1.934-0.204,2.812l-0.237,1.353c-0.092,0.449-0.215,0.898-0.32,1.342c-0.206,0.895-0.449,1.76-0.717,2.58
				c-0.248,0.828-0.511,1.62-0.796,2.359c-0.273,0.745-0.525,1.446-0.791,2.085c-0.5,1.287-1.003,2.323-1.334,3.056
				c-0.345,0.726-0.563,1.132-0.563,1.132s0.151-0.434,0.418-1.192c0.129-0.381,0.287-0.84,0.467-1.372
				c0.174-0.527,0.37-1.125,0.585-1.777c0.43-1.303,0.89-2.838,1.331-4.488c0.11-0.412,0.235-0.83,0.339-1.254
				c0.098-0.425,0.197-0.855,0.297-1.29c0.098-0.434,0.212-0.867,0.299-1.311l0.225-1.356c0.178-0.918,0.29-1.756,0.224-2.619
				c-0.041-0.428-0.069-0.854-0.192-1.261c-0.053-0.203-0.087-0.411-0.154-0.608c-0.074-0.194-0.149-0.389-0.224-0.581
				c-0.302-0.768-0.725-1.458-1.155-2.094c-0.237-0.302-0.464-0.6-0.7-0.878c-0.25-0.265-0.477-0.534-0.723-0.768
				c-0.97-0.947-1.874-1.65-2.536-2.097C169.318,147.74,168.917,147.516,168.917,147.516z"/>
			<path style="fill:#722808;" d="M176.3,155.986c0,0,0.412-0.188,1.183-0.369c0.386-0.087,0.86-0.174,1.413-0.227
				c0.552-0.042,1.187-0.071,1.872,0.029c0.683,0.095,1.426,0.257,2.161,0.584c0.358,0.175,0.743,0.342,1.085,0.59
				c0.176,0.123,0.357,0.226,0.53,0.377c0.159,0.13,0.319,0.263,0.481,0.399c0.648,0.588,1.275,1.252,1.765,2.04
				c0.469,0.8,0.839,1.685,1.02,2.612c0.163,0.926,0.197,1.871,0.094,2.776c-0.081,0.911-0.3,1.781-0.545,2.602
				c-0.139,0.405-0.255,0.811-0.405,1.192c-0.164,0.378-0.325,0.745-0.481,1.105c-0.309,0.716-0.683,1.352-0.983,1.958
				c-0.33,0.591-0.667,1.116-0.955,1.581c-0.284,0.471-0.58,0.85-0.797,1.178c-0.457,0.639-0.719,1.006-0.719,1.006
				s0.213-0.397,0.586-1.089c0.183-0.348,0.436-0.75,0.67-1.245c0.241-0.486,0.514-1.038,0.812-1.636
				c0.259-0.616,0.588-1.263,0.845-1.979c0.13-0.359,0.263-0.727,0.4-1.102c0.112-0.381,0.229-0.771,0.346-1.165
				c0.216-0.794,0.377-1.628,0.452-2.477c0.089-0.851,0.046-1.713-0.109-2.552c-0.154-0.839-0.479-1.63-0.892-2.358
				c-0.442-0.718-0.982-1.355-1.564-1.912c-0.158-0.139-0.313-0.277-0.468-0.415c-0.138-0.121-0.308-0.235-0.456-0.355
				c-0.296-0.249-0.64-0.418-0.959-0.602c-0.657-0.343-1.342-0.536-1.981-0.668c-1.292-0.237-2.416-0.195-3.188-0.096
				C176.735,155.867,176.3,155.986,176.3,155.986z"/>
			<path style="fill:#722808;" d="M311.681,43.484c0,0-0.379,0.456-0.847,1.167c-0.231,0.356-0.483,0.779-0.725,1.243
				c-0.235,0.465-0.472,0.968-0.647,1.491c-0.113,0.253-0.172,0.525-0.259,0.783c-0.068,0.265-0.135,0.525-0.2,0.778
				c-0.056,0.254-0.093,0.504-0.142,0.743c-0.051,0.237-0.061,0.465-0.095,0.677c-0.02,0.211-0.065,0.407-0.07,0.582
				c-0.012,0.175-0.024,0.329-0.035,0.456c-0.03,0.257-0.047,0.402-0.047,0.402s-0.046-0.139-0.113-0.387
				c-0.065-0.25-0.171-0.611-0.198-1.056c-0.017-0.222-0.061-0.466-0.041-0.721c0.011-0.256,0.001-0.532,0.04-0.811
				c0.048-0.276,0.065-0.571,0.146-0.857c0.086-0.284,0.141-0.583,0.256-0.864c0.212-0.564,0.482-1.109,0.798-1.578
				c0.313-0.468,0.653-0.871,0.983-1.175C311.128,43.73,311.681,43.484,311.681,43.484z"/>
		</g>
		<g>
			<path style="fill:none;" d="M180.222,156.393c0.02-0.018,0.041-0.039,0.06-0.055c0.203-0.165,0.41-0.84,0.003-0.509
				c-0.218,0.176-0.443,0.415-0.668,0.701c-0.028,0.009-0.054,0.011-0.081,0.02c-0.178,0.053-0.449,0.514-0.378,0.636
				c-3.284,5.088-6.498,19.572,1.033,17.409C187.184,172.586,188.276,154.982,180.222,156.393z"/>
		</g>
		<g>
			<path style="fill:#D48042;" d="M90.711,52.922c0,0-5.036,8.624-15.599,14.797c-10.563,6.176-17.945,13.326-16.411,35.225
				c1.533,21.898,12.709,44.85-2.378,49.976c-15.087,5.127-19.836,3.259-20.22,10.511c-0.384,7.252,16.849,7.357,25.926,3.798
				c8.638-0.352,29.449-1.671,34.644-23.483C96.875,134.865,78.287,84.047,90.711,52.922z"/>
			<g style="opacity:0.5;">
				<path style="fill:#D48042;" d="M90.711,52.922c0,0-5.036,8.624-15.599,14.797c-1.725,1.008-3.364,2.046-4.895,3.166
					c2.494-0.971,4.582-1.523,5.113-0.933c1.526,1.698-16.037,12.889-13.807,31.795c2.231,18.905,8.208,31.95,7.807,44.587
					c-0.4,12.64-13.749,20.552-20.93,18.826c-6.587-1.585,15.156-3.258,15.095-19.934c-0.95,3.613-3.097,6.307-7.174,7.692
					c-15.087,5.127-19.836,3.259-20.22,10.511c-0.384,7.252,16.849,7.357,25.926,3.798c8.638-0.352,29.449-1.671,34.644-23.483
					C96.875,134.865,78.287,84.047,90.711,52.922z"/>
			</g>
			<g>
				<path style="fill:#722808;" d="M89.341,143.358c3.828-24.748-6.188-53.376-9.858-71.183
					c-24.998,16.707-14.342,41.175-7.055,65.883c3.798,17.113-3.266,25.314-9.416,29.125c2-0.093,4.494-0.263,7.227-0.689
					C78.283,163.299,86.984,157.877,89.341,143.358z"/>
			</g>
			<g style="opacity:0.5;">
				<path style="fill:#722808;" d="M79.483,72.175c-10.648,7.117-14.824,15.643-15.55,24.996c0.629-1.236,2.198-3.883,3.296-2.404
					c1.735,2.338,2.032,5.244,4.689,6.93c2,1.267,4.579,1.747,6.405,3.266c2.825,2.352,0.84,5.737,0.067,8.586
					c-1.71,6.296-1.271,12.7,0.482,18.94c1.46,5.198,4.342,10.681,2.95,16.188c-0.835,3.308-3.85,6.749-6.585,8.659
					c-1.438,1.004-2.894,1.629-4.29,1.329c-2.069,4.069-5.098,6.763-7.935,8.52c2-0.093,4.494-0.263,7.227-0.689
					c8.044-3.195,16.745-8.617,19.102-23.136C93.169,118.61,83.153,89.982,79.483,72.175z"/>
			</g>
			<path style="fill:#D48042;" d="M176.606,70.91c-4.471-5.407-8.176-11.228-12.469-17.031
				c-4.647-6.281-10.048-11.922-15.158-17.814c-1.828,1.644-3.97,1.391-8.897,1.359c-23.973-1.271-37.166,1.522-46.561,10.714
				C84.127,57.33,79.57,69.591,76.516,80.056c-3.055,10.465-2.448,13.778,5.53,19.514c7.978,5.737,6.927,10.838,6.927,10.838
				c-13.702,10.839-4.611,26.757,7.388,35.407c7.346,6.247,17.652,5.737,17.652,5.737s-2.038,7.207,5.067,8.547
				c9.306,1.462,22.043-7.11,38.964-12.746c30.363-10.419,26.993-25.767,29.328-30.351c7.941-21.544-3.514-32.611-9.957-44.468
				C177.117,71.984,176.854,71.445,176.606,70.91z"/>
			<path style="fill:#B26028;" d="M145.159,37.463c-1.983,2.386-2.689,5.663-2.511,8.745c0.672-1.075,1.422-2.067,2.355-2.985
				c0.26-0.255,0.986-0.419,0.827,0.177c-1.038,3.886-0.464,8.286,1.237,11.949c0.783-2.022,1.881-3.815,3.221-5.589
				c0.163-0.217,0.997-0.664,0.938-0.052c-1.567,16.204,13.165,27.152,24.269,36.229c6.303,5.149,11.965,10.841,14.564,17.985
				c0.346-13.482-7.65-22.2-12.643-31.389c-0.298-0.549-0.561-1.088-0.808-1.624c-4.471-5.407-8.176-11.228-12.469-17.031
				c-4.647-6.281-10.048-11.922-15.158-17.814c-1.022,0.918-2.143,1.244-3.792,1.347C145.176,37.429,145.171,37.447,145.159,37.463z
				"/>
			<path style="opacity:0.5;fill:#D48042;" d="M149.914,84.478c0,0,1.367-5.449,8.245-5.624c3.365,0.042-0.388-2.849-3.69-1.543
				c-1.552-8.836-4.703-12.909-7.708-12.126c-3.004,0.784-3.121,10.609,2.956,15.376C148.692,82.121,148.642,85.621,149.914,84.478z
				"/>
			<path style="opacity:0.5;fill:#D48042;" d="M100.898,93.287c0,0,2.684-1.8,8.019,0.424c1.441,0.726,0.194-1.928-2.064-2.88
				c1.267-6.496-1.558-14.226-4.687-14.482c-3.128-0.258-4.126,8.101-0.039,14.692C101.011,91.166,100.898,93.287,100.898,93.287z"
				/>
			<g>
				<path style="fill:#000100;" d="M152.401,72.023c1.261,3.723,1.037,7.171-0.499,7.691c-1.533,0.519-3.802-2.087-5.061-5.813
					c-1.261-3.724-1.042-7.166,0.495-7.686C148.868,65.694,151.14,68.297,152.401,72.023z"/>
				<path style="fill:#FFFFFF;" d="M150.542,69.217c0.453,1.336,0.37,2.566-0.179,2.75c-0.548,0.19-1.359-0.743-1.811-2.076
					c-0.452-1.33-0.372-2.564,0.177-2.75C149.277,66.957,150.09,67.887,150.542,69.217z"/>
			</g>
			<path style="fill:#722808;" d="M157.074,77.981c-1.336-0.251-3.1,0.712-4.181,1.427c-1.251,0.825-2.044,2.181-2.8,3.431
				c-0.133,0.219-0.047,0.49,0.167,0.205c0.863-1.151,1.565-2.326,2.814-3.118c1.08-0.685,2.49-0.988,3.72-1.288
				C156.95,78.599,157.343,78.031,157.074,77.981z"/>
			<path style="opacity:0.5;fill:#D48042;" d="M88.998,80.12c0,0,1.224-11.653,13.775-6.442c-4.971-5.314-10.018-7.297-12.982-4.729
				C86.828,71.521,87.68,76.414,88.998,80.12z"/>
			<path style="opacity:0.5;fill:#D48042;" d="M127.125,65.271c0,0,5.15-10.771,19.173-8.547
				C138.107,51.173,129.845,49.522,127.125,65.271z"/>
			<path style="fill:#722808;" d="M88.92,78.451c0,0,1.224-11.654,13.776-6.442c-4.972-5.315-10.017-7.298-12.982-4.728
				C86.749,69.85,87.602,74.745,88.92,78.451z"/>
			<path style="fill:#722808;" d="M127.047,63.602c0,0,5.15-10.771,19.173-8.547C138.03,49.503,129.767,47.853,127.047,63.602z"/>
			<g>
				<path style="fill:#F9EFEF;" d="M158.684,90.53c-14.09-4.786-30.553-5.245-35.627-12.966c-9.961-15.154-4.21-26.648,2.543-32.054
					c-3.187-0.872-5.121,1.134-5.121,1.134s0.178-0.693,1.271-2.745c-6.855-0.644-10.826,5.331-10.826,5.331
					s-1.121-2.731-0.278-5.356c-3.83,0.641-8.029,5.619-7.662,9.294c-3.313-1.161-5.873-0.593-5.873-0.593s0.554,0.169,2.553,2.244
					c-1.521-0.503-6.013-0.6-6.221,3.325c5.093-5.915,17.365,6.542,18.04,20.353c0.673,13.812-10.426,24.329-19.444,30.037
					c-1.591,1.008-2.997,1.968-4.247,2.873c-11.965,10.796-3.066,26.021,8.57,34.407c7.346,6.247,17.652,5.737,17.652,5.737
					s-2.038,7.207,5.067,8.547c9.306,1.462,22.043-7.11,38.964-12.746c27.455-9.421,27.329-22.871,28.779-28.751
					C186.043,103.594,170.209,94.446,158.684,90.53z"/>
				<g style="opacity:0.6;">
					<path style="fill:#ACA6A6;" d="M177.415,72.533c-0.298-0.549-0.561-1.088-0.808-1.624c-0.164-0.197-0.317-0.398-0.479-0.596
						c3.114,8.513,5.208,17.508,5.985,26.503c4.894,21.365-7.405,34.03-6.778,28.805c0.762-6.348-0.176-8.74-0.176-8.74
						c3.431-0.456,6.126-7.123,2.807-4.747c-5.499,3.329-11.028-0.796-11.028-0.796s-0.65,4.225,4.612,5.353
						c2.266,9.489-9.895,22.043-26.5,22.017c-16.605-0.03-20.297-14.701-20.297-14.701s9.958-7.138,8.92-11.663
						c-1.037-4.524-20.938-2.599-30.576,4.246c0,0-5.283,5.564,2.247,8.091c7.53,2.527,14.637,0.988,14.637,0.988
						s-0.125,6.382,6.812,12.072c2.711,1.963-4.611,10.867-15.692,10.509c-2.35,0.251-4.787,0.106-7.465-0.537
						c-3.005-0.72-5.955-1.688-8.729-3.002c0.481,0.378,0.965,0.751,1.456,1.104c7.346,6.247,17.652,5.737,17.652,5.737
						s-2.038,7.207,5.067,8.547c9.306,1.462,22.043-7.11,38.964-12.746c30.363-10.419,26.993-25.767,29.328-30.351
						C195.313,95.457,183.858,84.39,177.415,72.533z"/>
				</g>
			</g>
			<g>
				<path style="fill:#B23D26;" d="M114.829,140.255c-0.016,0.295-0.269,0.522-0.564,0.508c-0.296-0.017-0.522-0.27-0.507-0.565
					c0.016-0.295,0.268-0.522,0.563-0.507C114.617,139.706,114.845,139.958,114.829,140.255z"/>
				<path style="fill:#B23D26;" d="M141.29,122.672c-0.016,0.297-0.268,0.522-0.563,0.508c-0.294-0.017-0.522-0.268-0.506-0.565
					c0.016-0.297,0.268-0.523,0.563-0.508C141.08,122.122,141.307,122.376,141.29,122.672z"/>
				<path style="fill:#B23D26;" d="M154.021,121.326c-0.016,0.294-0.268,0.521-0.564,0.506c-0.296-0.017-0.523-0.269-0.507-0.563
					c0.016-0.296,0.268-0.522,0.563-0.508C153.809,120.776,154.037,121.029,154.021,121.326z"/>
				<path style="fill:#B23D26;" d="M155.077,134.443c-0.016,0.296-0.268,0.521-0.564,0.507c-0.296-0.016-0.522-0.267-0.507-0.564
					c0.016-0.295,0.268-0.52,0.564-0.506C154.865,133.896,155.092,134.147,155.077,134.443z"/>
				<path style="fill:#B23D26;" d="M168.065,128.266c-0.016,0.296-0.268,0.521-0.563,0.506c-0.295-0.015-0.522-0.267-0.506-0.563
					c0.016-0.297,0.268-0.522,0.563-0.507C167.854,127.719,168.081,127.969,168.065,128.266z"/>
				<path style="fill:#B23D26;" d="M151.267,112.291c-0.016,0.298-0.268,0.522-0.564,0.507c-0.295-0.015-0.522-0.267-0.506-0.563
					c0.016-0.296,0.268-0.523,0.563-0.508C151.056,111.743,151.283,111.996,151.267,112.291z"/>
				<path style="fill:#B23D26;" d="M102.488,135.635c-0.016,0.295-0.268,0.521-0.563,0.506c-0.295-0.015-0.523-0.268-0.507-0.563
					c0.015-0.296,0.268-0.522,0.563-0.506C102.277,135.088,102.503,135.338,102.488,135.635z"/>
				<path style="fill:#B23D26;" d="M103.089,141.455c-0.016,0.295-0.268,0.521-0.564,0.506c-0.296-0.016-0.522-0.268-0.507-0.563
					c0.016-0.295,0.269-0.522,0.564-0.507C102.878,140.907,103.104,141.159,103.089,141.455z"/>
				<path style="fill:#B23D26;" d="M118.401,130.789c-0.016,0.295-0.268,0.522-0.563,0.506c-0.296-0.016-0.522-0.268-0.506-0.562
					c0.016-0.297,0.267-0.523,0.563-0.507C118.19,130.241,118.417,130.493,118.401,130.789z"/>
				<path style="fill:#B23D26;" d="M107.435,132.613c-0.01,0.177-0.161,0.314-0.339,0.306c-0.178-0.01-0.314-0.163-0.305-0.34
					c0.009-0.178,0.162-0.315,0.34-0.305C107.308,132.283,107.444,132.436,107.435,132.613z"/>
				<path style="fill:#B23D26;" d="M95.918,133.589c-0.009,0.176-0.16,0.313-0.339,0.305c-0.178-0.01-0.314-0.163-0.305-0.339
					c0.009-0.179,0.162-0.316,0.339-0.307C95.792,133.258,95.928,133.41,95.918,133.589z"/>
				<path style="fill:#B23D26;" d="M112.187,137.279c-0.009,0.176-0.162,0.313-0.338,0.305c-0.178-0.01-0.314-0.163-0.305-0.339
					c0.009-0.179,0.161-0.315,0.339-0.306C112.06,136.948,112.196,137.101,112.187,137.279z"/>
				<path style="fill:#B23D26;" d="M158.502,129.294c-0.01,0.178-0.161,0.315-0.339,0.306c-0.179-0.01-0.314-0.162-0.305-0.34
					c0.01-0.178,0.161-0.313,0.339-0.305C158.375,128.965,158.511,129.116,158.502,129.294z"/>
				<path style="fill:#B23D26;" d="M166.754,120.978c-0.009,0.179-0.162,0.313-0.338,0.305c-0.179-0.01-0.315-0.16-0.305-0.339
					c0.009-0.178,0.16-0.314,0.339-0.305C166.627,120.648,166.764,120.8,166.754,120.978z"/>
				<path style="fill:#B23D26;" d="M140.56,133.946c-0.009,0.178-0.161,0.313-0.34,0.305c-0.177-0.01-0.314-0.161-0.305-0.339
					c0.01-0.178,0.162-0.314,0.339-0.305C140.433,133.617,140.569,133.768,140.56,133.946z"/>
				<path style="fill:#B23D26;" d="M155.8,114.201c-0.01,0.177-0.161,0.314-0.339,0.306c-0.178-0.01-0.314-0.163-0.304-0.34
					c0.009-0.178,0.16-0.313,0.338-0.304C155.673,113.873,155.809,114.023,155.8,114.201z"/>
				<path style="fill:#B23D26;" d="M150.847,127.893c-0.01,0.177-0.161,0.315-0.339,0.306c-0.179-0.01-0.315-0.163-0.306-0.341
					c0.009-0.177,0.161-0.313,0.34-0.304C150.719,127.563,150.856,127.715,150.847,127.893z"/>
				<path style="fill:#B23D26;" d="M162.335,120.501c-0.01,0.178-0.162,0.314-0.34,0.305c-0.177-0.01-0.313-0.161-0.304-0.339
					c0.009-0.178,0.161-0.313,0.338-0.303C162.208,120.173,162.345,120.323,162.335,120.501z"/>
				<path style="fill:#B23D26;" d="M133.989,123.228c-0.009,0.179-0.161,0.315-0.339,0.306c-0.177-0.01-0.314-0.161-0.304-0.34
					c0.009-0.177,0.162-0.313,0.338-0.304C133.862,122.899,133.999,123.051,133.989,123.228z"/>
				<path style="fill:#B23D26;" d="M100.41,130.775c-0.009,0.179-0.16,0.316-0.338,0.306c-0.178-0.009-0.314-0.161-0.305-0.34
					c0.009-0.178,0.161-0.313,0.339-0.304C100.283,130.447,100.419,130.598,100.41,130.775z"/>
			</g>
			<g>
				<path style="fill:#722808;" d="M102.873,120.771c0,0,11.853,5.075,19.126,2.497c7.276-2.579,10.538-10.756,11.083-13.421
					c0.545-2.664-7.151-4.822-15.974-3.539C108.286,107.591,97.05,116.287,102.873,120.771z"/>
				<path style="opacity:0.8;fill:#A14616;" d="M128.544,111.688c-2.215,0.386-6.048-0.189-7.295,2.23
					c-0.607,1.179-0.97,2.439-1.772,3.506c-1.916,2.552-4.536,0.761-6.846,0.106c-2.405-0.683-5.203,0.335-7.61,0.645
					c-1.1,0.141-2.823,0.48-3.749-0.257c0.031,1.047,0.522,2.023,1.602,2.853c0,0,11.853,5.075,19.126,2.497
					c7.276-2.579,10.538-10.756,11.083-13.421c0.025-0.125,0.027-0.247,0.017-0.371
					C131.799,110.592,130.101,111.414,128.544,111.688z"/>
				<path style="fill:#330F03;" d="M114.004,122.999c0,0-3.392-2.851-7.129-2.676c-2.437,0.242-2.99-2.211,1.661-2.025
					C113.186,118.482,115.455,123.759,114.004,122.999z"/>
				<path style="fill:#330F03;" d="M121.468,121.655c0,0,0.56-3.513,4.5-5.168c3.94-1.656,3.329-4.174-0.84-2.903
					C120.959,114.854,119.515,122.172,121.468,121.655z"/>
				<g>
					<path style="fill:#FFFFFF;" d="M119.49,107.758c-3.497-0.486-6.92,1.542-10.012,2.907c-2.579,1.141-4.329,3.111-6.307,4.986
						c-0.204,0.193-0.643,1.374-0.074,0.938c1.999-1.534,3.592-3.313,5.882-4.503c3.096-1.607,6.391-2.546,9.831-2.971
						C119.198,109.066,120.047,107.835,119.49,107.758z"/>
					<path style="fill:#FFFFFF;" d="M123.86,107.19c-0.662-0.332-1.587,0.071-2.239,0.291c-0.279,0.097-0.497,0.418-0.621,0.668
						c-0.043,0.085-0.289,0.755,0.042,0.689c0.715-0.137,1.447-0.117,2.147-0.317C123.457,108.444,124.292,107.408,123.86,107.19z"
						/>
				</g>
			</g>
			<path style="fill:#722808;" d="M182.9,38.912c0,0-1.314,1.915-3.075,5.553c-0.866,1.822-1.843,4.077-2.683,6.754
				c-0.841,2.672-1.544,5.775-1.759,9.201c-0.175,3.413,0.217,7.188,1.755,10.78c0.765,1.806,1.843,3.46,3.095,5.13
				c1.249,1.675,2.448,3.477,3.569,5.349c2.237,3.754,4.15,7.902,5.383,12.35c1.234,4.443,1.742,9.175,1.439,13.855
				c-0.32,4.684-1.407,9.285-3.005,13.591c-0.796,2.155-1.71,4.245-2.696,6.265c-0.519,0.997-0.98,2.009-1.601,2.974
				c-0.615,0.965-1.305,1.845-2.04,2.674c-2.964,3.299-6.482,5.729-9.87,7.83c-3.412,2.085-6.774,3.804-9.921,5.282
				c-6.299,2.954-11.758,4.904-15.577,6.242c-3.83,1.314-6.058,1.938-6.058,1.938s2.196-0.723,5.979-2.158
				c3.781-1.429,9.143-3.604,15.36-6.637c3.104-1.527,6.412-3.296,9.747-5.418c3.311-2.134,6.713-4.605,9.552-7.776
				c0.699-0.795,1.356-1.646,1.918-2.541c0.568-0.89,1.028-1.904,1.532-2.889c0.959-1.995,1.844-4.054,2.613-6.172
				c1.543-4.231,2.57-8.731,2.86-13.284c0.321-4.547-0.143-9.14-1.32-13.477c-1.176-4.341-3.021-8.412-5.199-12.115
				c-1.09-1.857-2.263-3.603-3.468-5.3c-1.222-1.689-2.355-3.493-3.106-5.374c-1.535-3.772-1.862-7.677-1.622-11.162
				c0.271-3.501,1.081-6.627,2.012-9.298c0.927-2.677,1.976-4.914,2.9-6.718c0.932-1.8,1.769-3.157,2.353-4.07
				C182.558,39.378,182.9,38.912,182.9,38.912z"/>
			<g>
				<path style="fill:#F79AA7;" d="M122.55,148.48c0,0-7.194,16.318,2.991,19.822c8.814,1.408,12.831-5.787,14.163-15.68
					c1.056-7.217,2.195-10.93,2.195-10.93s-7.103-0.645-10.856-3.537C128.822,144.502,123.965,147.208,122.55,148.48z"/>
				<path style="fill:#F79AA7;" d="M131.043,138.156c-2.221,6.346-7.078,9.052-8.493,10.324c0,0-0.518,1.183-1.08,2.973
					c0.501-0.434,1.03-0.829,1.586-1.158c0.957-0.568,2.874-1.628,3.992-0.906c0.352,0.226,0.345,0.877,0.368,1.224
					c0.091,1.287,0.32,2.578,0.553,3.847c0.463,2.529,1.122,4.945,2.526,7.071c-0.084-2.983-0.677-6.038-0.117-8.973
					c0.31-1.617,0.771-3.941,2.318-4.896c3.588-2.209,3.487,5.249,3.29,6.875c-0.575,4.692-2.202,10.295-6.38,13.052
					c-0.513,0.339-1.043,0.633-1.582,0.882c7.099-0.22,10.479-6.938,11.679-15.848c1.056-7.217,2.195-10.93,2.195-10.93
					S134.796,141.048,131.043,138.156z"/>
				<path style="fill:#F79AA7;" d="M130.605,159.758c-1.705-6.741-2.041-14.806,1.043-21.278c0.127-0.266-0.099-0.26-0.217-0.062
					c-3.595,6.048-3.69,15.471-1.275,21.875C130.235,160.5,130.653,159.948,130.605,159.758z"/>
				<g>
					<path style="fill:#FFFFFF;" d="M126.364,165.602c-2.236-2.137-3.078-4.219-3.357-7.311c-0.246-2.74,0.793-5.292,1.019-7.949
						c0.035-0.414-0.434,0.145-0.471,0.315c-1.045,4.862-3.533,12.917,2.062,16.083
						C125.982,166.948,126.663,165.888,126.364,165.602z"/>
					<path style="fill:#FFFFFF;" d="M128.512,165.859c-0.439-0.023-1.08,1.24-0.634,1.264
						C128.318,167.146,128.959,165.883,128.512,165.859z"/>
				</g>
			</g>
			<path style="opacity:0.7;fill:#D48042;" d="M93.379,50.488c3.848-3.515,8.123-6.827,13.111-8.542
				c6.077-2.089,12.686-1.724,19.02-1.721c2.533,0.001,5.069,0.082,7.602,0.066c1.736-0.012,3.978,0.033,5.669-0.768
				c-10.275-1.344-22.32-1.878-32.23,1.294c-5.732,1.835-10.72,5.978-14.455,10.872C92.531,51.271,92.963,50.869,93.379,50.488z"/>
			<g>
				<path style="fill:#000100;" d="M106.371,83.815c0.774,3.852,0.111,7.243-1.478,7.563c-1.587,0.317-3.504-2.556-4.276-6.412
					c-0.773-3.856-0.116-7.242,1.473-7.561C103.676,77.087,105.597,79.958,106.371,83.815z"/>
				<path style="fill:#FFFFFF;" d="M104.886,80.795c0.278,1.382,0.039,2.593-0.528,2.704c-0.569,0.118-1.254-0.908-1.531-2.291
					c-0.279-1.378-0.041-2.591,0.527-2.705C103.921,78.391,104.609,79.416,104.886,80.795z"/>
			</g>
			<path style="fill:#722808;" d="M108.075,92.456c-1.773-1.695-4.54-1.263-6.426-0.127c-0.11,0.064-0.341,0.584-0.131,0.481
				c0.898-0.433,1.81-0.797,2.827-0.696c1.181,0.121,2.184,0.679,3.295,1.005C107.871,93.187,108.263,92.632,108.075,92.456z"/>
			<g>
				<path style="fill:#835227;" d="M176.706,114.467c0.091-0.071,0.497-0.692,0.163-0.603c-1.975,0.531-3.742,1.128-5.771,0.47
					c-1.04-0.34-1.666-1.544-2.658-1.728c-0.107-0.02-0.313,0.29-0.211,0.364c0.477,0.349,0.757,0.939,1.177,1.354
					c0.566,0.563,1.349,0.905,2.11,1.099c0.213,0.053,0.438,0.093,0.669,0.119c0.054,0.111,0.114,0.234,0.188,0.39
					c0.123,0.256,0.29,0.567,0.383,0.972c0.057,0.195,0.12,0.408,0.185,0.636c0.071,0.223,0.149,0.459,0.175,0.724
					c0.181,1.036,0.314,2.319,0.133,3.77c-0.045,0.362-0.077,0.735-0.137,1.117c-0.092,0.373-0.186,0.76-0.282,1.156
					c-0.048,0.197-0.095,0.399-0.143,0.601c-0.072,0.198-0.143,0.398-0.216,0.598c-0.145,0.4-0.294,0.81-0.447,1.229
					c-0.188,0.403-0.405,0.807-0.61,1.22c-0.104,0.208-0.209,0.415-0.315,0.626c-0.114,0.205-0.259,0.396-0.388,0.599
					c-0.263,0.399-0.53,0.807-0.802,1.219c-0.298,0.395-0.637,0.771-0.959,1.164c-0.609,0.821-1.441,1.479-2.196,2.23
					c-0.39,0.365-0.851,0.662-1.274,1.004c-0.445,0.317-0.845,0.703-1.336,0.974c-0.475,0.288-0.957,0.579-1.441,0.872
					c-0.243,0.145-0.479,0.301-0.731,0.434l-0.777,0.367c-1.04,0.492-2.079,1.014-3.186,1.371c-0.546,0.2-1.095,0.401-1.643,0.604
					c-0.563,0.185-1.165,0.317-1.748,0.48l-1.767,0.468l-0.186,0.048c-0.005,0.002-0.009,0.004-0.005,0.001l-0.027,0.004
					l-0.056,0.01l-0.112,0.018l-0.444,0.072l-0.887,0.145c-2.367,0.374-4.761,0.608-7.106,0.524
					c-2.343-0.07-4.641-0.357-6.783-0.954c-2.139-0.595-4.127-1.452-5.864-2.523c-1.734-1.073-3.232-2.323-4.467-3.627
					c-2.46-2.626-3.948-5.317-4.794-7.256c-0.858-1.947-1.15-3.142-1.15-3.142s0.042,0.302,0.168,0.863
					c0.129,0.559,0.328,1.381,0.691,2.394c0.727,2.008,1.975,4.892,4.398,7.756c1.208,1.425,2.707,2.826,4.503,4.02
					c1.789,1.199,3.862,2.207,6.12,2.877c2.254,0.675,4.671,1.067,7.129,1.148c2.46,0.106,4.951-0.12,7.404-0.489l0.918-0.155
					l0.459-0.077l0.286-0.053l0.221-0.059l1.763-0.48c0.586-0.169,1.171-0.303,1.756-0.498c0.585-0.219,1.169-0.434,1.749-0.652
					c0.573-0.232,1.176-0.398,1.716-0.685c0.545-0.273,1.088-0.545,1.628-0.815l0.805-0.404c0.262-0.145,0.509-0.317,0.762-0.475
					c0.502-0.32,1.002-0.641,1.497-0.955c0.507-0.299,0.927-0.715,1.389-1.061c0.442-0.374,0.914-0.7,1.313-1.105
					c0.776-0.828,1.617-1.558,2.236-2.451c1.406-1.646,2.288-3.528,3.004-5.253c0.136-0.449,0.271-0.889,0.402-1.319
					c0.065-0.216,0.126-0.428,0.191-0.637c0.036-0.217,0.073-0.432,0.108-0.642c0.07-0.421,0.139-0.831,0.204-1.231
					c0.034-0.402,0.039-0.797,0.058-1.173c0.074-1.52-0.163-2.837-0.428-3.881c-0.105-0.53-0.346-0.967-0.484-1.358
					c-0.135-0.397-0.336-0.695-0.486-0.942c-0.082-0.133-0.149-0.246-0.21-0.346C173.749,115.714,175.552,115.342,176.706,114.467z"
					/>
				<path style="fill:#835227;" d="M131.043,138.156c0,0,0.027,0.364-0.041,1.011c-0.054,0.315-0.095,0.713-0.222,1.146
					c-0.097,0.444-0.271,0.924-0.467,1.449c-0.236,0.505-0.456,1.083-0.812,1.619c-0.17,0.273-0.328,0.569-0.524,0.845
					c-0.196,0.274-0.415,0.545-0.629,0.826c-0.207,0.289-0.464,0.537-0.709,0.805c-0.25,0.262-0.492,0.541-0.772,0.784
					c-0.578,0.455-1.117,0.995-1.75,1.395c-0.632,0.399-1.243,0.84-1.908,1.148c-0.652,0.332-1.292,0.67-1.95,0.893
					c-0.65,0.243-1.279,0.479-1.885,0.652c-0.613,0.159-1.197,0.289-1.733,0.408c-0.27,0.054-0.522,0.125-0.77,0.158
					c-0.25,0.027-0.486,0.056-0.708,0.082c-0.442,0.053-0.83,0.081-1.148,0.11c-0.636,0.052-0.999,0.064-0.999,0.064
					s0.339-0.148,0.93-0.378c0.297-0.115,0.655-0.255,1.067-0.398c0.413-0.14,0.874-0.311,1.363-0.528
					c0.493-0.211,1.023-0.436,1.589-0.651c0.557-0.241,1.115-0.553,1.716-0.818c0.611-0.245,1.162-0.646,1.772-0.957
					c0.617-0.304,1.163-0.73,1.741-1.109c0.599-0.352,1.095-0.832,1.642-1.235c0.487-0.467,1.017-0.883,1.449-1.361
					c0.434-0.477,0.871-0.925,1.224-1.406c0.385-0.455,0.674-0.938,0.984-1.364c0.258-0.453,0.529-0.859,0.714-1.248
					c0.207-0.38,0.354-0.727,0.49-1.012c0.108-0.289,0.218-0.518,0.267-0.679C131.02,138.245,131.043,138.156,131.043,138.156z"/>
			</g>
			<path style="opacity:0.6;fill:#ACA6A6;" d="M87.656,137.433c-0.521-0.973-0.941-1.996-1.212-3.081
				c-1.023-4.099-0.191-8.073,1.918-11.557c-0.749,0.68-1.479,1.378-2.166,2.128c-0.187,0.204-0.685,0.285-0.587-0.126
				c1.599-6.755,6.105-11.63,11.363-15.893c4.135-3.356,8.879-6.332,13.954-8.202c9.445-4.426,20.056-7.033,29.683-9.023
				c-8.408-1.639-17.294,0.635-25.2,3.474c-4.236,1.521-8.58,3.123-12.582,5.195c-2.282,1.182-4.352,2.503-6.138,4.366
				c-1.183,1.235-2.331,2.482-3.732,3.472c-0.131,0.092-0.587,0.204-0.525-0.115c0.823-4.242-2.24-6.999-5.354-9.291
				c-0.271-0.199,0.081-0.541,0.291-0.602c1.558-0.457,3.141-0.652,4.747-0.744c-4.18-3.273-11.579-4.668-11.977-10.87
				c-0.304-4.739,1.337-9.984,2.805-14.437c1.372-4.157,3.768-7.687,5.98-11.408c-1.662,1.204-2.998,2.751-4.289,4.36
				c-0.124,0.154-0.651,0.318-0.605-0.043c0.401-3.214,1.617-6.136,2.976-9.01c-5.184,7.695-8.246,16.344-10.49,24.03
				c-3.055,10.465-2.448,13.778,5.53,19.514c7.978,5.737,6.927,10.838,6.927,10.838C78.981,118.313,81.116,128.915,87.656,137.433z"
				/>
		</g>
	</g>
	<path style="fill:#722808;" d="M365.344,105.69c-0.642-2.564-5.047-6.104-7.758-4.797c-0.034,0.018-0.045,0.084,0.006,0.065
		c2.331-0.938,5.152,1.811,6.323,3.516c1.21,1.765-1.482-0.295-2.162-0.623c-0.638-0.306-1.363-0.309-1.997-0.622
		c-0.201-0.1-0.564,0.264-0.364,0.429c2.829,2.35,3.929,4.975,4.475,8.577c0.105,0.691-0.012,1.472,0.25,2.136
		c-0.089-0.225-0.549-0.897-0.694-1.081c-0.854-1.078-1.855-1.658-2.83-2.494c-0.184-0.187-0.376-0.366-0.585-0.537
		c-0.219-0.177-0.627,0.207-0.423,0.414c3.36,2.798,2.252,7.849,0.841,11.377c-0.733,1.835-2.621,3.343-3.924,4.781
		c-1.487,1.64-3.451,2.945-5.292,4.153c-0.168,0.109-0.173,0.459,0.083,0.344c3.863-1.722,7.916-5.391,9.866-9.189
		c1.449-2.825,2.011-6.808,0.548-9.733c0.293,0.235,0.579,0.479,0.842,0.756c0.492,0.513,0.76,1.583,1.411,1.925
		c0.181,0.096,0.41-0.121,0.439-0.29c0.486-2.926-0.394-6.463-2.015-8.913c-0.251-0.379-0.632-0.807-0.922-1.183
		c1.122,0.599,2.296,1.255,3.438,1.511C365.173,106.273,365.401,105.924,365.344,105.69z"/>
	<path style="fill:#722808;" d="M345.772,132.367c-10.814,4.015-23.843,1.153-32.816-5.889c-4.371-3.43-7.342-7.791-9.677-12.784
		c-2.219-4.748-3.761-10.843-4.169-16.057c-0.909-11.637-0.549-23.587,3.443-34.692c2.079-5.788,4.405-10.797,9.675-14.369
		c5.482-3.718,12.901-1.075,18.089,1.82c0.025,0.014,0.063-0.034,0.034-0.051c-4.337-2.655-9.763-5.072-14.944-3.588
		c-5.23,1.499-8.796,5.504-11.413,10.079c-3.058,5.346-4.441,11.73-5.721,17.696c-1.357,6.324-1.261,13.525-0.701,19.938
		c0.988,11.285,4.353,25.025,13.853,32.232c4,3.035,8.703,5.341,13.652,6.672c-1.551,0.461-3.212,0.768-4.767,1.184
		c-1.678,0.449-3.681,0.352-5.291,0.865c-1.7,0.542-3.313-0.211-5.012-0.188c-1.691,0.021-3.386-0.334-5.125-0.141
		c-6.529,0.732-15.604,3.971-14.348,12.135c0.006,0.03,0.028,0.043,0.058,0.041c0.051-0.004,0.099-0.006,0.146-0.009
		c0.049-0.002,0.099-0.096,0.033-0.106c-0.658-0.113,0.68-3.787,0.853-4.197c0.646-1.533,1.865-2.518,3.166-3.432
		c1.869-1.312,4.361-2.382,6.582-2.88c2.831-0.632,6.3-0.675,9.169-0.267c0.62,0.087,1.254,0.125,1.896,0.126
		c-0.877,0.181-1.743,0.423-2.592,0.671c-3.135,0.913-5.732,2.437-7.839,4.941c-1.932,2.293-2.417,5.181-1.851,8.043
		c0.604,3.061,2.721,4.423,5.553,5.195c0.065,0.018,0.154-0.107,0.078-0.143c-6.941-3.075-5.919-11.282-0.387-15.277
		c1.046-0.755,2.26-1.364,3.536-1.858c2.39-0.415,4.46-1.462,7.087-1.271c1.344,0.096,2.622,0.402,3.905,0.675
		c-2.342,0.78-4.406,2.109-6.16,4.167c-2.228,2.613-3.421,6.965-2.532,10.327c0.997,3.764,3.324,4.744,6.455,3.99
		c0.152-0.185,0.294-0.372,0.428-0.564c-2.225,0.437-4.251,0.1-5.416-2.203c-0.97-1.922-0.805-4.271-0.426-6.308
		c0.247-1.325,0.725-2.516,1.372-3.577c2.64-3.063,7.102-4.952,10.745-5.588c4.355-0.764,8.921-0.391,13.226,0.532
		c-1.534-0.707-3.094-1.255-4.746-1.628c-0.139-0.032-0.228-0.091-0.289-0.161c-3.464-0.557-7-0.446-10.477,0.467
		c-0.976-0.772-2.136-1.071-3.355-1.185c1.424-0.285,2.851-0.707,4.231-1.13c0.978-0.301,2.048-0.206,2.778-0.959
		c0.025-0.025,0.034-0.059,0.052-0.089c6.609,1.64,13.619,1.518,19.976-1.002C345.909,132.527,345.933,132.309,345.772,132.367z"/>
	<path style="fill:#D48042;" d="M224.159,133.66c-1.61-1.854-1.507-5.907-1.672-8.144c-0.878-11.97,0.499-23.728,1.03-35.666
		c0.457-10.265-4.077-18.224-8.542-27.058c-2.764-5.47-5.611-10.898-8.433-16.338c-2.236-4.31-4.146-9.512-7.732-12.917
		c-4.33-4.112-10.227-4.215-15.891-3.984c-5.587,0.232-10.658,2.295-16.359,1.73c-2.847-0.282-5.252-1.451-7.942-2.232
		c-1.265-0.366-2.472,0.271-3.508,0.916c-1.66,1.031-2.737,2.685-4.129,4.022c-1.602,1.538-3.533,2.381-5.354,3.506
		c-0.013-0.008-0.027-0.013-0.04-0.022c-0.091-0.062-0.251,0.12-0.171,0.201c1.316,1.333,2.833,2.154,4.04,3.672
		c1.813,2.281,3.33,4.564,4.77,7.098c2.244,3.952,2.739,8.824,4.327,13.115c0.093,0.457,0.174,0.916,0.296,1.368
		c1.709,6.3,5.239,11.443,9.919,15.918c2.099,2.009,4.372,3.808,6.714,5.521c0.074,0.064,0.149,0.127,0.222,0.191
		c4.529,3.994,10.134,8.09,12.701,13.667c2.626,5.704,3.416,12.23,4.023,18.409c0.523,5.337,0.707,10.813,3.957,15.345
		c2.925,4.075,7.029,6.167,11.792,7.447c4.774,1.279,10.763,2.036,15.462,0.089C226.98,138.13,226.025,135.809,224.159,133.66z"/>
	<path style="fill:#B26028;" d="M224.159,133.66c-1.61-1.854-1.507-5.907-1.672-8.144c-0.878-11.97,0.499-23.728,1.03-35.666
		c0.457-10.265-4.077-18.224-8.542-27.058c-2.764-5.47-5.611-10.898-8.433-16.338c-2.236-4.31-4.146-9.512-7.732-12.917
		c-4.33-4.112-10.227-4.215-15.891-3.984c-5.587,0.232-10.658,2.295-16.359,1.73c-2.847-0.282-5.252-1.451-7.942-2.232
		c-1.265-0.366-2.472,0.271-3.508,0.916c-1.66,1.031-2.737,2.685-4.129,4.022c-1.602,1.538-3.533,2.381-5.354,3.506
		c-0.013-0.008-0.027-0.013-0.04-0.022c-0.091-0.062-0.251,0.12-0.171,0.201c1.316,1.333,2.833,2.154,4.04,3.672
		c1.813,2.281,3.33,4.564,4.77,7.098c2.244,3.952,2.739,8.824,4.327,13.115c0.093,0.457,0.174,0.916,0.296,1.368
		c1.709,6.3,5.239,11.443,9.919,15.918c2.099,2.009,4.372,3.808,6.714,5.521c0.074,0.064,0.149,0.127,0.222,0.191
		c4.529,3.994,10.134,8.09,12.701,13.667c2.626,5.704,3.416,12.23,4.023,18.409c0.523,5.337,0.707,10.813,3.957,15.345
		c2.925,4.075,7.029,6.167,11.792,7.447c4.774,1.279,10.763,2.036,15.462,0.089C226.98,138.13,226.025,135.809,224.159,133.66z
		 M177.051,33.738c3.454-0.238,6.896-0.621,10.35-0.874c2.863-0.208,5.393-0.141,7.652,1.802c1.915,1.646,3.995,4.177,4.372,6.74
		c0.31,2.104-1.27,3.66-2.913,4.641c-0.184,0.109-0.393,0.01-0.342-0.21c0.5-2.139,0.496-4.275-0.42-6.287
		c-1.537,1.345-2.774,3.786-4.792,4.477c-2.482,0.85-3.993-1.241-5.719-2.637c-2.469-1.996-8.429-3.338-8.578-7.301
		C176.653,33.904,176.891,33.75,177.051,33.738z M212.522,129.875c-0.001,0.227-0.414,0.571-0.631,0.393
		c-3.729-3.062-7.839-5.413-9.28-10.337c-1.463-5.004-1.155-10.186-0.971-15.336c-0.605,1.809-1.143,3.617-1.054,5.584
		c0.014,0.305-0.568,0.622-0.717,0.279c-1.77-4.07-2.07-8.486-1.941-12.867c-1.277,2.944-2.052,6.072-3.052,9.125
		c-0.067,0.201-0.621,0.566-0.701,0.194c-0.865-4.06,0.278-8.4-0.933-12.383c-1.088-3.571-4.182-5.641-7.03-7.803
		c-4.975-3.776-10.863-6.687-14.993-11.479c-3.236-3.756-4.446-8.317-5.532-12.957c-0.572,1.655-0.907,3.392-1.032,5.155
		c-0.019,0.264-0.663,0.664-0.718,0.277c-0.819-5.856-1.421-12.198-4.227-17.513c-1.669-3.163-4.268-5.62-6.917-7.959
		c-1.003-0.886-3.431-2.046-3.87-3.363c-0.9-2.701,5.793-4.844,7.527-5.188c3.451-0.682,4.894,1.127,7.352,3.219
		c3.52,2.995,7.075,5.972,10.945,8.51c3.083,2.022,6.325,3.768,9.569,5.513c6.221,3.345,12.828,6.819,17.386,12.379
		c4.603,5.616,8.753,13.632,8.77,21.018c0.001,0.223-0.418,0.576-0.631,0.393c-1.207-1.041-2.196-2.264-3.137-3.531
		c3.347,6.869,7.106,13.905,7.969,21.481C215.719,111.849,212.552,120.742,212.522,129.875z"/>
	<path style="opacity:0.4;fill:#B26028;" d="M224.159,133.66c-1.61-1.854-1.507-5.907-1.672-8.144
		c-0.878-11.97,0.499-23.728,1.03-35.666c0.208-4.666-0.623-8.853-2.002-12.865c0.602,3.667,0.724,7.364,0.366,11.175
		c-0.623,6.633-1.94,13.18-2.407,19.833c-0.432,6.163-0.384,12.347,0.107,18.506c0.231,2.902,0.496,5.778,1.044,8.633
		c0.15,0.786-0.565,1.27-1.188,1.554c-1.575,0.717-3.131,0.375-4.799,0.126c-2.061-0.309-4.11-0.548-6.121-1.126
		c-4.201-1.207-8.689-3.284-11.2-7.045c-2.567-3.851-3.254-8.428-3.591-12.956c-0.376-5.083-0.271-10.568-2.285-15.35
		c-2.151-5.103-6.381-8.834-10.533-12.322c-3.836-3.224-7.754-6.274-11.715-9.34c-0.891-0.69-1.776-1.394-2.643-2.12
		c0.709,0.782,1.441,1.551,2.218,2.293c2.099,2.009,4.372,3.808,6.714,5.521c0.074,0.064,0.149,0.127,0.222,0.191
		c4.529,3.994,10.134,8.09,12.701,13.667c2.626,5.704,3.416,12.23,4.023,18.409c0.523,5.337,0.707,10.813,3.957,15.345
		c2.925,4.075,7.029,6.167,11.792,7.447c4.774,1.279,10.763,2.036,15.462,0.089C226.98,138.13,226.025,135.809,224.159,133.66z"/>
	<path style="opacity:0.4;fill:#B26028;" d="M170.013,36.638c6.334,4.619,12.945,8.872,20.15,11.874
		c-6.143-2.959-12.393-6.621-15.516-12.411c-1.751-3.245,0.599-5.059,3.718-6.026c-3.894,0.654-7.685,1.617-11.805,1.208
		c-2.847-0.282-5.252-1.451-7.942-2.232c-1.265-0.366-2.472,0.271-3.508,0.916c-0.624,0.388-1.167,0.865-1.674,1.379
		C159.043,29.159,165.061,33.026,170.013,36.638z"/>
	<path style="fill:#722808;" d="M226.097,135.645c-0.206-0.492-0.467-0.942-0.762-1.351c-0.142-0.212-0.301-0.402-0.454-0.601
		l-0.299-0.355l-0.015-0.024l-0.101-0.147c-1.03-1.452-1.172-3.327-1.323-5.211c-0.122-1.892-0.193-3.794-0.247-5.705l-0.192-5.729
		l0.164-5.697c0.058-3.795,0.369-7.614,0.546-11.424l0.296-5.726c0.085-1.889,0.257-3.846,0.159-5.749
		c0.049-1.899-0.305-3.848-0.595-5.752l-0.682-2.811c-0.245-0.93-0.598-1.826-0.891-2.741c-1.296-3.621-2.991-7.07-4.759-10.454
		l-8.511-16.146c-1.03-2.349-2.175-4.681-3.356-6.914c-1.252-2.367-2.24-4.851-3.914-6.903c3.029,5.006,5.524,10.271,7.788,15.651
		c0.124,0.241,0.246,0.48,0.37,0.722c0.043,0.084,0.176-0.02,0.146-0.095c-0.158-0.397-0.332-0.794-0.498-1.19l7.572,15.079
		c1.691,3.419,3.317,6.874,4.565,10.458c0.281,0.904,0.617,1.794,0.85,2.712l0.638,2.766c0.259,1.864,0.588,3.7,0.519,5.629
		c0.075,1.916-0.116,3.771-0.222,5.696l-0.359,5.712c-0.218,3.82-0.578,7.615-0.639,11.46l-0.188,5.753l0.171,5.727
		c0.05,1.906,0.112,3.819,0.231,5.74c0.051,0.964,0.168,1.939,0.34,2.913c0.142,0.494,0.199,0.962,0.427,1.475l0.319,0.753
		l0.396,0.599l0.1,0.148l0.025,0.037l0.064,0.085l0.058,0.064l0.219,0.265c0.139,0.182,0.284,0.357,0.406,0.543
		c0.266,0.367,0.482,0.753,0.643,1.14c0.336,0.79,0.288,1.54-0.276,2.083c-0.522,0.57-1.401,0.905-2.285,1.175
		c-0.855,0.342-1.78,0.454-2.682,0.646c-3.698,0.463-7.469-0.038-11.133-0.975c-1.805-0.473-3.604-1.057-5.283-1.861
		c-1.667-0.817-3.227-1.861-4.563-3.117l-0.962-0.972l-0.896-1.115c-0.29-0.317-0.498-0.764-0.752-1.138
		c-0.238-0.395-0.513-0.768-0.684-1.201c-0.864-1.638-1.329-3.465-1.726-5.289c-0.676-3.695-0.832-7.542-1.325-11.341
		c-0.458-3.807-1.079-7.619-2.307-11.309l-0.469-1.385l-0.554-1.321c-0.324-0.886-0.865-1.767-1.318-2.614
		c-0.492-0.842-1.095-1.611-1.663-2.399c-0.644-0.722-1.228-1.505-1.923-2.174c-2.685-2.788-5.703-5.142-8.581-7.644l-0.008-0.008
		l-0.016-0.012l-2.874-2.185c-0.967-0.716-1.844-1.568-2.77-2.345c-0.445-0.401-0.944-0.787-1.343-1.201l-1.281-1.275
		c-0.418-0.433-0.81-0.889-1.215-1.333c-0.413-0.438-0.788-0.91-1.163-1.38c-0.369-0.476-0.775-0.924-1.105-1.427l-1.037-1.478
		l-0.933-1.545c-0.33-0.505-0.569-1.059-0.851-1.592c-0.064-0.124-0.125-0.249-0.188-0.372c-0.792-1.834-1.283-3.732-1.712-5.822
		c-0.682-3.326-1.721-6.534-2.495-9.836c-1.2-5.119-4.029-8.798-8.049-11.995c-0.03-0.023-0.086,0.029-0.058,0.057
		c1.508,1.424,2.675,2.921,3.638,4.5c-1.179,0.844-2.101,1.893-2.258,3.413c-0.01,0.089,0.086,0.084,0.135,0.038
		c0.087-0.082,0.107-0.154,0.116-0.25c0.045,0.088,0.108-0.013,0.192-0.325c0.112-0.19,0.246-0.369,0.38-0.544
		c0.227-0.297,0.527-0.508,0.802-0.755c0.37-0.331,0.767-0.572,1.008-0.951c1.581,2.792,2.552,5.852,3.471,9.293
		c1.195,4.481,2.301,9.548,4.631,13.703c0.005,0.01,0.01,0.02,0.015,0.03c0.273,0.545,0.507,1.111,0.83,1.629l0.916,1.586
		l1.023,1.519c0.326,0.518,0.727,0.979,1.092,1.47c0.37,0.486,0.745,0.968,1.159,1.417c0.406,0.454,0.799,0.923,1.219,1.365
		l1.283,1.308c0.438,0.461,0.902,0.82,1.352,1.237c0.921,0.79,1.779,1.642,2.751,2.382l2.873,2.232
		c2.854,2.538,5.849,4.931,8.435,7.681c0.675,0.663,1.229,1.426,1.849,2.135c0.537,0.764,1.11,1.512,1.571,2.32
		c0.436,0.844,0.904,1.594,1.231,2.51l0.539,1.324l0.44,1.332c1.174,3.572,1.782,7.345,2.219,11.115
		c0.478,3.776,0.611,7.589,1.295,11.418c0.404,1.896,0.883,3.813,1.798,5.571c0.181,0.461,0.473,0.863,0.726,1.287
		c0.279,0.415,0.477,0.852,0.826,1.249l0.893,1.119c0.335,0.362,0.697,0.716,1.047,1.073c1.44,1.365,3.083,2.469,4.841,3.339
		c1.768,0.852,3.613,1.46,5.499,1.96c3.716,0.963,7.654,1.471,11.56,0.968c0.963-0.207,1.943-0.334,2.874-0.703l0.705-0.237
		l0.176-0.061c0.038-0.015,0.035-0.008,0.11-0.041l0.081-0.039l0.323-0.152c0.45-0.219,0.95-0.528,1.327-0.936
		c0.393-0.401,0.703-0.972,0.764-1.572C226.443,136.698,226.295,136.135,226.097,135.645z"/>
	<path style="fill:#722808;" d="M196.844,51.075c-2.182-0.576-4.244-1.38-6.235-2.32c0.687-0.197,1.371-0.568,1.823-0.861
		c1.366-0.887,2.757-2.252,2.747-3.984c0-0.042-0.067-0.011-0.069,0.019c-0.179,2.485-3.984,5.171-6.346,3.907
		c-0.007-0.004-0.017,0-0.025-0.002c-4.112-2.184-7.902-4.977-11.633-7.857c-4.983-3.847-10.497-8.812-16.908-9.923
		c-0.028-0.005-0.058,0.043-0.022,0.054c7.002,1.903,12.861,7.874,18.475,12.179c5.436,4.169,11.233,7.776,18.012,9.219
		C196.882,51.551,197.12,51.147,196.844,51.075z"/>
	<path style="opacity:0.4;fill:#D48042;" d="M231.653,48.391c-0.693-1.287-1.693-3.142-3.004-4.245
		c-0.178,0.201-0.27,0.472-0.188,0.719c0.432,1.28,1.002,2.429,1.539,3.582c-0.824-0.578-1.677-1.077-2.605-1.586
		c-2.503-1.375-5.579-2.053-8.505-2.378c3.377,1.287,6.514,3.434,9.132,5.765c1.518,1.354,2.931,2.766,4.325,4.222
		c0.03,0.009,0.06,0.02,0.091,0.027c0.204,0.052,0.412,0.033,0.618-0.029C232.929,52.345,232.643,50.228,231.653,48.391z"/>
	<path style="opacity:0.4;fill:#D48042;" d="M288.139,26.212c-4.193,1.122-7.328,4.617-10.287,7.602
		c-3.185,3.212-5.635,7.004-8.214,10.693c-6.098,1.875-12.393,2.503-18.786,1.941c-3.723-0.327-7.458-0.628-11.121-1.387
		c-2.482-0.514-4.738-2.065-7.169-2.729c2.425,2.243,5.473,4.034,8.263,5.566c1.268,0.697,2.575,1.308,3.905,1.853
		c2.812,0.688,5.742,0.985,8.584,1.212c3.839,0.307,8.546,0.084,12.617-1.296c-1.979,2.642-4.205,5.292-6.62,7.021
		c1.979-0.847,3.992-1.655,5.733-2.891c2.425-1.722,4.525-3.889,6.418-6.173c3.619-4.362,6.925-9,10.827-13.125
		c3.334-3.525,6.774-6.28,11.695-7.008c1.532-0.227,3.057-0.349,4.586-0.376C295.179,26.18,291.558,25.297,288.139,26.212z"/>
</g>
</svg>
