<svg xmlns="http://www.w3.org/2000/svg" width="780" height="540"><path d="M348 52c5.547 24.302 5.894 52.504-6 75l-2 3 1.838-1.003C458.896 65.193 458.896 65.193 514.511 80.7c20.771 6.254 37.942 16.843 54.403 30.804C571 113 572.49 113.585 575 114l1.5-2.25c4.458-4.904 9.12-6.968 15.75-7.312 5.507.181 9.599 2.086 14.535 4.382 5.577 2.047 11.323 2.084 17.215 2.18v3l-7 2 1.563 3.375c1.862 5.016 1.86 9.475.437 14.625-2.062 3.125-2.062 3.125-5 5-5.088.808-6.944.595-11.437-1.937-3.305-3.95-3.977-6.972-3.563-12.063 1.313-3.312 1.313-3.312 3-6l1.188-2.375L604 115c-4.155-2.014-7.402-2.555-12-2-4.985 2.437-7.048 4.834-9 10l2.272 2.209c31.416 30.615 57.23 61.642 58.029 107.943.03 2.929.026 5.857.011 8.786l-.006 2.36c-.234 53.243-11.693 108.876-29.954 158.827l-.961 2.651a686 686 0 0 1-4.782 12.82c-3.813 10.186-5.372 19.24-5.448 30.122-.095 6.651-1.96 11.902-6.473 16.782-8.17 4.56-18.046 5.012-27.04 2.602-2.6-.948-5.132-1.952-7.648-3.102-1.442-4.216-.934-6.835.875-10.75 2.127-4.067 4.588-6.707 7.938-9.812 3.924-4.206 5.004-7.594 4.937-13.25-.127-3.08-.41-6.125-.75-9.188l-.27-2.548C570.487 390.447 561.644 364.694 546 340l-.445 3.777c-1.498 11.731-3.972 22.32-8.555 33.223l-.879 2.096c-7.079 16.533-16.627 31.437-27.59 45.646l-1.332 1.734a100 100 0 0 1-3.105 3.72c-1.31 1.72-1.31 1.72-.797 3.62L504 436c.143 2.31.22 4.624.25 6.938l.078 3.652c-.42 4.356-1.994 6.773-4.703 10.098-6.206 5.012-14.75 3.683-22.187 2.937C474 459 474 459 472 457c-1.071-7.499 1.719-11.98 6-18l2.129-2.332c2.395-3.415 2.642-6.04 3.058-10.168.792-7.402.792-7.402 1.348-10.066 2.53-13.24-.367-27.6-6.535-39.434l-3.5.461c-2.836.364-5.641.613-8.496.761-5.986.484-10.485 1.04-14.567 5.713-1.882 3.183-3.321 6.531-4.681 9.966-.9 2.27-1.867 4.5-2.859 6.73a681 681 0 0 0-3.005 6.834c-2.957 6.84-6.378 13.313-10.08 19.785l-1.712 3.015c-4.931 8.592-10.09 17.045-15.358 25.434l-1.42 2.268c-1.15 1.769-2.399 3.473-3.662 5.162-2.066 3.573-2.093 6.019-2.098 10.121-.35 8.268-2.145 14.333-8.062 20.25-4.746 2.848-8.509 3.793-14.062 3.813l-3.38.05c-3.32-.394-4.719-1.012-7.058-3.363v-2l-2.437-.375L369 491c-1.607-3.215-1.403-5.43-1-9 3.45-6.478 10.433-14.717 17-18 .396-14.48-.096-28.765-1.312-43.187l-.18-2.222C382.6 398.564 382.6 398.564 375 381a61 61 0 0 0-7-2q-2.084-.549-4.164-1.113l-2.194-.587c-8.451-2.282-16.548-4.94-24.642-8.3-8.952 10.736-12.413 22.532-15 36l-.691 3.594c-1.323 8.509-1.589 17.055-1.714 25.655a524 524 0 0 1-.137 5.842c-.034 7.661.99 13.354 4.409 20.241 2.226 5.24 1.994 10.533.504 15.957-1.843 4.413-4.517 7.536-8.7 9.871-8.135 2.557-18.75 1.75-26.671-1.16-1.777-3.555-1.633-7.127-1-11 2.353-5.1 5.608-9.548 9-14-.643-1.058-1.286-2.117-1.95-3.207-15.598-26.067-28.598-53.905-35.528-83.577a363 363 0 0 0-1.604-6.478c-4.662-18.851-6.595-38.344-5.918-57.738l-1.8.656c-7.476 2.511-14.65 4.174-22.2 1.137-7.262-3.815-7.262-3.815-9.64-6.969-3.92-3.03-8.367-2.286-13.173-2.262-10.934-.186-19.528-2.018-29.476-6.621-3.15-1.093-5.72-1.212-9.05-1.25l-3.725-.076q-3.82-.051-7.641-.094c-12.876-.274-27.32-1.468-37.393-10.376-7.445-7.905-7.2-15.734-7.09-26.145l.002-3.484c.03-5.603.184-11 1.186-16.516l2 4 1.023-2.703 1.352-3.547 1.336-3.516c.995-2.496 2.033-4.863 3.289-7.234-3.813 3.287-5.23 6.397-7 11-1.377-4.13-.043-5.919 1.777-9.719 3.745-6.986 7.985-9.776 15.223-12.281a1176 1176 0 0 1 5.889-1.75c10.957-3.24 17.896-8.058 26.302-15.809 18.29-15.898 18.29-15.898 27.809-16.691l2 .25.746-2.062c1.492-3.495 3.352-6.696 5.316-9.938l1.184-1.965c3.981-6.536 8.31-12.806 12.754-19.035l-1.906-.078c-7.969-.528-13.91-2.224-19.406-8.234-4.307-5.097-5.985-11.151-7-17.625a571 571 0 0 0-3.176-17.797l-.814-4.208q-.606-3.149-1.23-6.294C177.633 82.5 176.443 73.437 176 64c4.05 1.243 7.555 2.723 11.203 4.871l2.945 1.724 3.102 1.843 3.215 1.899q3.237 1.916 6.468 3.84c2.757 1.639 5.523 3.26 8.294 4.878 13.991 8.245 26.356 16.898 31.328 33.097C243 118 243 118 243 120l1.906-.805c13.114-5.411 26.039-7.924 39.594-2.695a173 173 0 0 1 5.5 2.5l-.5-2.75c-1.685-12.713-.055-23.561 7.813-34.062A203 203 0 0 1 301 78c.514-.63 1.029-1.258 1.559-1.906C310.525 67.116 335.455 47.983 348 52" fill="#C57E5B"/><path d="m538.625 97.813 1.92 1.129c4.327 2.674 4.327 2.674 5.455 6.058 1.656.693 3.325 1.355 5 2a100 100 0 0 1 5 3.938c2.394 2 4.632 3.853 7.347 5.395 5.102 3.206 9.115 7.783 13.34 12.042l1.503 1.51C590.595 142.387 600.188 155.766 609 171l1.594 2.738c20.116 37.331 17.978 91.035 6.882 130.716C613.801 316.626 608.312 328.36 597 335c-6.795 2.265-14.666 2.075-21.187-.937-5.626-3.24-10.238-7.496-14.813-12.063l-2.312-2.277C552.163 312.915 547.443 305.249 543 297l-1.141-2.112c-5.162-9.751-9.018-19.732-12.297-30.263l-1-3.202c-3.372-11.322-4.832-22.53-5.04-34.308-.117-3.251-.294-5.698-1.87-8.58-3.033-2.818-6.462-2.882-10.468-2.808-6.43.805-11.019 4.44-14.934 9.41-7.625 11.366-6.725 27.732-4.273 40.644 1.171 5.451 2.547 10.843 4.023 16.219l.613 2.243c.83 3.004 1.69 5.996 2.59 8.98 1.67 5.82 2.01 11.187 2.047 17.214.03 1.25.03 1.25.063 2.526.04 6.29-1.095 10.472-5.313 15.35-3.548 2.993-7.21 3.115-11.672 3-5.597-.752-8.259-3.919-11.515-8.165-9.121-13.043-14.02-28.114-18.813-43.148-2.311-7.068-2.311-7.068-5-14-4.06-.561-4.06-.561-8 0-5.075 4.841-5.877 10.965-6.082 17.684-.072 5.01.122 9.92.574 14.91 2.287 26.577 3.084 63.461-14.68 85.586-4.103 4.12-8.072 7-14 7.445-4.446-.729-6.226-2.119-8.812-5.625-1.843-3.388-3.358-6.894-4.875-10.437q-1.322-2.985-2.648-5.965l-1.289-2.918c-6.683-15.073-14.489-27.393-26.383-38.832-11.29-11.464-24.472-27.755-25.18-44.473.097-5.993 1.869-10.533 5.375-15.375 2.784-2.669 5.834-4.809 9-7 15.083-11.3 27.007-25.825 30-45 1.21-13.346.627-26.28-2.977-39.184-4.102-15.297-5.814-33.93 1.602-48.441 13.505-22.9 41.463-32.623 65.88-39.339 33.081-8.464 62.043-8.946 92.12 8.776" fill="#EBC4A7"/><path d="M345 51c4.355 22.515 5.608 49.885-7 70-2.601 2.925-5.465 5.459-8.437 8-7.791 6.695-13.889 13.838-16.563 24l3.438-2.562c.728-.54 1.456-1.078 2.207-1.633a110 110 0 0 0 4.68-3.797c5.848-4.946 5.848-4.946 9.988-5.258 6.37 2.963 8.991 10.104 11.687 16.25 1.319 3.912 2.34 7.865 3.313 11.875l.798 3.027c4.21 16.948 4.21 16.948.595 23.412C348 196 348 196 344.356 196.464c-4.786-.245-8.73-1.932-13.043-3.901-6.46-2.87-11.708-4.708-18.875-4.688l-2.817-.008c-2.362.12-4.361.463-6.621 1.133l3.297.516c13.739 2.228 26.243 4.435 36.078 15.047 3.339 5.008 4.417 9.436 3.625 15.437-7.037 29.348-39.5 50.284-63.625 65.125l-2.15 1.324c-13.186 7.91-13.186 7.91-17.49 7.153L261 293l1-4-1.504 1.32q-2.129 1.866-4.266 3.723a219 219 0 0 0-4.18 3.758l-1.8 1.637-1.61 1.496C247 302 247 302 243 302c-1.055-10.027 3.064-20.16 8.75-28.375 3.486-4.068 6.028-3.874 11.25-4.437 6.274-.761 12.554-1.787 18-5.188l1-3-2.895.105c-11.911.25-22.02-.555-31.105-9.105-2.344-2.473-4.466-4.931-6-8l-3-1q.928 3.659 1.875 7.313l.527 2.091c.865 3.315 1.68 5.719 3.598 8.596 1.371 8.085-1.647 13.609-6.125 20.063-7.495 8.355-19.262 14.891-30.344 16.414-7.465.191-13.868-1.146-20.531-4.477v-2l13-4-4.375-1.875c-2.777-1.19-4.472-1.972-6.625-4.125-.18-2.316-.18-2.316-.09-5.207l.068-3.199.084-3.406c.156-13.446-1.012-24.424-8.062-36.188l-1.2-2.043c-4.52-6.803-11.307-11.192-17.8-15.957-1-1-1-1-1.125-3.937.946-5.996 6.05-9.936 10.125-14.063l2.023-2.242c8.304-8.982 18.7-12.495 30.692-13.844l2.21-.253c8.86-.945 17.735-1.117 26.637-1.286q2.558-.057 5.116-.117c4.107-.096 8.214-.177 12.322-.258l-23-3 2-2-1-3h-2l.063-2.937c.293-2.938.293-2.938-1.063-4.063-1.634 2.98-1.634 2.98-2 11h-21c.705-5.64 1.372-9.791 3-15l-2 1c1.388-3.89 3.215-6.966 5.625-10.312l1.914-2.676L213 146l-1.906-.078c-7.969-.528-13.91-2.224-19.406-8.234-4.307-5.097-5.985-11.151-7-17.625a571 571 0 0 0-3.176-17.797l-.814-4.208q-.606-3.149-1.23-6.294C177.633 82.5 176.443 73.437 176 64c4.05 1.243 7.555 2.723 11.203 4.871l2.945 1.724 3.102 1.843 3.215 1.899q3.237 1.916 6.468 3.84c2.757 1.639 5.523 3.26 8.294 4.878 13.991 8.245 26.356 16.898 31.328 33.097C243 118 243 118 243 120l1.906-.805c13.114-5.411 26.039-7.924 39.594-2.695a173 173 0 0 1 5.5 2.5l-.5-2.75c-1.685-12.713-.055-23.561 7.813-34.062A203 203 0 0 1 301 78c.514-.63 1.029-1.258 1.559-1.906C310.737 66.877 332.094 51 345 51" fill="#D8A182"/><path d="M568.914 111.504C571 113 572.49 113.585 575 114l1.5-2.25c4.458-4.904 9.12-6.968 15.75-7.312 5.507.181 9.599 2.086 14.535 4.382 5.577 2.047 11.323 2.084 17.215 2.18v3l-7 2 1.563 3.375c1.862 5.016 1.86 9.475.437 14.625-2.062 3.125-2.062 3.125-5 5-5.088.808-6.944.595-11.437-1.937-3.305-3.95-3.977-6.972-3.563-12.063 1.313-3.312 1.313-3.312 3-6l1.188-2.375L604 115c-4.155-2.014-7.402-2.555-12-2-3.897 1.905-6.454 3.932-8.437 7.813L583 123l1.426 1.355 1.886 1.832 1.864 1.793c1.987 2.2 3.314 4.472 4.824 7.02a391 391 0 0 0 4.688 6c13.738 17.623 23.885 37.937 29 59.688l.614 2.568c3.29 14.787 4.108 29.827 4.073 44.932v2.457c-.071 34.129-3.663 85.832-26.844 113.082-2.481 2.362-4.415 3.253-7.781 3.836-19.146-2.872-30.218-19.466-41.121-33.83a283 283 0 0 0-8.129-10.17c-21.467-26.2-30.407-52.945-32.767-86.53l-.206-2.693-.164-2.395c-.216-2.175-.216-2.175-2.363-3.945-2.99.157-4.677.772-7.125 2.5-2.647 3.53-3.66 7.3-4.875 11.5l-1 3c-1.196 19.504 3.283 34.405 11.759 51.865 5.216 10.784 9.255 22.64 5.436 34.67-5.079 9.09-15.124 12.737-24.605 15.547-7.16 1.831-12.304 1.804-18.809-1.887-12.37-8.301-15.263-25.053-18.047-38.707-2.025-9.622-3.887-18.14-10.734-25.488l-3 1c-.234 7.25.653 13.936 1.938 21.063C448.272 333.39 447.395 364.358 430 391c-2.791 3.57-5.771 6.823-9 10l-1.848 1.844c-5.02 4.665-10.031 6.839-16.84 7.531-3.776-.428-5.436-.888-8.312-3.375-3.357-5.036-4.445-9.841-5.437-15.75-3.076-18.044-12.578-32.877-25.254-45.738C361 343 361 343 361 341l-1.672-.676c-3.059-1.74-5.135-3.982-7.578-6.512-3.224-3.306-6.468-6.52-10-9.5-4.01-3.413-7.39-7.268-10.75-11.312.528 5.505 2.57 9.496 5.188 14.25l1.222 2.277a192 192 0 0 0 7.09 12.036c2.609 4.22 3.41 7.48 3.5 12.437-1 1-1 1-4.586 1.277-4.674-.067-7.979-1.52-12.039-3.714l-2.074-1.084c-9.998-5.323-19.71-10.94-27.301-19.479l-2.562-2.5c-11.432-11.724-11.432-11.724-12-20.812.187-6.284 2.557-10 6.562-14.688l1.43-1.727c7.49-8.188 17.605-14.296 26.754-20.445l3.309-2.227q3.24-2.173 6.499-4.323c6.873-4.597 13.003-9.6 19.008-15.278l2.02-1.843c8.308-7.63 13.194-17.688 16.98-28.157l.973-2.605c6.958-21.394-1.28-43.75-10.723-62.954a339 339 0 0 0-3.086-5.925c-2.507-5.418-3.365-11.859-1.48-17.598 2.27-4.929 5.233-8.367 9.316-11.918h2v-3c67.987-35.123 137.397-58.215 201.914-3.496m-181.965 7.68C380.806 126.563 376.262 135.268 376 145l-.152 2.68c-.22 6.91.457 13.563 1.464 20.382l.357 2.431c.717 4.538 1.69 8.9 2.905 13.331 1.623 6.348 1.965 12.393 1.926 18.926l-.017 3.438c-.403 19.053-8.152 35.073-21.828 48.342-3.585 3.184-7.567 5.854-11.497 8.59-5.756 4.09-8.88 8.047-11.158 14.88-1.446 12.705 4.62 24.696 12 34.715 6.199 7.715 12.933 15.123 19.867 22.187 10.82 11.415 17.438 26.278 23.429 40.594 3.241 9.016 3.241 9.016 9.704 15.504 6.202.762 9.813-.263 14.836-4.008C432.03 373.925 434.84 350.22 436 332c.463-12.162.323-24.268-.773-36.39-.832-9.56-.62-18.364 3.398-27.173C441 266 441 266 443.039 265.638c2.211-.012 2.211-.012 5.961.363a119 119 0 0 1 3.309 8.93c8.78 29.802 8.78 29.802 26.503 54.57 4.206 1.98 7.617 2.194 12.188 1.5 4.16-1.757 6.429-4.327 9-8 4.1-12.3.442-26.947-3-39q-.673-2.425-1.344-4.852a672 672 0 0 0-1.993-7.086c-2.152-7.508-2.869-14.514-2.913-22.312l-.062-2.7c-.059-10.066 2.24-18.654 9.312-26.05 4.653-3.877 8.907-5.294 14.996-5.227 2.892.327 4.743 1.446 7.004 3.227 1.28 2.561 1.188 4.889 1.29 7.71 1.366 37.528 16.309 75.163 43.71 101.165 7.682 6.667 13.815 8.795 24.043 8.45 5.889-.646 9.585-3.559 13.957-7.325 4.914-6.396 8.494-13.36 11-21l1.246-3.785c13.105-42.028 11.57-95.113-8.808-134.402-7.133-13.32-16.152-25.31-26.727-36.07-1.939-1.975-3.857-3.97-5.777-5.962q-2.121-2.174-4.246-4.344l-1.994-2.058c-3.984-4.01-7.713-6.724-12.694-9.379a131 131 0 0 1-4.812-3.75c-2.757-2.532-2.757-2.532-6.188-3.25l-1-3a104 104 0 0 0-7.5-4.75l-2.306-1.332c-42.761-24.138-114.061-13.132-148.245 23.266" fill="#D8A182"/><path d="m345 51 3 1c5.322 23.314 5.896 50.33-4.695 72.25-1.366 2.588-1.366 2.588-1.735 4.938-.805 2.56-2.37 3.392-4.57 4.812l1.215 1.52C353.009 155.212 360.512 180.64 362 205l.2 2.75c.56 13.61-5.96 23.311-14.855 33.065-8.423 8.981-17.418 16.92-27.345 24.185l-1.943 1.44C269.847 302 269.847 302 252 302l-.687 1.688c-2.269 3.996-4.932 6.852-9.313 8.312-8.721 1.164-14.87-.962-22-6l-1.64-2.176c-3.92-3.03-8.367-2.286-13.173-2.262-10.934-.186-19.528-2.018-29.476-6.621-3.15-1.093-5.72-1.212-9.05-1.25l-3.725-.076q-3.82-.051-7.641-.094c-12.876-.274-27.32-1.468-37.393-10.376-7.445-7.905-7.2-15.734-7.09-26.145l.002-3.484c.03-5.603.184-11 1.186-16.516l2 4 1.023-2.703 1.352-3.547 1.336-3.516c.995-2.496 2.033-4.863 3.289-7.234-3.813 3.287-5.23 6.397-7 11-1.377-4.13-.043-5.919 1.777-9.719 3.745-6.986 7.985-9.776 15.223-12.281a1176 1176 0 0 1 5.889-1.75c10.957-3.24 17.896-8.058 26.302-15.809 18.29-15.898 18.29-15.898 27.809-16.691l2 .25.758-2.082c1.438-3.38 3.21-6.477 5.117-9.606.509-.87.509-.87 1.027-1.76 1.965-3.23 3.465-5.29 7.098-6.552-1.022 5.426-2.526 10.68-4 16h21v-9l2-3 3 1-2 1v6h2l1-2v5h17v1l-10 1 2.957.367 3.856.508 3.832.492C251 178 251 178 254 180l-3.339.044C208.596 178.617 208.596 178.617 173 197l-2.078 1.965c-5.632 5.33-5.632 5.33-8.281 12.433.12 2.764.12 2.764 2.37 4.665l2.677 1.937 2.78 2.098L173 222c10.385 9.42 16.17 20.122 18 34 .165 5.45-.047 10.89-.254 16.338l-.066 3.252-.102 2.933c.194 2.595.194 2.595 2.208 4.24 2.947 1.646 5.952 2.421 9.214 3.237-2.53 3.151-4.768 3.588-8.687 4.188l-3.012.48L188 291v2c13.345 4.493 23.782 4.185 36.32-2.012 9.03-4.749 16.365-11.043 19.68-20.988.746-6.092-.333-10.286-3.043-15.715-1.554-3.712-1.703-7.29-1.957-11.285 1.887.332 1.887.332 4 1a742 742 0 0 1 4 6c4.629 5.04 9.44 7.315 16 9l1.785.54c3.293.684 6.615.83 9.965 1.022l2.113.131q2.569.158 5.137.307c-.242 1.867-.242 1.867-1 4-6.312 4.292-14.293 4.706-21.68 5.313-3.853.797-4.967 1.589-7.32 4.687-1.683 2.81-1.683 2.81-3.125 5.875l-1.508 3.055c-2.05 4.603-3.535 8.916-3.992 13.945l-.227 2.367L243 302c6.576-2.002 10.22-5.947 14.863-10.918C260 289 260 289 262 289v4c14.034-2.009 26.987-12.762 38-21l1.785-1.321c29.054-21.192 29.054-21.192 43.531-52.804.375-6.18-1.814-10.995-5.789-15.57C329.79 193.142 314.792 191.279 302 190c1-2 1-2 2.754-2.605 11.058-1.943 21.114 1.062 31.058 5.855 4.3 2.007 7.468 2.33 12.188 1.75 3.537-5.305 2.483-11.905 1.526-18.035a187 187 0 0 0-2.151-8.965l-.816-3.165C343.127 151.121 343.127 151.121 334 141c-6.385-.177-11.809 5.968-16.375 9.875C315 153 315 153 313 153c.577-10.972 9.366-19.069 17-26a434 434 0 0 1 3.813-3c7.994-6.793 11.014-18.927 12.187-29 .808-14.602.408-29.44-1-44" fill="#C88464"/><path d="m229.063 179.75 2.151-.003c24.46.023 57.21 1.862 75.532 19.98 5.967 6.495 6.78 12.943 6.625 21.609-1.023 10.1-6.307 18.562-13.371 25.664-8.965 7.214-16.55 8.938-28 8-10.193-1.926-18.995-6.304-26-14.062-2.007-2.948-3.1-5.501-4-8.938-1.915.122-1.915.122-4 1-2.84 3.79-3.336 6.398-3.152 11.078l.084 3.52q.129 3.63.273 7.257c.182 8.035-.256 14.9-5.946 21.017-5.434 5.016-10.382 6.693-17.759 6.495-4.16-.61-6.732-2.236-9.5-5.367-5.284-7.97-6.891-19.09-8.637-28.395-2.494-12.884-9.057-23.604-17.125-33.775-2.978-3.889-4.25-6.91-4.238-11.83 6.064-11.389 20.53-17.612 32.184-21.309 8.218-2.017 16.471-1.933 24.879-1.941" fill="#EBC4A7"/><path d="M261.543 118.773c13.303-.667 24.57 4.578 34.457 13.227 9.098 8.735 14.911 19.92 15.438 32.625-.206 6.592-2.162 11.212-6.938 15.75-6.713 4.364-12.555 4.345-20.5 3.625-3.828-1.023-7.399-2.354-11-4v-6h-2v-6h2v-2c-3.118.646-3.118.646-4 3-.157 4.167.017 7.944 1 12a198 198 0 0 1-11.969-1.969c-6.215-1.138-12.422-1.686-18.719-2.156l-3.318-.262Q231.998 176.3 228 176l2-2-1-3h-2l.063-2.937c.293-2.938.293-2.938-1.063-4.063-1.148 2.296-1.308 4.077-1.562 6.625l-.254 2.477L224 175c-2.125.054-4.25.093-6.375.125l-3.586.07C211 175 211 175 209 173c-1.505-12.037 7.235-23.573 14.027-32.734 8.199-9.833 20.382-17.708 32.786-21.016a543 543 0 0 0 5.73-.477" fill="#EBC4A7"/><path d="M279 338c12.65 3.554 20.552 13.15 27 24 11.71 22.958 6.114 54.625-.719 78.34-1.146 3.273-2.195 5.898-4.281 8.66-3.774 1.118-5.935 1.497-9.542-.188-2.803-2.066-3.851-3.71-5.403-6.808l-1.56-3.092c-.535-1.105-1.07-2.21-1.62-3.35l-1.698-3.462c-4.128-8.573-7.893-17.268-11.427-26.1l-1.41-3.482c-2.567-6.612-3.947-12.46-4.34-19.518a840 840 0 0 0-1.062-7c-1.523-11.369-3.135-24.42 2.062-35 4.284-3.998 8.423-3.724 14-3" fill="#D59B79"/><path d="M141.813 217.813c3.179 2.181 5.6 4.334 8.187 7.187l1.36 1.348C160.355 235.804 165.141 248.5 168 261l.586 2.492c.5 3.03.584 5.938.601 9.008l.043 3.344c-.235 3.221-.64 5.348-2.23 8.156-1.883 1.074-1.883 1.074-4.125 1.688l-2.453.687L158 287l-1.984.625c-9.87 2.936-20.132 1.998-29.243-2.797-3.825-2.32-7.351-4.941-10.773-7.828l6 8c-5.264-2.632-8.02-5.507-10.137-10.895-1.472-5.58-1.111-11.38-1.05-17.105l.001-3.484c.03-5.603.184-11 1.186-16.516l2 4 1.023-2.703 1.352-3.547 1.336-3.516c.995-2.496 2.033-4.863 3.289-7.234-3.813 3.287-5.23 6.397-7 11-1.376-4.129-.04-5.912 1.766-9.715 6.104-11.3 14.88-13.422 26.046-7.472" fill="#F27777"/><path d="M176 64c4.05 1.243 7.555 2.723 11.203 4.871l2.945 1.724 3.102 1.843 3.215 1.899q3.237 1.915 6.468 3.84c2.757 1.639 5.523 3.26 8.294 4.878C223.95 90.553 237.393 99.069 242 114c.647 5.134.647 5.134 0 8-2.017 2.316-3.584 3.796-6 5.563l-3.605 2.847q-1.697 1.297-3.395 2.59c-8.733 6.914-14.999 15.258-19.797 25.32C208 160 208 160 205.86 160.742L204 161c1.388-3.89 3.215-6.966 5.625-10.312l1.914-2.676L213 146l-1.906-.078c-7.969-.528-13.91-2.224-19.406-8.234-4.307-5.097-5.985-11.151-7-17.625a571 571 0 0 0-3.176-17.797l-.814-4.208q-.606-3.149-1.23-6.294C177.633 82.5 176.443 73.437 176 64" fill="#C88464"/><path d="M336 64a603 603 0 0 1 2.438 5.125l1.37 2.883c3.661 9.193 3.894 21.763.153 30.96L339 105l-.96 2.156C332.1 119.117 319.755 131.276 307 136c-2.094-.11-2.094-.11-4-1-6.97-9.482-10.517-23.42-9-35 2.624-11.347 11.436-22.53 21-29 12.797-7.512 12.797-7.512 21-7" fill="#E46560"/><path d="M268 353c7.475.311 11.888 3.623 16.887 9.047 11.195 13.696 14.287 28.763 14.3 46.015l.038 2.565c.018 8.153-1.763 14.998-5.225 22.373-1 1-1 1-3.312 1.375C288 434 288 434 286.105 432.02 272.646 412.717 261.533 380.735 265 357c1.527-2.406 1.527-2.406 3-4" fill="#DFAE8D"/><path d="M524 369c2.376 3.565 2.607 5.888 2 10-4.736 16.718-15.58 36.058-30.687 45.5-5.092 2.305-5.092 2.305-8.313 1.5-1.875-2.062-1.875-2.062-3-5 .313-2.937.313-2.937.668-4.719 1.158-7.955.598-16.367-.668-24.281h2l.25-3.062c1.065-7.06 4.976-11.918 10.348-16.36 7.524-4.943 19.147-8.703 27.402-3.578" fill="#D59B79"/><path d="M138.938 220.375C149.35 227.198 156.892 237.301 161 249c.363 4.455.502 6.247-2 10-3.5-.261-4.712-.67-7.062-3.363l-1.938-2.95c-3.041-4.592-5.996-8.185-11-10.687l1.5 3.563c1.468 3.975 2.064 7.168 1.5 11.437-2 2.938-2 2.938-4 5-4.018-.187-5.64-.65-8.562-3.5-1.928-2.548-3.394-5.237-4.875-8.062-2.259-4.258-4.672-6.633-8.563-9.438l.984 2.055c1.207 3.498 1.282 6.375 1.266 10.07l.016 3.695C118 260 118 260 116 263h-3l-1 7h-1c-.03-4.187-.047-8.375-.062-12.562l-.026-3.58c-.016-5.727.037-11.222 1.088-16.858l2 4 1.023-2.703 1.352-3.547 1.336-3.516c.995-2.496 2.033-4.863 3.289-7.234-3.813 3.287-5.23 6.397-7 11-1.389-4.166.073-6.015 1.895-9.844 1.709-3.334 3.015-5.483 6.23-7.469 6.162-1.473 11.286-.318 16.813 2.688" fill="#F69696"/><path d="M176 64c4.05 1.243 7.555 2.723 11.203 4.871l2.946 1.725 3.101 1.841 3.202 1.889A2847 2847 0 0 1 206 80l2.813 1.67q3.725 2.216 7.437 4.455l2.216 1.322C223.86 90.732 228.27 94.132 231 100c.313 3.688.313 3.688 0 7-2 2-2 2-4.937 2.125-9.161-1.681-16.652-10.435-23.206-16.61C196.571 86.6 189.936 81.142 183 76l1.475 2.125c1.727 3.255 1.906 5.224 1.931 8.883l.067 3.492.027 3.625c.095 12.414.668 23.438 9.5 32.875 2.635 2.372 5.228 4.14 8.25 6 2.75 2 2.75 2 3.688 4.188L208 139c-1 1-1 1-4.062 1.5-5.703-.724-8.428-3.017-11.938-7.5-2.754-4.8-4.896-9.89-7-15h-1l-.516-3.672c-1.287-8.964-2.735-17.841-4.609-26.703-1.66-7.893-2.608-15.548-2.875-23.625" fill="#D8A183"/><path d="M330 79c5.04 3.248 6.256 7.71 7.555 13.3 1.21 7.335-1.513 13.667-5.555 19.7-2.455 2.414-5.054 4.232-8 6l-3 1.875c-4.056 1.521-6.677 1.621-11 1.125-2.952-2.762-3.87-5.712-4.273-9.715-.305-9.677 1.705-18.005 7.71-25.785 5.429-5.296 9.02-7.578 16.563-6.5" fill="#EC837F"/><path d="m344 129 .227 1.766c1.212 7.562 4.183 13.527 7.773 20.234 12.042 22.571 18.378 46.165 11.293 71.531-2.597 7.495-7.37 13.346-12.293 19.469l-1.414 1.848c-2.718 3.466-5.853 6.295-9.2 9.129a231 231 0 0 0-5.054 4.421C318.742 272.165 299.202 283.043 280 294a4185 4185 0 0 0-8.193 4.693q-2.413 1.385-4.833 2.757c-3.136 1.797-5.917 3.502-8.693 5.84-2.64 1.979-3.851 2.154-7.094 1.96l-2.394-.11L247 309c2.442-5.087 4.747-7.193 10.109-9.129l2.016-.683C288.096 289.31 315.559 269.525 338 249l1.617-1.463c9.872-9.034 20.17-20.163 21.649-34.03-.19-28.797-8.99-56.744-25.266-80.507 5.75-4 5.75-4 8-4" fill="#A34928"/><path d="M601 437c.109 3.001.188 5.998.25 9l.102 2.543c.091 5.907-.782 10.62-4.352 15.457-7.306 5.873-16.057 5.726-25 5-3.83-1.019-7.399-2.354-11-4-1.442-4.216-.934-6.835.875-10.75 3.144-5.86 7.504-10.518 12.125-15.25l2.875 1c6.437 1.794 12.586 2.091 18.625-1l1.906-1.125C599 437 599 437 601 437" fill="#98888B"/><path d="M138.313 211.438c4.799.732 5.849 2.461 8.742 6.171 2.11 2.595 4.426 4.748 6.882 7.016 9.716 9.67 14.3 21.457 18.063 34.375l5 1c3.08-4.621 2.485-9.225 1.547-14.59-.476-2.15-.984-4.282-1.547-6.41 5.386 4.476 6.682 12.709 7.324 19.36.16 10.324-.5 20.44-7.324 28.64-7.23 7.123-13.496 6.248-23.19 6.251-8.309-.078-15.861-.647-23.81-3.251l-2.367-.773c-5.906-2.43-9.108-7.071-12.633-12.227l1-2 1.25 1.39c7.522 7.993 16.016 11.51 26.938 11.985 6.664-.102 12.563-2.24 18.812-4.375a123 123 0 0 1 4-1c4.516-15.42-1.72-31.975-8.965-45.48-2.012-3.582-4.262-6.89-6.906-10.04C150 226 150 226 149 223c-1.715-1.027-1.715-1.027-4-2l-3.187-2c-4.05-2.359-8.233-3.21-12.813-4 2.919-2.919 5.291-2.88 9.313-3.562" fill="#D56261"/><path d="M387 464c1.02 1.238 1.02 1.238 2.063 2.5 3.554 3.025 5.178 2.978 9.656 2.773 2.462-.295 4.857-.752 7.281-1.273.624 8.854.207 15.596-5 23-4.892 4.892-9.738 6.289-16.562 6.313l-3.38.05c-3.32-.394-4.719-1.012-7.058-3.363v-2l-2.437-.375L369 491c-1.607-3.215-1.403-5.43-1-9 3.123-5.865 11.922-18 19-18m-68-11c4.27 3.701 5.69 6.941 6.258 12.55.262 6.32-.267 11.381-4.258 16.45-3.482 3.757-6.719 4.875-11.797 5.371-6.87.215-13.7.018-20.203-2.371-1.778-3.555-1.632-7.126-1-11 2.093-4.596 4.841-9.974 9-13 2.707-.187 2.707-.187 5.813 0 4.903.112 8.09-.03 12.187-3 2.343-2.551 2.343-2.551 4-5m184-19c1.462 2.925 1.21 5.557 1.25 8.813l.078 3.707c-.415 4.404-1.967 6.81-4.703 10.168-6.206 5.012-14.75 3.683-22.187 2.937C474 459 474 459 472 457c-1.075-7.525 1.739-11.94 6-18 1.291-1.7 2.602-3.387 4-5l1.563.438c6.696 1.666 6.696 1.666 13.187.062C500 433 500 433 503 434" fill="#98888B"/><path d="M505 378c4.192 6.547 3.476 12.621 2 20-2.735 8.392-7.267 16.36-15 21-2.05.793-2.05.793-4 1l-3-2 1-6h1l.12-2.184c.192-3.294.41-6.586.63-9.878l.188-3.436c.46-6.58 1.127-11.139 5.062-16.502 3.987-3.448 7.009-3.571 12-2" fill="#DFAE8D"/><path d="M336 64a603 603 0 0 1 2.438 5.125l1.37 2.883c3.661 9.193 3.894 21.763.153 30.96L339 105l-.96 2.156C332.1 119.117 319.755 131.276 307 136c-2.094-.11-2.094-.11-4-1-6.97-9.482-10.517-23.42-9-35 2.624-11.347 11.436-22.53 21-29 12.797-7.512 12.797-7.512 21-7m-13.75 7.5-1.865 1.094c-10.393 6.267-18.364 14.012-21.873 25.879-2.514 12.414.664 24.96 7.488 35.527 7.015-4.321 13.01-9.358 19-15l2.75-2.5c7.329-8.143 10.642-15.7 10.625-26.625l.004-2.529c-.12-7.06-1.481-12.865-4.379-19.346-4.7-.495-7.822 1.167-11.75 3.5" fill="#C88363"/><path d="M539.256 100.128c2.196 1.098 4.446 2.01 6.744 2.872v2l2.184.758C561.127 111.467 573.672 126.222 581 138l1.746 2.66L584 143l-1 2q-3.008-3.18-6-6.375l-1.734-1.828-1.641-1.758-1.523-1.619C571 132 571 132 571 130c-.594-.26-1.189-.52-1.8-.79-2.352-1.294-3.612-2.586-5.388-4.585C548.216 108.77 527.357 99.187 506 94l-2.953-.742C487.57 90.03 471.257 91.462 456 95q-2.999.604-6 1.187-2 .404-4 .813c2.774-2.774 6.007-3.389 9.687-4.438l2.317-.66c29.046-8.12 54.437-5.568 81.252 8.226" fill="#F4DFCF"/><path d="m142 210 2 1 2.434.91c12.873 4.939 24.57 12.813 30.441 25.778L178 241l1.188 3.375c1.174 5.24 2.113 10.403-.688 15.188L177 261c-2.312-.125-2.312-.125-5-1-2.242-3.362-3.252-6.837-4.312-10.687-4.126-14.112-13.67-23.578-24.036-33.5C142 214 142 214 142 212l-3-1z" fill="#E17E7E"/><path d="M600.887 106.09q2.952 1.359 5.898 2.73c5.577 2.047 11.323 2.084 17.215 2.18v3l-7 2 1.563 3.375c1.862 5.016 1.86 9.475.437 14.625-2.062 3.125-2.062 3.125-5 5-3.784.766-6.969.49-10.5-1.187-1.5-1.813-1.5-1.813-1.75-4.5L602 131h3l-.187-3.25c.192-3.859.584-5.038 3.187-7.75l-1-2v-4c-5.665-2.956-10.616-3.959-17-3-4.006 2.04-6.572 4.223-9 8l-4-1-1-6c7.558-6.447 15.143-9.589 24.887-5.91" fill="#D8A384"/><path d="m188 84 1.52 1.141c3.278 2.461 6.559 4.92 9.859 7.351C212.209 102.096 219.725 111.06 223 127c.188 3.688.188 3.688 0 6-5.778.236-10.513-.132-16-2l1.938-.937c1.998-.898 1.998-.898 3.062-2.063 1.524-9.375-2.365-15.715-7.523-23.215-3.01-3.908-3.01-3.908-7.665-5.465L194 99q-.04 3.53-.062 7.063l-.036 3.972c.093 3.781.484 7.244 1.098 10.965-2.389-2.142-3.57-3.916-4.625-6.937l-.727-2.028c-1.23-3.86-1.77-7.167-1.746-11.238l.01-2.969.025-3.078.014-3.125q.018-3.812.049-7.625" fill="#E36560"/><path d="M196.563 97.875c6.9 2.258 11.007 8.922 14.437 15.063 2.283 4.91 2.979 9.705 2 15.062-2 2-2 2-4.625 2.438-5.38-.698-9.574-3.637-13.375-7.438-2.405-7.881-2.449-15.82-2-24 1-1 1-1 3.563-1.125" fill="#EC837F"/><path d="M385 464h2c1.02 1.238 1.02 1.238 2.063 2.5 3.554 3.025 5.178 2.978 9.656 2.773 2.462-.295 4.857-.752 7.281-1.273.624 8.854.207 15.596-5 23-4.892 4.892-9.738 6.289-16.562 6.313l-3.38.05c-3.32-.394-4.719-1.012-7.058-3.363v-2l-5-1-1-7 3-2 2 3c3.595-3.329 6.224-6.99 9-11l1 2-.93 1.766c-1.346 2.81-1.269 4.885-1.195 7.984l.055 2.984L381 491c6.686.507 6.686.507 12.938-1.5 3.97-4.813 5.296-10.373 6.062-16.5l-2.625.25c-4.248-.315-6.107-1.563-9.375-4.25-1.875-2.75-1.875-2.75-3-5" fill="#7E6D70"/><path d="M183 70c10.258 3.38 19.333 7.57 28.625 13.063l2.696 1.571 2.53 1.526 2.276 1.364C221.241 89.19 221.952 90.55 223 93l1.688 2.5c1.312 2.5 1.312 2.5 1 4.813L225 102c-4.976-.495-8.47-2.143-12.562-4.875l-1.83-1.201C200.684 89.253 190.758 81.119 183 72z" fill="#EBC4A7"/><path d="M319 453c4.27 3.701 5.69 6.941 6.258 12.55.262 6.32-.267 11.381-4.258 16.45-3.482 3.757-6.719 4.875-11.797 5.371-6.87.215-13.7.018-20.203-2.371-1.478-2.957-1.06-5.742-1-9l3 4 6-11 1 3-1 2a78 78 0 0 0-.062 4.625l.027 2.477L297 483c9.522.675 9.522.675 18-3 3.85-3.95 4.237-7.055 4.25-12.375-.064-1.876-.14-3.751-.25-5.625-2.658.456-4.97.987-7.457 2.05-2.903 1.084-5.142 1.184-8.23 1.137l-2.887-.019C298 465 298 465 296 464l1-3 2.414.105c8.258.319 8.258.319 15.586-3.105 2.343-2.551 2.343-2.551 4-5" fill="#806F72"/><path d="M503 434c1.462 2.925 1.21 5.557 1.25 8.813l.078 3.707c-.415 4.404-1.967 6.81-4.703 10.168-6.206 5.012-14.75 3.683-22.187 2.937C474 459 474 459 472 457c-.125-3.125-.125-3.125 0-6l1.375 1.5c1.501 1.726 1.501 1.726 3.625 1.5l4-9c1.47 2.938 1 5.754 1 9 1.202 1.413 1.202 1.413 4.688 1.375 3.774-.081 6.28-.93 9.125-3.598 2.346-3.512 2.723-7.653 3.187-11.777l-2.703-.113-3.547-.2-3.516-.175c-3.352-.53-4.858-1.13-7.234-3.512v-2l1.563.438c6.696 1.666 6.696 1.666 13.187.062C500 433 500 433 503 434" fill="#7E6D6F"/><path d="M598 163c6.351 4.796 10.071 10.12 14 17l1.633 2.781c6.135 11.223 9.533 25.263 9.465 38.055l-.01 3.223-.025 3.316-.014 3.387A2531 2531 0 0 1 623 239l-2-1c-.53-2.538-.53-2.538-.93-5.914l-.463-3.723-.237-1.974c-2.611-21.46-7.5-41.654-20.22-59.563C598 165 598 165 598 163" fill="#F4DDCD"/><path d="M601 437c.109 3.001.188 5.998.25 9l.102 2.543c.092 5.945-.839 10.556-4.352 15.457-4.434 3.878-8.494 4.411-14.277 4.14L581 468c2.113-2.28 3.58-3.306 6.438-4.812 3.772-2.134 5.702-4.171 7.562-8.188.307-3.363.24-6.634 0-10l-3.578.105q-2.336.043-4.672.082l-2.355.077c-3.501.045-5.794.048-8.942-1.588C574 442 574 442 574 439l2.875 1c6.437 1.794 12.586 2.091 18.625-1l1.906-1.125C599 437 599 437 601 437" fill="#7C6B6E"/><path d="M343 56c1.776 7.295 2.255 14.134 2.125 21.625l-.027 3.043A974 974 0 0 1 345 88h-1l-.262-2.93C342.585 73.25 342.585 73.25 337 63c-5.212-1.978-8.977.203-13.8 2.352C314.682 69.74 307.874 75.46 302 83l-1-2c5.117-9.327 13.332-16.626 23.625-19.812 3.89-1.369 7.32-3.249 10.91-5.262 2.954-1.11 4.453-.642 7.465.074" fill="#EAC1A5"/><path d="M357 310c4.63 1.457 7.772 4.112 11.25 7.375.57.535 1.141 1.07 1.73 1.62 12.083 11.594 26.5 31.861 27.145 49.407L397 371c-2.627-2.627-3.322-5.204-4.625-8.687-6.388-16.435-15.314-30.039-27.29-43.043-2.777-3.023-5.43-6.139-8.085-9.27" fill="#F4DECE"/><path d="M604.563 111.625c2.892 1.651 3.343 2.136 4.625 5.375-.22 3.507-1.066 4.307-3.188 7-.725 3.653-.725 3.653-1 7h-3l-1 4c-2.599-4.442-2.249-8.11-1-13 2.063-2.937 2.063-2.937 4-5v-2c-4.155-2.014-7.402-2.555-12-2-5.627 2.643-8.324 6.542-11 12-2 0-2 0-3.36-1.355-1.4-1.847-2.633-3.554-3.64-5.645.688-2.937.688-2.937 2-5h1l1 5h3c1.244-1.467 2.485-2.94 3.621-4.492 5.031-5.502 13.635-4.61 19.942-1.883" fill="#BE7452"/><path d="M600.727 105.918c2.286 1.088 3.629 2.178 5.273 4.082l-1 3-1.875-1c-5.789-1.852-11.103-2.03-16.562.75-2.241 1.968-3.956 3.75-5.563 6.25l-4-1-1-6c7.452-6.356 15.053-9.339 24.727-6.082" fill="#D8A284"/><path d="m603 107 2.625 1.438c5.76 2.528 12.183 2.313 18.375 2.562v3l-7 2 1.563 3.375c1.848 4.924 1.799 9.557.437 14.625-1.555 2.297-1.555 2.297-3 4l-4-1 1.438-1.5c2.648-4.237 2.526-8.715 2.625-13.562-1.921-5.31-6.81-8.362-11.325-11.52L603 109z" fill="#F0D6C5"/><path d="M260 121c-3.071 1.611-6.196 2.836-9.437 4.063C234.65 131.657 224.495 142.327 216 157c-.967-2.552-1.14-3.655-.102-6.227C225.351 135.42 240.64 119.963 260 121" fill="#F2DBCA"/><path d="m115 275 2.938 2.688c8.738 7.452 17.596 10.758 29.03 10.582 5.472-.487 10.736-1.856 16.032-3.27-5.311 5.602-12.265 6.085-19.709 6.293-7.292.068-14.125.052-20.291-4.293-8-8.131-8-8.131-8-12" fill="#CE4A47"/><path d="m571 450 1 2-1 2c-.32 4.032-.32 4.032 0 8 2.466 2.74 5.567 3.76 9 5v2c-7.115.537-12.45-1.303-19-4l-1-6 3-1 3 3 .813-2.687c1.104-3.082 2.415-5.575 4.187-8.313" fill="#807072"/><path d="M119 247c4.969 4.969 7.118 9.256 7.313 16.313C126 267 126 267 124 270l-5-1z" fill="#D13535"/><path d="M242 284c0 4.732-3 7.51-6 11-4.234 4.151-7.73 6.924-13.75 7.125L219 302l-1-3 1.766-.559C228.25 295.44 235.634 290.366 242 284" fill="#CE3E4B"/><path d="M202 186c-2.346 1.564-4.337 2.624-6.875 3.75-4.766 2.335-7.727 5.454-10.125 10.25a242 242 0 0 0-.062 8.625l.013 2.43q.02 2.972.049 5.945c-2-1-2-1-3.102-3.191-1.941-6.07-1.981-12.562.79-18.309 5.212-5.636 11.244-10.233 19.312-9.5" fill="#F3DCCB"/><path d="M143 248c4.344 3.991 7.758 7.49 8.18 13.605.007 2.473-.048 4.926-.18 7.395a88 88 0 0 1-5 1c-2.08-2.08-1.372-6.429-1.5-9.312a958 958 0 0 0-.219-4.614L144.19 254c-.197-2.08-.633-3.988-1.189-5.999" fill="#CF3232"/><path d="m595.25 109.875 2.703.055L600 110v2l-2.012.297c-5.316.9-9.208 1.59-12.988 5.703-1.488 2.284-2.74 4.574-4 7-2 0-2 0-3.36-1.355-1.4-1.847-2.633-3.554-3.64-5.645.688-2.937.688-2.937 2-5h1l1 5h3c1.244-1.467 2.485-2.94 3.621-4.492 3.106-3.396 6.177-3.75 10.629-3.633" fill="#BB6D4A"/><path d="m268 178 1-2 1 5a198 198 0 0 1-11.969-1.969c-6.215-1.138-12.422-1.686-18.719-2.156l-3.318-.262Q231.998 176.3 228 176v-1c28.67-2.665 28.67-2.665 40 3" fill="#E4BEA8"/><path d="m226 163 3 1-2 1v6h2l1-2v5h17v1l-10 1v1h-19v-1l7-1-1-2c-.353-6.47-.353-6.47 2-10" fill="#D39674"/><path d="M270.063 143.813c3.596 1.454 4.994 2.845 6.937 6.187-.25 2.313-.25 2.313-1 4l-1.687-1.5c-2.831-1.836-3.994-2.053-7.313-1.5-3.273 1.904-3.273 1.904-6 4 .484-5.484 3.085-10.822 9.063-11.187" fill="#D3926C"/><path d="M608 120c3.875 1.75 3.875 1.75 5 4 .188 3.5.188 3.5 0 7l-2 2c-2.562-.25-2.562-.25-5-1-1.405-2.81-1.249-4.888-1-8 1.5-2.375 1.5-2.375 3-4" fill="#FCF9F7"/><path d="M228.063 145.313c2.937.687 2.937.687 5.375 3.5C235 152 235 152 234 155l-3-2c-5.025-.465-7.906.022-12 3 .298-3.477 1.012-5.015 3.188-7.812C225 146 225 146 228.063 145.313" fill="#D2926B"/><path d="m121 223 2 1-.988 1.434c-4.47 6.763-6.978 13.502-8.012 21.566h-1c-1.698-7.98-.787-12.77 3.36-19.785C118 225 118 225 121 223" fill="#FDCECE"/><path d="M345 51v7h-2l-1-2c-4.695.548-8.104 1.885-12.25 4.125A91 91 0 0 1 324 63l-2-1c17.426-11 17.426-11 23-11" fill="#DBA98C"/><path d="M246 177c8.294.233 14.863.575 22 5v1c-7.362-.486-14.691-.977-22-2v-1l5-1-5-1z" fill="#D29777"/><path d="M238 292c0 4.61-2.744 6.734-5.766 10.023-2.132 1.886-3.291 2.72-6.047 3.227-3.187-.25-3.187-.25-5.125-1.687L220 302l3.625-.75c6.002-1.506 10.199-4.753 14.375-9.25" fill="#E75969"/><path d="M189 73c8.442 2.311 13.81 4.66 20 11 1.967 1.71 3.978 3.354 6 5-3.963 0-5.988-1.88-9.062-4.125-4.936-3.525-9.938-6.766-15.208-9.781L189 74z" fill="#F0D5C2"/><path d="m606 118 3 2-1.437 1.563c-1.991 3.105-2.214 5.803-2.563 9.437h-3l-1 4c-1.866-3.731-.154-8.15 1-12 2.125-3.125 2.125-3.125 4-5" fill="#CA8969"/><path d="M611 111h13v3l-9 3c-4-4.875-4-4.875-4-6" fill="#D29779"/><path d="M270 166h3v2h-2v6h2l-1 6h-3c-1.18-3.688-1.21-7.151-1-11z" fill="#CE8860"/><path d="m567 446 4 1a5535 5535 0 0 1-4.492 7.52A156 156 0 0 1 563 460l-2-1c.483-5.155 3.186-8.816 6-13" fill="#AD9EA1"/><path d="M242 177q2.157.174 4.313.375l2.425.21C251 178 251 178 254 180h-32v-1l20-1z" fill="#CC8C6B"/><path d="M256 176q2.438.212 4.875.438c.905.08 1.81.162 2.742.246C266 177 266 177 268 178l1-2 1 5c-3.47-.458-6.674-.891-10-2v-2z" fill="#DFB197"/><path d="M235 131c-.125 1.813-.125 1.813-1 4a100 100 0 0 1-6 3 115 115 0 0 0-5 4c1.439-3.387 3.221-5.36 6-7.75l2.125-1.86C233 131 233 131 235 131" fill="#EED4C3"/><path d="M204 80c4.043 1.485 7.611 3.429 11.313 5.625l3.238 1.914L221 89l-2 2a924 924 0 0 1-5.25-3.25l-2.953-1.828c-2.594-1.783-4.66-3.623-6.797-5.922" fill="#E0B398"/><path d="M211 149c.783 2.29 1.149 3.559.363 5.887-2.861 4.904-2.861 4.904-5.613 6.05L204 161c1.557-4.671 4.084-8.087 7-12" fill="#CB8B6C"/><path d="M603 107c9.094 4.061 9.094 4.061 11 8l-1 3-2.187-2.25c-2.72-2.763-2.72-2.763-5.625-4.937L603 109z" fill="#E7C0A6"/><path d="m383 465 2 1a1683 1683 0 0 1-3.312 4.313l-1.864 2.425A53 53 0 0 1 375 478c.112-4.609 1.385-6.73 4.563-9.875 1.134-1.054 2.276-2.1 3.437-3.125" fill="#B6A7AA"/><path d="M294 467c0 3 0 3-2 6a75 75 0 0 0-1 5h-2c-1.282-3.03-.986-4.036.25-7.187C291 468 291 468 294 467" fill="#BBADB0"/><path d="m478 439 3 1-5 11c-.97-3.881-1.044-5.3 0-9z" fill="#C0B2B4"/><path d="M601 120h2l-2 13c-2-2-2-2-2.012-4.094l.324-2.406.301-2.406C600 122 600 122 601 120" fill="#C27C5B"/><path d="M164 285v3c-4.23 2.417-7.123 3.348-12 3 2.565-1.71 4.88-2.904 7.688-4.125l2.449-1.07z" fill="#EF7574"/><path d="m616 130 3 1c-.75 4.75-.75 4.75-3 7-2.125-.375-2.125-.375-4-1l1.438-1.812c1.727-2.192 1.727-2.192 2.562-5.188" fill="#E7BEA4"/><path d="M262 380h2c1.292 4.12 2.263 7.668 2 12-2.505-2.505-3.051-4.61-4-8z" fill="#BE7350"/><path d="M270 166h3v2h-2v5l-3 1c.875-6.875.875-6.875 2-8" fill="#D3936D"/><path d="M271 168h3v8l-1-2h-2z" fill="#EACBB9"/><path d="m226 163 3 1-2 1v5h-3c.875-5.875.875-5.875 2-7" fill="#D49570"/></svg>