<?xml version="1.0" encoding="utf-8"?>
<!-- Generator: Adobe Illustrator 27.5.0, SVG Export Plug-In . SVG Version: 6.00 Build 0)  -->
<svg version="1.1" id="Layer_1" xmlns="http://www.w3.org/2000/svg" xmlns:xlink="http://www.w3.org/1999/xlink" x="0px" y="0px"
	 viewBox="0 0 270.647 259.028" style="enable-background:new 0 0 270.647 259.028;" xml:space="preserve">
<g>
	<g>
		<g>
			<path style="fill:#CBCFCE;" d="M222.891,5.232c-7.594,4.978-14.515,10.886-21.299,16.9c-6.968,6.177-13.979,12.384-20.014,19.502
				c-2.703,3.189-5.144,6.476-6.755,10.361c-1.518,3.66-2.398,7.554-2.903,11.475c-0.503,3.911-0.641,7.86-0.632,11.8
				c0.011,4.526,0.187,9.038,0.666,13.54c0.47,4.418-1.689,21.925,1.711,24.557c3.919,3.035,26.379,3.905,36.028-10.308
				c0.798-1.174-1.706-1.784-2.999-1.853c1.503-0.923,2.847-2.187,4.029-3.37c2.6-2.605,4.996-5.396,6.879-8.57
				c1.498-2.526,2.649-5.271,3.449-8.097c0.319-1.125,0.596-2.311,0.582-3.487c-0.01-0.866-0.192-1.906-1.016-2.372
				c-1.278-0.723-5.825,3.018-6.923,3.883c1.699-2.877,3.643-5.609,5.187-8.577c1.69-3.248,3.002-6.74,4.189-10.199
				c0.597-1.741,1.143-3.499,1.63-5.274c0.46-1.675,0.933-3.38,1.208-5.096c0.134-0.837,0.334-2.083-0.261-2.805
				c-0.654-0.793-4.906,2.517-5.881,3.809c1.514-3.419,2.706-6.989,3.661-10.591c0.364-1.372,0.692-2.753,0.985-4.142
				c0.206-0.977,0.531-2.123,0.305-3.126c-0.332-1.47-1.773-0.254-2.614,0.603c0.683-1.682,1.325-3.378,1.748-5.146
				c0.392-1.642,0.598-3.374,0.302-5.05c-0.17-0.962-0.564-1.991-1.441-2.518c-0.759-0.457-1.689-0.447-2.53-0.264
				c-1.081,0.235-2.101,0.715-3.059,1.258c-0.466,0.264-0.925,0.546-1.375,0.843c2.799-3.335,4.966-7.214,6.736-11.171
				c0.378-0.845,0.775-1.68,1.112-2.542c0.32-0.819,0.664-1.713,0.664-2.605c0-0.619-0.23-1.256-0.915-1.36
				C223.193,5.214,223.042,5.218,222.891,5.232z"/>
			<path style="fill:#526075;" d="M183.089,115.375c-4.512,0-8.138-0.793-9.529-1.87c-2.453-1.9-2.115-10.811-1.843-17.972
				c0.11-2.895,0.205-5.396,0.066-6.705c-0.437-4.108-0.655-8.543-0.667-13.558c-0.011-4.622,0.19-8.379,0.633-11.822
				c0.563-4.381,1.517-8.149,2.914-11.519c1.722-4.151,4.395-7.59,6.783-10.406c6.015-7.094,13.091-13.368,19.935-19.434
				l0.096-0.085c6.16-5.46,13.395-11.721,21.319-16.916l0.037-0.024l0.043-0.004c0.193-0.017,0.35-0.015,0.493,0.007
				c0.666,0.101,1.063,0.673,1.063,1.531c-0.001,0.939-0.359,1.858-0.676,2.668c-0.255,0.653-0.548,1.299-0.832,1.923
				c-0.095,0.209-0.19,0.417-0.283,0.627c-1.852,4.141-3.851,7.552-6.094,10.392c0.164-0.098,0.327-0.193,0.489-0.285
				c1.175-0.666,2.162-1.072,3.108-1.277c1.065-0.231,1.958-0.135,2.656,0.285c0.784,0.472,1.296,1.359,1.522,2.637
				c0.263,1.488,0.164,3.163-0.304,5.12c-0.368,1.538-0.905,3.03-1.461,4.436c0.725-0.627,1.299-0.884,1.72-0.766
				c0.303,0.086,0.508,0.353,0.607,0.794c0.204,0.903-0.019,1.907-0.215,2.792c-0.031,0.138-0.061,0.275-0.089,0.407
				c-0.29,1.379-0.622,2.776-0.986,4.151c-0.923,3.48-2.02,6.731-3.264,9.678c1.372-1.326,3.921-3.212,4.979-3.234
				c0.205,0,0.367,0.058,0.471,0.184c0.645,0.782,0.437,2.08,0.299,2.94c-0.271,1.688-0.733,3.37-1.18,4.997l-0.033,0.121
				c-0.477,1.738-1.027,3.516-1.633,5.284c-1.072,3.125-2.409,6.783-4.199,10.223c-0.961,1.847-2.092,3.628-3.186,5.351
				c-0.502,0.791-1.017,1.602-1.515,2.419c2.481-1.947,5.292-3.914,6.369-3.306c0.717,0.406,1.089,1.254,1.104,2.521
				c0.015,1.232-0.289,2.479-0.589,3.537c-0.824,2.913-1.991,5.651-3.466,8.139c-1.681,2.836-3.875,5.569-6.905,8.604
				c-1.042,1.044-2.275,2.212-3.634,3.121c1.036,0.133,2.388,0.514,2.726,1.196c0.096,0.193,0.156,0.502-0.101,0.881
				c-5.609,8.261-15.17,10.882-20.369,11.709C187.247,115.219,185.081,115.375,183.089,115.375z M222.95,5.401
				c-7.89,5.177-15.102,11.417-21.242,16.861l-0.096,0.085c-6.835,6.059-13.902,12.324-19.9,19.399
				c-2.371,2.796-5.024,6.208-6.727,10.315c-1.386,3.342-2.332,7.081-2.891,11.43c-0.441,3.428-0.642,7.171-0.63,11.778
				c0.012,5.002,0.229,9.426,0.665,13.522c0.142,1.334,0.046,3.846-0.064,6.754c-0.255,6.707-0.604,15.894,1.708,17.684
				c1.949,1.509,8.484,2.432,15.642,1.294c5.144-0.818,14.601-3.409,20.136-11.562c0.133-0.195,0.158-0.369,0.077-0.531
				c-0.297-0.599-1.9-0.995-2.942-1.05l-0.557-0.03l0.475-0.292c1.498-0.92,2.861-2.208,3.997-3.345
				c3.008-3.014,5.186-5.726,6.852-8.536c1.46-2.462,2.615-5.173,3.431-8.056c0.293-1.034,0.59-2.251,0.576-3.438
				c-0.014-1.135-0.326-1.882-0.928-2.223c-0.722-0.409-2.901,0.822-6.471,3.662l-0.988,0.78l0.472-0.799
				c0.647-1.096,1.341-2.188,2.012-3.244c1.09-1.716,2.217-3.492,3.171-5.325c1.78-3.42,3.111-7.063,4.179-10.176
				c0.604-1.761,1.151-3.532,1.626-5.263l0.033-0.121c0.444-1.618,0.904-3.291,1.171-4.957c0.128-0.801,0.321-2.006-0.224-2.667
				c-0.033-0.04-0.098-0.06-0.196-0.058c-1.09,0.023-4.51,2.666-5.413,3.861l-0.906,1.199l0.609-1.374
				c1.406-3.174,2.634-6.729,3.652-10.566c0.363-1.369,0.694-2.76,0.982-4.133c0.028-0.134,0.059-0.272,0.09-0.411
				c0.189-0.85,0.403-1.813,0.216-2.64c-0.07-0.307-0.192-0.488-0.364-0.537c-0.378-0.108-1.09,0.339-1.957,1.223l-0.615,0.627
				l0.331-0.814c0.651-1.604,1.313-3.334,1.74-5.121c0.456-1.91,0.555-3.539,0.3-4.979c-0.208-1.175-0.665-1.982-1.359-2.4
				c-0.62-0.373-1.428-0.455-2.403-0.244c-0.911,0.198-1.867,0.592-3.011,1.24c-0.452,0.257-0.912,0.538-1.365,0.837l-0.992,0.652
				l0.763-0.909c2.495-2.973,4.69-6.614,6.711-11.131c0.094-0.21,0.189-0.419,0.284-0.628c0.282-0.621,0.573-1.262,0.825-1.906
				c0.306-0.782,0.652-1.668,0.652-2.542c0-0.322-0.074-1.083-0.768-1.188C223.211,5.393,223.096,5.39,222.95,5.401z"/>
		</g>
		<path style="opacity:0.46;fill:#9FA1A4;" d="M176.492,114.521c0.91-0.51,1.733-1.183,2.375-1.956
			c1.26-1.517,1.706-3.594,1.886-5.51c0.197-2.097,0.077-4.211-0.099-6.304c-0.188-2.235-0.402-4.469-0.633-6.7
			c-1.02-9.817-2.41-19.814-0.978-29.664c1.234-8.487,4.68-16.308,9.905-23.09c2.934-3.808,6.352-7.184,9.776-10.547
			c3.72-3.654,7.508-7.238,11.23-10.889c4.74-4.649,9.401-9.43,13.62-14.563c-0.07-0.028-0.147-0.049-0.231-0.061
			c-0.15-0.023-0.301-0.019-0.452-0.006c-7.593,4.978-14.515,10.886-21.299,16.9c-6.968,6.177-13.979,12.385-20.014,19.502
			c-2.703,3.189-5.144,6.476-6.755,10.361c-1.518,3.66-2.398,7.553-2.903,11.475c-0.503,3.911-0.641,7.86-0.632,11.8
			c0.011,4.526,0.187,9.038,0.666,13.54c0.469,4.418-1.689,21.925,1.711,24.557C174.24,113.812,175.217,114.21,176.492,114.521z"/>
		<path style="opacity:0.46;fill:#9FA1A4;" d="M209.965,28.955c-3.669,3.997-7.507,7.835-11.204,11.805
			c0.052-0.046,0.105-0.09,0.157-0.136c2.908-2.612,5.476-5.57,8.322-8.246c0.809-0.76,1.651-1.483,2.464-2.239
			c0.731-0.68,1.463-1.358,2.219-2.011c1.636-1.415,3.426-2.866,5.473-3.635c1.414-0.531,3.095-0.624,4.225,0.542
			c0.836,0.863,0.988,2.15,0.924,3.297c-0.093,1.67-0.597,3.316-1.166,4.878c-1.418,3.894-3.434,7.571-5.497,11.153
			c-0.892,1.549-1.811,3.082-2.731,4.616c-0.375,0.624-0.761,1.247-1.124,1.881c0.597-0.64,1.128-1.341,1.619-2.068
			c1.303-1.933,2.344-4.027,3.61-5.983c1.149-1.775,2.522-3.481,4.418-4.493c0.075-0.04,0.203-0.005,0.232,0.082
			c0.747,2.251-0.158,4.802-1.046,6.876c-0.954,2.229-2.175,4.333-3.413,6.413c-1.438,2.418-2.767,4.897-4.222,7.305
			c-1.619,2.681-3.355,5.326-5.265,7.833c1.128-1.088,2.234-2.199,3.301-3.347c1.031-1.108,1.938-2.304,2.854-3.508
			c1.008-1.326,2.026-2.656,3.189-3.851c0.907-0.931,1.995-1.929,3.305-2.215c0.101-0.022,0.174,0.052,0.203,0.139
			c0.089,0.275,0.156,0.556,0.202,0.842c0.208,1.295,0.024,2.629-0.289,3.892c-0.369,1.49-0.939,2.927-1.582,4.318
			c-1.239,2.678-2.774,5.201-4.335,7.7c-0.901,1.443-1.875,2.84-2.859,4.228c-1.168,1.648-2.372,3.271-3.624,4.857
			c-2.568,3.25-5.338,6.364-8.433,9.123c-0.245,0.218-0.493,0.434-0.743,0.648c0.684-0.397,1.367-0.795,2.053-1.187
			c1.815-1.038,3.644-2.057,5.52-2.981c1.556-0.767,3.161-1.508,4.842-1.955c0.964-0.256,2.303-0.547,3.187,0.096
			c1.325,0.964,0.534,2.951-0.036,4.109c-0.927,1.88-2.232,3.596-3.607,5.17c-1.849,2.116-3.88,4.099-6.061,5.87
			c-1.632,1.326-3.369,2.528-5.198,3.567c0.904-0.031,1.819,0.021,2.688,0.27c1.042,0.299,1.996,0.973,2.351,2.04
			c0.395,1.188-0.189,2.398-0.861,3.36c-0.365,0.523-0.78,1.01-1.199,1.491c-0.158,0.181-0.315,0.363-0.472,0.544
			c2.808-1.762,5.346-4.053,7.338-6.987c0.797-1.175-1.706-1.784-2.999-1.853c1.503-0.923,2.847-2.187,4.029-3.37
			c2.6-2.605,4.996-5.396,6.879-8.57c1.498-2.526,2.649-5.271,3.449-8.097c0.319-1.125,0.596-2.311,0.582-3.487
			c-0.01-0.866-0.192-1.906-1.016-2.372c-1.278-0.723-5.825,3.018-6.923,3.883c1.699-2.877,3.643-5.609,5.187-8.577
			c1.69-3.248,3.002-6.74,4.189-10.199c0.597-1.741,1.143-3.499,1.63-5.274c0.46-1.675,0.933-3.38,1.208-5.096
			c0.134-0.837,0.334-2.083-0.261-2.805c-0.654-0.793-4.906,2.517-5.881,3.809c1.514-3.419,2.706-6.989,3.661-10.591
			c0.364-1.372,0.692-2.753,0.985-4.142c0.206-0.977,0.531-2.123,0.305-3.126c-0.332-1.47-1.773-0.254-2.614,0.603
			c0.683-1.682,1.325-3.378,1.748-5.146c0.392-1.642,0.598-3.374,0.302-5.05c-0.17-0.962-0.564-1.991-1.441-2.518
			c-0.759-0.457-1.689-0.447-2.53-0.264c-1.081,0.235-2.101,0.715-3.059,1.258c-0.466,0.264-0.925,0.546-1.375,0.843
			c1.916-2.283,3.53-4.824,4.929-7.467C217.589,20.304,213.849,24.723,209.965,28.955z"/>
		<g>
			<path style="fill:#9FA1A4;" d="M173.753,113.295c1.375,0.179,2.745-0.471,3.964-2.441c1.114-1.801,1.219-4.03,1.217-6.148
				c-0.014-14.752-4.736-29.78-1.063-44.412c3.343-13.32,11.294-23.143,21.05-32.398c5.549-5.264,11.398-10.2,16.929-15.482
				c1.518-1.449,7.734-6.074,7.748-8.203c0.016-2.442-41.964,24.063-49.425,31.699c-5.999,6.14-10.645,12.308-12.064,20.98
				c-0.935,5.714-0.707,11.546-0.492,17.332c0.366,9.874,0.713,19.908,3.81,29.29C166.404,106.476,170.096,112.818,173.753,113.295z
				"/>
			<path style="fill:#526075;" d="M174.188,113.497c-0.151,0-0.304-0.01-0.458-0.03c-3.87-0.505-7.575-7.195-8.468-9.9
				c-3.076-9.319-3.449-19.357-3.808-29.064l-0.017-0.45c-0.21-5.663-0.428-11.518,0.501-17.191
				c1.499-9.159,6.706-15.541,12.111-21.073c6.805-6.966,47.06-32.891,49.526-31.874c0.126,0.052,0.198,0.16,0.197,0.297
				c-0.011,1.736-3.75,4.882-6.224,6.963c-0.668,0.562-1.245,1.047-1.577,1.364c-2.844,2.715-5.818,5.382-8.696,7.961
				c-2.722,2.44-5.537,4.964-8.234,7.522c-8.366,7.937-17.404,17.982-21.001,32.314c-2.346,9.349-1.236,19.027-0.162,28.387
				c0.602,5.25,1.225,10.677,1.23,15.983c0.002,2.043-0.092,4.378-1.243,6.239C176.815,112.64,175.58,113.497,174.188,113.497z
				 M223.296,4.185c-2.996,0-41.442,24.11-48.999,31.846c-9.078,9.292-11.14,15.53-12.017,20.887
				c-0.923,5.639-0.706,11.477-0.496,17.122l0.017,0.45c0.359,9.683,0.73,19.696,3.791,28.967c0.463,1.404,1.612,3.733,3.133,5.774
				c1.217,1.633,3.081,3.633,5.05,3.89l0,0c1.432,0.187,2.709-0.607,3.794-2.36c1.103-1.784,1.193-4.062,1.191-6.056
				c-0.005-5.286-0.627-10.704-1.228-15.944c-1.078-9.39-2.192-19.101,0.17-28.511c3.618-14.417,12.696-24.51,21.099-32.481
				c2.7-2.562,5.517-5.087,8.241-7.529c2.875-2.577,5.848-5.242,8.688-7.953c0.341-0.326,0.922-0.814,1.594-1.379
				c2.278-1.916,6.09-5.123,6.101-6.699C223.393,4.194,223.35,4.185,223.296,4.185z"/>
		</g>
		<path style="fill:#9FA1A4;" d="M163.075,74.186c0.019-4.424,0.242-8.846,0.817-13.235c0.523-3.991,1.427-7.965,3.22-11.591
			c2.027-4.101,5.126-7.729,8.316-10.972c3.379-3.436,7.115-6.499,10.97-9.383c7.958-5.954,16.421-11.161,24.725-16.608
			c3.682-2.415,7.463-4.704,11.061-7.243c0.466-0.329,0.931-0.665,1.394-1.008c-0.866-1.808-42.024,24.208-49.405,31.763
			c-5.999,6.14-10.645,12.308-12.064,20.98c-0.935,5.714-0.707,11.546-0.492,17.332c0.267,7.189,0.528,14.461,1.843,21.507
			C163.438,88.549,163.043,81.368,163.075,74.186z"/>
		<path style="fill:#9FA1A4;" d="M218.894,8.227c-1.653,1.216-3.266,2.47-4.881,3.735c-2.365,1.852-4.783,3.634-7.203,5.414
			c-4.631,3.406-9.291,6.804-13.559,10.665c-3.721,3.366-7.134,7.076-10.087,11.136c-2.916,4.01-5.37,8.35-7.279,12.927
			c-1.495,3.583-2.809,7.362-3.488,11.195c-0.47,2.654-0.869,5.329-1.605,7.927c-0.341,1.203-0.744,2.427-1.394,3.504
			c-0.424,0.703-1.036,1.448-1.892,1.599c-0.991,0.174-1.881-0.517-2.528-1.183c-1.468-1.512-2.419-3.535-3.047-5.523
			c-0.196-0.621-0.36-1.249-0.501-1.882c0.023,2.162,0.105,4.326,0.185,6.483c0.366,9.874,0.713,19.908,3.81,29.29
			c0.978,2.963,4.669,9.305,8.326,9.782c1.375,0.179,2.745-0.471,3.964-2.441c1.114-1.801,1.219-4.03,1.217-6.148
			c-0.014-14.752-4.736-29.78-1.063-44.412c3.342-13.32,11.294-23.143,21.049-32.398c5.549-5.264,11.398-10.2,16.929-15.482
			c1.433-1.368,7.052-5.567,7.687-7.823C222.049,5.877,220.477,7.062,218.894,8.227z"/>
	</g>
	<g>
		<g>
			<path style="fill:#CBCFCE;" d="M5.47,193.829c6.001-6.814,12.827-12.831,19.74-18.698c7.099-6.025,14.235-12.09,22.134-17.058
				c3.539-2.226,7.138-4.178,11.211-5.224c3.837-0.986,7.816-1.307,11.77-1.253c3.943,0.054,7.872,0.476,11.771,1.042
				c4.479,0.65,8.921,1.462,13.311,2.572c4.307,1.089,21.944,1.426,24.069,5.163c2.451,4.309,0.139,26.666-15.294,34.211
				c-1.275,0.624-1.525-1.941-1.41-3.231c-1.126,1.357-2.567,2.51-3.906,3.513c-2.946,2.206-6.047,4.183-9.456,5.599
				c-2.712,1.126-5.592,1.878-8.504,2.27c-1.159,0.157-2.372,0.264-3.535,0.083c-0.855-0.133-1.859-0.459-2.204-1.341
				c-0.535-1.367,3.81-5.34,4.822-6.305c-3.088,1.276-6.067,2.814-9.224,3.923c-3.454,1.214-7.097,2.02-10.689,2.706
				c-1.807,0.345-3.625,0.637-5.451,0.868c-1.723,0.219-3.478,0.446-5.216,0.476c-0.848,0.014-2.109,0.037-2.74-0.655
				c-0.693-0.76,3.185-4.501,4.601-5.284c-3.599,1.016-7.301,1.691-11.003,2.128c-1.409,0.166-2.823,0.296-4.24,0.39
				c-0.996,0.065-2.177,0.226-3.137-0.14c-1.409-0.537-0.001-1.791,0.966-2.503c-1.761,0.439-3.531,0.835-5.341,1.003
				c-1.681,0.157-3.425,0.116-5.042-0.415c-0.928-0.304-1.892-0.839-2.29-1.782c-0.345-0.816-0.204-1.735,0.096-2.541
				c0.385-1.037,1.005-1.979,1.678-2.851c0.327-0.424,0.671-0.838,1.028-1.242c-3.697,2.3-7.843,3.897-12.011,5.09
				c-0.89,0.254-1.773,0.53-2.674,0.742c-0.856,0.201-1.79,0.415-2.673,0.289c-0.613-0.087-1.211-0.405-1.217-1.098
				C5.41,194.126,5.435,193.977,5.47,193.829z"/>
			<path style="fill:#526075;" d="M48.996,203.324c-0.834,0-1.874-0.079-2.456-0.716c-0.111-0.121-0.149-0.287-0.116-0.492
				c0.172-1.045,2.399-3.302,3.905-4.472c-3.094,0.816-6.466,1.442-10.042,1.864c-1.405,0.166-2.835,0.297-4.249,0.391
				c-0.136,0.009-0.275,0.02-0.416,0.031c-0.904,0.069-1.929,0.148-2.794-0.182c-0.423-0.161-0.658-0.401-0.701-0.713
				c-0.059-0.431,0.278-0.966,1.001-1.595c-1.469,0.352-3.02,0.673-4.597,0.82c-2.005,0.186-3.677,0.048-5.112-0.423
				c-1.233-0.404-2.039-1.037-2.396-1.879c-0.317-0.751-0.286-1.649,0.093-2.669c0.336-0.906,0.877-1.827,1.703-2.897
				c0.114-0.147,0.231-0.295,0.351-0.443c-3.129,1.819-6.788,3.316-11.149,4.564c-0.219,0.063-0.438,0.127-0.657,0.191
				c-0.66,0.193-1.342,0.393-2.025,0.553c-0.805,0.189-1.805,0.425-2.737,0.293c-0.85-0.121-1.36-0.595-1.366-1.269
				c-0.001-0.145,0.019-0.3,0.063-0.489l0.01-0.042l0.029-0.033c6.265-7.114,13.483-13.391,19.758-18.716l0.096-0.082
				c6.973-5.919,14.184-12.038,22.057-16.991c3.126-1.967,6.909-4.127,11.26-5.245c3.534-0.908,7.399-1.32,11.815-1.258
				c3.472,0.048,7.22,0.38,11.794,1.043c4.966,0.721,9.325,1.563,13.328,2.576c1.276,0.322,3.764,0.581,6.646,0.882
				c7.128,0.743,15.998,1.666,17.532,4.363c1.254,2.205,1.267,8.928-0.899,15.943c-1.553,5.03-5.499,14.124-14.469,18.509
				c-0.411,0.201-0.709,0.097-0.886-0.025c-0.627-0.431-0.813-1.823-0.799-2.867c-1.092,1.218-2.423,2.272-3.604,3.156
				c-3.431,2.57-6.448,4.355-9.493,5.62c-2.672,1.11-5.548,1.877-8.547,2.282c-1.088,0.147-2.366,0.273-3.584,0.083
				c-1.253-0.194-2.04-0.682-2.34-1.449c-0.451-1.153,1.895-3.657,4.173-5.838c-0.879,0.378-1.754,0.773-2.607,1.158
				c-1.86,0.84-3.784,1.708-5.748,2.399c-3.661,1.287-7.47,2.094-10.714,2.713c-1.833,0.35-3.671,0.643-5.462,0.87l-0.133,0.017
				c-1.671,0.212-3.399,0.431-5.102,0.46C49.281,203.322,49.142,203.324,48.996,203.324z M52.669,196.631l-1.315,0.727
				c-1.311,0.725-4.41,3.738-4.587,4.813c-0.016,0.095-0.006,0.163,0.03,0.202c0.578,0.634,1.799,0.613,2.607,0.598
				c1.686-0.029,3.404-0.247,5.065-0.458l0.133-0.017c1.783-0.226,3.614-0.518,5.44-0.867c3.231-0.617,7.025-1.42,10.664-2.699
				c1.95-0.685,3.867-1.551,5.721-2.388c1.14-0.514,2.318-1.046,3.495-1.532l0.857-0.354l-0.912,0.869
				c-3.315,3.132-4.842,5.113-4.539,5.888c0.252,0.644,0.948,1.059,2.069,1.232c1.176,0.183,2.421,0.06,3.485-0.084
				c2.97-0.401,5.816-1.16,8.46-2.259c3.018-1.253,6.011-3.026,9.418-5.578c1.286-0.963,2.753-2.131,3.876-3.484l0.356-0.429
				l-0.049,0.555c-0.093,1.04,0.073,2.682,0.624,3.061c0.149,0.103,0.325,0.102,0.537-0.001c8.853-4.328,12.753-13.323,14.29-18.3
				c2.139-6.926,2.148-13.526,0.929-15.669c-1.446-2.542-10.589-3.494-17.266-4.189c-2.895-0.301-5.395-0.562-6.695-0.891
				c-3.991-1.009-8.34-1.849-13.293-2.568c-4.558-0.662-8.291-0.992-11.748-1.04c-4.389-0.061-8.22,0.348-11.724,1.247
				c-4.305,1.105-8.058,3.25-11.161,5.202c-7.853,4.94-15.054,11.052-22.018,16.962l-0.096,0.082
				c-6.255,5.309-13.45,11.565-19.693,18.648c-0.031,0.142-0.045,0.258-0.044,0.365c0.006,0.702,0.748,0.883,1.068,0.928
				c0.866,0.122,1.791-0.095,2.608-0.286c0.674-0.158,1.352-0.356,2.007-0.548c0.219-0.064,0.439-0.129,0.659-0.191
				c4.757-1.362,8.671-3.021,11.967-5.071l1.008-0.627l-0.786,0.89c-0.361,0.408-0.705,0.823-1.021,1.233
				c-0.803,1.041-1.328,1.933-1.652,2.805c-0.347,0.935-0.38,1.747-0.099,2.414c0.315,0.746,1.05,1.313,2.184,1.684
				c1.39,0.456,3.016,0.589,4.972,0.407c1.832-0.17,3.637-0.581,5.315-0.999l0.853-0.212l-0.708,0.521
				c-0.998,0.734-1.54,1.378-1.487,1.765c0.024,0.177,0.185,0.324,0.48,0.436c0.792,0.301,1.776,0.226,2.644,0.16
				c0.143-0.011,0.283-0.022,0.42-0.031c1.409-0.093,2.832-0.223,4.231-0.389c3.942-0.465,7.634-1.179,10.976-2.123L52.669,196.631z
				"/>
		</g>
		<path style="opacity:0.46;fill:#9FA1A4;" d="M120.218,163.335c-0.633,0.828-1.416,1.549-2.272,2.075
			c-1.68,1.033-3.799,1.181-5.721,1.089c-2.103-0.102-4.179-0.518-6.227-0.989c-2.186-0.502-4.368-1.029-6.544-1.574
			c-9.575-2.396-19.275-5.185-29.228-5.158c-8.576,0.023-16.805,2.329-24.258,6.544c-4.185,2.367-8.01,5.274-11.822,8.188
			c-4.143,3.167-8.226,6.41-12.366,9.579c-5.272,4.036-10.663,7.974-16.341,11.426c-0.017-0.074-0.027-0.153-0.028-0.237
			c-0.001-0.151,0.024-0.3,0.058-0.448c6.001-6.814,12.827-12.831,19.74-18.698c7.099-6.025,14.235-12.09,22.134-17.058
			c3.539-2.226,7.138-4.178,11.211-5.224c3.837-0.986,7.816-1.307,11.77-1.253c3.943,0.054,7.872,0.476,11.771,1.042
			c4.479,0.65,8.921,1.462,13.31,2.572c4.307,1.089,21.944,1.426,24.069,5.163C119.834,161.005,120.09,162.029,120.218,163.335z"/>
		<path style="opacity:0.46;fill:#9FA1A4;" d="M30.782,184.384c4.475-3.067,8.817-6.325,13.269-9.424
			c-0.053,0.045-0.104,0.092-0.157,0.136c-2.996,2.51-6.288,4.635-9.339,7.074c-0.867,0.693-1.701,1.425-2.565,2.123
			c-0.776,0.627-1.551,1.257-2.304,1.912c-1.632,1.42-3.321,2.987-4.372,4.905c-0.726,1.325-1.055,2.976-0.06,4.259
			c0.736,0.949,1.989,1.282,3.133,1.381c1.667,0.144,3.367-0.123,4.994-0.465c4.055-0.854,7.98-2.33,11.818-3.866
			c1.66-0.664,3.307-1.358,4.955-2.051c0.671-0.283,1.342-0.577,2.021-0.847c-0.718,0.501-1.487,0.928-2.276,1.31
			c-2.097,1.017-4.317,1.751-6.433,2.729c-1.92,0.887-3.803,2.004-5.072,3.739c-0.05,0.068-0.033,0.2,0.048,0.241
			c2.123,1.057,4.776,0.522,6.955-0.064c2.341-0.63,4.596-1.542,6.831-2.472c2.597-1.082,5.238-2.048,7.828-3.147
			c2.883-1.224,5.746-2.569,8.498-4.106c-1.236,0.963-2.492,1.901-3.779,2.795c-1.243,0.864-2.555,1.593-3.876,2.329
			c-1.455,0.811-2.916,1.63-4.263,2.613c-1.05,0.766-2.191,1.703-2.66,2.959c-0.036,0.097,0.026,0.18,0.109,0.22
			c0.26,0.127,0.529,0.233,0.805,0.319c1.253,0.389,2.6,0.395,3.894,0.264c1.527-0.155,3.03-0.516,4.498-0.957
			c2.826-0.848,5.541-2.011,8.235-3.204c1.556-0.689,3.076-1.455,4.589-2.233c1.797-0.923,3.574-1.886,5.32-2.902
			c3.581-2.083,7.054-4.385,10.223-7.059c0.251-0.212,0.499-0.427,0.747-0.644c-0.49,0.621-0.98,1.241-1.465,1.865
			c-1.284,1.65-2.551,3.317-3.731,5.044c-0.979,1.432-1.939,2.916-2.619,4.518c-0.39,0.918-0.867,2.203-0.355,3.168
			c0.768,1.448,2.846,0.946,4.072,0.545c1.992-0.652,3.875-1.701,5.628-2.84c2.355-1.531,4.606-3.262,6.668-5.171
			c1.543-1.429,2.979-2.978,4.265-4.642c-0.158,0.891-0.236,1.804-0.112,2.699c0.149,1.074,0.681,2.113,1.688,2.615
			c1.121,0.559,2.4,0.152,3.448-0.378c0.57-0.288,1.11-0.629,1.645-0.976c0.202-0.131,0.404-0.261,0.605-0.391
			c-2.141,2.531-4.767,4.72-7.953,6.278c-1.275,0.623-1.525-1.941-1.41-3.231c-1.126,1.357-2.567,2.51-3.906,3.513
			c-2.946,2.206-6.047,4.184-9.456,5.599c-2.712,1.126-5.592,1.878-8.504,2.27c-1.159,0.156-2.372,0.264-3.535,0.084
			c-0.855-0.133-1.859-0.459-2.205-1.341c-0.535-1.367,3.81-5.34,4.822-6.305c-3.088,1.276-6.067,2.814-9.224,3.923
			c-3.454,1.214-7.097,2.02-10.689,2.706c-1.807,0.345-3.625,0.637-5.451,0.868c-1.723,0.219-3.478,0.446-5.216,0.476
			c-0.848,0.014-2.109,0.037-2.74-0.655c-0.693-0.76,3.185-4.501,4.601-5.284c-3.599,1.016-7.301,1.691-11.003,2.128
			c-1.409,0.166-2.823,0.296-4.24,0.39c-0.996,0.065-2.177,0.226-3.137-0.14c-1.409-0.537-0.001-1.791,0.966-2.503
			c-1.761,0.439-3.531,0.835-5.341,1.003c-1.681,0.157-3.425,0.116-5.042-0.415c-0.928-0.304-1.892-0.839-2.29-1.782
			c-0.345-0.816-0.204-1.735,0.096-2.541c0.385-1.037,1.005-1.979,1.678-2.851c0.327-0.424,0.671-0.838,1.028-1.242
			c-2.531,1.575-5.274,2.814-8.088,3.825C21.14,190.71,26.044,187.632,30.782,184.384z"/>
		<g>
			<path style="fill:#9FA1A4;" d="M119.391,160.449c-0.017,1.386-0.854,2.651-2.977,3.579c-1.94,0.848-4.162,0.638-6.258,0.337
				c-14.602-2.098-28.812-8.895-43.817-7.327c-13.658,1.427-24.506,7.911-35.047,16.262c-5.995,4.749-11.708,9.842-17.718,14.572
				c-1.649,1.298-7.106,6.798-9.215,6.511c-2.42-0.329,29.749-38.144,38.364-44.451c6.926-5.071,13.688-8.799,22.474-8.979
				c5.789-0.118,11.53,0.932,17.228,1.961c9.723,1.757,19.607,3.518,28.458,7.909C113.679,152.212,119.436,156.762,119.391,160.449z
				"/>
			<path style="fill:#526075;" d="M4.52,194.568c-0.063,0-0.125-0.004-0.184-0.012c-0.136-0.018-0.233-0.105-0.266-0.237
				c-0.652-2.57,30.693-38.773,38.551-44.526c10.56-7.731,17.09-8.9,22.573-9.012c5.74-0.118,11.516,0.925,17.093,1.934l0.444,0.08
				c9.557,1.727,19.44,3.513,28.23,7.875c2.551,1.266,8.651,5.88,8.604,9.782c-0.019,1.594-1.056,2.851-3.081,3.736
				c-2.004,0.877-4.33,0.64-6.352,0.35c-5.252-0.755-10.537-2.138-15.648-3.476c-9.114-2.385-18.538-4.852-28.126-3.85
				c-14.695,1.536-25.917,9.064-34.956,16.225c-2.916,2.31-5.813,4.742-8.615,7.093c-2.958,2.482-6.016,5.049-9.103,7.479
				c-0.362,0.285-0.924,0.788-1.575,1.37C9.781,191.46,6.305,194.568,4.52,194.568z M66.091,141.119
				c-0.297,0-0.593,0.003-0.89,0.009c-9.182,0.188-16.18,4.41-22.375,8.945c-8.884,6.505-39.101,42.314-38.419,44.162
				c1.53,0.201,5.251-3.131,7.469-5.115c0.655-0.586,1.221-1.092,1.592-1.384c3.083-2.426,6.139-4.991,9.095-7.472
				c2.804-2.353,5.703-4.787,8.623-7.1c9.079-7.193,20.353-14.754,35.136-16.298c9.648-1.008,19.105,1.466,28.249,3.859
				c5.102,1.335,10.378,2.716,15.61,3.468c1.974,0.284,4.242,0.516,6.164-0.324c1.889-0.826,2.856-1.978,2.873-3.423l0,0
				c0.042-3.454-5.453-7.999-8.411-9.467c-8.745-4.34-18.603-6.121-28.137-7.844l-0.444-0.08
				C76.954,142.103,71.511,141.119,66.091,141.119z"/>
		</g>
		<path style="fill:#9FA1A4;" d="M82.183,144.354c-4.383-0.606-8.791-1.01-13.218-1.061c-4.025-0.046-8.087,0.288-11.93,1.55
			c-4.347,1.428-8.376,3.983-12.037,6.682c-3.879,2.859-7.439,6.126-10.838,9.534c-7.019,7.038-13.369,14.679-19.934,22.131
			c-2.911,3.304-5.711,6.724-8.732,9.927c-0.391,0.415-0.79,0.828-1.195,1.237c-1.667-1.113,29.902-38.183,38.424-44.422
			c6.926-5.071,13.688-8.799,22.474-8.979c5.789-0.118,11.53,0.932,17.228,1.961c7.079,1.28,14.242,2.566,21.031,4.863
			C96.35,146.742,89.298,145.337,82.183,144.354z"/>
		<path style="fill:#9FA1A4;" d="M9,190.295c1.437-1.464,2.906-2.884,4.387-4.305c2.167-2.079,4.273-4.222,6.377-6.365
			c4.026-4.103,8.048-8.237,12.473-11.916c3.858-3.208,8.013-6.063,12.449-8.412c4.382-2.32,9.025-4.137,13.825-5.38
			c3.758-0.973,7.685-1.741,11.575-1.871c2.694-0.09,5.398-0.107,8.074-0.469c1.239-0.167,2.508-0.394,3.666-0.885
			c0.756-0.321,1.58-0.821,1.85-1.647c0.312-0.956-0.246-1.935-0.814-2.67c-1.289-1.667-3.157-2.895-5.037-3.796
			c-0.587-0.282-1.185-0.533-1.792-0.762c2.137,0.328,4.268,0.715,6.392,1.099c9.723,1.757,19.607,3.518,28.458,7.909
			c2.795,1.387,8.552,5.937,8.508,9.625c-0.017,1.386-0.854,2.651-2.977,3.579c-1.94,0.848-4.162,0.638-6.258,0.337
			c-14.602-2.098-28.812-8.895-43.817-7.327c-13.658,1.427-24.506,7.911-35.047,16.262c-5.995,4.749-11.708,9.842-17.718,14.572
			c-1.557,1.225-6.507,6.195-8.831,6.505C6.228,193.087,7.623,191.698,9,190.295z"/>
	</g>
	<g>
		<g>
			<path style="fill:#2B3544;" d="M266.127,137.061c-0.381-0.237-0.824-0.368-1.251-0.495c-0.625-0.185-1.257-0.347-1.894-0.487
				c-3.35-0.737-6.789-0.826-10.202-0.988c-3.706-0.176-7.399-0.502-11.112-0.504c-1.884-0.001-3.769,0.018-5.652,0.074
				c-0.927,0.028-1.854,0.065-2.78,0.112c-0.868,0.044-1.729,0.089-2.573,0.316c-3.12,0.84-5.049,3.616-6.327,6.411
				c-0.438,0.957-1.114,2.409-0.372,3.387c0.065,0.085,0.137,0.16,0.215,0.23c-0.587,0.479-1.087,1.091-1.571,1.662
				c-0.653,0.771-1.31,1.544-1.945,2.33c-0.613,0.759-1.208,1.543-1.695,2.39c-0.425,0.74-0.826,1.58-0.827,2.452
				c-0.001,0.922,0.6,1.561,1.465,1.798c1.261,0.347,2.599,0.444,3.917,0.384c2.922,0.104,5.896-0.356,8.738-0.831
				c4.928-0.824,9.91-1.466,14.725-2.836c2.022-0.576,3.944-1.348,5.894-2.12c1.223-0.484,2.443-0.977,3.626-1.555
				c1.068-0.521,2.403-1.132,3.095-2.15c0.75-1.104-0.249-1.912-1.273-2.228c-1.729-0.534-3.65-0.453-5.438-0.454
				c-0.471,0-0.941-0.013-1.412-0.026c1.657-0.349,3.302-0.749,4.936-1.208c1.774-0.498,3.533-1.06,5.249-1.736
				c0.822-0.324,1.634-0.675,2.429-1.061c0.657-0.318,1.345-0.632,1.91-1.104C266.594,138.328,266.898,137.541,266.127,137.061z"/>
			<path style="fill:#526075;" d="M252.185,144.629c1.516,0.022,3.034-0.036,4.541,0.161c0.692,0.09,1.495,0.214,2.095,0.601
				c0.173,0.111,0.363,0.269,0.442,0.464c0.047,0.116,0.024,0.171-0.028,0.266c-0.224,0.41-0.684,0.704-1.062,0.952
				c-0.568,0.372-1.173,0.688-1.784,0.982c-1.14,0.549-2.315,1.019-3.493,1.481c-1.764,0.691-3.499,1.41-5.319,1.954
				c-4.606,1.375-9.362,1.988-14.081,2.826c-3.762,0.668-7.639,1.383-11.481,1.216c-0.533-0.075-1.062-0.169-1.582-0.296
				c-0.725-0.178-1.639-0.438-1.712-1.317c-0.061-0.736,0.363-1.504,0.721-2.115c0.454-0.775,0.995-1.499,1.559-2.196
				c0.575-0.71,1.171-1.406,1.757-2.107c0.538-0.643,1.09-1.336,1.75-1.861c0.087-0.069,0.171-0.123,0.253-0.166
				c0.607,0.251,1.344,0.292,1.946,0.342c0.122,0.01,0.248,0.017,0.375,0.022c2.28,0.466,4.639,0.236,6.974,0.204
				c1.365-0.019,2.723-0.127,4.078-0.273c2.609-0.169,5.217-0.497,7.796-0.862c0.636-0.09,1.269-0.189,1.902-0.293
				C249.282,144.561,250.737,144.608,252.185,144.629z"/>
			<path style="fill:#3B4657;" d="M256.726,144.79c-1.507-0.197-3.026-0.139-4.541-0.161c-1.448-0.021-2.903-0.068-4.353-0.016
				c-0.633,0.104-1.267,0.203-1.902,0.293c-1.839,0.26-3.693,0.499-5.551,0.678c1.367,0.05,2.729,0.165,4.071,0.406
				c1.186,0.213,2.487,0.517,3.46,1.269c0.557,0.43,0.949,1.048,0.697,1.759c-0.234,0.661-0.855,1.153-1.41,1.54
				c-0.855,0.596-1.805,1.058-2.755,1.481c-0.445,0.198-0.894,0.385-1.346,0.568c1.505-0.317,3.001-0.675,4.481-1.117
				c1.82-0.544,3.554-1.262,5.319-1.954c1.178-0.461,2.353-0.931,3.493-1.481c0.611-0.294,1.216-0.61,1.784-0.982
				c0.378-0.248,0.839-0.542,1.062-0.952c0.052-0.095,0.075-0.151,0.028-0.266c-0.08-0.195-0.27-0.353-0.442-0.464
				C258.221,145.004,257.418,144.88,256.726,144.79z"/>
			<path style="fill:#526075;" d="M265.938,138.144c-0.458,0.464-1.16,0.742-1.734,1.025c-0.768,0.378-1.553,0.72-2.347,1.038
				c-1.586,0.635-3.212,1.168-4.853,1.643c-3.259,0.942-6.575,1.676-9.926,2.201c-0.769,0.12-1.541,0.234-2.314,0.343
				c-1.663-0.005-3.326,0.274-4.973,0.477c-1.279,0.158-2.563,0.301-3.85,0.38c-2.811,0.105-5.626-0.014-8.438-0.065
				c-0.101-0.018-0.203-0.033-0.304-0.054c-0.535-0.112-1.021-0.353-1.548-0.483c-0.325-0.08-0.626-0.037-0.908,0.092
				c-0.159-0.09-0.303-0.204-0.41-0.354c-0.346-0.482-0.173-1.139,0.001-1.65c0.464-1.361,1.187-2.652,2.014-3.824
				c0.902-1.279,2.096-2.332,3.566-2.907c1.596-0.625,3.373-0.567,5.061-0.629c1.772-0.065,3.545-0.097,5.318-0.11
				c3.429-0.024,6.834,0.16,10.256,0.358c3.279,0.19,6.581,0.192,9.843,0.611c1.425,0.183,2.853,0.445,4.232,0.855
				c0.415,0.123,0.88,0.262,1.229,0.527C266.105,137.808,266.162,137.918,265.938,138.144z"/>
			<path style="fill:#3B4657;" d="M265.855,137.618c-0.349-0.266-0.814-0.404-1.229-0.527c-1.379-0.41-2.807-0.672-4.232-0.855
				c-2.371-0.304-4.764-0.389-7.154-0.485c0.023,0.04,0.048,0.079,0.07,0.12c0.661,1.215,0.768,2.644,0.16,3.904
				c-0.782,1.618-2.408,2.585-4.014,3.236c-1.239,0.503-2.503,0.909-3.784,1.249c0.469-0.069,0.939-0.135,1.406-0.208
				c3.351-0.525,6.667-1.258,9.926-2.201c1.641-0.475,3.267-1.008,4.853-1.643c0.794-0.318,1.579-0.66,2.347-1.038
				c0.574-0.282,1.276-0.56,1.734-1.025C266.162,137.918,266.105,137.808,265.855,137.618z"/>
		</g>
		<path style="fill:#2B3544;" d="M241.326,131.702c-1.195,0.177-2.375,0.473-3.537,0.816c0.018-0.035,0.042-0.068,0.056-0.105
			c0.287-0.788-0.619-1.284-1.26-1.383c-1.001-0.154-2.076-0.014-3.083,0.016c-0.305,0.009-0.609,0.023-0.914,0.039
			c-0.018-0.055-0.045-0.106-0.085-0.148c-0.938-0.978-2.404-1.291-3.694-1.472c-1.441-0.203-2.897-0.224-4.349-0.263
			c-3.945-0.106-7.897-0.063-11.843-0.051c-1.063,0.003-2.127,0.034-3.187,0.113c-0.01,0.001-0.02,0.002-0.03,0.002
			c-0.032-0.081-0.087-0.145-0.169-0.153c-1.69-0.182-3.492-0.561-5.128,0.107c-1.665,0.679-2.8,2.281-3.543,3.85
			c-0.814,1.719-1.288,3.569-1.725,5.413c-0.467,1.972-0.93,3.94-1.247,5.944c-0.68,4.294-0.848,8.673-0.567,13.01
			c0.246,3.789,0.687,7.785,2.3,11.269c0.421,0.91,0.949,1.789,1.621,2.537c0.519,0.577,1.161,1.165,1.919,1.393
			c0.82,0.247,3.048,0.605,3.442-0.515c5.273-1.65,10.347-3.822,15.024-6.807c2.682-1.711,5.207-3.643,7.607-5.73
			c2.424-2.107,4.602-4.401,6.665-6.857c0.852-1.014,1.699-2.058,2.324-3.232c0.534-1,0.958-2.213,0.679-3.35
			c0.403-0.421,0.797-0.849,1.178-1.286c0.541-0.62,1.016-1.287,1.532-1.927c0.359-0.445,0.727-0.889,1.018-1.383
			c0.487-0.824,0.757-2.258-0.53-2.49c-0.67-0.121-1.4,0.107-2.033,0.303c-0.738,0.228-1.45,0.528-2.172,0.802
			c-0.971,0.369-1.928,0.747-2.858,1.214c-0.378,0.19-0.754,0.385-1.13,0.579c2.581-1.828,5.156-3.665,7.665-5.591
			c0.637-0.489,1.295-0.952,1.904-1.476c0.568-0.489,1.324-1.132,1.455-1.916C244.92,131.253,242.291,131.559,241.326,131.702z"/>
		<path style="fill:#3B4657;" d="M243.946,132.964c-0.188,0.347-0.492,0.637-0.777,0.904c-0.56,0.524-1.179,0.976-1.794,1.433
			c-4.741,3.525-9.468,7.096-14.463,10.259c-4.87,3.083-9.992,5.706-15.314,7.911c-0.668,0.277-1.339,0.544-2.012,0.808
			c-0.116,0.045-0.061,0.29,0.072,0.251c5.753-1.654,11.18-4.378,16.283-7.472c1.891-1.146,3.733-2.365,5.551-3.62
			c0.033,0.018,0.072,0.027,0.118,0.011c1.88-0.653,3.622-1.638,5.492-2.317c1.216-0.442,2.453-0.997,3.732-1.219
			c0.302-0.053,1.167-0.215,1.31,0.215c0.114,0.341-0.317,0.899-0.49,1.156c-0.281,0.418-0.607,0.802-0.918,1.198
			c-0.561,0.714-1.099,1.433-1.71,2.107c-5.587,6.147-12.616,10.796-19.887,14.712c-2.027,1.092-4.031,2.239-6.078,3.293
			c-0.939,0.484-1.889,0.881-2.882,1.238c-0.949,0.341-1.846,0.726-2.653,1.34c-0.031,0.023-0.004,0.113,0.034,0.087
			c0.77-0.522,1.691-0.797,2.574-1.065c0.941-0.285,1.867-0.581,2.77-0.975c2.021-0.881,3.964-1.947,5.926-2.951
			c3.861-1.978,7.546-4.223,11.102-6.708c1.77-1.236,3.491-2.546,5.096-3.991c1.059-0.953,2.113-1.934,3.119-2.957
			c0.012,2.026-1.609,3.9-2.836,5.355c-1.963,2.328-4.026,4.527-6.308,6.548c-4.612,4.086-9.732,7.477-15.288,10.142
			c-2.881,1.381-5.83,2.615-8.85,3.657c-0.099-0.005-0.189-0.011-0.264-0.016c-0.608-0.044-1.272-0.136-1.833-0.389
			c-1.423-0.642-2.37-2.285-2.993-3.635c-1.498-3.249-1.902-6.977-2.147-10.507c-0.281-4.038-0.145-8.103,0.42-12.111
			c0.272-1.932,0.654-3.838,1.109-5.735c0.403-1.683,0.774-3.378,1.367-5.007c0.641-1.76,1.587-3.619,3.256-4.607
			c0.863-0.51,1.8-0.61,2.756-0.602c-0.069,0.021-0.139,0.04-0.206,0.064c-0.122,0.042-0.079,0.301,0.053,0.295
			c0.906-0.039,1.808-0.166,2.716-0.205c0.937-0.041,1.873-0.049,2.81-0.032c1.863,0.033,3.725,0.123,5.589,0.134
			c2.027,0.011,4.055-0.001,6.081,0.064c1.39,0.045,2.784,0.051,4.171,0.172c1.22,0.106,2.723,0.262,3.817,0.952
			c-0.683,0.051-1.366,0.115-2.048,0.189c-5.159,0.56-10.217,1.735-15.368,2.347c-1.393,0.166-2.786,0.336-4.172,0.556
			c-1.364,0.217-2.794,0.463-4.091,0.95c-0.05,0.019-0.035,0.135,0.023,0.126c1.115-0.157,2.216-0.393,3.335-0.535
			c1.132-0.143,2.264-0.27,3.399-0.385c2.285-0.231,4.564-0.479,6.831-0.846c4.784-0.774,9.555-1.633,14.414-1.742
			c0.555-0.012,1.109-0.043,1.664-0.058c0.483-0.013,1.042-0.035,1.486,0.191c0.061,0.031,0.168,0.142,0.232,0.156
			c0.004,0.003,0.006,0.007,0.01,0.01c-0.101,0.056-0.279,0.256-0.36,0.311c-0.348,0.234-0.713,0.422-1.03,0.698
			c-2.771,0.902-5.517,1.883-8.26,2.868c-3.055,1.097-6.122,2.162-9.142,3.353c-1.406,0.555-2.8,1.134-4.218,1.659
			c-1.393,0.515-2.811,1.001-4.154,1.638c-0.667,0.317-1.314,0.671-1.943,1.057c-0.236,0.145-0.124,0.737,0.167,0.585
			c2.508-1.313,5.225-2.161,7.85-3.197c2.878-1.135,5.75-2.263,8.666-3.299c2.914-1.036,5.817-2.104,8.742-3.107
			c1.88-0.645,3.767-1.309,5.701-1.778c0.87-0.211,1.752-0.394,2.644-0.481c0.577-0.056,1.45-0.175,1.96,0.184
			C244.088,132.727,244.055,132.764,243.946,132.964z"/>
		<path style="fill:#3B4657;" d="M232.066,131.885c-0.112,0.254-0.259,0.494-0.416,0.713c-0.505,0.702-1.16,1.29-1.855,1.799
			c-1.552,1.138-3.34,1.941-5.124,2.648c0.988-0.353,1.975-0.705,2.963-1.06c2.743-0.985,5.488-1.965,8.26-2.868
			c0.317-0.276,0.682-0.464,1.03-0.698c0.081-0.055,0.259-0.255,0.36-0.311c-0.004-0.003-0.006-0.007-0.01-0.01
			c-0.063-0.013-0.171-0.125-0.232-0.156c-0.444-0.226-1.003-0.204-1.486-0.191c-0.555,0.015-1.109,0.045-1.664,0.058
			C233.282,131.824,232.673,131.85,232.066,131.885z"/>
		<path style="fill:#3B4657;" d="M240.834,139.913c-1.279,0.222-2.516,0.777-3.732,1.219c-1.87,0.679-3.611,1.664-5.492,2.317
			c-0.046,0.016-0.085,0.008-0.118-0.011c-1.818,1.255-3.66,2.474-5.551,3.62c-1.772,1.074-3.584,2.102-5.434,3.058
			c0.521-0.197,1.041-0.395,1.564-0.586c1.589-0.58,3.195-1.139,4.846-1.516c1.249-0.285,2.686-0.567,3.945-0.183
			c0.702,0.214,1.448,0.749,1.312,1.568c-0.128,0.769-0.741,1.447-1.254,1.994c-0.844,0.899-1.803,1.691-2.773,2.448
			c-0.121,0.095-0.245,0.187-0.367,0.281c4.09-2.757,7.925-5.88,11.247-9.535c0.612-0.673,1.15-1.393,1.711-2.107
			c0.311-0.396,0.637-0.779,0.918-1.198c0.173-0.257,0.604-0.815,0.49-1.156C242.001,139.697,241.137,139.86,240.834,139.913z"/>
		<path style="fill:#3B4657;" d="M229.932,153.56c-3.557,2.484-7.241,4.73-11.102,6.708c-0.405,0.207-0.809,0.418-1.213,0.629
			c-0.335,0.207-0.673,0.412-1.005,0.625c0.833-0.102,1.658-0.272,2.466-0.502c3.689-1.048,6.992-3.102,10.25-5.066
			c0.133-0.08,0.349,0.056,0.256,0.215c-0.898,1.537-2.002,2.94-3.187,4.265c-0.286,0.319-0.576,0.638-0.869,0.954
			c1.188-0.916,2.347-1.872,3.475-2.871c2.282-2.022,4.345-4.22,6.308-6.548c1.227-1.455,2.848-3.329,2.836-5.355
			c-1.006,1.023-2.061,2.004-3.119,2.957C233.423,151.014,231.702,152.324,229.932,153.56z"/>
		<path style="fill:#3B4657;" d="M243.907,132.6c-0.51-0.359-1.383-0.24-1.96-0.184c-0.892,0.087-1.774,0.27-2.644,0.481
			c-1.934,0.469-3.82,1.133-5.701,1.778c-2.16,0.741-4.308,1.517-6.457,2.289c0.207-0.004,0.415-0.007,0.622-0.002
			c0.908,0.022,1.843,0.119,2.693,0.463c0.68,0.275,1.292,0.747,1.563,1.448c0.337,0.87,0.078,1.741-0.412,2.493
			c-0.654,1.004-1.598,1.816-2.525,2.559c-0.713,0.572-1.463,1.095-2.191,1.646c0.006-0.004,0.012-0.007,0.018-0.011
			c4.996-3.163,9.722-6.734,14.463-10.259c0.615-0.457,1.234-0.908,1.794-1.433c0.285-0.267,0.589-0.557,0.777-0.904
			C244.055,132.764,244.088,132.727,243.907,132.6z"/>
	</g>
	<g>
		<g>
			<g>
				<path style="fill:#F3777A;" d="M171.908,230.026c-0.099-0.151,1.017-18.303,1.478-27.495l-7.567-0.077
					c0.763,5.471,2.345,23.295-0.225,25.225c-2.35,1.763-25.587,3.682-23.403,4.875c1.66,0.907,3.623,1.11,5.48,1.254
					c1.916,0.149,3.843,0.218,5.761,0.319c1.214,0.063,2.431,0.085,3.648,0.067c-1.813,1.128-14.22,8.079-17.174,11.828
					c-1.708,2.167,18.059-5.639,24.385-8.961c0.379-0.199,0.761-0.39,1.143-0.582c-0.036,3.496,0.071,6.991,0.171,10.485
					c0.032,1.141-0.454,9.467,1.676,7.778c0.461-0.366,0.652-0.966,0.82-1.53c1.434-4.83,4.843-18.789,4.539-20.829
					C172.521,231.581,172.361,230.718,171.908,230.026z"/>
				<path style="fill:#A43631;" d="M166.761,255.143c-0.101,0-0.198-0.023-0.291-0.069c-1.027-0.508-1.109-3.799-1.046-7.281
					c0.007-0.379,0.012-0.668,0.008-0.823l-0.016-0.56c-0.09-3.161-0.183-6.426-0.157-9.647c-0.296,0.149-0.592,0.299-0.886,0.453
					c-5.063,2.659-23.74,10.338-24.678,9.211c-0.076-0.092-0.126-0.255,0.076-0.51c2.537-3.219,11.819-8.681,15.783-11.014
					c0.346-0.204,0.647-0.381,0.894-0.528c-1.011,0.007-2.029-0.021-3.023-0.073c-0.542-0.028-1.084-0.054-1.627-0.08
					c-1.358-0.065-2.762-0.132-4.139-0.239c-1.977-0.154-3.888-0.367-5.55-1.275c-0.223-0.122-0.249-0.266-0.231-0.366
					c0.115-0.638,3.146-1.141,10.56-2.221c5.593-0.814,11.932-1.738,13.053-2.579c2.355-1.769,1.084-18.418,0.157-25.062l-0.028-0.2
					l7.949,0.08l-0.009,0.181c-0.199,3.984-0.527,9.733-0.816,14.805c-0.354,6.211-0.688,12.084-0.668,12.621
					c0.457,0.717,0.62,1.61,0.737,2.392c0.309,2.075-3.107,16.062-4.544,20.904c-0.159,0.536-0.358,1.203-0.879,1.617
					C167.168,255.054,166.957,255.143,166.761,255.143z M165.611,236.196l-0.003,0.284c-0.034,3.306,0.062,6.668,0.155,9.918
					l0.016,0.56c0.004,0.158-0.001,0.453-0.008,0.839c-0.033,1.773-0.119,6.483,0.852,6.964c0.054,0.027,0.218,0.107,0.55-0.155
					c0.402-0.319,0.583-0.843,0.761-1.444c1.391-4.685,4.831-18.761,4.534-20.754c-0.119-0.793-0.271-1.623-0.706-2.288l0,0
					c-0.071-0.108-0.061-0.598,0.633-12.797c0.285-4.995,0.607-10.648,0.807-14.622l-7.185-0.073
					c0.365,2.694,0.943,8.405,1.111,13.759c0.212,6.711-0.27,10.557-1.432,11.429c-1.192,0.895-7.302,1.785-13.211,2.645
					c-4.348,0.633-9.735,1.418-10.246,1.919c0.009,0.006,0.02,0.013,0.033,0.02c1.601,0.875,3.473,1.083,5.41,1.234
					c1.372,0.106,2.774,0.173,4.129,0.238c0.543,0.026,1.086,0.052,1.628,0.08c1.194,0.062,2.417,0.084,3.636,0.067l0.626-0.01
					l-0.531,0.331c-0.27,0.168-0.772,0.464-1.444,0.859c-3.947,2.323-13.19,7.762-15.686,10.93
					c-0.029,0.037-0.046,0.064-0.055,0.083c1.154,0.421,16.951-5.486,24.224-9.305c0.366-0.192,0.735-0.377,1.104-0.563
					L165.611,236.196z"/>
			</g>
			<path style="fill:#F3777A;" d="M171.908,230.026c-0.099-0.151,1.017-18.303,1.478-27.495l-7.567-0.077
				c0.117,0.839,0.253,1.97,0.391,3.288c0.502,0.031,0.998,0.105,1.476,0.257c1.421,0.451,2.302,1.594,2.638,3.02
				c0.513,2.176,0.536,4.547,0.537,6.771c0.001,2.428-0.144,4.852-0.26,7.275c-0.112,2.341-0.251,4.667,0.119,6.99
				c0.157,0.988,0.334,1.975,0.399,2.974c0.065,1.002-0.008,2.01-0.067,3.011c-0.203,3.487-0.605,6.963-1.152,10.413
				c1.438-5.79,2.947-12.682,2.74-14.069C172.521,231.581,172.361,230.718,171.908,230.026z"/>
			<path style="fill:#F3777A;" d="M160.253,232.019c-5.955-0.78-12.015,1.081-17.945,0.134c-0.281,0.141-0.348,0.275-0.117,0.401
				c1.66,0.908,3.623,1.11,5.48,1.254c1.916,0.149,3.843,0.218,5.761,0.319c1.214,0.063,2.431,0.085,3.648,0.067
				c-0.171,0.106-0.436,0.265-0.779,0.467C157.724,233.928,159.069,233.076,160.253,232.019z"/>
			<path style="fill:#F3777A;" d="M160.809,235.887c-1.562,0.828-3.071,1.75-4.626,2.59c-1.695,0.915-3.444,1.737-5.166,2.599
				c-3.568,1.785-7.142,3.561-10.727,5.312c2.932-0.197,18.516-6.445,24.002-9.326c0.151-0.079,0.305-0.155,0.457-0.233
				c0.414-0.92,0.765-1.862,0.975-2.85C163.99,234.279,162.348,235.072,160.809,235.887z"/>
		</g>
		<g>
			<g>
				<path style="fill:#F3777A;" d="M231.758,183.521c-0.118-0.137-17.865-4.112-26.822-6.225l2.03-7.29
					c5.043,2.254,21.724,8.729,24.293,6.798c2.347-1.767,10.651-23.555,11.19-21.124c0.41,1.847,0.059,3.788-0.319,5.613
					c-0.389,1.882-0.859,3.752-1.296,5.623c-0.276,1.183-0.594,2.359-0.95,3.523c1.588-1.428,11.714-11.413,16.137-13.208
					c2.557-1.038-10.437,15.779-15.388,20.932c-0.296,0.308-0.587,0.622-0.877,0.936c3.368,0.937,6.696,2.012,10.024,3.079
					c1.087,0.348,9.22,2.196,7.006,3.773c-0.479,0.341-1.109,0.358-1.698,0.362c-5.039,0.035-19.394-0.572-21.27-1.431
					C233.081,184.543,232.296,184.15,231.758,183.521z"/>
				<path style="fill:#A43631;" d="M254.661,186.487c-5.389,0-19.061-0.599-20.915-1.449c-0.752-0.345-1.533-0.735-2.093-1.373
					c-0.51-0.169-6.237-1.479-12.294-2.864c-4.958-1.134-10.577-2.419-14.464-3.336l-0.176-0.041l2.132-7.658l0.184,0.082
					c6.125,2.737,21.766,8.587,24.118,6.817c1.12-0.843,3.769-6.675,6.106-11.82c3.099-6.822,4.432-9.583,5.07-9.527
					c0.101,0.01,0.233,0.075,0.288,0.323c0.41,1.848,0.083,3.744-0.319,5.686c-0.28,1.353-0.606,2.721-0.922,4.044
					c-0.126,0.528-0.252,1.055-0.375,1.583c-0.227,0.97-0.485,1.951-0.77,2.924c0.21-0.197,0.464-0.437,0.757-0.713
					c3.342-3.159,11.17-10.555,14.966-12.097c0.301-0.122,0.444-0.03,0.511,0.069c0.824,1.215-11.746,17.02-15.708,21.144
					c-0.23,0.239-0.456,0.482-0.682,0.725c3.107,0.872,6.223,1.871,9.24,2.839l0.516,0.165c0.148,0.048,0.427,0.123,0.793,0.221
					c3.362,0.907,6.501,1.901,6.703,3.029c0.055,0.303-0.095,0.582-0.442,0.829c-0.501,0.357-1.11,0.39-1.797,0.394
					C254.953,186.487,254.81,186.487,254.661,186.487z M205.151,177.169c3.878,0.914,9.403,2.177,14.286,3.294
					c11.896,2.721,12.369,2.848,12.453,2.946l0,0c0.517,0.603,1.272,0.98,2.001,1.315c1.831,0.839,16.31,1.458,21.196,1.415
					c0.627-0.004,1.18-0.032,1.598-0.33c0.345-0.246,0.313-0.426,0.303-0.485c-0.192-1.066-4.74-2.293-6.452-2.755
					c-0.373-0.101-0.658-0.178-0.808-0.226l-0.517-0.166c-3.102-0.995-6.31-2.024-9.501-2.912l-0.275-0.076l0.279-0.302
					c0.263-0.283,0.526-0.567,0.794-0.846c5.691-5.924,15.755-19.46,15.673-20.681c-0.02,0.004-0.051,0.012-0.095,0.03
					c-3.736,1.517-11.53,8.882-14.858,12.027c-0.567,0.535-0.992,0.937-1.228,1.15l-0.465,0.418l0.183-0.598
					c0.356-1.166,0.675-2.347,0.947-3.511c0.123-0.528,0.25-1.057,0.375-1.585c0.315-1.32,0.641-2.686,0.92-4.034
					c0.394-1.903,0.714-3.759,0.319-5.54c-0.003-0.015-0.007-0.027-0.01-0.037c-0.624,0.351-2.876,5.308-4.693,9.309
					c-2.469,5.436-5.022,11.057-6.213,11.953c-0.349,0.262-0.936,0.379-1.701,0.379c-5.326,0.001-19.336-5.647-22.584-7.075
					L205.151,177.169z"/>
			</g>
			<path style="fill:#F3777A;" d="M231.758,183.521c-0.118-0.137-17.864-4.112-26.822-6.225l2.03-7.29
				c0.773,0.346,1.822,0.791,3.049,1.289c-0.11,0.491-0.176,0.988-0.163,1.489c0.038,1.49,0.891,2.655,2.167,3.374
				c1.947,1.098,4.218,1.779,6.354,2.398c2.331,0.676,4.701,1.211,7.061,1.773c2.28,0.544,4.552,1.057,6.682,2.058
				c0.905,0.426,1.804,0.87,2.746,1.21c0.944,0.341,1.933,0.551,2.91,0.773c3.406,0.775,6.857,1.355,10.323,1.789
				c-5.962-0.229-13.002-0.695-14.276-1.28C233.081,184.543,232.296,184.15,231.758,183.521z"/>
			<path style="fill:#F3777A;" d="M236.913,172.881c0.906-5.937,4.38-11.241,5.118-17.2c0.214-0.231,0.361-0.257,0.418-0.001
				c0.41,1.847,0.059,3.788-0.319,5.613c-0.39,1.881-0.859,3.752-1.296,5.623c-0.276,1.183-0.594,2.359-0.95,3.523
				c0.15-0.134,0.376-0.345,0.665-0.618C239.45,170.982,238.257,172.037,236.913,172.881z"/>
			<path style="fill:#F3777A;" d="M240.474,174.49c1.23-1.27,2.535-2.463,3.774-3.724c1.35-1.374,2.626-2.826,3.933-4.24
				c2.707-2.931,5.406-5.87,8.085-8.827c-1.004,2.762-11.339,15.994-15.632,20.462c-0.118,0.123-0.234,0.25-0.351,0.374
				c-0.999,0.142-2.001,0.217-3.009,0.145C238.045,177.099,239.263,175.742,240.474,174.49z"/>
		</g>
	</g>
	<g>
		<g>
			<g>
				<path style="fill:#9FA1A4;" d="M203.913,108.552c-10.012-6.413-22.329-9.302-34.298-12.018
					c-5.82-1.321-11.643-2.739-17.229-4.866c-1.479-0.563-2.936-1.18-4.365-1.854c-2.541-1.689-5.317-3.005-7.811-4.764
					c-2.866-2.022-5.537-4.506-8.879-5.734c-4.905-1.802-10.471-0.211-15.046,1.812c-2.586,1.144-5.058,2.544-7.412,4.109
					c-0.716,0.319-1.411,0.728-2.074,1.237c-0.674,0.517-1.321,1.077-1.95,1.662c-0.668,0.539-1.314,1.102-1.921,1.695
					c-0.598,0.585-1.101,1.215-1.518,1.879c-1.882,2.109-3.617,4.359-5.115,6.757c-2.649,4.242-5.01,9.528-3.92,14.639
					c0.743,3.482,2.825,6.477,4.422,9.6c1.39,2.718,2.3,5.651,3.613,8.405c0.465,1.51,0.87,3.04,1.219,4.583
					c1.317,5.831,1.898,11.796,2.383,17.743c0.487,5.971,0.869,11.96,1.771,17.888c0.934,6.142,2.47,12.197,5.149,17.824
					c4.409,9.263,12.068,17.163,21.661,21.019c10.5,4.221,21.731,2.087,32.137-1.345c28.075-9.257,56.047-36.269,57.857-67.215
					C223.387,127.935,215.134,115.739,203.913,108.552z"/>
				<path style="fill:#526075;" d="M145.292,212.689c-4.223,0-8.538-0.658-12.763-2.356c-9.201-3.699-17.13-11.392-21.753-21.106
					c-2.419-5.082-4.108-10.928-5.164-17.873c-0.75-4.937-1.148-9.995-1.532-14.886c-0.079-1.005-0.158-2.009-0.24-3.013
					c-0.464-5.69-1.031-11.745-2.379-17.719c-0.351-1.553-0.76-3.09-1.215-4.57c-0.593-1.239-1.118-2.557-1.626-3.832
					c-0.602-1.512-1.224-3.075-1.976-4.545c-0.409-0.799-0.858-1.606-1.292-2.386c-1.271-2.283-2.587-4.644-3.145-7.257
					c-0.905-4.24,0.384-9.07,3.942-14.767c1.419-2.272,3.146-4.553,5.133-6.781c0.414-0.665,0.934-1.308,1.526-1.887
					c0.569-0.557,1.201-1.115,1.933-1.706c0.681-0.635,1.323-1.182,1.953-1.665c0.656-0.504,1.366-0.927,2.109-1.258
					c2.462-1.639,4.964-3.026,7.413-4.109c6.142-2.717,11.106-3.311,15.176-1.816c2.509,0.922,4.66,2.557,6.741,4.139
					c0.711,0.54,1.445,1.098,2.178,1.616c1.349,0.951,2.809,1.788,4.22,2.598c1.191,0.683,2.422,1.389,3.586,2.163
					c1.383,0.649,2.848,1.271,4.331,1.836c5.725,2.18,11.639,3.596,17.205,4.859c11.29,2.562,24.086,5.465,34.353,12.041
					c12.305,7.881,19.491,20.609,18.753,33.216c-0.852,14.578-7.465,29.049-19.124,41.847
					c-10.517,11.546-24.678,20.848-38.852,25.522C159.097,210.867,152.321,212.689,145.292,212.689z M126.68,78.701
					c-3.002,0-6.418,0.859-10.324,2.587c-2.43,1.075-4.916,2.453-7.387,4.095c-0.744,0.334-1.43,0.744-2.064,1.231
					c-0.621,0.476-1.255,1.017-1.937,1.652c-0.733,0.592-1.357,1.143-1.918,1.692c-0.573,0.561-1.075,1.182-1.492,1.847
					c-1.992,2.236-3.707,4.502-5.115,6.757c-3.508,5.617-4.782,10.363-3.897,14.51c0.547,2.563,1.849,4.9,3.109,7.161
					c0.436,0.783,0.887,1.592,1.298,2.396c0.759,1.485,1.384,3.056,1.989,4.575c0.506,1.27,1.029,2.583,1.626,3.835
					c0.468,1.512,0.879,3.058,1.231,4.619c1.354,5.996,1.921,12.065,2.387,17.767c0.082,1.005,0.161,2.01,0.24,3.015
					c0.384,4.885,0.781,9.937,1.529,14.861c1.05,6.91,2.73,12.725,5.134,17.776c4.587,9.636,12.449,17.266,21.57,20.933
					c11.154,4.485,22.97,1.635,32.018-1.348c14.119-4.656,28.226-13.923,38.704-25.426c11.604-12.739,18.186-27.136,19.034-41.634
					c0.73-12.482-6.395-25.09-18.594-32.903l0,0c-10.216-6.543-22.98-9.439-34.243-11.995c-5.579-1.266-11.506-2.685-17.252-4.873
					c-1.492-0.568-2.964-1.193-4.377-1.859c-1.177-0.78-2.404-1.484-3.589-2.163c-1.418-0.814-2.885-1.655-4.247-2.616
					c-0.738-0.521-1.475-1.081-2.188-1.623c-2.061-1.567-4.191-3.186-6.651-4.09C129.859,78.961,128.332,78.701,126.68,78.701z"/>
			</g>
		</g>
		<g style="opacity:0.38;">
			<path style="fill:#9FA1A4;" d="M203.913,108.552c-10.012-6.413-22.329-9.302-34.298-12.018
				c-5.819-1.32-11.643-2.738-17.229-4.865c-1.479-0.563-2.936-1.18-4.365-1.854c-2.541-1.689-5.317-3.005-7.811-4.764
				c-2.866-2.022-5.537-4.506-8.879-5.734c-4.905-1.802-10.471-0.211-15.046,1.812c-2.586,1.144-5.058,2.544-7.412,4.109
				c-0.716,0.319-1.411,0.728-2.074,1.237c-0.674,0.517-1.321,1.077-1.95,1.662c-0.668,0.54-1.314,1.101-1.921,1.695
				c-0.598,0.585-1.101,1.215-1.518,1.879c-1.882,2.109-3.617,4.359-5.115,6.757c-2.649,4.242-5.01,9.528-3.919,14.639
				c0.743,3.482,2.825,6.477,4.422,9.6c1.39,2.718,2.3,5.652,3.613,8.406c0.465,1.51,0.87,3.04,1.219,4.583
				c1.317,5.83,1.898,11.796,2.383,17.743c0.487,5.971,0.869,11.96,1.77,17.888c0.934,6.142,2.47,12.197,5.149,17.824
				c4.409,9.263,12.068,17.162,21.661,21.019c10.5,4.221,21.731,2.087,32.137-1.345c28.075-9.257,56.047-36.269,57.857-67.215
				C223.387,127.935,215.134,115.739,203.913,108.552z M205.831,131.229c0.691,1.202,1.254,2.529,1.355,3.926
				c0.009,0.118-0.094,0.253-0.227,0.197c-2.131-0.91-3.572-2.785-5.345-4.191c1.399,1.317,2.611,2.833,3.659,4.442
				c1.816,2.788,3.11,5.844,3.867,9.082c0.345,1.476,0.602,3.034,0.453,4.554c-0.118,1.201-0.548,2.407-1.637,3.046
				c-0.066,0.039-0.158,0.009-0.206-0.043c-0.715-0.771-1.217-1.661-1.631-2.602c-0.397,3.92-1.389,7.775-2.861,11.441
				c-2.219,5.526-5.449,10.608-9.181,15.231c-3.774,4.674-8.072,8.913-12.653,12.793c-5.189,4.395-10.865,8.436-17.383,10.585
				c-3.307,1.091-6.836,1.74-10.322,1.378c-3.06-0.317-5.968-1.333-8.857-2.343c2.26,1.686,4.899,2.781,7.216,4.39
				c0.117,0.081,0.093,0.299-0.064,0.315c-5.169,0.542-9.634-2.342-13.862-4.928c1.323,2.082,3.544,3.66,4.212,6.1
				c0.023,0.083-0.05,0.197-0.139,0.203c-0.452,0.029-0.903,0.029-1.354-0.009c-2.024-0.169-3.96-0.956-5.724-1.928
				c-1.905-1.05-3.663-2.36-5.297-3.792c-1.651-1.448-3.168-3.008-4.421-4.819c-1.485-2.146-2.621-4.511-3.455-6.981
				c-1.653-4.898-2.155-10.111-2.678-15.227c-0.522-5.113-0.97-10.25-2.031-15.287c-0.585-2.78-1.373-5.532-2.463-8.152
				c-1.344-2.434-2.798-4.807-4.406-7.09c-0.07-0.1-0.046-0.206,0.056-0.271c1.212-0.764,2.765-0.386,4.007,0.099
				c1.176,0.458,2.384,1.069,3.41,1.807c0.536,0.386,1.032,0.835,1.59,1.189c0.431,0.274,0.857,0.404,1.194-0.07
				c0.903-1.269,0.532-2.876,0.116-4.242c-0.414-1.358-1.001-2.734-0.985-4.177c0.002-0.153,0.211-0.211,0.304-0.101
				c0.901,1.053,1.551,2.312,2.4,3.408c0.668,0.863,1.699,2.177,2.931,2.098c1.373-0.089,1.956-1.712,2.059-2.858
				c0.14-1.561-0.187-3.145-0.477-4.671c-0.242-1.269-0.604-2.628-0.471-3.93c0.016-0.153,0.2-0.211,0.304-0.102
				c0.956,0.999,1.609,2.286,2.387,3.419c0.353,0.514,0.723,1.025,1.158,1.473c0.319,0.328,0.722,0.691,1.194,0.759
				c0.501,0.072,0.9-0.282,1.178-0.659c0.517-0.701,0.829-1.574,1.049-2.409c1.057-4.017-0.3-8.352-1.663-12.125
				c-0.058-0.16,0.098-0.311,0.253-0.219c1.473,0.874,2.903,1.834,4.459,2.559c1.359,0.634,2.849,1.111,4.366,1.002
				c1.545-0.11,3.231-0.864,4.109-2.187c0.709-1.07,0.45-2.302-0.044-3.401c-0.539-1.201-1.286-2.295-1.846-3.486
				c-0.046-0.098,0.012-0.229,0.125-0.246c1.402-0.205,2.835,0.204,4.186,0.535c1.319,0.324,2.716,0.716,4.087,0.577
				c1.12-0.113,2.364-0.742,2.699-1.896c0.31-1.067-0.165-2.242-0.571-3.216c-0.402-0.965-0.92-1.927-1.102-2.967
				c-0.021-0.121,0.072-0.199,0.183-0.205c0.894-0.05,1.826,0.23,2.694,0.41c0.973,0.201,1.965,0.418,2.962,0.434
				c0.716,0.012,1.635-0.1,1.709-0.977c0.073-0.861-0.408-1.774-0.751-2.534c-0.327-0.725-0.742-1.469-0.879-2.262
				c-0.021-0.118,0.103-0.252,0.226-0.196c2.104,0.951,3.714,2.629,5.559,3.97c2.004,1.457,4.413,2.408,6.703,3.319
				c2.112,0.84,4.258,1.59,6.39,2.378c2.155,0.797,4.245,1.707,6.323,2.687c4.129,1.947,8.178,4.11,11.912,6.746
				c2.555,1.804,4.927,3.971,7.009,6.301C203.993,128.504,205.014,129.807,205.831,131.229z"/>
		</g>
	</g>
	<g>
		<g>
			<path style="fill:#485E7C;" d="M96.81,48.986c-9.695-5.035-20.04-1.078-24.243,2.675c-4.309,3.631-9.688,13.312-6.073,23.622
				c8.211,23.414,30.18,48.858,35.6,73.744c0.281,1.29,6.098-12.598,6.09-17.962c0.139,0.169,0.279,0.338,0.419,0.506
				c0.421,0.506,0.825,1.025,1.256,1.523c0.504,0.581,1.039,1.146,1.646,1.619c0.528,0.411,1.156,0.791,1.836,0.86
				c0.74,0.075,1.449-0.22,1.863-0.847c0.444-0.673,0.561-1.519,0.586-2.308c0.034-1.071-0.106-2.147-0.299-3.199
				c-0.228-1.247-0.54-2.481-0.902-3.7c0.522,0.411,1.056,0.808,1.602,1.186c2.049,1.42,4.604,2.844,7.158,1.965
				c1.273-0.438,2.347-1.397,2.99-2.572c0.632-1.156,0.843-2.504,0.823-3.808c-0.021-1.381-0.296-2.725-0.649-4.054
				c-0.42-1.581-0.899-3.147-1.462-4.683c-0.126-0.342-0.257-0.684-0.391-1.025c0.485,0.369,0.981,0.726,1.49,1.065
				c2.4,1.595,5.153,2.913,8.056,3.178c1.398,0.127,2.801-0.008,4.133-0.459c1.276-0.432,2.559-1.167,3.103-2.465
				c0.544-1.299,0.287-2.771-0.09-4.078c-0.577-1.998-1.468-3.903-2.548-5.678c-0.124-0.204-0.254-0.403-0.385-0.602
				c0.574,0.253,1.147,0.506,1.719,0.764c2.504,1.132,5.111,2.452,7.914,2.54c0.667,0.021,1.338-0.042,1.981-0.221
				c0.549-0.152,1.106-0.382,1.492-0.817c0.658-0.742,0.418-1.764-0.007-2.556c-0.587-1.095-1.464-2.019-2.31-2.915
				c-0.645-0.683-1.307-1.349-1.983-2.002c5.224,0.626,17.228-3.706,16.099-4.201C136.24,82.195,118.829,60.422,96.81,48.986z"/>
			<path style="fill:#006488;" d="M102.164,149.285c-0.093,0-0.203-0.057-0.239-0.221c-3.048-13.994-11.402-28.272-19.481-42.081
				C76.004,95.976,69.921,85.579,66.33,75.34c-3.678-10.489,1.805-20.172,6.125-23.812c4.21-3.759,14.571-7.819,24.435-2.696
				c9.769,5.073,18.537,12.102,27.819,19.543c11.613,9.309,23.621,18.935,38.688,25.547c0.168,0.074,0.196,0.218,0.169,0.318
				c-0.288,1.054-10.778,4.563-15.867,4.257c0.574,0.563,1.124,1.122,1.638,1.667l0.025,0.027c0.846,0.895,1.72,1.821,2.312,2.925
				c0.342,0.637,0.793,1.841-0.016,2.753c-0.454,0.513-1.117,0.741-1.575,0.869c-0.626,0.174-1.31,0.247-2.033,0.228
				c-2.568-0.081-4.95-1.171-7.254-2.225c-0.243-0.111-0.485-0.222-0.726-0.331c-0.395-0.178-0.791-0.354-1.188-0.529
				c0.025,0.039,0.049,0.079,0.073,0.119c1.156,1.899,2.019,3.823,2.566,5.72c0.349,1.211,0.674,2.781,0.083,4.193
				c-0.478,1.142-1.557,2.004-3.207,2.562c-1.313,0.444-2.728,0.601-4.205,0.467c-2.547-0.232-5.285-1.31-8.136-3.206
				c-0.331-0.22-0.666-0.454-1.015-0.709c0.059,0.155,0.117,0.31,0.174,0.465c0.536,1.463,1.016,3,1.467,4.698
				c0.292,1.102,0.631,2.564,0.654,4.095c0.023,1.517-0.261,2.827-0.845,3.894c-0.68,1.245-1.805,2.212-3.085,2.653
				c-2.636,0.906-5.292-0.585-7.313-1.986c-0.394-0.273-0.792-0.563-1.187-0.864c0.323,1.137,0.572,2.19,0.758,3.204
				c0.238,1.3,0.33,2.298,0.301,3.235c-0.021,0.661-0.106,1.629-0.614,2.399c-0.437,0.663-1.194,1.01-2.026,0.924
				c-0.6-0.061-1.229-0.354-1.925-0.896c-0.675-0.526-1.248-1.154-1.671-1.642c-0.267-0.307-0.522-0.623-0.779-0.939
				c-0.159-0.196-0.318-0.392-0.479-0.586c-0.042-0.051-0.084-0.101-0.125-0.151c-0.29,5.153-5.148,17.643-6.156,17.752
				C102.18,149.284,102.172,149.285,102.164,149.285z M86.97,46.764c-6.15,0-11.543,2.577-14.287,5.027
				c-4.253,3.583-9.645,13.111-6.025,23.435c3.579,10.206,9.654,20.589,16.085,31.582c8.065,13.784,16.403,28.036,19.489,42.038
				c1.058-1.257,5.786-12.863,5.778-17.781l-0.001-0.485l0.308,0.375c0.139,0.169,0.278,0.337,0.418,0.505
				c0.163,0.195,0.323,0.393,0.482,0.59c0.254,0.313,0.507,0.626,0.771,0.93c0.413,0.477,0.97,1.088,1.622,1.596
				c0.643,0.501,1.214,0.77,1.747,0.824c0.698,0.071,1.336-0.217,1.701-0.77c0.459-0.696,0.538-1.599,0.557-2.218
				c0.029-0.912-0.062-1.887-0.296-3.162c-0.211-1.152-0.505-2.356-0.898-3.681l-0.156-0.524l0.43,0.338
				c0.528,0.416,1.064,0.813,1.593,1.179c2.075,1.439,4.528,2.795,7.002,1.943c1.199-0.413,2.254-1.321,2.894-2.491
				c0.554-1.013,0.824-2.265,0.802-3.722c-0.022-1.494-0.355-2.929-0.643-4.012c-0.448-1.688-0.925-3.215-1.458-4.668
				c-0.125-0.341-0.255-0.681-0.389-1.021l-0.227-0.576l0.493,0.374c0.521,0.396,1.006,0.743,1.481,1.059
				c2.803,1.863,5.487,2.922,7.976,3.149c1.429,0.131,2.796-0.021,4.062-0.45c1.551-0.525,2.56-1.322,2.999-2.368
				c0.55-1.312,0.237-2.807-0.096-3.962c-0.539-1.867-1.39-3.763-2.529-5.636c-0.123-0.202-0.252-0.4-0.382-0.597l-0.322-0.492
				l0.759,0.336c0.5,0.221,1.001,0.442,1.499,0.667c0.241,0.109,0.484,0.22,0.727,0.332c2.273,1.04,4.623,2.115,7.12,2.193
				c0.692,0.023,1.338-0.051,1.929-0.215c0.416-0.116,1.015-0.321,1.409-0.765c0.669-0.755,0.269-1.802-0.03-2.359
				c-0.57-1.064-1.428-1.973-2.258-2.851l-0.025-0.027c-0.615-0.651-1.281-1.323-1.977-1.997l-0.371-0.358l0.512,0.061
				c4.839,0.577,15.078-3.071,15.934-3.902c-15.076-6.631-27.081-16.255-38.691-25.561c-9.269-7.43-18.023-14.448-27.762-19.506
				C93.448,47.436,90.11,46.764,86.97,46.764z"/>
		</g>
		<path style="fill:#485E7C;" d="M97.273,130.577c-1.547-3.915-3.336-7.73-5.232-11.486c-2.312-4.58-4.717-9.112-7.175-13.616
			c-5.047-9.249-10.298-18.394-15.054-27.799c-1.675-3.312-2.647-6.939-2.453-10.668c0.183-3.516,1.349-6.877,2.918-10.003
			c1.244-2.48,2.749-4.879,4.557-7.004c-0.876,0.538-1.64,1.1-2.266,1.659c-4.309,3.631-9.688,13.312-6.073,23.622
			c8.157,23.262,29.887,48.527,35.485,73.259C101.297,142.38,99.55,136.341,97.273,130.577z"/>
		<path style="opacity:0.51;fill:#485E7C;" d="M163.327,94.081c-27.012-11.854-44.403-33.537-66.335-44.998
			c-0.494,0.403-0.966,0.837-1.406,1.315c-1.568,1.705-2.772,3.743-3.41,5.974c-0.609,2.126-0.588,4.469-0.188,6.631
			c0.402,2.169,1.253,4.258,2.568,6.036c0.061,0.083,0.057,0.228-0.056,0.27c-2.485,0.937-4.784,2.914-5.642,5.481
			c-0.046,0.137-0.202,0.142-0.296,0.058c-2.423-2.16-5.635-3.078-8.841-2.98c-2.271,0.07-4.665,0.519-6.608,1.748
			c-1.683,1.065-3.136,2.531-4.304,4.137c-0.308,0.424-0.6,0.867-0.871,1.324c2.688,6.612,6.321,13.372,10.243,20.224
			c0.584,0.002,1.168-0.023,1.747-0.09c1.341-0.157,2.701-0.503,3.928-1.071c1.36-0.63,2.588-1.52,4.033-1.961
			c0.072-0.022,0.159,0.033,0.189,0.096c0.145,0.3,0.265,0.611,0.375,0.926c0.547,1.565,0.888,3.199,1.535,4.73
			c0.291,0.689,0.644,1.383,1.178,1.917c0.437,0.437,1.023,0.703,1.616,0.856c1.403,0.362,2.937,0.217,4.352,0.009
			c1.593-0.234,3.163-0.616,4.707-1.065c3.455-1.004,6.813-2.339,9.778-4.408c3.336-2.328,6.062-5.413,8.126-8.909
			c2.138-3.621,3.568-7.62,4.546-11.699c0.029-0.12,0.171-0.135,0.261-0.089c3.008,1.554,5.86,3.386,8.672,5.267
			c1.43,0.956,2.838,1.906,4.331,2.761c1.568,0.897,3.146,1.776,4.691,2.713c1.52,0.921,3.04,1.884,4.397,3.039
			c0.84,0.715,1.943,1.679,2.074,2.854c0.009,0.082-0.024,0.146-0.096,0.189c-1.07,0.633-2.322,0.846-3.552,0.835
			c-2.418-0.022-4.813-0.801-7.037-1.727c0.735,0.602,1.465,1.21,2.182,1.832c1.19,1.031,2.358,2.091,3.465,3.212
			c0.87,0.881,1.731,1.802,2.419,2.836c0.387,0.582,0.898,1.387,0.708,2.124c-0.265,1.028-1.741,0.905-2.523,0.75
			c-1.767-0.348-3.435-1.228-4.998-2.092c-1.439-0.795-2.825-1.68-4.261-2.48c-0.045-0.025-0.09-0.051-0.135-0.076
			c0.216,0.363,0.429,0.729,0.636,1.097c0.761,1.352,1.464,2.743,2.026,4.19c0.467,1.202,0.865,2.47,0.948,3.764
			c0.063,0.983-0.068,2.041-0.699,2.836c-0.698,0.879-1.813,1.233-2.894,1.331c-2.061,0.187-4.145-0.329-6.051-1.08
			c-2.494-0.984-4.803-2.416-6.945-4.017c-0.55-0.411-1.089-0.835-1.62-1.271c0.711,1.458,1.378,2.938,1.98,4.444
			c0.64,1.601,1.214,3.234,1.647,4.904c0.366,1.414,0.647,2.877,0.634,4.342c-0.01,1.095-0.198,2.283-0.889,3.169
			c-0.711,0.913-1.816,1.275-2.939,1.315c-2.085,0.073-4.028-0.829-5.653-2.074c-1.442-1.104-2.687-2.445-3.826-3.864
			c0.646,1.499,1.235,3.023,1.717,4.581c0.329,1.064,0.613,2.152,0.745,3.259c0.099,0.829,0.138,1.728-0.146,2.528
			c-0.233,0.656-0.711,1.152-1.386,1.345c-1.101,0.316-2.068-0.331-2.82-1.081c-1.032-1.031-1.815-2.306-2.579-3.539
			c-0.374-0.603-0.739-1.211-1.126-1.805c-0.175-0.269-0.357-0.539-0.554-0.796c0.014,0.086,0.028,0.172,0.041,0.259
			c0.364,2.342,0.632,4.715,0.524,7.088c-0.054,1.188-0.207,2.373-0.482,3.531c-0.271,1.143-0.691,2.233-1.143,3.314
			c-0.588,1.406-1.623,3.629-3.516,3.218c-0.204-0.044-0.4-0.116-0.588-0.204c0.87,2.558,1.606,5.113,2.161,7.661
			c0.281,1.29,6.098-12.598,6.09-17.962c0.139,0.169,0.279,0.338,0.419,0.506c0.421,0.506,0.825,1.025,1.256,1.523
			c0.504,0.581,1.039,1.146,1.646,1.619c0.528,0.411,1.156,0.791,1.836,0.86c0.74,0.075,1.449-0.22,1.863-0.847
			c0.444-0.672,0.561-1.519,0.586-2.308c0.034-1.071-0.106-2.147-0.299-3.199c-0.228-1.247-0.54-2.481-0.902-3.7
			c0.522,0.411,1.056,0.808,1.602,1.186c2.049,1.42,4.603,2.844,7.158,1.965c1.273-0.438,2.347-1.397,2.989-2.572
			c0.632-1.155,0.843-2.504,0.823-3.808c-0.021-1.381-0.296-2.725-0.649-4.054c-0.42-1.581-0.899-3.147-1.462-4.683
			c-0.126-0.342-0.256-0.684-0.391-1.024c0.485,0.368,0.981,0.726,1.49,1.065c2.4,1.595,5.152,2.913,8.056,3.178
			c1.398,0.127,2.801-0.008,4.133-0.459c1.276-0.432,2.559-1.167,3.103-2.465c0.544-1.299,0.287-2.771-0.09-4.077
			c-0.577-1.999-1.468-3.903-2.548-5.678c-0.124-0.204-0.254-0.403-0.385-0.602c0.574,0.253,1.147,0.506,1.719,0.764
			c2.504,1.132,5.112,2.452,7.914,2.54c0.667,0.021,1.338-0.042,1.981-0.221c0.549-0.152,1.106-0.382,1.492-0.817
			c0.658-0.742,0.418-1.764-0.007-2.556c-0.587-1.095-1.464-2.019-2.31-2.915c-0.645-0.683-1.307-1.349-1.983-2.002
			C152.452,98.908,164.456,94.576,163.327,94.081z"/>
		<g>
			<g>
				<g>
					<g>
						<path style="fill:#FFFFFF;" d="M114.894,54.714c4.089,4.714,3.582,11.85-1.132,15.939c-4.714,4.089-11.85,3.582-15.939-1.132
							c-4.089-4.714-3.582-11.85,1.132-15.939C103.668,49.494,110.805,50,114.894,54.714z"/>
						<path style="fill:#AFC4C4;" d="M106.366,73.585c-3.213,0-6.409-1.338-8.674-3.95c-2.008-2.315-2.995-5.273-2.778-8.33
							c0.217-3.057,1.612-5.846,3.927-7.854c4.779-4.145,12.039-3.63,16.184,1.149c2.008,2.315,2.994,5.273,2.777,8.33
							c-0.217,3.057-1.612,5.846-3.927,7.854C111.709,72.664,109.032,73.585,106.366,73.585z M106.351,50.998
							c-2.585,0-5.181,0.893-7.283,2.716c-2.245,1.947-3.597,4.652-3.807,7.616c-0.211,2.964,0.746,5.833,2.693,8.077
							c4.02,4.634,11.06,5.134,15.694,1.114c2.245-1.947,3.597-4.652,3.807-7.616c0.211-2.964-0.746-5.833-2.693-8.077v0
							C112.566,52.296,109.466,50.998,106.351,50.998z"/>
					</g>
					<path style="opacity:0.63;fill:#E0E1E2;" d="M98.954,53.583c-4.714,4.089-5.221,11.225-1.132,15.939
						c4.089,4.714,11.225,5.221,15.939,1.132c4.714-4.089,5.221-11.225,1.132-15.939C110.805,50,103.668,49.494,98.954,53.583z
						 M111.95,68.564c-3.947,3.423-9.921,2.999-13.345-0.947c-3.424-3.947-2.999-9.921,0.947-13.345
						c3.947-3.423,9.921-2.999,13.345,0.947S115.896,65.14,111.95,68.564z"/>
					<g>
						<path style="fill:#05180F;" d="M111.637,57.412c2.715,3.129,2.378,7.867-0.751,10.581c-3.129,2.715-7.867,2.378-10.581-0.751
							c-2.714-3.129-2.378-7.867,0.751-10.581C104.185,53.947,108.923,54.283,111.637,57.412z"/>
						<path style="fill:#FFFFFF;" d="M103.283,61.273c0.722,0.832,0.633,2.092-0.2,2.814c-0.832,0.722-2.092,0.632-2.814-0.2
							c-0.722-0.832-0.632-2.092,0.2-2.814C101.301,60.351,102.561,60.441,103.283,61.273z"/>
					</g>
				</g>
			</g>
			<g>
				<g>
					<g>
						<path style="fill:#FFFFFF;" d="M87.479,78.494c4.089,4.714,3.582,11.85-1.132,15.939c-4.714,4.089-11.85,3.582-15.939-1.132
							c-4.089-4.714-3.583-11.85,1.132-15.939C76.254,73.274,83.39,73.78,87.479,78.494z"/>
						<path style="fill:#AFC4C4;" d="M78.951,97.365c-3.213,0-6.408-1.338-8.674-3.95c-4.145-4.778-3.63-12.039,1.149-16.184
							c4.779-4.145,12.039-3.63,16.184,1.149v0c4.145,4.778,3.63,12.039-1.149,16.184C84.295,96.444,81.617,97.365,78.951,97.365z
							 M78.936,74.777c-2.585,0-5.181,0.894-7.283,2.716c-4.634,4.02-5.134,11.06-1.114,15.694
							c4.02,4.634,11.061,5.134,15.695,1.114c4.634-4.02,5.134-11.06,1.114-15.694C85.151,76.075,82.052,74.777,78.936,74.777z"/>
					</g>
					<path style="opacity:0.63;fill:#E0E1E2;" d="M71.54,77.363c-4.714,4.089-5.221,11.225-1.132,15.939
						c4.089,4.714,11.225,5.221,15.939,1.132c4.714-4.089,5.221-11.225,1.132-15.939C83.39,73.78,76.254,73.274,71.54,77.363z
						 M84.535,92.344c-3.947,3.424-9.921,2.999-13.345-0.947c-3.423-3.947-2.999-9.921,0.947-13.345
						c3.947-3.424,9.921-2.999,13.345,0.947S88.482,88.92,84.535,92.344z"/>
					<g>
						<path style="fill:#05180F;" d="M84.223,81.192c2.715,3.129,2.378,7.867-0.751,10.581c-3.129,2.715-7.867,2.378-10.581-0.751
							c-2.715-3.129-2.378-7.867,0.751-10.581C76.771,77.727,81.508,78.063,84.223,81.192z"/>
						<path style="fill:#FFFFFF;" d="M75.869,85.053c0.722,0.832,0.632,2.092-0.2,2.814s-2.092,0.632-2.814-0.2
							c-0.722-0.832-0.633-2.092,0.2-2.814C73.887,84.131,75.147,84.221,75.869,85.053z"/>
					</g>
				</g>
			</g>
		</g>
		<g>
			<path style="fill:#47494A;" d="M118.266,76.253c-0.482-0.032-0.973,0.087-1.44,0.196c-0.567,0.132-1.132,0.27-1.693,0.425
				c-2.757,0.763-5.508,1.659-8.07,2.944c-2.536,1.272-4.921,2.876-7.032,4.772c-1.027,0.922-2.061,1.916-2.884,3.029
				c-0.814,1.102-1.382,2.358-1.908,3.616c-0.272,0.649-0.531,1.303-0.796,1.955c-0.034,0.082-0.037,0.164-0.025,0.238
				c-0.421,0.721-0.84,1.443-1.263,2.163c-0.93,1.584-2.002,3.136-2.155,5.019c-0.009,0.115,0.044,0.239,0.158,0.277
				c4.433,1.472,9.246,1.387,13.619-0.262c2.144-0.808,4.152-1.984,5.91-3.453c1.867-1.56,3.369-3.448,4.69-5.48
				c1.426-2.193,2.638-4.543,3.411-7.048c0.377-1.22,0.631-2.472,0.759-3.742c0.096-0.958,0.178-1.943,0.036-2.9
				C119.475,77.247,119.151,76.312,118.266,76.253z"/>
			<path style="fill:#616264;" d="M118.83,77.358c0.459,0.785,0.346,1.929,0.285,2.797c-0.076,1.079-0.225,2.149-0.482,3.201
				c-0.594,2.435-1.664,4.738-2.952,6.881c-1.224,2.035-2.626,3.996-4.366,5.622c-1.6,1.495-3.438,2.722-5.433,3.623
				c-4.03,1.821-8.633,2.255-12.938,1.249c-0.488-0.114-0.971-0.25-1.45-0.399c0.204-1.737,1.274-3.25,2.112-4.739
				c0.356-0.632,0.702-1.269,1.05-1.905c0.08,0.001,0.166-0.048,0.235-0.189c0.213-0.435,0.405-0.879,0.594-1.324
				c0.368-0.678,0.735-1.356,1.106-2.033c0.042-0.076-0.045-0.202-0.108-0.104c-0.077,0.119-0.15,0.24-0.226,0.359
				c0.072-0.158,0.142-0.318,0.219-0.474c0.604-1.229,1.394-2.268,2.34-3.253c1.884-1.961,4.06-3.648,6.399-5.033
				c2.318-1.373,4.781-2.374,7.338-3.205c1.302-0.423,2.617-0.799,3.941-1.145C117.152,77.116,118.388,76.602,118.83,77.358z"/>
		</g>
		<g>
			<path style="fill:#47494A;" d="M118.467,75.608c-0.364-0.254-0.728-0.507-1.099-0.75c-0.737-0.482-1.498-0.928-2.281-1.332
				c-1.486-0.766-3.052-1.386-4.67-1.812c-3.13-0.825-6.434-0.901-9.588-0.158c-2.184,0.514-4.231,1.455-6.092,2.687
				c0.047-0.043,0.092-0.087,0.139-0.13c0.001-0.001,0.001-0.004,0.002-0.005c-0.984,0.713-1.886,1.536-2.719,2.424
				c-1.403,1.618-2.561,3.441-3.346,5.446c-1.181,3.017-1.573,6.299-1.198,9.514c0.193,1.662,0.586,3.299,1.134,4.879
				c0.289,0.832,0.623,1.648,0.996,2.446c0.188,0.402,0.387,0.798,0.587,1.194c0.108,0.213,0.22,0.487,0.437,0.613
				c0.188,0.109,0.396,0.067,0.594,0.015c0.488-0.13,0.962-0.323,1.422-0.528c1.014-0.451,1.999-0.916,3.066-1.235
				c2.051-0.614,4.201-0.861,6.337-0.882c4.651-0.048,9.728,0.708,13.599,3.475c0.158,0.113,0.28,0.02,0.354-0.125
				c0.154-0.052,0.263-0.16,0.174-0.332c-2.193-4.223-2.223-9.356-1.519-13.954c0.323-2.111,0.872-4.205,1.769-6.149
				c0.467-1.011,1.066-1.92,1.656-2.861c0.268-0.427,0.526-0.868,0.723-1.333c0.08-0.189,0.151-0.389,0.069-0.59
				C118.919,75.895,118.663,75.745,118.467,75.608z"/>
			<path style="fill:#616264;" d="M118.269,76.669c-0.194,0.438-0.445,0.854-0.7,1.258c-0.58,0.916-1.158,1.809-1.614,2.796
				c-0.413,0.895-0.76,1.817-1.044,2.76c-0.589,1.958-0.904,3.988-1.064,6.023c-0.25,3.171-0.102,6.526,0.896,9.59
				c-0.027,0.085-0.038,0.171-0.018,0.229c0.097,0.288,0.232,0.556,0.374,0.819c-0.241-0.178-0.487-0.349-0.758-0.486
				c-0.055-0.028-0.141-0.029-0.229-0.014c-2.892-1.421-6.192-2.042-9.367-2.242c-2.037-0.129-4.092-0.103-6.113,0.203
				c-0.974,0.147-1.936,0.361-2.88,0.644c-1.042,0.312-2.007,0.758-2.996,1.203c-0.436,0.196-0.883,0.385-1.344,0.516
				c-0.234,0.066-0.36,0.104-0.501-0.109c-0.436-0.659-0.744-1.472-1.055-2.197c-0.666-1.554-1.181-3.174-1.499-4.836
				c-0.598-3.126-0.494-6.366,0.444-9.415c0.932-3.03,2.633-5.756,4.803-8.046c2.574-1.825,5.513-3.123,8.644-3.618
				c3.151-0.498,6.374-0.143,9.384,0.891c1.6,0.549,3.131,1.287,4.576,2.167c0.673,0.41,1.435,0.83,2.026,1.354
				C118.423,76.327,118.367,76.447,118.269,76.669z"/>
			<path style="fill:#616264;" d="M100.525,91.79c-1.391,0.012-2.816,0.19-4.122,0.687c-1.125,0.428-2.181,1.116-2.811,2.167
				c-0.299,0.5-0.467,1.043-0.546,1.602c0.96-0.438,1.92-0.875,2.893-1.282c1.998-0.836,4.065-1.56,6.219-1.856
				c1.881-0.258,3.772-0.156,5.614,0.257c-0.908-0.49-1.911-0.819-2.902-1.065C103.453,91.949,101.984,91.778,100.525,91.79z"/>
			<path style="opacity:0.51;fill:#616264;" d="M116.206,74.803c-1.445-0.88-2.975-1.617-4.576-2.167
				c-3.01-1.034-6.233-1.389-9.384-0.891c-3.131,0.495-6.07,1.793-8.644,3.618c-0.326,0.344-0.638,0.701-0.942,1.065
				c1.264,0.384,2.469,0.974,3.594,1.66c3.36,2.046,6.156,4.921,8.809,7.791c0.619,0.67,1.226,1.351,1.856,2.01
				c0.716,0.75,1.438,1.495,2.123,2.274c1.246,1.42,2.585,3.087,2.868,5.015c0.017,0.113-0.068,0.21-0.183,0.205
				c-1.869-0.075-3.72-0.366-5.588-0.461c-0.848-0.043-1.698-0.041-2.544,0.032c-0.934,0.081-1.829,0.269-2.729,0.527
				c-1.785,0.512-3.503,1.229-5.167,2.049c-0.991,0.488-1.872,1.118-2.705,1.812c0.906-0.408,1.799-0.808,2.756-1.095
				c0.944-0.282,1.906-0.496,2.88-0.644c2.021-0.306,4.076-0.331,6.113-0.203c3.175,0.2,6.475,0.821,9.367,2.242
				c0.088-0.015,0.174-0.013,0.229,0.014c0.271,0.137,0.517,0.308,0.758,0.486c-0.142-0.264-0.277-0.531-0.374-0.819
				c-0.02-0.059-0.009-0.144,0.018-0.229c-0.998-3.064-1.147-6.419-0.896-9.59c0.161-2.035,0.476-4.065,1.064-6.023
				c0.284-0.943,0.631-1.866,1.044-2.76c0.456-0.987,1.034-1.88,1.614-2.796c0.256-0.404,0.506-0.82,0.7-1.258
				c0.098-0.222,0.154-0.342-0.037-0.511C117.641,75.633,116.879,75.213,116.206,74.803z"/>
		</g>
		<g>
			<path style="fill:#6B7274;" d="M88.485,77.332c-1.387,0.336-2.447,1.364-3.263,2.485c-1.86,2.556-2.645,5.842-2.206,8.967
				c0.364,2.597,1.759,6.268,4.966,6.057c1.476-0.097,2.553-1.12,3.282-2.327c0.885-1.466,1.383-3.123,1.614-4.813
				c0.255-1.87,0.177-3.837-0.184-5.689c-0.203-1.044-0.563-2.291-1.261-3.194C90.897,77.616,89.81,77.012,88.485,77.332z"/>
			<path style="fill:#B2BABC;" d="M92.22,82.04c0.319,1.479,0.394,3.027,0.305,4.535c-0.093,1.581-0.381,3.163-1.01,4.624
				c-0.559,1.298-1.356,2.684-2.766,3.175c-1.144,0.398-2.395,0.064-3.293-0.717c-1.078-0.937-1.626-2.467-1.943-3.823
				c-0.654-2.795-0.245-5.804,1.128-8.325c0.67-1.231,1.572-2.506,2.839-3.177C90.151,76.917,91.745,79.84,92.22,82.04z"/>
			<path style="opacity:0.66;fill:#B2BABC;" d="M87.482,78.332c-0.004,0.002-0.007,0.004-0.011,0.006
				c1.024,0.854,1.559,2.305,1.786,3.587c0.37,2.087,0.191,4.441-0.712,6.377c-0.369,0.792-0.887,1.551-1.648,2.01
				c-0.665,0.401-1.526,0.669-2.258,0.286c-0.669-0.35-1.012-1.103-1.223-1.79c-0.066-0.214-0.118-0.431-0.164-0.65
				c0.047,0.563,0.133,1.124,0.262,1.676c0.317,1.356,0.864,2.885,1.943,3.823c0.898,0.78,2.149,1.115,3.293,0.717
				c1.409-0.491,2.207-1.877,2.766-3.175c0.629-1.461,0.917-3.043,1.01-4.624c0.089-1.507,0.014-3.056-0.305-4.535
				C91.745,79.84,90.151,76.917,87.482,78.332z"/>
		</g>
		<g>
			<path style="fill:#6B7274;" d="M96.212,74.673c0.796,0.819,1.98,1.351,2.984,1.7c1.783,0.619,3.719,0.974,5.606,0.986
				c1.705,0.011,3.416-0.248,4.993-0.918c1.298-0.551,2.463-1.474,2.768-2.921c0.663-3.145-2.775-5.044-5.294-5.772
				c-3.032-0.875-6.396-0.562-9.189,0.917c-1.226,0.649-2.393,1.553-2.921,2.879C94.653,72.811,95.098,73.972,96.212,74.673z"/>
			<path style="fill:#B2BABC;" d="M96.288,70.693c0.844-1.159,2.234-1.872,3.547-2.362c2.689-1.003,5.726-0.983,8.401,0.059
				c1.297,0.505,2.734,1.263,3.51,2.463c0.646,0.999,0.8,2.285,0.244,3.361c-0.685,1.326-2.17,1.92-3.534,2.289
				c-1.535,0.416-3.142,0.478-4.72,0.347c-1.505-0.125-3.027-0.418-4.446-0.943C97.179,75.126,94.511,73.135,96.288,70.693z"/>
			<path style="opacity:0.66;fill:#B2BABC;" d="M96.288,70.693c0.002-0.003,0.006-0.006,0.008-0.01
				c0.701,1.134,2.062,1.869,3.298,2.275c2.013,0.661,4.37,0.817,6.413,0.196c0.836-0.254,1.661-0.659,2.223-1.348
				c0.491-0.602,0.878-1.416,0.602-2.195c-0.252-0.711-0.949-1.158-1.599-1.464c-0.202-0.095-0.41-0.178-0.62-0.254
				c0.551,0.126,1.094,0.29,1.622,0.496c1.297,0.505,2.734,1.263,3.51,2.463c0.646,0.999,0.8,2.285,0.244,3.361
				c-0.685,1.326-2.17,1.919-3.534,2.289c-1.535,0.416-3.142,0.478-4.72,0.347c-1.505-0.125-3.027-0.418-4.446-0.943
				C97.179,75.126,94.511,73.135,96.288,70.693z"/>
		</g>
		<g>
			<path style="fill:#009E94;" d="M99.919,117.204c-0.32-0.326-0.725-0.739-1.201-0.815c-0.547-0.087-0.847,0.492-0.888,0.951
				c-0.155,1.703,0.675,3.263,1.525,4.673c0.095,0.157,0.191,0.314,0.287,0.47c0.077,0.126,0.15,0.286,0.253,0.405
				c0.211,0.373,0.461,0.767,0.824,1.002c0.457,0.297,0.966,0.134,1.295-0.272c0.382-0.472,0.455-1.079,0.398-1.665
				c-0.114-1.164-0.738-2.304-1.349-3.276C100.732,118.153,100.354,117.647,99.919,117.204z"/>
			<path style="fill:#009E94;" d="M95.748,118.228c-0.035-0.042-0.079-0.069-0.135-0.081c-0.035-0.002-0.07-0.005-0.105-0.007
				c-0.076,0.011-0.142,0.042-0.2,0.092c-0.028,0.03-0.057,0.06-0.086,0.09c-0.056,0.075-0.095,0.158-0.117,0.249
				c-0.014,0.062-0.021,0.126-0.03,0.188c-0.002,0.016-0.003,0.032-0.004,0.048c0,0.008,0,0.016,0.001,0.024
				c0.002,0.05,0.003,0.102,0.008,0.152c0.002,0.016,0.004,0.032,0.008,0.047c0.011,0.045,0.023,0.094,0.038,0.138
				c0.019,0.056,0.051,0.103,0.096,0.139c0.012,0.015,0.026,0.028,0.042,0.04c0.002,0.002,0.004,0.003,0.006,0.004
				c0.01,0.006,0.02,0.012,0.03,0.017c0.052,0.025,0.103,0.052,0.159,0.063c0.06,0.014,0.118,0.007,0.174-0.019
				c0.061-0.03,0.112-0.073,0.153-0.127c0.046-0.063,0.079-0.132,0.098-0.208c0.019-0.076,0.023-0.153,0.012-0.23
				c-0.002-0.008-0.002-0.017-0.004-0.026c0.003-0.047,0.003-0.09-0.006-0.142c-0.002-0.009-0.005-0.017-0.007-0.026
				c0-0.001,0-0.002,0-0.003c0-0.004,0-0.008,0.001-0.013c0,0.003-0.001,0.006-0.001,0.008c-0.002-0.01-0.003-0.019-0.005-0.029
				c0-0.022,0.008-0.043,0.006-0.065c0.001-0.065-0.011-0.127-0.036-0.187C95.824,118.31,95.793,118.264,95.748,118.228z"/>
			<g>
				<path style="fill:#009E94;" d="M100.612,131.967c-0.636,0.546-0.948,1.516-0.561,2.298c0.108,0.218,0.224,0.374,0.402,0.538
					c0.029,0.027,0.06,0.054,0.092,0.08c0.163,0.492,0.465,0.993,0.882,1.305c0.139,0.104,0.356,0.069,0.476-0.049
					c0.332-0.327,0.513-0.736,0.55-1.201c0.033-0.406-0.051-0.808-0.166-1.194c-0.184-0.621-0.525-1.222-0.931-1.725
					C101.162,131.779,100.84,131.77,100.612,131.967z"/>
				<path style="fill:#009E94;" d="M101.345,135.272c0.001-0.003,0.002-0.005,0.002-0.008c0.001-0.014,0.001-0.028,0.002-0.042
					c-0.002,0.005-0.004,0.008-0.006,0.016C101.344,135.247,101.345,135.26,101.345,135.272z"/>
			</g>
			<path style="fill:#009E94;" d="M105.01,123.625c-0.091-0.062-0.191-0.087-0.3-0.075c-0.113,0.017-0.213,0.062-0.299,0.137
				c-0.076,0.061-0.136,0.135-0.179,0.22c-0.06,0.087-0.101,0.182-0.123,0.287c-0.035,0.136-0.041,0.273-0.021,0.411
				c0.018,0.121,0.062,0.23,0.133,0.329c0.066,0.089,0.152,0.148,0.259,0.177c0.01,0.003,0.02,0.005,0.03,0.006
				c0.004,0.001,0.009,0.001,0.013,0.002c0.026,0.002,0.056,0.004,0.078,0.005c0.016,0.001,0.052,0.004,0.078,0.005
				c0.002,0,0.004,0,0.006,0c0.004,0,0.007,0,0.01-0.001c0.002,0,0.003,0,0.005-0.001c0.001,0,0.002,0,0.002-0.001
				c0.019-0.004,0.129-0.036,0.148-0.043c0.003-0.001,0.006-0.002,0.008-0.003c0.001,0,0.001-0.001,0.002-0.001
				c0.003-0.002,0.134-0.086,0.137-0.088c0.001-0.001,0.002-0.002,0.003-0.003c0.04-0.042,0.08-0.085,0.12-0.127
				c0.032-0.054,0.065-0.107,0.097-0.161c0.022-0.063,0.045-0.126,0.068-0.189c0.028-0.097,0.036-0.194,0.025-0.293
				c0.003-0.062-0.006-0.121-0.028-0.178c-0.008-0.057-0.029-0.108-0.063-0.155c-0.014-0.036-0.036-0.066-0.062-0.092
				C105.119,123.729,105.072,123.671,105.01,123.625z"/>
			<path style="fill:#009E94;" d="M110.174,123.78c-0.284-0.167-0.582-0.075-0.8,0.156c-0.253,0.268-0.366,0.662-0.313,1.026
				c0.063,0.434,0.186,0.868,0.374,1.27c0.022,0.295,0.1,0.593,0.197,0.858c0.158,0.43,0.379,0.843,0.631,1.226
				c0.211,0.319,0.443,0.637,0.748,0.873c0.298,0.23,0.727-0.077,0.833-0.369c0.188-0.518,0.24-1.006,0.189-1.556
				c-0.043-0.471-0.169-0.942-0.33-1.385C111.416,125.09,110.918,124.218,110.174,123.78z"/>
			<path style="fill:#009E94;" d="M105.645,113.106c-0.234-0.098-0.513,0.12-0.642,0.288c-0.187,0.244-0.254,0.56-0.215,0.861
				c0.038,0.297,0.15,0.577,0.335,0.808c0.069,0.318,0.178,0.629,0.305,0.919c0.27,0.617,0.662,1.283,1.205,1.7
				c0.222,0.171,0.503,0.004,0.65-0.176c0.599-0.737,0.385-1.836,0.008-2.623C106.942,114.158,106.407,113.426,105.645,113.106z"/>
			<path style="fill:#009E94;" d="M115.699,113.028c-0.563-0.48-1.224-1.013-1.959-1.192c-0.616-0.15-1.021,0.618-1.041,1.114
				c-0.073,1.773,1.028,3.362,1.969,4.777c0.738,1.11,1.553,2.407,2.656,3.191c0.144,0.103,0.287,0.173,0.427,0.222
				c0.065,0.061,0.127,0.126,0.194,0.185c0.379,0.334,0.905,0.657,1.421,0.443c0.664-0.276,0.927-1.128,0.919-1.788
				c-0.011-0.818-0.342-1.589-0.732-2.295c-0.46-0.833-1.005-1.61-1.608-2.345C117.264,114.507,116.516,113.725,115.699,113.028z"/>
			<g>
				<path style="fill:#009E94;" d="M119.052,107.517c0.007,0.007,0.014,0.013,0.02,0.02
					C119.065,107.529,119.058,107.523,119.052,107.517c-0.01-0.011-0.021-0.02-0.031-0.03c-0.028-0.029-0.056-0.059-0.083-0.081
					c-0.192-0.157-0.47-0.073-0.64,0.066c-0.216,0.177-0.355,0.488-0.356,0.767c0,0.061,0.004,0.123,0.012,0.184
					c-0.003-0.056-0.006-0.112-0.009-0.167c0.002,0.084,0.009,0.167,0.023,0.248c-0.001-0.001-0.001-0.003-0.001-0.004
					c0.002,0.01,0.003,0.021,0.005,0.03c0.021,0.106,0.057,0.207,0.128,0.299c0.015,0.02,0.036,0.034,0.053,0.052
					c0.035,0.05,0.07,0.1,0.106,0.149c0.047,0.064,0.101,0.122,0.155,0.18c0.07,0.076,0.143,0.154,0.223,0.219l0.002-0.003
					c0.033,0.024,0.069,0.045,0.113,0.056c0.123,0.031,0.271-0.019,0.364-0.102c0.237-0.211,0.317-0.554,0.223-0.853l0.019,0.069
					c-0.039-0.143-0.06-0.29-0.094-0.434c-0.011-0.048-0.025-0.097-0.036-0.147c-0.002-0.045-0.005-0.09-0.009-0.121
					C119.199,107.75,119.142,107.622,119.052,107.517z"/>
				<path style="fill:#009E94;" d="M117.955,108.459l0.011,0.04c-0.005-0.025-0.01-0.051-0.013-0.076
					C117.954,108.435,117.955,108.447,117.955,108.459z"/>
				<path style="fill:#009E94;" d="M117.956,108.47c0-0.003,0-0.007-0.001-0.01c-0.001-0.003-0.001-0.005-0.002-0.008
					C117.954,108.457,117.955,108.464,117.956,108.47z"/>
			</g>
			<path style="fill:#009E94;" d="M128.675,108.553c-0.726-0.674-1.553-1.255-2.408-1.753c-0.377-0.219-0.754,0.009-0.959,0.348
				c-0.225,0.373-0.262,0.852-0.032,1.23c0.225,0.875,0.897,1.586,1.581,2.164c0.783,0.662,1.659,1.222,2.553,1.722
				c0.631,0.353,1.082-0.534,0.998-1.06C130.235,110.121,129.449,109.271,128.675,108.553z"/>
			<path style="fill:#009E94;" d="M120.76,102.389c-0.091-0.086-0.192-0.165-0.302-0.226c-0.082-0.045-0.169-0.089-0.259-0.118
				c-0.125-0.04-0.274,0.004-0.388,0.056c-0.239,0.107-0.376,0.384-0.412,0.628c-0.018,0.121-0.015,0.234,0.017,0.352
				c0.03,0.108,0.092,0.258,0.2,0.313c0.091,0.047,0.175,0.098,0.276,0.119c0.019,0.004,0.037,0.013,0.056,0.019
				c0.009,0.014,0.017,0.03,0.026,0.044c0.176,0.258,0.421,0.45,0.669,0.634c0.144,0.107,0.333,0.057,0.46-0.048
				c0.158-0.129,0.252-0.35,0.257-0.552C121.37,103.126,121.098,102.708,120.76,102.389z"/>
			<g>
				<path style="fill:#009E94;" d="M133.876,101.525c-0.767-0.733-1.685-1.29-2.547-1.902c-0.865-0.615-1.764-1.195-2.699-1.698
					c-0.795-0.427-2.045-1.179-2.974-0.73c-0.639,0.309-0.868,1.137-0.767,1.79c0.083,0.538,0.388,1.024,0.746,1.423
					c0.554,0.619,1.216,1.145,1.918,1.612c0.864,0.694,1.792,1.314,2.738,1.88c0.946,0.566,2.162,1.354,3.307,1.257
					c0.835-0.071,1.318-0.856,1.32-1.644C134.921,102.709,134.432,102.055,133.876,101.525z"/>
				<polygon style="fill:#009E94;" points="133.577,103.804 133.577,103.804 133.577,103.804 				"/>
			</g>
			<path style="fill:#009E94;" d="M130.65,93.24c-0.103-0.094-0.214-0.18-0.33-0.258c-0.111-0.075-0.234-0.128-0.347-0.199
				c-0.271-0.171-0.603-0.035-0.776,0.21c-0.157,0.223-0.256,0.48-0.266,0.755c-0.007,0.223,0.042,0.48,0.188,0.657
				c0.061,0.074,0.14,0.148,0.218,0.207c0.102,0.077,0.235,0.096,0.358,0.08c0.034,0.031,0.066,0.064,0.101,0.093
				c0.146,0.122,0.306,0.208,0.481,0.283c0.175,0.075,0.356,0.093,0.544,0.099c0.045-0.013,0.09-0.026,0.135-0.039
				c0.042-0.027,0.084-0.054,0.126-0.081c0.112-0.092,0.185-0.221,0.233-0.355c0.042-0.118,0.061-0.235,0.054-0.36
				c-0.008-0.145-0.049-0.248-0.121-0.375C131.094,93.683,130.881,93.452,130.65,93.24z"/>
			<path style="fill:#009E94;" d="M140.827,96.714c-1.207-0.61-2.589-1.046-3.956-0.911c-0.449,0.044-0.738,0.604-0.743,1.004
				c-0.015,1.196,1.131,2.025,2.035,2.608c0.995,0.642,2.188,1.286,3.378,1.449c0.241,0.033,0.487,0.039,0.719,0.003
				c0.393,0.019,0.771-0.038,1.124-0.265c0.323-0.209,0.39-0.756,0.271-1.083C143.186,98.23,142.015,97.314,140.827,96.714z"/>
			<path style="fill:#009E94;" d="M135.238,86.75c-0.415-0.375-0.879-0.699-1.362-0.981c-0.483-0.282-1-0.538-1.538-0.695
				c-0.426-0.124-0.928-0.193-1.342,0.011c-0.47,0.232-0.696,0.998-0.356,1.426c0.112,0.141,0.234,0.274,0.361,0.402
				c0.442,0.555,1.096,0.993,1.676,1.299c0.887,0.467,1.893,0.868,2.911,0.842c0.515-0.013,0.663-0.777,0.534-1.148
				C135.958,87.434,135.6,87.078,135.238,86.75z"/>
			<path style="fill:#009E94;" d="M144.083,90.594c-0.296-0.138-0.598-0.26-0.921-0.319c-0.326-0.059-0.652-0.055-0.979-0.019
				c-0.293,0.033-0.5,0.313-0.59,0.567c-0.108,0.302-0.085,0.601,0.08,0.876c0.169,0.281,0.403,0.497,0.691,0.638
				c0.294,0.222,0.629,0.396,0.965,0.535c0.583,0.241,1.331,0.344,1.92,0.072c0.221-0.102,0.362-0.334,0.419-0.562
				c0.051-0.204,0.057-0.529-0.105-0.694C145.128,91.247,144.648,90.858,144.083,90.594z"/>
			<path style="fill:#009E94;" d="M140.702,85.029c-0.188-0.158-0.397-0.294-0.618-0.402c-0.107-0.06-0.219-0.109-0.323-0.139
				c-0.009-0.003-0.019-0.006-0.028-0.009c-0.01-0.003-0.021-0.007-0.031-0.01c0,0.002-0.001,0.004-0.001,0.006
				c-0.031-0.006-0.062-0.013-0.095-0.012c-0.098-0.017-0.192-0.001-0.283,0.048c-0.094,0.048-0.174,0.111-0.244,0.185
				c-0.11-0.002-0.223,0.058-0.295,0.159c-0.131,0.185-0.186,0.478-0.042,0.673c-0.006,0.215,0.046,0.43,0.174,0.609
				c0.225,0.315,0.631,0.572,1.032,0.591c0.292,0.193,0.613,0.337,0.973,0.401c0.274,0.049,0.523-0.155,0.629-0.396
				c0.118-0.271,0.144-0.611-0.037-0.861C141.288,85.558,141,85.278,140.702,85.029z"/>
			<path style="fill:#009E94;" d="M97.153,124.966c-0.084-0.057-0.177-0.08-0.278-0.069c-0.104,0.015-0.197,0.058-0.277,0.127
				c-0.091,0.079-0.162,0.173-0.213,0.283c-0.057,0.121-0.088,0.248-0.095,0.381c0,0.018,0,0.036,0,0.054c0,0.009,0,0.018,0,0.028
				c0,0.002,0,0.004,0,0.005c-0.005,0.095,0.009,0.187,0.044,0.276c0.03,0.078,0.078,0.142,0.145,0.191
				c0.003,0.002,0.006,0.004,0.008,0.006c0.01,0.008,0.021,0.016,0.031,0.024c0.002,0.002,0.005,0.004,0.007,0.005
				c0.001,0.001,0.003,0.002,0.004,0.003c0.084,0.057,0.177,0.08,0.278,0.069c0.104-0.015,0.197-0.057,0.277-0.127
				c0.091-0.079,0.163-0.173,0.214-0.283c0.057-0.121,0.088-0.248,0.095-0.381c0.007-0.121-0.012-0.237-0.055-0.35
				C97.299,125.109,97.238,125.029,97.153,124.966z"/>
			<path style="fill:#009E94;" d="M154.648,91.782c-0.572-0.277-1.17-0.505-1.79-0.645c-0.207-0.047-0.396,0.021-0.555,0.143
				c-0.442-0.066-0.808,0.456-0.799,0.892c0.004,0.212,0.003,0.394,0.078,0.599c0.044,0.118,0.106,0.225,0.169,0.334
				c0.08,0.138,0.175,0.258,0.287,0.371c0.34,0.343,0.707,0.553,1.152,0.74c0.686,0.287,1.468,0.441,2.212,0.408
				c0.299-0.013,0.544-0.308,0.661-0.553c0.132-0.276,0.205-0.7,0.054-0.986C155.796,92.474,155.259,92.078,154.648,91.782z"/>
		</g>
	</g>
</g>
</svg>
