<svg xmlns="http://www.w3.org/2000/svg" width="780" height="540"><path d="m488 82 2.413.602C502.403 85.674 513.193 89.995 524 96l2.754 1.492c37.464 21.288 59.848 59.308 71.445 99.737 7.547 27.946 14.504 65.888 3.801 93.771l-1.062 2.781c-6.064 13.642-17.658 23.487-29.75 31.656l-1.96 1.327c-3.053 2.01-5.656 3.488-9.228 4.236a951 951 0 0 0 3.625 12.188l1.004 3.486c2.1 6.837 3.69 10.101 9.371 14.326a180 180 0 0 1 1 6c2.113 1.882 2.113 1.882 4.875 3.25 7.304 4.278 14.386 9.64 19.125 16.75.125 2.688.125 2.688 0 5l1.813.188C603 393 603 393 604.75 394.875c2.015 5.038 2.569 10.992.418 16.102-1.484 2.256-3.262 4.117-5.168 6.023l-3-1 1-2.062c2.2-6.462.871-11.076-2-16.938l-7 1-1-3.5c-2.92-7.774-10.198-12.82-16.434-17.957C570 375 570 375 569 372l-2.152.035-2.785.027-2.778.036C559 372 559 372 558 371a237 237 0 0 1-.25-5.812c-.591-9.689-3.189-18.86-5.75-28.188-4.39 1.416-8.661 3.023-12.937 4.75l-1.956.786q-4.062 1.635-8.118 3.28c-9.872 4.004-19.603 7.73-29.989 10.184.304 6.872 1.719 12.71 4.16 19.14.906 3.086.987 5.661.84 8.86l1.795.773c2.437 1.356 3.72 2.711 5.482 4.86l1.807 2.195 1.854 2.297 1.841 2.227C527 408.877 527 408.877 527 415l2.625-.25c5.329.395 8.23 2.95 11.688 6.875 2.876 4.048 3.365 7.474 2.687 12.375-1.108 2.578-2.433 4.649-4 7h-2l-.262-1.941c-.983-6.055-2.374-10.62-6.738-15.059-1.634-1.053-3.292-2.073-5-3v-2l-3 2c-4.261-.064-6.389-.496-9.703-3.23l-2.547-2.957-1.393-1.592c-4.067-4.71-7.91-9.617-11.653-14.587-2.507-3.36-2.507-3.36-5.83-5.834-1.874-1.8-1.874-1.8-2.328-5.262q.002-2.135.063-4.268l.018-2.274c.022-2.395.072-4.789.123-7.183q.03-2.438.055-4.874c.044-3.98.113-7.96.195-11.939l-3.577.667C469.846 360.74 453.84 361.133 437 361l-.384 2.318c-.826 3.595-2.615 5.786-4.803 8.745-8.808 12.275-14.101 24.335-14.347 39.493-.15 5.063-.15 5.063-1.997 7.292L414 420v2l1.788.946c2.68 1.425 5.352 2.864 8.024 4.304l2.815 1.488 2.705 1.465 2.491 1.333c2.362 1.589 3.687 3.05 5.177 5.464l.188 2.438c1.163 3.67 3.507 4.496 6.804 6.253 2.366 1.542 3.58 2.87 5.008 5.309 1.024 5.497.695 10.59-2.187 15.438-2.213 3.077-4.672 5.408-7.813 7.562-1.272-2.545-.74-3.316 0-6 .996-6.593-.439-10.658-4.102-16.152-1.847-2.075-1.847-2.075-4.851-2.786-3.794-1.322-4.852-2.89-7.172-6.125-5.09-6.57-11.822-13.253-19.875-15.937-3.857-11.571.573-23.227 5.727-33.586C413.499 384.078 418.52 374.94 424 366l-2.524.838c-11.754 3.85-23.333 6.405-35.726 6.474l-2.167.017c-3.78-.052-6.286-.554-9.583-2.329-2.135-.065-2.135-.065-4.312.313l-2.176.3q-2.9.448-5.797.914c-3.976.506-7.838.693-11.84.723-1.034.03-1.034.03-2.09.063-4.48.034-7.205-.612-10.785-3.313l-2-2c.543-6.087.543-6.087 2-9 .978-11.99-.732-21.833-5-33l-.729-1.978C322.556 300.425 308.302 280.898 285 270h-2c-1.285 1.367-1.285 1.367-2.531 3.176l-1.457 2.01c-.5.701-.998 1.403-1.512 2.127l-1.512 2.091A286 286 0 0 0 270 288h-2c1.356-3.778 3.082-6.757 5.438-10 2.354-3.255 4.536-6.53 6.562-10q-2.842-.974-5.687-1.937l-3.2-1.09c-11.712-3.66-22.3-2.524-33.113 3.027 1.02 2.747 2.105 5.174 3.625 7.688C243 278 243 278 243 280h-2l-5-9-4 2-.121-1.906c-.821-6.732-2.883-10.08-8.191-14.266-8.096-5.507-15.646-9.62-25.688-7.828l-3 2c-2.687-.375-2.687-.375-5-1 .313-2.375.313-2.375 1-5 4.027-2.685 7.348-2.534 12-2 10.887 2.34 19.337 8.053 27 16 .998-2.994 1.28-5.722 1.544-8.851 1.303-14.776 4.755-30.612 14.976-41.942 2.947-3.466 3.956-7.073 5.167-11.394C258.248 175.57 270.706 157.838 286 142l2.203-2.36C321.53 104.833 370.386 87.743 417 81l2.341-.35c21.89-3.14 47.113-4.196 68.659 1.35" fill="#DB0600"/><path d="M334 166c1.774 5.315 2.258 9.856 2.125 15.438l-.027 2.216A627 627 0 0 1 336 189l2.188.816c9.663 4.067 17.57 11.077 25.365 17.916 1.26 1.104 2.53 2.195 3.802 3.284A311 311 0 0 1 373 216l1.688 1.453C394.86 235.945 404.56 267.097 410 293l.5 2.36c2.237 11.028 2.77 21.896 2.813 33.14l.016 3.853c-.074 9.46-.074 9.46-2.329 13.647 6.083.224 12.163.386 18.25.494q3.1.068 6.197.185c13.83.983 13.83.983 25.698-4.984A144 144 0 0 0 465 337c1.41-1.26 2.845-2.495 4.313-3.687 2.36-2.038 4.072-3.812 6-6.313 3.508-4.477 8.755-7.316 13.687-10h2v2l1.938.438C495 320 495 320 496 321c.087 1.562.107 3.127.098 4.691l-.01 2.862-.026 3.01-.013 3.021q-.018 3.708-.049 7.416c2.88-.371 5.751-.77 8.625-1.187l2.45-.307c5.798-.872 8.737-2.395 12.925-6.506l2.188-1.875c2-2.117 2-2.117 3.062-5.227 1.902-4.569 4.677-8.401 7.563-12.398l1.54-2.184c3.325-4.66 6.865-9.02 10.647-13.316l4 1v2h3c1.941 7.626 3.742 15.229 5 23 10.35-5.19 19.792-10.975 29-18l2.219-1.687c4.375-3.531 7.589-7.706 10.781-12.313l1 3c-8.068 15.374-22.91 26.99-38 35h-2a951 951 0 0 0 3.625 12.188l1.004 3.486c2.1 6.837 3.69 10.101 9.371 14.326a180 180 0 0 1 1 6c2.113 1.882 2.113 1.882 4.875 3.25 7.304 4.278 14.386 9.64 19.125 16.75.125 2.688.125 2.688 0 5l1.813.188C603 393 603 393 604.75 394.875c2.015 5.038 2.569 10.992.418 16.102-1.484 2.256-3.262 4.117-5.168 6.023l-3-1 1-2.062c2.2-6.462.871-11.076-2-16.938l-7 1-1-3.5c-2.92-7.774-10.198-12.82-16.434-17.957C570 375 570 375 569 372l-2.152.035c-.92.01-1.839.018-2.785.027l-2.778.036C559 372 559 372 558 371a237 237 0 0 1-.25-5.812c-.591-9.689-3.189-18.86-5.75-28.188-4.39 1.416-8.661 3.023-12.937 4.75l-1.956.786q-4.062 1.635-8.118 3.28c-9.872 4.004-19.603 7.73-29.989 10.184.304 6.872 1.719 12.71 4.16 19.14.906 3.086.987 5.661.84 8.86l1.795.773c2.437 1.356 3.72 2.711 5.482 4.86l1.807 2.195 1.854 2.297 1.841 2.227C527 408.877 527 408.877 527 415l2.625-.25c5.329.395 8.23 2.95 11.688 6.875 2.876 4.048 3.365 7.474 2.687 12.375-1.108 2.578-2.433 4.649-4 7h-2l-.262-1.941c-.983-6.055-2.374-10.62-6.738-15.059-1.634-1.053-3.292-2.073-5-3v-2l-3 2c-4.261-.064-6.389-.496-9.703-3.23l-2.547-2.957-1.393-1.592c-4.067-4.71-7.91-9.617-11.653-14.587-2.507-3.36-2.507-3.36-5.83-5.834-1.874-1.8-1.874-1.8-2.328-5.262q.002-2.135.063-4.268l.018-2.274c.022-2.395.072-4.789.123-7.183q.03-2.438.055-4.874c.044-3.98.113-7.96.195-11.939l-3.577.667C469.846 360.74 453.84 361.133 437 361l-.384 2.318c-.826 3.595-2.615 5.786-4.803 8.745-8.808 12.275-14.101 24.335-14.347 39.493-.15 5.063-.15 5.063-1.997 7.292L414 420v2l1.788.946c2.68 1.425 5.352 2.864 8.024 4.304l2.815 1.488 2.705 1.465 2.491 1.333c2.362 1.589 3.687 3.05 5.177 5.464l.188 2.438c1.163 3.67 3.507 4.496 6.804 6.253 2.366 1.542 3.58 2.87 5.008 5.309 1.024 5.497.695 10.59-2.187 15.438-2.213 3.077-4.672 5.408-7.813 7.562-1.272-2.545-.74-3.316 0-6 .996-6.593-.439-10.658-4.102-16.152-1.847-2.075-1.847-2.075-4.851-2.786-3.794-1.322-4.852-2.89-7.172-6.125-5.09-6.57-11.822-13.253-19.875-15.937-3.857-11.571.573-23.227 5.727-33.586C413.499 384.078 418.52 374.94 424 366l-2.524.838c-11.754 3.85-23.333 6.405-35.726 6.474l-2.167.017c-3.78-.052-6.286-.554-9.583-2.329-2.135-.065-2.135-.065-4.312.313l-2.176.3q-2.9.448-5.797.914c-3.976.506-7.838.693-11.84.723-1.034.03-1.034.03-2.09.063-4.48.034-7.205-.612-10.785-3.313l-2-2c.543-6.087.543-6.087 2-9 .978-11.99-.732-21.833-5-33l-.729-1.978C322.556 300.425 308.302 280.898 285 270h-2c-1.285 1.367-1.285 1.367-2.531 3.176l-1.457 2.01c-.5.701-.998 1.403-1.512 2.127l-1.512 2.091A286 286 0 0 0 270 288h-2c1.356-3.778 3.082-6.757 5.438-10 2.354-3.255 4.536-6.53 6.562-10q-2.842-.974-5.687-1.937l-3.2-1.09c-11.712-3.66-22.3-2.524-33.113 3.027 1.02 2.747 2.105 5.174 3.625 7.688C243 278 243 278 243 280h-2l-5-9-4 2-.121-1.906c-.821-6.732-2.883-10.08-8.191-14.266-8.096-5.507-15.646-9.62-25.688-7.828l-3 2c-2.687-.375-2.687-.375-5-1 .313-2.375.313-2.375 1-5 4.027-2.685 7.348-2.534 12-2 10.887 2.34 19.337 8.053 27 16 .998-2.994 1.28-5.722 1.544-8.851 1.71-19.398 7.777-36.67 22.456-50.149 11.686-9.334 28.355-12.997 42.83-15.348 9.198-1.527 13.655-3.877 19.744-10.941 4.727-5.282 10.207-9.803 17.426-7.711" fill="#373A40"/><path d="M539.875 109.313 545 113c2.287 1.428 4.478 2.779 6.96 3.832 10.383 5.947 18.013 19.176 24.04 29.168.447.736.895 1.471 1.355 2.23C596 179.316 596 179.316 596 192l-14-2-2 6c-4.384 7.793-10.087 11.998-18.277 15.238-29.814 8.341-63.056-2.292-89.16-16.675C454.868 184.438 437.509 170.317 428 152l-1.031-1.879c-3.273-7.015-2.979-15.9-1.535-23.363C429.248 116.476 440.62 107.885 450 103l-12 3c6.982-6.982 18.573-8.948 28-11l2.302-.523c24.59-4.343 50.877 1.055 71.573 14.835" fill="#FA6950"/><path d="M510.78 92.734c2.378.347 2.378.347 5.423.118 3.916.207 6.633 1.973 9.86 4.023l1.958 1.21c7.713 4.859 15.712 10.262 21.979 16.915l-1 2-2.352-1.723c-19.245-13.861-38.147-20.422-61.835-20.527l-3.463-.063c-10.46-.047-20.034 1.982-29.912 5.375l-2.88.973A56 56 0 0 0 442 104l2.75-1.063c3.256-.939 4.177-.892 7.25.063l-1.836.996c-8.941 5.076-20.246 12.496-23.766 22.758-2.161 12.187.003 22.066 6.79 32.246 20.633 28.07 53.607 46.228 87.671 52.348 13.977 2.06 28.322 1.316 42.141-1.348l-.14 3.332c-.363 12.263 1.019 21.962 9.14 31.668 2.646 2.37 2.646 2.37 5 4-7.304 15.682-25.48 23.676-40.828 29.473-21.009 7.596-42.902 8.337-63.353-1.21C461.152 271.548 451.41 263.918 442 255l-2.46-2.3c-6.437-6.204-11.89-12.967-17.29-20.06-1.794-2.353-3.616-4.683-5.437-7.015L414 222l2.313-1.625c4.266-3.77 5.853-7.378 6.25-13-.258-7.424-3.636-14.088-8.532-19.586-6.348-5.786-11.743-8.36-20.402-8.16-3.807.537-5.689 1.958-8.629 4.371h-2c-4.717-9.023-6.299-15.744-6-26l2.309-.848c16.885-6.556 25.629-18.19 33.379-34.12 2.478-5.725 3.595-11.703 1.298-17.663L413 103c32.686-12.173 63.37-15.599 97.78-10.266" fill="#F82905"/><path d="m281 268-1.703 2.54c-2.39 3.585-4.722 7.207-7.047 10.835l-1.246 1.941L268 288c3.095-2.936 5.588-6.03 8.063-9.5 2.283-3.19 4.569-6.372 6.937-9.5 11.744 3.578 20.437 11.56 29 20l2.031 1.992c10.452 11.07 15.833 25.96 20.969 40.008l1.168 3.125c1.79 5.51 2.118 10.873 2.207 16.625l.043 2.151c-.052 5.53-.93 10.652-5.047 14.7-12.685 6.715-27.393 9.545-41.64 9.567l-2.309.01q-2.4.007-4.802.007c-2.416.002-4.831.02-7.247.04-20.92.077-20.92.077-27.373-4.225-2.599-.77-5.195-1.49-7.812-2.187-13.06-3.686-23.345-9.729-34.188-17.813l1.102 2.978a1753 1753 0 0 1 4.025 11.054q.865 2.385 1.746 4.763a754 754 0 0 1 2.502 6.889l.795 2.112c1.829 5.176 2.1 9.744 1.83 15.204v2c-.275 3.39-.684 4.691-3.152 7.105l-2.786 2.082c-10.074 7.197-10.074 7.197-16.87 17.094-.261 2.278-.254 4.429-.192 6.719q-.25 2.784-.562 5.563L196 441c-3.342-1.114-3.616-1.425-5.187-4.375-2.408-5.072-2.38-10.111-1.813-15.625l1-2h2l.234-2.672c.906-3.936 2.29-5.634 5.016-8.578l2.328-2.578c2.428-2.177 4.34-3.189 7.422-4.172l-.875-3.562c-.91-4.069-1.494-8.113-2-12.25-.775-6.212-1.942-12.256-3.25-18.375C197.837 352.33 197.837 352.33 199 345l2-2c7.054.38 13.493 2.42 20 5 1.99.39 3.988.749 6 1 .081-1.603.14-3.208.188-4.812l.105-2.708c-.342-2.896-1.047-3.706-3.293-5.48l1-2 3 2c4.472.72 7.987.582 11.938-1.687C243.283 330.562 244 328.012 244 323l-.734 1.645c-3.659 7.81-3.659 7.81-7.266 9.355-3.5 0-3.5 0-7-1-3.395-3.485-4.978-5.749-5.062-10.625L224 319l5 1 1-5 3-1 2 5 8-1c-1.313-8.17-5.097-12.877-11.5-18-3.359-1.344-5.919-1.398-9.5-1-2.991 1.96-3.84 4.698-5 8-4.11-1.45-7.433-3.511-11-6 4.002-1.6 7.046-.293 11 1l-4-5 5 1-1-3h3l1-3 2-1a104 104 0 0 0 2.438-6.125c1.742-4.686 3.542-9.303 5.562-13.875h6c4 6.75 4 6.75 4 9h2l-1.348-2.082-1.714-2.73-1.723-2.708C237 270 237 270 238 267c1.672-1.133 1.672-1.133 3.75-2.125l2.047-1.008c12.319-4.849 25.723-1.224 37.203 4.133" fill="#FDE5D5"/><path d="M342.813 198c12.047 7.85 22.656 17.41 31.187 29l1.781 2.309C389.606 247.94 398.983 270.536 397 294c-1.793 8.578-5.87 15.011-12.773 20.379C378.304 317.965 371.697 318 365 317c-12.257-3.98-19.526-12.526-26.492-22.916C328.287 278.932 315.543 266.618 300 257c2.49-2.49 3.375-2.297 6.813-2.312 4.272.073 6.692.742 10.187 3.312 2.191.696 2.191.696 4 1l-1-3-2.312-.437C315 255 315 255 312 254c-6.074-.405-9.534.428-15 3h-3l1-3c-11.954-5.278-22.188-8.4-35.276-8.446-5.378-.113-8.451-.984-12.724-4.554-4.328-5.53-4.822-11.102-5.605-17.988-.217-2.929-.217-2.929-1.395-5.012 6.24-12.377 15.626-21.308 28.73-25.972 26.782-8.774 49.37-9.464 74.082 5.972" fill="#53575E"/><path d="m599 293 1 3c-8.068 15.374-22.91 26.99-38 35h-2a951 951 0 0 0 3.625 12.188l1.004 3.486c2.1 6.837 3.69 10.101 9.371 14.326a180 180 0 0 1 1 6c2.113 1.882 2.113 1.882 4.875 3.25 7.304 4.278 14.386 9.64 19.125 16.75.125 2.688.125 2.688 0 5l1.813.188C603 393 603 393 604.75 394.875c2.015 5.038 2.569 10.992.418 16.102-1.484 2.256-3.262 4.117-5.168 6.023l-3-1 1-2.062c2.2-6.462.871-11.076-2-16.938l-7 1-1-3.5c-2.92-7.774-10.198-12.82-16.434-17.957C570 375 570 375 569 372l-2.152.035c-.92.01-1.839.018-2.785.027l-2.778.036C559 372 559 372 558 371a237 237 0 0 1-.25-5.812c-.591-9.689-3.189-18.86-5.75-28.188-4.39 1.416-8.661 3.023-12.937 4.75l-1.956.786q-4.062 1.635-8.118 3.28c-9.872 4.004-19.603 7.73-29.989 10.184.304 6.872 1.719 12.71 4.16 19.14.906 3.086.987 5.661.84 8.86l1.795.773c2.437 1.356 3.72 2.711 5.482 4.86l1.807 2.195 1.854 2.297 1.841 2.227C527 408.877 527 408.877 527 415l2.625-.25c5.329.395 8.23 2.95 11.688 6.875 2.876 4.048 3.365 7.474 2.687 12.375-1.108 2.578-2.433 4.649-4 7h-2l-.262-1.941c-.983-6.055-2.374-10.62-6.738-15.059-1.634-1.053-3.292-2.073-5-3v-2l-3 2c-4.261-.064-6.389-.496-9.703-3.23l-2.547-2.957-1.393-1.592c-4.067-4.71-7.91-9.617-11.653-14.587-2.507-3.36-2.507-3.36-5.83-5.834-1.874-1.8-1.874-1.8-2.328-5.262q.002-2.135.063-4.268l.018-2.274c.022-2.395.072-4.789.123-7.183q.03-2.438.055-4.874c.044-3.98.113-7.96.195-11.939l-3.577.667C469.846 360.74 453.84 361.133 437 361l-.384 2.318c-.826 3.595-2.615 5.786-4.803 8.745-8.808 12.275-14.101 24.335-14.347 39.493-.15 5.063-.15 5.063-1.997 7.292L414 420v2l1.788.946c2.68 1.425 5.352 2.864 8.024 4.304l2.815 1.488 2.705 1.465 2.491 1.333c2.362 1.589 3.687 3.05 5.177 5.464l.188 2.438c1.163 3.67 3.507 4.496 6.804 6.253 2.366 1.542 3.58 2.87 5.008 5.309 1.024 5.497.695 10.59-2.187 15.438-2.213 3.077-4.672 5.408-7.813 7.562-1.272-2.545-.74-3.316 0-6 .996-6.593-.439-10.658-4.102-16.152-1.847-2.075-1.847-2.075-4.851-2.786-3.794-1.322-4.852-2.89-7.172-6.125-5.09-6.57-11.822-13.253-19.875-15.937-3.857-11.571.573-23.227 5.727-33.586C413.499 384.078 418.52 374.94 424 366l-2.524.838c-11.694 3.83-23.272 6.392-35.601 6.537l-2.116.042c-4.633-.043-7.784-1.077-11.759-3.417 2.851-1.9 5.626-3.108 8.801-4.36 12.598-4.368 12.598-4.368 22.587-12.546 4.208-5.682 4.208-5.682 7.946-6.779 2.719-.185 5.339-.137 8.06.001l6.085.065q4.749.127 9.498.286c14.12.992 14.12.992 26.203-4.972A138 138 0 0 0 465 337c1.41-1.26 2.844-2.495 4.313-3.687 2.36-2.038 4.072-3.812 6-6.313 3.508-4.477 8.755-7.316 13.687-10h2v2l1.938.438C495 320 495 320 496 321c.087 1.562.107 3.127.098 4.691l-.01 2.862-.026 3.01-.013 3.021q-.018 3.708-.049 7.416c2.88-.371 5.751-.77 8.625-1.187l2.45-.307c5.798-.872 8.737-2.395 12.925-6.506l2.188-1.875c2-2.117 2-2.117 3.062-5.227 1.902-4.569 4.677-8.401 7.563-12.398l1.54-2.184c3.325-4.66 6.865-9.02 10.647-13.316l4 1v2h3c1.941 7.626 3.742 15.229 5 23 10.35-5.19 19.792-10.975 29-18l2.219-1.687c4.375-3.531 7.589-7.706 10.781-12.313" fill="#3A3A3D"/><path d="m488 82 2.51.65c9.553 2.548 18.933 5.261 27.49 10.35v1q-2.625-.174-5.25-.375c-.975-.07-1.95-.14-2.953-.21C507 93 507 93 505.186 92.042c-9.058-4.322-21.125-3.484-30.936-3.48l-2.165-.004c-19.617.042-42.576 2.753-60.013 12.52-2.435 1.082-4.027 1.096-6.677.976l-2.705-.084-2.877-.096c-22.197-.322-44.663 7.416-61.305 22.531-3.892 4.114-6.508 7.565-6.508 13.344.96 3.119 2 4.75 4 7.25-29.685 33.483-29.685 33.483-50.879 35.34-9.812.339-9.812.339-13.523-1.586-2.597-2.85-2.268-5.226-2.106-8.941 1.508-8.353 7.272-15.131 12.582-21.481 1.697-2.054 3.219-4.147 4.738-6.332C315.102 104.382 372.96 87.487 417 81l2.359-.355c21.843-3.13 47.148-4.24 68.641 1.355" fill="#B11B03"/><path d="M286 142c0 3.908-1.696 5.035-4.207 7.832-5.178 6.261-11.068 13.934-11.106 22.293l-.05 2.633L271 177c5.273 3.516 11.868 2.488 18 2 17.364-3.873 31.064-17.618 43-30a843 843 0 0 1 3.063-3.062L337 144l8 4-1 3 5-1c-.49 3.132-1.238 5.524-2.562 8.438-2.527 6.682-2.77 14.345-.618 21.16 5.76 10.85 17 19.814 26.239 27.695 26.345 23.165 38.394 50.966 44.742 84.977 1.383 7.133 3.314 12.602 7.199 18.73l1.047 2.184c1.269 2.418 2.476 2.678 4.953 3.816l2.875 2.313c11.46 8.24 27.348 10.25 41.125 9.687l-2.148 2.145a1243 1243 0 0 0-5.641 5.68l-2.836 2.863-1.445 1.47c-5.655 5.694-5.655 5.694-9 6.083l-2.401-.014h-2.73l-2.936-.032-3.014-.008c-3.179-.011-6.357-.037-9.536-.062q-3.233-.016-6.463-.027-7.926-.034-15.85-.098l.979-2.126c5.782-16.276.65-39.408-2.979-55.874l-.551-2.536c-8.673-38.683-27.638-67.43-59.887-90.401l-2.367-1.688c-2.107-1.432-2.107-1.432-4.328-2.125-1.93-.687-1.93-.687-4.867-3.25-.655-4.03-.82-7.884-.832-11.957-.043-3.98-.921-7.273-2.168-11.043-6.13.314-10.378 3.201-15 7l-1.992 2.445c-6.995 8.583-14.382 9.436-24.887 11.356-13.63 2.518-26.98 6.788-38.121 15.199l-3 2c4.392-23.956 19.44-44.81 36-62" fill="#970100"/><path d="M283 269c11.744 3.578 20.437 11.56 29 20l2.031 1.992c10.452 11.07 15.833 25.96 20.969 40.008l1.168 3.125c1.79 5.51 2.118 10.873 2.207 16.625l.043 2.151c-.052 5.53-.93 10.652-5.047 14.7-12.652 6.697-27.37 9.601-41.59 9.497l-2.252-.005c-2.343-.005-4.686-.018-7.029-.03q-2.402-.009-4.805-.014-5.848-.017-11.695-.049v-1l2.044-.06c3.111-.096 6.22-.206 9.331-.315l3.215-.094c14.32-.527 27.875-3.18 38.566-13.406 5.51-6.35 7.011-13.104 6.969-21.312l.012-2.213c-.009-4.949-.438-9.701-1.137-14.6l-15 3v7c-.875 3.527-.875 3.527-2 6.938l-1.125 3.464L306 347h8l-3 1v2l1.938.438C315 351 315 351 316 352c.434 3.736.133 5.735-1.562 9.125-3.338 3.936-6.846 5.58-11.438 7.875-6.136.455-6.136.455-9.375-1.25-1.792-1.93-2.269-3.169-2.625-5.75l-2 2 1-6-2 1c-6.7.195-11.975-1.586-17-6-4.638-6.126-5.823-11.76-5.625-19.312l.042-2.79C265.8 320.103 269.507 310.89 277 303c4.618-3.408 9.024-4.492 14.781-4.406 5.969 1.093 10.758 5.408 14.281 10.156C308 312 308 312 308 314l3 1-4 1v2h5l-1 2h-3v2l15 1c-7.155-20.532-23.185-39.199-42-50z" fill="#EAB497"/><path d="m472.75 87.75 2.222-.007c11.582-.014 22.682.772 34.028 3.257v1c-4.6.074-9.035.016-13.61-.48-26.662-2.752-52.595 1.398-77.566 10.917C416 103 416 103 413 103l1.5 2c2.788 5.575 1.896 10.405.063 16.125-6.113 15.551-16.748 28.94-32 36.004-9.838 3.344-18.861.104-27.934-3.719-3.318-1.29-6.084-2.17-9.629-2.41l-3 2 2-4-2.082-1.172-2.73-1.578-2.708-1.547c-2.501-1.718-3.939-3.104-5.48-5.703-.229-5.84 2.13-9.372 5.746-13.676 12.442-12.83 29.077-19.58 46.254-23.324l2.285-.621c3.402-.475 6.635-.264 10.06-.11 9.618.36 17.018-.492 25.8-4.415 6.053-2.678 12.08-4.317 18.543-5.729l2.79-.614c10.136-2.157 19.94-2.746 30.272-2.761" fill="#2F0701"/><path d="m599 293 1 3c-8.068 15.374-22.91 26.99-38 35h-2a951 951 0 0 0 3.625 12.188l1.004 3.486c2.1 6.837 3.69 10.101 9.371 14.326a180 180 0 0 1 1 6c2.113 1.882 2.113 1.882 4.875 3.25 7.304 4.278 14.386 9.64 19.125 16.75.125 2.688.125 2.688 0 5l1.813.188C603 393 603 393 604.75 394.875c2.015 5.038 2.569 10.992.418 16.102-1.484 2.256-3.262 4.117-5.168 6.023l-3-1 1-2.062c2.2-6.462.871-11.076-2-16.938l-7 1-1-3.5c-2.92-7.774-10.198-12.82-16.434-17.957C570 375 570 375 569 372l-2.152.035c-.92.01-1.839.018-2.785.027l-2.778.036C559 372 559 372 558 371a237 237 0 0 1-.25-5.812c-.591-9.689-3.189-18.86-5.75-28.188-4.39 1.416-8.661 3.023-12.937 4.75l-1.956.786q-4.062 1.635-8.118 3.28c-9.872 4.004-19.603 7.73-29.989 10.184.348 5.53 1.075 10.472 2.813 15.75 1.388 4.663 1.388 4.663.492 7.277-1.118 1.66-1.118 1.66-3.305 3.973l-5-1c-1.059-3.493-1.17-6.779-1.246-10.418l-.1-3.803q-.09-3.937-.172-7.875c-.187-6.914-.677-13.219-2.482-19.904l-1 4-19 2-2 5c-2.573 3.815-4.501 5.85-9 7-4.265.3-7.345.34-11-2l2-5 1 3c9.017-1.656 13.309-8.154 19.031-14.812 3.13-3.478 6.484-6.723 9.832-9.989 2.272-2.205 2.272-2.205 4.137-5.199l-4-1a783 783 0 0 1 4.375-3l2.46-1.687C489 317 489 317 491 317v2l1.938.438C495 320 495 320 496 321c.087 1.562.107 3.127.098 4.691l-.01 2.862-.026 3.01-.013 3.021q-.018 3.708-.049 7.416c2.88-.371 5.751-.77 8.625-1.187l2.45-.307c5.798-.872 8.737-2.395 12.925-6.506l2.188-1.875c2-2.117 2-2.117 3.062-5.227 1.902-4.569 4.677-8.401 7.563-12.398l1.54-2.184c3.325-4.66 6.865-9.02 10.647-13.316l4 1v2h3c1.941 7.626 3.742 15.229 5 23 10.35-5.19 19.792-10.975 29-18l2.219-1.687c4.375-3.531 7.589-7.706 10.781-12.313" fill="#3A3839"/><path d="M366 210c2.36 1.975 4.688 3.97 7 6l1.672 1.43c20.187 18.552 29.88 49.62 35.328 75.57l.5 2.36c2.22 10.943 2.817 21.797 2.938 32.952l.067 3.778c-.022 8.803-1.278 14.105-7.63 20.473-14.049 13.252-37.014 20.543-56 20.687-1.034.03-1.034.03-2.09.063-4.48.034-7.205-.612-10.785-3.313l-2-2c.543-6.087.543-6.087 2-9 .978-11.99-.732-21.833-5-33l-.729-1.978C321.905 298.662 307.224 282.489 284 269l2-3c11.781 1.753 20.902 10.913 29 19l2.473 2.438c12.202 12.725 18.68 29.043 22.527 46 2.182 9.42 5.939 15.581 13.777 21.273 8.766 5.083 17.268 5.64 27.223 4.289 8.018-2.38 14.584-6.833 19-14 11.84-24.88 4.676-58.836-3.911-83.77-6.193-17.176-15.324-34.626-28.44-47.546C366 212 366 212 366 210" fill="#16161A"/><path d="m582 190 3.563-.187 2.003-.106c3.68.443 6.624.808 9.434 3.293 1.759 3.965 2.51 8.065 3.313 12.313l.742 3.594A607 607 0 0 1 603 219l.45 2.27c2.07 10.492 1.743 21.088 1.55 31.73-5.772 3.055-11.58 2.816-17.883 1.313-11.214-3.749-17.857-9.873-23.152-20.364-2.76-6.815-2.849-14.723-1.965-21.949 1.901-2.694 4.66-4.142 7.438-5.875 6.44-4.252 9.364-9.269 12.562-16.125" fill="#373434"/><path d="m472.75 87.75 2.222-.007c11.582-.014 22.682.772 34.028 3.257v1c-4.6.074-9.035.016-13.61-.48-33.083-3.415-67.343 3.33-96.501 19.437a424 424 0 0 1-5.998 3.23c-16.092 8.67-29.851 20.292-43.305 32.57C348 148 348 148 345 149c-2.594-1.074-2.594-1.074-5.5-2.687l-2.906-1.575c-2.581-1.73-4.035-3.07-5.594-5.738-.229-5.84 2.13-9.372 5.746-13.676 12.442-12.83 29.077-19.58 46.254-23.324l2.285-.621c3.402-.475 6.635-.264 10.06-.11 9.618.36 17.018-.492 25.8-4.415 6.053-2.678 12.08-4.317 18.543-5.729l2.79-.614c10.136-2.157 19.94-2.746 30.272-2.761" fill="#240500"/><path d="M201 343c8.639.246 18.454 2.86 26 7 1.64 2.198 2.353 4.03 3.137 6.645 1.335 3.642 3.842 6.039 6.472 8.824C238 367 238 367 238 368c-9.85-.372-17.092-5.503-24.855-11.215l-2.939-2.156L208 353l1.102 2.978a1753 1753 0 0 1 4.025 11.054q.865 2.385 1.746 4.763a754 754 0 0 1 2.502 6.889l.795 2.112c1.829 5.176 2.1 9.744 1.83 15.204v2c-.275 3.39-.684 4.691-3.152 7.105l-2.786 2.082c-10.074 7.197-10.074 7.197-16.87 17.094-.261 2.278-.254 4.429-.192 6.719q-.25 2.784-.562 5.563L196 441c-3.342-1.114-3.616-1.425-5.187-4.375-2.408-5.072-2.38-10.111-1.813-15.625l1-2h2l.234-2.672c.906-3.936 2.29-5.634 5.016-8.578l2.328-2.578c2.428-2.177 4.34-3.189 7.422-4.172l-.875-3.562c-.91-4.069-1.494-8.113-2-12.25-.775-6.212-1.942-12.256-3.25-18.375C197.837 352.33 197.837 352.33 199 345z" fill="#403F3E"/><path d="M299.914 313.621c4.497 2.973 6.476 6.829 7.711 11.992 1.056 7.78-.06 15.335-4.812 21.762-4.513 4.211-8.937 6.779-15.188 7.188-6.147-.309-11.768-3.007-16.332-7.09-2.312-2.62-3.985-4.978-4.293-8.473l-.375-3.687c.108-7.241 5-13.611 9.71-18.805 7.15-6.478 15.015-7.081 23.58-2.887" fill="#F6F9F9"/><path d="M506.836 111.605c5.11 3.293 8.612 6.973 9.976 12.957-1.115 4.718-3.093 7.368-6.812 10.438-2.894 1.716-5.823 2.908-9 4l-3.562 1.25c-9.748 2.153-20.857 2.174-29.438-3.25l-3.062-1.687c-2.542-3.034-2.727-5.05-2.465-8.942.994-4.47 3.107-7.373 6.527-10.371 11.527-6.986 25.055-10.443 37.836-4.395" fill="#727070"/><path d="M473 195c4.701 1.47 9.145 3.348 13.625 5.375 7.446 3.313 15.055 6.696 23.125 8.105 2.25.52 2.25.52 3.563 2.458 1.322 5.89 1.72 11.034-1.063 16.5-4.18 4.76-8.07 7.07-14.473 7.824-10.14.466-20.226-3.478-27.777-10.262-3.48-4.448-4.656-9.095-4.395-14.695.967-5.645 3.641-10.988 7.395-15.305" fill="#383333"/><path d="M402 179c8.753 3.486 15.22 10.041 19.438 18.375 2.178 5.469 2.807 11.077.832 16.707-2.014 3.904-4.186 6.34-8.27 7.918-7.732.917-14.269-1.145-20.46-5.883-6.656-6.169-11.65-13.632-12.04-22.93.366-5.392 2.063-8.822 6-12.562 4.98-2.312 9.105-2.578 14.5-1.625" fill="#373333"/><path d="M431 363h2c1.356 5.316 1.356 5.316-.223 8.352l-1.84 2.273c-8.718 11.59-13.237 23.52-13.471 37.93-.15 5.064-.15 5.064-1.997 7.293L414 420v2l1.788.946c2.68 1.425 5.352 2.864 8.024 4.304l2.815 1.488 2.705 1.465 2.491 1.333c2.362 1.589 3.687 3.05 5.177 5.464l.188 2.438c1.163 3.67 3.507 4.496 6.804 6.253 2.366 1.542 3.58 2.87 5.008 5.309 1.024 5.497.695 10.59-2.187 15.438-2.213 3.077-4.672 5.408-7.813 7.562-1.272-2.545-.74-3.316 0-6 .996-6.593-.439-10.658-4.102-16.152-1.847-2.075-1.847-2.075-4.851-2.786-3.794-1.322-4.852-2.89-7.172-6.125-5.09-6.57-11.822-13.253-19.875-15.937-4.289-12.866 1.622-25.55 7.28-36.919l1.595-3.144 1.532-3.067c2.884-5.503 5.062-8.74 10.593-11.87 2.065-2.305 2.065-2.305 3.75-4.75A76 76 0 0 1 431 363" fill="#3D3C3C"/><path d="M286 142c0 3.908-1.696 5.035-4.207 7.832-5.178 6.261-11.068 13.934-11.106 22.293l-.05 2.633L271 177c5.273 3.516 11.868 2.488 18 2 17.364-3.873 31.064-17.618 43-30a843 843 0 0 1 3.063-3.062L337 144l8 4-3 7h-2l-.687 1.625c-2.916 5.275-5.148 8.178-10.875 10.063-7.576 2.661-13.627 8.905-18.812 14.9-2.048 1.778-3.554 2.066-6.212 2.553l-2.79.544-2.999.565c-15.756 3.216-31.594 6.912-44.625 16.75l-3 2c4.392-23.956 19.44-44.81 36-62" fill="#7B0401"/><path d="M300.945 303.207c3.04 2.652 4.989 5.327 7.055 8.793v2l3 1-4 1v2h5l-1 2h-3v2l14 1c-2.855 1.903-4.42 2.462-7.687 3.125l-2.45.508L310 327l.25 2.688c.05 5.998-2.358 11.696-4.25 17.312h8l-3 1v2l1.938.438C315 351 315 351 316 352c.434 3.736.133 5.735-1.562 9.125-3.338 3.936-6.846 5.58-11.438 7.875-6.136.455-6.136.455-9.375-1.25-1.792-1.93-2.269-3.169-2.625-5.75l-2 2 1-6-2 1c-6.7.195-11.975-1.586-17-6-4.638-6.126-5.823-11.76-5.625-19.312l.042-2.79C265.8 320.103 269.507 310.89 277 303c7.973-5.885 16.122-5.491 23.945.207m-28.402 17.652c-4.359 6.048-6.281 10.634-5.543 18.141 1.383 4.955 3.834 8.576 8.168 11.426 5.603 3.084 10.445 4.808 16.832 3.574 5.583-1.804 10.048-4.82 13-10 3.449-7.636 4.096-15.414 1.125-23.332-2.59-4.849-5.742-7.147-10.863-9.043-9.77-2.7-16.724 1.827-22.719 9.234" fill="#F89E95"/><path d="M467.938 287.188 470 289l2.313 2c2.889 5.136 2.601 10.663 1.062 16.281-2.617 6.075-7.554 9.808-13.375 12.719-5.683.591-10.148.272-15-3-3.93-4.25-5.5-7.804-5.402-13.68 1.077-6.211 5.041-11.77 10.09-15.445 5.698-3.09 12.306-3.09 18.25-.687" fill="#373333"/><path d="M230.723 288.652c5.245.801 8.992 4.45 12.109 8.567 6.303 9.612 6.297 20.603 5.168 31.781-1.55 5.853-3.868 10.579-9 14-1.937.23-1.937.23-4 .188l-2.062-.02C231 343 231 343 228 342c-2.075-2.92-3-4.375-3-8l3 2c4.472.72 7.987.582 11.938-1.687C243.283 330.562 244 328.012 244 323l-.734 1.645c-3.659 7.81-3.659 7.81-7.266 9.355-3.5 0-3.5 0-7-1-3.395-3.485-4.978-5.749-5.062-10.625L224 319l5 1 1-5 3-1 2 5 8-1c-1.313-8.17-5.097-12.877-11.5-18-3.359-1.344-5.919-1.398-9.5-1-2.991 1.96-3.84 4.698-5 8-4.11-1.45-7.433-3.511-11-6 4.002-1.6 7.046-.293 11 1l-4-5 5 1-1-3h3l1-3c2.84-3.647 5.336-3.511 9.723-3.348" fill="#DAB098"/><path d="m297.375 187.75 2.71-.023c21.735.063 40.654 11.51 56.103 26.023C362.903 220.751 373 232.015 373 242c-3.677-1.51-5.719-3.649-8.312-6.625l-2.387-2.715-4.196-4.851A581 581 0 0 0 353 222l-1.496-1.7c-13.743-14.702-33.485-24.387-53.563-25.464-12.414-.31-24.31 1.802-35.941 6.164 3.5-3.832 6.638-6.089 11.375-8.187 1.08-.49 2.16-.978 3.273-1.481 7.124-2.831 13.143-3.647 20.727-3.582" fill="#888D96"/><path d="m414 107 2 1c1.098 14.546-8.013 27.247-16.937 38-5.792 6.196-12.795 10.203-21.063 12 .514-5.592 1.992-9.782 4.563-14.75l1.075-2.111C386.86 134.978 390.66 129.432 395 124l1.379-1.875c4.779-6.163 11.395-10.534 17.621-15.125" fill="#373332"/><path d="M424 81v1l5 1c-3.707 2.26-7.597 2.658-11.812 3.25-42.235 6.557-83.732 24.418-115.075 53.813-2.287 2.096-4.673 4.022-7.113 5.937 1.45-4.596 4.063-7.683 7.313-11.125l1.603-1.711c8.546-8.955 18.112-17.308 29.084-23.164h2l1-3a201 201 0 0 1 6-3l1.47-1.484C358.723 87.403 403.11 80.326 424 81" fill="#DB2708"/><path d="M208 359c4.987 3.324 5.803 9.048 7.688 14.563.415 1.155.83 2.31 1.26 3.501 2.283 6.605 3.55 11.953 3.052 18.936v2c-.275 3.39-.684 4.691-3.152 7.105l-2.786 2.082c-10.074 7.197-10.074 7.197-16.87 17.094-.261 2.278-.254 4.429-.192 6.719q-.25 2.784-.562 5.563L196 441c-3.342-1.114-3.616-1.425-5.187-4.375-2.408-5.072-2.38-10.111-1.813-15.625l1-2h2l.234-2.672c.906-3.936 2.29-5.634 5.016-8.578l2.328-2.578c2.428-2.177 4.34-3.189 7.422-4.172l-1-2c-.07-2.04-.084-4.083-.062-6.125l.027-3.32L206 387h1l1 8 3-1c3.574-7.148.338-16.78-1.577-24.073-.97-3.729-1.665-7.066-1.423-10.927" fill="#3E3D3D"/><path d="M461 80c19.327-.74 40.079 3.23 57 13v1q-2.625-.174-5.25-.375c-.975-.07-1.95-.14-2.953-.21C507 93 507 93 505.186 92.042c-9.058-4.322-21.125-3.484-30.936-3.48l-2.165-.004c-19.325.042-43.128 2.455-60.081 12.64-3.204 1.28-6.395.744-9.754.426l-2.113-.172c-1.713-.14-3.425-.295-5.137-.453 16.409-13.22 43.6-15.401 63.812-16.766 2.141-.229 4.115-.66 6.188-1.234z" fill="#7C0501"/><path d="M393 101c-3.846 3.169-8.196 5.337-12.562 7.688-7.232 3.961-13.958 8.189-20.438 13.312l-2.687 2.04c-7.6 5.936-13.942 12.766-20.313 19.96-3.161-1.37-3.993-1.99-6-5-.117-5.847 2.032-9.256 5.746-13.676 13.482-13.902 36.6-24.886 56.254-24.324" fill="#373232"/><path d="M229 298c5.708 2.854 11.116 8.233 14 14 .04 2 .043 4 0 6-2.572 1.62-3.677 2.044-6.75 1.625L234 319l-1-5c-2.248 2.052-3.002 3.007-4 6l-5-1c.682 4.675 1.444 8.206 4.188 12.125 2.744 2.175 2.744 2.175 6.375 2.063 4.452-1.539 5.377-2.993 7.437-7.188.836-2.662 1.433-5.26 2-8h1c.346 5.762.344 10.041-3 15-2.234 2.496-3.79 3.824-7.148 4.313-4.377.116-7.95-.159-11.852-2.313-1.293-2.355-1.293-2.355-2.187-5.187l-.97-3.008L219 324l-1.187-3.562c-1.773-7.501-2.79-12.997 1.082-19.942 2.57-3.478 6.14-2.826 10.105-2.496" fill="#FAFCFC"/><path d="M542.355 110.93c10.372 8.12 22.293 18.327 25.52 31.695L568 145l-1.719-2.187c-2.181-2.69-4.447-5.255-6.781-7.813-2.228-2.441-4.385-4.85-6.387-7.48-14-16.691-37.032-25.788-58.113-28.52-4.566-.289-9.113-.334-13.687-.312l-3.735.012c-12.593.156-23.822 1.743-35.539 6.628C440 106 440 106 438 105c32.363-17.47 74.235-15.555 104.355 5.93" fill="#FCF1EF"/><path d="M491 317v2l1.938.438C495 320 495 320 496 321c.087 1.562.107 3.127.098 4.691l-.01 2.862-.026 3.01-.013 3.021q-.018 3.708-.049 7.416l2 1h-3c-1.187-3.56-1.097-6.438-1.062-10.187l.027-3.856L494 326l-2 1c-.64 2.87-1.168 5.663-1.625 8.563L489 344l-19 2-2 5c-2.573 3.815-4.501 5.85-9 7-4.265.3-7.345.34-11-2l2-5 1 3c9.017-1.656 13.309-8.154 19.031-14.812 3.13-3.478 6.484-6.723 9.832-9.989 2.272-2.205 2.272-2.205 4.137-5.199l-4-1a783 783 0 0 1 4.375-3l2.46-1.687C489 317 489 317 491 317" fill="#3B3333"/><path d="M303.324 156.293C305 158 305 158 305.562 161.75c-.293 4.85-2.027 7.963-5.562 11.25-6.14 4.444-11.853 5.557-19.336 5.566-3.374-.717-4.607-1.83-6.664-4.566-.162-4.93.511-7.863 3.563-11.75 6.443-6.656 16.968-10.849 25.761-5.957" fill="#363333"/><path d="M203 243c10.887 2.34 19.337 8.053 27 16l1-3 2 1c4.742 1.58 9.209 1.597 14 0 13.613-1.065 25.394 1.854 38 7l-2 3c-5.014-.41-9.502-1.08-14.312-2.562-11.084-3.147-20.602-1.616-30.688 3.562 1.02 2.747 2.105 5.174 3.625 7.688C243 278 243 278 243 280h-2l-5-9-4 2-.121-1.906c-.821-6.732-2.883-10.08-8.191-14.266-8.096-5.507-15.646-9.62-25.688-7.828l-3 2c-2.687-.375-2.687-.375-5-1 .313-2.375.313-2.375 1-5 4.027-2.685 7.348-2.534 12-2" fill="#16171B"/><path d="M570 275c2.848 1.903 4.53 3.91 6 7 .866 4.638.56 8.54-1.125 12.938-3.138 3.452-6.29 4.83-10.875 5.5-3.947-.576-5.96-1.871-9-4.438-3.132-4.344-3.372-7.759-2.578-12.883 1.048-3.838 3.073-6.209 6.441-8.242 3.812-1.561 7.264-1.106 11.137.125" fill="#393232"/><path d="m473.313 87.625 2.153.008c11.38.05 22.4.928 33.534 3.367v1c-4.6.074-9.035.016-13.61-.48-33.083-3.415-67.343 3.33-96.501 19.437a424 424 0 0 1-5.998 3.23c-16.083 8.665-29.98 20.246-43.305 32.668C348 148 348 148 345 148c18.689-19.608 38.506-34.406 63-46l3.46-1.66c9.518-4.337 19.35-7.1 29.54-9.34l3.592-.798c9.639-2.035 18.886-2.684 28.72-2.577" fill="#0B0000"/><path d="M430 356c2.438.25 2.438.25 5 1 2 3 2 3 1.813 6.063C436 366 436 366 433 368v-5c-2.946 2.778-5.371 5.442-7.625 8.813L423 375h-3c1.059-3.403 2.009-6.014 4-9l-2.281.77c-11.797 3.822-23.413 6.459-35.844 6.605l-2.116.042c-4.633-.043-7.784-1.077-11.759-3.417 2.366-1.577 4.251-2.606 6.836-3.656l2.226-.91 2.313-.934 2.29-.934Q391.322 361.262 397 359c-1 3-1 3-4 5 12.372.694 24.84-1.494 36-7z" fill="#3A3939"/><path d="M492 326h2l2 20 12-1 1 3 10 1c-5.93 3.953-13.128 5.376-20 7 .348 5.53 1.075 10.472 2.813 15.75 1.388 4.663 1.388 4.663.492 7.277-1.118 1.66-1.118 1.66-3.305 3.973l-5-1c-1.071-3.532-1.185-6.88-1.281-10.559l-.114-3.857-.105-4.022a2313 2313 0 0 0-.219-7.87l-.092-3.526c-.169-2.832-.609-5.397-1.189-8.166a70 70 0 0 1-.133-4.172l-.004-2.262.012-2.316-.012-2.363c.01-5.76.01-5.76 1.137-6.887" fill="#5F5D5D"/><path d="M494.184 188.902C501.01 193.028 506.81 199.245 511 206v3c-5.318-.596-10.033-1.818-15.062-3.625l-2.215-.786c-7.207-2.633-13.963-5.968-20.723-9.589 6.069-7.422 11.376-10.815 21.184-6.098" fill="#716F6F"/><path d="M295.625 303.188c5.558 2.984 8.127 6.032 10.375 11.812l3 1h-2v2h5l-1 2h-3v2l14 1c-3.015 2.01-5.215 2.726-8.687 3.625-1.491.39-1.491.39-3.012.79-.76.192-1.519.386-2.301.585l-.996-2.484c-3.175-7.501-3.175-7.501-9.442-12.266-5.518-1.809-10.149-2.067-15.562.188-4.236 2.286-6.704 5.564-9.457 9.44-1.39 1.913-2.824 3.507-4.543 5.122.29-7.516 2.702-13.813 7-20 6.454-5.71 12.332-7.53 20.625-4.812" fill="#484645"/><path d="M431 363h2c1.356 5.316 1.356 5.316-.223 8.352l-1.84 2.273C420.72 387.209 417.597 400.445 417 417h-1l-1-5-5 6-4-1c-1.794-17.942 12.62-38.285 23-52z" fill="#6B6969"/><path d="M527 323c-1.2 5.563-2.575 8.179-7 12l-2.687 2.688c-5.848 4.78-14.116 4.579-21.313 4.312v-14l3.84-.586 5.098-.789 2.517-.383c4.933-.768 9.782-1.692 14.637-2.862C524 323 524 323 527 323" fill="#980201"/><path d="m601 288 1 3-1 2h-2l-.687 1.625c-3.14 5.68-7.623 9.768-12.688 13.688l-1.82 1.417c-4.44 3.385-9.028 6.446-13.805 9.332-.61.37-1.22.74-1.85 1.12A48.6 48.6 0 0 1 557 325l-3-11 2.645-.363c16.693-3.168 31.938-14.6 44.355-25.637" fill="#970301"/><path d="m291 326 .875 1.813c1.172 2.38 1.172 2.38 3.125 5.187 3.123-.486 5.996-.999 9-2 .453 6.455-.25 9.688-4 15-2.62 2.901-3.965 2.996-7.937 3.5-3.306-.141-4.058-.497-6.875-2.562-4.124-5.537-5.61-10.035-5.188-16.938 5.75 1.875 5.75 1.875 8 3l.375-2.375C289 328 289 328 291 326" fill="#0998B1"/><path d="m201 343 3 1-2 2c1.12 2.988 2.38 5.699 3.906 8.512 2.468 4.917 3.668 9.95 4.844 15.3l.668 2.792c1.443 6.404 2.363 12.83 1.582 19.396l-2 3h-3l-2-3h-1l-.297-2.578a260 260 0 0 0-3.828-22.61C197.837 352.33 197.837 352.33 199 345z" fill="#605E5E"/><path d="M300.945 303.207c3.04 2.652 4.989 5.327 7.055 8.793v2l3 1c-2.187.5-2.187.5-5 0-1.451-1.916-2.567-3.93-3.746-6.023-2.046-3.225-4.649-4.388-8.129-5.664-6.823-1.004-11.04-.072-16.816 3.656-5.303 4.665-7.296 11.235-8.059 18.094L269 329l-1 2c-.315 6.407-.101 10.466 4.125 15.563 5.508 4.669 10.382 7.04 17.688 6.71 3.224-.403 6.112-1.226 9.187-2.273-1.25 3.653-1.671 4.78-5 7h-3l-1 6c-1.125-3.75-1.125-3.75 0-6l-2 1c-6.7.195-11.975-1.586-17-6-4.638-6.126-5.823-11.76-5.625-19.312l.042-2.79C265.8 320.103 269.507 310.89 277 303c7.973-5.885 16.122-5.491 23.945.207" fill="#E5B299"/><path d="M570 139c4.844 4.27 7.69 9.167 10.75 14.813l1.57 2.88C596 182.546 596 182.546 596 192l-14-2 .188-6.687c.074-13.395-4.004-23.898-10.239-35.527-1.366-2.57-2.659-5.177-3.949-7.786z" fill="#F82E0B"/><path d="M549 305h2l.883 3.734c2.093 8.557 4.282 16.21 8.582 23.954 2.423 5.229 3.806 10.784 5.18 16.372 1.6 5.983 3.415 8.266 8.355 11.94.375 3.313.375 3.313 0 6l-1-4c-2.934.267-2.934.267-6 1l-2 3h-3l-.156-2.621c-1.022-11.343-4.228-21.542-7.871-32.3-3.018-9.05-5.452-17.494-4.973-27.079" fill="#616060"/><path d="M507 386c4.221 3.724 7.676 8.116 11.188 12.5l1.615 1.973c5.158 6.423 5.158 6.423 6.197 10.527-1.375 2.313-1.375 2.313-3 4-9.68-3.132-15.888-12.002-21.062-20.312-1.061-3.041-.92-4.654.062-7.688 2.188-.812 2.188-.812 5-1" fill="#5D5B5B"/><path d="M296 316c4.162 1.839 6.018 3.937 8 8 1.463 3.858 1.068 7.932 1 12l-2-4-1.687 1.063c-3 1.216-4.317 1.166-7.313-.063-1.812-3.062-1.812-3.062-3-6l-3 6-6-2c-.75-2.125-.75-2.125-1-5 3.39-6.388 7.368-11.113 15-10" fill="#0EC2D2"/><path d="M234 291c5.214 2.852 8.178 7.104 10.355 12.543 1.09 4.152.965 8.204.645 12.457-1.717-2.248-3.276-4.454-4.75-6.875-2.984-4.145-6.636-7.818-11.25-10.125-4.638-.467-4.638-.467-8.812 1.188-1.425 2.174-2.328 4.364-3.188 6.812-4.11-1.45-7.433-3.511-11-6 4.002-1.6 7.046-.293 11 1l-4-5 5 1-1-3h3l1-3c4.249-2.814 8.257-2.346 13-1" fill="#4F4E4E"/><path d="M273 321c.976 3.197.99 5.864.813 9.188-.059 7.283 2.039 12.357 6.812 17.812 3.998 3.367 7.295 3.365 12.375 3 4.534-1.166 6.675-5.205 9-9 3.372-6.142 3.67-12.064 4-19h1c1.315 8.332 1.228 15.336-3.035 22.816-3.526 4.769-8.385 7.493-14.13 8.602-6.422.42-11.56-1.892-16.835-5.418-3.094-2.768-5.625-5.75-6-10l-.375-3.687c.03-5.22 2.677-10.615 6.375-14.313" fill="#D9D9D8"/><path d="m599 293 1 3c-8.02 15.281-22.903 27.14-38 35h-3c-3-3.333-3-3.333-3-6l3.008-1.398c9.77-4.65 18.431-9.994 26.992-16.602l2.215-1.687c4.38-3.527 7.592-7.705 10.785-12.313" fill="#444247"/><path d="M231 314h2l2 5 8-1c.42 6.092.067 9.12-4 14-3 2-3 2-6.437 1.938-4.21-1.108-5.273-2.327-7.563-5.938-1.478-2.957-1.06-5.742-1-9l5 1 .438-2.437C230 315 230 315 231 314" fill="#0098AD"/><path d="M203 243c10.887 2.34 19.337 8.053 27 16l2-3 .063 2.875c.644 4.73 3.342 7.958 6.148 11.695C243 277.074 243 277.074 243 280h-2l-5-9-4 2-.121-1.906c-.821-6.732-2.883-10.08-8.191-14.266-8.096-5.507-15.646-9.62-25.688-7.828l-3 2c-2.687-.375-2.687-.375-5-1 .313-2.375.313-2.375 1-5 4.027-2.685 7.348-2.534 12-2" fill="#525151"/><path d="m489 348 1 9c-23.592 4.55-23.592 4.55-30 1l4.492-3.613c1.76-1.51 1.76-1.51 3.508-4.387a71 71 0 0 1 7.813-1.187l2.158-.249c3.689-.406 7.318-.659 11.029-.564" fill="#555960"/><path d="M541 306c1 2 1 2 .54 3.855-5.237 13.358-12.484 27.037-25.743 33.614C514 344 514 344 511 343l2.125-2.062c2.697-2.682 5.125-5.55 7.543-8.485C522 331 522 331 524 330c.692-1.66 1.381-3.32 2.059-4.986 1.68-3.594 4.069-6.665 6.441-9.827l1.473-2.021c2.246-3.033 3.834-5.038 7.027-7.166" fill="#5F5C5C"/><path d="M236 357c3.299.412 5.755 1.349 8.625 2.938 8.345 4.313 18.164 4.451 27.375 5.062-4.313 4.82-7.398 6.726-13.875 7.219-5.707.168-9.37.229-14.125-3.219-2.312-2.687-2.312-2.687-4-5h5l-2.812-.875C239 362 239 362 236 360z" fill="#C12014"/><path d="M236 305c2.81 1.277 4.501 2.311 6.313 4.813.878 2.794.82 5.277.687 8.187-2.572 1.62-3.677 2.044-6.75 1.625L234 319l-1-5c-2.248 2.052-3.002 3.007-4 6l-5-1-1 4c-.502-6.278-.2-9.96 4-15l1.375-1.875c2.592-1.794 4.557-1.493 7.625-1.125" fill="#1ABDCD"/><path d="M505.036 91.99c1.647.009 3.294-.034 4.94-.088 14.4.191 28.902 12.283 38.883 21.887L550 115l-1 2-2.352-1.723c-18.533-13.349-36.89-19.882-59.648-20.84l-2.926-.13Q480.537 94.149 477 94v-1q4.968-.254 9.938-.5l2.806-.145c5.103-.25 10.183-.406 15.292-.364" fill="#F83B1B"/><path d="M485 324c-5.12 5.797-10.352 11.403-15.863 16.828-2.656 2.7-5.108 5.538-7.532 8.445-1.76 1.894-3.406 3.361-5.605 4.727h-4c.178-3.988.885-6.246 3.695-9a183 183 0 0 1 3.43-3l1.793-1.592c2.987-2.642 6.029-5.218 9.082-7.783 2.254-1.972 3.879-3.63 5.688-5.937C478 324 478 324 480.125 323.063 482 323 482 323 485 324" fill="#5E5B5B"/><path d="M443.5 445.188c3.273 2.372 5.213 4.273 5.969 8.328.078 6.817-.943 11.285-5.469 16.484-2.812 2.5-2.812 2.5-5 4l-1-2c.812-1.914 1.52-3.52 3-5 .737-7.661.216-12.609-4-19l1-3c3-1 3-1 5.5.188" fill="#615F5F"/><path d="m544 312 2 1c.8 2.69 1.495 5.332 2.125 8.063l.55 2.298c.45 1.878.888 3.758 1.325 5.639q-3.933 1.544-7.875 3.063l-2.262.892c-1.933.74-3.897 1.399-5.863 2.045l-2-1q2.434-4.659 4.875-9.312l1.395-2.67 1.347-2.569 1.238-2.364C542 315 542 315 544 312" fill="#940403"/><path d="M487 326h1l1 18-17 1c2.25-5.625 2.25-5.625 4.785-8.297l1.608-1.715 1.67-1.738 1.681-1.785c3.502-3.71 3.502-3.71 5.256-5.465" fill="#970301"/><path d="m329 165 5 1c1.774 5.315 2.258 9.856 2.125 15.438l-.027 2.216A627 627 0 0 1 336 189l-2.133-.805c-7.888-2.821-15.553-4.26-23.867-5.195l4-4 2.438 1c4.3 1.207 8.132 1.177 12.562 1 1.452-4.537 2.235-8.18 2-13l-2-1z" fill="#3A3535"/><path d="M217 306c1.528 2.813 2.424 5.368 3.063 8.5.59 2.851 1.213 5.68 1.937 8.5h2l.77 1.68 1.042 2.195 1.02 2.18c1.163 2.25 1.163 2.25 4.168 3.945 3.503.155 3.503.155 7-1 3.82-4.232 4.875-8.562 6-14h1c.346 5.762.344 10.041-3 15-2.234 2.496-3.79 3.824-7.148 4.313-4.377.116-7.95-.159-11.852-2.313-1.293-2.355-1.293-2.355-2.187-5.187l-.97-3.008L219 324l-1.187-3.562c-1.047-4.427-1.7-8.885-1.813-13.438z" fill="#D9DCDC"/><path d="M429 356v2c-12.162 5.638-24.66 7.607-38 7 6.428-5.51 12.2-6.512 20.375-7.625l2.79-.406c4.997-.7 9.79-1.122 14.835-.969" fill="#6D6C6C"/><path d="M413 425c8.278 1.042 17.134 3.594 22.816 10.07C437 437 437 437 437 439c-3 2-3 2-6.187 2.125-4.693-1.385-6.629-3.519-9.88-7.055-1.722-1.844-3.454-3.39-5.433-4.945L413 427z" fill="#605E5E"/><path d="M332 168c.383 5.235-.662 8.414-3 13-3.03 1.515-5.651 1.17-9 1-2.937-1-2.937-1-5-2 1.424-3.331 3.134-5.277 5.875-7.625l2.055-1.79c5.102-3.908 5.102-3.908 9.07-2.585" fill="#51555C"/><path d="M215.496 346.2c2.618.894 2.618.894 5.879 1.425 4.147 2.172 5.252 6.047 6.625 10.375v2c-8.443-2.282-16.728-6.898-23-13v-2c4.11-1.37 6.48-.128 10.496 1.2" fill="#676565"/><path d="M582 190c-2.237 7.828-6.348 13.394-13 18-3.437 1.375-3.437 1.375-6 2 2.039-8.388 5.808-14.42 13.25-19 2.75-1 2.75-1 5.75-1" fill="#726F6E"/><path d="M572 368c7.08.15 10.798 3.462 16 8l2.574 2.242A557 557 0 0 1 597 384l-1 3c-5.93-.322-8.542-2.773-12.562-6.75l-1.67-1.594A427 427 0 0 1 577 374l-1.515-1.47A176 176 0 0 1 572 369z" fill="#5F5E5E"/><path d="m190 419 8 4-2 18c-3.342-1.114-3.616-1.425-5.187-4.375-2.408-5.072-2.38-10.111-1.813-15.625z" fill="#393838"/><path d="M215 399c-1.495 3.73-3.588 5.518-6.75 7.938-2.953 2.272-5.816 4.545-8.562 7.062-2.688 2-2.688 2-5.563 2.313L192 416c3.514-7.333 8.824-13.109 16.313-16.5C211 399 211 399 215 399" fill="#5E5C5C"/><path d="m508 345 1 3 10 1c-6.865 4.577-14.987 5.681-23 7l-1-10 5.375-.5 3.023-.281C506 345 506 345 508 345" fill="#565960"/><path d="M531 415c5.918 1.268 8.586 4.285 12 9 1.114 2.229 1.165 3.53 1.188 6l.042 2.125C544 434 544 434 542 436h-2l-.41-1.687c-1.638-5.806-3.933-9.292-8.262-13.489C530 419 530 419 530.297 416.77z" fill="#615F5F"/><path d="m281 268-3 4-1.54-.805-2.085-1.07-2.04-1.055c-5.963-2.732-10.87-3.359-17.335-3.257l-2.367.001c-4.315.033-8.386.335-12.633 1.186 11.323-9.964 28.882-4.655 41 1" fill="#E1B198"/><path d="m296 309 2 1v2l-2.344-.14c-6.74-.234-12.265-.252-17.656 4.14-1.976 2.207-3.743 4.464-5.457 6.879-1.39 1.912-2.824 3.506-4.543 5.121.447-6.152 1.648-11.718 5-17l3-1v4l1.328-1.094c6.017-4.403 11.36-4.693 18.672-3.906" fill="#3C3B3B"/><path d="m283 332 5 1 2 7 5 1v-5h6c-.339 3.047-.831 4.775-2.687 7.25-2.911 2.203-4.66 2.75-8.313 2.75-3.416-1.941-4.736-3.396-6.312-7-.688-3-.688-3-.688-7" fill="#1CA6B8"/><path d="M376 253c2.915.201 4.05 1.044 6.25 3 2.374 4.07 2.11 7.4 1.75 12-1.863.61-1.863.61-4 1-2.773-2.219-3.869-3.606-5-7-.178-2.693-.087-5.294 0-8z" fill="#888D96"/><path d="M301 308a141 141 0 0 1 5 5v2l3 1h-2v2h5l-1 2h-3v2l14 1c-3.015 2.01-5.215 2.726-8.687 3.625-1.491.39-1.491.39-3.012.79-.76.192-1.519.386-2.301.585l-1.242-2.59-1.633-3.348-1.617-3.34c-1.225-2.816-1.225-2.816-3.508-3.722v-2l2-1z" fill="#3E3D3C"/><path d="M295 321c3.297.33 4.623.623 7 3 .3 1.875.3 1.875.313 4l.05 2.125L302 332c-3 2-3 2-5.625 1.688C294 333 294 333 293 332c-.168-1.996-.168-1.996-.187-4.437l-.043-2.434C293 323 293 323 295 321" fill="#F4FBFB"/><path d="M298.688 301.563C302.8 304.558 305.4 307.64 308 312v2l3 1c-2.187.5-2.187.5-5 0-1.451-1.916-2.567-3.93-3.746-6.023-2.046-3.225-4.649-4.388-8.129-5.664-6.336-.932-10.499-.069-16.125 2.687.625-2.375.625-2.375 2-5 6.553-3.276 12.574-3.246 18.688.563" fill="#E2B196"/><path d="M548 123c4.74 2.4 7.53 5.643 10.813 9.688l1.521 1.837A792 792 0 0 1 564 139c-2.478.91-3.572 1.187-6.035.11l-2.028-1.36-2.035-1.328c-4.696-3.51-4.696-3.51-5.414-6.684l-.176-2.425-.199-2.45z" fill="#777574"/><path d="M203 243c3.402.818 6.699 1.842 10 3v2l-8-1v1l-3.312.375c-3.762.38-3.762.38-6.688 2.625-2.687-.375-2.687-.375-5-1 .313-2.375.313-2.375 1-5 4.093-2.729 7.194-2.506 12-2" fill="#6F6E6E"/><path d="m269 344 1.285 1.207c5.96 5.384 11.326 8.297 19.492 8.031 3.255-.349 6.127-1.184 9.223-2.238-5.462 5.757-5.462 5.757-10.488 6.238-6.045.16-9.878.065-14.512-4.238-5-5.97-5-5.97-5-9" fill="#54504E"/><path d="m291 326 .875 1.813c1.794 3.824 1.794 3.824 5.25 5.875L299 334l-1 3-3-1 1 5-5 1c-2.543-2.543-3.257-4.495-3.375-8 .118-3.505.832-5.457 3.375-8" fill="#015F78"/><path d="M544 335v4c-3.108 2.072-6.019 3.284-9.5 4.625l-3.469 1.352C528 346 528 346 525 346l1.875-2.312c2.181-2.684 2.181-2.684 4.125-5.688 2.023-.95 2.023-.95 4.375-1.687l2.336-.762C540 335 540 335 544 335" fill="#54585F"/><path d="M601 392c3.875 2.625 3.875 2.625 5 6 .144 1.809.22 3.623.25 5.438l.078 2.87c-.376 3.082-1.28 4.412-3.328 6.692-2.191-2.191-1.451-7.054-1.621-10.02-.363-2.857-1.043-4.486-2.379-6.98v-3z" fill="#5D5B5B"/><path d="M228.813 295c5.988 1.879 9.218 5.656 12.187 11l2 1 1-2c1 1 1 1 1.098 3.285l-.036 2.777-.027 2.786L245 316c-1.717-2.248-3.276-4.454-4.75-6.875-4.762-6.614-9.221-9.716-17.25-11.125 1.852-2.572 2.578-3 5.813-3" fill="#484747"/><path d="M291 304c1.875 1.5 1.875 1.5 3 3l-2.875.688c-5.024 1.417-9.522 3.897-14.125 6.312l-2 1c.224-3.923.96-4.961 3.875-7.75 4.167-3 7.048-3.673 12.125-3.25" fill="#747373"/><path d="M586 168c2.541 2.248 3.675 4.2 4.824 7.379l.928 2.54.936 2.643.97 2.655C596 189.703 596 189.703 596 192l-6-1q-.722-3.78-1.437-7.562l-.409-2.135A258 258 0 0 1 586 168" fill="#DE140B"/><path d="M550 116c4.264 1.616 6.947 4.83 9.938 8.125l1.614 1.76c3.706 4.113 6.776 8.248 9.448 13.115l-4 1-1.941-3.035c-4.547-7.015-8.92-13.227-15.059-18.965z" fill="#4E4240"/><path d="M493 334h1c.08.63.16 1.262.244 1.912.367 2.843.749 5.684 1.131 8.526l.383 3.01.39 2.86c.116.875.23 1.75.35 2.65L497 355l2 1c.379 2.145.379 2.145.563 4.813.23 3.182.57 6.113 1.437 9.187h-3q-.976-3.53-1.937-7.062l-.553-1.99c-1.846-6.813-2.64-13.308-2.572-20.385l.027-3.747z" fill="#A1A0A0"/><path d="M554 322c7.42 7.42 9.7 19.093 12 29l-2 1q-1.66-4.217-3.312-8.437l-.936-2.374C554 326.477 554 326.477 554 322" fill="#888787"/><path d="M235 309c2.935.367 3.864.864 6 3 .125 3.625.125 3.625 0 7l-6 1c-2.302-3.452-2.345-4.947-2-9z" fill="#F3FBFB"/><path d="M244 328c1 3 1 3-.125 5.938-2.018 3.296-3.572 5.065-6.875 7.062-4.06.69-5.721.15-9.375-1.812L225 337v-3l3 2c4.503.725 7.993.6 11.938-1.75 1.873-2.044 3.054-3.685 4.062-6.25" fill="#5B5451"/><path d="M241 318h2c.42 6.092.067 9.12-4 14-3.85 2.567-5.586 1.833-10 1l-1-3 10-1z" fill="#09869D"/><path d="M443 445c4.875 3.75 4.875 3.75 6 6 .096 1.831.13 3.666.125 5.5l.008 2.969C449 462 449 462 448 464h-2l-.332-2.266-.48-2.984-.458-2.953c-.762-2.92-1.768-4.54-3.73-6.797z" fill="#8B8A8A"/><path d="M249 314c2.398 3.721 2.385 7.46 2.375 11.75l-.005 2.165c-.135 5.807-.993 9.394-4.37 14.085-1.953 1.258-1.953 1.258-4 2l-3-1 2.313-1.562c4.368-3.963 5.76-8.324 6.199-14.06q.108-2.407.175-4.815l.104-2.506c.082-2.019.147-4.038.209-6.057" fill="#FFF9F3"/><path d="M292.25 320.688 295 321l-2 9-2-3-3 6-4-1c.538-5.784 1.838-10.696 8.25-11.312" fill="#66CFD5"/><path d="M231 314h2c2.447 4.362 3.503 8.027 4 13-2.312.25-2.312.25-5 0-2.548-2.285-2.964-3.65-3.312-7.062C229 317 229 317 231 314" fill="#05637B"/><path d="m441 96-1.74.687a5291 5291 0 0 0-7.885 3.126l-2.738 1.08c-4.66 1.853-9.199 3.77-13.637 6.107l-2-4c3.91-1.371 7.83-2.719 11.75-4.062l3.367-1.182 3.242-1.104 2.984-1.031c2.712-.634 4.076-.566 6.657.379" fill="#CC0700"/><path d="M329 166v2c-1.793 1.297-1.793 1.297-4.187 2.75-3.018 1.93-5.42 3.671-7.625 6.5-2.104 2.645-3.2 3.455-6.188 4.75l-1.324 1.54c-2.215 1.93-3.473 1.773-6.363 1.648l-2.45-.083L299 185v-1l3.813-.312c5.49-1.174 8.472-4.559 12.149-8.501C323.562 166 323.562 166 329 166" fill="#473C3C"/><path d="M316 250c2.563 1.313 2.563 1.313 4 3v3c-2.763-.523-5.326-1.109-8-2a140 140 0 0 0-6.187-.062l-3.293.027L300 254c5.12-4.06 9.609-4.658 16-4" fill="#706F6F"/><path d="M201 356c1.888 2.832 2.41 4.198 3.035 7.422l.514 2.61.513 2.718.526 2.672c.941 4.846 1.764 9.684 2.412 14.578-2.762-2.762-2.579-5.207-3-9h-2a940 940 0 0 1-1.562-7.687l-.46-2.186c-.788-4.016-1.174-7.11.022-11.127" fill="#A3A2A2"/><path d="M229 293c3.584-.09 5.52.552 8.145 3 5.38 6.049 5.38 6.049 6.855 9l-1 2c-3.328-1.11-3.56-1.501-5.312-4.312-1.764-2.624-3.314-4.328-6-6L229 295z" fill="#7C7A7A"/><path d="M231 262c5.128 4.506 8.682 10.061 12 16v2h-2l-5-9-4 2c-1.203-2.405-1.1-3.95-1.062-6.625l.027-2.477z" fill="#403E3E"/><path d="M306 323h1c1.4 8.87 1.095 16.357-4 24-2.625.688-2.625.688-5 1l1.023-1.828 1.352-2.422 1.336-2.39L303 339l1.125-1.906c1.165-2.789 1.304-5.336 1.5-8.344l.227-3.266z" fill="#E0E2E1"/><path d="M265 264c6.259-.533 10.451 1.182 16 4l-3 4-1.54-.805c-4.082-2.095-8.047-3.871-12.46-5.195z" fill="#E6B297"/><path d="M286 142c0 3.908-1.688 5.038-4.219 7.82-2.756 3.373-4.825 7.142-6.972 10.922C273 163 273 163 270.285 163.82L268 164c4.905-8.326 11.366-15.055 18-22" fill="#8D120A"/><path d="m360 136 2 1-1.39 1.32c-2.982 2.894-5.447 5.41-7.61 8.993-2.61 3.507-4.803 3.832-9 4.687l-2 1c1.02-2.69 1.706-3.826 4.219-5.312 3.245-1.97 5.812-4.295 8.594-6.875l1.521-1.405A967 967 0 0 0 360 136" fill="#220200"/><path d="M291 304c4.914.434 7.527 2.606 11 6 .875 2.313.875 2.313 1 4l-7-1 2-1v-2l-11-1v-1l6-1z" fill="#595757"/><path d="M256 268c-1 3-1 3-3 4a95 95 0 0 1-5.125.063l-2.758-.028L243 272v-3c4.76-1.974 7.965-2.007 13-1" fill="#FFFBF7"/><path d="m267 369 2 1c-3.44 2.294-4.723 3-9 3v2h5v1c-5.99.315-9.636-.318-15-3v-1l2.195-.148c5.273-.408 9.8-1.056 14.805-2.852" fill="#F3C4AD"/><path d="m307 326 1 2h2c-.486 6.848-1.36 13.33-3 20l-4 1c.619-3.383 1.473-6.553 2.563-9.812 1.42-4.598 1.703-8.4 1.437-13.188" fill="#EDBBA0"/><path d="M243 334h2c-.277 3.33-.811 4.788-3.062 7.313-4.016 2.306-6.341 2.058-10.938 1.687l-3-1 1-3 2 1c3.872.43 5.525.317 8.813-1.875 2.227-1.93 2.227-1.93 3.187-4.125" fill="#E9B397"/><path d="M573 153c3 1 3 1 4.188 2.688 1.005 2.862.949 5.3.812 8.312h-3c-3.077-5.292-3.077-5.292-2.687-8.875z" fill="#FEECE9"/><path d="M508 392c6.987 3.244 12.315 8.211 16 15l-3 1c-4-4.75-4-4.75-4-7h-2c-1.727-1.715-1.727-1.715-3.625-3.937l-1.914-2.215C508 393 508 393 508 392" fill="#8A8989"/><path d="M578 369c11.868 7.59 11.868 7.59 16 12v2c-4.052-1.745-7.306-4.423-10.75-7.125l-1.824-1.418Q579.21 372.731 577 371z" fill="#949393"/><path d="m233.25 309.25 1.75.75c-1.31 2.92-2.756 4.756-5 7l-1 3-3-1c.319-3.504.69-5.584 2.813-8.437C231 309 231 309 233.25 309.25" fill="#62D0D6"/><path d="m474 329 2 1-2.887 2.633-3.8 3.492-1.897 1.727c-3.805 3.506-7.196 7.097-10.416 11.148 0-4.946 3.665-7.589 7-11a357 357 0 0 1 10-9" fill="#A9A7A7"/><path d="m291 326 .875 1.813c1.794 3.824 1.794 3.824 5.25 5.875L299 334l-1 3-1.625-.937C293.602 334.822 291 334.409 288 334c.75-5.75.75-5.75 3-8" fill="#09788D"/><path d="M238 281c2 1.813 2 1.813 3 4-.312 2.25-.312 2.25-1 4l-1.625-2.5c-2.166-2.812-2.166-2.812-5.5-2.875-2.812.207-2.812.207-4.875 1.375.375-1.937.375-1.937 1-4 3.183-1.592 5.613-.772 9 0" fill="#5D5048"/><path d="m277 273 3 1q-2.426 3.508-4.875 7l-1.395 2.023c-1.193 1.696-2.457 3.34-3.73 4.977h-2c1.388-3.89 3.215-6.966 5.625-10.312l1.914-2.676z" fill="#484543"/><path d="M285.125 287.938c3.173 1.172 4.718 2.49 6.875 5.062l-1 2-2.062-1.562c-3.768-1.844-5.895-1.262-9.938-.438h-3c5.104-4.982 5.104-4.982 9.125-5.062" fill="#514C49"/><path d="M420 428c6.165.385 9.986 2.47 15 6l-1 3h-2v-2l-1.734-.867L420 429z" fill="#9F9E9E"/><path d="M428 372c.707 1.633.707 1.633 1 4-1.363 2.805-1.363 2.805-3.312 5.875-2.512 3.984-4.357 7.598-5.688 12.125l-2-1c1.332-4.724 3.406-8.654 5.828-12.879 1.274-2.305 2.248-4.657 3.172-7.121z" fill="#706F6F"/><path d="m534 314 1 2a91 91 0 0 1-3.812 6.563l-1.12 1.826c-2.798 4.476-2.798 4.476-5.068 5.611.55-4.248 1.987-6.81 4.5-10.25l1.906-2.64C533 315 533 315 534 314" fill="#8B7C7C"/><path d="M207.188 401.375 209 402l-1.54 1.102c-4.562 3.332-8.564 6.807-12.46 10.898l-2-1a1444 1444 0 0 1 4.313-4.875l2.425-2.742c4.315-4.545 4.315-4.545 7.45-4.008" fill="#999"/><path d="m240 363 3.813.5c5.401.61 10.758.591 16.187.5l-4 1v2h-14z" fill="#D2402F"/><path d="M549 305h2c2.429 8.429 2.429 8.429 1 13h-2c-.872-2.995-1.108-5.636-1.062-8.75l.027-2.422z" fill="#5C5A5A"/><path d="M297 186c-3.371 2.248-5.924 2.798-9.875 3.625-1.214.26-2.429.52-3.68.79-2.916.495-5.501.708-8.445.585 3.355-2.237 6.596-3.167 10.438-4.187l2.025-.577c3.475-.933 6.123-1.607 9.537-.236" fill="#594C52"/><path d="m341 103 2 1-3.312 1.813c-2.639 1.501-4.588 2.991-6.688 5.187-2.562 1.75-2.562 1.75-5 3l-2-1c2.924-3.18 5.834-5.254 9.625-7.312l2.914-1.614z" fill="#B82912"/><path d="M309 323h13c-3.004 2.003-4.71 2.493-8.187 3.125l-2.731.508L309 327z" fill="#0D0B0B"/><path d="M189 421c1.796 3.254 2.774 6.466 3.688 10.063l.824 3.16C194 437 194 437 193 440c-3.95-6.542-4.501-11.422-4-19" fill="#949393"/><path d="m603 394 2 1c1.05 3.15 1.101 5.388 1.063 8.688l-.028 3.011L606 409h-2l-.184-2.3-.254-3.012c-.08-.987-.162-1.973-.246-2.989-.234-2.793-.234-2.793-1.316-5.699z" fill="#929292"/><path d="M243 367q2.94.425 5.875.875l3.305.492C255 369 255 369 257 371c-7.224 1.347-7.224 1.347-10.937-.312C244 369 244 369 243 367" fill="#D84733"/><path d="M241 319a109 109 0 0 1-1 7l-2 1-2-1v-6c3-1 3-1 5-1" fill="#56AEBC"/><path d="M199 246c11.688-.204 11.688-.204 15 1 1.813 2.063 1.813 2.063 3 4-4.193-.648-8.265-1.512-12.375-2.562l-3.21-.817L199 247z" fill="#434242"/><path d="M359 96v2l-14 6-2-2q3.435-1.506 6.875-3c.976-.43.976-.43 1.973-.867C356.773 96 356.773 96 359 96" fill="#BE2F18"/><path d="M536 417c7.049 5.363 7.049 5.363 8 10-.875 2.313-.875 2.313-2 4l-1.25-3.687c-1.366-3.68-3.094-6.382-5.75-9.313z" fill="#939292"/><path d="M441 352h8v5c-3.375-.547-5.082-1.055-8-3z" fill="#4F5359"/><path d="M307 318h5l-1 2h-3v2h6v1h-5l1 5h-2c-2.125-6.625-2.125-6.625-1-10" fill="#514945"/><path d="m243 305 2 1v10c-2.672-3.563-3.773-5.846-5-10l3 1z" fill="#423F3E"/><path d="M206 300c3.95.551 7.35 1.39 11 3v4c-4.108-1.45-7.469-3.454-11-6z" fill="#292929"/><path d="m302 347 2 1 3-1a195 195 0 0 1 7 0c-2.645 1.764-3.972 2.385-6.937 3.063l-2.028.472L303 351q-2.001.495-4 1l-1-2z" fill="#CB947D"/><path d="M233 292c3.377.25 4.251 1.257 6.688 3.75 2.143 3.012 2.994 4.641 3.312 8.25l-1.625-2.187c-1.85-2.191-3.423-3.747-5.625-5.5L233 294z" fill="#454241"/><path d="m297 351 2 1c-1.812 2.063-1.812 2.063-5 4-3.73.058-7.322-.407-11-1v-1l2.555-.402 3.32-.536 3.305-.527c2.758-.39 2.758-.39 4.82-1.535" fill="#433E3C"/><path d="m191 422 2 1c.414 3.16.414 3.16.625 7.063l.227 3.91L194 437c-2.608-2.608-2.615-4.451-3.187-8.062l-.543-3.286L190 423z" fill="#595757"/><path d="M508 389c3.795 1.491 5.61 3.757 8 7l-1 2-2.25-2.375c-2.294-2.19-3.872-3.452-6.75-4.625z" fill="#666565"/><path d="M244 328c1 3 1 3-.187 6.063-1.805 2.924-2.642 3.843-5.813 4.937.576-3.886 2.513-6.046 5-9z" fill="#534B48"/><path d="M231 314h2l2 6h-6c.875-4.875.875-4.875 2-6" fill="#0F8396"/><path d="m544 312 2 1v6h-5c1.875-4.75 1.875-4.75 3-7" fill="#CC0904"/><path d="M550 116c4.274 1.583 6.265 4.506 9 8-3 0-3 0-4.605-1.242l-1.582-1.633-1.606-1.617C550 118 550 118 550 116" fill="#66504D"/><path d="m224 334 1.563.938c3.104 1.353 6.088 1.676 9.437 2.062l-3 1v2c-2.782-.376-4.588-.673-6.812-2.437C224 336 224 336 224 334" fill="#6A6664"/><path d="M302 324h2c1.327 3.981 1.07 7.85 1 12-1.904-1.904-2.935-3.334-3.2-6.047.011-1.985.1-3.97.2-5.953" fill="#21C3D2"/><path d="m234 292-5 1v2l-7 1v-2c3.658-2.11 8.012-3.994 12-2" fill="#5B5858"/><path d="M510 90c4.08.551 4.913.913 8 4l-11-1 3-1z" fill="#791810"/><path d="m600 410 3 2c-.75 1.938-.75 1.938-2 4-2.125.75-2.125.75-4 1z" fill="#494848"/><path d="m421 374 1 3c-1.812 2.688-1.812 2.688-4 5h-2c1.625-5.75 1.625-5.75 5-8" fill="#434242"/><path d="M586 168c3.35 3.35 3.895 5.494 5 10h-3z" fill="#E41E10"/><path d="M585 376c3.87.573 6.152 2.39 9 5v2c-3.817-1.555-6.192-4.036-9-7" fill="#A3A3A3"/><path d="m262 369-1 3h-10c4.423-3.317 5.72-3.305 11-3" fill="#C8291B"/><path d="M366 210c7.483 6.15 7.483 6.15 10 10-3 0-3 0-4.824-1.68l-1.863-2.195-1.887-2.18C366 212 366 212 366 210" fill="#211A1E"/><path d="m561 342 3 1c.73 1.848.73 1.848 1.188 4.063l.48 2.222L566 351l-2 1c-3-6.625-3-6.625-3-10" fill="#8B8A8A"/><path d="m539 432 3 3c-.282 2.325-.954 3.909-2 6h-2z" fill="#414040"/><path d="M299 353c.625 1.875.625 1.875 1 4l-2 2h-3v-3h2v-2z" fill="#FDECEB"/><path d="m307 326 1 2h2l-1 9h-1z" fill="#DDB49E"/><path d="M232 291v1l-10 2 1-3c3.069-1.534 5.7-.55 9 0" fill="#4C4542"/><path d="M524 330c0 3 0 3-2.5 5.688L519 338c.542-3.796 2.201-5.472 5-8" fill="#938D8D"/><path d="M236 280c-1.624 3.247-4.754 3.702-8 5 .375-1.937.375-1.937 1-4 2.463-1.231 4.28-1.072 7-1" fill="#45403D"/><path d="m271 281 3 1a125 125 0 0 1-4 6h-2c1.875-4.75 1.875-4.75 3-7" fill="#504A48"/><path d="m258 262 10 1c-3.228 2.152-4.284 2.2-8 2v-2z" fill="#C69B85"/><path d="M231 256h1v6h-3c-1.687-2-1.687-2-3-4l4 1z" fill="#48484A"/><path d="M228 345h1v9l-2-4-3-1h3z" fill="#F0E8E2"/></svg>