<svg xmlns="http://www.w3.org/2000/svg" width="755" height="548"><path d="m266 18 3 1 .332 2.648c.83 6.444 1.735 12.845 2.882 19.24C273.604 48.669 274.42 56.063 274 64h2c1.438 1.57 2.8 3.209 4.125 4.875 3.47 4.37 3.47 4.37 7.035 8.66 7.87 9.326 12.275 18.083 13.32 30.336.57 3.43 1.373 5.404 3.52 8.129 2.006 1.01 2.006 1.01 4.188 1.313L312 118c-.7 3.147-1.76 6.026-3 9l2.555 2.195 3.32 2.93 1.684 1.438c5.578 4.973 6.712 10.074 7.441 17.437q.092 3.097.14 6.195l.06 3.418q.05 3.524.054 7.047c-.107 6.864-.107 6.864 3.148 12.563 2.163 1.48 4.173 2.789 6.598 3.777-2.14 2.355-4.14 3.64-7 5l1.574 1.18c6.515 5.226 9.803 10.951 12.426 18.82 6.279 3.14 15.307.397 21.813-1.062l3.016-.675C380.15 203.93 394.259 200.546 405 190c2.178-2.052 4.37-4.088 6.563-6.125l1.675-1.57c8.62-8.002 16.2-12.897 28.223-12.68 9.455 1.002 17.45 5.569 25.2 10.824A48.4 48.4 0 0 0 473 184l1.355-2.195c8.267-13.22 8.267-13.22 13.645-16.805 5.567.271 9.826 1.999 14.688 4.5l2.1 1.066c6.637 3.472 12.398 7.71 18.212 12.434l1.79 1.293c6.686 4.952 11.956 13.141 15.21 20.707.145 2.16.145 2.16-.187 4.063l-.293 1.91C539 213 539 213 537.977 215.418a22.93 22.93 0 0 0-.067 16.05c2.415 4.536 5.444 8.383 8.953 12.122C548 245 548 245 548 247c-6.75 1.125-6.75 1.125-9 0l.805 1.941 1.07 2.621 1.055 2.567c3.53 9.47 5.562 19.594 1.386 29.156-1.638 3.378-3.464 6.637-5.32 9.898-3.404 6.212-5.181 11.706-3.996 18.817 1.232 3.094 2.695 5.588 5 8 3.393 1.373 4.517 1.161 8 0-1.363 5.205-3.198 8.286-7 12-2.812.375-2.812.375-5 0 .88 2.914.88 2.914 2.125 5.125 1.591 5.228.777 9.994-1.562 14.875-5.17 6.052-11.335 11.075-17.563 16 .591 4.847 1.98 8.607 4 13-5.517-1.724-11.445-5.124-14.25-10.312.399-4.286 2.319-7.883 4.25-11.688l-6 1 1.348-2.195 1.714-2.93 1.723-2.883c1.484-3.654 1.327-5.233.215-8.992a114 114 0 0 0-3.562-6.875l-1.942-3.492L504 330c-7.337 14.674-11.124 31.987-6 48 3.75 9.596 8.517 15.345 17 21-.522 6.51-2.837 11.84-5.375 17.813-4.37 10.586-8.117 21.29-11.625 32.187l-.718 2.215c-6.216 15.805-6.216 15.805-5.414 31.763a119 119 0 0 0 3.695 6.21 296 296 0 0 1 2.566 4.167l1.158 1.833c.923 2.345.424 3.43-.287 5.812a74 74 0 0 0 .043 4.59l.064 2.627q.08 2.715.196 5.43c.084 4.21.104 6.66-2.065 10.357-5.442 4.853-10.681 4.362-17.675 4.371l-3.143.074c-4.468.017-7.577-.015-11.592-2.082-3.34-4.325-2.935-9.069-2.27-14.335 1.264-5.81 4.458-11.003 7.371-16.123 9.748-17.38 12.168-36.48 15.071-55.909l.411-2.68A211 211 0 0 0 487 424l.395-3.723c1.455-23.855-21.122-46.044-34.991-63.488A291 291 0 0 1 448 351a442 442 0 0 0-3 9l-1.187 3.625c-1.874 7.909-2.353 18.126.988 25.688 2.003 2.819 4.71 4.73 7.554 6.656 2.05 2.532 2.212 4.476 2.048 7.689-.816 4.748-2.836 9.024-4.778 13.404l-1.356 3.16A1220 1220 0 0 1 444 430l-1.375 3.117-1.34 3.04C430.744 456.372 430.744 456.372 429 478c1.648 1.886 3.354 3.252 5.383 4.715C436 484 436 484 436.813 486.375L437 489l.988 3.59c1.162 4.558 1.38 8.91 1.387 13.598l.074 2.365c.02 3.922-.155 5.966-2.242 9.385-4.194 3.919-8.898 5.206-14.582 5.437-5.123-.178-9.85-1.577-14.625-3.375l-2.23-.727C404 518 404 518 403.12 515.258c-.138-3.717.535-5.951 1.942-9.383l1.406-3.434a214 214 0 0 1 4.594-9.628l1.523-3.016q1.273-2.524 2.578-5.031c6.488-13.967 6.169-31.442 7.524-46.579l.202-2.25q.285-3.228.56-6.457l.322-3.784c.967-8.309.967-8.309-1.772-15.696a107 107 0 0 0-7.125-4.25c-11.17-6.418-19.05-14.534-23.383-26.852-.692-2.668-.697-5.163-.492-7.898h-2l-.375 3.188c-.32 2.63-.696 5.236-1.137 7.851-2.35 13.97-2.594 25.446 5.524 37.563 2.892 7.018.233 13.85-2.2 20.586l-1.052 2.97c-5.445 14.935-12.174 29.497-19.15 43.772l-1.01 2.082a397 397 0 0 1-2.526 5.043c-1.285 3.524-1.394 6.22-1.074 9.945 1.782 3.257 1.782 3.257 4 6l2 3-2 1 1.438 3.625c2.213 5.58 2.729 11.09 2.812 17.063l.078 3.386C374 541 374 541 372.875 542.758c-8.613 5.706-20.946 6.416-30.875 5.242-3.996-1.26-7.01-3.01-10-6-.529-4.826.565-7.825 2.813-12.062l1.582-3.036a137 137 0 0 1 3.207-5.504c1.303-2.234 2.133-4.27 2.96-6.71 2.184-5.663 5.335-10.572 8.645-15.627 5.629-8.666 9.477-17.114 11.856-27.186l.754-3.105c6.264-21.157 6.264-21.157 5.152-42.192C362.113 415.711 353.757 406.353 345 397l-1.732-1.853q-5.666-6.056-11.345-12.1-3.782-4.024-7.554-8.056a1096 1096 0 0 0-3.593-3.818c-3.1-3.294-5.939-6.66-8.714-10.236-4.896-5.682-12.14-7.639-19.062-9.937l-.996 1.434C280.742 368.09 261.352 384.324 244 393q2.904 2.47 5.813 4.938l1.788 1.517c3.64 3.08 7.314 6.111 11.024 9.108 4.898 3.977 9.541 8.174 14.16 12.468 3.264 2.901 5.531 3.377 9.926 3.313 6.01-.903 11.482-4.668 15.113-9.473 1.518-2.415 2.84-4.913 4.176-7.433 4.26-7.915 4.26-7.915 8-10.438 4.594-.94 7.986-.497 12.188 1.563 9.039 7.833 12.907 15.72 14.027 27.64-.36 4.683-2.804 7.793-6.277 10.797-5.722 4.691-12.47 8.41-19.938 9l1 2c-6.993-.46-12.396-2.047-18.762-4.914l-2.75-1.21c-9.025-4.019-17.854-8.418-26.655-12.903a2995 2995 0 0 0-13.65-6.903c-.884-.445-1.77-.89-2.681-1.35a471 471 0 0 0-24.575-11.436c-5.007-2.2-9.203-4.213-12.927-8.284-6.179-27.64 12.137-66.481 26.25-89.062 2.125-3.466 2.75-4.521 2.75-8.688l-1-3.25c-2.364-10.909 3.27-20.012 8.375-29.437l1.464-2.774c2.016-3.818 4.045-7.62 6.212-11.355 7.145-12.807 4.04-27.465.217-41.034-3.027-10.024-6.54-19.714-11.202-29.1C245 184 245 184 245 182c-28.582 15.233-28.582 15.233-47 40a132 132 0 0 0-1.926 10.38c-.83 5.474-2.301 8.991-6.387 12.745-8.818 6.153-17.942 7.04-28.437 7.125l-2.148.028c-10.413-.062-20.555-4.555-28.79-10.84-2.448-2.582-3.111-3.927-3.312-7.438h5l-.625-3.375L131 227l2-2h4l.148-2.281c1.946-27.642 7.463-54.66 20.539-79.341 1.988-3.656 1.988-3.656 1.66-7.632L158 134l-1.07-1.746-1.055-1.691c-1.703-3.025-2.797-5.058-1.875-8.563 2.856-2.788 5.484-4.704 8.938-6.687 3.704-2.798 5.844-5.87 8.37-9.731C173 103 173 103 174.66 100.887c2.143-2.852 3.475-4.635 3.082-8.278-1.202-3.922-2.484-7-5.742-9.609-2.099-.78-2.099-.78-4.375-1.312-4.967-1.56-6.834-3.29-9.625-7.688-2.713-7.46-3.18-15.076-3.187-22.937l-.038-2.303c-.013-5.242.775-9.721 2.225-14.76 4.075.943 7.803 2.515 11.625 4.188l2.151.94c6.81 3.036 13.027 6.74 19.224 10.872 6.166.322 11.889-1.18 17.688-3.125 7.21-2.335 11.68-2.246 18.625 1 2.707 1.395 4.571 2.95 6.687 5.125l1.392-2.04c5.02-7.151 10.551-13.302 16.796-19.397l2.654-2.64c8.473-8.37 8.473-8.37 12.158-10.923" fill="#A25029"/><path d="M157 34c4.075.943 7.803 2.515 11.625 4.188l2.151.94c6.81 3.036 13.027 6.74 19.224 10.872 6.166.322 11.889-1.18 17.688-3.125 7.168-2.322 11.64-2.25 18.562.938 5.801 3.225 5.801 3.225 7.75 6.187.332 2.342.454 4.666.586 7.027.497 3.571 1.659 6.557 2.976 9.91 2.858 7.613 4.059 14.078.938 21.75L237 95h-1l1-15-3.937 2.813c-4.9 3.425-9.87 6.732-14.875 10l-2.21 1.454C210.704 97.69 206.494 100.37 200 100l-.918 2.668C194.605 115.08 194.605 115.08 190 118c-3.548.315-5.296-.415-8.02-2.68a119 119 0 0 1-4.05-3.922c-1.841-1.67-1.841-1.67-4.172-1.109L172 111l2.375 2.25c2.238 2.344 3.319 3.893 4.625 6.75l-2.047-.105-2.703-.082-2.672-.106c-3.083.35-4.363 1.153-6.578 3.293l-1 3h10l-3 6c-.04 2-.043 4 0 6l3-1 1-6h2v3h2l-1-4h2v9l8-1-1 2a91 91 0 0 1-6.062 1.375c-5.595 1.199-9.945 2.893-14.938 5.625h-2l-.727 1.992c-1.311 3.098-2.834 5.983-4.446 8.932C148.496 176.846 142.11 199.227 143 221l3.938-.5q2.53-.254 5.062-.5l2.285-.312c5.09-.431 7.606.584 11.653 3.75q2.035 1.775 4.062 3.562c2.314 1.157 3.86 1.232 6.438 1.313l2.37.113c2.318-.248 2.318-.248 3.958-2.09 1.508-2.854 1.534-4.809 1.547-8.024.493-7.943 3.997-12.95 9.625-18.375 7.536-6.019 17.041-9.967 25.687-14.125 6.274-3.116 10.019-6.63 13.375-12.812l-1.812-.75c-2.547-1.455-3.705-2.73-5.188-5.25v-4l1.727.48c5.426 1.24 9.845 1.35 14.71-1.48l2.563-2h2c-.291 5.97-3.028 8.895-7 13 7.64-.789 13.458-5.154 18.598-10.734 2.628-3.957 3.117-8.152 2.914-12.778-1.38-6.706-6.94-11.189-12.094-15.261-2.334-2.02-2.426-3.308-2.73-6.415.386-4.713 1.754-6.895 4.312-10.812h2l-.387 1.8c-.364 3.04-.343 5.208.387 8.2 2.534 3.147 5.318 5.763 8.285 8.488 5.17 4.783 6.925 8.566 7.34 15.7-.286 8.888-3.974 16.182-10 22.625l-1.523 1.394c-1.839 2.992-1.418 5.332-1.102 8.793.868 3.434 2 6.768 3.125 10.125 2.935 9.218 5.307 18.474 7.313 27.938l.783 3.56c2.098 10.23 4.445 22.921-1.221 32.377a331 331 0 0 1-3.875 5.188c-6.209 8.293-10.117 17.274-9.605 27.777 1.974 12.47 8.778 24.818 18.64 32.73 4.564 3.236 8.27 3.794 13.84 3.305 7.32-2.635 10.707-8.016 13.97-14.661 2.265-5.142 3.803-10.556 5.473-15.913l.873-2.723.764-2.448c.992-2.433 2.263-4.228 3.92-6.255 3 1 3 1 4.176 3.055 1.04 3.719 1.078 7.244 1.012 11.07l-.002 2.168c-.027 3.159-.18 5.691-1.186 8.707-1.31 19.53 4.179 34.34 16.938 49.25A419 419 0 0 0 337 366l2.27 2.488c5.756 6.03 12.27 11.49 20.918 11.887 6.67-.087 10.71-3.423 15.437-7.812 11.253-14.66 10.961-34.975 9.059-52.473-1.425-9.505-4.032-18.594-7.098-27.682-1.704-5.233-2.176-9.954-1.586-15.408l3-1c11.077 7.167 16.513 21.833 20 34a123 123 0 0 1 1.543 8.695c.483 2.437 1.13 4.206 2.457 6.305 2.96 1.198 4.898 1.407 7.926.29 10.786-5.907 15.51-18.12 19.074-29.29.913-3.315 1.689-6.659 2.466-10.007 2.715-11.358 7.189-25.648 15.534-33.993h3c.228 5.866-.441 11.254-1.423 17.036-3.923 23.133-6.652 49.24 6.36 70.027 3.028 4.18 5.913 7.398 11.231 8.308 5.465.302 8.625-.7 12.832-4.371l1.758-1.531c19.298-19.064 31.334-57.552 31.555-84.344.013-15.102-4.144-26.985-11.313-40.125l-1.277-2.91c-2.347-4.21-5.407-7.431-8.723-10.903-.663-.7-1.325-1.402-2.008-2.125C484.69 195.536 479.139 190.596 473 186c1.343-4.83 3.342-8.212 6.375-12.187l2.336-3.106c3.754-4.44 3.754-4.44 6.289-5.707 5.546.159 9.853 2.013 14.688 4.5l2.1 1.066c6.637 3.472 12.398 7.71 18.212 12.434l1.79 1.293c6.686 4.952 11.956 13.141 15.21 20.707.145 2.16.145 2.16-.187 4.063l-.293 1.91C539 213 539 213 537.977 215.418a22.93 22.93 0 0 0-.067 16.05c2.415 4.536 5.444 8.383 8.953 12.122C548 245 548 245 548 247c-6.75 1.125-6.75 1.125-9 0l.805 1.941 1.07 2.621 1.055 2.567c3.53 9.47 5.562 19.594 1.386 29.156-1.638 3.378-3.464 6.637-5.32 9.898-3.404 6.212-5.181 11.706-3.996 18.817 1.232 3.094 2.695 5.588 5 8 3.393 1.373 4.517 1.161 8 0-1.363 5.205-3.198 8.286-7 12-2.812.375-2.812.375-5 0 .88 2.914.88 2.914 2.125 5.125 1.591 5.228.777 9.994-1.562 14.875-5.17 6.052-11.335 11.075-17.563 16 .591 4.847 1.98 8.607 4 13-5.517-1.724-11.445-5.124-14.25-10.312.399-4.286 2.319-7.883 4.25-11.688l-6 1 1.348-2.195 1.714-2.93 1.723-2.883c1.484-3.654 1.327-5.233.215-8.992a114 114 0 0 0-3.562-6.875l-1.942-3.492L504 330c-7.337 14.674-11.124 31.987-6 48 3.75 9.596 8.517 15.345 17 21-.522 6.51-2.837 11.84-5.375 17.813-4.37 10.586-8.117 21.29-11.625 32.187l-.718 2.215c-6.216 15.805-6.216 15.805-5.414 31.763a119 119 0 0 0 3.695 6.21 296 296 0 0 1 2.566 4.167l1.158 1.833c.923 2.345.424 3.43-.287 5.812a74 74 0 0 0 .043 4.59l.064 2.627q.08 2.715.196 5.43c.084 4.21.104 6.66-2.065 10.357-5.442 4.853-10.681 4.362-17.675 4.371l-3.143.074c-4.468.017-7.577-.015-11.592-2.082-3.34-4.325-2.935-9.069-2.27-14.335 1.264-5.81 4.458-11.003 7.371-16.123 9.748-17.38 12.168-36.48 15.071-55.909l.411-2.68A211 211 0 0 0 487 424l.395-3.723c1.455-23.855-21.122-46.044-34.991-63.488A291 291 0 0 1 448 351a442 442 0 0 0-3 9l-1.187 3.625c-1.874 7.909-2.353 18.126.988 25.688 2.003 2.819 4.71 4.73 7.554 6.656 2.05 2.532 2.212 4.476 2.048 7.689-.816 4.748-2.836 9.024-4.778 13.404l-1.356 3.16A1220 1220 0 0 1 444 430l-1.375 3.117-1.34 3.04C430.744 456.372 430.744 456.372 429 478c1.648 1.886 3.354 3.252 5.383 4.715C436 484 436 484 436.813 486.375L437 489l.988 3.59c1.162 4.558 1.38 8.91 1.387 13.598l.074 2.365c.02 3.922-.155 5.966-2.242 9.385-4.194 3.919-8.898 5.206-14.582 5.437-5.123-.178-9.85-1.577-14.625-3.375l-2.23-.727C404 518 404 518 403.12 515.258c-.138-3.717.535-5.951 1.942-9.383l1.406-3.434a214 214 0 0 1 4.594-9.628l1.523-3.016q1.273-2.524 2.578-5.031c6.488-13.967 6.169-31.442 7.524-46.579l.202-2.25q.285-3.228.56-6.457l.322-3.784c.967-8.309.967-8.309-1.772-15.696a107 107 0 0 0-7.125-4.25c-11.17-6.418-19.05-14.534-23.383-26.852-.692-2.668-.697-5.163-.492-7.898h-2l-.375 3.188c-.32 2.63-.696 5.236-1.137 7.851-2.35 13.97-2.594 25.446 5.524 37.563 2.892 7.018.233 13.85-2.2 20.586l-1.052 2.97c-5.445 14.935-12.174 29.497-19.15 43.772l-1.01 2.082a397 397 0 0 1-2.526 5.043c-1.285 3.524-1.394 6.22-1.074 9.945 1.782 3.257 1.782 3.257 4 6l2 3-2 1 1.438 3.625c2.213 5.58 2.729 11.09 2.812 17.063l.078 3.386C374 541 374 541 372.875 542.758c-8.613 5.706-20.946 6.416-30.875 5.242-3.996-1.26-7.01-3.01-10-6-.529-4.826.565-7.825 2.813-12.062l1.582-3.036a137 137 0 0 1 3.207-5.504c1.303-2.234 2.133-4.27 2.96-6.71 2.184-5.663 5.335-10.572 8.645-15.627 5.629-8.666 9.477-17.114 11.856-27.186l.754-3.105c6.264-21.157 6.264-21.157 5.152-42.192C362.113 415.711 353.757 406.353 345 397l-1.732-1.853q-5.666-6.056-11.345-12.1-3.782-4.024-7.554-8.056a1096 1096 0 0 0-3.593-3.818c-3.1-3.294-5.939-6.66-8.714-10.236-4.896-5.682-12.14-7.639-19.062-9.937l-.996 1.434C280.742 368.09 261.352 384.324 244 393q2.904 2.47 5.813 4.938l1.788 1.517c3.64 3.08 7.314 6.111 11.024 9.108 4.898 3.977 9.541 8.174 14.16 12.468 3.264 2.901 5.531 3.377 9.926 3.313 6.01-.903 11.482-4.668 15.113-9.473 1.518-2.415 2.84-4.913 4.176-7.433 4.26-7.915 4.26-7.915 8-10.438 4.594-.94 7.986-.497 12.188 1.563 9.039 7.833 12.907 15.72 14.027 27.64-.36 4.683-2.804 7.793-6.277 10.797-5.722 4.691-12.47 8.41-19.938 9l1 2c-6.993-.46-12.396-2.047-18.762-4.914l-2.75-1.21c-9.025-4.019-17.854-8.418-26.655-12.903a2995 2995 0 0 0-13.65-6.903c-.884-.445-1.77-.89-2.681-1.35a471 471 0 0 0-24.575-11.436c-5.007-2.2-9.203-4.213-12.927-8.284-6.179-27.64 12.137-66.481 26.25-89.062 2.125-3.466 2.75-4.521 2.75-8.688l-1-3.25c-2.364-10.909 3.27-20.012 8.375-29.437l1.464-2.774c2.016-3.818 4.045-7.62 6.212-11.355 7.145-12.807 4.04-27.465.217-41.034-3.027-10.024-6.54-19.714-11.202-29.1C245 184 245 184 245 182c-28.582 15.233-28.582 15.233-47 40a132 132 0 0 0-1.926 10.38c-.83 5.474-2.301 8.991-6.387 12.745-8.818 6.153-17.942 7.04-28.437 7.125l-2.148.028c-10.413-.062-20.555-4.555-28.79-10.84-2.448-2.582-3.111-3.927-3.312-7.438h5l-.625-3.375L131 227l2-2h4l.148-2.281c1.946-27.642 7.463-54.66 20.539-79.341 1.988-3.656 1.988-3.656 1.66-7.632L158 134l-1.07-1.746-1.055-1.691c-1.703-3.025-2.797-5.058-1.875-8.563 2.856-2.788 5.484-4.704 8.938-6.687 3.704-2.798 5.844-5.87 8.37-9.731C173 103 173 103 174.66 100.887c2.143-2.852 3.475-4.635 3.082-8.278-1.202-3.922-2.484-7-5.742-9.609-2.099-.78-2.099-.78-4.375-1.312-4.967-1.56-6.834-3.29-9.625-7.688-2.713-7.46-3.18-15.076-3.187-22.937l-.038-2.303c-.013-5.242.775-9.721 2.225-14.76" fill="#6B2812"/><path d="M275.375 170.688C278 171 278 171 279.531 172.68c1.598 2.524 2.567 4.954 3.594 7.757C290.533 198.573 303.336 209.545 321 217a285 285 0 0 0 10.602 3.77c4.687 1.697 9.104 3.863 13.558 6.093 2.97 1.189 4.7 1.788 7.84 1.137a173 173 0 0 0 3-5c2.582-1.555 2.582-1.555 5.813-2.875l1.828-.749c6.44-2.555 13.062-4.57 19.674-6.627C408.209 206.1 408.209 206.1 429 192v-2l-7-4c.565-3.28 1.37-4.934 4-7 8.725-4.063 17.619-2.364 26.427.742 21.168 8.015 37.383 24.264 46.98 44.496 7.107 16.079 6.607 36.404.593 52.762-4.273 10.711-9.248 19.303-18.875 26-4.493 1.438-8.474 2.02-13.125 1-5.474-3.463-7.02-9.257-8.457-15.254-.575-2.907-1.061-5.822-1.543-8.746-.415 17.847-.713 34.643 4 52 .36 1.995.704 3.994 1 6h-2c-10.7-18.594-12.009-41.59-6.805-62.258a148 148 0 0 1 1.485-4.797c2.891-9.228 1.154-20.877-1.68-29.945-3.19.273-4.612.566-6.781 2.992l-1.719 2.883-.984 1.65c-4.374 7.595-8.002 15.619-11.684 23.564-9.656 20.623-9.656 20.623-16.832 25.911-4.435.11-6.818-2.114-10-5-2.42-3.013-4.645-6.157-6.875-9.312-8.15-12.08-8.15-12.08-20.125-19.688-3.774.216-3.774.216-7 1-3.088 10.368-.646 20.957 2.027 31.09 1.934 7.528 2.213 14.924 2.286 22.66l.087 3.094c.078 9.46-2.122 18.802-8.4 26.156-4.54 3.163-8.415 5.135-13.937 5.063l-2.653-.028L349 353h-3l1.426 1.61 1.887 2.14 1.863 2.11A105 105 0 0 1 356 365c-8.415-1.179-14.778-8.115-20.086-14.375-13.796-18.92-14.001-41.235-14.466-63.643a2879 2879 0 0 0-.167-7.263l-.04-2.26c-.03-3.857-.03-3.857-1.241-7.459-4.915.421-6.844 2.305-10 6a99 99 0 0 0-8.375 13.625c-3.088 5.688-7.547 9.605-13.125 12.813-5.242 1.179-9.532 1.371-14.312-1.125-3.996-2.9-5.762-5.318-6.797-10.168-.441-10.453 2.565-19 6.231-28.693 6.194-16.42 6.824-29.73 1.378-46.452q-1.016-3.241-2.02-6.485a848 848 0 0 0-1.317-4.186c-2.013-6.346-2.87-11.573-2.913-18.204l-.062-2.395c-.034-5.014.596-8.354 3.312-12.73 1-1 1-1 3.375-1.312" fill="#B46032"/><path d="M157 34c4.075.943 7.803 2.515 11.625 4.188l2.151.94c6.81 3.036 13.027 6.74 19.224 10.872 6.166.322 11.889-1.18 17.688-3.125 7.168-2.322 11.64-2.25 18.562.938 5.801 3.225 5.801 3.225 7.75 6.187.332 2.342.454 4.666.586 7.027.497 3.571 1.659 6.557 2.976 9.91 2.858 7.613 4.059 14.078.938 21.75L237 95h-1l1-15-3.937 2.813c-4.9 3.425-9.87 6.732-14.875 10l-2.21 1.454C210.704 97.69 206.494 100.37 200 100l-.918 2.668C194.605 115.08 194.605 115.08 190 118c-3.548.315-5.296-.415-8.02-2.68a119 119 0 0 1-4.05-3.922c-1.841-1.67-1.841-1.67-4.172-1.109L172 111l2.375 2.25c2.238 2.344 3.319 3.893 4.625 6.75l-2.047-.105-2.703-.082-2.672-.106c-3.083.35-4.363 1.153-6.578 3.293l-1 3h10l-3 6c-.04 2-.043 4 0 6l3-1 1-6h2v3h2l-1-4h2v9l8-1-1 2a91 91 0 0 1-6.062 1.375c-5.595 1.199-9.945 2.893-14.938 5.625h-2l-.727 1.992c-1.311 3.098-2.834 5.983-4.446 8.932C148.496 176.846 142.11 199.227 143 221l3.938-.5q2.53-.254 5.062-.5l2.285-.312c5.09-.431 7.606.584 11.653 3.75q2.035 1.775 4.062 3.562c2.314 1.157 3.86 1.232 6.438 1.313l2.37.113c2.318-.248 2.318-.248 3.958-2.09 1.508-2.854 1.534-4.809 1.547-8.024.493-7.943 3.997-12.95 9.625-18.375 7.536-6.019 17.041-9.967 25.687-14.125 6.274-3.116 10.019-6.63 13.375-12.812l-1.812-.75c-2.547-1.455-3.705-2.73-5.188-5.25v-4l1.727.48c5.426 1.24 9.845 1.35 14.71-1.48l2.563-2h2c-.291 5.97-3.028 8.895-7 13 7.64-.789 13.458-5.154 18.598-10.734 2.628-3.957 3.117-8.152 2.914-12.778-1.38-6.706-6.94-11.189-12.094-15.261-2.334-2.02-2.426-3.308-2.73-6.415.386-4.713 1.754-6.895 4.312-10.812h2l-.387 1.8c-.364 3.04-.343 5.208.387 8.2 2.534 3.147 5.318 5.763 8.285 8.488 5.17 4.783 6.925 8.566 7.34 15.7-.286 8.888-3.974 16.182-10 22.625l-1.523 1.394c-1.839 2.992-1.418 5.332-1.102 8.793.868 3.434 2 6.768 3.125 10.125 2.935 9.218 5.307 18.474 7.313 27.938l.783 3.56c2.098 10.23 4.445 22.921-1.221 32.377a331 331 0 0 1-3.875 5.188c-6.209 8.293-10.117 17.274-9.605 27.777 1.974 12.47 8.778 24.818 18.64 32.73 4.564 3.236 8.27 3.794 13.84 3.305 7.32-2.635 10.707-8.016 13.97-14.661 2.265-5.142 3.803-10.556 5.473-15.913l.873-2.723.764-2.448c.992-2.433 2.263-4.228 3.92-6.255 3 1 3 1 4.176 3.055 1.04 3.719 1.078 7.244 1.012 11.07l-.002 2.168c-.027 3.159-.18 5.691-1.186 8.707-1.31 19.53 4.179 34.34 16.938 49.25A419 419 0 0 0 337 366l2.27 2.488c5.756 6.03 12.27 11.49 20.918 11.887 6.67-.087 10.71-3.423 15.437-7.812 11.253-14.66 10.961-34.975 9.059-52.473-1.425-9.505-4.032-18.594-7.098-27.682-1.704-5.233-2.176-9.954-1.586-15.408l3-1c11.077 7.167 16.513 21.833 20 34a123 123 0 0 1 1.543 8.695c.483 2.437 1.13 4.206 2.457 6.305 2.96 1.198 4.898 1.407 7.926.29 10.786-5.907 15.51-18.12 19.074-29.29.913-3.315 1.689-6.659 2.466-10.007 2.715-11.358 7.189-25.648 15.534-33.993h3c.228 5.866-.441 11.254-1.423 17.036-3.923 23.133-6.652 49.24 6.36 70.027 3.028 4.18 5.913 7.398 11.231 8.308 5.465.302 8.625-.7 12.832-4.371l1.758-1.531c19.298-19.064 31.334-57.552 31.555-84.344.012-13.875-3.286-25.216-9.922-37.332C502 217 502 217 502 214c14.735 19.058 22.701 35.621 19.732 60.22-3.53 20.586-14.478 39.98-24.076 58.24-5.365 10.268-5.365 10.268-7.656 21.54l-.207 2.898c-.24 7.214.69 13.978 2.14 21.014.963 4.788 1.198 9.201 1.067 14.088-4.701-.484-7.307-1.555-10.937-4.562l-2.403-1.942c-6.105-5.728-11.165-12.272-16.035-19.058l-1.693-2.356C455.11 354.48 447.86 344.212 444 333l-.898-2.59c-4.843-16.906-2.35-35.552.242-52.637.542-3.626.803-7.097.656-10.773-2.17 6.055-3.723 12.032-5.04 18.324C434.324 307.272 422.473 332.02 403 345c-2.625-.25-2.625-.25-5-1-1.321-2.642-1.345-5.21-1.594-8.118C394.956 319.24 391.03 305.66 383 291l1.023 3.664c7.979 29.032 7.806 56.524-1.023 85.336l-.586 1.92c-3.81 12.236-3.81 12.236-9.414 17.08-3.917 1.549-6.694 1.002-10.562-.312-23.535-10.363-44.53-35.527-53.782-59.114-3.036-9.4-3.434-18.779-3.656-28.574l-1.207 3.621c-3.188 9.563-3.188 9.563-3.995 11.96q-.808 2.451-1.561 4.92l-.749 2.41-.65 2.163c-.968 2.224-1.93 3.435-3.838 4.926-9.645.197-17.811-7.128-24.527-13.344-4.446-4.776-7.964-10.172-11.473-15.656 0 6.68 4.635 14.144 9 19 1.992 1.88 4.028 3.67 6.133 5.422 5.255 4.441 5.255 4.441 5.867 8.765.49 6.437-2.594 9.941-6.555 14.668-9.31 10.034-24.632 23.232-38.507 25.082C229 385 229 385 227 384c-1.257-19.175 6.653-36.842 13.827-54.164L242 327l1.128-2.65c1.194-3.217 1.305-6.246 1.497-9.663l.227-3.8L245 308l-3 1-.184-1.687-.254-2.313-.257-2.508c-.3-2.737-.3-2.737-1.118-6.367-1.093-8.766 5.162-18.128 9.188-25.562l1.464-2.774c2.016-3.818 4.045-7.62 6.212-11.355 7.145-12.807 4.04-27.465.217-41.034-3.027-10.024-6.54-19.714-11.202-29.1C245 184 245 184 245 182c-28.582 15.233-28.582 15.233-47 40a132 132 0 0 0-1.926 10.38c-.83 5.474-2.301 8.991-6.387 12.745-8.818 6.153-17.942 7.04-28.437 7.125l-2.148.028c-10.413-.062-20.555-4.555-28.79-10.84-2.448-2.582-3.111-3.927-3.312-7.438h5l-.625-3.375L131 227l2-2h4l.148-2.281c1.946-27.642 7.463-54.66 20.539-79.341 1.988-3.656 1.988-3.656 1.66-7.632L158 134l-1.07-1.746-1.055-1.691c-1.703-3.025-2.797-5.058-1.875-8.563 2.856-2.788 5.484-4.704 8.938-6.687 3.704-2.798 5.844-5.87 8.37-9.731C173 103 173 103 174.66 100.887c2.143-2.852 3.475-4.635 3.082-8.278-1.202-3.922-2.484-7-5.742-9.609-2.099-.78-2.099-.78-4.375-1.312-4.967-1.56-6.834-3.29-9.625-7.688-2.713-7.46-3.18-15.076-3.187-22.937l-.038-2.303c-.013-5.242.775-9.721 2.225-14.76" fill="#853517"/><path d="M157 34c4.075.943 7.803 2.515 11.625 4.188l2.151.94c6.81 3.036 13.027 6.74 19.224 10.872 6.166.322 11.889-1.18 17.688-3.125 7.168-2.322 11.64-2.25 18.562.938 5.801 3.225 5.801 3.225 7.75 6.187.332 2.342.454 4.666.586 7.027.497 3.571 1.659 6.557 2.976 9.91 2.858 7.613 4.059 14.078.938 21.75L237 95h-1l1-15-3.937 2.813c-4.9 3.425-9.87 6.732-14.875 10l-2.21 1.454C210.704 97.69 206.494 100.37 200 100l-.918 2.668C194.605 115.08 194.605 115.08 190 118c-3.548.315-5.296-.415-8.02-2.68a119 119 0 0 1-4.05-3.922c-1.841-1.67-1.841-1.67-4.172-1.109L172 111l2.375 2.25c2.238 2.344 3.319 3.893 4.625 6.75l-2.047-.105-2.703-.082-2.672-.106c-3.083.35-4.363 1.153-6.578 3.293l-1 3h10l-3 6c-.04 2-.043 4 0 6l3-1 1-6h2v3h2l-1-4h2v9l8-1-1 2a91 91 0 0 1-6.062 1.375c-5.595 1.199-9.945 2.893-14.938 5.625h-2l-.727 1.992c-1.311 3.098-2.834 5.983-4.446 8.932C148.496 176.846 142.11 199.227 143 221l3.938-.5q2.53-.254 5.062-.5l2.285-.312c5.09-.431 7.606.584 11.653 3.75q2.035 1.775 4.062 3.562c2.314 1.157 3.86 1.232 6.438 1.313l2.37.113c2.318-.248 2.318-.248 3.958-2.09 1.508-2.854 1.534-4.809 1.547-8.024.493-7.943 3.997-12.95 9.625-18.375 3.576-2.856 7.55-5.01 11.562-7.187l1.906-1.035c4.12-2.154 8.085-3.576 12.594-4.715l1 2-3.402 1.688c-15.862 7.66-15.862 7.66-25.965 21.48-1.018 4.554-1.205 9.147-1.307 13.804-.185 7.488-.185 7.488-2.326 11.028-4.854 4.095-10.45 5.729-16.437 7.625l-2.776.906A361 361 0 0 1 154 250l1 2c-9.82-1.828-19.4-5.017-26.344-12.54C127 237 127 237 127 234h5l-.625-3.375L131 227l2-2h4l.148-2.281c1.946-27.642 7.463-54.66 20.539-79.341 1.988-3.656 1.988-3.656 1.66-7.632L158 134l-1.07-1.746-1.055-1.691c-1.703-3.025-2.797-5.058-1.875-8.563 2.856-2.788 5.484-4.704 8.938-6.687 3.704-2.798 5.844-5.87 8.37-9.731C173 103 173 103 174.66 100.887c2.143-2.852 3.475-4.635 3.082-8.278-1.202-3.922-2.484-7-5.742-9.609-2.099-.78-2.099-.78-4.375-1.312-4.967-1.56-6.834-3.29-9.625-7.688-2.713-7.46-3.18-15.076-3.187-22.937l-.038-2.303c-.013-5.242.775-9.721 2.225-14.76" fill="#86381A"/><path d="m267 18 2 1c.527 2.746.527 2.746.938 6.438a248 248 0 0 0 2.272 15.447c1.403 7.78 2.21 15.179 1.79 23.115h2c1.438 1.57 2.8 3.209 4.125 4.875 3.47 4.37 3.47 4.37 7.035 8.66 7.87 9.326 12.275 18.083 13.32 30.336.57 3.43 1.373 5.404 3.52 8.129 2.006 1.01 2.006 1.01 4.188 1.313L312 118c-.7 3.147-1.76 6.026-3 9l2.555 2.195 3.32 2.93 1.684 1.438c5.578 4.973 6.712 10.074 7.441 17.437q.092 3.097.14 6.195l.06 3.418q.05 3.524.054 7.047c-.107 6.864-.107 6.864 3.148 12.563 2.163 1.48 4.173 2.789 6.598 3.777-2.14 2.355-4.14 3.64-7 5l1.574 1.18c6.515 5.226 9.803 10.951 12.426 18.82 6.279 3.14 15.307.397 21.813-1.062l3.016-.675c20.17-4.577 20.17-4.577 37.296-15.564 1.868-1.693 3.578-2.689 5.875-3.699l-1 5 12-2c-8.796 8.796-21.026 12.252-32.562 16.25l-3.692 1.286c-11.438 3.88-22.661 6.762-34.746 7.464v8c-5.808-.475-9.796-2.173-14.812-5.062-4.345-2.798-4.345-2.798-9.188-3.938-8.075-.404-16.541-6.238-22-12-14.561-16.91-22.402-38.01-25.673-59.853-.975-6.404-2.133-12.78-3.327-19.147l-.61-3.277c-2.715-12.6-9.45-25.43-20.39-32.723 1.054-2.682 1.85-3.896 4.25-5.562 7.08-6.277 10.293-15.687 10.92-24.952.06-2.582.054-5.154.017-7.736l-.001-2.64c-.03-4.206-.355-7.987-1.186-12.11-.122-2.939-.095-5.872-.062-8.812l.013-2.39q.02-2.898.049-5.798" fill="#401B0C"/><path d="M435 312h1l.012 1.677c.008 16.172.008 16.172 7.5 30.08 2.296 2.706 3.513 4.186 3.425 7.837-.73 4.157-1.85 8.116-3.062 12.156-2.018 7.814-2.386 18.066.926 25.563 2.003 2.819 4.71 4.73 7.554 6.656 2.05 2.532 2.212 4.476 2.048 7.689-.816 4.748-2.836 9.024-4.778 13.404l-1.356 3.16A1220 1220 0 0 1 444 430l-1.375 3.117-1.34 3.04C430.744 456.372 430.744 456.372 429 478c1.648 1.886 3.354 3.252 5.383 4.715C436 484 436 484 436.813 486.375L437 489l.988 3.59c1.162 4.558 1.38 8.91 1.387 13.598l.074 2.365c.02 3.922-.155 5.966-2.242 9.385-4.194 3.919-8.898 5.206-14.582 5.437-5.123-.178-9.85-1.577-14.625-3.375l-2.23-.727C404 518 404 518 403.12 515.258c-.138-3.717.535-5.951 1.942-9.383l1.406-3.434a214 214 0 0 1 4.594-9.628l1.523-3.016q1.273-2.524 2.578-5.031c6.488-13.967 6.169-31.442 7.524-46.579l.202-2.25q.285-3.228.56-6.457l.322-3.784c.967-8.309.967-8.309-1.772-15.696a107 107 0 0 0-7.125-4.25c-9.14-5.252-15.954-11.283-20.874-20.75l-.969-1.86c-2.604-5.834-2.535-11.844-2.031-18.14l1-2c3.013-.859 6.052-1.475 9.117-2.121 3.616-1.102 5.103-2.498 6.951-5.77l.99-2.144 1.152-2.427 1.228-2.6c3.511-7.231 7.332-14.074 11.812-20.75l1.463-2.186c3.127-4.564 6.425-9.026 10.287-13.002" fill="#63230E"/><path d="m217.063 102.625 2.064-.035c4.676.027 7.962.841 11.873 3.41 2.48 3.257 2.293 6.695 2.438 10.688.562 9.03 1.943 15.258 8.257 21.902 2.852 3.082 2.635 6.14 2.59 10.152-.426 3.372-1.82 4.998-4.285 7.258-6.01 3.72-14.371 2.433-21 1l-.625 3.938c-2.492 10.814-9.49 16.14-18.375 22.062-11.328 7.633-17.492 14.832-22.604 27.416-2.826 6.947-2.826 6.947-5.396 9.584-3.924.509-6.152.517-9.562-1.562-3.224-1.902-4.863-1.199-8.438-.438-2.184-.46-2.184-.46-4-1-1.816-26.275 8.675-52.071 25.063-72.25 3.678-3.99 6.6-5.083 11.937-5.75l-10 1 2-1c.467-2.126.467-2.126.625-4.562l.227-2.504L180 130l-1 4h-2v-3h-2v6l-5 2c-.457-5.717.477-8.486 4-13h-10l1-6h3l1-1a75 75 0 0 1 4.563-.062l2.503.027L178 119c-2.88-4.577-2.88-4.577-7-8l2-2c3.357.329 5.015 1.695 7.375 4 2.342 2.067 3.766 3.054 6.75 4.188 3.04.088 3.04.088 5.313-2.25L195 112a110 110 0 0 1 3.375-3.125l1.586-1.445c5.504-3.86 10.455-4.919 17.101-4.805" fill="#B46033"/><path d="M286.426 79.07c5.05 1.824 7.14 6.401 9.574 10.93l1.813 3.25c1.509 4.766 2.04 9.482 2.562 14.445.657 3.473 1.44 5.538 3.625 8.305 2.006 1.01 2.006 1.01 4.188 1.313L312 118c-.7 3.147-1.76 6.026-3 9l2.555 2.195 3.32 2.93 1.684 1.438c5.578 4.973 6.712 10.074 7.441 17.437q.092 3.097.14 6.195l.06 3.418q.05 3.524.054 7.047c-.107 6.864-.107 6.864 3.148 12.563 2.163 1.48 4.173 2.789 6.598 3.777-2.14 2.355-4.14 3.64-7 5l1.574 1.18c5.504 4.415 9.163 9.057 11.426 15.82l-1 2c-12.291-2.871-20.052-9.579-27-20l1 7c-5.62-1.363-8.821-5.432-12-10-1.602-3.256-2.862-6.557-4-10l-1-3a99 99 0 0 1-.062-5.187l.027-2.731L296 162l1.766.496c3.091.697 6.077.565 9.234.504l-2.062-1.625L302 159l-1.68-1.25c-9.364-7.325-13.71-18.237-15.32-29.75q-.218-3.81-.375-7.625c-.521-9.543-2.47-17.901-6.312-26.687C276.34 89.14 275.143 85.924 276 81c3.824-2.55 5.96-2.464 10.426-1.93" fill="#5D2E17"/><path d="M172 41c3.981.578 6.724 1.81 10.125 3.938l2.57 1.59c1.781 1.137 3.547 2.3 5.305 3.472 6.166.322 11.889-1.18 17.688-3.125 7.954-2.576 13.003-1.876 20.453 1.895 2.512 1.662 4.065 2.74 5.859 5.23.653 3.423.649 6.774.625 10.25l.098 2.777c.008 6.088-1.162 9.614-5.054 14.308C222.386 88.601 212.142 92.58 203 97v-7c-4.03 6.508-7.683 13.1-11 20-11.764-11.072-11.764-11.072-12.098-18.043L180 86h-2c-.345-14.387-.345-14.387 1-20.375 1.997-8.291 1.997-8.291-.531-16.117-1.75-2.246-3.587-4.373-5.469-6.508z" fill="#5C2E17"/><path d="M483 171c2 3 2 3 3.016 5.32 4.176 9.49 10.528 16.658 17.17 24.509 10.352 12.386 20.943 25.6 22.814 42.171 1.148-2.296 1.308-4.077 1.563-6.625l.253-2.477L528 232c4.654 4.654 4.275 10.765 4.33 16.96-.01 1.69-.01 1.69-.018 3.415l-.012 3.516c-.17 12.923-2.079 24.226-7.3 36.109a745 745 0 0 0-3.687 9.25l-.939 2.332c-3.152 7.995-4.238 15.821-3.374 24.418 1.603 3.405 1.603 3.405 4 6 4.644 5.547 4.443 10.079 4 17 5.304-6.502 5.611-10.654 5-19-.763-3.171-1.784-5.96-3-9l16 3c-1 4-1 4-3 6-2.625.125-2.625.125-5 0 .88 2.914.88 2.914 2.125 5.125 1.591 5.228.777 9.994-1.562 14.875-5.17 6.052-11.335 11.075-17.563 16 .591 4.847 1.98 8.607 4 13-5.517-1.724-11.445-5.124-14.25-10.312.399-4.286 2.319-7.883 4.25-11.688l-6 1 1.348-2.195 1.714-2.93 1.723-2.883c1.481-3.648 1.338-5.243.215-8.992-1.734-3.353-3.654-6.548-5.602-9.781-2.014-4.637-.944-7.705.738-12.368l1.41-3.367q.78-1.881 1.557-3.764l.817-1.964c9.018-21.794 18.234-45.251 9.08-68.756-9.498-22.559-26.822-42.144-46-57 1.18-3.968 2.459-7.041 5-10.312l1.563-2.051C481 172 481 172 483 171" fill="#411D0E"/><path d="m209 137-3 2 2 2c1.208 7.095-2.19 12.192-6 18-3.444 4.624-7.062 9.076-11.156 13.14-7.822 7.88-12.377 17.551-17.493 27.302a329 329 0 0 1-5.413 9.808l-1.536 2.703c-2.18 3.183-4.73 4.313-8.34 5.234l-2.027.543c-2.282.303-3.855-.042-6.035-.73-1.816-26.275 8.675-52.071 25.063-72.25 3.678-3.99 6.6-5.083 11.937-5.75h-7c6.909-6.909 20.567-4.233 29-2" fill="#CC7A45"/><path d="M435 312h1l.012 1.677c.008 16.172.008 16.172 7.5 30.08 2.296 2.706 3.513 4.186 3.425 7.837-.73 4.157-1.85 8.116-3.062 12.156-2.018 7.814-2.386 18.066.926 25.563 2.003 2.819 4.71 4.73 7.554 6.656 2.042 2.522 2.223 4.447 2.06 7.65-.862 4.945-2.968 9.434-4.978 14.006l-1.368 3.197c-3.405 7.875-7.04 15.602-11.069 23.178h-2c1.276-6.43 3.086-12.252 5.563-18.312q.942-2.337 1.878-4.676l.835-2.048c1.617-4.384 2.218-8.272 1.724-12.964-2.081-2.584-2.081-2.584-5-5a210 210 0 0 1-3.75-4.187l-1.797-2.043c-3.707-4.515-2.923-10.123-2.659-15.723.35-3.49 1.266-6.801 2.206-10.172 1.844-6.616 2.98-13.002 2-19.875l-2-3c-4.716-.629-7.22.22-11 3-2.172 2.504-4.082 5.174-6 7.875-4.148 5.78-8.253 10.87-13.793 15.418-3.032 3.718-2.789 6.383-2.52 11.02l.069 2.244c.058 1.815.148 3.63.244 5.443-1.832-.195-1.832-.195-4-1-1.45-2.18-1.45-2.18-2.687-4.875l-1.262-2.68c-1.743-4.055-2.187-7.114-2.176-11.507l-.008-3.223C391 365 391 365 392 363c3.013-.859 6.052-1.475 9.117-2.121 3.616-1.102 5.103-2.498 6.951-5.77l.99-2.144 1.152-2.427 1.228-2.6c3.511-7.231 7.332-14.074 11.812-20.75l1.463-2.186c3.127-4.564 6.425-9.026 10.287-13.002" fill="#461508"/><path d="m267 18 2 1c.527 2.746.527 2.746.938 6.438a248 248 0 0 0 2.272 15.447c1.403 7.78 2.21 15.179 1.79 23.115l2 1a909 909 0 0 1-3.687 7.188l-1.03 2.04C269.015 78.576 266.644 81.714 263 85c1.673 3.57 3.755 6.805 5.875 10.125 7.885 12.717 10.244 25.545 12.063 40.188 3.192 24.391 9.619 53.62 30.062 69.687a87 87 0 0 0 9 5l-2-3v-3c4.382 1.977 8.157 4.85 12.047 7.635A71 71 0 0 0 341 218l-1-9 3 1c6.793.614 13.208-.58 19.813-2.062l3.016-.675c20.17-4.577 20.17-4.577 37.296-15.564 1.868-1.693 3.578-2.689 5.875-3.699l-1 5 12-2c-8.796 8.796-21.026 12.252-32.562 16.25l-3.692 1.286c-11.438 3.88-22.661 6.762-34.746 7.464v8c-5.808-.475-9.796-2.173-14.812-5.062-4.345-2.798-4.345-2.798-9.188-3.938-8.075-.404-16.541-6.238-22-12-14.561-16.91-22.402-38.01-25.673-59.853-.975-6.404-2.133-12.78-3.327-19.147l-.61-3.277c-2.715-12.6-9.45-25.43-20.39-32.723 1.054-2.682 1.85-3.896 4.25-5.562 7.08-6.277 10.293-15.687 10.92-24.952.06-2.582.054-5.154.017-7.736l-.001-2.64c-.03-4.206-.355-7.987-1.186-12.11-.122-2.939-.095-5.872-.062-8.812l.013-2.39q.02-2.898.049-5.798" fill="#6B1E0A"/><path d="M364 512c2.813.5 2.813.5 6 2 3.697 6.105 4.153 13.729 4.25 20.688l.078 3.386C374 541 374 541 372.875 542.758c-8.613 5.706-20.946 6.416-30.875 5.242-3.996-1.26-7.01-3.01-10-6-.743-6.967 2.54-12.172 6-18 2.563-3 2.563-3 5-5l2.813-2.312L348 515l5 11 6-8 5 4z" fill="#141213"/><path d="M157 34c3.507.839 6.77 1.981 10.125 3.313l3.195 1.238c2.987 1.615 3.454 2.396 4.68 5.449a201 201 0 0 0 3.125 3.688c2.779 3.695 3.609 6.151 3.273 10.746C179.112 73.159 179.112 73.159 175 79c-3.341 2.302-5.014 3.14-9.062 2.563-4.99-2.654-7.308-5.83-9.188-11-1.378-6.546-1.932-12.835-1.937-19.5l-.038-2.303c-.013-5.242.775-9.721 2.225-14.76" fill="#A5552E"/><path d="M378 421c3-.375 3-.375 6 0 2.903 4.355 2.53 7.883 2 13-3.069 14.92-9.802 28.807-16.625 42.313q-2.087 4.147-4.171 8.295a769 769 0 0 1-2.185 4.311c-4.094 8.11-4.62 15.051-4.019 24.081-2 0-2 0-3.625-1.5L354 510l-1 7c-2.094-3.402-2.18-6.053-2-10-1.985.267-1.985.267-4 1l-1 3-1-2a138 138 0 0 1 4.625-7.5c6.225-9.493 10.815-18.526 13.438-29.625l.754-3.092c2.643-11.158 4.491-22.447 6.183-33.783l2 1 .805-2.52 1.07-3.293 1.055-3.269C376 424 376 424 378 421" fill="#87381A"/><path d="M234 64c4.853 4.853 6.264 13.217 6.438 19.875-.157 4.328-1.044 7.434-3.438 11.125h-1l1-15-3.937 2.813c-4.9 3.425-9.87 6.732-14.875 10l-2.21 1.454C210.704 97.69 206.494 100.37 200 100l-.918 2.668C194.605 115.08 194.605 115.08 190 118c-3.548.315-5.296-.415-8.02-2.68a119 119 0 0 1-4.05-3.922c-1.841-1.67-1.841-1.67-4.172-1.109L172 111l2.375 2.25c2.238 2.344 3.319 3.893 4.625 6.75l-2.047-.105-2.703-.082-2.672-.106c-3.083.35-4.363 1.153-6.578 3.293l-1 3h10c-2 4-2 4-4 6l-3-1-2.312-.125c-4.005-1.304-6.663-4.199-8.688-7.875.078-2.066.078-2.066 1-4 1.82-1.352 1.82-1.352 4.125-2.625 5.555-3.492 8.423-7.909 11.875-13.375l1.648-2.105c2.152-2.852 3.488-4.637 3.094-8.286-1.708-5.575-3.898-8.38-8.742-11.609l2.875-.687c3.318-1.004 3.318-1.004 4.5-3.938L177 74h1v12h2l.121 1.984c1.04 9.085 5.106 14.209 10.879 21.016 1.922-1.922 2.701-3.214 3.84-5.625l1.033-2.14q1.064-2.233 2.117-4.47l1.037-2.14.93-1.96C201 91 201 91 204 89v7a1213 1213 0 0 0 9.063-4.625l2.568-1.293C222.368 86.597 230.055 82.364 233 75c.524-3.66.813-7.308 1-11" fill="#A2512A"/><path d="M214 45c7.204.515 12.25 2.445 18.195 6.496 2.868 3.98 2.463 7.971 2.43 12.754l.098 2.777c.008 6.088-1.162 9.614-5.054 14.308C222.386 88.601 212.142 92.58 203 97v-7c-4.03 6.508-7.683 13.1-11 20-11.764-11.072-11.764-11.072-12.098-18.043L180 86h-2V74l2 2 2.375-2.5C185 71 185 71 187 71l-1 3.688c-1.889 8.602-2.443 17.493 2 25.312l1 1 .777-1.687C193.07 92.75 197.277 88.526 203 84l2.152-1.727C207 81 207 81 209 81l-1 8c13.04-7.05 13.04-7.05 21-19 .74-5.668.78-10.352-1.687-15.562-4.407-4.646-7.961-5.815-14.313-6.438z" fill="#431E0E"/><path d="M326 409c5.832 3.435 8.213 7.649 10 14l1.125 3.313L338 429l1 3c-4.783 5.495-9.932 9.818-17 12-3.625-.687-3.625-.687-6-2-.347-4.162.368-5.82 3-9v-2l-3.375-1.312C312 428 312 428 310 425c-.375-4.032.156-7.671 2.34-11.11 4.417-5.227 6.662-6.61 13.66-4.89" fill="#393337"/><path d="M318.25 396.625c5.469.149 8.394 2.096 12.309 5.883 6.63 7.11 8.8 14.42 9.558 23.988C340 429 340 429 338 431c-1.997-2.995-2.535-4.862-3.312-8.312-1.566-5.979-3.603-9.323-8.563-13.125-3.422-.906-5.727-.517-9.125.437-4.528 3.938-5.586 7.045-6.055 12.95-.04 2.252-.04 2.252 1.055 5.05l3.5 1 3.5 1 1 3a249 249 0 0 1-3 4c-.714 2.65-.714 2.65-1 5l4 1v2c-4.416.433-6.347.5-9.937-2.25C308 440 308 440 308 436l5-2v-2l-3.25-.375c-3.197-.533-4.99-1.123-7.75-2.625 2.724-32.145 2.724-32.145 16.25-32.375" fill="#120F10"/><path d="M488.063 501.188C490 502 490 502 492 505c.731 4.864.632 9.533-1.687 13.938-2.388 3.16-3.782 4.386-7.313 6.062-3.34.328-3.34.328-6.937.25-1.185-.015-2.37-.03-3.59-.047-3.228-.189-6.299-.602-9.473-1.203a671 671 0 0 1-.125-6.687l-.07-3.762c.185-3.363.737-5.55 2.195-8.551h3l1.75-1.5c3.164-2.11 5.519-1.767 9.25-1.5l2.25.625L483 503c3-2 3-2 5.063-1.812" fill="#3B3539"/><path d="M235.5 402.5c11.052.364 20.344 10.055 28.645 16.578C276.71 428.832 288.807 435.268 305 436l-1 2c-2.562.625-2.562.625-5 1l1 5c-6.06-1.762-11.59-4.567-17.25-7.312l-3.302-1.593a1738 1738 0 0 1-27.328-13.553l-3.042-1.534-2.974-1.51a133 133 0 0 0-6.723-3.003l-3.584-1.503-3.286-1.309C230 411 230 411 229.013 407.938L229 405c2.407-2.407 3.18-2.374 6.5-2.5" fill="#87381A"/><path d="M416 493c2.063.438 2.063.438 4 1v3l1.688-1c2.75-1.19 4.352-1.531 7.312-1 3.08 3.08 3.291 6.324 3.5 10.5-.113 3.999-.294 5.212-2.687 8.563-5.832 4.017-10.81 4.678-17.813 3.937-4.051-1.547-5.911-2.911-9-6l5-13h2a142 142 0 0 0 5-5z" fill="#3A3438"/><path d="M488 413h1l1 8 4-7h4c1.424 12.632-2.343 23.783-5.999 35.727a951 951 0 0 0-2.884 9.648q-.9 3.032-1.805 6.063l-.826 2.775C480.952 486.368 480.952 486.368 476 490h-2l.516-1.625c.86-2.783 1.676-5.577 2.484-8.375l.914-3.102c5.633-20.655 8.247-42.602 10.086-63.898" fill="#87381A"/><path d="M345.438 523.063c2.562.937 2.562.937 4.375 4L351 530h3c1.705-1.94 1.705-1.94 3-4l4 1c1.407 7.78 1.407 7.78.063 11.813-3.989 4.23-8.607 6.397-14.438 6.625-5.114-.224-9.823-1.754-14.625-3.438-.383-5.232.781-8.378 3-13h2a263 263 0 0 0 4-5c2-1 2-1 4.438-.937" fill="#454044"/><path d="m431 486 5 1c2.682 6.355 3.35 12.492 3.438 19.313l.066 2.353c-.013 3.877-.23 5.887-2.3 9.264-4.185 3.931-8.896 5.214-14.579 5.445-6.356-.22-13.162-2.066-18.625-5.375-.75-2.625-.75-2.625-1-5l1.688.875L407 515l2.125 1.125c5.991 1.823 11.76 1.736 17.438-1 2.786-1.495 2.786-1.495 4.437-4.125a88 88 0 0 0 .188-5.375l.042-2.898c-.089-3.062-.089-3.062-2.23-6.727l-9 1-1-3c-2.924.627-5.448 1.416-8 3l-1 3-1-2c2.248-4.745 5.394-7.615 10-10.062 2 .062 2 .062 4.75 2.5L426 493l2-2 3 2z" fill="#161314"/><path d="M486 494c5.33 1.21 9.69 2.404 13 7 .735 3.36.821 6.63.813 10.063l-.003 2.688c-.163 4.118-.46 6.666-2.61 10.245-5.404 4.924-10.711 4.338-17.7 4.317l-3.168.048-3.05.002-2.78.01c-2.96-.441-4.356-1.314-6.502-3.373v-2l2.063.484c3.35.588 6.536.722 9.937.766l3.625.078c3.66-.356 5.465-1.129 8.375-3.328 3.482-4.923 3.775-10.15 3-16l-2-3c-2.443.475-4.85.959-7.25 1.625L480 504l-1-1c-5.703-.56-8.508.494-13 4 .456-4.106.743-6.382 4-9 2.262-.95 2.262-.95 4.688-1.687l2.449-.762L479 495l2 4c3.113-.669 3.113-.669 4.188-3.062z" fill="#110E0F"/><path d="M259 42c.635 11.004-2.264 21.194-9 30-3 2-3 2-5.062 1.813C243 73 243 73 241 70c-.563-7.315.794-13.12 5.584-18.783l1.353-1.53 1.342-1.587C254.52 42 254.52 42 259 42" fill="#CD6D48"/><path d="M325 293h1l.078 2.938c.92 24.343 9.174 46.338 26.074 64.074C354 362 354 362 356 365c-8.415-1.179-14.765-8.112-20.082-14.363-11.802-16.225-14.151-35.783-11.402-55.297z" fill="#DE8A4D"/><path d="M234 64c4.853 4.853 6.264 13.217 6.438 19.875-.157 4.328-1.044 7.434-3.438 11.125h-1l1-15-3.937 2.813c-4.9 3.425-9.87 6.732-14.875 10l-2.21 1.454C210.473 97.84 206.754 100 200 100l-5 13h-4c-2.14-2.406-2.14-2.406-4.25-5.5l-2.14-3.094L183 102l1-2 7 9c1.922-1.922 2.701-3.214 3.84-5.625l1.033-2.14q1.064-2.233 2.117-4.47l1.037-2.14.93-1.96C201 91 201 91 204 89v7a1213 1213 0 0 0 9.063-4.625l2.568-1.293C222.368 86.597 230.055 82.364 233 75c.524-3.66.813-7.308 1-11" fill="#833517"/><path d="M460 256c1.355 3.735.59 6.273-.41 10.05-1.868 8.239-2.08 16.202-2.036 24.625a466 466 0 0 1-.052 7.475c-.046 11.042 1.447 21.175 4.048 31.893.606 2.634 1.045 5.286 1.45 7.957h-2c-10.472-18.2-12.22-41.293-7-61.598l1-3.402 1.313-4.621A738 738 0 0 1 460 256" fill="#D88348"/><path d="m176 142 2 1-1.687 1.914C158.867 165.366 150.787 190.328 150 217l-3-1c-4.47-8.939.336-21.975 3-31l.91-3.191c4.9-15.932 13.096-28.376 25.09-39.809" fill="#B46133"/><path d="m186 140 3 1-1.652 1.879C169.388 163.97 160.634 188.969 156 216h-3c-1.487-28.249 14.941-55.626 33-76" fill="#DB8C51"/><path d="M443 186c13.22.264 24.936 9.25 34.11 18.016 7.354 7.696 15.124 19.573 17.89 29.984-.41 2.242-.41 2.242-1 4l-1.652-2.86C480.473 214.824 466.37 194.545 443 187z" fill="#DF8E50"/><path d="M167 51c4.53.556 4.53.556 6.582 2.496C176.957 58.821 178.284 63.71 177 70c-1.531 2.297-1.531 2.297-3 4-3.707-.253-5.537-.575-8.312-3.125C163.578 67.28 163 65.193 163 61c1.086-3.456 2.463-6.722 4-10" fill="#CD6D48"/><path d="M262 34c.628 14.891-.107 30.163-10.582 41.75-2.134 1.988-3.708 3.21-6.668 3.375-2.532-1.628-3-3.26-3.75-6.125l1-3 2 3c2.94-.184 2.94-.184 6-1 1.138-1.833 1.138-1.833 2-4l.965-1.762C256.809 58.627 257.736 50.341 259 42l-3.375 1.938c-1.86 1.067-3.706 2.103-5.625 3.062 1.51-3.429 3.517-5.957 6-8.75l2.125-2.422C260 34 260 34 262 34" fill="#B9502F"/><path d="M172 41c5.767.913 10.627 3.089 15 7 .857 2.465 1.01 4.35.938 6.95-.11 2.366-.11 2.366 2.062 5.05l-1 1 3 1v2l-2.187.625c-3.739 1.827-5.305 4.08-7.813 7.375-1.562-1-1.562-1-3-3a111 111 0 0 1 1-8c.65-4.42.861-7.59-1.527-11.5-1.755-2.24-3.592-4.367-5.473-6.5z" fill="#87381B"/><path d="m224 186 2 1c-4.631 3.235-9.31 6.198-14.287 8.877-8.18 4.443-15.178 9.334-18.236 18.584-.788 4.196-.94 8.465-1.012 12.728-.137 4.655-.914 7.9-3.465 11.811-7.166 5.45-19.031 9.448-28 9 2.553-1.702 4.176-2.492 7.02-3.367l2.35-.746q2.423-.756 4.85-1.5c4.845-1.547 8.835-3.13 12.78-6.387 1.504-3.049 1.114-6.525 1.188-9.889.284-10.174 1.97-17.6 9.375-25.048 6.381-5.293 13.91-9.117 21.183-13.036l2.334-1.258z" fill="#4B1306"/><path d="m426 472 .688 1.625c2.369 4.287 5.241 7.661 9.312 10.375v2h-5v7h-7c-1.687-2-1.687-2-3-4l-6 1-1 3-2-1c1.517-4.55 5.169-6.5 9-9l2 2 .148-2.082.227-2.73.21-2.708C424 475 424 475 426 472" fill="#44170A"/><path d="m335 428 3 1 1 3c-4.783 5.495-9.932 9.818-17 12-3.625-.687-3.625-.687-6-2 .26-3.114.73-4.694 2.813-7.062 4.029-2.45 8.146-3.73 12.64-5.106 2.455-.59 2.455-.59 3.547-1.832" fill="#3D373B"/><path d="m226 163 1.719.492c2.336.52 4.39.641 6.781.633l2.281.008c2.193-.131 4.112-.53 6.219-1.133 0 4 0 4-1.812 6.25C239 171 239 171 236 171l-.062 3c-.764 5.21-3.94 8.755-7.938 12-2.76 1.168-4.999 1.579-8 2 1.173-3.519 1.686-3.603 4.813-5.25 4.406-2.587 6.032-5.171 8.187-9.75l-1.812-.75c-2.547-1.455-3.705-2.73-5.188-5.25z" fill="#833416"/><path d="M498 173c12.817 2.92 23.763 10.096 30.938 21.188 2.869 5.419 2.517 10.833 2.062 16.812a242 242 0 0 1-3.48-7.172C520.65 189.43 511.968 181.591 498 174z" fill="#925029"/><path d="M178 130h2v9l8-1-1 2c-2 .56-4.027 1.024-6.062 1.438-5.228 1.128-10 2.528-14.938 4.562l2-4-3-2c.557-3.344 1.352-6.033 3-9h2l1 7 3-1 1-6h2v3h2z" fill="#9C4B25"/><path d="M164 46c4.415.883 5.8 1.22 9.125 3.75l2.008 1.484c3.203 3.03 4.79 5.427 5.047 9.887C179.163 72.187 179.163 72.187 176 77l-5-2 2.5-1.875c2.526-2.533 2.938-4.454 3.063-8-.274-5.077-1.417-8.129-4.563-12.125-2.621-1.045-2.621-1.045-5-1l-3 9h-1z" fill="#B95030"/><path d="M492 427c1.294 3.883.49 5.736-.562 9.688l-1.114 4.261-.631 2.392c-1.358 5.209-2.643 10.436-3.943 15.659l-1.578 6.313-.685 2.738L483 470c-2.468-3.702-2.036-4.593-1.312-8.875l.597-3.719.344-2.086c.728-4.555 1.352-9.127 1.996-13.695l.79-5.523.341-2.396L486 432h1v5h2l.375-2.187c.615-2.77 1.51-5.21 2.625-7.813" fill="#BE6F45"/><path d="M307 132c4.88.444 6.698 1.478 10 5l2.125.375L321 138c1.39 2.91 2.223 4.943 1.547 8.152-.75 3.903-.653 7.697-.61 11.66l.014 2.39q.02 2.898.049 5.798c-2.218-3.327-2.451-5.205-2.937-9.125-1.28-8.921-3.048-17.695-10.313-23.75z" fill="#8C4C27"/><path d="M209 106c3.937 1.312 6.227 2.92 9 6l-1 3-3.062-.187c-4.512.214-6.886 1.317-10.938 3.187h-3c1.453-5.327 5.081-8.364 9-12" fill="#6E3015"/><path d="M375 440c1.299 2.598.774 3.38-.074 6.113l-.77 2.517-.844 2.683-.836 2.717a1631 1631 0 0 1-1.682 5.424 1260 1260 0 0 0-2.087 6.76Q367.361 470.612 366 475c-2.305-3.573-1.988-5.842-1.187-9.937l.582-3.09L366 459l.574-2.879L367 454h2l1.059-2.809 1.378-3.628 1.372-3.622C374 441 374 441 375 440" fill="#BD693C"/><path d="M177 74h1v12h2l1 10c-2.61-2.61-3.494-3.754-4.875-6.937-1.751-3.686-3.682-5.768-7.125-8.063l2.875-.687c3.318-1.004 3.318-1.004 4.5-3.938z" fill="#883A1D"/><path d="M236 409c4.084 1.254 7.639 2.764 11.336 4.898l2.976 1.704 3.063 1.773c6.465 3.723 12.91 7.371 19.625 10.625-3 1-3 1-5.816-.092l-3.391-1.697-1.827-.91a573 573 0 0 1-3.826-1.932 587 587 0 0 0-5.806-2.904l-3.729-1.88-3.401-1.716c-3.474-2.026-6.226-4.177-9.204-6.869z" fill="#C96D37"/><path d="M287 87c5.626 1.768 8.778 5.168 12 10 .52 2.375.52 2.375.813 5l.332 2.625C300 107 300 107 298.512 108.813c-.5.391-.998.783-1.512 1.187l-.48-2.344C294.998 100.864 293.1 95.617 289 90z" fill="#884C2B"/><path d="M539 260c4.104 5.227 4.13 9.416 4 16h2l-1 3h-2l-.586 1.715-.789 2.223-.773 2.214C539 287 539 287 537 288l.992-2.816c1.43-5.003 1.225-9.96 1.133-15.122l-.027-2.939A935 935 0 0 0 539 260" fill="#8A4C29"/><path d="M158 226c3.902.578 6.135 2.355 9 5 2.118 2.995 3 4.307 3 8a88 88 0 0 1-5 1c-1.883-1.883-1.406-4.57-1.621-7.09-.241-2.143-.241-2.143-2.379-3.91l-1 2h-2z" fill="#461005"/><path d="m193 67 1 2a81 81 0 0 1-2.375 4.813C188.592 80.147 188.122 86.05 188 93c-2.915-2.915-2.335-5.191-2.375-9.25l-.086-3.953c.669-5.508 3.396-9.138 7.461-12.797" fill="#8E4D28"/><path d="m238 412 4.878 2.44 4.285 2.138a1124 1124 0 0 1 11.286 5.7l2.155 1.097a627 627 0 0 1 4.078 2.098c3.42 1.736 6.506 3.01 10.318 3.527-1.608 1.173-1.608 1.173-4 2-2.913-1.01-2.913-1.01-6.27-2.762l-1.815-.928a536 536 0 0 1-5.728-2.998q-2.845-1.475-5.694-2.943a893 893 0 0 1-5.191-2.712c-3.39-1.702-6.802-3.197-10.302-4.657z" fill="#A15534"/><path d="M137 228c3.806 1.495 5.78 3.59 8 7 .25 2.813.25 2.813 0 5a88 88 0 0 1-5 1c-1.553-1.553-1.305-3.225-1.5-5.375-.255-2.798-.603-4.933-1.5-7.625" fill="#481205"/><path d="M189.875 60.75 192 62v2l-2.187.625c-3.739 1.827-5.305 4.08-7.813 7.375l-3-3c.987-3.553 1.98-4.983 4.813-7.437C187 60 187 60 189.875 60.75" fill="#69331A"/><path d="m213 132 1 3h3l1-3-1.074 5.957c-.131 2.165-.131 2.165 1.554 3.805L220 143a676 676 0 0 1-5.25-.875l-2.953-.492c-2.57-.582-4.518-1.341-6.797-2.633 2.788-1.033 3.868-1.045 6.75-.062L214 140l-1-2c-.04-2-.043-4 0-6" fill="#9B4924"/><path d="M492 427c1.36 4.078.145 7.177-.937 11.188l-.592 2.271A879 879 0 0 1 489 446h-2c-1.382-2.765-1.095-5.046-1.062-8.125l.027-3.32L486 432h1v5h2l.375-2.187c.615-2.77 1.51-5.21 2.625-7.813" fill="#BF6432"/><path d="M172.875 111.938c3.442 1.72 4.405 4.684 6.125 8.062l-3-1a81 81 0 0 0-4.687-.062l-2.45.027L167 119c2.561-6.952 2.561-6.952 5.875-7.062" fill="#642B12"/><path d="m207 51 1 2c-4.944 3.229-7.916 4.596-14 4l-2-1v-2l2.012-.148c6.7-.563 6.7-.563 12.988-2.852" fill="#914F29"/><path d="m267 18 2 1c.414 3.16.414 3.16.625 7.063l.227 3.91L270 33h-2l-1 2z" fill="#782B14"/><path d="M337 428v3q-2.869 1.048-5.75 2.063l-3.234 1.16c-2.939.757-4.24.849-7.016-.223l3.625-1.312a77 77 0 0 0 7.75-3.375C335 428 335 428 337 428" fill="#D4D3D3"/><path d="M478 507c1.191 3.574.735 5.509.063 9.188l-.59 3.292L477 522l-3 1c.392-5.955 1.371-10.628 4-16" fill="#D4D3D4"/><path d="M417 497c1.583 3.165.33 5.744-.437 9.125l-.872 3.883L415 513h-3c.975-5.802 2.013-10.84 5-16" fill="#D7D6D7"/><path d="M242 165c0 3 0 3-1.125 4.688-2.739 1.917-4.605 1.712-7.875 1.312-2.375-1.5-2.375-1.5-4-3l1-2 3 2c5.04-.232 5.04-.232 9-3" fill="#4B1306"/><path d="M232 179c0 3 0 3-1.5 5.063-3.395 2.63-6.304 3.098-10.5 3.937l1-3c2.313-1.062 2.313-1.062 5-2 2.556-1.169 3.99-1.99 6-4" fill="#6E2810"/><path d="m213 132 1 3h3l1-3-1 7-4-1z" fill="#261108"/><path d="M178 130h2v7l-4 1v-7l1 3h2z" fill="#1C110C"/><path d="m238 412 11 6-2 1c-2.602-.996-2.602-.996-5.625-2.437l-3.04-1.434L236 414z" fill="#974D2F"/><path d="M318 138h3c2.429 6.286 2.429 6.286 1 10-2.952-2.952-3.087-5.955-4-10" fill="#724129"/><path d="m186 63 4 1-8 6c.313-2.375.313-2.375 1-5z" fill="#8E4D28"/><path d="M196 50c2-.043 4-.04 6 0l1 1q1.99.544 4 1c-4.43 2.092-4.43 2.092-7.312 1.625L198 53l1-2z" fill="#61341F"/><path d="M375 440c1.274 2.547.802 3.428.063 6.125l-.59 2.195L374 450h-3q.714-2.22 1.438-4.437l.808-2.497C374 441 374 441 375 440" fill="#BF6532"/><path d="M158 226c3.27.564 4.826 1.5 7 4h-3l-1-1-1 2h-2z" fill="#511707"/><path d="m370 447 2 1-3 9h-1c-.195-6.055-.195-6.055 0-8z" fill="#924627"/><path d="M190 51h9l-1 3c-3.375-.547-5.082-1.055-8-3" fill="#4E2411"/><path d="M486 432h1v5h2l-2 7h-1z" fill="#9B5336"/><path d="M482 461h2l-1 9c-2-3-2-3-1.625-6.187z" fill="#BC683C"/></svg>