<svg xmlns="http://www.w3.org/2000/svg" width="780" height="540"><path d="M323.125 149.625h2.25c13.817.031 27.104 1.422 40.625 4.375l2.168.47c4.346.977 8.582 2.204 12.832 3.53l2.404.73c17.903 5.474 33.242 12.147 47.596 24.27l2.828 2.297c13.93 11.86 27.65 30.097 29.996 48.785 2.106 34.96-11.915 62.711-34.37 88.887A490 490 0 0 1 423 330a2328 2328 0 0 0-4.062 4.688c-3.04 3.42-6.218 6.45-9.715 9.394a129 129 0 0 0-4.727 4.305c-29.25 27.867-68.172 49.663-109.183 49.988l-3.709.042c-5.795-.03-10.98-.355-16.569-1.94-8.172-2.286-16.321-1.618-24.726-1.36-12.3.228-24.843-1.087-35.309-8.117a68 68 0 0 1-2.812-3.187c-3.487-3.88-7.79-3.637-12.735-4.208-10.092-1.77-17.8-7.498-23.879-15.476-4.876-7.149-6.594-14.302-6.824-22.879-.35-7.142-2.582-11.816-6.059-17.898-5.308-10.52-5.323-24.459-2.968-35.848 1.476-4.213 3.484-7.88 5.777-11.692 2.332-3.958 3.341-7.928 4.313-12.375C172.598 251.03 178.415 239.435 187 230l1.934-2.14c4.182-4.403 8.575-8.18 14.066-10.86h2l.125-2.812c1.927-12.63 12.95-23.325 22.375-31.125 6.224-4.55 12.898-7.818 20.563-8.875 4.167-.698 6.366-2.065 9.562-4.813 10.866-9.34 24.57-14.188 38.375-17.375l2.392-.562c8.203-1.719 16.388-1.834 24.733-1.813" fill="#7C4C18"/><path d="M590.688 37.5c4.742.716 7.186 2.964 10.312 6.5 3.892 6.151 3.996 12.888 3 20-1.961 5.81-4.43 10.499-8.875 14.75-4.014 1.606-6.828 1.546-11.125 1.25a1020 1020 0 0 0-3 9l-.914 2.719C574.129 110.12 568.98 130.635 568 150l-.13 2.007a271 271 0 0 0-.308 6.868l-.14 2.238c-.114 2.414-.114 2.414.578 5.887 2.76 2.408 2.76 2.408 6 4 7.94 7.076 13.311 19.642 14.18 30.18.006 1.608-.075 3.216-.18 4.82l2.75-.312c3.25.312 3.25.312 5.625 2.25 2.203 4.151 2.429 7.454 1.625 12.062-1.417 3.503-3.316 6.316-6 9 .149 2.869.894 3.894 2.934 5.93 10.41 8.94 10.41 8.94 23.066 12.07.75 1.75.75 1.75 1 4-1.625 2.313-1.625 2.313-4 4-10.657-.846-19.918-13.699-27-21l-2.852 1.242-3.773 1.633-1.871.816c-2.854 1.232-5.56 2.323-8.586 3.059-3.083.977-3.083.977-4.33 3.682l-.932 3.08-1.077 3.447-1.079 3.728q-.587 1.929-1.178 3.856c-2.264 7.451-4.258 14.962-6.135 22.52C547.656 315.16 532.79 369.403 502 390c1.403-2.96 3.02-5.617 4.871-8.316 15.696-23.09 28.542-46.06 37.129-72.684l.657-2.021c3.577-11.175 5.496-22.25 5.343-33.979l-.41 3.094C546.01 300.984 537.762 324.84 526 347l-1.844 3.543C516.46 364.951 507.036 378.411 498 392h2c-4.332 9.989-16.185 18.123-25 24l3.219 1.102c9.392 3.306 16.72 6.71 23.781 13.898-1.118 3.355-1.556 3.643-4.422 5.41l-2.11 1.31-2.218 1.342-2.172 1.354c-9.846 6.054-18.912 7.373-30.254 4.888a350 350 0 0 1-13.89-3.814c-11.205-3.237-21.219-3.901-32.184.385-7.706 2.866-15.245 5.423-23.562 5.375l-2.708.016c-10.119-.773-19.353-3.274-28.918-6.579l-3.408-1.146a312 312 0 0 1-17.064-6.334c-6.72-2.571-11.044-3.229-17.727-.344a521 521 0 0 0-5.05 2.45c-17.807 8.33-33.069 10.064-51.868 3.433-7.383-2.765-14.344-6.083-21.17-10.03-12.979-7.326-25.888-4.883-39.775-1.716-22.292 4.82-42.43 5.231-62.5-7-10.076-7.255-10.076-7.255-11.562-12.687.715-4.214 2.118-5.532 5.472-8.036 3.884-2.374 7.939-3.7 12.317-4.875 5.354-1.536 8.39-3.639 12.418-7.433 4.93-4.121 10.692-6.99 16.355-9.969l2.773-1.57c2.498-1.253 4.45-2.093 7.227-2.43 2.688.914 4.872 2.162 7.293 3.64 3.183 1.6 5.798 1.893 9.332 2.235 5.821.71 8.484 2.3 12.574 6.383 7.883 7.626 20.881 8.943 31.309 8.93q3.81-.07 7.617-.188c8.458-.258 15.684-.006 23.833 2.306 5.728 1.307 11.507 1.137 17.354 1.069l3.895-.035c8.987-.155 17.168-.644 25.793-3.34l2.404-.75c18.791-6.008 36.618-14.628 52.596-26.25l2.93-2.105c10.71-7.859 20.855-16.317 30.07-25.895 2.417-2.444 4.844-4.856 7.367-7.191 17.76-16.791 36.5-42.06 40.633-66.809a307 307 0 0 1 10.172-3.262c14.872-4.569 25.931-10.776 33.765-24.738.698-1.328 1.39-2.66 2.063-4l-1.312-1.32c-4.514-4.827-4.514-4.827-5.313-8.743.625-2.937.625-2.937 2.75-5.75 2.068-3.515 2.06-3.811 1.125-7.5l-.648-2.335c-1.96-7.662-.4-14.506 3.398-21.352l2.613-2.688c2.209-2.63 2.382-3.217 2.578-6.88l-.629-3.885-.332-2.116c-1.207-7.202-3.117-14.197-5.23-21.181l-1.19-4.008C499.154 126.41 493.001 107.526 484 90l4-2c10.222 13.35 15.694 29.316 20.813 45.125l.698 2.145c2.551 7.88 4.858 15.798 6.813 23.847l.518 2.082c1.014 4.34 1.313 8.352 1.158 12.801l3.113-1.645c12.773-6.644 26.184-12.748 40.887-8.355l-.105-2.36c-.4-16.493 3.05-32.145 6.98-48.077l.499-2.048c5.121-20.859 5.121-20.859 10.32-29.25L581 80c-.592-2.153-.592-2.153-2-4-3.688-6.164-4.53-10.811-4-18h2l.188-2.125c1.136-4.02 2.733-6.058 5.812-8.875 3.112-.877 4.666-.582 8 0 3.757 3.564 4.901 6.544 5.25 11.688C596.186 64.48 594.18 69.23 591 74c5.69-5.887 8.002-10.757 8.313-19.062-.12-5.28-1.324-8.949-5.125-12.75-2.702-1.467-5.151-1.843-8.188-2.188 2-2 2-2 4.688-2.5" fill="#D18362"/><path d="M249 175c-.475 4.273-2.843 6.274-6 9a104 104 0 0 1-5 2c-2.682 2.233-3.776 4.505-5.125 7.688-1.989 4.222-4.104 6.601-7.75 9.5-2.341 1.832-2.341 1.832-4.125 3.812-.222 4.517.51 6.265 3 10 1.813 1.11 1.813 1.11 3.875 2 2.97 1.415 5.676 2.755 8.125 5v2h2c9.28 11.224 14.012 24.924 17 39l1.723-1.45c2.424-1.65 3.832-2.068 6.714-2.363l2.247-.269C268 261 268 261 273 263v14l-7.324-.488c-4.001.73-5.306 2.217-7.676 5.488-.719 3.108-.79 6.131-.812 9.313l-.077 2.533A359 359 0 0 0 257 300l2.766-1.516c3.946-1.81 6.063-1.447 10.234-.484l2 1c.103 5.126.036 9.95-1 15l-3-1c-3.938-.413-3.938-.413-6.176 1.715a127 127 0 0 0-4.125 4.5L256 321h-2l-.402 2.957-.536 3.856-.527 3.832C252 335 252 335 251 338c-.562 5.633-.562 5.633 1.688 10.563 2.203 1.663 2.203 1.663 4.75 1.375 2.647-.86 2.647-.86 5.062-2.563 2.5-1.375 2.5-1.375 5.125-1.312 2.872 1.133 3.848 2.285 5.375 4.937v2l1.875.938L279 356c8.063.864 13.651-1.913 20.168-6.54 8.954-7.308 13.966-17.186 18.832-27.46a694 694 0 0 1 2-4h2l2 3c3.89-14.158 5.355-27.745 5.316-42.358-.003-2.441.02-4.882.045-7.324.057-13.784-1.44-27.301-6.048-40.38l-.769-2.23C317.03 213.268 308.892 200.254 298 188c13.513 6.214 22.063 24.77 27 38 7.242 20.922 9.336 42.98 10 65l.083 2.121c.41 11.275-.91 21.82-3.083 32.879-3.875-.875-3.875-.875-5-2-.21.513-.422 1.025-.64 1.554-4.125 9.999-8.314 19.87-13.36 29.446h3a150 150 0 0 1 4 6l2 1c.238 2.11.238 2.11.313 4.75.311 3.963.528 5.045 3.062 8.313 6.66 4.915 16.702 3.428 24.625 2.937 4.144-.657 8.015-1.705 12-3q2.874-.845 5.75-1.687A912 912 0 0 0 372 372c-3.737 4.459-8.611 6.743-13.687 9.375l-2.813 1.469c-7.16 3.654-14.389 6.569-22.031 9.035-2.043.66-4.073 1.366-6.063 2.172-10.346 4.081-21.11 4.261-32.094 4.324l-3.705.042c-5.796-.03-10.983-.355-16.572-1.94-8.172-2.286-16.321-1.618-24.726-1.36-12.3.228-24.843-1.087-35.309-8.117a68 68 0 0 1-2.812-3.187c-3.487-3.88-7.79-3.637-12.735-4.208-10.092-1.77-17.8-7.498-23.879-15.476-4.876-7.149-6.594-14.302-6.824-22.879-.35-7.142-2.582-11.816-6.059-17.898-5.308-10.52-5.323-24.459-2.968-35.848 1.476-4.213 3.484-7.88 5.777-11.692 2.332-3.958 3.341-7.928 4.313-12.375C172.598 251.03 178.415 239.435 187 230l1.934-2.14c4.182-4.403 8.575-8.18 14.066-10.86h2l.125-2.812c1.927-12.63 12.95-23.325 22.375-31.125 6.547-4.796 13.257-8.461 21.5-8.063" fill="#64380F"/><path d="M566 244c1 2 1 2 .474 4.065l-.915 2.572-1.01 2.9-1.111 3.15c-2.75 7.982-5.199 15.923-7.188 24.125-8.528 34.165-23.4 88.55-54.25 109.188 1.403-2.96 3.02-5.617 4.871-8.316 15.696-23.09 28.542-46.06 37.129-72.684l.657-2.021c3.577-11.175 5.496-22.25 5.343-33.979l-.41 3.094C546.01 300.984 537.762 324.84 526 347l-1.844 3.543C516.46 364.951 507.036 378.411 498 392h2c-4.332 9.989-16.185 18.123-25 24l3.219 1.102c9.392 3.306 16.72 6.71 23.781 13.898-1.118 3.355-1.556 3.643-4.422 5.41l-2.11 1.31-2.218 1.342-2.172 1.354c-9.846 6.054-18.912 7.373-30.254 4.888a350 350 0 0 1-13.89-3.814c-11.205-3.237-21.219-3.901-32.184.385-7.706 2.866-15.245 5.423-23.562 5.375l-2.708.016c-10.119-.773-19.353-3.274-28.918-6.579l-3.408-1.146a408 408 0 0 1-20.299-7.514c-2.623-.944-5.11-1.565-7.855-2.027v-1q3.938-.04 7.875-.062l2.203-.026c4.845-.021 9.554.321 14.369.841 13.45 1.3 26.314 1.82 37.733-6.304 6.337-5.56 9.867-13.293 13.808-20.603 5.472-9.98 11.212-16.214 22.37-19.551 2.627-.715 5.26-1.411 7.892-2.108 15.149-4.19 26.873-10.35 35.113-24.164 4.048-7.476 7.042-15.246 9.813-23.265C484.768 317.58 491.122 302.203 499 287l1.148-2.226c6.584-12.58 15.09-24.42 25.852-33.774l1.39-1.353c5.508-4.762 11.073-4.158 18.048-3.834 7.27.26 13.58.384 20.562-1.813" fill="#F9C2A5"/><path d="m370 164 3.27.324C391.562 166.2 407.872 173.201 422 185l1.984 1.543c11.21 9.08 18.411 21.379 24.016 34.457l.826 1.868c6.303 14.77 6.588 33.748 2.174 49.132a77 77 0 0 1-2 4h2c-.566 4.656-2.594 8.194-5 12.125l-1.208 1.994c-3.768 6.083-8.1 11.476-12.792 16.881a989 989 0 0 0-2.812 3.5c-3.41 3.896-5.905 5.722-11.063 6.438-8.143 1.5-12.204 5.995-17.39 12.136C399 331 399 331 397 332a268 268 0 0 1-10.527-.303c-6.558-.154-9.85 1.947-14.739 6.338-.654.67-1.31 1.338-1.984 2.027l-2.016 2.036c-1.9 1.99-1.9 1.99-3.734 4.902-2.645.398-2.645.398-5.812.375l-3.145.023c-3.402-.445-5.296-1.376-8.043-3.398-1.673-3.346-1.58-6.395-1-10 1.314-3.565 2.83-6.987 4.41-10.441 1.82-4.075 3.259-8.208 4.633-12.45C356 309 356 309 359 307c2.065-.18 2.065-.18 4.422-.09l2.61.06q2.694.091 5.39.196c5.688.123 9.628-.244 14.578-3.166 1.982-2.306 1.982-2.306 3.375-5.062 4.458-7.555 10.44-16.187 18.625-19.938 3.204-.738 5.805-.824 9 0 2.442 1.685 4.62 3.558 6.871 5.488 2.197 1.84 2.197 1.84 5.817 1.762 3.998-1.509 6.16-3.392 9.312-6.25h2c1.81-5.658 3.357-11.087 4-17l-2.012 1.566-2.675 1.997-2.637 2.003C435 270 435 270 432.476 269.97c-3.994-1.563-6.727-4.412-9.878-7.254-3.218-2.125-4.804-2.233-8.598-1.715-2.863 1.085-2.863 1.085-5.562 2.688-.91.498-1.818.997-2.754 1.511-5.56 3.731-8.906 8.373-12.309 13.988-3.974 6.546-3.974 6.546-7.375 8.813-2.005.164-2.005.164-4.273.055l-2.5-.075a549 549 0 0 1-5.18-.234c-5.33-.157-5.33-.157-10.024 2.262L362 292h-2v-23l10-3c5.642-5.059 8.825-10.97 12.073-17.72 2.408-4.866 5.063-7.848 9.927-10.28a99 99 0 0 1 5.05-.14l3.057-.06a436 436 0 0 1 6.375-.054c6.168-.119 6.168-.119 11.561-2.855 2.171-3.207 3.584-6.27 4.957-9.891 1.937-5.108 3.795-8.442 8-12h2l-4-8c-7.195 1.1-12.848 5.085-17.187 10.875A299 299 0 0 0 409 220a339 339 0 0 1-3.125 4.375l-1.383 1.96c-1.818 2.028-2.886 2.812-5.492 3.665-3.535.05-7.01-.05-10.537-.254-5.703-.172-8.795.92-13.463 4.254-1.984 2.025-1.984 2.025-3.437 4.375l-1.727 2.613a295 295 0 0 0-7.172 12.453c-2.456 4.455-2.456 4.455-4.664 5.559l-1.172-3.367c-2.778-7.948-5.582-15.861-8.828-23.633l2.195-.375c6.117-1.305 9.957-2.58 13.414-7.906 2.155-4.213 4.007-8.57 5.681-12.995 1.956-4.909 4.033-7.922 8.71-10.724 3.183-.494 6.233-.34 9.438-.125 7.5.436 12.842.328 18.812-4.812L408 193l1.813-2.062L411 189c-1.245-3.736-2.634-4.188-6-6l-.687 2.188c-1.642 3.516-3.209 5.467-6.313 7.812-3.694 0-5.991-.196-8.918-2.527-3.145-2.225-5.724-2.07-9.484-1.953-6.85 1.266-11.663 7.073-15.598 12.48-1.825 3.117-3.388 6.36-4.96 9.61-2.087 4.122-4.006 6.882-8.04 9.39-3.045.755-5.844.812-9 1l-7-10 4-2c2.364-1.572 2.364-1.572 4-4 .334-3.604.334-3.604 0-7.5-.434-6.886-.434-6.886 1.688-9.89 2.505-1.744 4.35-2.228 7.312-2.86 2.75-.827 2.75-.827 5-2.75 1.59-4.11 2.44-8.024 3.184-12.348.816-3.652.816-3.652 2.039-5.71 2.767-1.466 4.779-.618 7.777.058" fill="#9D6E2A"/><path d="M590.688 37.5c4.742.716 7.186 2.964 10.312 6.5 3.892 6.151 3.996 12.888 3 20-1.961 5.81-4.43 10.499-8.875 14.75-4.014 1.606-6.828 1.546-11.125 1.25a1020 1020 0 0 0-3 9l-.914 2.719C574.129 110.12 568.98 130.635 568 150l-.13 2.007a271 271 0 0 0-.308 6.868l-.14 2.238c-.114 2.414-.114 2.414.578 5.887 2.76 2.408 2.76 2.408 6 4 7.94 7.076 13.311 19.642 14.18 30.18.006 1.608-.075 3.216-.18 4.82l2.75-.312c3.25.312 3.25.312 5.625 2.25 2.203 4.151 2.429 7.454 1.625 12.062-1.417 3.503-3.316 6.316-6 9 .149 2.869.894 3.894 2.934 5.93 10.41 8.94 10.41 8.94 23.066 12.07.75 1.75.75 1.75 1 4-1.625 2.313-1.625 2.313-4 4-10.657-.846-19.918-13.699-27-21l-2.676 1.207C561.59 245.685 542.804 243.908 518 237l-.925 2.368c-3.851 9.429-11.458 14.281-19.747 19.468-3.191 1.892-3.191 1.892-4.9 3.819L491 264c-2.187-.312-2.187-.312-4-1-.562-3.062-.562-3.062 0-7 2.051-2.033 4.258-3.594 6.617-5.258 6.295-4.602 9.88-10.906 13.383-17.742l-1.312-1.32c-4.514-4.827-4.514-4.827-5.313-8.743.625-2.937.625-2.937 2.75-5.75 2.068-3.515 2.06-3.811 1.125-7.5l-.648-2.335c-1.96-7.662-.4-14.506 3.398-21.352l2.613-2.688c2.209-2.63 2.382-3.217 2.578-6.88l-.629-3.885-.332-2.116c-1.207-7.202-3.117-14.197-5.23-21.181l-1.19-4.008C499.154 126.41 493.001 107.526 484 90l4-2c10.222 13.35 15.694 29.316 20.813 45.125l.698 2.145c2.551 7.88 4.858 15.798 6.813 23.847l.518 2.082c1.014 4.34 1.313 8.352 1.158 12.801l3.113-1.645c12.773-6.644 26.184-12.748 40.887-8.355l-.105-2.36c-.4-16.493 3.05-32.145 6.98-48.077l.499-2.048c5.121-20.859 5.121-20.859 10.32-29.25L581 80c-.592-2.153-.592-2.153-2-4-3.688-6.164-4.53-10.811-4-18h2l.188-2.125c1.136-4.02 2.733-6.058 5.812-8.875 3.112-.877 4.666-.582 8 0 3.757 3.564 4.901 6.544 5.25 11.688C596.186 64.48 594.18 69.23 591 74c5.69-5.887 8.002-10.757 8.313-19.062-.12-5.28-1.324-8.949-5.125-12.75-2.702-1.467-5.151-1.843-8.188-2.188 2-2 2-2 4.688-2.5" fill="#F8C1A4"/><path d="M298 188c13.513 6.214 22.063 24.77 27 38 7.242 20.922 9.336 42.98 10 65l.083 2.121c.41 11.275-.91 21.82-3.083 32.879-3.875-.875-3.875-.875-5-2-.316.77-.316.77-.64 1.554-4.125 9.999-8.314 19.87-13.36 29.446h3a150 150 0 0 1 4 6l2 1c.238 2.11.238 2.11.313 4.75.311 3.963.528 5.045 3.062 8.313 6.66 4.915 16.702 3.428 24.625 2.937 4.144-.657 8.015-1.705 12-3q2.874-.845 5.75-1.687A912 912 0 0 0 372 372c-3.737 4.459-8.611 6.743-13.687 9.375l-2.813 1.469c-7.16 3.654-14.389 6.569-22.031 9.035-2.043.66-4.073 1.366-6.063 2.172-10.346 4.081-21.11 4.261-32.094 4.324l-3.705.042c-5.796-.03-10.983-.355-16.572-1.94-8.172-2.286-16.321-1.618-24.726-1.36-13.317.247-28.263-1.2-38.434-10.805C210 382 210 382 210 380l7-3-2-1.437c-2.62-3.357-2.293-5.511-2.043-9.637L213 364c-1.907-1.907-5.19-1.842-7.773-2.305-2.49-.777-3.56-1.727-5.227-3.695l2-6 2.64-.008c9.214-.299 15.451-2.39 23.36-6.992 8.8-4.817 8.8-4.817 13-4a100 100 0 0 1 4 3c11.205-31.782 13.606-72.082-.732-103.339C239.509 230.85 233.895 223.948 224 219l3-1c2.262 1.145 2.262 1.145 4.688 2.813l2.449 1.644L236 224v2h2c9.28 11.224 14.012 24.924 17 39l1.723-1.45c2.424-1.65 3.832-2.068 6.714-2.363l2.247-.269C268 261 268 261 273 263v14l-7.324-.488c-4.001.73-5.306 2.217-7.676 5.488-.719 3.108-.79 6.131-.812 9.313l-.077 2.533A359 359 0 0 0 257 300l2.766-1.516c3.946-1.81 6.063-1.447 10.234-.484l2 1c.103 5.126.036 9.95-1 15l-3-1c-3.938-.413-3.938-.413-6.176 1.715a127 127 0 0 0-4.125 4.5L256 321h-2l-.402 2.957-.536 3.856-.527 3.832C252 335 252 335 251 338c-.562 5.633-.562 5.633 1.688 10.563 2.203 1.663 2.203 1.663 4.75 1.375 2.647-.86 2.647-.86 5.062-2.563 2.5-1.375 2.5-1.375 5.125-1.312 2.872 1.133 3.848 2.285 5.375 4.937v2l1.875.938L279 356c8.063.864 13.651-1.913 20.168-6.54 8.954-7.308 13.966-17.186 18.832-27.46a694 694 0 0 1 2-4h2l2 3c3.89-14.158 5.355-27.745 5.316-42.358-.003-2.441.02-4.882.045-7.324.057-13.784-1.44-27.301-6.048-40.38l-.769-2.23C317.03 213.268 308.892 200.254 298 188" fill="#60340D"/><path d="M304 233c1.324 1.594 1.324 1.594 2.5 3.5 1.953 3.122 2.236 3.415 6 4.625 3.857-.138 5.34-1.058 8.5-3.125 4.277 14.636 6.182 28.802 6.571 44.032l.085 2.609.057 2.329c.182 2.34.182 2.34 2.287 5.03 0 2.125 0 2.125-.355 4.57l-.39 2.72-.442 2.835-.385 2.766c-.887 5.957-2.321 11.468-4.428 17.109l-2-4c-2.922 1.46-3.058 3.412-4.187 6.438C312.807 336.79 304.023 348.793 292 355l-2.5 1.313c-5.208 1.432-8.985 1.445-13.75-.938-3.036-2.622-4.723-4.944-6.75-8.375-3.375.392-5.666.789-8.562 2.625C258 351 258 351 255.375 350.938c-3.045-1.202-3.935-1.983-5.375-4.938-.415-8.934.383-20.268 5.977-27.586 1.936-1.669 3.86-3.06 6.023-4.414l2-2c2.563-.187 2.563-.187 5 0l1 1 2-14-4.125-.625-2.32-.352c-3.172-.029-5.609.858-8.555 1.977a441 441 0 0 1-.312-8.687l-.127-2.475c-.092-4.51-.054-6.233 2.896-9.858L262 277l1-1a75 75 0 0 1 4.563-.062l2.503.027L272 276c.412-8.911-.525-16.992-2.344-25.664C269 247 269 247 269 244c3.127.474 5.478 1.221 8.375 2.563 3.836 1.52 6.541 1.687 10.625 1.437l.516-2.012c1.408-5.13 2.623-9.127 6.484-12.988 3.304-1.652 5.5-.95 9 0" fill="#7D4D18"/><path d="M566 244c1 2 1 2 .47 4.063l-.904 2.507-.966 2.715-1.038 2.84-1.025 2.863q-1.259 3.51-2.537 7.012c-2-3-2-3-3.437-6.562-1.288-3.636-1.288-3.636-4.563-5.438-9.003-1.143-15.787 2.255-23.04 7.465-13.537 12.147-19.534 34.355-25.398 50.91-5.606 15.79-12.03 30.964-19.687 45.875l-1.45 2.85c-3.236 6.162-6.966 11.562-11.425 16.9l-1.802 2.164c-7.376 8.563-18.883 12.71-29.26 16.461-5.673 2.079-11.103 4.704-13.938 10.375-.368 3.903-.395 6.276 1.5 9.75 7.152 6.437 15.403 5.66 24.5 5.25l2.48-.059c6.7-.402 12.482-3.172 18.52-5.941v2l3.375-.25c9.542.034 17.72 5.457 24.348 11.934L502 431c-1.118 3.355-1.556 3.643-4.422 5.41l-2.11 1.31-2.218 1.342-2.172 1.354c-9.846 6.054-18.912 7.373-30.254 4.888a350 350 0 0 1-13.89-3.814c-11.205-3.237-21.219-3.901-32.184.385-7.706 2.866-15.245 5.423-23.562 5.375l-2.708.016c-10.119-.773-19.353-3.274-28.918-6.579l-3.408-1.146a408 408 0 0 1-20.299-7.514c-2.623-.944-5.11-1.565-7.855-2.027v-1q3.938-.04 7.875-.062l2.203-.026c4.845-.021 9.554.321 14.369.841 13.45 1.3 26.314 1.82 37.733-6.304 6.337-5.56 9.867-13.293 13.808-20.603 5.472-9.98 11.212-16.214 22.37-19.551 2.627-.715 5.26-1.411 7.892-2.108 15.149-4.19 26.873-10.35 35.113-24.164 4.048-7.476 7.042-15.246 9.813-23.265C484.768 317.58 491.122 302.203 499 287l1.148-2.226c6.584-12.58 15.09-24.42 25.852-33.774l1.39-1.353c5.508-4.762 11.073-4.158 18.048-3.834 7.27.26 13.58.384 20.562-1.813" fill="#F5AA87"/><path d="M225 220c7.199 1.264 12.593 8.073 16.629 13.793C257.068 258.644 258.015 297.065 252 325c-4.442 17.442-4.442 17.442-8 21l-3-4c-6.16.616-10.467 2.27-15.562 5.75C223 349 223 349 220.566 348.977c-3.79-1.443-4.379-3.746-6.066-7.352-2.232-4.749-3.693-7.337-8.5-9.625.908-2.801 1.834-5.582 2.918-8.32 3.911-10.04 6.746-20.836 6.082-31.68-2.354-.688-2.354-.688-5-1l-3 2-.48-2.527c-1.352-6.52-2.904-11.999-6.434-17.668C199 271 199 271 198 268c-2.3-1.363-4.73-2.315-7.187-3.375C188 263 188 263 187.332 261.254c-.394-2.673-.464-5.24-.457-7.942l-.008-2.949C187 248 187 248 188 247c2.579-.322 5.16-.513 7.75-.719 2.217-.043 2.217-.043 3.25-1.281.132-1.727.23-3.457.313-5.187.424-5.193 1.275-7.9 4.687-11.813 3.175-2.117 3.667-2.23 7.23-1.977l2.432.157 2.525.195 2.561.172c2.085.141 4.168.296 6.252.453z" fill="#7D4D18"/><path d="m455 267 5 1c-.489 6.067-1.826 10.68-4.5 16.125l-1.077 2.23c-7.525 15.221-17.786 28.852-29.27 41.305-2.12 2.304-4.167 4.66-6.216 7.027-3.038 3.421-6.217 6.45-9.714 9.395a129 129 0 0 0-4.727 4.305c-6.172 5.88-12.628 11.119-19.496 16.176l-2.501 1.842c-6.676 4.849-12.586 7.35-20.499 9.595l-2.652.86c-6.434 1.912-12.551 2.452-19.223 2.515l-2.45.042c-5.871-.046-10.22-.968-14.538-5.276-1.405-2.646-1.442-4.414-1.325-7.391l.083-2.703L322 362l-1.922-.836c-2.773-1.554-3.144-3.207-4.078-6.164h-3c1.53-5.031 3.644-9.601 5.938-14.312 2.785-5.807 5.259-11.49 7.062-17.688l6 3c.09-1.07.09-1.07.184-2.16l.253-2.902.247-2.848c.219-2.142.497-4.278.82-6.406.667-4.956.876-9.903 1.101-14.895.29-5.685.29-5.685 1.395-6.789 4.34-.443 7.185-.099 10.938 2 4.215 2.343 7.294 2.34 12.062 2-.762 8.38-2.774 15.986-5.437 23.938l-.91 2.725c-1.275 3.71-2.582 7.196-4.352 10.704-1.93 3.904-1.725 6.322-1.301 10.633 1.543 2.175 2.637 2.818 5 4 4.105.604 7.907.731 12 0 2.304-1.726 3.721-3.5 5.406-5.824 2.74-3.74 6.428-7.093 10.594-9.176 3.544.074 7.077.175 10.615.39 4.212.118 5.823.065 9.213-2.68L402 326c5.152-5.453 9.339-9.685 17.125-10.562 4.27-.442 4.27-.442 7.875-2.438l.883-1.836c1.254-2.43 2.723-4.008 4.617-5.976C442.723 293.817 449.234 281.06 455 267" fill="#61340D"/><path d="M322 150c20.038-.86 39.852 2.025 59 8l2.404.73c17.903 5.474 33.242 12.147 47.596 24.27l2.828 2.297c13.93 11.86 27.65 30.097 29.996 48.785.751 12.465-.07 23.74-2.824 35.918l-2-2-4-1-3 9h-3l.435-1.72c4.354-17.583 5.013-36.488-2.435-53.28l-.893-2.057C442.14 209.992 437.514 202.366 431 195l-1.414-1.844c-11.842-15.235-33.76-24.93-52.461-27.344l-3.68-.417C370 165 370 165 366.68 164.325L364 164c-3.19 3.19-3.405 7.813-4.236 12.146-.774 3.504-1.293 5.475-4.135 7.76a130 130 0 0 1-8.957 3.348c-1.876.625-1.876.625-2.672 2.746.09 3.773.261 7.532.453 11.3-.453 3.7-.453 3.7-2.656 6.743C339 210 339 210 336.507 210.199c-3.52-1.684-5.393-4.304-7.632-7.387a2852 2852 0 0 0-2.875-3.835l-1.484-1.996c-1.495-1.953-3.049-3.833-4.641-5.708-8.855-10.513-8.855-10.513-8.703-17.316-.277-3.154-2.224-4.99-4.145-7.394C306 165 306 165 305.937 162.25c1.368-2.895 2.205-3.75 5.063-5.25a97 97 0 0 1 6.977-1.18c2.305-.674 2.305-.674 3.296-3.39zm-22 3-3 1-.125 3.813-.07 2.144c.062 2.357.062 2.357 2.195 5.043-.375 2.188-.375 2.188-1 4l-2.633-.36c-7.163-.92-7.163-.92-13.93 1.048L279 172l-2.375 2.25L275 176l5 2-1 2h-2c1.44 2.88 3.381 3.156 6.313 4.438 9.945 4.848 18.986 13.007 24.687 22.562l1 3-2.25 1.563c-2.411 2.137-3.452 3.4-4.937 6.125C300 221 300 221 298 222c-5.538.23-5.538.23-8-1-4.609-.493-4.609-.493-8.719 1.2-1.722 2.42-1.52 3.929-1.344 6.863.153 2.66.153 2.66.063 4.937l-2 2c-5.54-.222-10.683-1.45-15-5-2.031-2.93-3.717-5.93-5.39-9.078-1.362-2.471-2.694-4.444-4.548-6.547C251 213 251 213 251 211l-1.875.875c-3.603 1.297-7.149 1.93-10.918 2.563-2.395.41-2.395.41-4.207 2.562-.648 2.57-.648 2.57-1 5-9.198-3.9-9.198-3.9-12.187-8-.9-3.32-.854-4.758.187-8 1.89-1.887 1.89-1.887 4.25-3.687 4.333-3.62 6.414-7.021 8.715-12.114 2.04-4.334 4.176-5.868 8.597-7.574 4.083-1.93 4.874-3.486 6.438-7.625l-3-1h2.875c3.765-.531 5.715-2.1 8.563-4.562 8.992-7.58 19.622-12.134 30.812-15.5l2.166-.656c3.478-.969 6.16-1.685 9.584-.282" fill="#804F19"/><path d="M449 276h2c-.566 4.656-2.594 8.194-5 12.125l-1.208 1.994c-3.768 6.083-8.1 11.476-12.792 16.881a989 989 0 0 0-2.812 3.5c-3.41 3.896-5.905 5.722-11.063 6.438-8.143 1.5-12.204 5.995-17.39 12.136C399 331 399 331 397 332a268 268 0 0 1-10.527-.303c-6.558-.154-9.85 1.947-14.739 6.338l-1.984 2.027-2.016 2.036c-1.9 1.99-1.9 1.99-3.734 4.902-2.645.398-2.645.398-5.812.375l-3.145.023c-3.402-.445-5.296-1.376-8.043-3.398-1.673-3.346-1.58-6.395-1-10 1.314-3.565 2.83-6.987 4.41-10.441 1.82-4.075 3.259-8.208 4.633-12.45C356 309 356 309 359 307c2.065-.18 2.065-.18 4.422-.09l2.61.06q2.694.091 5.39.196c5.688.123 9.628-.244 14.578-3.166 1.982-2.306 1.982-2.306 3.375-5.062 4.458-7.555 10.44-16.187 18.625-19.938 3.204-.738 5.805-.824 9 0 2.442 1.685 4.622 3.56 6.875 5.488 2.185 1.833 2.185 1.833 5.75 1.762 4.137-1.532 6.928-3.506 10.375-6.25l-1 6c2.414-.148 2.414-.148 5-1 1.672-2.046 1.672-2.046 2.813-4.562l1.269-2.504z" fill="#9D6E2A"/><path d="M433 211c3.515 3.987 5.57 7.982 7.625 12.813.3.673.598 1.347.906 2.04 4.784 11.06 7.097 24.207 4.469 36.147-2.963 4.216-6.064 6.501-11 8-5.508-.185-8.498-3.764-12.402-7.285-3.218-2.125-4.804-2.233-8.598-1.715-2.863 1.085-2.863 1.085-5.562 2.688-.91.498-1.818.997-2.754 1.511-5.56 3.731-8.906 8.373-12.309 13.988-3.974 6.546-3.974 6.546-7.375 8.813-2.005.164-2.005.164-4.273.055l-2.5-.075a549 549 0 0 1-5.18-.234c-5.33-.157-5.33-.157-10.024 2.262L362 292h-2v-23l10-3c5.642-5.059 8.825-10.97 12.073-17.72 2.408-4.866 5.063-7.848 9.927-10.28a99 99 0 0 1 5.05-.14l3.057-.06a436 436 0 0 1 6.375-.054c6.168-.119 6.168-.119 11.561-2.855 2.171-3.207 3.584-6.27 4.957-9.891 1.937-5.108 3.795-8.442 8-12h2z" fill="#9D6E2A"/><path d="M245 260h2c1.557 5.536 2.308 10.462 2.3 16.2l.014 2.293q.008 2.388.002 4.777c-.003 2.394.02 4.787.045 7.181.038 9.247-.744 17.609-3.361 26.549l-.895 3.11q-1.013 3.457-2.105 6.89l8-3c-.552 7.172-1.758 16.758-7 22l-3-4c-6.16.616-10.467 2.27-15.562 5.75C223 349 223 349 220.566 348.977c-3.79-1.443-4.379-3.746-6.066-7.352-2.232-4.749-3.693-7.337-8.5-9.625.908-2.801 1.834-5.582 2.918-8.32 6.969-17.89 6.338-34.947 5.082-53.68 2.453-.88 3.628-1.137 6.113-.223l2.2 1.16c4.094 1.953 7.097 2.513 11.687 2.063l2.313-.187c2.586-1.246 2.744-3.16 3.687-5.813 3.474-5.474 3.474-5.474 5-7" fill="#804F19"/><path d="M299.813 300.188C303 301 303 301 304 302c.274 4.11-.196 6.393-2 10-.25 3.125-.25 3.125 0 6 1.077 1.284 1.077 1.284 3.625 1.313 3.294-.305 4.278-.688 6.938-2.375 3.803-2.144 4.457-2.02 8.437-.938-5.368 15.559-13.728 31.263-29 39l-2.5 1.313c-5.208 1.432-8.985 1.445-13.75-.938-3.036-2.622-4.723-4.944-6.75-8.375-3.375.392-5.666.789-8.562 2.625C258 351 258 351 255.375 350.938c-3.045-1.202-3.935-1.983-5.375-4.938-.415-8.934.383-20.268 5.977-27.586 1.936-1.669 3.86-3.06 6.023-4.414l2-2c2.563-.187 2.563-.187 5 0l1 1 3-12c5 2 5 2 8 4 4.692.268 8.238-.482 12.125-3.125C296 300 296 300 299.813 300.188" fill="#804F19"/><path d="M298 188c13.513 6.214 22.063 24.77 27 38 7.242 20.922 9.336 42.98 10 65l.083 2.121c.41 11.275-.91 21.82-3.083 32.879-3.875-.875-3.875-.875-5-2-.316.77-.316.77-.64 1.554-4.125 9.999-8.314 19.87-13.36 29.446h3a150 150 0 0 1 4 6l2 1c.238 2.11.238 2.11.313 4.75.311 3.963.528 5.045 3.062 8.313 6.66 4.915 16.702 3.428 24.625 2.937 4.144-.657 8.015-1.705 12-3q2.874-.845 5.75-1.687A912 912 0 0 0 372 372c-3.737 4.459-8.611 6.743-13.687 9.375l-2.813 1.469c-7.16 3.654-14.389 6.569-22.031 9.035-2.043.66-4.073 1.366-6.063 2.172-10.426 4.113-21.215 4.238-32.281 4.262l-3.781.016c-6.723-.052-12.902-.319-19.344-2.329l-2-3 1.73-.96c29.234-16.826 43.824-42.907 53.31-74.5 3.417-12.877 4.311-25.65 4.276-38.898-.003-2.441.02-4.882.045-7.324.057-13.784-1.44-27.301-6.048-40.38l-.769-2.23C317.03 213.268 308.892 200.254 298 188" fill="#3E1B04"/><path d="M224 218c4.846.44 8.481 2.745 12 6v2h2c9.28 11.224 14.012 24.924 17 39l1.723-1.45c2.424-1.65 3.832-2.068 6.714-2.363l2.247-.269C268 261 268 261 273 263v14l-7.324-.488c-4.001.73-5.306 2.217-7.676 5.488-.719 3.108-.79 6.131-.812 9.313l-.077 2.533A359 359 0 0 0 257 300l2.766-1.516c3.946-1.81 6.063-1.447 10.234-.484l2 1c.103 5.126.036 9.95-1 15l-3-1c-3.938-.413-3.938-.413-6.176 1.715a127 127 0 0 0-4.125 4.5L256 321h-2l-.332 2.64c-1.06 7.964-2.5 15.626-4.668 23.36l-.8 2.969c-1.453 5.065-3.119 9.937-5.235 14.761l-1.101 2.514a266 266 0 0 1-2.222 4.87c-2.367 5.292-3.597 10.071-2.642 15.886 1.112 2.34 2.34 3.976 4 6-10.338.69-19.27-2.067-27.477-8.437-1.678-1.722-2.568-3.37-3.523-5.563l7-3-2-1.437c-2.62-3.357-2.293-5.511-2.043-9.637L213 364c-1.907-1.907-5.19-1.842-7.773-2.305-2.49-.777-3.56-1.727-5.227-3.695l2-6 2.64-.008c9.214-.299 15.451-2.39 23.36-6.992 8.8-4.817 8.8-4.817 13-4a100 100 0 0 1 4 3c11.205-31.782 13.606-72.082-.732-103.339C239.509 230.85 233.895 223.948 224 219z" fill="#4E2709"/><path d="M412 188c3.76 2.082 6.662 4.391 9.688 7.438l2.324 2.308c1.8 2.04 2.93 3.769 3.988 6.254l-2.16 1.031c-9.631 4.874-14.807 10.83-20.285 19.989-2.01 2.56-3.554 3.677-6.555 4.98-3.582.138-7.017.025-10.586-.205-5.7-.209-8.745.868-13.414 4.205-1.984 2.025-1.984 2.025-3.437 4.375l-1.727 2.613a295 295 0 0 0-7.172 12.453c-2.456 4.455-2.456 4.455-4.664 5.559l-1.172-3.367c-2.778-7.948-5.582-15.861-8.828-23.633l2.195-.375c6.117-1.305 9.957-2.58 13.414-7.906 2.155-4.213 4.007-8.57 5.681-12.995 1.956-4.909 4.033-7.922 8.71-10.724 3.183-.494 6.233-.34 9.438-.125 6.415.373 10.88.343 16.562-2.875 2.465-2.192 2.465-2.192 4.438-4.687l2.058-2.45zm-108.344 83.91C307 273 307 273 308.867 274.645c1.45 3.012 1.85 5.728 2.258 9.043.178 3.977.178 3.977 1.875 7.312 4.569.406 6.51-.112 10-3h3c.139 5.622-.286 10.74-1.375 16.25l-.383 2.102c-1.336 6.974-1.336 6.974-3.242 9.648-2.324.395-4.66.722-7 1l-2.562 1.563c-3.036 1.79-4.969 1.822-8.438 1.437-2-2-2-2-2.25-4.875.247-3.093.902-4.43 2.25-7.125.167-3.167.167-3.167 0-6-3.22-.867-3.22-.867-7-1a374 374 0 0 0-6 4c-3.277 1.046-5.416 1.048-9 1l-8-5 1-23 8 5c3.608.881 3.608.881 7 0 2.624-2.252 4.648-4.517 6.816-7.178 2.668-3.013 3.74-3.811 7.84-3.912" fill="#9D6E2A"/><path d="M428.188 204c2.653 1.464 3.528 3.303 4.812 6v3l-4.44 3.488c-2.75 2.665-3.811 6.042-5.123 9.575-3.532 9.427-3.532 9.427-8.437 11.937-4.831.645-9.676.507-14.541.488-5.943.085-9.994.162-14.459 4.512-1.912 2.843-3.467 5.814-5 8.875-3.411 6.746-6.649 12.79-13.562 16.5-2.58.661-4.787.777-7.438.625v5h-1l-2-17 2 1 .93-1.649a2283 2283 0 0 1 4.257-7.476l1.463-2.594c8.262-14.415 8.262-14.415 16.35-17.281 2.887-.34 5.668-.206 8.563 0 4.595.325 7.553.444 11.753-1.668 2.764-2.401 4.285-4.462 6.059-7.644 4.045-6.69 11.156-15.688 19.813-15.688" fill="#804F19"/><path d="M304 233c1.324 1.594 1.324 1.594 2.5 3.5 1.953 3.122 2.236 3.415 6 4.625 3.857-.138 5.34-1.058 8.5-3.125 2.511 8.408 4.752 16.12 4 25-8.333 2.667-8.333 2.667-13 2a77 77 0 0 1-4-2.562c-2.68-1.777-3.717-2.42-7-2.625-3.596 1.423-6.268 3.395-9.266 5.812-3.329 2.64-5.507 2.828-9.734 2.375-4.076-.9-6.99-2.059-10-5-2.463-5.84-3-12.732-3-19 3.127.474 5.478 1.221 8.375 2.563 3.836 1.52 6.541 1.687 10.625 1.437l.516-2.012c1.408-5.13 2.623-9.127 6.484-12.988 3.304-1.652 5.5-.95 9 0" fill="#9D6E2A"/><path d="M367 164c2.762.024 5.33.185 8.063.5l2.426.278c16.668 2.218 31.67 9.497 44.511 20.222l1.984 1.543c11.21 9.08 18.411 21.379 24.016 34.457l.826 1.868c6.47 15.163 6.982 35.638 1.435 51.206-.784 1.863-1.677 3.678-2.574 5.488l-.857 1.862c-.88 1.767-.88 1.767-2.83 4.576-2.73.902-2.73.902-5 1-1.28-3.838-.447-4.702 1.313-8.25 6.843-13.884 7.434-32.602 2.75-47.375-4.8-12.83-11.863-24.234-21.063-34.375l-1.664-1.91C405.986 179.574 385.53 172.302 365 170c0-4 0-4 2-6" fill="#D8AC4D"/><path d="M291 189c7.093 4.824 15.234 12.702 18 21l-2.25 1.563c-2.411 2.137-3.452 3.4-4.937 6.125C300 221 300 221 298 222c-5.538.23-5.538.23-8-1-4.609-.493-4.609-.493-8.719 1.2-1.722 2.42-1.52 3.929-1.344 6.863.153 2.66.153 2.66.063 4.937l-2 2c-5.56-.222-10.588-1.575-15-5-6.171-7.727-6.171-7.727-5.84-12.125 1.006-2.247 1.858-3.401 3.84-4.875 2.27-.45 2.27-.45 4.813-.687 3.961-.72 5.948-1.486 8.437-4.688 2.87-4.432 5.133-9.206 7.355-13.988 2.395-4.528 4.039-6.524 9.395-5.637" fill="#9D6E2A"/><path d="M524 198a56.5 56.5 0 0 1 7 4v2c12.693 2.604 25.083 4.04 37-2 .699-.56 1.397-1.121 2.117-1.7.622-.428 1.243-.858 1.883-1.3l3 1-1.25 3.063c-1.551 4.055-2.548 8.156-3.562 12.375-1.948 7.67-4.69 14.52-11.438 19.125-5.146 2.453-10.518 2.385-15.922.8-7.779-3.814-10.846-12.801-13.599-20.526-1.538-4.577-2.9-9.196-4.229-13.837z" fill="#F1A583"/><path d="m370 372 2 1c-14.662 9.588-30.232 16.895-47 22l-3.383 1.035c-8.781 2.19-17.479 2.238-26.492 2.277l-3.784.018c-6.722-.054-12.9-.32-19.341-2.33l-2-3 1.871-1.066c5.416-3.158 10.283-6.505 15.024-10.614 2.597-1.628 4.09-1.678 7.105-1.32 2.625 1.438 2.625 1.438 5 3 6.157 2.052 12.135 1.447 18.09-.992 2.063-1.089 3.77-2.376 5.598-3.82L326 376q2.505.989 5 2c3.021.337 6.025.333 9.063.313l2.56-.011c8.558-.148 16.043-1.973 24.002-5.052z" fill="#4E2709"/><path d="m429 324-8.887 8.887-1.595 1.595a2855 2855 0 0 1-4.104 4.092 362 362 0 0 0-4.816 4.934C402.582 350.75 395.075 356.974 387 363l-1.908 1.438a620 620 0 0 1-5.654 4.187l-1.732 1.291c-3.252 2.34-5.76 3.522-9.706 4.084-3.007.971-5.983 2.016-8.965 3.063-6.23 1.924-12.195 2.12-18.66 2.125l-2.562.037-2.477.005-2.233.013c-2.395-.277-4.021-1.056-6.103-2.243 1.298-2.896 2.546-4.968 5-7 2.121-.547 2.121-.547 4.438-.75l2.308-.234c2.293-.016 4.05.394 6.254.984 2.124.23 2.124.23 4.313.25l2.175.078c7.545-.985 11.578-4.953 16.512-10.328 5.472-5.96 9.96-9.75 18.313-10.625 7.189-1.467 11.871-7.42 16.746-12.535 6.29-6.57 16.224-15.672 25.941-12.84" fill="#774817"/><path d="M206 332c5.64 2.256 5.64 2.256 7.688 5.813l1.253 2.156c1.191 2.285 2.103 4.64 3.059 7.031 1.52 1.773 1.52 1.773 3 3-4.219 2.049-7.654 2.212-12.312 2.125l-3.801-.055L202 352l-1 8 2.336.367 3.039.508 3.023.492C212 362 212 362 214 364c.16 2.094.16 2.094.063 4.5-.183 3.382-.183 3.382.937 6.5l3 2c-6.491 4.059-11.389 4.324-18.832 2.832-10.846-2.848-10.846-2.848-13.793-7.27-.42-2.873-.27-4.802.625-7.562l2-2c.5-2.457.5-2.457 0-5-1.9-1.843-1.9-1.843-4-3 .462-4.997 1.828-7.575 5.063-11.375l2.222-2.648L193 339l6 2z" fill="#764817"/><path d="M421 184c4.874-.75 9.145-1.055 13.535 1.441 13.54 11.603 27.017 30.546 29.29 48.641.75 12.465-.071 23.74-2.825 35.918l-2-2-4-1-3 9h-3l.435-1.72c4.354-17.583 5.013-36.488-2.435-53.28l-.893-2.057c-3.962-8.94-8.572-16.608-15.107-23.943l-3.25-3.875A107 107 0 0 0 421 184" fill="#7F511D"/><path d="M339.063 289.688c3.648.29 4.855.623 7.875 2.312 4.215 2.343 7.294 2.34 12.062 2q-.466 3.157-.937 6.313l-.528 3.55C357 307 357 307 356 310l-2.32 1.379c-3.037 1.837-4.482 3.699-6.555 6.558-3.403 4.39-5.991 6.932-11.125 9.063a72 72 0 0 1-5 0l-.113 1.807c-.526 6.639-1.982 12.642-3.887 19.005-2.343 8.143-3.968 15.672-4 24.188h-1v-10l-4-2c-1.25-2.625-1.25-2.625-2-5h-3c1.53-5.031 3.644-9.601 5.938-14.312 2.785-5.807 5.259-11.49 7.062-17.688l6 3c.09-1.07.09-1.07.184-2.16l.253-2.902.247-2.848c.219-2.142.497-4.278.82-6.406.667-4.956.876-9.903 1.101-14.895.342-6.682.342-6.682 4.457-7.101" fill="#61340D"/><path d="m354 156-1 2a123 123 0 0 0 0 5.563c.038 1.812.047 3.625 0 5.437l-1 1a68 68 0 0 1-4.312-.437c-4.022-.429-8.02-.747-12.063-.875l-2.96-.114c-3.465.554-4.597 1.633-6.665 4.426-.84 3.981-.457 7.87 1.063 11.625 1.348 3.416.799 5.862-.063 9.375l-3 2a494 494 0 0 1-5.937-6.937l-1.71-1.94c-3.653-4.397-4.901-7.464-5.178-13.166-.227-2.54-1.087-3.85-2.8-5.707-2.369-2.966-2.369-2.966-2.437-6 1.31-2.776 2.47-3.614 5.062-5.25 13.85-4.604 28.893-4.044 43-1" fill="#9C6D2A"/><path d="m292 318 .594 2.414c2.046 7.606 2.046 7.606 7.719 12.649 2.698 1.714 3.543 2.334 4.296 5.492-.07 4.33-.6 7.27-3.464 10.605-2.292 1.858-4.584 3.378-7.145 4.84l-1.871 1.09c-4.5 2.255-8.235 2.454-13.129 1.91-4.952-2.522-7.769-5.39-9.57-10.672-.62-3.354-.534-6.682-.493-10.078l.014-2.113q.02-2.57.049-5.137l2 1c4.047.477 4.047.477 7.531-1.227 2.232-2.694 3.679-5.719 5.285-8.812 2.257-3.738 4.338-2.872 8.184-1.961" fill="#9D6E2A"/><path d="m354 310 2 1a4859 4859 0 0 1-3.375 9.25l-.96 2.645-.938 2.558-.857 2.349C349 330 349 330 347.91 332.157c-1.642 3.324-1.2 6.18-.91 9.843 1.543 2.175 2.637 2.818 5 4 1.87.228 3.747.41 5.625.563l3.04.253L363 347c-3.409 4.98-6.447 9.28-12 12-3.227.304-6.05.176-9.234-.414-4.395-.91-4.395-.91-8.461.46l-1.493 1.392C329 363 329 363 325.626 363.313L323 363c.592-5.863 1.77-11.232 3.438-16.875 1.822-6.341 3.408-12.621 4.562-19.125l1.793-.48c5.364-1.584 8.523-3.139 12.207-7.52q1.56-1.846 3.125-3.687l1.445-1.762C351 312 351 312 354 310" fill="#764816"/><path d="M245 260h2c2.265 7.205 2.232 13.99 2.125 21.5l-.027 3.648q-.036 4.426-.098 8.852c-4.695 1.18-4.695 1.18-7.437-.437L239 292c-3.21-.251-3.21-.251-6 0l-1.059 1.934-1.379 2.503-1.37 2.497C228 301 228 301 227 302c-2.826.318-4.395.443-6.73-1.266-5.759-7.842-6.381-18.215-6.27-27.734.29-1.343.611-2.682 1-4 3.127.474 5.478 1.221 8.375 2.563 4.58 1.816 8.116 1.64 12.938 1.25 2.586-1.246 2.744-3.16 3.687-5.813 3.474-5.474 3.474-5.474 5-7" fill="#9D6E2A"/><path d="M405 183c4.713 1.488 4.713 1.488 6.164 4.078L412 189a281 281 0 0 1-3.562 4.313l-2.004 2.425c-5.183 4.817-9.757 5.562-16.559 5.33q-2.513-.13-5.023-.273c-3.83-.125-6.234-.111-9.692 1.658-2.946 3.474-4.438 7.149-6.098 11.36-2.823 7.15-5.832 14.202-13.125 17.625C353 232 353 232 348 232l-6-11 6.543-1.074c6.265-2.36 8.929-8.21 11.832-13.801 3.19-5.897 6.257-10.945 11.625-15.125l2.313-1.937c4.206-1.663 8.232-1.743 12.687-1.063 3.313 2 3.313 2 6 4 2.5.917 2.5.917 5 0 2.828-2.643 5.266-5.531 7-9" fill="#804F19"/><path d="M214 311c2.025 1.933 3.421 3.632 5 6 2.415.5 2.415.5 5 0l1.844-1.504c2.631-1.826 4.112-1.87 7.281-1.808l2.633.011C238 314 238 314 240 316c1.593 5.139 2.975 10.506.965 15.648-1.52 2.279-3.15 4.304-4.965 6.352l-1.238 1.707c-2.991 4.06-7.024 7.49-11.762 9.293-2.531.027-2.531.027-5-1-1.844-2.836-1.844-2.836-3.5-6.375-2.232-4.749-3.693-7.337-8.5-9.625a669 669 0 0 1 4.563-13.312l1.316-3.739C213 312 213 312 214 311" fill="#9D6E2A"/><path d="m455 267 5 1c-.489 6.067-1.827 10.68-4.5 16.125l-1.072 2.225c-3 6.077-6.391 11.815-10.225 17.4-2.235 3.208-2.235 3.208-4.094 6.563-1.845 3.039-3.384 5.396-6.109 7.687-3.32.363-6.326.056-9.648-.242-4.889.353-7.2 2.79-10.693 6.046C400.853 335.726 383.094 343.794 366 347l-2-1c10.035-12.017 10.035-12.017 16-15 3.544.074 7.077.175 10.615.39 4.212.118 5.823.065 9.213-2.68L402 326c5.152-5.453 9.339-9.685 17.125-10.562 4.27-.442 4.27-.442 7.875-2.438l.883-1.836c1.254-2.43 2.723-4.008 4.617-5.976C442.723 293.817 449.234 281.06 455 267" fill="#784A18"/><path d="m314.875 149.938 2.086.013q2.52.02 5.039.049l-1 5-3.125.813c-4.474 1.279-8.544 2.856-11.875 6.187-.84 5.884.915 9.196 4.004 13.984C311 178 311 178 310 181c-2.531 1.156-5.107 1.973-7.75 2.84-2.405.94-2.405.94-3.125 3.164-.297 2.07-.297 2.07.875 3.996-8.563-1.704-15.542-4.464-23-9 0-2 0-2 2-4l-7-2v-1l2.25-.187c3.592-1.062 4.528-2.875 6.75-5.813 3.564-2.483 6.54-2.046 10.75-1.625l3.547.336L298 168c-.506-2.169-1-4-2-6-.538-4.034-.366-5.516 2.125-8.812 5.012-3.814 10.659-3.327 16.75-3.25" fill="#62350E"/><path d="M241 341a117 117 0 0 1 4 5c-5.539 12.563-12.452 22.262-23.895 30.27-2.105.73-2.105.73-4.816.043C214 375 214 375 213.188 372.188c-.162-2.74-.188-5.445-.188-8.188-1.907-1.907-5.19-1.842-7.773-2.305-2.49-.777-3.56-1.727-5.227-3.695l2-6 2.64-.008c9.214-.299 15.451-2.39 23.36-6.992 9.092-4.977 9.092-4.977 13-4" fill="#61340D"/><path d="M190 265c4.485 2.163 6.948 4.463 9 9q.507 3 1 6a424 424 0 0 0 1.563 5.625c2.52 10.03 2.033 18.7-1.563 28.375-3.869-1.576-6.397-3.741-9-7-.4-2.735-.554-4.97-.5-7.687-.129-6.99-1.277-12.512-5.5-18.313l-2-1v5c-3.766 1.255-5.372.37-9-1a361 361 0 0 1-.312-7.812l-.127-2.237c-.05-2.158-.05-2.158.439-5.951 4.56-4.151 10.18-3.77 16-3" fill="#7C4C18"/><path d="M320 318h2c2.07 4.493 2.059 7.203.399 11.86l-.837 2.14-.844 2.252C311.564 358.083 311.564 358.083 303 366c-4.361 1.29-7.78.406-12-1-3.504-.195-6.219-.312-9.5 1-3.37 1.348-5.903 1.392-9.5 1-2.5-1.562-2.5-1.562-4-4 .188-3.25.188-3.25 1-7q.303-2.216.563-4.437L270 348c1.5 1.375 1.5 1.375 3 3v2l1.875.938L279 356c8.063.864 13.651-1.913 20.168-6.54 8.954-7.308 13.966-17.186 18.832-27.46a694 694 0 0 1 2-4" fill="#764816"/><path d="M590.688 37.5c4.742.716 7.186 2.964 10.312 6.5 3.892 6.151 3.996 12.888 3 20-1.961 5.81-4.43 10.499-8.875 14.75-3.914 1.566-6.98 2.193-11.125 1.25-5.047-3.143-7.325-6.325-9-12-.22-3.351-.182-6.648 0-10h2l.188-2.125c1.136-4.02 2.733-6.058 5.812-8.875 3.112-.877 4.666-.582 8 0 3.757 3.564 4.901 6.544 5.25 11.688C596.186 64.48 594.18 69.23 591 74c5.69-5.887 8.002-10.757 8.313-19.062-.12-5.28-1.324-8.949-5.125-12.75-2.702-1.467-5.151-1.843-8.188-2.188 2-2 2-2 4.688-2.5" fill="#DEE0E0"/><path d="m214 226-2.375 2.25c-4.359 4.566-5.16 8.004-5.094 14.203.726 5.492 2.501 10.606 4.334 15.82 1.508 4.349 2.764 8.06 2.135 12.727-1.172 2.117-1.172 2.117-2.75 3.875l-1.547 1.805C207 278 207 278 203 278c-1.484-1.68-1.484-1.68-2.75-3.875l-1.297-2.18C198 270 198 270 198 268l-1.625-.812L194 266l-3.187-1.375C188 263 188 263 187.332 261.254c-.394-2.673-.464-5.24-.457-7.942l-.008-2.949C187 248 187 248 188 247c2.579-.322 5.16-.513 7.75-.719 2.217-.043 2.217-.043 3.25-1.281.132-1.727.23-3.457.313-5.187.424-5.193 1.275-7.9 4.687-11.813 3.644-2.43 5.712-2.162 10-2m37-15a135 135 0 0 1 5.313 7.313l1.499 2.2C267 234.258 267 234.258 267 242l-2.266-.176c-6.198-.504-6.198-.504-11.296 2.488L252 247l-2 3-1.102-2.781c-2.647-6.518-5.197-12.34-9.796-17.766C238 228 238 228 238 226h-2c-1.625-1.125-1.625-1.125-3-3-.5-2.937-.5-2.937 0-6 4.146-5.146 11.66-6 18-6m-9 154c3.082.677 5.812 1.707 8.688 3l2.386 1.063C255 370 255 370 256 371c.032 2.816-.068 5.619-.16 8.434-.114 2.733-.114 2.733 2.16 4.566 2.624.353 2.624.353 5.625.438 5.383.35 9.46 1.388 14.375 3.562-6.78 6.915-6.78 6.915-11.981 7.114l-3.777-.016-2.01-.005c-2.118-.005-4.238-.018-6.357-.03q-2.154-.009-4.309-.014-5.283-.017-10.566-.049v-3l-1.5-1.625c-2.37-3.752-2.262-7.15-1.5-11.375 1.748-4.798 3.8-9.395 6-14" fill="#764816"/><path d="m300 153-3 1-.125 3.813-.07 2.144c.062 2.357.062 2.357 2.195 5.043-.375 2.188-.375 2.188-1 4l-2.633-.36c-7.163-.92-7.163-.92-13.93 1.048L279 172l-2.375 2.25L275 176l5 2-1 2h-2l-1 2-3.312-.992c-5.237-1.31-10.32-1.23-15.688-1.133l-2.926.027q-3.537.036-7.074.098l2-5-3-1h2.875c3.765-.531 5.715-2.1 8.563-4.562 8.992-7.58 19.622-12.134 30.812-15.5l2.166-.656c3.478-.969 6.16-1.685 9.584-.282" fill="#784B19"/><path d="M484.375 421.793c2.255.994 4.44 2.067 6.625 3.207l3.25 1.563A124 124 0 0 1 502 431c-1.11 3.328-1.529 3.634-4.352 5.41l-2.082 1.31-2.191 1.342-2.121 1.354c-4.35 2.7-8.265 4.425-13.254 5.584v-3l-2.062-.187c-4.902-1.356-8.803-3.921-11.438-8.313-.594-2.969-.525-4.645.5-7.5 5.165-6.234 11.736-7.758 19.375-5.207" fill="#F9C3A7"/><path d="M249 175c-.475 4.273-2.843 6.274-6 9a104 104 0 0 1-5 2c-2.682 2.233-3.776 4.505-5.125 7.688-1.987 4.23-4.063 6.523-7.75 9.375-3.322 2.58-3.322 2.58-4.48 6.433.265 2.27.665 4.328 1.355 6.504l-2.195-.035c-5.053-.047-9.839-.039-14.805 1.035.595-13.382 11.01-23.574 20.324-32.137C232.2 179.173 239.887 174.56 249 175" fill="#643710"/><path d="M272 262c1 1 1 1 1.098 4.16l-.036 3.902-.027 3.91L273 277l-2.012-.176-2.675-.137-2.637-.175c-4.001.73-5.306 2.217-7.676 5.488-.719 3.108-.79 6.131-.812 9.313l-.077 2.533A359 359 0 0 0 257 300l2.766-1.516c3.946-1.81 6.063-1.447 10.234-.484l2 1c.103 5.126.036 9.95-1 15l-3-1c-3.938-.413-3.938-.413-6.176 1.715a127 127 0 0 0-4.125 4.5L256 321h-2l.214-1.964c.855-8.798.94-17.535.916-26.365q-.005-3.744.007-7.49 0-2.412-.004-4.826l.006-2.228c-.02-4.473-.41-8.712-1.139-13.127 1.323-.686 2.66-1.348 4-2l2.188-1.187c4.023-1.163 7.737-.646 11.812.187" fill="#60340D"/><path d="m266.5 311.688 2.5.312c2 3 2 3 1.758 5.426l-.633 2.887c-1.676 8.897-1.807 17.78-.125 26.687l-3.187.313c-3.77.438-3.77.438-6.438 2.312-2.375 1.375-2.375 1.375-5 1.313-3.045-1.202-3.935-1.983-5.375-4.938-.415-8.934.383-20.268 5.977-27.586 1.936-1.669 3.86-3.06 6.023-4.414 2-2 2-2 4.5-2.312" fill="#764816"/><path d="m258.813 178.75 2.369-.023c4.978.016 9.098.685 13.818 2.273-.641 2.917-1.56 5.444-2.875 8.125l-.992 2.07C270 193 270 193 267 195c-3.066-.094-3.066-.094-6.562-.5-3.403-.444-3.403-.444-6.438-.5-2.858 2.858-2.408 5.147-2.625 9.125l-.227 3.883L251 210c-4.229-1.41-4.86-3.848-6.86-7.664-2.75-5.631-3.83-10.124-3.14-16.336 5.2-6.646 9.865-7.327 17.813-7.25" fill="#9C6D2A"/><path d="m242 184-.176 1.766C241.346 194.46 244.2 201.8 249 209v3l-2.773.586-3.602.789-3.586.773c-3.121.607-3.121.607-5.039 2.852-.648 2.57-.648 2.57-1 5-9.198-3.9-9.198-3.9-12.187-8-.9-3.32-.854-4.758.187-8 1.89-1.887 1.89-1.887 4.25-3.687 4.327-3.614 6.418-7.006 8.7-12.102 1.91-4.02 3.526-6.211 8.05-6.211" fill="#764816"/><path d="M182 263c6.604-.396 10.308.914 15.5 4.938 9.82 12.03 10.29 24.27 9.5 39.062-.951 7.958-3.148 14.176-7.695 20.781-1.427 2.426-1.798 4.474-2.305 7.219-3.154 3.041-6.909 4.331-11.027 5.648-4.284 1.358-4.284 1.358-7.536 4.29-.532 2.508-.496 3.717.563 6.062l2.023 1.266C183 354 183 354 183.47 356.636l.031 3.051c.275 5.804 1.542 9.35 4.5 14.313-7.315-2.417-12.025-8.65-15.437-15.375-2.157-5.003-2.675-8.379-2.625-13.812l.027-3.856L170 338l2.723.477c8.273 1.357 8.273 1.357 15.964-1.352 8.346-6.858 13.952-20.59 15.313-31.125.747-12.305-.055-24.382-7-35-4.086-4.446-9.323-5.545-15-7z" fill="#421F06"/><path d="M504 195c1.906 2.86 2.505 4.614 3.313 7.875 1.325 4.605 2.94 7.018 6.687 10.125l4 4-8 2c.026 3.363.026 3.363 1 7 2.92 2.476 2.92 2.476 6 4l1-2c-1.665 10.622-8.504 19.049-16.855 25.414-3.083 2-4.893 2.604-8.582 2.336L490 255l2.063-2c6.112-6.164 11.022-12.207 14.937-20l-1.312-1.32c-4.514-4.827-4.514-4.827-5.313-8.743.625-2.937.625-2.937 2.75-5.75 2.068-3.515 2.06-3.811 1.125-7.5l-.66-2.3c-.927-3.75-.959-7.548-.59-11.387z" fill="#F6AD8C"/><path d="M214.688 227.188 218 228l3.813.563c5.548 1.363 9.246 5.514 13.187 9.437-2 1-2 1-5.75.813-4.438-.057-6.845 1.269-10.25 4.187-2.368 3.23-2.235 6.076-2 10l.563 3.313L218 259l-1 1a177 177 0 0 1-7-1c-6.507-18.27-6.507-18.27-2.687-27l1.687-2 1.313-1.875C212 227 212 227 214.688 227.188" fill="#9C6D2A"/><path d="M246 244c13.823 20.734 9.46 57.918 6 81l-9 2c1.79-9.224 1.79-9.224 2.755-12.785 2.296-8.636 2.772-16.824 2.746-25.698-.001-2.317.04-4.632.085-6.949.099-12.6-2.84-22.946-7.586-34.568h5z" fill="#784A17"/><path d="M486 88c5.065 2.133 6.526 5.667 9 10.375l1.426 2.711C503.689 115.633 508.268 131.484 513 147l.6 1.964c2.207 7.295 4.065 14.49 5.15 22.036l.379 2.402c.642 4.24 1.009 8.297.871 12.598-3.644-3.644-4.047-8.212-4.71-13.145-1.371-8.357-4.171-16.183-6.915-24.167l-1.618-4.78A2958 2958 0 0 0 502 130l-.691-2.01A2868 2868 0 0 0 494 107h-2l-8-17z" fill="#F6B191"/><path d="M477 59c3.61 2.872 5.878 5.51 7 10 .601 5.788.194 9.963-3 15-2 2-2 2-5.312 2.438C472 86 472 86 469.188 83.875c-3.84-5.045-4.75-9.588-4.188-15.875 2.569-6.36 4.656-10.175 12-9" fill="#19C0CF"/><path d="M224 218c4.846.44 8.481 2.745 12 6v2h2c9.852 11.916 14.311 26.03 17 41l.519 2.21c.602 3.49.681 6.927.72 10.458l.029 2.255q.034 3.633.045 7.264l.008 2.502c.018 21.432-3.206 41.813-9.321 62.373l-.937 3.223c-1.034 2.641-1.899 3.938-4.063 5.715l-1-5-1.645 2.082-2.167 2.73-2.145 2.708c-1.607 1.95-3.213 3.743-5.043 5.48l-2-1 1.688-1.625c21.708-22.295 23.873-54.136 23.5-83.547-.437-19.987-3.806-43.46-18.25-58.578-3.372-3.017-6.898-5.23-10.938-7.25z" fill="#341502"/><path d="M422 316c-11.563 15.875-35.882 27.596-54.93 30.625L364 347c2.082-3.76 4.391-6.662 7.438-9.687l2.308-2.325c4.812-4.245 8.425-4.127 14.692-3.8l2.275.154c4.187.143 5.731.108 9.107-2.627L402 326c6.154-6.513 10.483-10.571 20-10" fill="#7F4F19"/><path d="m177 267-2 2a94 94 0 0 0-.125 7.625l.027 2.14c.024 1.746.06 3.49.098 5.235l2.828.855c4.508 1.627 7.214 4.153 9.297 8.485 2.54 7.722 1.361 17.643-2.23 24.89-2.092 3.534-4.122 6.883-7.895 8.77l-3-1 2.375-.75c3.11-1.48 3.434-2.102 4.625-5.25l1.563-2.875c3.34-7.95 3.377-17.431.421-25.453-1.02-2.01-1.02-2.01-3.984-3.672-2.996.15-4.502.555-6.75 2.563-1.777 3.465-1.927 6.562-2.25 10.437-2-2-2-2-2.125-5.625L168 292l-2.937-.937C162 290 162 290 161 289c.393-5.265 1.753-9.125 4.25-13.75l1.766-3.36c2.79-4.063 5.038-6.539 9.984-4.89" fill="#62360F"/><path d="M550 272h1c.712 40.258-21.792 82.816-46.258 113.555-1.724 2.42-2.77 4.648-3.742 7.445l-3-1c1.638-4.923 4.461-8.83 7.375-13.062C527.091 346.826 544.415 311.972 549 273z" fill="#FEEBD8"/><path d="m305 162 2 3 1.254 1.508c2.64 3.262 3.942 5.314 3.871 9.554.285 6.592 5.44 11.208 9.504 15.997C324 195 324 195 324 197l-3.375 1.75c-2.957 1.673-4.548 2.9-5.625 6.25-4.215-4.079-8.108-8.417-12.012-12.793A111 111 0 0 0 299 188c.059-1.984.059-1.984 1-4 2.285-1.266 2.285-1.266 5.063-2.25l2.785-1.016L310 180c-1.07-2.765-2.162-5.287-3.625-7.875-1.584-3.6-1.608-6.233-1.375-10.125" fill="#764816"/><path d="M311 211h5c10.342 20.755 14.573 41.453 14.188 64.563a2699 2699 0 0 0-.042 4.826q-.05 5.805-.146 11.611c-2.44-1.835-2.965-2.761-3.413-5.834l-.071-3.475-.134-3.912-.062-2.083c-.672-20.444-4.203-40.652-13.156-59.227-1.027-2.177-1.687-4.12-2.164-6.469" fill="#754716"/><path d="M569 204c.745 8.193-1.788 16.695-6.875 23.188-2.28 2.395-3.157 2.821-6.5 3.75L553 231l-.734-1.68-1.016-2.195-.984-2.18c-1.55-2.381-2.575-3.06-5.266-3.945-2.601-.029-2.601-.029-5.25.375l-2.703.336L535 222c-3-5.75-3-5.75-3-8l2.02.656c7.898 2.386 15.723 4.32 23.48.719 2.738-2.602 3.854-5.01 5.5-8.375 4.2-3 4.2-3 6-3" fill="#841304"/><path d="m326 323 6 3a3665 3665 0 0 1-2.312 10.875l-.647 3.07c-1.044 4.861-2.17 9.624-3.666 14.368-1.23 3.959-1.841 7.654-2.062 11.812l-.2 3.383L323 372h-1v-10l-4-2c-1.25-2.625-1.25-2.625-2-5h-3c1.53-5.031 3.644-9.601 5.938-14.312 2.785-5.807 5.259-11.49 7.062-17.688" fill="#4D2609"/><path d="M566 146h1l-.003 1.864c.012 2.797.07 5.59.128 8.386l-.008 2.934c.075 2.728.215 5.168.883 7.816 2.734 2.586 2.734 2.586 6 4 7.94 7.076 13.311 19.642 14.18 30.18.006 1.608-.075 3.216-.18 4.82l2.75-.312c3.25.312 3.25.312 5.625 2.25 2.204 4.154 2.424 7.45 1.625 12.062-1.636 4.078-4.266 7.583-7 11-2.622-1.049-3.794-1.65-5.25-4.125L585 225h2l2 2c3.789-4.522 5.139-7.298 5.063-13.187l-.028-2.731L594 209c-4.343-.167-7.21-.13-11 2l-.113-3.367c-.69-17.032-.69-17.032-8.887-31.633-2.988-1.177-3.85-1.05-7 0-1.41-2.818-1.112-5.173-1.098-8.32l.01-3.809.025-3.996q.009-2.01.014-4.02.018-4.928.049-9.855" fill="#F5AB8A"/><path d="M200 284c3.674 3.674 3.11 8.79 3.25 13.75-.03 5.836-1.226 10.804-3.25 16.25-3.908-1.592-6.427-3.653-9-7-.814-3.37-.926-6.668-1-10.125l-.152-2.746c-.244-6.59-.244-6.59 1.445-8.89 2.796-2.03 5.38-1.541 8.707-1.239" fill="#9C6D2A"/><path d="M478.719 50.594c3.715.661 6.019 2.53 8.281 5.406 4.149 6.715 5.847 13.125 5 21-1.286 5.436-2.712 9.742-6.75 13.688C481.278 92.29 478.212 92.96 474 92c-4.973-3.156-7.606-6.638-10-12 .25-2.937.25-2.937 1-5l.813 1.688L467 79l1.188 2.625c2.506 3.284 4.837 3.594 8.812 4.375 3.07.323 3.07.323 5.063-1.75 4.55-5.285 4.353-10.006 4.261-16.82-.505-5.345-2.354-7.933-5.637-12.094-2.34-1.853-3.933-1.638-6.875-1.523l-2.73.082L469 54c2.973-3.548 5.267-3.58 9.719-3.406" fill="#DFE1E1"/><path d="M206 332c3.972.908 5.582 2.485 7.688 5.813 1.734 2.982 3.031 5.985 4.312 9.187 1.52 1.773 1.52 1.773 3 3-6.356 2.88-13.506 3.22-20.125.813C198 349 198 349 197.078 346.746c-.11-3.885 1.435-5.472 3.797-8.496l2.242-2.922C205 333 205 333 206 332" fill="#804F19"/><path d="M202 321c1.088 3.314 1.073 3.836-.437 7.25L200 331h5c-.617 4.013-2.498 6.855-5 10-4 0-4 0-7-1-5.759 6.798-5.759 6.798-9 15l1.938.938C188 357 188 357 189 358c.25 2.375.25 2.375 0 5-1.375 1.625-1.375 1.625-3 3l-2 3c-1.053-3.16-1.135-5.622-1.25-8.937-.295-4.942-.295-4.942-3.312-8.813L177 350c.547-3.375 1.055-5.082 3-8 1.77-.879 1.77-.879 3.813-1.562.712-.25 1.425-.498 2.16-.754L188 339c3.455-1.256 6.329-2.424 9-5 .379-1.657.703-3.327 1-5 1.221-2.726 2.594-5.365 4-8" fill="#4D2709"/><path d="M176.813 305.063c2.994 1.283 5.53 3.065 8.187 4.937-.974 6.622-3.66 11.874-9 16-3.812.313-3.812.313-7 0-2.126-3.454-2.541-5.978-2-10 5.47-11.087 5.47-11.087 9.813-10.937" fill="#754816"/><path d="M322 150c21.308-.914 44.172 1.702 64 10l-1 3c-5.967-.73-11.717-2.052-17.562-3.437C351.725 155.955 337.09 154.7 321 155z" fill="#7B4E1C"/><path d="m551.563 162.813 3.378-.043c2.944.221 4.58.696 7.059 2.23-.531 1.965-.531 1.965-2 4-2.611.393-4.884.552-7.5.563-11.863.407-20.638 3.862-30.5 10.437h-3c-.625-2.625-.625-2.625 0-6 8.652-7.495 21.316-11.122 32.563-11.187" fill="#F9C7AD"/><path d="M190 321c2.104 1.543 2.84 2.681 4 5 .412 3.711.32 5.49-1.687 8.688-2.325 2.324-4.362 3.874-7.313 5.312h-3c-2.125-2.937-2.125-2.937-4-6l-1-1c.161-4.192.646-6.511 3.125-9.937 3.607-2.588 5.524-2.708 9.875-2.063" fill="#754816"/><path d="M251 211c3.136 3.127 4.978 5.847 5.063 10.313C255 224 255 224 253.313 225.563c-3.41.644-5.288-.99-8.313-2.563-3.127-.501-3.127-.501-6 0-1.879 1.375-1.879 1.375-3 3-2.483-1.862-2.97-2.819-3.5-5.937.5-3.063.5-3.063 2.313-5.313C239.72 212.055 245.39 211 251 211" fill="#61340D"/><path d="M451 231c7.75.875 7.75.875 10 2 .954 11.622-1.874 21.901-5 33l-4-1 .016-2.475q.029-5.575.046-11.15l.026-3.895.01-3.77.016-3.459c-.111-3.17-.518-6.139-1.114-9.251" fill="#9E6F2B"/><path d="m585 55 3 6 7-1c.457 5.71-.379 8.551-4 13-3.526 2.35-4.85 2.664-9 2-3.83-3.413-4.897-4.719-5.312-9.875L577 62h2l1-2 2 1 .938-2.437C584 56 584 56 585 55" fill="#039CB0"/><path d="M207.273 257.719 210 258c3.91 8.146 3.91 8.146 3 13-1.681 2.688-3.487 5.052-6 7h-4c-1.484-1.68-1.484-1.68-2.75-3.875l-1.297-2.18C198 270 198 270 198 268l-2-1c1.186-1.517 2.4-3.014 3.625-4.5l2.04-2.531C204 258 204 258 207.272 257.719" fill="#60340D"/><path d="M320 318h2c1.77 3.747 2.227 6.165.988 10.059q-.81 2.2-1.675 4.378l-.819 2.198c-1.699 4.513-3.567 8.945-5.494 13.365-1.457.081-2.916.14-4.375.188l-2.46.105L306 348l-2-3 1.54-1.984c5.039-6.682 8.927-13.443 12.46-21.016a556 556 0 0 1 2-4" fill="#61340D"/><path d="M182 263c6.604-.396 10.308.914 15.5 4.938 9.82 12.03 10.29 24.27 9.5 39.062-.951 7.958-3.148 14.176-7.695 20.781-1.427 2.426-1.798 4.474-2.305 7.219-2.664 2.569-5.557 3.74-9 5l-2.562 1.188c-2.73.91-3.757.611-6.438-.188l1.793-.7c9.264-3.823 14.197-9.771 18.34-18.757 6.202-14.953 6.971-29.652.953-44.852-1.956-4.333-3.892-7.23-8.086-9.691-3.294-1.169-6.615-2.132-10-3z" fill="#371602"/><path d="M343 222c1.387 2.285 1.387 2.285 2.688 5.063l1.324 2.785L348 232l-2.047.043c-5.709.202-5.709.202-10.39 3.144C333.95 238.09 332.4 240.99 331 244h-2l-3-12h2l.625-2.187c2.052-4.198 5.21-6.947 9.563-8.688C340 221 340 221 343 222" fill="#61340D"/><path d="M589.098 46.54c1.902.46 1.902.46 4.34 2.773 2.786 4.793 2.65 8.298 2.562 13.687l-2-2c-3.1.322-3.1.322-6 1l-3-6-1.187 2.438C582 61 582 61 579.313 61.812L577 62l-1 4c-.42-6.718.899-11.887 4.688-17.5 2.916-1.892 4.974-2.127 8.41-1.96" fill="#20BDCB"/><path d="m521 228 1 4c2.715 1.69 5.048 2.856 8 4l2.355.918c13.611 4.282 31.235 4.454 44.254-1.629L579 234l2.281-1.031c1.937-.843 1.937-.843 2.469-3.094L584 228c1.5 1.313 1.5 1.313 3 3v3c-23.214 12.264-43.37 10.194-68 3z" fill="#F4A886"/><path d="M251 291h3c.282 11.495-.522 22.6-2 34l-9 2c1.07-5.516 2.23-10.978 3.563-16.437 1.221-5.157 1.873-10.13 2.128-15.418C249 293 249 293 251 291" fill="#60330D"/><path d="m530 207 2.781.656c11.012 2.499 19.167 2.62 30.219.344-1.8 5.034-4.17 7.585-9 10-7.651.823-15.34.112-22-4-1.55-2.497-1.712-4.007-2-7" fill="#F6EFEF"/><path d="M421 184c5.025-.774 9.236-1.09 13.676 1.652 5.744 5.084 11.02 10.989 15.324 17.348v2l-3.125-1c-2.723-.822-4.018-.982-6.937-.625C437 203 437 203 435.504 201.473c-1.565-2.119-3.03-4.291-4.504-6.473-3.121-3.874-6.412-7.55-10-11" fill="#A0722F"/><path d="M262.23 230.152c1.77.848 1.77.848 3.77 4.16 1 3.688 1 3.688 1 7.688l-2.266-.176c-6.198-.504-6.198-.504-11.296 2.488L252 247l-2 3-4-10h2l.625-2.187c2.915-5.963 7.05-8.952 13.605-7.66M357 260c1.765 3.088 2 4.233 2 8l-2.816.078c-9.806.39-9.806.39-18.184 4.922-2.391 2.589-2.391 2.589-4 5-1.867-9.692-1.867-9.692.2-12.809 5.82-4.749 10.387-4.247 17.613-4.128 3.084.167 3.084.167 5.187-1.063" fill="#61340D"/><path d="M438 202c10.494 1.07 10.494 1.07 14 4 2.782 4.135 5.125 8.369 7 13l-1 2-2-1c-4.653-.305-4.653-.305-9 1a5059 5059 0 0 1-3.937-7.812l-1.131-2.237-1.084-2.158-1-1.984C439 205 439 205 438 202" fill="#84541D"/><path d="m590 231 1.363 1.031q6.167 4.646 12.387 9.219l2.734 2.016c4.055 2.795 6.544 4.01 11.516 3.734.75 1.75.75 1.75 1 4-1.625 2.313-1.625 2.313-4 4-10.657-.846-19.918-13.699-27-21z" fill="#F9C5A9"/><path d="m508 233 7 2c-2.434 8.8-9.272 15.797-17.137 20.305-2.848 1.063-5.032.615-7.863-.305l2.063-2c6.125-6.16 11.294-12.653 15.937-20" fill="#CC7958"/><path d="M251 324c-.552 7.172-1.758 16.758-7 22l-3-4-3.312.5C234 343 234 343 231 343l1.39-1.723c4.219-5.291 4.219-5.291 7.548-11.152C242.484 326.266 246.079 324 251 324" fill="#764816"/><path d="M472 68h2c2.32 3.25 3.437 6.059 4 10l3 1 1-3h1c-.594 6.302-.594 6.302-2.125 8.938-3.11 1.761-5.383 1.544-8.875 1.062-2.63-2.173-4.473-3.947-6-7-.04-2.333-.043-4.667 0-7l5 2z" fill="#009BAF"/><path d="M582 79h2c-.61 3.728-1.708 7.166-2.968 10.721-3.963 11.226-6.634 22.63-9.032 34.279l-.489 2.372c-1.59 7.834-2.954 15.644-3.511 23.628-6.024-9.821.858-27.854 3.3-38.257.915-3.586 2.007-7.104 3.154-10.621.707-2.303.707-2.303.359-5.497.284-5.506 3.195-12.633 7.187-16.625" fill="#F7B899"/><path d="M446 245h1v17l5 2c-.115 5.745-1.777 10.287-4.25 15.438l-.871 1.9c-1.533 3.056-2.301 4.47-5.613 5.572L439 287c-1.28-3.838-.447-4.702 1.313-8.25 3.903-7.92 5.026-14.969 5.312-23.687l.117-2.94q.141-3.56.258-7.123" fill="#C7953D"/><path d="M324 196c3.925 3.7 7.022 7.49 10 12v2h-14l-1 3c-2.011-2.56-3.628-5.046-5-8 2.732-4.728 4.931-6.926 10-9" fill="#61340D"/><path d="M432 296c-.275 4.678-2.332 6.746-5.527 9.863C425 307 425 307 423 307v2c-2.65-.957-4.7-1.73-6.812-3.625-3.286-2.065-6.405-1.848-10.188-1.375-2.406.863-2.406.863-4 2 .313-3.375.313-3.375 1-7 3-2 3-2 5.875-1.812 3.125.812 3.125.812 5.563 2.437 3.607 1.936 5.662 1.42 9.562.375 5.333-4 5.333-4 8-4" fill="#82511A"/><path d="M574 95h2c-.6 5.217-1.758 10.157-3.07 15.239-3.55 13.827-5.582 27.56-6.93 41.761h-2v11h-1c-3.338-22.037 4.044-47.132 11-68" fill="#FCDBC6"/><path d="M160 289c5.75 1.875 5.75 1.875 8 3 .633 2.504.633 2.504 1.125 5.563l.508 3.066L170 303l-2.25 1.25c-2.667 1.697-4.6 3.452-6.75 5.75l-2 2a2713 2713 0 0 1-.062-10.375l-.026-2.984-.01-2.852-.016-2.634C159 291 159 291 160 289" fill="#784B1A"/><path d="M547.688 221.125c2.847 2.309 3.948 4.5 5.312 7.875v2l2 1c-5.743 1.23-9.086 1.178-14.23-1.754-2.522-1.776-4.205-3.593-5.77-6.246l1-3c4.27-1.423 7.49-1.632 11.688.125" fill="#DC7267"/><path d="M188 268c3.496 1.277 6.327 2.791 8.191 6.14L197 276l-2.266.148-2.984.227c-.975.07-1.95.14-2.953.21-2.693.4-4.467 1.05-6.797 2.415l-7-5c1.773-7.093 6.673-6.86 13-6" fill="#9B6C29"/><path d="M183 235c2.014 4.028 1.888 8.659 1 13-1.893 1.96-3.831 3.185-6.148 4.605-2.237 1.398-2.237 1.398-2.915 4.958.055 2.987.279 5.561 1.063 8.437-4.75 3-4.75 3-7 3 .663-11.266 5.9-25.9 14-34" fill="#7C5020"/><path d="M524 198a56.5 56.5 0 0 1 7 4v2c12.693 2.604 25.083 4.04 37-2 .699-.56 1.397-1.121 2.117-1.7.622-.428 1.243-.858 1.883-1.3l3 1c-11.355 8.339-20.953 12.563-35.312 10.563-6.3-1.487-11.21-6.076-15.688-10.563z" fill="#EFAE90"/><path d="M326 268h1l.06 1.88c.095 2.811.205 5.622.315 8.433.03.976.062 1.952.094 2.958l.117 2.842.095 2.619c.19 2.545.19 2.545 2.319 5.268 0 2.125 0 2.125-.355 4.57l-.39 2.72-.442 2.835-.385 2.766c-.887 5.957-2.321 11.468-4.428 17.109l-.875-1.937c-.953-2.215-.953-2.215-3.125-3.063l1.375-3.75c3.446-10.442 3.976-21.08 4.25-32l.117-3.883q.14-4.683.258-9.367" fill="#754816"/><path d="M329 307c1.57 3.996.425 7.52-.625 11.5l-.566 2.17C323.192 337.76 313.177 362.656 298 373c1.405-3.182 3.297-5.84 5.376-8.616 11.722-15.721 18.977-34.12 23.019-53.267C327 309 327 309 329 307" fill="#280E01"/><path d="M212.625 290.25C215 291 215 291 216 292c.321 5.993-.498 11.207-2 17l-3-2h-4c-.081-2.27-.14-4.541-.187-6.812l-.106-3.833c.293-3.355.293-3.355 1.64-5.32C210 290 210 290 212.626 290.25" fill="#61340D"/><path d="M291 189c6.298.617 9.997 1.85 14.352 6.523l2.273 2.852c.755.936 1.51 1.872 2.29 2.836C315 208.01 315 208.01 315 211l-5 1-1.215-2.09C304.59 202.975 299.92 197.507 294 192a395 395 0 0 1-3-3" fill="#754816"/><path d="M178.375 287.063c3.882 1.386 4.83 3.282 6.625 6.937.313 2.765.193 5.203 0 8l-1.355-1.129c-3.765-3.066-3.765-3.066-8.395-3.871-2.328 1.035-3.636 2.047-5.25 4-.49-7.232-.49-7.232 1.875-10.937 2.38-2.31 3.192-3.088 6.5-3" fill="#744616"/><path d="M493 105c2.181 2.181 2.66 3.468 3.632 6.351l.931 2.734.992 2.97 1.039 3.066q1.647 4.875 3.281 9.754 1.09 3.23 2.184 6.46c1.666 4.932 3.332 9.863 4.976 14.801a473 473 0 0 0 2.093 6.066l1.11 3.197c.338.953.674 1.906 1.021 2.888.74 2.707.884 4.923.741 7.713-2.31-2.31-2.722-3.83-3.625-6.937-.26-.876-.52-1.751-.79-2.653C510 159 510 159 510 156h-2l-.93-2.99a8905 8905 0 0 0-3.495-11.195q-.75-2.402-1.498-4.805-1.088-3.495-2.182-6.987c-.24-.762-.478-1.525-.724-2.31-1.934-6.11-4.097-12.114-6.38-18.101C492 107 492 107 493 105" fill="#FCDEC9"/><path d="M386 160q2.377.682 4.75 1.375l2.672.773c2.339.773 4.412 1.688 6.578 2.852l-4 2 2.633.988 3.492 1.325 3.445 1.3c3.241 1.31 6.328 2.78 9.43 4.387l-4 3-2.64-1.39c-7.611-3.943-15.108-7.177-23.36-9.61 0-2.621.313-4.51 1-7" fill="#81531F"/><path d="M177.5 285.313c4.382.86 5.783 2.193 8.5 5.687 3.39 7.1 2.659 15.369.762 22.863-1.806 5.065-4.796 10.654-9.762 13.137l-3-1 2.375-.75c3.11-1.48 3.434-2.102 4.625-5.25l1.563-2.875c3.34-7.95 3.377-17.431.421-25.453-1.02-2.01-1.02-2.01-3.984-3.672-2.996.15-4.502.555-6.75 2.563-1.777 3.465-1.927 6.562-2.25 10.437h-1c-.464-4.643-.802-8.66 2.063-12.562C174 286 174 286 177.5 285.313" fill="#3A1803"/><path d="M366 154c6.79 1.62 13.562 3.26 20 6l-1 3c-6.193-.77-12.227-2.067-18.312-3.437l-3.034-.659-2.892-.65-2.627-.584C356 157 356 157 354 155c4.162-2.775 7.31-1.898 12-1" fill="#693D14"/><path d="M224 218c4.846.44 8.481 2.745 12 6v2h2c10.325 12.487 18.105 31.075 16.688 47.375A135 135 0 0 1 254 278h-1l-.297-2.973c-1.902-17.734-5.787-38.056-19.738-50.543-2.866-2.165-5.752-3.877-8.965-5.484z" fill="#381702"/><path d="M279 177c7.176 1.105 14.51 4.732 19.188 10.375L300 190c-3.218 1.609-5.798.137-9.113-.898-4.896-1.869-9.377-4.453-13.887-7.102 0-2 0-2 2-4z" fill="#572D0B"/><path d="m538 241 2.141.494c2.935.52 5.619.62 8.597.604l3.233-.01 3.341-.025 3.4-.014A2576 2576 0 0 0 567 242l-1 3c-5.766 1.941-11.082 2.284-17.125 2.188l-2.34-.002c-4.282-.033-8.32-.344-12.535-1.186z" fill="#EF855C"/><path d="m166 325 12 1-.25 3.188c.288 4.392 1.353 5.643 4.25 8.812v2q-2.437.079-4.875.125l-2.742.07C172 340 172 340 170 338c.543-6.087.543-6.087 2-9l-6-3z" fill="#5E320C"/><path d="M439 295c-.459 4.835-2.525 7.22-5.75 10.75l-2.61 2.922c-2.71 2.39-4.096 3.048-7.64 3.328l-1-3 2.25-2.187c3.06-3.13 5.907-6.127 7.875-10.063 1.708-3.415 3.666-2.713 6.875-1.75" fill="#CC9B40"/><path d="M311 211h5c7.04 14.524 7.04 14.524 8 21l-2 3h-2l-.953-2.562c-2.877-7.664-2.877-7.664-6.36-15.063C311 214 311 214 311 211" fill="#60340D"/><path d="M560 167v2l-3.148.113c-11.117.486-20.118 1.943-29.844 7.703-1.964 1.158-3.959 2.187-6.008 3.184 1.908-5.725 8.31-8.468 13.36-11.344 7.577-3.56 17.65-4.32 25.64-1.656" fill="#FEEAD7"/><path d="m526 201 8 6-2 1-2-1q1.358 4.1 2.75 8.188l.766 2.33c1.815 5.286 3.69 9.852 8.734 12.795L544 231v3l11 1v1c-5.99.552-11.105.598-16.121-3.02-8.048-8.483-10.563-20.904-12.879-31.98" fill="#EE9B77"/><path d="M518 237c6.785.652 13.522 1.834 20 4l1 2c-4.093 2.729-7.194 2.506-12 2-3.402-.818-6.699-1.842-10-3z" fill="#C65C39"/><path d="M510 144c8.252 6.751 8.93 25.874 10 36 .044 2 .064 4.001 0 6-4.272-4.272-4.465-10.56-5.36-16.29-.943-5.467-2.13-10.88-3.32-16.299l-.515-2.384-.47-2.133C510 147 510 147 510 144" fill="#F6B291"/><path d="M495 107c2.182 2.715 3.64 5.202 4.867 8.457l.988 2.6 1.02 2.755c.35.937.702 1.873 1.063 2.837C513.567 152.217 513.567 152.217 513 161c-1.457-2.78-2.594-5.53-3.588-8.506l-.9-2.68c-.315-.948-.63-1.896-.953-2.873l-.994-2.973q-1.036-3.11-2.07-6.221-1.58-4.755-3.173-9.507l-2.013-6.049-.96-2.866-.89-2.69-.783-2.352c-.714-2.41-1.22-4.813-1.676-7.283" fill="#F9C2A5"/><path d="M569 204c.402 6.166-1.032 11.177-3 17-3.46-1.25-6.147-2.675-9-5l3.809-4.395c1.4-1.712 1.4-1.712 2.191-4.605 4.444-3 4.444-3 6-3" fill="#691007"/><path d="M443 210c10.335 1.216 10.335 1.216 13.75 4.875 1.22 2.075 1.829 3.767 2.25 6.125l-3-1c-4.655-.305-4.655-.305-9 1a875 875 0 0 1-2-4.375l-1.125-2.46C443 212 443 212 443 210" fill="#9E702C"/><path d="M202 321c.688 1.625.688 1.625 1 4-1.437 3.25-1.437 3.25-3 6h5c-.617 4.013-2.498 6.855-5 10-4 0-4 0-6-1 .632-2.948 1.623-5.328 3-8l.938-2.375c1.199-2.963 2.607-5.78 4.062-8.625" fill="#5D320C"/><path d="M573 196c0 3 0 3-1.812 4.938-10.63 6.878-21.826 7.45-34.063 5.062a172 172 0 0 1-4.125-1l-1-3q2.188.212 4.375.438l2.46.246C541 203 541 203 543 204c9.99.894 18.142.138 27-5 1.774-1.558 1.774-1.558 3-3" fill="#FEEAD8"/><path d="M271 162c1.75 2.188 1.75 2.188 3 5-.312 2.813-.312 2.813-1 5-3.43 1.188-5.378.802-8.75-.437l-2.422-.872L260 170c2.524-4.914 5.223-8 11-8" fill="#653911"/><path d="m530 207 2.781.656c11.012 2.499 19.167 2.62 30.219.344-.562 1.938-.562 1.938-2 4-6.12 1.516-12.504 1.037-18.768.873-2.077-.03-4.156.041-6.232.127l-2 2c-2.933-2.423-3.38-4.317-4-8" fill="#DEDCDB"/><path d="M246 244c2.26 3.389 3.17 6.68 4.188 10.563l.576 2.076c1.36 5.114 1.36 5.114.236 7.361-6.395-3.908-7.755-10.266-10-17h5z" fill="#60340D"/><path d="M331 269h2c.263 29.585.263 29.585-3 37h-1c-.151-8.282.314-16.437 1-24.687l.29-3.608q.349-4.353.71-8.705" fill="#250C01"/><path d="m326 264 4 1v27c-3.461-3.461-3.393-4.097-3.512-8.762l-.107-3.388-.068-3.538-.104-3.572q-.124-4.37-.209-8.74" fill="#61340D"/><path d="M438.375 202.563c1.617 2.425 2.705 4.676 3.625 7.437l-3.437.375L435 211l-1 2-6-10c7.327-2.442 7.327-2.442 10.375-.437" fill="#CD9A3F"/><path d="m448 221 3 10-7 2c-2.034-3.73-3-5.67-3-10 3-2 3-2 7-2" fill="#CC993F"/><path d="M175 274c2.865 1.445 5.548 2.919 8 5 .5 3.313.5 3.313 0 6-3.766 1.255-5.372.37-9-1q-.04-2.22-.062-4.437l-.036-2.497C174 275 174 275 175 274" fill="#764816"/><path d="m590 231 1.363 1.031c4.987 3.758 10.034 7.42 15.121 11.04 2.384 1.828 4.448 3.755 6.516 5.929l-2 1c-2.46-1.293-2.46-1.293-5.375-3.187l-2.898-1.856c-2.525-1.812-4.548-3.758-6.727-5.957l-2-.437c-3.064-.862-4.199-3.055-6-5.563z" fill="#FAD1B9"/><path d="M594 60h1c.457 5.71-.379 8.551-4 13-3.526 2.35-4.85 2.664-9 2-3.83-3.413-4.897-4.719-5.312-9.875L577 62h2l2 8c3.25 1.025 3.25 1.025 7 1 3.612-3.298 5.566-6.085 6-11" fill="#0693AC"/><path d="m455 267 5 1c-.48 4.714-.968 8.666-3 13-1.937-.687-1.937-.687-4-2-1.104-2.577-1.26-4.208-.383-6.883.736-1.731 1.555-3.427 2.383-5.117" fill="#63360E"/><path d="M411.938 177.938c2.85 1.468 5.444 3.217 8.062 5.062-2.56 2.011-5.046 3.628-8 5l-7-5c4.372-4.98 4.372-4.98 6.938-5.062" fill="#CC993F"/><path d="M466 72c2 1 2 1 2.781 2.777l.719 2.16c.924 2.768 1.391 3.954 3.5 6.063 2.473.14 2.473.14 5-1 2.263-2.978 2.263-2.978 4-6h1c-.594 6.302-.594 6.302-2.125 8.938-3.11 1.761-5.383 1.544-8.875 1.062-2.63-2.173-4.473-3.947-6-7-.04-2.333-.043-4.667 0-7" fill="#0894AC"/><path d="M588 51q2.514.428 5 1c1.25 6.625 1.25 6.625-1 10l-5-1q-.04-2.22-.062-4.437l-.036-2.497C587 52 587 52 588 51" fill="#F2FBFC"/><path d="M448 276c-.531 4.515-2.366 7.347-5 11l-5-1c1.888-6.537 1.888-6.537 5-9 2-1 2-1 5-1" fill="#D5A84B"/><path d="M476 62c3.875 1.875 3.875 1.875 5 3q.062 3.5 0 7c-2.375.625-2.375.625-5 1-2-2-2-2-2.25-5.5C474 64 474 64 476 62" fill="#F2FAFB"/><path d="m585 55 2 4 1.188 1.875c1.126 2.946.499 5.104-.188 8.125-1.875-.312-1.875-.312-4-1-2.326-3.489-2.419-4.897-2-9 1.5-2.375 1.5-2.375 3-4" fill="#05637C"/><path d="M191 307c3.74 1.682 5.561 3.69 8 7-.75 1.938-.75 1.938-2 4-2.125.75-2.125.75-4 1-2.136-3.204-2.231-4.02-2.125-7.687l.055-2.45z" fill="#7F4E18"/><path d="m183 353 1 2a90 90 0 0 0 4 2c1 1 1 1 1.25 3.375-.297 3.115-.928 3.66-3.25 5.625l-2 3c-1.14-3.422-1.098-6.087-1.062-9.687l.027-3.575z" fill="#61340D"/><path d="m246 342 3 1c-5.2 10.372-10.588 19.821-19 28l-2-1 1.688-1.625C236.799 361.071 240.79 353.19 245 344z" fill="#2E1102"/><path d="M472 68h2c2.616 3.558 3.494 6.645 4 11l-4 1c-2.286-2.477-2.976-3.705-3.25-7.125C471 70 471 70 472 68" fill="#015D76"/><path d="m164 326 9 2-.96 2.012c-1.252 3.597-1.492 7.032-1.665 10.8l-.117 2.1A693 693 0 0 0 170 348h-1l-.078-2.781c-.345-7.456-.97-12.845-4.922-19.219" fill="#7B5123"/><path d="m305 162 2 3 1.29 1.543c3.758 4.627 4.229 7.543 3.71 13.457-4.984-5.844-7.47-10.181-7-18" fill="#7F4E19"/><path d="M396 165c5.656-.566 9.226 1.286 14 4-3 2-3 2-4.902 1.828l-2.036-.578-2.12-.602c-2.1-.7-4.028-1.532-5.942-2.648z" fill="#6A3E15"/><path d="M517 231c1 3 1 3 .031 5.453-2.976 5.437-5.895 9.947-10.515 14.11-1.759 1.56-1.759 1.56-3.516 4.437h-3c1.13-3.393 1.943-3.935 4.688-6.062 5.815-4.908 8.998-11.202 12.312-17.938" fill="#F9D1B8"/><path d="M199 342c2.5 1.188 2.5 1.188 5 3 .313 2.688.313 2.688 0 5l-3 1c-2.062-1.75-2.062-1.75-4-4 .19-2.218.415-3.415 2-5" fill="#9A6B29"/><path d="m482 70 2 1v7l-2-1-1 2-4-1c-.312-2.312-.312-2.312 0-5 2.375-1.875 2.375-1.875 5-3" fill="#3BA7B8"/><path d="M586.188 51.313 588 52l-1 7-2-3-3 5-3-1c2.695-9.33 2.695-9.33 7.188-8.687" fill="#6ED2D8"/><path d="M483 420c6 .15 10.459 3.349 15 7l2 3-2 1-2-3c-2.534-1.381-2.534-1.381-5.437-2.562-3.107-1.328-5.742-2.557-8.563-4.438z" fill="#F7B495"/><path d="m392 169 7 2-2 4h-2l-1 2-3-1z" fill="#CE9C40"/><path d="m472 63 3 1-1 4h-2l-1 6-3-1c-.25-2.75-.25-2.75 0-6 2-2.375 2-2.375 4-4" fill="#63CFD5"/><path d="M399 171c6.259-.533 10.451 1.182 16 4l-4 3-12-6z" fill="#A0712C"/><path d="M213.125 410.875 216 411l-1 5-5 1-2-4c2-2 2-2 5.125-2.125" fill="#B55233"/><path d="M479.188 292.313 481 293l-1 5-5 1c-.687-1.812-.687-1.812-1-4 1.603-2.446 2.233-3.11 5.188-2.687" fill="#C36645"/><path d="m526 201 8 6-2 1-2-1 1.063 2.313C532 212 532 212 531 215c-3.17-4.467-3.973-8.706-5-14" fill="#E29576"/><path d="M439 225h2c1.858 3.135 2.201 5.375 2 9l-5-1q-.062-3.5 0-7z" fill="#85541B"/><path d="M563 142c2 2 2 2 2.135 3.971l-.158 2.38-.157 2.579-.195 2.695-.172 2.719A806 806 0 0 1 564 163h-1c-.711-7.18-1.258-13.87 0-21" fill="#FCE3D1"/><path d="m592 24 2 4-3.812-.25c-2.181-.067-2.181-.067-4.188.25-1.913 1.88-1.913 1.88-3 4h-2c1.953-6.023 4.52-8.54 11-8" fill="#5E5E5E"/><path d="m438 299 7 2c-.812 2.438-.812 2.438-2 5l-3 1c-1.562-2.312-1.562-2.312-3-5z" fill="#65370F"/><path d="M486 94c4 1 4 1 5.336 2.707l1.039 2.106 1.086 2.082C494 103 494 103 492 107z" fill="#F9C5A9"/><path d="M472.188 43.313 475 44l1 4-3.187-.812c-3.959-.626-3.959-.626-6.75 2.25L464 52c2.666-9.229 2.666-9.229 8.188-8.687" fill="#555454"/><path d="M443 355c2.125.375 2.125.375 4 1l-1 5-4 1c-.625-2.375-.625-2.375-1-5z" fill="#C16443"/><path d="m565 133 2 2c-.017 2.92-.14 5.723-.375 8.625l-.172 2.43A769 769 0 0 1 566 152h-1c-2.14-14.718-2.14-14.718 0-19" fill="#FAD1B9"/><path d="M582 79h2c-.665 4.389-2.188 7.981-4 12-1.125-1.625-1.125-1.625-2-4 .83-3.461 1.47-5.47 4-8" fill="#F6B292"/><path d="M202 318c1 3 1 3 .11 5.191l-1.36 2.372-1.328 2.378C198 330 198 330 195 332c1.46-5.31 3.983-9.463 7-14" fill="#280E01"/><path d="m508 233 7 2-1 4-6-1c-.562-1.937-.562-1.937-1-4z" fill="#C8603D"/><path d="m557 232-2 3c-2.094.328-2.094.328-4.5.25l-2.406-.047C546 235 546 235 544 234v-2l3.25.063c9.556-.16 9.556-.16 9.75-.063" fill="#F5A986"/><path d="M517 171c2.27 3.404 2.365 5.165 2.625 9.188l.227 3.292L520 186c-2.566-2.566-3.136-4.48-4-8 .375-3.875.375-3.875 1-7" fill="#EE9D7A"/><path d="M198 274h2c3.429 7.286 3.429 7.286 3 12h-2a345 345 0 0 1-1.5-3.75l-.844-2.11C198 278 198 278 198 274" fill="#60340D"/><path d="M224 218c4.846.44 8.481 2.745 12 6v2h2l-1 3-1.828-1.645-2.422-2.167-2.39-2.145A95 95 0 0 0 224 218" fill="#492407"/><path d="M386 393h3v5l-5 1c.875-4.875.875-4.875 2-6" fill="#C36746"/><path d="m385 164 9 2-1 3-9-3z" fill="#A0712C"/><path d="m484 79 2 1c-4.162 6.837-4.162 6.837-8 8-2.75.125-2.75.125-5 0l1.688-.687c2.954-1.677 4.98-3.859 7.312-6.313z" fill="#F7F9F9"/><path d="M575 200c-6.897 5.882-6.897 5.882-11.5 6.375L561 206l3-2 1.938-1.324 2.062-1.363 2.063-1.387C572 199 572 199 575 200" fill="#F3AF90"/><path d="m372 165 13 1c-3.489 2.326-4.897 2.419-9 2z" fill="#CD9B40"/><path d="M577 87h2l1 5h-2l-2 4c-1.033-2.788-1.045-3.868-.062-6.75z" fill="#F9C3A8"/><path d="M585 55c1.206 2.332 2.165 4.496 3 7l-6-1c1.875-4.875 1.875-4.875 3-6" fill="#0F8497"/><path d="M286 430h5l-1 4h-5zm47-13h5l-1 4h-5z" fill="#B34E30"/><path d="M472 68h2l3 6h-6z" fill="#077D91"/><path d="M182 414h3l-1 5h-4c.875-3.875.875-3.875 2-5" fill="#BF6040"/><path d="M603 244c7.63 1.477 7.63 1.477 9.5 4.125L613 250c-3.59-1.333-6.796-2.894-10-5z" fill="#FCDAC5"/><path d="M554 164h8l-2 4-7-2z" fill="#F9C8AD"/><path d="M167 418h3l-1 5-4-1z" fill="#B45032"/><path d="M501 386h2l-2 7-3-1c1.875-4.875 1.875-4.875 3-6" fill="#FDE3CF"/><path d="m464 340 4 1-2 4-3-1z" fill="#B55233"/><path d="M431 305v3c-4.229 4-4.229 4-8 4v-2l2.875-1.375c3.128-1.427 3.128-1.427 5.125-3.625" fill="#D0A348"/><path d="m252 266 3 1-1 11h-1z" fill="#3F1D05"/><path d="m557 230 3 1h3c-2.312 2.063-2.312 2.063-5 4l-3-1z" fill="#EC9571"/><path d="m532 202 9 1-3 1v2l-6-2z" fill="#FDE3CF"/><path d="M493 105c2.686 2.686 3.06 5.376 4 9l-2 1a328 328 0 0 1-1.562-3.875l-.88-2.18C492 107 492 107 493 105" fill="#FBD8C2"/><path d="M467 66h1c.188 3.375.188 3.375 0 7l-3 2c-.125-3.375-.125-3.375 0-7z" fill="#27BFCB"/><path d="M190 300h1v7h-3c-.125-2.375-.125-2.375 0-5z" fill="#764816"/><path d="M205 283c1.858 3.135 2.201 5.375 2 9h-2c-1.125-5.625-1.125-5.625 0-9" fill="#421E05"/><path d="M592 61c0 3 0 3-1 6h-3l1-5z" fill="#74B8C4"/><path d="M573 110h1c-.586 6.152-.586 6.152-1 8l-2 1c.875-7.875.875-7.875 2-9" fill="#F6B292"/></svg>