<?xml version="1.0" encoding="utf-8"?>
<!-- Generator: Adobe Illustrator 27.5.0, SVG Export Plug-In . SVG Version: 6.00 Build 0)  -->
<svg version="1.1" id="Capa_2" xmlns="http://www.w3.org/2000/svg" xmlns:xlink="http://www.w3.org/1999/xlink" x="0px" y="0px"
	 viewBox="0 0 2122 2122" style="enable-background:new 0 0 2122 2122;" xml:space="preserve">
<path style="fill:#83B729;" d="M1907.521,1649.132c-3.583-11.526-16.6-17.725-29.074-13.847c-4.089,1.272-7.611,3.467-10.373,6.251
	c-9.518-8.657-28.287-17.024-36.783-20.116c-18.895-6.874-38.975-12.255-59.456-15.837c15.277-8.111,29.86-17.638,43.432-28.438
	c2.459-1.957,4.464-3.769,6.067-5.447c6.504,7.853,18.404,10.171,28.574,4.961c11.627-5.955,16.591-19.492,11.088-30.234
	c-5.502-10.741-19.388-14.622-31.014-8.666c-6.899,3.533-11.452,9.737-12.864,16.441c-12.633-3.606-34.618-2.378-44.053-1.201
	c-32.196,4.016-65.252,12.593-95.789,25.415c-6.504-2.116-13.246-3.923-19.436-6.513c-17.873-7.479-30.374-21.996-37.951-39.464
	c-0.517-1.193-0.981-2.467-1.456-3.745c30.112-42.607,54.438-87.069,73.465-132.879c26.177-62.913,42.344-128.476,49.737-195.359
	c4.595-41.231,5.809-82.973,4.043-124.942c-1.701-41.188-10.249-88.188-45.634-109.37c-30.871-18.443-70.229-9.847-104.642,0.597
	c-41.968,12.768-85.353,28.723-129.623,48.753c-10.511-20.204-19.441-35.136-25.028-43.813
	c-33.626-52.226-80.3-95.069-96.166-107.281c-10.827-15.442-22.706-30.045-35.675-43.562c39.83-26.894,70.562-63.211,85.482-104.148
	c23.763-65.201,6.351-139.309-42.667-193.546l-0.134-0.148l-1.041-1.143l-0.064-0.069c-1.09-1.185-2.195-2.362-3.315-3.527
	l-0.11-0.115l-0.925-0.955l-0.376-0.386l-0.869-0.883l-0.416-0.419l-0.898-0.898l-0.284-0.281c-0.655-0.648-1.315-1.293-1.979-1.934
	l-0.215-0.209l-0.802-0.766l-0.565-0.538l-0.745-0.701l-0.678-0.634l-0.693-0.643l-0.723-0.663l-0.684-0.624l-0.898-0.808
	l-1.002-0.893l-0.838-0.74l-0.654-0.57l-0.829-0.719l-0.612-0.524l-0.931-0.791l-0.528-0.447l-1.071-0.892l-0.439-0.366
	c-0.478-0.394-0.958-0.787-1.44-1.177l-0.572-0.46l-0.938-0.752l-0.625-0.495l-0.934-0.736l-0.616-0.48l-0.972-0.752l-0.582-0.447
	c-0.448-0.342-0.897-0.683-1.349-1.022l-0.18-0.136c-0.907-0.699-1.827-1.385-2.756-2.062l-0.663-0.478
	c-0.866-0.622-1.739-1.237-2.623-1.841c5.089-11.96,7.907-25.119,7.907-38.937c0-54.963-44.556-99.519-99.519-99.519
	c-46.405,0-85.391,31.762-96.406,74.732c-1.186-0.112-2.373-0.218-3.56-0.32c-2.394-0.204-4.791-0.391-7.198-0.57
	c-1.203-0.09-2.409-0.178-3.618-0.266c-2.922-0.152-5.943-0.303-8.916-0.504c-3.047-0.126-6.095-0.227-9.148-0.308
	c-3.054-0.082-6.114-0.145-9.186-0.196l-0.027,0c-2.517-1.247-5.45-1.233-7.926-0.049h-0.006c-5.214,0-10.427,0.056-15.64,0.212
	c-0.869,0.026-1.738,0.054-2.607,0.086c-0.869,0.031-1.738,0.066-2.607,0.104h-0.352c-7.291-0.264-14.583-0.416-21.853-0.411
	c-2.423,0.001-4.844,0.02-7.262,0.058c-1.763,0.025-3.539,0.05-5.314,0.088c-1.776,0.037-3.551,0.088-5.314,0.164
	c-2.367,0.075-4.735,0.164-7.102,0.264c-1.184,0.05-2.367,0.104-3.551,0.161c-1.184,0.057-2.367,0.116-3.551,0.179
	c-3.526,0.22-7.033,0.461-10.531,0.745c-2.099,0.171-4.196,0.358-6.293,0.565h-0.003c-11.014-42.971-50.001-74.735-96.407-74.735
	c-54.963,0-99.519,44.556-99.519,99.519c0,13.814,2.816,26.971,7.903,38.927l-0.011,0.008c-2.015,1.409-4.029,2.871-6.045,4.382
	c-0.515,0.386-1.027,0.775-1.537,1.165l-0.377,0.289l-1.201,0.928l-0.373,0.29c-0.507,0.397-1.012,0.794-1.515,1.194l-0.076,0.061
	c-0.459,0.365-0.915,0.732-1.37,1.101l-0.447,0.362l-1.126,0.922l-0.361,0.297c-0.481,0.399-0.961,0.798-1.438,1.2l-0.277,0.234
	l-1.159,0.985l-0.45,0.386l-1.042,0.903l-0.404,0.351l-1.296,1.145l-0.549,0.491l-0.85,0.765l-0.551,0.499l-0.908,0.833l-0.82,0.759
	l-0.841,0.786l-0.699,0.662l-0.555,0.528l-0.756,0.724l-0.471,0.456c-0.503,0.488-1.004,0.979-1.502,1.471l-0.328,0.325
	l-0.887,0.886l-0.264,0.265c-54.351,54.762-74.598,132.773-49.767,201.023c18.833,51.671,62.856,95.986,118.589,123.275
	c-7.777,7.638-15.294,15.585-22.534,23.81c-11.299,6.989-64.611,51.057-102.862,106.671c-6.955,10.113-18.907,28.927-32.844,54.879
	c-51.591-24.725-102.109-43.794-150.725-58.585c-34.414-10.445-73.772-19.04-104.643-0.597
	c-35.386,21.182-43.933,68.182-45.634,109.37c-1.767,41.969-0.552,83.71,4.043,124.942c7.394,66.884,23.561,132.446,49.737,195.359
	c19.028,45.81,43.354,90.272,73.465,132.879c-0.475,1.279-0.939,2.552-1.456,3.745c-7.576,17.468-20.077,31.985-37.951,39.464
	c-6.19,2.589-12.932,4.397-19.436,6.513c-30.536-12.822-63.593-21.4-95.789-25.415c-9.435-1.177-31.419-2.405-44.053,1.201
	c-1.412-6.705-5.965-12.908-12.864-16.441c-11.626-5.956-25.511-2.076-31.014,8.666c-5.502,10.742-0.538,24.278,11.088,30.234
	c10.17,5.21,22.07,2.893,28.574-4.961c1.603,1.678,3.608,3.49,6.067,5.447c13.572,10.8,28.155,20.327,43.432,28.438
	c-20.481,3.582-40.561,8.963-59.456,15.838c-8.495,3.092-27.265,11.458-36.783,20.116c-2.762-2.783-6.285-4.979-10.373-6.251
	c-12.474-3.878-25.491,2.321-29.074,13.847c-3.583,11.525,3.624,24.011,16.098,27.889c12.474,3.878,25.49-2.32,29.073-13.846
	c0.249-0.8,0.444-1.605,0.59-2.412c1.662,0.501,3.514,0.973,5.574,1.413c33.412,7.129,67.83,8.074,100.626,2.928
	c-5.006,3.708-9.872,7.535-14.576,11.466c-7.264,6.069-23.334,21.733-27.954,33.38c-2.307-1.785-4.991-3.207-7.977-4.136
	c-12.474-3.878-25.491,2.321-29.074,13.846c-3.583,11.525,3.625,24.012,16.098,27.89c12.474,3.878,25.491-2.321,29.074-13.846
	c1.04-3.345,1.169-6.77,0.527-10.042c2.893,0.317,6.5,0.265,10.935-0.231c45.197-5.057,88.038-21.448,122.634-46.919
	c2.076-1.529,4.137-3.107,6.122-4.758c9.55-1.283,18.792-5.618,26.561-11.465c28.169-21.198,37.988-59.134,39.481-94.358
	c0.473-11.17,0.189-22.847-4.943-32.78c-0.744-1.44-1.815-3.099-3.12-4.779c20.853-104.987-3.306-182.586-22.823-297.532
	c1.54-0.021,3.027-0.389,3.753-1.029c36.181,8.115,73.093,13.158,109.902,14.13c19.527,97.115,74.596,155.686,108.777,272.764
	c-10.034-0.859-21.357,2.675-30.726,6.975c-30.948,14.203-60.303,33.876-85.37,56.429c-6.96,6.262-21.838,21.706-27.788,34.02
	c-4.363-3.518-10.088-5.337-16.092-4.605c-11.784,1.436-20.173,12.153-18.736,23.936c1.436,11.784,12.152,20.173,23.936,18.737
	c10.754-1.311,18.678-10.35,18.891-20.876c2.784,0.186,6.191,0.016,10.313-0.574c27.802-3.988,54.817-12.472,79.695-24.873
	c-10.454,20.677-18.836,42.514-24.873,64.405c-2.364,8.571-6.282,27.967-5.279,41.529c-2.292,0.006-4.622,0.381-6.911,1.165
	c-11.231,3.847-17.217,16.07-13.37,27.3c3.846,11.231,16.069,17.217,27.299,13.371c11.231-3.847,17.217-16.07,13.37-27.3
	c-0.456-1.331-1.031-2.589-1.707-3.765c1.805-1.195,3.767-2.696,5.901-4.536c26.233-22.618,47.773-50.351,63.073-80.92
	c3.703,19.54,9.095,38.767,15.909,57.015c3.111,8.33,11.309,26.339,20.072,36.738c-1.853,1.349-3.521,3.019-4.916,4.995
	c-6.843,9.701-4.526,23.112,5.175,29.955c9.701,6.842,23.111,4.526,29.954-5.176c6.843-9.7,4.526-23.111-5.175-29.954
	c-1.15-0.811-2.353-1.492-3.591-2.049c0.761-2.026,1.471-4.393,2.121-7.134c7.42-31.294,8.974-63.788,4.733-95.279
	c13.333,13.6,27.781,26.093,42.826,37.12c7.886,5.78,27.337,17.969,40.712,20.648c-4.094,9.15-1.323,20.215,7.153,26.259
	c9.665,6.893,23.088,4.646,29.98-5.02c6.893-9.665,4.645-23.088-5.02-29.981c-5.625-4.012-12.522-4.927-18.665-3.086
	c-0.393-2.745-1.251-6.015-2.655-9.884c-15.743-43.383-42.935-82.206-77.839-111.133c-8.281-6.863-17.333-13.339-27.742-15.458
	c-0.537-0.11-1.08-0.202-1.625-0.282c-3.109-28.736-6.868-56.198-11.066-82.861c29.168,40.431,65.224,74.931,107.509,99.519
	c99.575,57.901,224.916,60.878,327.931,11.434c56.651-27.191,103.54-68.394,139.137-118.559
	c-5.485,28.534-10.504,57.974-14.809,88.924c-0.547,0.064-1.093,0.139-1.633,0.232c-10.469,1.802-19.714,7.999-28.2,14.607
	c-35.768,27.851-64.129,65.829-81.185,108.713c-1.521,3.825-2.478,7.067-2.954,9.799c-6.084-2.027-13.006-1.323-18.75,2.516
	c-9.87,6.596-12.525,19.943-5.93,29.814c6.595,9.87,19.943,12.525,29.814,5.929c8.655-5.783,11.762-16.759,7.948-26.029
	c13.449-2.271,33.262-13.861,41.321-19.399c15.374-10.565,30.195-22.613,43.936-35.8c-5.198,31.347-4.633,63.874,1.831,95.379
	c0.567,2.761,1.204,5.148,1.903,7.196c-1.254,0.519-2.477,1.163-3.651,1.939c-9.905,6.544-12.628,19.878-6.084,29.783
	c6.544,9.904,19.878,12.628,29.782,6.084s12.628-19.878,6.084-29.782c-1.334-2.019-2.95-3.74-4.761-5.144
	c9.076-10.128,17.818-27.878,21.18-36.109c7.367-18.032,13.342-37.086,17.638-56.504c14.362,31.02,35.048,59.395,60.581,82.801
	c2.078,1.904,3.993,3.463,5.76,4.714c-0.711,1.155-1.325,2.394-1.821,3.711c-4.187,11.108,1.424,23.507,12.533,27.694
	c11.108,4.186,23.507-1.425,27.694-12.533c4.187-11.109-1.424-23.507-12.533-27.694c-2.264-0.853-4.582-1.3-6.873-1.375
	c1.414-13.526-1.911-33.031-4.013-41.671c-5.368-22.065-13.082-44.147-22.902-65.132c24.489,13.153,51.234,22.455,78.902,27.287
	c4.102,0.716,7.502,0.989,10.291,0.887c-0.108,10.528,7.538,19.805,18.247,21.441c11.735,1.794,22.702-6.264,24.496-17.998
	c1.793-11.735-6.265-22.703-18-24.496c-5.977-0.914-11.755,0.73-16.224,4.113c-5.573-12.49-19.974-28.379-26.74-34.85
	c-24.369-23.306-53.111-43.863-83.613-59.001c-9.234-4.582-20.444-8.46-30.5-7.906c38.357-117.915,96.453-174.729,118.123-274.182
	c29.604-2.034,59.169-6.573,88.262-13.098c0.728,0.636,2.21,1.005,3.744,1.03c-19.517,114.948-43.677,192.547-22.823,297.533
	c-1.306,1.68-2.376,3.339-3.12,4.779c-5.133,9.933-5.417,21.609-4.943,32.78c1.493,35.224,11.311,73.16,39.481,94.358
	c7.769,5.847,17.011,10.182,26.561,11.465c1.985,1.651,4.046,3.229,6.123,4.758c34.595,25.471,77.436,41.862,122.634,46.919
	c4.435,0.496,8.042,0.548,10.935,0.231c-0.643,3.272-0.513,6.697,0.527,10.042c3.583,11.525,16.6,17.724,29.074,13.846
	c12.474-3.878,19.681-16.365,16.098-27.89c-3.583-11.525-16.6-17.724-29.074-13.846c-2.986,0.929-5.671,2.351-7.977,4.136
	c-4.62-11.647-20.69-27.311-27.954-33.38c-4.705-3.931-9.571-7.757-14.577-11.466c32.796,5.146,67.214,4.201,100.626-2.928
	c2.06-0.439,3.913-0.911,5.574-1.413c0.147,0.806,0.342,1.611,0.59,2.412c3.583,11.525,16.6,17.724,29.074,13.846
	C1903.896,1673.143,1911.104,1660.657,1907.521,1649.132z"/>
<path style="fill:#F3F0A5;" d="M1349.633,1056.125c-2.609-7.444-5.401-14.815-8.378-22.099
	c-21.982-53.781-56.992-102.218-103.857-136.896c-16.105-11.918-33.412-22.065-51.564-30.293l-1.288,0.16
	c-42.06,5.037-86.185,8.362-129.202,6.85c-35.897,1.261-72.564-0.846-108.13-4.505c-3.928,1.821-7.819,3.726-11.669,5.716
	c-54.879,28.364-99.952,72.831-133.411,124.46c-62.055,95.754-63.661,233.465-35.544,342.369
	c43.041,166.712,217.146,235.536,364.502,203.472c43.359-9.434,85.568-26.84,122.343-53.384
	c11.781-8.504,23.027-17.943,33.62-28.352c58.524-57.513,86.013-140.766,89.775-224.461
	C1379.616,1177.117,1370.006,1114.246,1349.633,1056.125z"/>
<path style="fill:#458733;" d="M1367.604,542.936l-0.036-0.05c-0.87-1.226-1.754-2.443-2.652-3.655l-0.232-0.311
	c-0.429-0.576-0.861-1.151-1.296-1.724l-0.061-0.08c-0.962-1.264-1.94-2.518-2.934-3.765l-0.205-0.257
	c-0.484-0.605-0.97-1.208-1.461-1.809l-0.012-0.014c-0.547-0.669-1.098-1.335-1.653-1.998l-0.135-0.16
	c-0.524-0.625-1.051-1.246-1.583-1.864l-0.085-0.101c-0.528-0.614-1.061-1.224-1.597-1.833l-0.308-0.35
	c-0.538-0.609-1.079-1.216-1.624-1.82l-0.136-0.15l-1.041-1.143l-0.067-0.072c-1.089-1.185-2.193-2.36-3.312-3.525l-0.11-0.115
	l-0.926-0.955l-0.38-0.39l-0.838-0.852l-0.492-0.495l-0.825-0.825l-0.401-0.396c-0.625-0.617-1.254-1.232-1.887-1.844l-0.215-0.209
	l-0.753-0.719l-0.639-0.609l-0.708-0.665l-0.702-0.655l-0.656-0.609l-0.789-0.723l-0.642-0.585l-0.9-0.81l-1.003-0.893l-0.838-0.74
	l-0.654-0.57l-0.83-0.719l-0.612-0.524l-0.93-0.791l-0.529-0.447l-1.07-0.892l-0.439-0.366c-0.478-0.395-0.959-0.787-1.441-1.178
	l-0.525-0.423l-1.01-0.81l-0.577-0.457l-0.955-0.753l-0.617-0.48l-0.972-0.751l-0.581-0.447c-0.448-0.342-0.898-0.683-1.349-1.022
	l-0.181-0.136c-0.667-0.513-1.339-1.02-2.017-1.52c-0.679-0.501-1.363-0.995-2.053-1.485l-0.906-0.639l-1.065-0.737
	c5.089-11.96,7.907-25.119,7.907-38.937c0-54.963-44.556-99.519-99.518-99.519c-46.405,0-85.391,31.762-96.406,74.732
	c-1.186-0.113-2.373-0.218-3.56-0.32c-2.394-0.204-4.792-0.39-7.198-0.57c-1.203-0.089-2.409-0.178-3.617-0.266
	c-2.922-0.152-5.944-0.303-8.916-0.504c-2.286-0.094-4.572-0.171-6.86-0.239c-3.814-0.115-7.634-0.202-11.475-0.264l-0.027,0
	c-2.517-1.247-5.45-1.234-7.925-0.049h-0.006c-6.951,0-13.902,0.1-20.853,0.403h-0.353c-8.502-0.308-17.003-0.463-25.47-0.396
	c-1.215,0.01-2.43,0.024-3.644,0.043c-1.763,0.025-3.539,0.05-5.314,0.088c-1.776,0.037-3.551,0.088-5.314,0.164
	c-2.368,0.075-4.735,0.164-7.102,0.264c-2.368,0.1-4.735,0.214-7.102,0.34c-2.116,0.132-4.224,0.271-6.328,0.423
	c-1.403,0.101-2.803,0.208-4.203,0.322c-1.399,0.113-2.798,0.235-4.196,0.364c-0.699,0.064-1.398,0.132-2.097,0.201h-0.002
	c-11.015-42.971-50.002-74.735-96.408-74.735c-54.962,0-99.518,44.556-99.518,99.519c0,13.814,2.815,26.971,7.903,38.927
	l-0.011,0.008c-2.015,1.409-4.03,2.871-6.045,4.382c-0.515,0.386-1.027,0.776-1.538,1.165l-0.377,0.289l-1.201,0.928l-0.373,0.29
	c-0.507,0.397-1.012,0.794-1.515,1.194l-0.077,0.061c-0.459,0.365-0.915,0.733-1.37,1.101l-0.447,0.363l-1.126,0.922l-0.36,0.296
	c-0.482,0.399-0.961,0.799-1.439,1.201l-0.277,0.234l-1.158,0.985l-0.45,0.386l-0.994,0.861l-0.476,0.414l-1.273,1.123l-0.549,0.492
	l-0.85,0.765l-0.551,0.499l-0.908,0.833l-0.82,0.759l-0.841,0.786l-0.699,0.662l-0.544,0.517l-0.792,0.76l-0.319,0.31
	c-0.546,0.528-1.089,1.06-1.628,1.593l-0.329,0.325l-0.887,0.886l-0.264,0.265c-0.533,0.537-1.062,1.078-1.589,1.62l-0.411,0.424
	c-0.46,0.476-0.918,0.953-1.373,1.432l-0.179,0.188c-0.56,0.591-1.116,1.184-1.668,1.781l-0.006,0.006
	c-0.557,0.602-1.11,1.205-1.659,1.812l-0.049,0.054c-0.48,0.53-0.956,1.063-1.43,1.597l-0.31,0.351
	c-0.428,0.484-0.855,0.971-1.277,1.458l-0.124,0.143c-0.458,0.529-0.913,1.06-1.365,1.593l-0.259,0.305
	c-0.416,0.492-0.829,0.985-1.24,1.479l-0.085,0.102c-29.74,35.846-46.297,79.388-47.169,123.013
	c6.484-10.903,13.974-21.161,21.951-30.365c4.431,3.579,10.524,4.918,16.346,3.03c9.159-2.971,14.175-12.803,11.204-21.962
	c-0.625-1.928-1.556-3.67-2.719-5.196c3.032-2.476,6.123-4.85,9.275-7.112c1.819,0.469,3.789,0.445,5.708-0.177
	c3.777-1.225,6.352-4.436,6.952-8.101c5.607-3.317,11.386-6.284,17.337-8.858l0.184,0.158c1.839,1.497,4.543,1.219,6.04-0.619
	c0.583-0.716,0.896-1.564,0.953-2.419c11.935-4.422,24.532-7.274,37.791-8.243c28.699-2.097,56.265,4.264,82.898,13.844
	c-15.931,18.088-25.168,39.582-25.168,62.649c0,36.7,23.404,69.466,60.005,90.779c3.934,2.291,8.067,4.482,12.299,6.474
	c25.347,12.2,55.722,19.271,88.339,19.271c58.56,0,109.751-22.707,137.836-56.668c9.313-11.254,16.085-23.753,19.72-37.048
	c2.042-7.37,3.087-14.989,3.087-22.807c0-26.649-12.318-51.198-33.048-70.823c0.947-0.521,1.9-1.031,2.861-1.526
	c32.86-16.931,73.938-19.674,109.145-8.821c7.963,2.455,15.643,5.565,23.001,9.256l-0.054,0.042
	c-1.839,1.497-2.116,4.201-0.619,6.04c1.497,1.839,4.201,2.116,6.04,0.619c0.949-0.772,1.481-1.866,1.569-2.997
	c5.476,3.107,10.756,6.543,15.82,10.277c0.094,4.235,2.825,8.139,7.083,9.52c1.68,0.544,3.398,0.632,5.021,0.332
	c3.058,2.739,6.019,5.593,8.877,8.554c-0.666,1.111-1.217,2.313-1.634,3.598c-2.97,9.159,2.046,18.991,11.205,21.962
	c3.659,1.187,7.426,1.097,10.82-0.02c9.782,14.945,17.132,31.254,22.063,48.197C1408.453,628.578,1395.354,582.064,1367.604,542.936
	z"/>
<path style="fill:#71A62E;" d="M1367.604,542.936l-0.036-0.05c-0.87-1.226-1.754-2.443-2.652-3.655l-0.232-0.311
	c-0.429-0.576-0.861-1.151-1.296-1.724l-0.061-0.08c-0.962-1.264-1.94-2.518-2.934-3.765l-0.205-0.257
	c-0.484-0.605-0.97-1.208-1.461-1.809l-0.012-0.014c-0.547-0.669-1.098-1.335-1.653-1.998l-0.135-0.16
	c-0.524-0.625-1.051-1.246-1.583-1.864l-0.085-0.101c-0.528-0.614-1.061-1.224-1.597-1.833l-0.308-0.35
	c-0.538-0.609-1.079-1.216-1.624-1.82l-0.136-0.15l-1.041-1.143l-0.067-0.072c-1.089-1.185-2.193-2.36-3.312-3.525l-0.11-0.115
	l-0.926-0.955l-0.38-0.39l-0.838-0.852l-0.492-0.495l-0.825-0.825l-0.401-0.396c-0.625-0.617-1.254-1.232-1.887-1.844l-0.215-0.209
	l-0.753-0.719l-0.639-0.609l-0.708-0.665l-0.702-0.655l-0.656-0.609l-0.789-0.723l-0.642-0.585l-0.9-0.81l-1.003-0.893l-0.838-0.74
	l-0.654-0.57l-0.83-0.719l-0.612-0.524l-0.93-0.791l-0.529-0.447l-1.07-0.892l-0.439-0.366c-0.478-0.395-0.959-0.787-1.441-1.178
	l-0.525-0.423l-1.01-0.81l-0.577-0.457l-0.955-0.753l-0.617-0.48l-0.972-0.751l-0.581-0.447c-0.448-0.342-0.898-0.683-1.349-1.022
	l-0.181-0.136c-0.667-0.513-1.339-1.02-2.017-1.52c-0.679-0.501-1.363-0.995-2.053-1.485l-0.906-0.639l-1.065-0.737
	c5.089-11.96,7.907-25.119,7.907-38.937c0-54.963-44.556-99.519-99.518-99.519c-46.405,0-85.391,31.762-96.406,74.732
	c-1.186-0.113-2.373-0.218-3.56-0.32c-2.394-0.204-4.792-0.39-7.198-0.57c-1.203-0.089-2.409-0.178-3.617-0.266
	c-2.922-0.152-5.944-0.303-8.916-0.504c-2.286-0.094-4.572-0.171-6.86-0.239c-3.814-0.115-7.634-0.202-11.475-0.264l-0.027,0
	c-2.517-1.247-5.45-1.234-7.925-0.049h-0.006c-6.951,0-13.902,0.1-20.853,0.403h-0.353c-8.502-0.308-17.003-0.463-25.47-0.396
	c-1.215,0.01-2.43,0.024-3.644,0.043c-1.763,0.025-3.539,0.05-5.314,0.088c-1.776,0.037-3.551,0.088-5.314,0.164
	c-2.368,0.075-4.735,0.164-7.102,0.264c-2.368,0.1-4.735,0.214-7.102,0.34c-2.116,0.132-4.224,0.271-6.328,0.423
	c-1.403,0.101-2.803,0.208-4.203,0.322c-1.399,0.113-2.798,0.235-4.196,0.364c-0.699,0.064-1.398,0.132-2.097,0.201h-0.002
	c-11.015-42.971-50.002-74.735-96.408-74.735c-54.962,0-99.518,44.556-99.518,99.519c0,13.814,2.815,26.971,7.903,38.927
	l-0.011,0.008c-2.015,1.409-4.03,2.871-6.045,4.382c-0.515,0.386-1.027,0.776-1.538,1.165l-0.377,0.289l-1.201,0.928l-0.373,0.29
	c-0.507,0.397-1.012,0.794-1.515,1.194l-0.077,0.061c-0.459,0.365-0.915,0.733-1.37,1.101l-0.447,0.363l-1.126,0.922l-0.36,0.296
	c-0.482,0.399-0.961,0.799-1.439,1.201l-0.277,0.234l-1.158,0.985l-0.45,0.386l-0.994,0.861l-0.476,0.414l-1.273,1.123l-0.549,0.492
	l-0.85,0.765l-0.551,0.499l-0.908,0.833l-0.82,0.759l-0.841,0.786l-0.699,0.662l-0.544,0.517l-0.792,0.76l-0.319,0.31
	c-0.546,0.528-1.089,1.06-1.628,1.593l-0.329,0.325l-0.887,0.886l-0.264,0.265c-0.533,0.537-1.062,1.078-1.589,1.62l-0.411,0.424
	c-0.46,0.476-0.918,0.953-1.373,1.432l-0.179,0.188c-0.56,0.591-1.116,1.184-1.668,1.781l-0.006,0.006
	c-0.557,0.602-1.11,1.205-1.659,1.812l-0.049,0.054c-0.48,0.53-0.956,1.063-1.43,1.597l-0.31,0.351
	c-0.428,0.484-0.855,0.971-1.277,1.458l-0.124,0.143c-0.458,0.529-0.913,1.06-1.365,1.593l-0.259,0.305
	c-0.416,0.492-0.829,0.985-1.24,1.479l-0.085,0.102c-29.74,35.846-46.297,79.388-47.169,123.013
	c6.484-10.903,13.974-21.161,21.951-30.365c4.431,3.579,10.524,4.918,16.346,3.03c9.159-2.971,14.175-12.803,11.204-21.962
	c-0.625-1.928-1.556-3.67-2.719-5.196c3.032-2.476,6.123-4.85,9.275-7.112c1.819,0.469,3.789,0.445,5.708-0.177
	c3.777-1.225,6.352-4.436,6.952-8.101c5.607-3.317,11.386-6.284,17.337-8.858l0.184,0.158c1.839,1.497,4.543,1.219,6.04-0.619
	c0.583-0.716,0.896-1.564,0.953-2.419c11.935-4.422,24.532-7.274,37.791-8.243c28.699-2.097,56.265,4.264,82.898,13.844
	c16.232,5.839,32.118,12.872,47.702,19.917c20.572,9.299,41.142,18.873,62.699,25.708c19.691,6.244,40.559,11.466,60.964,5.606
	c35.504-10.198,59.943-41.925,91.705-59.404c0.947-0.521,1.9-1.031,2.861-1.526c32.86-16.931,73.938-19.674,109.145-8.821
	c7.963,2.455,15.643,5.565,23.001,9.256l-0.054,0.042c-1.839,1.497-2.116,4.201-0.619,6.04c1.497,1.839,4.201,2.116,6.04,0.619
	c0.949-0.772,1.481-1.866,1.569-2.997c5.476,3.107,10.756,6.543,15.82,10.277c0.094,4.235,2.825,8.139,7.083,9.52
	c1.68,0.544,3.398,0.632,5.021,0.332c3.058,2.739,6.019,5.593,8.877,8.554c-0.666,1.111-1.217,2.313-1.634,3.598
	c-2.97,9.159,2.046,18.991,11.205,21.962c3.659,1.187,7.426,1.097,10.82-0.02c9.782,14.945,17.132,31.254,22.063,48.197
	C1408.453,628.578,1395.354,582.064,1367.604,542.936z"/>
<path style="fill:#76A62C;" d="M661.124,1018.087c-5.658,10.063-15.922,24.655-20.989,34.59
	c-30.538,59.868-48.372,92.346-48.372,107.514c0,14.821,6.688,50.755,13.975,83.135c4.88,0.27,9.76,0.469,14.638,0.598
	c-4.115-20.47-6.651-42.653-7.079-67.457c19.272-61.98,43.34-113.882,63.328-151.106
	C671.447,1022.879,666.28,1020.456,661.124,1018.087z"/>
<path style="fill:#55852F;" d="M437.458,1006.673c2.049,0.761,4.198-0.242,4.798-2.242c0.6-2-0.574-4.239-2.624-5
	c-2.049-0.762-4.197,0.242-4.798,2.241C434.233,1003.672,435.408,1005.91,437.458,1006.673z"/>
<path style="fill:#55852F;" d="M464.529,1030.914c-4.68,1.019-7.345,5.724-5.954,10.508c1.391,4.784,6.312,7.836,10.991,6.817
	c4.679-1.019,7.344-5.724,5.953-10.508C474.129,1032.946,469.208,1029.895,464.529,1030.914z"/>
<path style="fill:#55852F;" d="M525.809,1051.337c4.679-1.02,7.345-5.724,5.954-10.508c-1.391-4.785-6.312-7.836-10.991-6.817
	c-4.679,1.02-7.345,5.724-5.953,10.509C516.209,1049.304,521.131,1052.357,525.809,1051.337z"/>
<path style="fill:#55852F;" d="M468.992,1006.518c4.886-1.065,7.669-5.977,6.217-10.973c-1.453-4.995-6.591-8.182-11.477-7.117
	c-4.886,1.064-7.67,5.977-6.217,10.972C458.968,1004.396,464.107,1007.583,468.992,1006.518z"/>
<path style="fill:#55852F;" d="M565.292,1005.995c-8.549,1.862-13.419,10.458-10.878,19.199c2.541,8.74,11.532,14.316,20.081,12.453
	c8.549-1.862,13.419-10.458,10.878-19.199C582.831,1009.708,573.84,1004.133,565.292,1005.995z"/>
<path style="fill:#55852F;" d="M432.168,1027.753c-6.132,1.336-9.626,7.502-7.803,13.772c1.823,6.27,8.272,10.27,14.405,8.934
	c6.133-1.337,9.626-7.502,7.803-13.772C444.75,1030.417,438.301,1026.417,432.168,1027.753z"/>
<path style="fill:#55852F;" d="M514.569,1004.184c-2.471-8.5-11.214-13.921-19.526-12.11c-8.313,1.811-13.048,10.169-10.576,18.668
	c2.471,8.499,11.213,13.921,19.526,12.11C512.305,1021.04,517.04,1012.682,514.569,1004.184z"/>
<path style="fill:#55852F;" d="M486.706,1053.041c-6.133,1.337-9.626,7.502-7.803,13.772c1.823,6.271,8.272,10.27,14.405,8.934
	c6.133-1.336,9.626-7.502,7.803-13.772C499.288,1055.705,492.838,1051.705,486.706,1053.041z"/>
<path style="fill:#55852F;" d="M524.775,1061.564c-3.243,0.706-5.091,3.968-4.127,7.284c0.964,3.316,4.375,5.432,7.619,4.725
	c3.244-0.707,5.091-3.968,4.127-7.284C531.43,1062.973,528.019,1060.858,524.775,1061.564z"/>
<path style="fill:#55852F;" d="M451.479,1021.801c-1.495,0.326-2.346,1.828-1.902,3.357c0.444,1.528,2.017,2.503,3.511,2.177
	c1.494-0.325,2.346-1.828,1.901-3.357C454.546,1022.451,452.974,1021.476,451.479,1021.801z"/>
<path style="fill:#55852F;" d="M495.435,1047.069c2.34-0.51,3.672-2.862,2.977-5.254c-0.696-2.392-3.156-3.918-5.496-3.408
	c-2.339,0.51-3.672,2.862-2.976,5.254C490.635,1046.053,493.095,1047.579,495.435,1047.069z"/>
<path style="fill:#55852F;" d="M594.61,1070.634c2.34-0.51,3.672-2.862,2.977-5.254c-0.695-2.392-3.156-3.918-5.496-3.408
	c-2.339,0.509-3.672,2.862-2.977,5.254C589.81,1069.618,592.27,1071.143,594.61,1070.634z"/>
<path style="fill:#55852F;" d="M566.254,1077.184c-3.722,0.81-5.843,4.553-4.736,8.359c1.107,3.806,5.021,6.233,8.743,5.422
	c3.722-0.811,5.843-4.553,4.736-8.359C573.891,1078.8,569.976,1076.373,566.254,1077.184z"/>
<path style="fill:#55852F;" d="M552.871,1046.212c-0.696-2.392-3.156-3.919-5.496-3.409c-2.339,0.51-3.672,2.863-2.977,5.255
	c0.695,2.392,3.156,3.918,5.496,3.408C552.234,1050.956,553.567,1048.604,552.871,1046.212z"/>
<path style="fill:#55852F;" d="M595.408,1045.644c2.34-0.51,3.672-2.863,2.977-5.254c-0.696-2.392-3.156-3.918-5.495-3.409
	c-2.34,0.51-3.672,2.863-2.977,5.255C590.608,1044.627,593.068,1046.153,595.408,1045.644z"/>
<path style="fill:#55852F;" d="M534.354,1011.143c-3.261,0.71-5.119,3.989-4.15,7.324c0.97,3.334,4.4,5.461,7.661,4.751
	c3.261-0.711,5.119-3.989,4.15-7.324C541.044,1012.559,537.615,1010.432,534.354,1011.143z"/>
<path style="fill:#55852F;" d="M573.444,1051.054c-2.34,0.51-3.673,2.862-2.977,5.254c0.695,2.392,3.156,3.918,5.495,3.409
	c2.339-0.51,3.672-2.863,2.977-5.255C578.244,1052.07,575.784,1050.545,573.444,1051.054z"/>
<path style="fill:#55852F;" d="M551.288,1066.255c-1.17,0.255-1.836,1.431-1.488,2.627c0.348,1.196,1.578,1.959,2.748,1.704
	c1.169-0.255,1.836-1.431,1.488-2.627C553.688,1066.764,552.458,1066.001,551.288,1066.255z"/>
<path style="fill:#55852F;" d="M595.034,1026.37c1.17-0.255,1.836-1.431,1.489-2.627c-0.348-1.196-1.578-1.959-2.748-1.704
	c-1.17,0.254-1.836,1.431-1.488,2.627C592.634,1025.861,593.864,1026.624,595.034,1026.37z"/>
<path style="fill:#55852F;" d="M416.198,1013.439c-1.169,0.254-1.836,1.43-1.488,2.626c0.348,1.196,1.578,1.959,2.748,1.704
	c1.17-0.255,1.836-1.43,1.488-2.627C418.599,1013.947,417.368,1013.183,416.198,1013.439z"/>
<path style="fill:#55852F;" d="M479.607,1016.58c-0.491-1.692-2.232-2.77-3.885-2.41c-1.654,0.36-2.597,2.023-2.105,3.715
	c0.492,1.691,2.232,2.77,3.886,2.41C479.157,1019.935,480.099,1018.272,479.607,1016.58z"/>
<path style="fill:#55852F;" d="M548.506,997.452c1.69-0.368,2.652-2.067,2.15-3.795c-0.502-1.727-2.279-2.829-3.969-2.462
	c-1.69,0.368-2.652,2.067-2.15,3.795C545.04,996.718,546.817,997.821,548.506,997.452z"/>
<path style="fill:#55852F;" d="M528.623,1003.319c2.34-0.509,3.672-2.862,2.977-5.254c-0.695-2.392-3.156-3.917-5.496-3.408
	c-2.339,0.51-3.672,2.862-2.977,5.254C523.823,1002.303,526.283,1003.829,528.623,1003.319z"/>
<path style="fill:#41762F;" d="M510.906,1228.649c-5.22-21.642-15.867-41.398-31.051-57.676c-1.9-2.036-10.581-0.758-7.792,2.232
	c14.477,15.519,24.843,34.813,29.819,55.444c0.376,1.56,2.662,2.221,4.844,2.19c1.54-0.021,3.027-0.388,3.752-1.029
	C510.842,1229.488,511.014,1229.099,510.906,1228.649z"/>
<path style="fill:#55852F;" d="M442.936,1371.527c4.561-19.517,9.134-38.961,13.736-58.447c2.461-10.52,4.819-22.203-0.468-31.667
	c-9.313-16.653-36.725-16.752-44.399-34.24c-5.914-13.378,2.48-32.111-8.302-41.924c-6.173-5.579-15.23-4.913-23.818-4.796
	c7.393,66.884,23.561,132.446,49.737,195.359C436.732,1391.365,440.774,1380.605,442.936,1371.527z"/>
<path style="fill:#76A62C;" d="M1529.1,1102.909c-13.752-25.054-32.409-46.75-49.748-69.305c-4.467-5.81-8.87-11.669-13.27-17.529
	c19.881,38.294,45.331,95.307,64.546,164.458c-1.09,22.818-3.897,43.36-8.033,62.347c1.867-0.128,3.733-0.263,5.6-0.412
	c6.093-18.885,11.442-37.997,14.948-57.552c2.626-14.648,3.747-29.101,0.649-43.785
	C1540.951,1127.677,1535.699,1114.932,1529.1,1102.909z"/>
<path style="fill:#55852F;" d="M1683.862,1006.673c2.05-0.762,3.224-3.001,2.624-5.001c-0.601-2-2.748-3.003-4.798-2.241
	c-2.049,0.762-3.224,3-2.624,5C1679.664,1006.431,1681.812,1007.433,1683.862,1006.673z"/>
<path style="fill:#55852F;" d="M1662.745,1041.423c1.391-4.784-1.274-9.489-5.954-10.508c-4.679-1.02-9.6,2.032-10.991,6.817
	c-1.391,4.784,1.275,9.489,5.953,10.508C1656.433,1049.259,1661.354,1046.207,1662.745,1041.423z"/>
<path style="fill:#55852F;" d="M1600.548,1034.012c-4.679-1.019-9.6,2.033-10.991,6.817c-1.391,4.784,1.275,9.489,5.954,10.508
	c4.679,1.019,9.6-2.033,10.991-6.817C1607.893,1039.736,1605.227,1035.032,1600.548,1034.012z"/>
<path style="fill:#55852F;" d="M1652.328,1006.518c4.886,1.065,10.025-2.122,11.477-7.118c1.453-4.995-1.331-9.908-6.216-10.972
	c-4.886-1.065-10.025,2.122-11.477,7.117C1644.658,1000.542,1647.442,1005.454,1652.328,1006.518z"/>
<path style="fill:#55852F;" d="M1556.028,1005.995c-8.549-1.862-17.539,3.713-20.081,12.454
	c-2.541,8.741,2.329,17.337,10.878,19.199c8.549,1.863,17.54-3.713,20.081-12.453
	C1569.448,1016.454,1564.578,1007.857,1556.028,1005.995z"/>
<path style="fill:#55852F;" d="M1682.55,1050.459c6.133,1.336,12.582-2.664,14.405-8.934c1.824-6.27-1.67-12.436-7.803-13.772
	c-6.133-1.336-12.582,2.664-14.405,8.934C1672.924,1042.957,1676.417,1049.123,1682.55,1050.459z"/>
<path style="fill:#55852F;" d="M1636.854,1010.742c2.471-8.499-2.264-16.857-10.577-18.668c-8.313-1.811-17.055,3.61-19.526,12.11
	c-2.471,8.498,2.264,16.857,10.577,18.668C1625.641,1024.663,1634.383,1019.24,1636.854,1010.742z"/>
<path style="fill:#55852F;" d="M1634.615,1053.041c-6.132-1.336-12.582,2.664-14.405,8.934c-1.823,6.27,1.671,12.437,7.803,13.772
	c6.133,1.336,12.582-2.663,14.405-8.934C1644.241,1060.544,1640.747,1054.378,1634.615,1053.041z"/>
<path style="fill:#55852F;" d="M1596.545,1061.564c-3.244-0.706-6.655,1.409-7.619,4.726c-0.964,3.316,0.883,6.577,4.127,7.284
	c3.243,0.707,6.654-1.408,7.619-4.725C1601.636,1065.532,1599.788,1062.271,1596.545,1061.564z"/>
<path style="fill:#55852F;" d="M1668.232,1027.336c1.495,0.326,3.067-0.649,3.511-2.177c0.444-1.529-0.407-3.031-1.902-3.357
	c-1.495-0.326-3.067,0.65-3.511,2.177C1665.886,1025.507,1666.737,1027.01,1668.232,1027.336z"/>
<path style="fill:#55852F;" d="M1622.908,1041.815c-0.696,2.392,0.637,4.744,2.977,5.254c2.339,0.51,4.8-1.016,5.495-3.408
	c0.695-2.392-0.638-4.744-2.977-5.254C1626.064,1037.897,1623.604,1039.423,1622.908,1041.815z"/>
<path style="fill:#55852F;" d="M1573.944,1042.803c-2.339-0.51-4.8,1.017-5.495,3.409c-0.696,2.392,0.637,4.744,2.977,5.254
	c2.339,0.509,4.8-1.016,5.495-3.408C1577.617,1045.666,1576.284,1043.313,1573.944,1042.803z"/>
<path style="fill:#55852F;" d="M1525.912,1045.644c2.34,0.509,4.8-1.017,5.495-3.408c0.696-2.392-0.636-4.745-2.976-5.255
	c-2.34-0.509-4.8,1.017-5.495,3.409C1522.24,1042.781,1523.573,1045.134,1525.912,1045.644z"/>
<path style="fill:#55852F;" d="M1591.116,1018.467c0.969-3.335-0.889-6.614-4.15-7.324c-3.261-0.711-6.691,1.416-7.66,4.751
	c-0.97,3.335,0.888,6.613,4.149,7.324C1586.717,1023.928,1590.147,1021.801,1591.116,1018.467z"/>
<path style="fill:#55852F;" d="M1547.876,1051.054c-2.34-0.509-4.8,1.016-5.496,3.408c-0.695,2.392,0.638,4.745,2.977,5.255
	c2.34,0.509,4.8-1.017,5.496-3.409C1551.549,1053.916,1550.216,1051.564,1547.876,1051.054z"/>
<path style="fill:#55852F;" d="M1570.031,1066.255c-1.169-0.254-2.4,0.508-2.747,1.705c-0.348,1.195,0.318,2.372,1.488,2.627
	c1.17,0.255,2.4-0.508,2.747-1.704C1571.868,1067.687,1571.201,1066.511,1570.031,1066.255z"/>
<path style="fill:#55852F;" d="M1526.286,1026.37c1.169,0.255,2.4-0.509,2.747-1.705c0.348-1.195-0.318-2.372-1.488-2.627
	c-1.17-0.255-2.4,0.508-2.748,1.704C1524.45,1024.938,1525.116,1026.114,1526.286,1026.37z"/>
<path style="fill:#55852F;" d="M1703.862,1017.769c1.17,0.255,2.4-0.508,2.748-1.704c0.348-1.196-0.319-2.372-1.488-2.626
	c-1.17-0.255-2.4,0.508-2.748,1.704C1702.026,1016.339,1702.692,1017.515,1703.862,1017.769z"/>
<path style="fill:#55852F;" d="M1647.703,1017.885c0.492-1.691-0.451-3.355-2.105-3.715c-1.654-0.361-3.394,0.718-3.886,2.41
	c-0.492,1.691,0.45,3.355,2.105,3.715C1645.472,1020.656,1647.211,1019.577,1647.703,1017.885z"/>
<path style="fill:#55852F;" d="M1572.813,997.452c1.69,0.369,3.467-0.734,3.969-2.462c0.502-1.727-0.46-3.426-2.15-3.795
	c-1.689-0.368-3.466,0.734-3.969,2.462C1570.161,995.385,1571.124,997.084,1572.813,997.452z"/>
<path style="fill:#55852F;" d="M1592.697,1003.319c2.34,0.51,4.8-1.016,5.496-3.408c0.695-2.392-0.638-4.744-2.977-5.254
	c-2.34-0.509-4.8,1.016-5.496,3.408C1589.025,1000.457,1590.358,1002.81,1592.697,1003.319z"/>
<path style="fill:#41762F;" d="M1619.438,1228.649c4.976-20.631,15.342-39.925,29.819-55.444c2.772-2.972-5.867-4.296-7.792-2.232
	c-15.185,16.278-25.831,36.034-31.051,57.676l0.436,1.16c0.728,0.636,2.21,1.005,3.744,1.03
	C1616.774,1230.876,1619.06,1230.219,1619.438,1228.649z"/>
<path style="fill:#55852F;" d="M1717.818,1205.25c-10.783,9.813-2.389,28.546-8.303,41.924
	c-7.674,17.488-35.086,17.587-44.399,34.24c-5.287,9.464-2.929,21.147-0.468,31.667c4.602,19.486,9.175,38.93,13.736,58.447
	c2.163,9.078,6.204,19.837,13.514,24.286c26.177-62.914,42.344-128.476,49.737-195.359
	C1733.048,1200.337,1723.991,1199.67,1717.818,1205.25z"/>
<path style="fill:#55852F;" d="M686.569,1307.938c-1.591,0.232-2.596,1.754-2.248,3.4c0.349,1.646,1.921,2.793,3.511,2.561
	c1.591-0.232,2.596-1.755,2.248-3.401C689.73,1308.852,688.159,1307.706,686.569,1307.938z"/>
<path style="fill:#55852F;" d="M672.667,1162.212c-3.485-1.598-7.367-0.098-8.671,3.349c-1.304,3.447,0.466,7.538,3.951,9.136
	c3.485,1.598,7.368,0.098,8.671-3.349C677.921,1167.901,676.152,1163.811,672.667,1162.212z"/>
<path style="fill:#55852F;" d="M664.966,1278.862c-3.485-1.598-7.368-0.099-8.671,3.348c-1.303,3.448,0.466,7.538,3.951,9.136
	c3.485,1.598,7.367,0.099,8.67-3.348C670.22,1284.55,668.451,1280.46,664.966,1278.862z"/>
<path style="fill:#55852F;" d="M672.896,1244.831c1.303-3.447-0.466-7.538-3.951-9.136c-3.485-1.598-7.367-0.098-8.67,3.349
	c-1.304,3.448,0.466,7.537,3.951,9.135C667.71,1249.778,671.592,1248.278,672.896,1244.831z"/>
<path style="fill:#55852F;" d="M697.046,1283.852c-3.64-1.669-7.693-0.103-9.054,3.496c-1.361,3.6,0.486,7.87,4.126,9.539
	c3.639,1.669,7.693,0.104,9.054-3.496C702.532,1289.791,700.685,1285.521,697.046,1283.852z"/>
<path style="fill:#55852F;" d="M676.182,1203.523c-2.381,6.299,0.85,13.771,7.218,16.691c4.344,1.992,9.023,1.349,12.315-1.259
	c-0.591-6.71-1.036-13.434-1.337-20.163c-0.727-0.533-1.513-1.001-2.355-1.387C685.655,1194.485,678.563,1197.225,676.182,1203.523z
	"/>
<path style="fill:#55852F;" d="M662.498,1301.016c-4.568-2.094-9.656-0.13-11.364,4.389c-1.708,4.518,0.61,9.879,5.178,11.973
	c4.568,2.094,9.656,0.13,11.364-4.389C669.385,1308.471,667.067,1303.11,662.498,1301.016z"/>
<path style="fill:#55852F;" d="M694.906,1252.914c-6.192-2.838-13.088-0.175-15.404,5.949c-2.315,6.124,0.827,13.39,7.019,16.23
	c6.192,2.839,13.089,0.175,15.404-5.949c0.246-0.652,0.428-1.317,0.553-1.989c-0.565-2.935-1.102-5.873-1.611-8.812
	C699.519,1256.036,697.476,1254.094,694.906,1252.914z"/>
<path style="fill:#55852F;" d="M639.23,1171.279c6.192,2.839,13.089,0.176,15.404-5.949c2.315-6.124-0.827-13.39-7.019-16.229
	c-6.192-2.839-13.088-0.176-15.404,5.949C629.897,1161.174,633.039,1168.44,639.23,1171.279z"/>
<path style="fill:#55852F;" d="M654.57,1268.621c1.708-4.518-0.61-9.878-5.178-11.973c-4.568-2.094-9.656-0.129-11.364,4.389
	c-1.708,4.518,0.61,9.879,5.178,11.973C647.774,1275.104,652.862,1273.139,654.57,1268.621z"/>
<path style="fill:#55852F;" d="M643.623,1234.667c-0.904,2.39,0.322,5.224,2.739,6.332c2.416,1.108,5.107,0.069,6.01-2.321
	c0.904-2.39-0.323-5.225-2.739-6.332C647.217,1231.238,644.526,1232.278,643.623,1234.667z"/>
<path style="fill:#55852F;" d="M674.384,1298.959c0.416-1.101-0.149-2.408-1.262-2.919c-1.113-0.51-2.354-0.031-2.77,1.07
	c-0.416,1.101,0.149,2.407,1.262,2.919C672.727,1300.539,673.967,1300.06,674.384,1298.959z"/>
<path style="fill:#55852F;" d="M660.101,1262.648c-0.652,1.724,0.233,3.769,1.976,4.568c1.743,0.799,3.684,0.05,4.336-1.674
	c0.652-1.724-0.233-3.769-1.976-4.568C662.693,1260.175,660.752,1260.925,660.101,1262.648z"/>
<path style="fill:#55852F;" d="M653.336,1184.493c-0.651,1.723,0.233,3.768,1.976,4.568c1.743,0.799,3.684,0.049,4.336-1.674
	c0.651-1.723-0.233-3.768-1.975-4.567C655.93,1182.019,653.989,1182.769,653.336,1184.493z"/>
<path style="fill:#55852F;" d="M658.088,1119.524c-3.78-1.733-7.991-0.107-9.404,3.631c-1.414,3.739,0.505,8.176,4.285,9.909
	c3.781,1.734,7.991,0.107,9.405-3.632C663.788,1125.693,661.869,1121.257,658.088,1119.524z"/>
<path style="fill:#55852F;" d="M688.82,1170.615c-0.652,1.723,0.232,3.768,1.975,4.568c1.083,0.496,2.241,0.395,3.12-0.167
	c0.01-1.851,0.031-3.703,0.062-5.554l-0.822-0.521C691.412,1168.142,689.472,1168.891,688.82,1170.615z"/>
<path style="fill:#55852F;" d="M645.155,1205.341c1.037-2.742-0.37-5.995-3.143-7.266s-5.861-0.079-6.897,2.664
	c-1.037,2.742,0.37,5.996,3.143,7.266C641.031,1209.276,644.118,1208.083,645.155,1205.341z"/>
<path style="fill:#55852F;" d="M662.89,1220.694c-0.652,1.724,0.233,3.769,1.976,4.567c1.743,0.799,3.683,0.049,4.336-1.674
	c0.651-1.724-0.233-3.769-1.976-4.568C665.483,1218.221,663.542,1218.97,662.89,1220.694z"/>
<path style="fill:#55852F;" d="M672.451,1186.701c-0.651,1.724,0.233,3.769,1.976,4.568c1.743,0.799,3.683,0.049,4.335-1.674
	c0.652-1.724-0.233-3.769-1.976-4.568C675.044,1184.228,673.103,1184.977,672.451,1186.701z"/>
<path style="fill:#55852F;" d="M664.119,1147.851c1.743,0.799,3.684,0.049,4.336-1.674c0.652-1.723-0.232-3.769-1.975-4.567
	c-1.743-0.799-3.684-0.049-4.336,1.674C661.492,1145.006,662.376,1147.052,664.119,1147.851z"/>
<path style="fill:#55852F;" d="M683.04,1233.035c-0.909,2.403,0.324,5.253,2.754,6.367c2.429,1.114,5.135,0.069,6.043-2.334
	c0.909-2.403-0.324-5.254-2.753-6.367C686.654,1229.588,683.948,1230.633,683.04,1233.035z"/>
<path style="fill:#55852F;" d="M661.522,1204.486c1.743,0.799,3.684,0.049,4.335-1.674c0.652-1.724-0.233-3.769-1.976-4.568
	c-1.743-0.799-3.684-0.05-4.336,1.674C658.895,1201.643,659.779,1203.688,661.522,1204.486z"/>
<path style="fill:#55852F;" d="M651.789,1217.966c0.326-0.862-0.116-1.885-0.988-2.284c-0.871-0.4-1.842-0.024-2.168,0.837
	c-0.326,0.862,0.116,1.884,0.988,2.284C650.492,1219.202,651.463,1218.828,651.789,1217.966z"/>
<path style="fill:#55852F;" d="M687.469,1150.789c0.872,0.4,1.842,0.024,2.168-0.838c0.326-0.862-0.116-1.884-0.988-2.284
	c-0.871-0.4-1.841-0.025-2.167,0.837C686.155,1149.367,686.597,1150.39,687.469,1150.789z"/>
<path style="fill:#55852F;" d="M690.238,1190.605c0.326-0.863-0.117-1.885-0.988-2.284c-0.872-0.4-1.842-0.025-2.168,0.837
	c-0.326,0.862,0.116,1.884,0.988,2.284C688.941,1191.841,689.912,1191.466,690.238,1190.605z"/>
<path style="fill:#55852F;" d="M675.787,1324.476c-0.871-0.4-1.842-0.024-2.168,0.837c-0.326,0.862,0.116,1.884,0.988,2.284
	c0.871,0.4,1.842,0.025,2.168-0.837C677.101,1325.898,676.659,1324.875,675.787,1324.476z"/>
<path style="fill:#55852F;" d="M681.528,1278.133c-1.232-0.565-2.605-0.035-3.065,1.184c-0.461,1.218,0.165,2.665,1.396,3.229
	c1.232,0.565,2.605,0.035,3.065-1.183C683.386,1280.144,682.76,1278.698,681.528,1278.133z"/>
<path style="fill:#55852F;" d="M699.013,1246.824c-0.291-1.962-0.57-3.924-0.837-5.886c-0.449,0.337-0.812,0.8-1.03,1.375
	C696.509,1244,697.344,1245.99,699.013,1246.824z"/>
<path style="fill:#55852F;" d="M1453.388,1309.714c-1.582-0.28-3.188,0.818-3.588,2.453c-0.399,1.635,0.561,3.188,2.143,3.467
	c1.582,0.28,3.189-0.818,3.587-2.453C1455.93,1311.546,1454.97,1309.994,1453.388,1309.714z"/>
<path style="fill:#55852F;" d="M1471.718,1164.479c-3.532,1.491-5.425,5.525-4.227,9.011c1.198,3.486,5.033,5.103,8.565,3.611
	c3.532-1.491,5.425-5.525,4.227-9.011C1479.085,1164.604,1475.25,1162.989,1471.718,1164.479z"/>
<path style="fill:#55852F;" d="M1480.203,1293.931c3.532-1.491,5.425-5.526,4.227-9.011s-5.032-5.102-8.565-3.611
	c-3.532,1.491-5.424,5.525-4.227,9.011C1472.837,1293.805,1476.671,1295.422,1480.203,1293.931z"/>
<path style="fill:#55852F;" d="M1477.54,1250.663c3.533-1.491,5.425-5.526,4.227-9.011c-1.198-3.485-5.032-5.102-8.565-3.611
	c-3.532,1.492-5.425,5.526-4.227,9.011C1470.173,1250.538,1474.008,1252.154,1477.54,1250.663z"/>
<path style="fill:#55852F;" d="M1452.592,1289.091c-1.251-3.64-5.255-5.328-8.943-3.771c-3.689,1.558-5.665,5.77-4.414,9.409
	c1.251,3.639,5.255,5.328,8.944,3.771C1451.867,1296.943,1453.843,1292.731,1452.592,1289.091z"/>
<path style="fill:#55852F;" d="M1459.225,1222.127c6.454-2.724,9.911-10.095,7.723-16.463c-2.189-6.368-9.194-9.321-15.648-6.597
	s-9.911,10.095-7.723,16.464C1445.766,1221.898,1452.771,1224.851,1459.225,1222.127z"/>
<path style="fill:#55852F;" d="M1477.658,1303.529c-4.63,1.954-7.11,7.241-5.54,11.81c1.569,4.568,6.595,6.686,11.225,4.732
	c4.629-1.954,7.109-7.242,5.54-11.809C1487.313,1303.692,1482.287,1301.573,1477.658,1303.529z"/>
<path style="fill:#55852F;" d="M1454.436,1276.885c6.276-2.649,9.638-9.816,7.509-16.008c-2.128-6.192-8.94-9.064-15.215-6.415
	c-6.275,2.65-9.637,9.817-7.51,16.009C1441.348,1276.663,1448.161,1279.534,1454.436,1276.885z"/>
<path style="fill:#55852F;" d="M1497.157,1152.136c-6.275,2.649-9.637,9.816-7.51,16.008c2.128,6.192,8.94,9.064,15.216,6.415
	c6.275-2.649,9.637-9.816,7.51-16.008C1510.244,1152.359,1503.432,1149.487,1497.157,1152.136z"/>
<path style="fill:#55852F;" d="M1492.108,1259.58c-4.629,1.954-7.11,7.242-5.54,11.81c1.57,4.568,6.595,6.686,11.225,4.732
	c4.629-1.955,7.11-7.242,5.54-11.81C1501.763,1259.743,1496.738,1257.625,1492.108,1259.58z"/>
<path style="fill:#55852F;" d="M1489.677,1241.528c0.831,2.416,3.489,3.537,5.937,2.503c2.449-1.034,3.761-3.831,2.931-6.247
	c-0.831-2.416-3.488-3.536-5.937-2.503C1490.159,1236.315,1488.847,1239.112,1489.677,1241.528z"/>
<path style="fill:#55852F;" d="M1467.191,1298.232c-1.128,0.477-1.733,1.765-1.35,2.878c0.383,1.114,1.607,1.63,2.736,1.153
	c1.128-0.476,1.733-1.765,1.35-2.878C1469.544,1298.272,1468.32,1297.756,1467.191,1298.232z"/>
<path style="fill:#55852F;" d="M1476.939,1263.446c-1.766,0.746-2.712,2.763-2.113,4.505c0.599,1.743,2.516,2.551,4.283,1.806
	c1.766-0.745,2.713-2.763,2.113-4.506C1480.623,1263.509,1478.705,1262.7,1476.939,1263.446z"/>
<path style="fill:#55852F;" d="M1486.079,1185.531c-1.767,0.746-2.713,2.763-2.113,4.506c0.599,1.743,2.516,2.551,4.282,1.806
	c1.766-0.746,2.713-2.763,2.114-4.505C1489.762,1185.594,1487.845,1184.786,1486.079,1185.531z"/>
<path style="fill:#55852F;" d="M1492.294,1135.944c3.831-1.617,5.884-5.993,4.584-9.774c-1.299-3.781-5.458-5.534-9.289-3.916
	c-3.832,1.618-5.884,5.993-4.585,9.773C1484.304,1135.808,1488.463,1137.561,1492.294,1135.944z"/>
<path style="fill:#55852F;" d="M1453.204,1176.891c1.766-0.745,2.712-2.762,2.113-4.506c-0.599-1.742-2.517-2.551-4.283-1.805
	c-1.766,0.745-2.712,2.762-2.113,4.506C1449.52,1176.828,1451.438,1177.637,1453.204,1176.891z"/>
<path style="fill:#55852F;" d="M1501.267,1201.257c-2.81,1.186-4.315,4.395-3.362,7.168c0.953,2.772,4.003,4.057,6.813,2.872
	c2.81-1.186,4.315-4.396,3.363-7.168C1507.127,1201.357,1504.077,1200.071,1501.267,1201.257z"/>
<path style="fill:#55852F;" d="M1475.428,1221.426c-1.766,0.746-2.713,2.763-2.114,4.506c0.599,1.743,2.516,2.551,4.283,1.805
	c1.766-0.745,2.713-2.763,2.113-4.506C1479.112,1221.488,1477.195,1220.68,1475.428,1221.426z"/>
<path style="fill:#55852F;" d="M1469.075,1193.469c1.766-0.746,2.713-2.763,2.113-4.506c-0.599-1.743-2.516-2.551-4.283-1.806
	c-1.766,0.746-2.712,2.763-2.113,4.506C1465.392,1193.406,1467.309,1194.214,1469.075,1193.469z"/>
<path style="fill:#55852F;" d="M1478.531,1144.073c-1.766,0.745-2.713,2.763-2.113,4.506c0.599,1.742,2.516,2.551,4.282,1.805
	c1.766-0.745,2.713-2.763,2.114-4.506C1482.214,1144.136,1480.297,1143.328,1478.531,1144.073z"/>
<path style="fill:#55852F;" d="M1453.225,1232.437c-2.462,1.039-3.781,3.85-2.946,6.28c0.835,2.43,3.508,3.556,5.97,2.516
	c2.462-1.039,3.781-3.85,2.946-6.28C1458.359,1232.524,1455.687,1231.398,1453.225,1232.437z"/>
<path style="fill:#55852F;" d="M1481.572,1207.073c1.766-0.746,2.713-2.763,2.114-4.506c-0.599-1.743-2.516-2.551-4.282-1.805
	c-1.766,0.746-2.713,2.763-2.113,4.505C1477.888,1207.01,1479.805,1207.818,1481.572,1207.073z"/>
<path style="fill:#55852F;" d="M1493.032,1221.745c0.883-0.373,1.356-1.382,1.057-2.253c-0.299-0.871-1.258-1.276-2.141-0.903
	c-0.883,0.373-1.356,1.382-1.057,2.254C1491.19,1221.713,1492.149,1222.118,1493.032,1221.745z"/>
<path style="fill:#55852F;" d="M1457.271,1152.611c0.883-0.373,1.356-1.382,1.057-2.253c-0.3-0.872-1.258-1.276-2.141-0.903
	c-0.883,0.373-1.356,1.381-1.057,2.253C1455.429,1152.579,1456.388,1152.984,1457.271,1152.611z"/>
<path style="fill:#55852F;" d="M1454.348,1190.07c-0.883,0.373-1.356,1.381-1.057,2.253c0.299,0.872,1.258,1.276,2.141,0.903
	c0.883-0.373,1.356-1.381,1.057-2.253C1456.19,1190.101,1455.231,1189.698,1454.348,1190.07z"/>
<path style="fill:#55852F;" d="M1463.661,1326.573c-0.883,0.373-1.356,1.381-1.056,2.252c0.299,0.872,1.258,1.275,2.141,0.903
	c0.883-0.373,1.355-1.381,1.056-2.253C1465.503,1326.604,1464.544,1326.2,1463.661,1326.573z"/>
<path style="fill:#55852F;" d="M1459.333,1280.077c-1.249,0.527-1.918,1.954-1.494,3.185c0.423,1.233,1.779,1.804,3.028,1.277
	c1.249-0.527,1.918-1.953,1.494-3.185C1461.938,1280.121,1460.582,1279.55,1459.333,1280.077z"/>
<path style="fill:#55852F;" d="M1438.549,1229.124c-0.433-1.259-1.818-1.843-3.093-1.304c-1.275,0.538-1.959,1.996-1.526,3.254
	c0.433,1.259,1.818,1.842,3.093,1.304C1438.298,1231.84,1438.981,1230.383,1438.549,1229.124z"/>
<path style="fill:#55852F;" d="M1442.698,1248.303c1.766-0.745,2.713-2.762,2.114-4.505c-0.599-1.743-2.516-2.551-4.283-1.806
	s-2.712,2.762-2.113,4.506C1439.015,1248.24,1440.932,1249.048,1442.698,1248.303z"/>
<path style="fill:#E1DE7C;" d="M1376.895,1198.385c-0.08-1.941-0.172-3.883-0.275-5.824c-0.156-2.912-0.337-5.822-0.544-8.73
	c-0.139-1.939-0.288-3.877-0.45-5.814c-0.081-0.968-0.165-1.937-0.251-2.905c-0.173-1.936-0.358-3.871-0.554-5.805
	c-0.295-2.9-0.615-5.798-0.961-8.693c-0.461-3.859-0.969-7.713-1.521-11.559c-0.829-5.768-1.759-11.521-2.79-17.253
	c-0.344-1.911-0.699-3.819-1.065-5.724c-0.366-1.905-0.743-3.809-1.132-5.709c-0.582-2.85-1.19-5.695-1.822-8.533
	c-0.21-0.946-0.424-1.891-0.64-2.836c-0.432-1.889-0.876-3.775-1.331-5.658c-0.227-0.941-0.457-1.882-0.69-2.822
	c-3.722-15.036-8.143-29.865-13.236-44.394c-2.609-7.444-5.401-14.814-8.379-22.099c-0.316-0.774-0.636-1.547-0.958-2.318
	l-0.257-0.613c-0.244-0.582-0.489-1.164-0.736-1.744l-0.267-0.629c-0.264-0.618-0.53-1.234-0.798-1.851l-0.219-0.504
	c-0.329-0.755-0.661-1.51-0.996-2.263l-0.234-0.521c-0.259-0.58-0.519-1.161-0.781-1.739l-0.34-0.749
	c-0.247-0.54-0.493-1.08-0.742-1.618l-0.316-0.685c-0.313-0.675-0.629-1.349-0.946-2.021l-0.105-0.224
	c-0.355-0.75-0.712-1.498-1.072-2.244l-0.309-0.639c-0.26-0.536-0.52-1.073-0.782-1.607l-0.384-0.781
	c-0.246-0.499-0.494-0.998-0.743-1.496l-0.379-0.76c-0.36-0.716-0.722-1.431-1.087-2.145l-0.218-0.424
	c-0.305-0.594-0.611-1.188-0.919-1.781l-0.41-0.786c-0.245-0.469-0.492-0.936-0.739-1.405l-0.45-0.847
	c-0.27-0.506-0.541-1.012-0.813-1.517l-0.358-0.665c-0.374-0.689-0.75-1.377-1.128-2.065l-0.451-0.812l-0.742-1.333l-0.528-0.939
	l-0.701-1.236l-0.518-0.906c-0.306-0.533-0.613-1.065-0.921-1.596l-0.48-0.824c-0.329-0.563-0.661-1.126-0.993-1.688l-0.553-0.928
	l-0.709-1.184l-0.582-0.962l-0.716-1.174l-0.573-0.935c-0.393-0.637-0.788-1.273-1.185-1.906l-0.544-0.864l-0.767-1.212
	l-0.631-0.986l-0.677-1.051l-0.656-1.011l-0.754-1.149l-0.576-0.875l0.002,0.013c5.803,33.969,8.072,68.636,6.526,103.048
	c-3.762,83.695-31.25,166.949-89.775,224.461c-10.592,10.409-21.838,19.847-33.619,28.351
	c-36.775,26.544-78.984,43.95-122.343,53.385c-113.545,24.706-242.971-10.49-316.079-104.214l-0.001-0.001l0.028,0.196
	c0.129,0.938,0.259,1.875,0.393,2.812l0.029,0.202c0.125,0.874,0.252,1.746,0.381,2.618l0.097,0.65
	c0.106,0.714,0.214,1.427,0.323,2.139l0.12,0.785c0.141,0.914,0.283,1.828,0.429,2.739l0.001,0.008
	c0.426,2.678,0.871,5.345,1.334,8.003l0.005,0.031c0.231,1.324,0.466,2.645,0.705,3.964l0.008,0.046
	c0.231,1.276,0.468,2.55,0.708,3.821l0.036,0.195c0.477,2.522,0.971,5.033,1.48,7.532l0.101,0.494
	c0.252,1.231,0.506,2.46,0.766,3.685l0.023,0.107c0.242,1.138,0.486,2.271,0.734,3.405l0.163,0.744
	c0.26,1.18,0.522,2.359,0.789,3.534l0.015,0.065c0.26,1.145,0.524,2.285,0.791,3.424l0.172,0.734
	c0.272,1.158,0.547,2.314,0.827,3.466l0.029,0.12c0.265,1.094,0.535,2.185,0.806,3.274l0.216,0.861
	c0.283,1.128,0.569,2.255,0.858,3.376c1.177,4.558,2.452,9.044,3.822,13.456c0.391,1.261,0.79,2.515,1.197,3.764
	c0.61,1.872,1.238,3.732,1.882,5.578c1.718,4.923,3.557,9.75,5.512,14.481c0.489,1.183,0.985,2.36,1.488,3.531
	c0.503,1.17,1.013,2.335,1.531,3.494c0.517,1.159,1.042,2.312,1.573,3.459c0.797,1.72,1.611,3.427,2.439,5.12
	c1.105,2.258,2.237,4.492,3.397,6.702c0.58,1.105,1.166,2.203,1.76,3.296c0.593,1.093,1.193,2.18,1.8,3.261
	c0.909,1.622,1.834,3.229,2.773,4.824c0.939,1.594,1.893,3.175,2.861,4.742c0.646,1.045,1.298,2.084,1.956,3.117
	c0.658,1.033,1.323,2.059,1.993,3.08c0.335,0.51,0.672,1.02,1.011,1.527c0.423,0.634,0.849,1.266,1.277,1.896
	c1.284,1.889,2.588,3.756,3.915,5.603c0.707,0.985,1.421,1.964,2.14,2.936c1.079,1.459,2.171,2.905,3.277,4.337
	c1.474,1.909,2.971,3.795,4.491,5.657c3.039,3.722,6.17,7.348,9.386,10.878c0.804,0.883,1.613,1.759,2.428,2.63
	c1.222,1.306,2.456,2.597,3.702,3.875c0.83,0.853,1.666,1.699,2.507,2.539c2.522,2.521,5.09,4.987,7.702,7.4
	c0.871,0.804,1.746,1.602,2.626,2.394l1.324,1.184c0.553,0.491,1.108,0.98,1.665,1.466c1.113,0.973,2.235,1.937,3.364,2.891
	c0.564,0.478,1.13,0.952,1.698,1.424c0.454,0.378,0.909,0.754,1.366,1.13c1.37,1.125,2.749,2.235,4.139,3.333
	c1.39,1.098,2.789,2.182,4.198,3.251c1.409,1.07,2.828,2.127,4.257,3.17c2.381,1.738,4.788,3.439,7.22,5.102
	c0.486,0.333,0.974,0.663,1.462,0.993c3.907,2.636,7.878,5.175,11.908,7.618c3.069,1.86,6.173,3.664,9.308,5.412
	c1.254,0.699,2.514,1.39,3.778,2.07c0.633,0.341,1.265,0.679,1.9,1.015c1.904,1.008,3.819,1.997,5.744,2.964
	c0.642,0.323,1.285,0.644,1.929,0.961c1.289,0.636,2.581,1.263,3.879,1.881c0.649,0.309,1.299,0.616,1.949,0.921
	c1.302,0.609,2.609,1.209,3.919,1.8c0.655,0.296,1.312,0.59,1.969,0.881c1.315,0.582,2.634,1.154,3.957,1.718
	c7.94,3.385,16.026,6.443,24.231,9.178c1.683,0.56,3.371,1.108,5.063,1.641c2.257,0.711,4.522,1.399,6.796,2.061
	c1.136,0.331,2.275,0.656,3.415,0.975c4.561,1.277,9.152,2.456,13.769,3.537c1.154,0.271,2.309,0.534,3.467,0.792
	c1.736,0.387,3.474,0.761,5.217,1.12c1.161,0.24,2.324,0.474,3.488,0.702c1.746,0.341,3.495,0.669,5.247,0.983
	c1.168,0.21,2.337,0.412,3.507,0.61c1.17,0.197,2.341,0.388,3.514,0.573c2.344,0.37,4.693,0.715,7.046,1.036
	c2.352,0.321,4.708,0.617,7.067,0.89c1.769,0.203,3.54,0.394,5.312,0.57c0.59,0.059,1.181,0.117,1.772,0.172
	c1.773,0.168,3.548,0.321,5.323,0.461c2.367,0.187,4.736,0.348,7.107,0.485c1.185,0.069,2.371,0.132,3.557,0.188
	c1.779,0.084,3.558,0.156,5.338,0.213c1.186,0.038,2.373,0.07,3.559,0.096c1.187,0.026,2.373,0.046,3.56,0.059
	c5.933,0.068,11.866-0.017,17.789-0.255c1.184-0.048,2.369-0.102,3.553-0.161c5.918-0.3,11.826-0.753,17.712-1.36
	c1.177-0.121,2.353-0.249,3.529-0.383c2.939-0.334,5.872-0.706,8.798-1.117c1.755-0.246,3.509-0.506,5.259-0.781
	c6.418-1.006,12.799-2.197,19.13-3.575c14.905-3.244,29.673-7.428,44.133-12.603c2.629-0.94,5.247-1.914,7.855-2.921
	c3.911-1.509,7.796-3.094,11.653-4.753c1.285-0.553,2.568-1.115,3.847-1.685c1.279-0.569,2.555-1.147,3.827-1.734
	c1.272-0.587,2.541-1.182,3.806-1.785c1.265-0.604,2.526-1.216,3.785-1.837c1.258-0.62,2.511-1.249,3.762-1.886
	c1.25-0.637,2.496-1.284,3.739-1.938c1.242-0.654,2.481-1.318,3.715-1.989c1.234-0.672,2.464-1.352,3.69-2.042
	c3.064-1.722,6.102-3.499,9.111-5.33c0.602-0.367,1.203-0.734,1.802-1.105c5.995-3.706,11.874-7.631,17.62-11.778
	c2.945-2.126,5.857-4.311,8.733-6.554c8.63-6.73,16.942-13.991,24.886-21.797c17.375-17.074,32.014-36.417,44.109-57.366
	c0.637-1.103,1.266-2.21,1.889-3.321c4.357-7.78,8.371-15.773,12.05-23.947c0.525-1.167,1.044-2.338,1.556-3.513
	c0.256-0.588,0.51-1.176,0.763-1.766c0.505-1.178,1.003-2.36,1.495-3.546c0.245-0.592,0.49-1.186,0.732-1.781
	c0.484-1.189,0.963-2.381,1.434-3.576c0.943-2.391,1.859-4.795,2.749-7.212c0.445-1.208,0.882-2.42,1.314-3.635
	c0.647-1.821,1.279-3.649,1.897-5.485c0.618-1.834,1.22-3.676,1.808-5.523c0.98-3.079,1.919-6.175,2.817-9.286
	c1.258-4.356,2.437-8.742,3.537-13.155c0.314-1.261,0.622-2.524,0.924-3.788c0.603-2.53,1.181-5.068,1.734-7.613
	c0.553-2.545,1.08-5.097,1.583-7.657c1.005-5.119,1.91-10.263,2.718-15.429c0.202-1.291,0.398-2.583,0.587-3.877
	c0.569-3.881,1.083-7.772,1.542-11.672c0.077-0.649,0.152-1.3,0.225-1.95c1.104-9.755,1.871-19.557,2.312-29.365
	c0.566-12.603,0.621-25.24,0.178-37.864C1376.972,1200.327,1376.935,1199.356,1376.895,1198.385z"/>
<path style="fill:#F39D90;" d="M966.926,736.906c25.347,12.2,55.722,19.271,88.339,19.271c58.56,0,109.751-22.707,137.836-56.668
	c-22.906-14.839-52.136-24.749-84.405-27.039C1044.061,667.888,987.294,695.276,966.926,736.906z"/>
<ellipse transform="matrix(0.9998 -0.0218 0.0218 0.9998 -9.7913 19.4609)" style="fill:#FCF5B9;" cx="888.163" cy="459.051" rx="68.069" ry="68.068"/>
<path style="fill:#FFFFFF;" d="M888.147,420.347c-3.253,0-6.404,0.44-9.385,1.288c-7.115,1.931-13.349,6.031-17.89,11.587
	c-5.048,6.099-8.097,13.959-8.097,22.498c0,19.55,15.857,35.372,35.372,35.372c19.549,0,35.406-15.822,35.406-35.372
	C923.553,436.169,907.697,420.347,888.147,420.347z"/>
<ellipse transform="matrix(0.2298 -0.9732 0.9732 0.2298 494.8887 1543.421)" style="fill:#FCF5B9;" cx="1222.542" cy="459.051" rx="68.068" ry="68.069"/>
<path style="fill:#FFFFFF;" d="M1222.527,420.347c-3.253,0-6.404,0.44-9.385,1.288c-7.115,1.931-13.35,6.031-17.89,11.587
	c-5.048,6.099-8.098,13.959-8.098,22.498c0,19.55,15.857,35.372,35.373,35.372c19.55,0,35.406-15.822,35.406-35.372
	C1257.933,436.169,1242.077,420.347,1222.527,420.347z"/>
<path style="fill:#432918;" d="M1222.527,491.092c19.55,0,35.406-15.822,35.406-35.372c0-19.55-15.857-35.373-35.406-35.373
	c-3.253,0-6.404,0.44-9.385,1.288c4.743,1.965,8.064,6.607,8.064,12.028c0,7.149-5.828,12.977-13.011,12.977
	c-7.149,0-12.976-5.828-12.976-12.977l0.034-0.441c-5.048,6.099-8.098,13.959-8.098,22.498
	C1187.154,475.27,1203.011,491.092,1222.527,491.092z"/>
<path style="fill:#41762F;" d="M982.976,585.426c10.881,5.879,22.579,5.319,26.128-1.25c3.548-6.568-2.396-16.658-13.277-22.536
	c-10.881-5.878-33.925-12.481-37.474-5.913C954.804,562.296,972.095,579.548,982.976,585.426z"/>
<path style="fill:#41762F;" d="M1101.601,584.176c3.549,6.569,15.246,7.128,26.128,1.25c10.881-5.878,28.172-23.13,24.624-29.699
	c-3.549-6.568-26.593,0.035-37.474,5.913C1103.998,567.518,1098.053,577.608,1101.601,584.176z"/>
<path style="fill:#55852F;" d="M986.886,456.755l0.651-0.28c1.655-0.893,2.486-2.868,1.879-4.718
	c-0.312-0.95-0.949-1.702-1.747-2.174c-0.948-0.561-2.123-0.726-3.252-0.356c-2.079,0.682-3.211,2.92-2.529,4.999
	C982.569,456.305,984.807,457.437,986.886,456.755z"/>
<path style="fill:#55852F;" d="M1028.073,473.048c3.888,3.144,9.589,2.541,12.733-1.348c3.144-3.889,2.541-9.589-1.348-12.733
	c-3.889-3.144-9.589-2.541-12.733,1.348C1023.581,464.203,1024.185,469.904,1028.073,473.048z"/>
<path style="fill:#55852F;" d="M1073.43,426.555c-3.145,3.889-2.541,9.59,1.348,12.733c3.888,3.145,9.588,2.541,12.732-1.347
	c3.144-3.888,2.541-9.589-1.347-12.733c-0.53-0.429-1.095-0.786-1.682-1.076c-2.517-1.247-5.45-1.234-7.925-0.049
	C1075.379,424.645,1074.305,425.473,1073.43,426.555z"/>
<path style="fill:#55852F;" d="M1002.807,438.236c4.08,3.274,10.024,2.619,13.298-1.41c3.072-3.778,2.77-9.067-0.504-12.442
	c-2.368,0.075-4.735,0.164-7.102,0.264c-2.368,0.1-4.735,0.214-7.102,0.34C998.122,429.019,998.777,434.911,1002.807,438.236z"/>
<path style="fill:#55852F;" d="M1010.782,506.111c5.096,4.12,12.567,3.33,16.688-1.766c4.121-5.096,3.33-12.567-1.766-16.688
	c-5.096-4.12-12.567-3.33-16.688,1.766C1004.895,494.519,1005.685,501.99,1010.782,506.111z"/>
<path style="fill:#55852F;" d="M1030.914,430.378c6.901,5.592,17.076,4.484,22.617-2.418c0.906-1.108,1.612-2.267,2.166-3.475
	h-0.353c-8.501-0.309-17.003-0.462-25.47-0.396c-1.215,0.01-2.43,0.024-3.644,0.043
	C1027.187,426.5,1028.798,428.666,1030.914,430.378z"/>
<path style="fill:#55852F;" d="M1060.507,463.252c-2.798,3.459-2.261,8.532,1.199,11.33c3.46,2.797,8.532,2.261,11.33-1.199
	c2.797-3.46,2.261-8.532-1.199-11.33C1068.376,459.255,1063.304,459.792,1060.507,463.252z"/>
<path style="fill:#55852F;" d="M1097.36,462.033c2.068-1.46,2.561-4.32,1.101-6.389c-1.46-2.068-4.32-2.561-6.389-1.101
	c-2.068,1.46-2.561,4.32-1.101,6.389C1092.431,463,1095.291,463.492,1097.36,462.033z"/>
<path style="fill:#55852F;" d="M1011.446,465.12c1.242,1.005,3.063,0.812,4.067-0.43c1.004-1.242,0.812-3.063-0.43-4.068
	c-1.242-1.004-3.063-0.812-4.068,0.431C1010.011,462.295,1010.204,464.116,1011.446,465.12z"/>
<path style="fill:#55852F;" d="M1054.415,454.653c1.944,1.572,4.794,1.27,6.367-0.675c1.572-1.944,1.27-4.794-0.674-6.366
	c-1.944-1.572-4.794-1.27-6.367,0.674C1052.169,450.231,1052.47,453.081,1054.415,454.653z"/>
<path style="fill:#55852F;" d="M1113.697,451.358c1.745,1.411,4.303,1.14,5.714-0.605c1.411-1.745,1.14-4.302-0.605-5.714
	c-1.745-1.41-4.303-1.14-5.714,0.605C1111.681,447.389,1111.952,449.947,1113.697,451.358z"/>
<path style="fill:#55852F;" d="M1104.456,427.809c1.965,1.562,4.785,1.31,6.397-0.655c0.453-0.605,0.806-1.309,0.906-2.014
	c-2.922-0.152-5.943-0.302-8.915-0.504C1102.894,425.845,1103.448,427.003,1104.456,427.809z"/>
<path style="fill:#55852F;" d="M1051.341,491.35c1.944,1.573,4.794,1.271,6.366-0.673c1.572-1.944,1.271-4.794-0.673-6.367
	c-1.944-1.572-4.794-1.271-6.367,0.673C1049.095,486.928,1049.397,489.778,1051.341,491.35z"/>
<path style="fill:#55852F;" d="M1078.704,486.777c0.972,0.786,2.397,0.635,3.183-0.337c0.786-0.972,0.635-2.397-0.337-3.184
	c-0.972-0.785-2.397-0.635-3.183,0.338C1077.581,484.567,1077.732,485.991,1078.704,486.777z"/>
<path style="fill:#55852F;" d="M994.405,475.87c0.972,0.786,2.397,0.636,3.184-0.337c0.786-0.972,0.635-2.397-0.337-3.183
	c-0.972-0.786-2.397-0.635-3.183,0.337C993.282,473.659,993.432,475.084,994.405,475.87z"/>
<path style="fill:#55852F;" d="M1100.57,496.639c3.064,2.477,7.555,2.001,10.032-1.062c2.477-3.063,2.002-7.555-1.062-10.033
	c-3.063-2.477-7.555-2.002-10.032,1.062C1097.031,489.67,1097.506,494.161,1100.57,496.639z"/>
<path style="fill:#55852F;" d="M1026.418,443.424c1.375,1.112,3.39,0.898,4.501-0.477c1.112-1.375,0.899-3.39-0.476-4.501
	c-1.375-1.112-3.39-0.898-4.502,0.476C1024.83,440.297,1025.043,442.312,1026.418,443.424z"/>
<path style="fill:#55852F;" d="M1323.853,568.401c-1.483-1.822-4.148-2.109-5.986-0.661l-0.054,0.042
	c-1.839,1.497-2.116,4.201-0.619,6.04c1.497,1.839,4.201,2.116,6.04,0.619c0.949-0.772,1.481-1.866,1.569-2.997
	C1324.885,570.384,1324.577,569.292,1323.853,568.401z"/>
<path style="fill:#55852F;" d="M1321.976,629.765c5.155,1.672,10.69-1.151,12.362-6.307c1.672-5.156-1.151-10.691-6.307-12.362
	c-5.155-1.673-10.691,1.151-12.362,6.307C1313.997,622.558,1316.821,628.093,1321.976,629.765z"/>
<path style="fill:#55852F;" d="M1374.273,663.923c5.155,1.672,10.69-1.152,12.362-6.308c1.672-5.155-1.151-10.69-6.307-12.362
	c-5.156-1.672-10.691,1.151-12.363,6.307C1366.293,656.715,1369.117,662.25,1374.273,663.923z"/>
<path style="fill:#55852F;" d="M1360.615,584.656c1.746-5.383-1.202-11.162-6.586-12.909c-5.383-1.746-11.163,1.202-12.909,6.586
	c-0.365,1.125-0.522,2.268-0.497,3.389c0.094,4.235,2.825,8.139,7.083,9.52c1.68,0.544,3.398,0.632,5.021,0.332
	C1356.303,590.911,1359.414,588.36,1360.615,584.656z"/>
<path style="fill:#55852F;" d="M1290.874,614.649c6.757,2.192,14.011-1.509,16.202-8.266c2.192-6.756-1.509-14.01-8.266-16.202
	c-6.757-2.192-14.011,1.509-16.202,8.266C1280.417,605.203,1284.118,612.457,1290.874,614.649z"/>
<path style="fill:#55852F;" d="M1393.137,614.483c2.971-9.158-2.046-18.991-11.204-21.962c-7.875-2.554-16.247,0.796-20.329,7.607
	c-0.666,1.111-1.217,2.313-1.634,3.598c-2.97,9.159,2.046,18.991,11.205,21.962c3.659,1.187,7.426,1.097,10.82-0.02
	C1387.095,623.987,1391.353,619.983,1393.137,614.483z"/>
<path style="fill:#55852F;" d="M1327.175,652.033c-1.488,4.587,1.025,9.512,5.612,11c4.587,1.488,9.512-1.025,11-5.612
	c1.488-4.587-1.025-9.512-5.612-11C1333.587,644.933,1328.662,647.446,1327.175,652.033z"/>
<path style="fill:#55852F;" d="M1362.635,685.653c3.574,1.159,7.41-0.798,8.569-4.372c1.159-3.574-0.798-7.41-4.372-8.569
	c-3.574-1.159-7.41,0.798-8.57,4.371C1357.104,680.657,1359.061,684.494,1362.635,685.653z"/>
<path style="fill:#55852F;" d="M1319.251,601.448c1.647,0.534,3.415-0.368,3.949-2.015c0.534-1.647-0.368-3.414-2.015-3.949
	c-1.647-0.534-3.415,0.368-3.949,2.015C1316.703,599.146,1317.604,600.914,1319.251,601.448z"/>
<path style="fill:#55852F;" d="M1347.665,643.099c2.578,0.836,5.345-0.575,6.181-3.153c0.836-2.578-0.576-5.345-3.154-6.181
	c-2.578-0.837-5.345,0.576-6.181,3.153C1343.675,639.496,1345.087,642.263,1347.665,643.099z"/>
<path style="fill:#55852F;" d="M1392.514,677.453c2.578,0.836,5.345-0.576,6.181-3.154c0.836-2.578-0.576-5.345-3.154-6.181
	c-2.578-0.836-5.345,0.576-6.181,3.154C1388.524,673.849,1389.936,676.616,1392.514,677.453z"/>
<path style="fill:#55852F;" d="M1386.359,693.348c-0.418,1.289,0.287,2.673,1.577,3.09c1.289,0.419,2.672-0.287,3.09-1.577
	c0.418-1.289-0.287-2.673-1.577-3.09C1388.161,691.353,1386.777,692.059,1386.359,693.348z"/>
<path style="fill:#55852F;" d="M1391.659,637.675c-0.418,1.289,0.287,2.673,1.577,3.091c1.289,0.418,2.673-0.288,3.091-1.577
	c0.418-1.289-0.288-2.672-1.577-3.091C1393.46,635.68,1392.077,636.386,1391.659,637.675z"/>
<path style="fill:#55852F;" d="M1290.912,572.846c1.289,0.418,2.673-0.288,3.091-1.576c0.418-1.289-0.288-2.673-1.577-3.091
	c-1.289-0.419-2.673,0.288-3.091,1.576C1288.917,571.044,1289.623,572.428,1290.912,572.846z"/>
<path style="fill:#55852F;" d="M1347.235,608.596c1.822,0.591,3.779-0.407,4.37-2.23c0.591-1.823-0.407-3.78-2.23-4.37
	c-1.822-0.591-3.779,0.407-4.37,2.23C1344.415,606.049,1345.413,608.006,1347.235,608.596z"/>
<path style="fill:#55852F;" d="M797.529,567.782c-1.839-1.497-4.543-1.22-6.04,0.619c-1.445,1.776-1.236,4.358,0.435,5.882
	l0.184,0.158c1.839,1.497,4.543,1.219,6.04-0.619c0.583-0.716,0.896-1.564,0.953-2.419
	C799.191,570.061,798.652,568.696,797.529,567.782z"/>
<path style="fill:#55852F;" d="M787.31,611.096c-5.155,1.671-7.979,7.207-6.307,12.362c1.672,5.155,7.207,7.979,12.362,6.307
	c5.155-1.672,7.979-7.207,6.307-12.362C798,612.247,792.466,609.423,787.31,611.096z"/>
<path style="fill:#55852F;" d="M747.376,651.559c-1.672-5.155-7.207-7.979-12.362-6.307c-5.156,1.672-7.979,7.207-6.307,12.362
	c1.672,5.156,7.207,7.979,12.362,6.308C746.224,662.25,749.048,656.715,747.376,651.559z"/>
<path style="fill:#55852F;" d="M774.221,578.333c-1.746-5.384-7.525-8.332-12.909-6.586c-5.383,1.746-8.332,7.526-6.586,12.909
	c1.123,3.464,3.918,5.917,7.201,6.763c1.819,0.469,3.789,0.445,5.708-0.177c3.777-1.225,6.352-4.436,6.952-8.101
	C774.843,581.581,774.743,579.94,774.221,578.333z"/>
<path style="fill:#55852F;" d="M816.531,590.18c-6.757,2.192-10.458,9.446-8.266,16.202c2.192,6.757,9.446,10.458,16.202,8.266
	c6.757-2.191,10.458-9.446,8.266-16.202C830.542,591.69,823.288,587.989,816.531,590.18z"/>
<path style="fill:#55852F;" d="M733.409,592.521c-9.159,2.971-14.175,12.804-11.204,21.962c1.082,3.337,3.076,6.124,5.616,8.175
	c4.431,3.579,10.524,4.918,16.346,3.03c9.159-2.971,14.175-12.803,11.204-21.962c-0.625-1.928-1.556-3.67-2.719-5.196
	C748.291,592.811,740.641,590.176,733.409,592.521z"/>
<path style="fill:#55852F;" d="M777.168,646.421c-4.587,1.488-7.1,6.413-5.612,11c1.488,4.587,6.413,7.1,11,5.612
	c4.587-1.488,7.1-6.413,5.612-11C786.68,647.446,781.755,644.933,777.168,646.421z"/>
<path style="fill:#55852F;" d="M748.51,672.712c-3.574,1.159-5.531,4.995-4.372,8.569c1.159,3.574,4.995,5.531,8.569,4.372
	c3.574-1.159,5.531-4.996,4.372-8.57C755.92,673.51,752.083,671.552,748.51,672.712z"/>
<path style="fill:#55852F;" d="M796.091,601.448c1.646-0.534,2.548-2.302,2.014-3.949c-0.534-1.647-2.302-2.549-3.949-2.015
	c-1.647,0.535-2.549,2.302-2.015,3.949C792.676,601.08,794.443,601.982,796.091,601.448z"/>
<path style="fill:#55852F;" d="M764.649,633.765c-2.578,0.836-3.99,3.603-3.154,6.181c0.836,2.578,3.604,3.989,6.181,3.153
	c2.577-0.836,3.99-3.603,3.154-6.181C769.995,634.34,767.227,632.928,764.649,633.765z"/>
<path style="fill:#55852F;" d="M725.982,671.271c-0.836-2.577-3.604-3.99-6.182-3.154c-2.577,0.836-3.989,3.604-3.153,6.181
	c0.836,2.577,3.604,3.99,6.181,3.154C725.406,676.616,726.818,673.849,725.982,671.271z"/>
<path style="fill:#55852F;" d="M725.892,691.771c-1.289,0.418-1.995,1.802-1.577,3.09c0.418,1.289,1.802,1.995,3.091,1.577
	c1.289-0.418,1.995-1.802,1.576-3.09C728.565,692.059,727.181,691.353,725.892,691.771z"/>
<path style="fill:#55852F;" d="M722.107,640.766c1.289-0.418,1.995-1.802,1.577-3.091c-0.418-1.289-1.802-1.995-3.091-1.577
	c-1.289,0.419-1.995,1.802-1.577,3.091C719.434,640.477,720.818,641.184,722.107,640.766z"/>
<path style="fill:#55852F;" d="M824.43,572.846c1.289-0.418,1.995-1.802,1.577-3.091s-1.802-1.995-3.091-1.576
	c-1.289,0.417-1.995,1.801-1.577,3.091C821.757,572.559,823.141,573.265,824.43,572.846z"/>
<path style="fill:#55852F;" d="M768.107,608.596c1.823-0.591,2.821-2.547,2.23-4.37c-0.591-1.823-2.548-2.821-4.37-2.23
	c-1.823,0.591-2.821,2.547-2.23,4.37C764.327,608.189,766.284,609.188,768.107,608.596z"/>
<path style="fill:#41762F;" d="M1035.225,782.25c6.687,6.169,15.323,9.975,24.489,9.994c9.359,0.02,18.263-3.642,25.501-9.454
	c1.445-1.161,1.908-3.335,1.273-5.054c-0.521-1.411-2.182-2.722-3.632-1.558c-6.467,5.192-14.313,8.612-22.703,8.594
	c-8.227-0.017-15.798-3.265-21.812-8.812C1035.233,773.093,1032.719,779.94,1035.225,782.25z"/>
<path style="fill:#432918;" d="M888.147,491.092c19.549,0,35.406-15.822,35.406-35.372c0-19.55-15.857-35.373-35.406-35.373
	c-3.253,0-6.404,0.44-9.385,1.288c4.744,1.965,8.064,6.607,8.064,12.028c0,7.149-5.828,12.977-13.01,12.977
	c-7.149,0-12.977-5.828-12.977-12.977l0.033-0.441c-5.048,6.099-8.097,13.959-8.097,22.498
	C852.775,475.27,868.632,491.092,888.147,491.092z"/>
</svg>
